<svg id="avta" data-name="Camada 1" xmlns="http://www.w3.org/2000/svg" viewBox="0 0 595.28 595.28">
    <defs>
        <style>
            svg#avta .cls-s2 {
                fill: none;
                stroke-miterlimit: 10;
                stroke-width: 33px;
            }
        </style>
    </defs>
    <title>SVG_corretos_site</title>
    <rect id="Retângulo_8" data-name="Retângulo 8" class="cls-1" width="595.28" height="595.28" />
    <g id="Grupo_9" data-name="Grupo 9">
        <path id="Caminho_5" data-name="Caminho 5" class="cls-s2"
            d="M289.51,271.21c62-27.31,122.83-54.62,184.78-81.91-61.24-25-123.56-50-184.78-75-61.23,25-121.37,50-182.6,75C167.42,216.59,229,243.9,289.51,271.21Z" />
        <path id="Caminho_6" data-name="Caminho 6" class="cls-s2"
            d="M390.61,226.38v96.25a207.41,207.41,0,0,1-201.8,0V226" />
        <line id="Linha_2" data-name="Linha 2" class="cls-s2" x1="457.93" y1="203.7" x2="457.93" y2="320.13" />
        <circle id="Elipse_2" data-name="Elipse 2" class="cls-s2" cx="458.66" cy="336.12" r="21.99" />
    </g>
    <g id="AVTA_18-21" data-name="AVTA 18-21" class="cls-is">
        <g class="cls-is">
            <path class="cls-2"
                d="M128.81,524.79l-10.45,4.72-10-21.8H86.73l-10.12,22-10.2-4.89,26.92-58.45,6.85-2.92ZM97.53,484l-6.35,14H104Z" />
            <path class="cls-2" d="M159,529.17l-6.43-5.23L128.9,466.6l10.54-4.46,17.66,42.34,17.57-42.34,10.46,4.46Z" />
            <path class="cls-2" d="M237.59,475H218.22v50.91H206.56V475H184.62l3.6-9.95h53Z" />
            <path class="cls-2"
                d="M303.25,524.79l-10.46,4.72-9.94-21.8H261.16l-10.11,22-10.2-4.89,26.91-58.45,6.86-2.92ZM272,484l-6.34,14h12.77Z" />
            <path class="cls-2" d="M351.68,525.91h-11.4V467l11.4-6.34Z" />
            <path class="cls-2"
                d="M365.14,482.71a18.36,18.36,0,0,1,1.46-7.46,18.13,18.13,0,0,1,3.94-5.78,17.5,17.5,0,0,1,5.74-3.77,18.14,18.14,0,0,1,7-1.33,18.45,18.45,0,0,1,7.11,1.37,18.05,18.05,0,0,1,9.77,9.38,16.59,16.59,0,0,1,1.46,6.9,14.75,14.75,0,0,1-1.54,6.86,16.8,16.8,0,0,1-4.55,5.4,15.57,15.57,0,0,1,7.2,13.63,18.41,18.41,0,0,1-1.5,7.46A18.59,18.59,0,0,1,391,525.31a19.57,19.57,0,0,1-7.55,1.46,19.82,19.82,0,0,1-13.76-5.4,18.19,18.19,0,0,1-4.11-5.87,17.69,17.69,0,0,1-1.5-7.25,16.12,16.12,0,0,1,7-14A13.93,13.93,0,0,1,365.14,482.71Zm15,17.62a8,8,0,0,0-2.44,1.92,8.46,8.46,0,0,0-1.59,2.88,10.91,10.91,0,0,0-.55,3.47,8.54,8.54,0,0,0,2.23,5.74,7.41,7.41,0,0,0,2.48,1.76,7.74,7.74,0,0,0,3.17.64,6.93,6.93,0,0,0,5.58-2.57,9.76,9.76,0,0,0,2.14-6.43,8,8,0,0,0-2.32-5.79,7.62,7.62,0,0,0-5.65-2.35A6.53,6.53,0,0,0,380.18,500.33Zm8.06-13a8.15,8.15,0,0,0,1.84-5.45,7.3,7.3,0,0,0-2-5.14,6.35,6.35,0,0,0-4.88-2.14,6,6,0,0,0-4.68,2.18,8.26,8.26,0,0,0,0,10.59,6.24,6.24,0,0,0,4.85,2.14A6,6,0,0,0,388.24,487.3Z" />
            <path class="cls-2" d="M437.06,508.25H410.48l2.15-10.11H439.2Z" />
            <path class="cls-2"
                d="M446.83,471.65a34.17,34.17,0,0,1,8.7-5.57,23.36,23.36,0,0,1,9.3-1.89,19.84,19.84,0,0,1,7.41,1.38,18.29,18.29,0,0,1,6.05,3.85,18,18,0,0,1,4,6,19.67,19.67,0,0,1,1.45,7.67,18.32,18.32,0,0,1-1.28,6.73,41.38,41.38,0,0,1-3.73,7.12q-2.44,3.81-5.92,8.4T465,515.88h24.09v10H443.91q6.34-8.48,11.62-15.25t9-12a89,89,0,0,0,5.79-9,14.28,14.28,0,0,0,2.05-6.47,8.51,8.51,0,0,0-2.48-6.26,8.38,8.38,0,0,0-6.17-2.48,11.8,11.8,0,0,0-5.7,1.41,24.75,24.75,0,0,0-6,5Z" />
            <path class="cls-2" d="M511.2,525.91H499.8V467l11.4-6.34Z" />
        </g>
    </g>
</svg>