<svg id="avta_hex" data-name="Camada 1" xmlns="http://www.w3.org/2000/svg" viewBox="0 0 595.28 595.28">
    <defs>
        <style>
            svg#avta_hex .cls-s1 {
                fill: none;
            }
            svg#avta_hex .cls-s1,
            svg#avta_hex .cls-s1.cls-sw1 {
                stroke-miterlimit: 10;
                stroke-width: 18.2px;
            }
        </style>
    </defs>
    <title>SVG_corretos_site</title>
    <g id="Grupo_39" data-name="Grupo 39">
        <g id="Grupo_37" data-name="Grupo 37">
            <path id="Caminho_61" data-name="Caminho 61" class="cls-1"
                d="M74.89,169V426.24L297.64,554.85,520.39,426.24V169L297.64,40.43Z" />
        </g>
        <path id="Caminho_62" data-name="Caminho 62" class="cls-s1"
            d="M50.9,155.18V440.09L297.64,582.54,544.37,440.09V155.18L297.64,12.73Z" />
        <g id="Grupo_38" data-name="Grupo 38">
            <path id="Caminho_63" data-name="Caminho 63" class="cls-s1"
                d="M294.69,271.2c42.73-18.83,84.71-37.66,127.45-56.5C379.9,197.46,336.92,180.22,294.69,163c-42.23,17.23-83.7,34.47-125.93,51.72C210.48,233.53,253,252.37,294.69,271.2Z" />
            <path id="Caminho_64" data-name="Caminho 64" class="cls-s1"
                d="M364.42,240.28v66.38a143,143,0,0,1-139.18,0V240.05" />
            <line id="Linha_10" data-name="Linha 10" class="cls-s1" x1="410.85" y1="224.64" x2="410.85" y2="304.94" />
            <circle id="Elipse_14" data-name="Elipse 14" class="cls-s1 cls-sw1" cx="411.35" cy="315.97" r="15.17" />
            <g id="IPG_16-18" data-name="IPG 16-18" class="cls-is">
                <g class="cls-is">
                    <path class="cls-s2"
                        d="M196.11,431.58l-6.66,3-6.34-13.88H169.3l-6.45,14-6.5-3.11,17.15-37.24,4.37-1.86Zm-19.93-26-4,8.9h8.13Z" />
                    <path class="cls-s2"
                        d="M215.33,434.37,211.24,431,196.16,394.5l6.72-2.84,11.25,27,11.2-27L232,394.5Z" />
                    <path class="cls-s2" d="M265.41,399.85H253.07v32.44h-7.43V399.85h-14l2.29-6.33H267.7Z" />
                    <path class="cls-s2"
                        d="M307.24,431.58l-6.66,3-6.34-13.88H280.43l-6.45,14-6.5-3.11,17.15-37.24,4.37-1.86Zm-19.93-26-4,8.9h8.13Z" />
                    <path class="cls-s2" d="M338.09,432.29h-7.26V394.77l7.26-4Z" />
                    <path class="cls-s2"
                        d="M346.66,404.77a11.59,11.59,0,0,1,3.44-8.44,11.18,11.18,0,0,1,3.66-2.4,11.53,11.53,0,0,1,4.43-.85,11.68,11.68,0,0,1,4.53.88,11.55,11.55,0,0,1,6.23,6,10.63,10.63,0,0,1,.92,4.39,9.35,9.35,0,0,1-1,4.37,10.59,10.59,0,0,1-2.89,3.44,9.93,9.93,0,0,1,4.58,8.68,11.81,11.81,0,0,1-3.55,8.55,12.1,12.1,0,0,1-3.87,2.54,13,13,0,0,1-9.67,0,12.74,12.74,0,0,1-3.9-2.51,11.67,11.67,0,0,1-2.63-3.74A11.4,11.4,0,0,1,346,421a10.26,10.26,0,0,1,4.48-8.9A8.88,8.88,0,0,1,346.66,404.77ZM356.25,416a5.18,5.18,0,0,0-1.56,1.23,5.58,5.58,0,0,0-1,1.83,6.86,6.86,0,0,0-.35,2.21,5.45,5.45,0,0,0,1.42,3.66,4.63,4.63,0,0,0,1.58,1.12,5,5,0,0,0,2,.41,4.41,4.41,0,0,0,3.55-1.64,6.19,6.19,0,0,0,1.37-4.1,5.07,5.07,0,0,0-1.48-3.68,4.85,4.85,0,0,0-3.6-1.5A4.17,4.17,0,0,0,356.25,416Zm5.13-8.3a5.21,5.21,0,0,0,1.18-3.47A4.65,4.65,0,0,0,361.3,401a4.07,4.07,0,0,0-3.11-1.37,3.82,3.82,0,0,0-3,1.39,5.25,5.25,0,0,0,0,6.75,4,4,0,0,0,3.09,1.36A3.82,3.82,0,0,0,361.38,407.69Z" />
                    <path class="cls-s2" d="M392.48,421H375.55l1.37-6.44h16.93Z" />
                    <path class="cls-s2"
                        d="M398.71,397.72a21.83,21.83,0,0,1,5.54-3.55,14.92,14.92,0,0,1,5.92-1.2,12.63,12.63,0,0,1,4.73.88,11.67,11.67,0,0,1,3.85,2.45,11.32,11.32,0,0,1,2.56,3.8,12.46,12.46,0,0,1,.93,4.89,11.62,11.62,0,0,1-.82,4.28,25.9,25.9,0,0,1-2.37,4.54q-1.56,2.43-3.77,5.35c-1.47,1.95-3.14,4.19-5,6.74h15.35v6.39H396.85q4-5.4,7.4-9.72t5.73-7.64a55.33,55.33,0,0,0,3.69-5.77A9.14,9.14,0,0,0,415,405a5.4,5.4,0,0,0-1.58-4,5.35,5.35,0,0,0-3.94-1.59,7.51,7.51,0,0,0-3.63.9,15.9,15.9,0,0,0-3.79,3.2Z" />
                    <path class="cls-s2" d="M439.72,432.29h-7.27V394.77l7.27-4Z" />
                </g>
            </g>
        </g>
    </g>
</svg>