<svg id="Camada_1" data-name="Camada 1" xmlns="http://www.w3.org/2000/svg" viewBox="0 0 1205.6 595.28">
    <title>SVG_corretos_site</title>
    <rect id="Retângulo_677" data-name="Retângulo 677" class="cls-4" width="1205.6" height="594.63" />
    <g id="Grupo_176" data-name="Grupo 176">
        <g id="Grupo_175" data-name="Grupo 175">
            <path id="Caminho_651" data-name="Caminho 651" class="cls-1"
                d="M775.53,216.9c10.75,49.29-16.25,91.77-21.91,100.24-35.47,53.08-95.64,62-122.33,66-23.48,3.48-75.33,11.17-124.86-21-8.61-5.59-57.33-37.2-65-90.28-10.61-73.21,61.85-152.65,144.25-166.2C667.15,92.26,759.45,143.14,775.53,216.9Z" />
            <path id="Caminho_652" data-name="Caminho 652" class="cls-1"
                d="M456,203.53q-20-49.2-40-98.39l76.74,51.14" />
            <path id="Caminho_653" data-name="Caminho 653" class="cls-1" d="M689.1,126.44l62.78-70.5-13.56,102" />
        </g>
        <g id="Hallo_Onig" data-name="Hallo Onig" class="cls-is">
            <g class="cls-is">
                <path class="cls-1"
                    d="M407.93,457,426,453.9q-4.87,18.71-7.9,34.07l8.09-1.72,5-29.22,18.08-3.13q-10.36,40-13.1,67.92l-16.81,4.3,4.5-26.58-8.31,1.76q-1.85,12-2.63,20.52l-16.81,4.3Z" />
                <path class="cls-1"
                    d="M434.58,527.29a632.34,632.34,0,0,0,23.26-70.65l29.71-5q-5.08,29.61-4.6,70.07l-20.71,4.79,1.46-12.22-6.54,1.27-2.06,8.6Zm30.69-26.14,4.49-36.89h-.1l-9.18,37.82Z" />
                <path class="cls-1"
                    d="M497.19,457,514,453.9q-7,27.08-10.84,49.94l17.19-2.64-1.46,18.17q-13.29,1.18-33.72,6.75Z" />
                <path class="cls-1"
                    d="M532.84,457l16.8-3.13q-7,27.08-10.84,49.94L556,501.2l-1.46,18.17q-13.29,1.18-33.71,6.75Z" />
                <path class="cls-1"
                    d="M595,449.6q10.35,0,14.66,11.53a37.06,37.06,0,0,1,2.24,13.1,60,60,0,0,1-2.05,14.85,70.31,70.31,0,0,1-12.51,25.21q-10.84,14.07-23,14.08-10.46,0-14.86-11.54a35.61,35.61,0,0,1-2.14-12.7,59.09,59.09,0,0,1,2.14-15.05,71.29,71.29,0,0,1,12.42-25.31Q582.75,449.61,595,449.6Zm-3.52,24.24q-5.37,0-10.94,8.79a47.54,47.54,0,0,0-6.26,13.58,26.35,26.35,0,0,0-.88,6.36,10.37,10.37,0,0,0,2,6.54,7.52,7.52,0,0,0,6.25,2.84q5.48,0,9.87-5.77a29.16,29.16,0,0,0,5.08-10.85,36.19,36.19,0,0,0,.78-14.46Q596.13,473.84,591.44,473.84Z" />
                <path class="cls-1"
                    d="M668.68,449.6q10.37,0,14.66,11.53a36.84,36.84,0,0,1,2.25,13.1,60.48,60.48,0,0,1-2.05,14.85A70.31,70.31,0,0,1,671,514.29q-10.85,14.07-23,14.08-10.45,0-14.85-11.54a35.61,35.61,0,0,1-2.15-12.7,59.13,59.13,0,0,1,2.15-15.05,71.27,71.27,0,0,1,12.41-25.31Q656.47,449.61,668.68,449.6Zm-3.52,24.24q-5.37,0-10.94,8.79A47.5,47.5,0,0,0,648,496.21a26.35,26.35,0,0,0-.88,6.36,10.42,10.42,0,0,0,1.95,6.54,7.53,7.53,0,0,0,6.25,2.84q5.48,0,9.87-5.77a29.33,29.33,0,0,0,5.09-10.85,36.56,36.56,0,0,0,.78-14.46Q669.86,473.84,665.16,473.84Z" />
                <path class="cls-1"
                    d="M694.36,457.32l16.9-3.42q-.19,3-.19,8.6,0,13.29.88,23.36a52.19,52.19,0,0,0,1.46,9.28L720.06,457l16.8-3.13q-10.15,39.19-13.29,67.92l-15.44,4.3c-.06-.13-.48-1.27-1.27-3.42l-5.08-14.47a44.63,44.63,0,0,1-1.46-4.49q-2.05,11.53-3.23,22.38l-15.63,4.69Z" />
                <path class="cls-1" d="M743.87,457l16.81-3.13q-10.17,39.19-13.29,67.92l-15.54,4.3Z" />
                <path class="cls-1"
                    d="M772.68,528.37q-10.36,0-14.66-11.15a33.1,33.1,0,0,1-2.25-12.5,56.82,56.82,0,0,1,2.05-14.37A65.28,65.28,0,0,1,770,465.82q10.65-13.57,22.67-13.58,10.45,0,14.75,11.53L796.62,475.4a5.83,5.83,0,0,0-5.18-2.64q-6.65,0-12.51,9.19a52.88,52.88,0,0,0-6.55,15.34,23.35,23.35,0,0,0-.88,6,9.74,9.74,0,0,0,2,6.45,7.68,7.68,0,0,0,6.26,2.74q4.59,0,8.5-4.21a25.32,25.32,0,0,0,5.08-8.4q-7.23,1.47-13.39,3l3.1-14.33L809,483a40.31,40.31,0,0,1-2.74,14.55,65.93,65.93,0,0,1-6.55,13.28Q788.32,528.37,772.68,528.37Z" />
            </g>
        </g>
    </g>
</svg>