<svg id="ipg" data-name="Camada 1" xmlns="http://www.w3.org/2000/svg" viewBox="0 0 595.28 595.28">
    <defs>
        <style>
            svg#ipg .cls-s2 {
                fill: none;
                stroke-miterlimit: 10;
                stroke-width: 33px;
            }
        </style>
    </defs>
    <title>SVG_corretos_site</title>
    <rect id="Retângulo_7" data-name="Retângulo 7" class="cls-1" width="595.28" height="595.28" />
    <g id="Grupo_7" data-name="Grupo 7">
        <path id="Caminho_3" data-name="Caminho 3" class="cls-s2"
            d="M291.18,271.3c62-27.31,122.87-54.63,184.84-81.93-61.26-25-123.6-50-184.84-75-61.26,25-121.42,50-182.67,75C169,216.67,230.65,244,291.18,271.3Z" />
        <path id="Caminho_4" data-name="Caminho 4" class="cls-s2"
            d="M392.31,226.45v96.29a207.44,207.44,0,0,1-201.87,0V226.12" />
        <line id="Linha_1" data-name="Linha 1" class="cls-s2" x1="459.65" y1="203.78" x2="459.65" y2="320.24" />
        <circle id="Elipse_1" data-name="Elipse 1" class="cls-s2" cx="460.39" cy="336.24" r="22" />
    </g>
    <g id="IPG_16-18" data-name="IPG 16-18" class="cls-4">
        <g class="cls-4">
            <path class="cls-2" d="M137.62,518.39H126V459.05l11.66-4.37Z" />
            <path class="cls-2"
                d="M170.55,457.68a29.62,29.62,0,0,1,9.56,1.37,18.11,18.11,0,0,1,6.56,3.77,14.76,14.76,0,0,1,3.77,5.53,18.71,18.71,0,0,1,1.2,6.74,20.92,20.92,0,0,1-1,6.43,14.37,14.37,0,0,1-3.56,5.7,18.73,18.73,0,0,1-6.73,4.12,30.38,30.38,0,0,1-10.55,1.58H163v25.64H151.34V457.68ZM163,483.15h6.52a15.52,15.52,0,0,0,4.8-.65,9,9,0,0,0,3.18-1.71,6.45,6.45,0,0,0,1.75-2.53,8.39,8.39,0,0,0,.56-3.09,7.36,7.36,0,0,0-2.31-5.44c-1.55-1.52-4.06-2.28-7.55-2.28H163Z" />
            <path class="cls-2"
                d="M251.07,472.94a49.81,49.81,0,0,0-11.1-4.5,37.89,37.89,0,0,0-8.88-1.16,20.39,20.39,0,0,0-8.1,1.59,19.69,19.69,0,0,0-6.44,4.37,20.33,20.33,0,0,0-4.24,6.61,22.06,22.06,0,0,0-1.54,8.36,23.87,23.87,0,0,0,1.28,7.76,19.22,19.22,0,0,0,4,6.69,19.5,19.5,0,0,0,6.73,4.71,24,24,0,0,0,9.61,1.76,32.38,32.38,0,0,0,6.13-.52A23.34,23.34,0,0,0,243.7,507v-16.3l11.49-5.23v28a59.26,59.26,0,0,1-12,4.54,45.49,45.49,0,0,1-11,1.46,36.88,36.88,0,0,1-13.33-2.36,32.42,32.42,0,0,1-10.63-6.56,29.79,29.79,0,0,1-7-9.95,32.22,32.22,0,0,1-.05-24.91,29.27,29.27,0,0,1,6.91-9.82,32.3,32.3,0,0,1,10.5-6.47A36.3,36.3,0,0,1,231.78,457c1.71,0,3.38.08,5,.22a39.32,39.32,0,0,1,5.15.81,48.5,48.5,0,0,1,5.83,1.72q3.12,1.11,7.16,2.91Z" />
            <path class="cls-2" d="M309.63,518.56h-11.4V459.65l11.4-6.34Z" />
            <path class="cls-2"
                d="M351.31,462.65a63.74,63.74,0,0,0-6.86,6.52A46,46,0,0,0,340,475a30.23,30.23,0,0,0-2.7,5.19,35.93,35.93,0,0,0-1.46,4.46,11.22,11.22,0,0,1,3.17-.94,23.3,23.3,0,0,1,3.43-.26,19.71,19.71,0,0,1,7.5,1.41,18,18,0,0,1,10,9.78,18.21,18.21,0,0,1,1.46,7.33,18.58,18.58,0,0,1-1.41,7.29,16.78,16.78,0,0,1-4,5.75,18.46,18.46,0,0,1-6.09,3.73,21.8,21.8,0,0,1-7.72,1.33,21.46,21.46,0,0,1-8.4-1.59A17.69,17.69,0,0,1,327.3,514a20.88,20.88,0,0,1-4.12-7.07,27.64,27.64,0,0,1-1.46-9.26,42.78,42.78,0,0,1,2-13.08,57.43,57.43,0,0,1,5.32-11.87,64.11,64.11,0,0,1,7.41-10.17,73.79,73.79,0,0,1,8.24-7.93Zm-18.18,35.76q0,5.4,2.49,8.4a7.76,7.76,0,0,0,6.26,3,8.25,8.25,0,0,0,3.17-.6,8.65,8.65,0,0,0,2.57-1.63,7.06,7.06,0,0,0,1.72-2.45,7.71,7.71,0,0,0,.6-3,8.62,8.62,0,0,0-.65-3.35,8.93,8.93,0,0,0-1.71-2.7,8.1,8.1,0,0,0-2.57-1.84,7.63,7.63,0,0,0-3.22-.69,11.63,11.63,0,0,0-4.37.82,16.78,16.78,0,0,0-4.29,2.61Z" />
            <path class="cls-2" d="M394,500.9H367.43l2.14-10.12h26.59Z" />
            <path class="cls-2" d="M418.54,518.56H407.13V459.65l11.41-6.34Z" />
            <path class="cls-2"
                d="M432,475.34a18.36,18.36,0,0,1,1.46-7.46,18,18,0,0,1,3.94-5.78,17.63,17.63,0,0,1,5.75-3.78,18.28,18.28,0,0,1,6.94-1.33,18.47,18.47,0,0,1,7.12,1.38,18.05,18.05,0,0,1,9.77,9.38,16.44,16.44,0,0,1,1.46,6.91,14.78,14.78,0,0,1-1.54,6.86,16.8,16.8,0,0,1-4.55,5.4,15.56,15.56,0,0,1,7.21,13.63,18.38,18.38,0,0,1-1.5,7.46,18.69,18.69,0,0,1-10.17,10,19.48,19.48,0,0,1-7.54,1.46,19.82,19.82,0,0,1-13.76-5.4,18.11,18.11,0,0,1-4.12-5.88,17.65,17.65,0,0,1-1.5-7.24q0-9,7-14A13.94,13.94,0,0,1,432,475.34ZM447.05,493a8.06,8.06,0,0,0-2.45,1.92,8.62,8.62,0,0,0-1.58,2.88,10.65,10.65,0,0,0-.56,3.47,8.34,8.34,0,0,0,.6,3.13,8.46,8.46,0,0,0,1.63,2.62,7.42,7.42,0,0,0,2.49,1.75,7.75,7.75,0,0,0,3.17.65,6.91,6.91,0,0,0,5.57-2.58,9.68,9.68,0,0,0,2.15-6.43,8,8,0,0,0-2.32-5.79,7.62,7.62,0,0,0-5.66-2.35A6.49,6.49,0,0,0,447.05,493Zm8.06-13a8.15,8.15,0,0,0,1.84-5.44,7.37,7.37,0,0,0-2-5.15,6.39,6.39,0,0,0-4.89-2.14,6,6,0,0,0-4.67,2.18,7.7,7.7,0,0,0-1.93,5.28,7.61,7.61,0,0,0,1.93,5.31,6.23,6.23,0,0,0,4.84,2.15A6,6,0,0,0,455.11,479.93Z" />
        </g>
    </g>
</svg>