<svg id="ipg" data-name="Camada 1" xmlns="http://www.w3.org/2000/svg" viewBox="0 0 595.28 595.28">
    <defs>
        <style>
            svg#ipg .cls-s1:not(.cls-1) {
                fill: none;
            }
            svg#ipg .cls-s1 {
                stroke-miterlimit: 10;
                stroke-width: 18.2px;
            }
        </style>
    </defs>
    <title>SVG_corretos_site</title>
    <g id="Grupo_39" data-name="Grupo 39">
        <g id="Grupo_37" data-name="Grupo 37">
            <path id="Caminho_61" data-name="Caminho 61" class="cls-1"
                d="M74.89,169V426.24L297.64,554.85,520.39,426.24V169L297.64,40.43Z" />
        </g>
        <path id="Caminho_62" data-name="Caminho 62" class="cls-s1"
            d="M50.9,155.18V440.09L297.64,582.54,544.37,440.09V155.18L297.64,12.73Z" />
        <g id="Grupo_38" data-name="Grupo 38">
            <path id="Caminho_63" data-name="Caminho 63" class="cls-s1"
                d="M294.69,271.2c42.73-18.83,84.71-37.66,127.45-56.5C379.9,197.46,336.92,180.22,294.69,163c-42.23,17.23-83.7,34.47-125.93,51.72C210.48,233.53,253,252.37,294.69,271.2Z" />
            <path id="Caminho_64" data-name="Caminho 64" class="cls-s1"
                d="M364.42,240.28v66.38a143,143,0,0,1-139.18,0V240.05" />
            <line id="Linha_10" data-name="Linha 10" class="cls-s1" x1="410.85" y1="224.64" x2="410.85" y2="304.94" />
            <circle id="Elipse_14" data-name="Elipse 14" class="cls-s1 cls-1" cx="411.35" cy="315.97" r="15.17" />
            <g id="IPG_16-18" data-name="IPG 16-18" class="cls-is">
                <g class="cls-is">
                    <path class="cls-4" d="M193.62,432.18h-7.43V394.39l7.43-2.78Z" />
                    <path class="cls-4"
                        d="M214.59,393.52a18.83,18.83,0,0,1,6.08.87,11.56,11.56,0,0,1,4.18,2.41,9.37,9.37,0,0,1,2.4,3.52,11.87,11.87,0,0,1,.77,4.28,13.12,13.12,0,0,1-.66,4.1,8.94,8.94,0,0,1-2.26,3.63,11.88,11.88,0,0,1-4.29,2.62,19,19,0,0,1-6.72,1h-4.31v16.33h-7.43V393.52Zm-4.81,16.22h4.15a10.07,10.07,0,0,0,3.06-.41,5.61,5.61,0,0,0,2-1.09,4.23,4.23,0,0,0,1.12-1.61,5.63,5.63,0,0,0,.35-2,4.7,4.7,0,0,0-1.47-3.47c-1-1-2.59-1.45-4.81-1.45h-4.42Z" />
                    <path class="cls-4"
                        d="M265.86,403.24a31.66,31.66,0,0,0-7.07-2.87,24,24,0,0,0-5.65-.73,12.91,12.91,0,0,0-5.16,1,12.35,12.35,0,0,0-4.1,2.78,13,13,0,0,0-2.7,4.21,14,14,0,0,0-1,5.32,14.93,14.93,0,0,0,.82,4.94,12,12,0,0,0,2.53,4.26,12.52,12.52,0,0,0,4.29,3,15.35,15.35,0,0,0,6.12,1.11,20.85,20.85,0,0,0,3.9-.32,15.16,15.16,0,0,0,3.31-1V414.54l7.31-3.33V429a37.61,37.61,0,0,1-7.64,2.89,28.89,28.89,0,0,1-7,.93,23.46,23.46,0,0,1-8.49-1.5,20.81,20.81,0,0,1-6.77-4.18,18.89,18.89,0,0,1-4.48-6.34,20.51,20.51,0,0,1,0-15.86,18.54,18.54,0,0,1,4.4-6.25,20.62,20.62,0,0,1,6.69-4.13,23.06,23.06,0,0,1,8.41-1.5c1.09,0,2.15.05,3.19.14a24.4,24.4,0,0,1,3.28.52,31.6,31.6,0,0,1,3.71,1.09q2,.71,4.56,1.86Z" />
                    <path class="cls-4" d="M303.16,432.29H295.9V394.77l7.26-4Z" />
                    <path class="cls-4"
                        d="M329.7,396.69a39.61,39.61,0,0,0-4.37,4.15,29.11,29.11,0,0,0-2.87,3.74,20.26,20.26,0,0,0-1.72,3.3,23.9,23.9,0,0,0-.93,2.84,7.4,7.4,0,0,1,2-.6A14.67,14.67,0,0,1,324,410a12.59,12.59,0,0,1,4.78.9,11.72,11.72,0,0,1,3.82,2.48,11.85,11.85,0,0,1,2.54,3.74,12.3,12.3,0,0,1,0,9.31,10.61,10.61,0,0,1-2.54,3.66,11.76,11.76,0,0,1-3.88,2.38,13.87,13.87,0,0,1-4.91.84,13.62,13.62,0,0,1-5.36-1,11.24,11.24,0,0,1-4.09-2.89,13.32,13.32,0,0,1-2.62-4.51,17.5,17.5,0,0,1-.93-5.89,27.31,27.31,0,0,1,1.28-8.33,36.81,36.81,0,0,1,3.39-7.56,40.5,40.5,0,0,1,4.72-6.48,48,48,0,0,1,5.24-5.05Zm-11.58,22.77a8.13,8.13,0,0,0,1.59,5.35,5,5,0,0,0,4,1.91,5.34,5.34,0,0,0,2-.38,5.45,5.45,0,0,0,1.64-1,4.45,4.45,0,0,0,1.09-1.55,4.87,4.87,0,0,0,.38-1.94,5.5,5.5,0,0,0-.4-2.13,5.76,5.76,0,0,0-1.1-1.72,5,5,0,0,0-1.64-1.18,4.82,4.82,0,0,0-2-.43,7.63,7.63,0,0,0-2.79.51,11.09,11.09,0,0,0-2.73,1.67Z" />
                    <path class="cls-4" d="M356.89,421H340l1.36-6.44h16.93Z" />
                    <path class="cls-4" d="M372.51,432.29h-7.26V394.77l7.26-4Z" />
                    <path class="cls-4"
                        d="M381.08,404.77a11.59,11.59,0,0,1,3.44-8.44,11.18,11.18,0,0,1,3.66-2.4,11.53,11.53,0,0,1,4.43-.85,11.68,11.68,0,0,1,4.53.88,11.55,11.55,0,0,1,6.23,6,10.63,10.63,0,0,1,.92,4.39,9.35,9.35,0,0,1-1,4.37,10.59,10.59,0,0,1-2.89,3.44,9.93,9.93,0,0,1,4.58,8.68,11.81,11.81,0,0,1-3.55,8.55,12.1,12.1,0,0,1-3.87,2.54,13,13,0,0,1-9.67,0,12.74,12.74,0,0,1-3.9-2.51,11.41,11.41,0,0,1-3.58-8.36,10.26,10.26,0,0,1,4.48-8.9A8.88,8.88,0,0,1,381.08,404.77ZM390.67,416a5.18,5.18,0,0,0-1.56,1.23,5.58,5.58,0,0,0-1,1.83,6.86,6.86,0,0,0-.35,2.21,5.45,5.45,0,0,0,1.42,3.66,4.63,4.63,0,0,0,1.58,1.12,5,5,0,0,0,2,.41,4.41,4.41,0,0,0,3.55-1.64,6.19,6.19,0,0,0,1.37-4.1,5.07,5.07,0,0,0-1.48-3.68,4.85,4.85,0,0,0-3.6-1.5A4.14,4.14,0,0,0,390.67,416Zm5.13-8.3a5.21,5.21,0,0,0,1.18-3.47,4.65,4.65,0,0,0-1.26-3.27,4.07,4.07,0,0,0-3.11-1.37,3.82,3.82,0,0,0-3,1.39,5.25,5.25,0,0,0,0,6.75,4,4,0,0,0,3.09,1.36A3.82,3.82,0,0,0,395.8,407.69Z" />
                </g>
            </g>
        </g>
    </g>
</svg>