<svg id="Camada_1" data-name="Camada 1" xmlns="http://www.w3.org/2000/svg" viewBox="0 0 1205.6 595.28">
    <defs>
        <style>
            .cls-2 {
                fill: none;
                stroke-miterlimit: 10;
                stroke-width: 14px;
            }
        </style>
    </defs>
    <title>SVG_corretos_site</title>
    <rect id="Retângulo_346" data-name="Retângulo 346" class="cls-1" width="1205.6" height="595.27" />
    <g id="Grupo_174" data-name="Grupo 174">
        <path id="Caminho_645" data-name="Caminho 645" class="cls-2" d="M688.42,443.57a167.2,167.2,0,0,1-161.86.28" />
        <path id="Caminho_646" data-name="Caminho 646" class="cls-2"
            d="M654.55,137.47A167.18,167.18,0,0,1,771.9,269.93" />
        <path id="Caminho_647" data-name="Caminho 647" class="cls-2" d="M443,267.19A167.19,167.19,0,0,1,559.82,137.5" />
        <path id="Caminho_648" data-name="Caminho 648" class="cls-2"
            d="M405.49,356.24a199,199,0,0,1-8.76-58.6c0-116.26,94.24-210.5,210.5-210.5s210.51,94.24,210.51,210.5a223.46,223.46,0,0,1-7.78,58.6" />
        <path id="Caminho_649" data-name="Caminho 649" class="cls-2"
            d="M759,443.57c-80.6,83.78-213.86,86.37-297.65,5.78q-2.94-2.84-5.78-5.78" />
        <line id="Linha_36" data-name="Linha 36" class="cls-2" x1="673.16" y1="351.65" x2="816.02" y2="351.65" />
        <line id="Linha_37" data-name="Linha 37" class="cls-2" x1="399.61" y1="351.65" x2="542.26" y2="351.65" />
        <g id="FCP" class="cls-is">
            <g class="cls-is">
                <path class="cls-4"
                    d="M570,118.76h22.12v8.18H585.6v-3.29H580v6.43h7V135h-7v4.7h3.77v4.92H570v-4.92h2.29V123.65H570Z" />
                <path class="cls-4"
                    d="M617.53,140a19.44,19.44,0,0,1-2.14,2,16,16,0,0,1-2.59,1.67,14.69,14.69,0,0,1-3,1.14,13.23,13.23,0,0,1-3.44.43,15,15,0,0,1-5.36-.91,11.21,11.21,0,0,1-4.11-2.63,11.79,11.79,0,0,1-2.64-4.18,15.41,15.41,0,0,1-1-5.57,14.6,14.6,0,0,1,1.07-5.71,14.29,14.29,0,0,1,2.74-4.29,12,12,0,0,1,3.65-2.69,9,9,0,0,1,3.79-.92,7.8,7.8,0,0,1,2.39.33,8.68,8.68,0,0,1,1.72.76,5.16,5.16,0,0,1,1.09.85c.26.28.42.48.5.57l.85-2.07h5.81v10.51h-6.62a7.38,7.38,0,0,0-.3-1.74,5.09,5.09,0,0,0-.72-1.5,3.49,3.49,0,0,0-1.19-1,3.55,3.55,0,0,0-1.72-.39,3.09,3.09,0,0,0-1.81.57,5,5,0,0,0-1.39,1.57,8.84,8.84,0,0,0-.89,2.34,12.24,12.24,0,0,0-.31,2.84,9.88,9.88,0,0,0,.35,2.63,7.1,7.1,0,0,0,1,2.22,5.25,5.25,0,0,0,1.68,1.54,4.62,4.62,0,0,0,2.33.57,4.73,4.73,0,0,0,2.18-.52,9,9,0,0,0,1.82-1.16,10.78,10.78,0,0,0,1.27-1.22c.34-.39.54-.63.62-.73Z" />
                <path class="cls-4"
                    d="M619,118.76h12a17.36,17.36,0,0,1,5.22.65,7.76,7.76,0,0,1,3.11,1.74,5.56,5.56,0,0,1,1.5,2.52,11.76,11.76,0,0,1,.38,3,6.37,6.37,0,0,1-.77,3.22,6.86,6.86,0,0,1-2.11,2.28,9.87,9.87,0,0,1-3.09,1.36,14.67,14.67,0,0,1-3.76.47h-2.81v5.73h2.26v4.89H619v-4.89h2.08V123.61H619Zm9.66,4.81V130h1.67a4.07,4.07,0,0,0,2.62-.79,2.73,2.73,0,0,0,1-2.28,3.28,3.28,0,0,0-.91-2.52,3.56,3.56,0,0,0-2.53-.85Z" />
            </g>
        </g>
        <g id="_18" data-name=" 18" class="cls-is">
            <g class="cls-is">
                <path class="cls-4"
                    d="M415.77,294.67c.6-.29,1.19-.57,1.76-.86a15.61,15.61,0,0,0,1.74-1,17.55,17.55,0,0,0,1.87-1.46,20.73,20.73,0,0,0,2.15-2.3H431v24.33h4v5.72h-17.2v-5.72h4.3V297.42l-4.3,2Z" />
                <path class="cls-4"
                    d="M436.67,310.28a7.52,7.52,0,0,1,.32-2.15,9.68,9.68,0,0,1,.92-2.15,9.23,9.23,0,0,1,1.47-1.89,6.7,6.7,0,0,1,1.93-1.38,6.27,6.27,0,0,1-2.43-2.58,7,7,0,0,1-.79-3.14,8.29,8.29,0,0,1,.68-3.35,7.64,7.64,0,0,1,2-2.69,9.32,9.32,0,0,1,3.23-1.78,13.16,13.16,0,0,1,4.32-.65,13.55,13.55,0,0,1,4.41.65A9.27,9.27,0,0,1,456,291a7.24,7.24,0,0,1,2,2.69,8.45,8.45,0,0,1,.67,3.35,6.08,6.08,0,0,1-1.1,3.66,6.88,6.88,0,0,1-2.51,2.19A7.34,7.34,0,0,1,458.3,306a9,9,0,0,1,1.11,4.28,8.72,8.72,0,0,1-.79,3.7,8.51,8.51,0,0,1-2.28,3,11.38,11.38,0,0,1-3.59,2,14.2,14.2,0,0,1-4.69.73,14.6,14.6,0,0,1-4.79-.73,11,11,0,0,1-3.59-2,8.4,8.4,0,0,1-2.24-3A8.86,8.86,0,0,1,436.67,310.28Zm7.44-.26a3.06,3.06,0,0,0,.32,1.42,3.61,3.61,0,0,0,.86,1.12,3.88,3.88,0,0,0,1.27.73,4.8,4.8,0,0,0,4.3-.6,3.08,3.08,0,0,0,1.2-2.67,2.86,2.86,0,0,0-.58-1.85,4.32,4.32,0,0,0-1.42-1.16,6.13,6.13,0,0,0-1.78-.6,13.42,13.42,0,0,0-1.68-.22,5.68,5.68,0,0,0-1.74,1.59A3.75,3.75,0,0,0,444.11,310Zm7.35-13.37a2.38,2.38,0,0,0-1-1.94,3.53,3.53,0,0,0-2.26-.77,3.2,3.2,0,0,0-2.17.81,2.5,2.5,0,0,0-.92,1.9,2.13,2.13,0,0,0,.47,1.44,3.38,3.38,0,0,0,1.14.84,6.14,6.14,0,0,0,1.4.43,7.88,7.88,0,0,0,1.25.12,4.36,4.36,0,0,0,1.44-1.11A2.6,2.6,0,0,0,451.46,296.65Z" />
            </g>
        </g>
        <g id="_93" data-name=" 93" class="cls-is">
            <g class="cls-is">
                <path class="cls-4"
                    d="M751.33,310.49c.75.43,1.65.91,2.71,1.42a8,8,0,0,0,3.57.78,5,5,0,0,0,3.85-1.51,6.15,6.15,0,0,0,1.4-4.34,7.94,7.94,0,0,1-2.35,1.55,8.08,8.08,0,0,1-3.33.64,10.1,10.1,0,0,1-3.76-.69,9.41,9.41,0,0,1-3.06-1.95,9.24,9.24,0,0,1-2.06-3,9.84,9.84,0,0,1-.75-3.91,11.08,11.08,0,0,1,.79-4.17,10.22,10.22,0,0,1,2.28-3.46,11,11,0,0,1,3.63-2.37,12.91,12.91,0,0,1,4.86-.88,12.16,12.16,0,0,1,4.93,1,11.39,11.39,0,0,1,3.91,2.82,13.06,13.06,0,0,1,2.58,4.47,18,18,0,0,1,.93,6,31,31,0,0,1-.22,3.48,22.07,22.07,0,0,1-.75,3.7,19,19,0,0,1-1.46,3.57,11.16,11.16,0,0,1-2.39,3,11,11,0,0,1-3.53,2.09,14.35,14.35,0,0,1-7.26.53,20.66,20.66,0,0,1-2.69-.66,17,17,0,0,1-2.6-1.08,11,11,0,0,1-2.15-1.42Zm7.4-7.65a4.29,4.29,0,0,0,1.39-.3,4.85,4.85,0,0,0,1.12-.63,6.07,6.07,0,0,0,.88-.77,7.82,7.82,0,0,0,.65-.75,9.24,9.24,0,0,0-.17-1.7,5.58,5.58,0,0,0-.6-1.63,4,4,0,0,0-1.12-1.25,2.89,2.89,0,0,0-1.72-.5,3.88,3.88,0,0,0-2.8,1.08,3.52,3.52,0,0,0-1.12,2.62,5.19,5.19,0,0,0,.18,1.33,3.07,3.07,0,0,0,.6,1.23,3.49,3.49,0,0,0,1.07.9A3.24,3.24,0,0,0,758.73,302.84Z" />
                <path class="cls-4"
                    d="M782.81,319.65a11.34,11.34,0,0,1-3.06-.41,16.33,16.33,0,0,1-2.86-1.07,12.07,12.07,0,0,1-2.4-1.55,9,9,0,0,1-1.7-1.83l4.38-4.56a13.17,13.17,0,0,0,2.52,2,6,6,0,0,0,3.16.8,4.39,4.39,0,0,0,2.84-.84,3,3,0,0,0,1-2.47,2.79,2.79,0,0,0-1-2.45,4.38,4.38,0,0,0-2.6-.69h-3.22v-5.12h3.13a4.4,4.4,0,0,0,2.61-.75,2.55,2.55,0,0,0,1.05-2.21,3.26,3.26,0,0,0-.34-1.51,3.15,3.15,0,0,0-.89-1.05,4.16,4.16,0,0,0-1.2-.63,4.47,4.47,0,0,0-1.35-.21,5.55,5.55,0,0,0-2.58.69,8.91,8.91,0,0,0-2.45,1.89l-4.18-5a10.27,10.27,0,0,1,1.53-1.36,15.28,15.28,0,0,1,2.19-1.31,16.12,16.12,0,0,1,2.63-1,10.19,10.19,0,0,1,2.86-.41,15.48,15.48,0,0,1,4.66.65,9.53,9.53,0,0,1,3.44,1.85,8,8,0,0,1,2.13,2.88,9.21,9.21,0,0,1,.73,3.74,5.34,5.34,0,0,1-.34,2,6.71,6.71,0,0,1-.84,1.52,8.48,8.48,0,0,1-1,1.16,10.6,10.6,0,0,1-1,.8q.51.39,1.2,1a8.68,8.68,0,0,1,2.37,3.46,7.5,7.5,0,0,1,.43,2.6,7.88,7.88,0,0,1-1.06,4.17,9.5,9.5,0,0,1-2.73,2.95,11.94,11.94,0,0,1-3.8,1.76A16.23,16.23,0,0,1,782.81,319.65Z" />
            </g>
        </g>
        <g id="PORTO_DAYS" data-name="PORTO DAYS" class="cls-is">
            <g class="cls-is">
                <path class="cls-4"
                    d="M381,377.87h20.74a29.82,29.82,0,0,1,9,1.12,13.45,13.45,0,0,1,5.38,3,9.56,9.56,0,0,1,2.59,4.36,19.63,19.63,0,0,1,.67,5.21,11,11,0,0,1-1.34,5.57,11.74,11.74,0,0,1-3.65,3.94,17.21,17.21,0,0,1-5.34,2.36,25.17,25.17,0,0,1-6.5.8h-4.86v9.92h3.9v8.45H381v-8.45h3.59v-27.9H381Zm16.71,8.32v11.13h2.88a7.12,7.12,0,0,0,4.54-1.37A4.75,4.75,0,0,0,406.9,392a5.66,5.66,0,0,0-1.57-4.35,6.15,6.15,0,0,0-4.38-1.47Z" />
                <path class="cls-4"
                    d="M444.28,423.75a27.9,27.9,0,0,1-9.22-1.47,19.43,19.43,0,0,1-7.26-4.41,20.07,20.07,0,0,1-4.74-7.4,29.29,29.29,0,0,1-1.7-10.46,26.37,26.37,0,0,1,1.64-9.47,21.59,21.59,0,0,1,4.6-7.39,20.59,20.59,0,0,1,7.11-4.8,23.78,23.78,0,0,1,9.12-1.7,27.92,27.92,0,0,1,10.21,1.7,18.91,18.91,0,0,1,7.16,4.8,19.53,19.53,0,0,1,4.23,7.52,33,33,0,0,1,1.37,9.79,30.23,30.23,0,0,1-1.47,9.76,19.56,19.56,0,0,1-4.35,7.33,19,19,0,0,1-7.07,4.6A26.86,26.86,0,0,1,444.28,423.75Zm0-10a4.21,4.21,0,0,0,2.72-1,8,8,0,0,0,2-2.69,15.54,15.54,0,0,0,1.32-4.16,31,31,0,0,0,.44-5.44,33.43,33.43,0,0,0-.41-5.47,17.75,17.75,0,0,0-1.28-4.42,8.1,8.1,0,0,0-2.21-3,5,5,0,0,0-3.2-1.08,4,4,0,0,0-2.66,1,8.13,8.13,0,0,0-2,2.78,17.47,17.47,0,0,0-1.35,4.29,28.83,28.83,0,0,0-.48,5.44,26.44,26.44,0,0,0,.55,5.66,17.05,17.05,0,0,0,1.47,4.32,7.67,7.67,0,0,0,2.24,2.76A4.71,4.71,0,0,0,444.28,413.71Z" />
                <path class="cls-4"
                    d="M469.36,377.87h20.8a32.82,32.82,0,0,1,9,1,13.48,13.48,0,0,1,5.4,2.82,8.8,8.8,0,0,1,2.63,4.19,19,19,0,0,1,.67,5.15,8.49,8.49,0,0,1-.7,3.46,8.63,8.63,0,0,1-1.95,2.78,11.21,11.21,0,0,1-2.95,2,12.05,12.05,0,0,1-3.68,1.06,9.73,9.73,0,0,1,3.17,1.06,10.2,10.2,0,0,1,4.51,4.76,7.79,7.79,0,0,1,.71,3.27,12.78,12.78,0,0,0,.31,3.2c.22.77.62,1.15,1.22,1.15,1,0,1.47-.68,1.47-2v-2.11h4.29v3.52a16.27,16.27,0,0,1-.45,3.84,8.54,8.54,0,0,1-1.53,3.26,8,8,0,0,1-2.88,2.28,10.4,10.4,0,0,1-4.48.86q-6.34,0-9.38-3.14t-3-8.76a27.21,27.21,0,0,0-.19-3.59,4.29,4.29,0,0,0-.87-2.21,3.6,3.6,0,0,0-2-1.12,14.61,14.61,0,0,0-3.39-.32v9.92H490v8.45H469.36v-8.45H473v-27.9h-3.59Zm16.77,8.32v10.88H489a7,7,0,0,0,4.48-1.32,4.62,4.62,0,0,0,1.67-3.87,5.63,5.63,0,0,0-1.51-4.29,6.12,6.12,0,0,0-4.32-1.4Z" />
                <path class="cls-4"
                    d="M558.83,377.87v16.64h-9.4v-8.2h-5.38v27.78h5.31v8.51H525.55v-8.51h5.25V386.31h-5.5v8.2h-9.41V377.87Z" />
                <path class="cls-4"
                    d="M583.67,423.75a27.9,27.9,0,0,1-9.22-1.47,19.43,19.43,0,0,1-7.26-4.41,20.07,20.07,0,0,1-4.74-7.4,29.29,29.29,0,0,1-1.7-10.46,26.37,26.37,0,0,1,1.64-9.47,21.59,21.59,0,0,1,4.6-7.39,20.59,20.59,0,0,1,7.11-4.8,23.78,23.78,0,0,1,9.12-1.7,27.92,27.92,0,0,1,10.21,1.7,18.83,18.83,0,0,1,7.16,4.8,19.53,19.53,0,0,1,4.23,7.52,32.67,32.67,0,0,1,1.37,9.79,30.23,30.23,0,0,1-1.47,9.76,19.56,19.56,0,0,1-4.35,7.33,19,19,0,0,1-7.07,4.6A26.86,26.86,0,0,1,583.67,423.75Zm0-10a4.21,4.21,0,0,0,2.72-1,8,8,0,0,0,2-2.69,15.54,15.54,0,0,0,1.32-4.16,31,31,0,0,0,.44-5.44,33.43,33.43,0,0,0-.41-5.47,17.75,17.75,0,0,0-1.28-4.42,8.1,8.1,0,0,0-2.21-3,5,5,0,0,0-3.2-1.08,4,4,0,0,0-2.66,1,8.13,8.13,0,0,0-2,2.78,17.47,17.47,0,0,0-1.35,4.29,28.83,28.83,0,0,0-.48,5.44,26.44,26.44,0,0,0,.55,5.66,17.05,17.05,0,0,0,1.47,4.32,7.67,7.67,0,0,0,2.24,2.76A4.71,4.71,0,0,0,583.67,413.71Z" />
                <path class="cls-4" d="M607.15,430.6v-3.2h32v3.2Z" />
                <path class="cls-4"
                    d="M640.75,422.6v-8.51h4V386.31h-4v-8.44h19.52a29.27,29.27,0,0,1,10.34,1.69,22.61,22.61,0,0,1,7.62,4.61,19.56,19.56,0,0,1,4.73,6.88,22.3,22.3,0,0,1,1.63,8.58q0,11-6.33,17t-18.24,6Zm29.12-23a22.51,22.51,0,0,0-.54-5,13.72,13.72,0,0,0-1.7-4.26,9,9,0,0,0-3-3,8.3,8.3,0,0,0-4.39-1.12h-2.43v27.78h2.43a8,8,0,0,0,4.39-1.15,9,9,0,0,0,3-3.11,14.72,14.72,0,0,0,1.7-4.57A28,28,0,0,0,669.87,399.63Z" />
                <path class="cls-4"
                    d="M736.94,422.6H711.28v-8.38h6.08L716,409.87H702.9l-1.35,4.35h5v8.38H686.19v-8.38h4.35l8.64-28.1h-2.62v-8.25h24.58l11.32,36.35h4.48Zm-31.68-20.41h8.39l-4.23-13.83Z" />
                <path class="cls-4"
                    d="M761.78,398a5.11,5.11,0,0,1,.35-1.16c.19-.47.4-1,.64-1.47s.48-1,.73-1.53.47-1,.64-1.35l3.52-6.46h-3.52v-8.19h17.22v8.19H777.9l-11.84,20.8v7.42h3.59v8.32H749.17v-8.32h3.65v-7.55L740.4,386.06h-3.14v-8.19h21.89v8.19h-3.33l3.72,6.78A10.53,10.53,0,0,0,760,394c.19.47.4,1,.61,1.48s.41,1,.58,1.47.29.83.38,1.09Z" />
                <path class="cls-4"
                    d="M782.32,422.6V406.47h11.9a5.42,5.42,0,0,0,.9,3.24,6.71,6.71,0,0,0,2.14,2,8.51,8.51,0,0,0,2.63,1,13.22,13.22,0,0,0,2.4.25,14.53,14.53,0,0,0,1.79-.12,6.79,6.79,0,0,0,1.76-.48,4,4,0,0,0,1.34-1,2.34,2.34,0,0,0,.55-1.64q0-1.21-1.83-2a34.05,34.05,0,0,0-4.54-1.57c-1.81-.51-3.79-1.1-5.92-1.76a24.55,24.55,0,0,1-5.92-2.72,15.54,15.54,0,0,1-4.54-4.38,11.67,11.67,0,0,1-1.83-6.76,12.07,12.07,0,0,1,1.51-6.14,13.64,13.64,0,0,1,3.77-4.29,17.64,17.64,0,0,1,10-3.33,22.12,22.12,0,0,1,4,.36,16.66,16.66,0,0,1,3.78,1.12,12.34,12.34,0,0,1,3.23,2,10.63,10.63,0,0,1,2.4,3l.64-5.37h11v16.06H811.82a7.42,7.42,0,0,0-.64-3.17,6.66,6.66,0,0,0-1.76-2.33A7.42,7.42,0,0,0,806.8,387a10.35,10.35,0,0,0-3.17-.48,5.19,5.19,0,0,0-1.47.22,5.81,5.81,0,0,0-1.44.64,3.45,3.45,0,0,0-1.09,1.06,2.58,2.58,0,0,0-.41,1.47,3.16,3.16,0,0,0,1.88,2.75,26.56,26.56,0,0,0,4.71,2.05l6.08,2.08a32.67,32.67,0,0,1,6.08,2.78,16.24,16.24,0,0,1,4.7,4.16,10.11,10.11,0,0,1,1.89,6.27,11.9,11.9,0,0,1-1.57,6.34,13.23,13.23,0,0,1-4,4.19,16.71,16.71,0,0,1-5.47,2.34,25.79,25.79,0,0,1-5.89.7,18.5,18.5,0,0,1-4.48-.51,18.18,18.18,0,0,1-3.71-1.34,17.23,17.23,0,0,1-3-1.89,15.65,15.65,0,0,1-2.21-2.15l-.7,4.93Z" />
            </g>
        </g>
        <path id="Caminho_650" data-name="Caminho 650" class="cls-4"
            d="M570.5,221.24A65.18,65.18,0,0,0,556.6,234a67.11,67.11,0,0,0-7.79,12.1,68.69,68.69,0,0,0-4.91,48.66,69.86,69.86,0,0,0,15.49,27.87,65.68,65.68,0,0,0,34.14,20.09,70.16,70.16,0,0,0,39.85-2.6,68.85,68.85,0,0,0,33.66-28,67.86,67.86,0,0,0,9.46-26.19c3.28-23.92-7.64-41.82-10.42-46.12A68.58,68.58,0,0,0,648,221.12a1.65,1.65,0,0,0,.28-.91,1.93,1.93,0,0,0-.89-1.5,2.36,2.36,0,0,0-.08-.45,2,2,0,0,0-.27-.54,2.09,2.09,0,0,0-.41-.48,2,2,0,0,0-.33-1.18,1.54,1.54,0,0,0,.09-.6,1.51,1.51,0,0,0-.76-1.17,1.6,1.6,0,0,0-1.91.46l-.38-.41a10.23,10.23,0,0,0,1.78-1.88,4.58,4.58,0,0,0,.64-1.22,2.42,2.42,0,0,0,.16-.8,2.61,2.61,0,0,0-.54-1.49c-.93-1.46-1.84-1.81-2.69-2.7a1.12,1.12,0,0,0-.44-.3,6,6,0,0,0-.74,0c-.37,0-.45-.09-.49-.14s-.07-.14-.08-.37a5.48,5.48,0,0,0,0-.81c-.05-.19-.16-.28-.44-.54-.72-.67-.09-.15-1.09-1a5.56,5.56,0,0,0-.91-.76,2.21,2.21,0,0,0-1.37,0,5,5,0,0,0-2.15,1.19h0l1-1.65a8.52,8.52,0,0,0,1.48-.4,5.44,5.44,0,0,0,2-1.09,4.78,4.78,0,0,0,1.16-1.69,5,5,0,0,0,.37-2.41l1.14-.57a2.4,2.4,0,0,0,1.67.12,2.33,2.33,0,0,0,1.55-1.71,2.63,2.63,0,0,0-2.2-3,2.14,2.14,0,0,0-1.21.3l-.65-.41-.34-1.63a2.59,2.59,0,0,0-.15-3.83,2.36,2.36,0,0,0-2.77,0,2.52,2.52,0,0,0-.94,2.09,1.87,1.87,0,0,0-.76.57,2.07,2.07,0,0,0-.27.45,10,10,0,0,0-1.63-1,10.7,10.7,0,0,0-2.65-.87l-.29-4.72a3.56,3.56,0,0,0,.58-1.46,3,3,0,0,0-.47-2.22c-.24-.32-.3-.21-1.1-.87s-.87-.93-1.4-1.23a10.42,10.42,0,0,0-1.64-.52,7.54,7.54,0,0,1-1.69-.76c-.72-.48-.72-.76-1.28-1.11a3.41,3.41,0,0,0-2-.47,9.72,9.72,0,0,0-2.66-4l0-1.12a4.71,4.71,0,0,0-2.58-2.37,2,2,0,0,0,.78-1.16,1.79,1.79,0,0,0,0-.83,1.46,1.46,0,0,0-.77-1,1.75,1.75,0,0,0-.51,0H615.7a36.92,36.92,0,0,0-5.1.85,1.74,1.74,0,0,0-.63-1.28,1.33,1.33,0,0,0-.63-.28,2,2,0,0,0-1.43.59,6.18,6.18,0,0,0-1.2,1.25,13.38,13.38,0,0,0-1.09,1.61,13.55,13.55,0,0,0-3.2,2.7,9.79,9.79,0,0,0-1.3.52,5,5,0,0,0-1,.58,3.29,3.29,0,0,0-1,1.43,3.2,3.2,0,0,1-1.06-.41,4.87,4.87,0,0,1-1.53-1.75,8.84,8.84,0,0,0-2.25-2.19,6.13,6.13,0,0,0-3.66-.91,1.74,1.74,0,0,0-.52-.65,1.67,1.67,0,0,0-.8-.33,6.84,6.84,0,0,0-2-2,6.49,6.49,0,0,0-3.26-1,3.5,3.5,0,0,0-2.41.65,1.58,1.58,0,0,0-.7,1.21c.06.78,1.14,1.2,1.28,1.26a10,10,0,0,0,1.35.21,3.33,3.33,0,0,1,1.55,1,13.21,13.21,0,0,0-2,.12,3.09,3.09,0,0,0-1.71.56,2.16,2.16,0,0,0-.63,1l-1.06.22a1.52,1.52,0,0,0-.51-.9,1.58,1.58,0,0,0-.63-.29,4.75,4.75,0,0,0-2,0,6.58,6.58,0,0,0-2.08.67c-.36.19-.29.2-.58.34a5.1,5.1,0,0,1-2,.46c-.68,0-.81-.1-1.18,0a1.44,1.44,0,0,0-.82.77,1.56,1.56,0,0,0,.16,1.33,2.78,2.78,0,0,0,1.91,1,7.68,7.68,0,0,0,2.66.17,1.52,1.52,0,0,0,0,1.11,2.11,2.11,0,0,0,1.35,1,7.48,7.48,0,0,0,1.3.32,6.68,6.68,0,0,1,2,1,8.09,8.09,0,0,0,3.09,1,3.72,3.72,0,0,0-.26,1.95,2.85,2.85,0,0,0-1.67,1.45,2.47,2.47,0,0,0-.17,1.11,8.33,8.33,0,0,0,1.12,3.63,9.64,9.64,0,0,0,4.34,3.67l-1.93,1.2a2.84,2.84,0,0,0-.8-1,3,3,0,0,0-2.12-.58,2.33,2.33,0,0,0-4.28,1.59,2.71,2.71,0,0,0,1.81,2.2,3.9,3.9,0,0,0-.67,2,2.93,2.93,0,0,0-.6,3.17,3.32,3.32,0,0,0,3.55,1.64,1.56,1.56,0,0,0,1.33,1.45,2.19,2.19,0,0,0-.27,1.4,3.69,3.69,0,0,0,.65,1.28c.23.36.51.8.85,1.3a3.17,3.17,0,0,0-1.43-1,2.62,2.62,0,0,0-1.66-.07,2.69,2.69,0,0,0-.8.43,7.89,7.89,0,0,0-1.48,1.52.74.74,0,0,0-.19.36c0,.22.07.29.05.51a.88.88,0,0,1-.22.44,1.41,1.41,0,0,1-.48.36c-.42.19-.59.06-1,.22a1.66,1.66,0,0,0-.53.38c-1.14,1.09-1.82,1.84-2.1,2.15a3.65,3.65,0,0,0-.6.76,2.46,2.46,0,0,0,0,1.79,5.33,5.33,0,0,0,1.15,1.74c.46.57.86,1,1.14,1.34l-.24.49a1.82,1.82,0,0,0-1-.57,1.56,1.56,0,0,0-1.46.36,2.87,2.87,0,0,0-.28,1.22c0,.29,0,.42-.1.73a2.19,2.19,0,0,1-.27.83c-.17.28-.27.21-.4.45-.22.4,0,.65-.23.93s-.27.11-.52.31a1.45,1.45,0,0,0-.49.85A1.6,1.6,0,0,0,570.5,221.24Z" />
    </g>
</svg>