<svg id="Camada_1" data-name="Camada 1" xmlns="http://www.w3.org/2000/svg" viewBox="0 0 595.28 595.28">
    <defs>
        <style>
        </style>
    </defs>
    <title>Unknown</title>
    <rect class="cls-1" width="595.28" height="595.28" />
    <path class="cls-2"
        d="M84.89,332.62V267.45H96.74v65.17a5.93,5.93,0,0,0,11.85,0V267.45h11.85v65.17A17.76,17.76,0,0,1,90.1,345.18,17.13,17.13,0,0,1,84.89,332.62Z" />
    <path class="cls-2" d="M156.42,309.69V350.4H144.57V267.45h12.68l11,40.7v-40.7h11.85V350.4H167.44Z" />
    <path class="cls-2"
        d="M216.1,300l11.43-32.52H239.8l-14.58,41.47L239.8,350.4H227.53L216.1,317.87V350.4H204.25V267.45H216.1Z" />
    <path class="cls-2" d="M275.78,309.69V350.4H263.93V267.45H276.6l11,40.7v-40.7h11.85V350.4H286.8Z" />
    <path class="cls-2"
        d="M323.6,285.22a17.78,17.78,0,0,1,35.55,0v47.4a17.78,17.78,0,0,1-35.55,0Zm23.7,0a5.93,5.93,0,0,0-11.85,0v47.4a5.93,5.93,0,0,0,11.85,0Z" />
    <path class="cls-2"
        d="M393.29,350.4,382.1,267.45h12l7,52.2,7.05-52.2h9.66l7,52.14,7.05-52.14h11.91L432.58,350.4H417l-4.09-30.16-4,30.16Z" />
    <path class="cls-2" d="M478.51,309.69V350.4H466.66V267.45h12.68l11,40.7v-40.7h11.85V350.4H489.53Z" />
</svg>