<svg id="Camada_1" data-name="Camada 1" xmlns="http://www.w3.org/2000/svg" viewBox="0 0 595.28 595.28"><title>A-26</title><rect width="595.28" height="595.28" fill="#010101"/><path d="M151.71,462.44a32.18,32.18,0,0,1-52.46-35.21,32.22,32.22,0,0,1,42.21-17.15A32.49,32.49,0,0,1,151.71,417l-7.51,7.51a21.81,21.81,0,0,0-7-4.73,21.34,21.34,0,0,0-8.31-1.63,21.08,21.08,0,0,0-8.22,1.63A22.29,22.29,0,0,0,109,431.5a21.08,21.08,0,0,0-1.63,8.22A21.37,21.37,0,0,0,109,448a21.65,21.65,0,0,0,4.73,7,21,21,0,0,0,7,4.68,22.28,22.28,0,0,0,16.53,0,21.35,21.35,0,0,0,7-4.68Z" fill="#f5e035"/><path d="M176.37,425.32a23,23,0,0,1,9.11,1.81,23.3,23.3,0,0,1,12.42,12.42,23.61,23.61,0,0,1,0,18.12,23.37,23.37,0,0,1-12.42,12.42,23.84,23.84,0,0,1-18.21,0,23.3,23.3,0,0,1-12.42-12.42,23.61,23.61,0,0,1,0-18.12,23.17,23.17,0,0,1,12.42-12.42A22.92,22.92,0,0,1,176.37,425.32Zm0,10.6a12.69,12.69,0,0,0-9,21.66,11.3,11.3,0,0,0,4.11,2.78,13,13,0,0,0,4.9.93,12.81,12.81,0,0,0,4.86-.93,12.46,12.46,0,0,0,4.16-2.78,12.69,12.69,0,0,0-9-21.66Z" fill="#f5e035"/><path d="M226.84,425.32a18.55,18.55,0,0,1,7.87,1.63,17.85,17.85,0,0,1,6,4.51,20.44,20.44,0,0,1,3.89,6.67,23.76,23.76,0,0,1,1.37,8.14v24.48h-10.6V446.27a9.66,9.66,0,0,0-3.1-7.34,9.92,9.92,0,0,0-7.24-3,10.28,10.28,0,0,0-10.35,10.21v24.62h-10.6v-44.2h10.6v3.36a20.8,20.8,0,0,1,5.4-3.31A16.84,16.84,0,0,1,226.84,425.32Z" fill="#f5e035"/><path d="M297.2,426.55l-20.5,44.2H265l-20.51-44.2h11.67l14.67,31.65,14.68-31.65Z" fill="#f5e035"/><path d="M329.64,454H306.48a11.06,11.06,0,0,0,2.57,3.63,12.42,12.42,0,0,0,4.15,2.78,12.81,12.81,0,0,0,4.86.93,12.4,12.4,0,0,0,6.46-1.68l11,4.42a22.16,22.16,0,0,1-7.68,5.79,24,24,0,0,1-18.92.27,23.3,23.3,0,0,1-12.42-12.42,23.61,23.61,0,0,1,0-18.12A23.21,23.21,0,0,1,309,427.13a23.84,23.84,0,0,1,18.21,0,23.22,23.22,0,0,1,14.23,21.52,22,22,0,0,1-.62,5.3Zm-11.58-18a12.65,12.65,0,0,0-9,3.72,11.93,11.93,0,0,0-2.57,3.71h23.16a11.9,11.9,0,0,0-2.56-3.71,12.25,12.25,0,0,0-9-3.8Z" fill="#f5e035"/><path d="M362.48,426.55a18.24,18.24,0,0,1,7.11-1.32v10.6a12.24,12.24,0,0,0-9,3.72,12.6,12.6,0,0,0-3.71,9v22.19H346.26V426.47h10.61v3.44A23.14,23.14,0,0,1,362.48,426.55Z" fill="#f5e035"/><path d="M391.69,443.35a31.58,31.58,0,0,1,3.54,1.24,27.13,27.13,0,0,1,5.08,2.69,18.38,18.38,0,0,1,4.55,4.29,9.79,9.79,0,0,1,1.95,6.1,15.14,15.14,0,0,1-1,5.65,13,13,0,0,1-7.73,7.52,18.17,18.17,0,0,1-6.37,1.06,25.6,25.6,0,0,1-10-1.95,23,23,0,0,1-7.47-4.77l7.34-7.34a10.59,10.59,0,0,0,4.9,3.54,15.9,15.9,0,0,0,4.38.8,6.44,6.44,0,0,0,4.06-1.07,3.17,3.17,0,0,0,1.33-2.56,2.47,2.47,0,0,0-.88-1.86,7.81,7.81,0,0,0-2.08-1.32,15.18,15.18,0,0,0-2.43-.84c-.83-.21-1.51-.4-2-.58-.7-.23-1.9-.64-3.58-1.23a25,25,0,0,1-5.12-2.57,17.5,17.5,0,0,1-4.55-4.24,9.92,9.92,0,0,1-1.95-6.19,14.84,14.84,0,0,1,1.28-6.4,13,13,0,0,1,3.41-4.47,13.88,13.88,0,0,1,4.86-2.61,19.33,19.33,0,0,1,5.65-.84,23.91,23.91,0,0,1,7.65,1.07,25.68,25.68,0,0,1,5.17,2.29,18.93,18.93,0,0,1,3.89,3.36l-7.42,7.43a11.44,11.44,0,0,0-3.89-3.36,9.94,9.94,0,0,0-4.51-1.06A8.26,8.26,0,0,0,386,436a3,3,0,0,0-1.81,2.83,2.39,2.39,0,0,0,.79,1.81,6.34,6.34,0,0,0,1.95,1.24,20.5,20.5,0,0,0,2.43.84C390.2,443,391,443.17,391.69,443.35Z" fill="#f5e035"/><path d="M455.6,426.47v44.28H445v-22.1a12.68,12.68,0,0,0-12.63-12.73h-.1a12.89,12.89,0,0,0-4.9,1,12.42,12.42,0,0,0-4.11,2.75,12.68,12.68,0,0,0,0,17.92l0,0a11.3,11.3,0,0,0,4.11,2.78,13,13,0,0,0,4.9.93,12.21,12.21,0,0,0,4.78-.88l3.8,9.46a21,21,0,0,1-9.46,2,22.11,22.11,0,0,1-9-1.81,21.67,21.67,0,0,1-7.12-5,23,23,0,0,1-4.68-7.42,25.27,25.27,0,0,1,0-18.12,23.09,23.09,0,0,1,4.68-7.43,21.78,21.78,0,0,1,16.09-6.8,20.83,20.83,0,0,1,7.69,1.32A23.45,23.45,0,0,1,445,430v-3.53Z" fill="#f5e035"/><path d="M479,443.35a31.58,31.58,0,0,1,3.54,1.24,27.13,27.13,0,0,1,5.08,2.69,18.38,18.38,0,0,1,4.55,4.29,9.79,9.79,0,0,1,1.95,6.1,15.14,15.14,0,0,1-1,5.65,13,13,0,0,1-7.73,7.52A17.83,17.83,0,0,1,479,471.9a25.56,25.56,0,0,1-10-1.9,23,23,0,0,1-7.47-4.77l7.34-7.34a10.59,10.59,0,0,0,4.9,3.54,15.9,15.9,0,0,0,4.38.8,6.44,6.44,0,0,0,4.06-1.07,3.17,3.17,0,0,0,1.33-2.56,2.47,2.47,0,0,0-.88-1.86,7.81,7.81,0,0,0-2.08-1.32,15.18,15.18,0,0,0-2.43-.84c-.83-.21-1.51-.4-2-.58-.7-.23-1.9-.64-3.58-1.23a25,25,0,0,1-5.12-2.57A17.5,17.5,0,0,1,462.9,446a9.93,9.93,0,0,1-2-6.19,14.84,14.84,0,0,1,1.28-6.4,13,13,0,0,1,3.41-4.47,13.88,13.88,0,0,1,4.86-2.61,19.33,19.33,0,0,1,5.65-.84,23.91,23.91,0,0,1,7.65,1.07,25.68,25.68,0,0,1,5.17,2.29,18.93,18.93,0,0,1,3.89,3.36l-7.42,7.43a11.44,11.44,0,0,0-3.89-3.36,9.94,9.94,0,0,0-4.51-1.06,8.37,8.37,0,0,0-3.67.88,3,3,0,0,0-1.81,2.83,2.39,2.39,0,0,0,.79,1.81,6.34,6.34,0,0,0,1.95,1.24,20.5,20.5,0,0,0,2.43.84C477.53,443,478.31,443.17,479,443.35Z" fill="#f5e035"/><path d="M413,331.42a97.34,97.34,0,1,1,97.34-97.34h0A97.45,97.45,0,0,1,413,331.42Zm0-166.49a69.16,69.16,0,1,0,69.16,69.16h0A69.24,69.24,0,0,0,413,164.93Z" fill="#f5e035"/><rect x="265.54" y="219.99" width="64.19" height="28.18" fill="#f5e035"/><rect x="438.26" y="122.52" width="56.95" height="28.18" transform="translate(118.89 476.48) rotate(-60.65)" fill="#f5e035"/><rect x="98.26" y="317.08" width="56.95" height="28.18" transform="translate(-224.05 279.32) rotate(-60.65)" fill="#f5e035"/><path d="M181.85,331.43a97.34,97.34,0,1,1,97.34-97.34h0A97.45,97.45,0,0,1,181.85,331.43Zm0-166.49A69.16,69.16,0,1,0,251,234.1h0a69.24,69.24,0,0,0-69.16-69.15Z" fill="#f5e035"/></svg>