<svg id="Camada_1" data-name="Camada 1" xmlns="http://www.w3.org/2000/svg" viewBox="0 0 595.28 595.28"><defs><style>.cls-1{fill:#f5e035;}.cls-2{fill:#010101;}</style></defs><title>SVG_corretos_site</title><rect class="cls-1" width="595.28" height="595.28"/><path class="cls-2" d="M202.16,472.72c-3.71.27-4.35.39-5.52,0-4.3-1.46-6-6.51-7.62-10.86-.76-2-6.14-15.92-13.91-26.48-2.66-3.62-5.38-7.25-10.28-10.47-2.94-1.94-6.85-3.13-14.67-5.53-3.83-1.17-7-2-8.76-.38-.59.55-.53.94-1.9,3.05a27.05,27.05,0,0,1-2.86,3.81c-1.81,1.85-3.84,2.51-6.67,3.43-4.37,1.42-7,1.16-7.43,2.66a3.6,3.6,0,0,0,.58,2.48c.81,1.49,1.86,1.55,1.9,2.29.06,1-2.09,1.53-4.76,3.42-1.9,1.35-1.43,1.55-4.19,4-3.47,3-5.25,3.62-5.14,4.81s1.95,1.85,3.42,2.43c1.16.44,10.39,4.05,15.43,7.28.75.48,3,2.54,7.43,6.67,1.75,1.61,5,4.64,9.14,8.76,4.67,4.65,4.73,5,7.43,7.43a60.59,60.59,0,0,0,7.81,6.28c5.66,3.71,9.91,4.72,9.71,5.53-.14.59-2.54.49-6.85.19-10.4-.73-12.73-1.28-16.38-1.34s-7.36.79-14.86,2.48a154,154,0,0,0-17.9,5.14c-5.77,2.07-9.88,4-18.1,7.81-3.5,1.63-1.85,1-4,2-3.37,1.55-4.76,1.84-5.14,3.05-.33,1,.31,2.1,1,3.14,1.22,2,2.93,3,5.52,4.38,2.16,1.19,3.23,1.78,4.67,2,2.67.42,3.57-.62,5.05.19,1.87,1,1.1,3.08,2.86,4.19,2.26,1.43,4.77-1.19,7,.29,1.6,1,1,2.77,2.77,3.62s2.67-.59,4.28.09c2.35,1,1.5,4.57,4.1,6.1,1.47.87,3.15.54,4.47.28a13,13,0,0,0,6.57-3.71c.34-.34,6.1-3.65,17.62-10.29,9.83-5.66,21.12-6.44,32.48-7.23,15-1,23.6.6,42.76,2.76,13.26,1.49,24.65,2.33,47.42,4,31.43,2.3,47.5,3.41,65,1.52,6.72-.73,32.94-3.88,43.42-11.81,5.49-4.15,11.8-7.14,17.34-11.23a11.26,11.26,0,0,1,3.23-1.72,12.51,12.51,0,0,1,4.77-.57c1.88.12,3.16.21,4,1.14s.35,1.88,1.14,2.67c1,1,2.57.43,4.95.19s5.41-.56,7.81.57,1.74,2.34,5.33,5.33c2,1.7,3.42,2.84,5.53,3.05a8.11,8.11,0,0,0,5.71-1.71c1.75-1.42,1.51-2.62,3.05-3.24,2-.82,4.3.5,4.76.76,1.18.68,1.47,1.3,3.05,3.05,2.17,2.41,3.26,3.62,4.19,4,3.37,1.39,5.65-2.75,9.52-1.53.7.23,2.18,1.36,5.14,3.62,2.45,1.87,2.83,2.35,3.62,2.29,2.42-.18,2.5-4.88,5.15-5.52,2.42-.6,5.35,2.63,7.81,5.33,3.6,4,3.91,6.19,5.9,6.47,2.85.41,5.6-3.66,6.48-5a23.26,23.26,0,0,0,3-18.66c-.59-2.2-2.53-8.1-14.09-16.76-12.63-9.47-17.18-7.6-31.81-17-9.33-6-15.55-10.06-19.43-18.09-2.42-5-3-10.09-4-20a211.87,211.87,0,0,1-.95-22.29c-.34-17.55-5.85-31.25-9.91-41.33-5.18-12.88-10.47-26.05-22.66-37.9-5.27-5.13-9.17-7.43-16-15.43-8.42-9.87-7.76-12.56-13.71-17.71-10.09-8.74-22.35-10-26.86-10.48a61.37,61.37,0,0,0-28,4c-8,3-9,5.34-16.57,6.86-7.27,1.45-12.16.52-14.48,4-1.91,2.86-.84,6.85-.38,8.57.8,3,2.38,5.29,5.72,8.76,4.33,4.51,6.58,5.74,12.76,10.86s9.19,7.64,11.36,11c1.9,3,2.78,6.05,4.45,12.07,1.93,7,2.84,12.91,4.57,24.5.6,4-.13-.51,1.33,13,.53,4.85.86,7.66-.57,10.85a15.65,15.65,0,0,1-4,5.15c-3.76,3.55-6.58,4.3-10.86,6.66-5.4,3-8.9,6.21-13.33,10.29s-3.72,4.27-8.57,8.95a104.85,104.85,0,0,1-14.67,11.81,85,85,0,0,1-12.38,7.05c-1.88.86-2.3,1-11,4.38-6.74,2.63-10.11,3.95-11,4.38a129.4,129.4,0,0,0-14.67,8.19c-7.64,4.7-7.2,5-9.52,5.71C214,472.53,213.49,471.87,202.16,472.72Z"/><path class="cls-2" d="M133.25,98v49.88H171.4v6.5H133.25v36.45h-6.5V91.67H183V98Z"/><path class="cls-2" d="M238.37,192.42h-1.84a48,48,0,0,1-33.34-15.12,52.74,52.74,0,0,1,0-72.77,47.93,47.93,0,0,1,33.34-15.12h1.84a48.46,48.46,0,0,1,33.34,15.12,53.11,53.11,0,0,1,0,72.77A48.54,48.54,0,0,1,238.37,192.42Zm-1-96.65c-23.46.56-42.25,20.63-42.25,45.07,0,24.59,18.79,44.65,42.25,45.22,23.45-.57,42.39-20.63,42.39-45.22C279.77,116.4,260.83,96.33,237.38,95.77Z"/><path class="cls-2" d="M388,170.09a42.69,42.69,0,0,1-5.94,7.35,48.72,48.72,0,0,1-33.34,15h-1.84a49.06,49.06,0,0,1-33.49-15,51.89,51.89,0,0,1,0-72.06,49,49,0,0,1,33.49-15h1.84a48.64,48.64,0,0,1,33.34,15,42.62,42.62,0,0,1,5.94,7.34l-5.94,2.69A43,43,0,0,0,347.73,96.9c-23.46.42-42.39,20.2-42.39,44.51s18.93,44.08,42.39,44.65a43.54,43.54,0,0,0,34.33-18.65Z"/><path class="cls-2" d="M437.87,91.53,477,190.86h-6.92l-7.64-19.36c-5.08,2-13.7,4.24-26.42,4.24s-21.62-2.4-26.56-4.38L402,190.86h-6.92l38.43-99.33Zm22.18,74-24.3-61.89-23.88,61.75c.85.28,1.84.7,3,1a68,68,0,0,0,21.19,3C447.9,169.38,455.81,167.26,460.05,165.57Z"/><path class="cls-2" d="M146.13,217a.93.93,0,0,1-.92.89H134.1v7h8a.91.91,0,1,1,0,1.81h-8v8.75a.92.92,0,0,1-.91.92.91.91,0,0,1-.92-.92V217a.91.91,0,0,1,.92-.92h12A.92.92,0,0,1,146.13,217Z"/><path class="cls-2" d="M152.73,236.29a7.75,7.75,0,1,1,7.75-7.75A7.76,7.76,0,0,1,152.73,236.29Zm0-13.69a5.93,5.93,0,1,0,5.92,5.94A5.93,5.93,0,0,0,152.73,222.6Z"/><path class="cls-2" d="M169.53,236.29c-4.17,0-7.32-3.33-7.32-7.75s3.15-7.75,7.32-7.75a7.05,7.05,0,0,1,5.91,3A.92.92,0,1,1,174,224.9a5.27,5.27,0,0,0-4.42-2.3,5.94,5.94,0,0,0,0,11.85,5.26,5.26,0,0,0,4.42-2.26.91.91,0,1,1,1.49,1A7.08,7.08,0,0,1,169.53,236.29Z"/><path class="cls-2" d="M189.88,221.68v13.69a.92.92,0,0,1-1.84,0v-1a6.23,6.23,0,0,1-4.56,1.95,5.9,5.9,0,0,1-4.48-2,7,7,0,0,1-1.67-4.65v-8a.92.92,0,0,1,1.84,0v8c0,2.79,1.81,4.79,4.31,4.79a4.63,4.63,0,0,0,4.56-4.79v-8a.92.92,0,0,1,1.84,0Z"/><path class="cls-2" d="M196.34,236.29a4.9,4.9,0,0,1-4.65-2.64,1,1,0,0,1,.46-1.23.91.91,0,0,1,1.2.46,3.1,3.1,0,0,0,3,1.57c2.09,0,3.21-1.34,3.21-2.64,0-1.69-1-2.12-3.41-2.72-2-.52-4.54-1.15-4.54-4.11a4.09,4.09,0,0,1,1.24-2.87,4.87,4.87,0,0,1,3.5-1.32,4.59,4.59,0,0,1,4.33,2.44.88.88,0,0,1-.43,1.21A.91.91,0,0,1,199,224a2.83,2.83,0,0,0-2.67-1.41,2.59,2.59,0,0,0-2.9,2.38c0,1.41.92,1.78,3.15,2.33,2,.51,4.8,1.2,4.8,4.5a4.45,4.45,0,0,1-1.32,3.08A5.22,5.22,0,0,1,196.34,236.29Z"/><path class="cls-2" d="M230.47,236.29a10.13,10.13,0,1,1,10.13-10.13A10.13,10.13,0,0,1,230.47,236.29Zm0-18.45a8.31,8.31,0,1,0,8.29,8.32A8.3,8.3,0,0,0,230.47,217.84Z"/><path class="cls-2" d="M254.84,227.39v8a.91.91,0,1,1-1.81,0v-8c0-2.75-1.81-4.79-4.31-4.79a4.65,4.65,0,0,0-4.59,4.79v8a.91.91,0,1,1-1.81,0V221.68a.91.91,0,0,1,1.81,0v1a6.33,6.33,0,0,1,4.59-1.93,5.84,5.84,0,0,1,4.48,2A7,7,0,0,1,254.84,227.39Z"/><path class="cls-2" d="M283.91,236.29a10.13,10.13,0,1,1,7.64-16.82.9.9,0,0,1-.09,1.29.88.88,0,0,1-1.29-.08,8.31,8.31,0,1,0,0,10.93.94.94,0,0,1,1.29-.08.91.91,0,0,1,.09,1.29A10.11,10.11,0,0,1,283.91,236.29Z"/><path class="cls-2" d="M300.68,221.68a.91.91,0,0,1-.92.92,4.54,4.54,0,0,0-4.45,4.79v8a.91.91,0,1,1-1.81,0V221.68a.91.91,0,0,1,1.81,0v.95a6.12,6.12,0,0,1,4.45-1.84A.9.9,0,0,1,300.68,221.68Z"/><path class="cls-2" d="M303.55,217.38a1,1,0,0,1,1,1,1,1,0,0,1-1,1,1,1,0,0,1-1-1A1,1,0,0,1,303.55,217.38Zm0,18.91a.92.92,0,0,1-.92-.92V221.68a.92.92,0,0,1,.92-.89.9.9,0,0,1,.92.89v13.69A.91.91,0,0,1,303.55,236.29Z"/><path class="cls-2" d="M314.28,233.71a.91.91,0,0,1,.12,1.29,3.73,3.73,0,0,1-6.55-2.41v-10H307a.91.91,0,0,1,0-1.81h.83v-2.93a.93.93,0,0,1,.92-.91.9.9,0,0,1,.92.91v2.93h3.25a.91.91,0,1,1,0,1.81h-3.25v10a1.88,1.88,0,0,0,1.9,1.86,1.77,1.77,0,0,0,1.4-.66A.91.91,0,0,1,314.28,233.71Z"/><path class="cls-2" d="M317.47,217.38a1,1,0,0,1,1,1,1,1,0,0,1-1,1,1,1,0,0,1-1-1A1,1,0,0,1,317.47,217.38Zm0,18.91a.92.92,0,0,1-.92-.92V221.68a.92.92,0,0,1,.92-.89.9.9,0,0,1,.92.89v13.69A.91.91,0,0,1,317.47,236.29Z"/><path class="cls-2" d="M327.66,236.29c-4.16,0-7.32-3.33-7.32-7.75s3.16-7.75,7.32-7.75a7.05,7.05,0,0,1,5.91,3,.92.92,0,1,1-1.49,1.07,5.25,5.25,0,0,0-4.42-2.3,5.94,5.94,0,0,0,0,11.85,5.24,5.24,0,0,0,4.42-2.26.91.91,0,0,1,1.49,1A7.08,7.08,0,0,1,327.66,236.29Z"/><path class="cls-2" d="M349.91,221.68v13.69a.92.92,0,1,1-1.84,0v-1.6a7.1,7.1,0,0,1-5.51,2.52c-4.16,0-7.32-3.33-7.32-7.75s3.16-7.75,7.32-7.75a7.14,7.14,0,0,1,5.51,2.5v-1.61a.92.92,0,0,1,1.84,0Zm-1.84,6.86c0-3.39-2.35-5.94-5.51-5.94s-5.48,2.55-5.48,5.94a5.51,5.51,0,1,0,11,0Z"/><path class="cls-2" d="M353.9,217v18.42a.92.92,0,1,1-1.84,0V217a.92.92,0,1,1,1.84,0Z"/><path class="cls-2" d="M391,236.21a1.12,1.12,0,0,1-.37.08.89.89,0,0,1-.84-.54l-2.15-4.88H377.46l-2.12,4.88a.92.92,0,0,1-1.69-.75l8.06-18.43a1,1,0,0,1,.86-.54.89.89,0,0,1,.83.54L391.47,235A.92.92,0,0,1,391,236.21ZM386.85,229l-4.28-9.82-4.3,9.82Z"/><path class="cls-2" d="M399.74,236.29c-4.16,0-7.32-3.33-7.32-7.75s3.16-7.75,7.32-7.75a7.05,7.05,0,0,1,5.91,3,.92.92,0,1,1-1.49,1.07,5.27,5.27,0,0,0-4.42-2.3,5.94,5.94,0,0,0,0,11.85,5.26,5.26,0,0,0,4.42-2.26.91.91,0,0,1,1.49,1A7.08,7.08,0,0,1,399.74,236.29Z"/><path class="cls-2" d="M415.7,233.71a.91.91,0,0,1,.11,1.29,3.72,3.72,0,0,1-6.54-2.41v-10h-.83a.91.91,0,0,1,0-1.81h.83v-2.93a.92.92,0,0,1,.92-.91.91.91,0,0,1,.92.91v2.93h3.24a.91.91,0,1,1,0,1.81h-3.24v10a1.88,1.88,0,0,0,1.89,1.86,1.79,1.79,0,0,0,1.41-.66A.91.91,0,0,1,415.7,233.71Z"/><path class="cls-2" d="M418.88,217.38a1,1,0,0,1,1,1,1,1,0,0,1-1,1,1,1,0,0,1-1-1A1,1,0,0,1,418.88,217.38Zm0,18.91a.92.92,0,0,1-.91-.92V221.68a.92.92,0,0,1,.91-.89.9.9,0,0,1,.92.89v13.69A.91.91,0,0,1,418.88,236.29Z"/><path class="cls-2" d="M429.5,236.29a7.75,7.75,0,1,1,7.75-7.75A7.76,7.76,0,0,1,429.5,236.29Zm0-13.69a5.93,5.93,0,1,0,5.92,5.94A5.93,5.93,0,0,0,429.5,222.6Z"/><path class="cls-2" d="M451.49,227.39v8a.9.9,0,0,1-.89.92.91.91,0,0,1-.92-.92v-8c0-2.75-1.8-4.79-4.3-4.79a4.65,4.65,0,0,0-4.59,4.79v8a.91.91,0,0,1-.92.92.9.9,0,0,1-.89-.92V221.68a.89.89,0,0,1,.89-.89.91.91,0,0,1,.92.89v1a6.32,6.32,0,0,1,4.59-1.93,5.84,5.84,0,0,1,4.48,2A7,7,0,0,1,451.49,227.39Z"/><path class="cls-2" d="M458,236.29a4.92,4.92,0,0,1-4.65-2.64,1,1,0,0,1,.46-1.23.92.92,0,0,1,1.21.46,3.08,3.08,0,0,0,3,1.57c2.1,0,3.22-1.34,3.22-2.64,0-1.69-1-2.12-3.42-2.72-2-.52-4.54-1.15-4.54-4.11a4.09,4.09,0,0,1,1.24-2.87,4.87,4.87,0,0,1,3.5-1.32,4.58,4.58,0,0,1,4.33,2.44.88.88,0,0,1-.43,1.21.92.92,0,0,1-1.23-.43A2.83,2.83,0,0,0,458,222.6a2.6,2.6,0,0,0-2.9,2.38c0,1.41.92,1.78,3.16,2.33,2,.51,4.79,1.2,4.79,4.5a4.45,4.45,0,0,1-1.32,3.08A5.2,5.2,0,0,1,458,236.29Z"/></svg>