<?xml version="1.0" standalone="no"?>
<!DOCTYPE svg PUBLIC "-//W3C//DTD SVG 20010904//EN"
 "http://www.w3.org/TR/2001/REC-SVG-20010904/DTD/svg10.dtd">
<svg version="1.0" xmlns="http://www.w3.org/2000/svg"
 width="251.000000pt" height="251.000000pt" viewBox="0 0 251.000000 251.000000"
 preserveAspectRatio="xMidYMid meet">
<metadata>
Created by potrace 1.14, written by Peter Selinger 2001-2017
</metadata>
<g transform="translate(0.000000,251.000000) scale(0.100000,-0.100000)"
fill="#000000" stroke="none">
<path d="M810 1980 c-8 -5 -61 -26 -117 -46 l-103 -37 0 -479 c0 -497 -4 -550
-41 -584 -25 -22 -99 -22 -152 1 l-39 16 6 -43 c6 -47 19 -176 19 -195 0 -14
57 -21 152 -19 140 3 254 98 296 246 16 58 21 1150 4 1149 -5 0 -17 -4 -25 -9z"/>
<path d="M1126 1273 c1 -362 2 -660 3 -663 0 -3 57 -5 125 -5 l124 0 0 265 c0
146 1 274 1 285 1 19 7 20 79 19 42 -1 80 -2 84 -3 4 -1 31 -38 61 -83 61 -93
357 -531 364 -537 4 -6 36 13 140 79 l72 46 -109 155 c-60 85 -140 198 -177
252 -37 54 -78 110 -90 124 -23 28 -17 53 13 53 7 0 38 24 68 54 169 169 122
461 -90 561 -93 44 -169 54 -429 55 l-240 1 1 -658z m447 433 c47 -8 86 -27
113 -58 58 -62 45 -167 -26 -218 -39 -28 -56 -31 -177 -37 -103 -5 -103 -5
-104 18 -4 128 1 293 9 298 12 7 133 5 185 -3z"/>
</g>
</svg>
