<?xml version="1.0" encoding="UTF-8"?>
<svg id="Camada_1" data-name="Camada 1" xmlns="http://www.w3.org/2000/svg" viewBox="0 0 595.28 595.28">
  <rect id="Retângulo_28" data-name="Retângulo 28" class="cls-1" x="0" width="595.28" height="595.28"/>
  <g>
    <path class="cls-2" d="m277.48,239.08c-13.43-6.6-26.29-11.83-38.59-15.71-12.29-3.87-25.05-5.81-38.25-5.81-11.39,0-21.97,2.11-31.76,6.32-9.79,4.22-18.27,10.07-25.44,17.59-7.17,7.51-12.81,16.39-16.9,26.64-4.1,10.24-6.15,21.4-6.15,33.47s2.05,23.22,6.15,33.47c4.1,10.24,9.79,19.01,17.07,26.29,7.28,7.29,15.99,12.98,26.12,17.07,10.13,4.1,21.23,6.15,33.3,6.15,5.23,0,10.64-.34,16.22-1.02,5.58-.68,11.61-1.88,18.1-3.59,6.49-1.71,13.49-3.98,21-6.83,7.51-2.84,15.82-6.54,24.93-11.1l14.68,39.61c-18.22,9.56-35.12,15.94-50.71,19.12-15.6,3.19-30.22,4.78-43.88,4.78-18.9,0-36.32-3.13-52.25-9.39-15.94-6.26-29.71-14.97-41.32-26.12-11.61-11.15-20.72-24.25-27.32-39.27-6.61-15.03-9.9-31.42-9.9-49.17,0-18.66,3.59-35.63,10.76-50.88,7.17-15.25,16.73-28.34,28.69-39.27,11.95-10.93,25.67-19.41,41.15-25.44,15.48-6.03,31.64-9.05,48.49-9.05,13.88,0,28.46,1.65,43.71,4.95,15.25,3.3,32.32,9.28,51.22,17.93l-19.12,39.27Z"/>
    <path class="cls-2" d="m422.92,425.54l-24.53-19.95-90.28-218.84,40.23-17.01,67.39,161.59,67.06-161.59,39.91,17.01-99.77,238.79Z"/>
  </g>
</svg>