<svg id="Camada_1" data-name="Camada 1" xmlns="http://www.w3.org/2000/svg" viewBox="0 0 595.28 595.28"><defs><style>.cls-1{fill:#f6e033;}.cls-2{isolation:isolate;}.cls-3{fill:#010101;}</style></defs><title>SVG_corretos_site</title><rect id="Retângulo_432" data-name="Retângulo 432" class="cls-1" x="-0.29" width="595.56" height="595.56"/><g id="_17_18" data-name=" 17 18" class="cls-2"><g class="cls-2"><path class="cls-3" d="M67.23,257.67q3.63-1.73,7.09-3.45a69.15,69.15,0,0,0,7-4.07,65.81,65.81,0,0,0,7.52-5.87A82,82,0,0,0,97.47,235h30.76v97.8H144.3v23H75.18v-23H92.46V268.73l-17.28,8.12Z"/><path class="cls-3" d="M151.21,235h93.48v23l-46.48,97.8H160.88L207.19,258H178.85v11.23H151.21Z"/><path class="cls-3" d="M318.47,226.22h20.22L267,365.32H246.76Z"/><path class="cls-3" d="M348.71,257.67q3.62-1.73,7.08-3.45a69.26,69.26,0,0,0,7-4.07,65.77,65.77,0,0,0,7.51-5.87,82,82,0,0,0,8.64-9.24H409.7v97.8h16.07v23H356.65v-23h17.28V268.73l-17.28,8.12Z"/><path class="cls-3" d="M432.68,320.39a30.86,30.86,0,0,1,1.3-8.63,37.74,37.74,0,0,1,3.71-8.64,37.07,37.07,0,0,1,5.88-7.61,28.33,28.33,0,0,1,7.77-5.53,25.08,25.08,0,0,1-9.76-10.36,28.08,28.08,0,0,1-3.2-12.62,32.71,32.71,0,0,1,2.77-13.48,30.79,30.79,0,0,1,8-10.8,38.11,38.11,0,0,1,13-7.17A54.43,54.43,0,0,1,479.51,233a55.64,55.64,0,0,1,17.71,2.59,38.2,38.2,0,0,1,13,7.17,30,30,0,0,1,7.95,10.8A33.83,33.83,0,0,1,520.81,267a24.25,24.25,0,0,1-4.41,14.69,27.41,27.41,0,0,1-10.11,8.81,29.36,29.36,0,0,1,13.31,12.7,36,36,0,0,1,4.49,17.19,35,35,0,0,1-3.2,14.87,34.13,34.13,0,0,1-9.16,11.92,45.18,45.18,0,0,1-14.42,7.95,57.47,57.47,0,0,1-18.84,2.93,59.39,59.39,0,0,1-19.27-2.93,43.92,43.92,0,0,1-14.42-7.95,33.65,33.65,0,0,1-9-11.92A35.89,35.89,0,0,1,432.68,320.39Zm29.89-1a12.63,12.63,0,0,0,1.3,5.7,14.34,14.34,0,0,0,3.46,4.49,15.15,15.15,0,0,0,5.09,2.94,19.31,19.31,0,0,0,17.28-2.42q4.85-3.45,4.84-10.71a11.6,11.6,0,0,0-2.33-7.43,17.44,17.44,0,0,0-5.7-4.67,26.1,26.1,0,0,0-7.18-2.42,60.22,60.22,0,0,0-6.73-.86,22.11,22.11,0,0,0-7,6.39A15,15,0,0,0,462.57,319.36Zm29.55-53.74a9.57,9.57,0,0,0-3.89-7.78,14.1,14.1,0,0,0-9.07-3.11,12.73,12.73,0,0,0-8.72,3.29,9.89,9.89,0,0,0-3.72,7.6,8.44,8.44,0,0,0,1.9,5.79,13.37,13.37,0,0,0,4.58,3.37,23.63,23.63,0,0,0,5.62,1.73,30,30,0,0,0,5,.51,17.28,17.28,0,0,0,5.79-4.49A10.36,10.36,0,0,0,492.12,265.62Z"/></g></g></svg>