<svg id="Camada_1" data-name="Camada 1" xmlns="http://www.w3.org/2000/svg" viewBox="0 0 595.28 595.28"><defs><style>.cls-1{fill:#010101;}.cls-2{isolation:isolate;}.cls-3{fill:#f6e033;}</style></defs><title>SVG_corretos_site</title><rect id="Retângulo_433" data-name="Retângulo 433" class="cls-1" width="595.28" height="595.28"/><g id="_18_19" data-name=" 18 19" class="cls-2"><g class="cls-2"><path class="cls-3" d="M67.48,257.54q3.63-1.73,7.08-3.45a64,64,0,0,0,14.51-9.93,82,82,0,0,0,8.64-9.24h30.74v97.75h16.06v23H75.43v-23H92.7V268.6l-17.27,8.11Z"/><path class="cls-3" d="M151.42,320.24a31.28,31.28,0,0,1,1.29-8.64,37.9,37.9,0,0,1,3.72-8.63,36.69,36.69,0,0,1,5.87-7.6,28.12,28.12,0,0,1,7.77-5.53,25.14,25.14,0,0,1-9.76-10.36,28.05,28.05,0,0,1-3.19-12.61,32.79,32.79,0,0,1,2.76-13.47,30.7,30.7,0,0,1,8-10.8,37.83,37.83,0,0,1,13-7.16,54,54,0,0,1,17.35-2.59,55.36,55.36,0,0,1,17.71,2.59,37.87,37.87,0,0,1,12.95,7.16,29.75,29.75,0,0,1,7.94,10.8,33.57,33.57,0,0,1,2.68,13.47,24.28,24.28,0,0,1-4.4,14.68A27.41,27.41,0,0,1,225,290.36a29.31,29.31,0,0,1,13.3,12.69,36,36,0,0,1,4.49,17.19,34.94,34.94,0,0,1-3.19,14.85A34.16,34.16,0,0,1,230.43,347,45,45,0,0,1,216,355a57.08,57.08,0,0,1-18.82,2.94A59,59,0,0,1,177.93,355,43.72,43.72,0,0,1,163.51,347a33.54,33.54,0,0,1-9-11.92A35.65,35.65,0,0,1,151.42,320.24Zm29.88-1a12.63,12.63,0,0,0,1.29,5.7,14.64,14.64,0,0,0,3.46,4.49,15.15,15.15,0,0,0,5.09,2.94,19.38,19.38,0,0,0,17.27-2.42q4.83-3.45,4.84-10.71a11.62,11.62,0,0,0-2.33-7.43,17.41,17.41,0,0,0-5.7-4.66,25.82,25.82,0,0,0-7.17-2.42,57.83,57.83,0,0,0-6.74-.86,22.19,22.19,0,0,0-7,6.39A14.9,14.9,0,0,0,181.3,319.2Zm29.53-53.71a9.54,9.54,0,0,0-3.89-7.77,14,14,0,0,0-9.06-3.11,12.72,12.72,0,0,0-8.72,3.28,9.89,9.89,0,0,0-3.72,7.6,8.39,8.39,0,0,0,1.9,5.78,13.11,13.11,0,0,0,4.58,3.37,23.41,23.41,0,0,0,5.61,1.73,30.19,30.19,0,0,0,5,.52,17.31,17.31,0,0,0,5.79-4.49A10.36,10.36,0,0,0,210.83,265.49Z"/><path class="cls-3" d="M317.39,226.11H337.6l-71.68,139h-20.2Z"/><path class="cls-3" d="M347.61,257.54q3.63-1.73,7.08-3.45a64,64,0,0,0,14.51-9.93,82,82,0,0,0,8.64-9.24h30.74v97.75h16.06v23H355.56v-23h17.27V268.6l-17.27,8.11Z"/><path class="cls-3" d="M446.75,321.1q4.49,2.59,10.88,5.7A32.31,32.31,0,0,0,472,329.91q9.84,0,15.46-6.05T493,306.42a31.13,31.13,0,0,1-9.41,6.22,32.44,32.44,0,0,1-13.39,2.59,40.82,40.82,0,0,1-15.11-2.76,36.59,36.59,0,0,1-20.55-20,39.56,39.56,0,0,1-3-15.72A44.48,44.48,0,0,1,434.74,260a41.1,41.1,0,0,1,9.16-13.9,43.85,43.85,0,0,1,14.59-9.5A51.06,51.06,0,0,1,478,233a48.7,48.7,0,0,1,19.77,4A45.83,45.83,0,0,1,513.5,248.3a52,52,0,0,1,10.36,18,72.89,72.89,0,0,1,3.71,24.09,120.37,120.37,0,0,1-.86,14,91,91,0,0,1-3,14.85,74.17,74.17,0,0,1-5.87,14.34,44.85,44.85,0,0,1-9.59,12.17,44.1,44.1,0,0,1-14.16,8.38,55.08,55.08,0,0,1-19.35,3.11,57,57,0,0,1-9.84-.95,83.72,83.72,0,0,1-10.79-2.68,66,66,0,0,1-10.45-4.32,44.32,44.32,0,0,1-8.64-5.7Zm29.7-30.74a17,17,0,0,0,5.61-1.21,21.17,21.17,0,0,0,4.5-2.5,27.71,27.71,0,0,0,3.54-3.11,35.66,35.66,0,0,0,2.59-3,36.52,36.52,0,0,0-.69-6.82,21.61,21.61,0,0,0-2.42-6.56,15.77,15.77,0,0,0-4.49-5,11.59,11.59,0,0,0-6.91-2A15.61,15.61,0,0,0,467,264.45,14.08,14.08,0,0,0,462.46,275a22.07,22.07,0,0,0,.69,5.35,12.67,12.67,0,0,0,2.42,4.92,14.76,14.76,0,0,0,4.32,3.63A13.16,13.16,0,0,0,476.45,290.36Z"/></g></g></svg>