<svg id="Camada_1" data-name="Camada 1" xmlns="http://www.w3.org/2000/svg" viewBox="0 0 595.28 595.28"><defs><style>.cls-1{fill:#010101;}.cls-2{isolation:isolate;}.cls-3{fill:#f6e033;}</style></defs><title>SVG_corretos_site</title><rect id="Retângulo_431" data-name="Retângulo 431" class="cls-1" width="595.28" height="595.28"/><g id="_20_21" data-name=" 20 21" class="cls-2"><g class="cls-2"><path class="cls-3" d="M56.22,254.43a63.4,63.4,0,0,1,20.55-16A55.8,55.8,0,0,1,101.13,233a49.12,49.12,0,0,1,16.14,2.59,38,38,0,0,1,13,7.51A35.45,35.45,0,0,1,139,255a37.6,37.6,0,0,1,3.2,15.8,41.89,41.89,0,0,1-1.73,12.78,29.2,29.2,0,0,1-5.18,9.59,46.63,46.63,0,0,1-8.63,8q-5.19,3.79-12.09,8.29-3.12,2.07-7,4.92T100,320.5a88.7,88.7,0,0,0-6.73,6.39,35.09,35.09,0,0,0-4.58,5.78h30.4V318.86h29v36.78H54.84v-25q3.63-5.87,6.39-9.93a70.68,70.68,0,0,1,5.61-7.25q2.85-3.19,6-6.05t7.25-6.13a81.92,81.92,0,0,1,10-7.6q5.36-3.45,9.93-6.82a45.06,45.06,0,0,0,7.6-6.91,11.42,11.42,0,0,0,3-7.51q0-6.57-4.23-9A20.3,20.3,0,0,0,96.12,261a16.3,16.3,0,0,0-6.48,1.29,30.63,30.63,0,0,0-5.7,3.2A34.48,34.48,0,0,0,79,269.72q-2.25,2.32-4.15,4.4Z"/><path class="cls-3" d="M204.58,357.72a50.1,50.1,0,0,1-20-3.89A41.31,41.31,0,0,1,169,342.09a57,57,0,0,1-10.28-19.69Q155,310.57,155,294.68a85,85,0,0,1,3.54-25.13,58.91,58.91,0,0,1,10-19.61A46.85,46.85,0,0,1,184,237.25a42.75,42.75,0,0,1,19.69-4.58q12.61,0,22,4.49a40.36,40.36,0,0,1,15.46,12.78,58.49,58.49,0,0,1,9.07,19.95,103.85,103.85,0,0,1,3,26,96.44,96.44,0,0,1-3.19,25.83,56.11,56.11,0,0,1-9.42,19.51,41,41,0,0,1-15.28,12.26A48.71,48.71,0,0,1,204.58,357.72Zm0-26.77a7.87,7.87,0,0,0,5.52-2.51,20.7,20.7,0,0,0,4.49-7.08,49.2,49.2,0,0,0,2.94-11.05,91.89,91.89,0,0,0,1-14.43,78.21,78.21,0,0,0-1.21-14.24,52.44,52.44,0,0,0-3.28-11.23,22.23,22.23,0,0,0-4.84-7.34,8.48,8.48,0,0,0-5.87-2.59,7.22,7.22,0,0,0-4.92,2.42,22.92,22.92,0,0,0-4.58,6.82,47.94,47.94,0,0,0-3.37,10.79,71.91,71.91,0,0,0-1.29,14.17,70.66,70.66,0,0,0,1.46,15,57.75,57.75,0,0,0,3.63,11.49,21.87,21.87,0,0,0,4.92,7.25A8.16,8.16,0,0,0,204.58,331Z"/><path class="cls-3" d="M327.89,226.11H348.1l-71.68,139h-20.2Z"/><path class="cls-3" d="M359.5,254.43a63.4,63.4,0,0,1,20.55-16A55.75,55.75,0,0,1,404.4,233a49.13,49.13,0,0,1,16.15,2.59,38.07,38.07,0,0,1,13,7.51A35.58,35.58,0,0,1,442.31,255a37.6,37.6,0,0,1,3.19,15.8,41.91,41.91,0,0,1-1.72,12.78,29.2,29.2,0,0,1-5.18,9.59,46.7,46.7,0,0,1-8.64,8q-5.18,3.79-12.09,8.29-3.11,2.07-7,4.92t-7.6,6.05a88.91,88.91,0,0,0-6.74,6.39,35.63,35.63,0,0,0-4.58,5.78h30.4V318.86h29v36.78H358.11v-25q3.63-5.87,6.39-9.93a70.71,70.71,0,0,1,5.62-7.25,83.06,83.06,0,0,1,6-6.05q3.1-2.85,7.25-6.13a81.92,81.92,0,0,1,10-7.6c3.56-2.3,6.88-4.58,9.93-6.82a45.45,45.45,0,0,0,7.6-6.91,11.42,11.42,0,0,0,3-7.51q0-6.57-4.23-9A20.36,20.36,0,0,0,399.39,261a16.37,16.37,0,0,0-6.48,1.29,30.87,30.87,0,0,0-5.69,3.2,35.12,35.12,0,0,0-4.93,4.23c-1.49,1.55-2.88,3-4.14,4.4Z"/><path class="cls-3" d="M460,257.54q3.63-1.73,7.08-3.45a67.28,67.28,0,0,0,7-4.06,65.77,65.77,0,0,0,7.51-5.87,82,82,0,0,0,8.64-9.24H521v97.75H537v23H468v-23h17.27V268.6L468,276.71Z"/></g></g></svg>