<svg id="Camada_1" data-name="Camada 1" xmlns="http://www.w3.org/2000/svg" viewBox="0 0 595.28 595.28"><defs><style>.cls-1{fill:#f6e033;}.cls-2{isolation:isolate;}.cls-3{fill:#010101;}</style></defs><title>SVG_corretos_site</title><rect id="Retângulo_434" data-name="Retângulo 434" class="cls-1" width="595.28" height="595.28"/><g id="_21_22" data-name=" 21 22" class="cls-2"><g class="cls-2"><path class="cls-3" d="M56.22,254.43a63.4,63.4,0,0,1,20.55-16A55.79,55.79,0,0,1,101.12,233a49.13,49.13,0,0,1,16.15,2.59,38,38,0,0,1,13,7.51A35.45,35.45,0,0,1,139,255a37.6,37.6,0,0,1,3.2,15.8,41.89,41.89,0,0,1-1.73,12.78,29.2,29.2,0,0,1-5.18,9.59,46.63,46.63,0,0,1-8.63,8q-5.19,3.79-12.09,8.29-3.12,2.07-7,4.92T100,320.5a88.7,88.7,0,0,0-6.73,6.39,35.09,35.09,0,0,0-4.58,5.78h30.4V318.86h29v36.78H54.84v-25q3.63-5.87,6.39-9.93a70.68,70.68,0,0,1,5.61-7.25q2.85-3.19,6-6.05t7.25-6.13a81.92,81.92,0,0,1,10-7.6q5.36-3.45,9.93-6.82a45.06,45.06,0,0,0,7.6-6.91,11.42,11.42,0,0,0,3-7.51q0-6.57-4.23-9A20.3,20.3,0,0,0,96.12,261a16.3,16.3,0,0,0-6.48,1.29,30.63,30.63,0,0,0-5.7,3.2A34.48,34.48,0,0,0,79,269.72q-2.25,2.32-4.15,4.4Z"/><path class="cls-3" d="M156.74,257.54q3.62-1.73,7.08-3.45a67.17,67.17,0,0,0,7-4.06,65.81,65.81,0,0,0,7.52-5.87,82.9,82.9,0,0,0,8.63-9.24H217.7v97.75h16.07v23H164.68v-23H182V268.6l-17.27,8.11Z"/><path class="cls-3" d="M310.1,226.11h20.21l-71.68,139h-20.2Z"/><path class="cls-3" d="M341.7,254.43a63.54,63.54,0,0,1,20.56-16A55.75,55.75,0,0,1,386.61,233a49.18,49.18,0,0,1,16.15,2.59,38.07,38.07,0,0,1,13,7.51A35.58,35.58,0,0,1,424.52,255a37.6,37.6,0,0,1,3.19,15.8A41.91,41.91,0,0,1,426,283.62a29.38,29.38,0,0,1-5.18,9.59,47,47,0,0,1-8.64,8Q407,305,400.08,309.53q-3.1,2.07-7,4.92t-7.59,6.05a88.91,88.91,0,0,0-6.74,6.39,35.09,35.09,0,0,0-4.58,5.78h30.4V318.86h29v36.78H340.32v-25q3.63-5.87,6.39-9.93a70.71,70.71,0,0,1,5.62-7.25,82.93,82.93,0,0,1,5.95-6.05c2.08-1.9,4.49-3.94,7.26-6.13a81.16,81.16,0,0,1,10-7.6q5.34-3.45,9.93-6.82a45.36,45.36,0,0,0,7.59-6.91,11.38,11.38,0,0,0,3-7.51q0-6.57-4.23-9A20.36,20.36,0,0,0,381.6,261a16.37,16.37,0,0,0-6.48,1.29,31.29,31.29,0,0,0-5.7,3.2,35.61,35.61,0,0,0-4.92,4.23q-2.25,2.32-4.14,4.4Z"/><path class="cls-3" d="M443.6,254.43a63.51,63.51,0,0,1,20.55-16A55.8,55.8,0,0,1,488.51,233a49.07,49.07,0,0,1,16.14,2.59,38,38,0,0,1,13,7.51A35.61,35.61,0,0,1,526.42,255a37.6,37.6,0,0,1,3.19,15.8,41.89,41.89,0,0,1-1.73,12.78,29,29,0,0,1-5.18,9.59,46.63,46.63,0,0,1-8.63,8Q508.88,305,502,309.53c-2.07,1.38-4.41,3-7,4.92s-5.12,3.92-7.6,6.05a90.63,90.63,0,0,0-6.73,6.39,35.09,35.09,0,0,0-4.58,5.78h30.4V318.86h29v36.78H442.22v-25q3.63-5.87,6.39-9.93a70.68,70.68,0,0,1,5.61-7.25q2.85-3.19,6-6.05c2.08-1.9,4.49-3.94,7.26-6.13a81.81,81.81,0,0,1,10-7.6q5.35-3.45,9.93-6.82a45.06,45.06,0,0,0,7.6-6.91,11.38,11.38,0,0,0,3-7.51q0-6.57-4.24-9A20.3,20.3,0,0,0,483.5,261a16.3,16.3,0,0,0-6.48,1.29,31.29,31.29,0,0,0-5.7,3.2,35,35,0,0,0-4.92,4.23q-2.25,2.32-4.14,4.4Z"/></g></g></svg>