<svg id="Camada_1" data-name="Camada 1" xmlns="http://www.w3.org/2000/svg" viewBox="0 0 595.28 595.28"><title>A</title><rect width="595.28" height="595.28" fill="#f5e035"/><path d="M298.38,471.22a175.89,175.89,0,0,1-84.89-21.84l6.14-11.11a163.22,163.22,0,0,0,158-.28l6.18,11.09A175.79,175.79,0,0,1,298.38,471.22Z" fill="#010101"/><path d="M459.12,268.49c-10.19-61-55.15-111.77-114.55-129.29l3.6-12.18A175.93,175.93,0,0,1,471.65,266.39Z" fill="#010101"/><path d="M138.1,265.81l-12.48-2.3A175.9,175.9,0,0,1,248.5,127.05l3.6,12.17a163.27,163.27,0,0,0-114,126.59Z" fill="#010101"/><path d="M87.7,356.79a208.26,208.26,0,0,1-9.16-61.25,219.84,219.84,0,0,1,439.68,0,233.32,233.32,0,0,1-8.13,61.15l-12.23-3.43a220,220,0,0,0,7.66-57.72c0-114.22-92.92-207.14-207.14-207.14S91.24,181.32,91.24,295.54a195.85,195.85,0,0,0,8.63,57.62Z" fill="#010101"/><path d="M298.38,515.38a219.31,219.31,0,0,1-158.44-67.44l9.15-8.8a207.15,207.15,0,0,0,298.58,0l9.15,8.8a219.31,219.31,0,0,1-158.44,67.44Z" fill="#010101"/><rect x="365.24" y="343.97" width="144.88" height="12.7" fill="#010101"/><rect x="87.81" y="343.97" width="144.67" height="12.7" fill="#010101"/><path d="M260.74,114.87h24.84v9.18h-7.35v-3.7H272v7.23h7.89v5.52H272v5.28h4.23v5.52H260.74v-5.52h2.58v-18h-2.58Z" fill="#010101"/><path d="M314.07,138.71a20.59,20.59,0,0,1-2.41,2.22,16.84,16.84,0,0,1-6.31,3.16,15.18,15.18,0,0,1-3.86.48,17,17,0,0,1-6-1,12.72,12.72,0,0,1-4.61-3,13.52,13.52,0,0,1-3-4.69,17.5,17.5,0,0,1-1.05-6.25,16.4,16.4,0,0,1,1.2-6.42,16.06,16.06,0,0,1,3.07-4.82,13.55,13.55,0,0,1,4.1-3,10.08,10.08,0,0,1,4.25-1,8.58,8.58,0,0,1,2.68.38,9.21,9.21,0,0,1,1.93.85,5.78,5.78,0,0,1,1.23,1c.29.32.48.54.56.65l.95-2.33h6.52v11.8h-7.43a8.12,8.12,0,0,0-.33-2,6.23,6.23,0,0,0-.81-1.68,3.92,3.92,0,0,0-1.33-1.16,4,4,0,0,0-1.93-.44,3.46,3.46,0,0,0-2,.65,5.47,5.47,0,0,0-1.56,1.76,9.53,9.53,0,0,0-1,2.62,13.64,13.64,0,0,0-.36,3.2,11.06,11.06,0,0,0,.4,3,7.93,7.93,0,0,0,1.16,2.49,5.86,5.86,0,0,0,1.89,1.72,5.17,5.17,0,0,0,2.62.65,5.39,5.39,0,0,0,2.45-.59,10.4,10.4,0,0,0,2-1.3,13.94,13.94,0,0,0,1.44-1.37c.37-.43.6-.7.68-.81Z" fill="#010101"/><path d="M315.73,114.87h13.46a19.31,19.31,0,0,1,5.86.73,8.63,8.63,0,0,1,3.48,2,6.16,6.16,0,0,1,1.69,2.82,12.91,12.91,0,0,1,.43,3.39,7.2,7.2,0,0,1-.87,3.61,7.53,7.53,0,0,1-2.37,2.56,10.91,10.91,0,0,1-3.46,1.53,16.43,16.43,0,0,1-4.22.52h-3.16v6.44h2.54v5.48H315.73v-5.48h2.33V120.31h-2.33Zm10.84,5.4v7.23h1.87a4.57,4.57,0,0,0,2.95-.9,3,3,0,0,0,1.12-2.55,3.66,3.66,0,0,0-1-2.82,4,4,0,0,0-2.84-1Z" fill="#010101"/><path d="M104.31,293.29l2-1a16.92,16.92,0,0,0,1.94-1.12,18.81,18.81,0,0,0,2.09-1.63,24,24,0,0,0,2.4-2.57h8.54v27.15h4.46v6.38H106.52v-6.38h4.8v-17.8l-4.8,2.26Z" fill="#010101"/><path d="M127.63,310.71a8.63,8.63,0,0,1,.36-2.4,10.53,10.53,0,0,1,1-2.4,10,10,0,0,1,1.63-2.11,8,8,0,0,1,2.16-1.54,6.91,6.91,0,0,1-2.71-2.87,7.71,7.71,0,0,1-.89-3.51,9,9,0,0,1,.77-3.74,8.48,8.48,0,0,1,2.23-3,10.62,10.62,0,0,1,3.59-2,15.09,15.09,0,0,1,4.83-.72,15.33,15.33,0,0,1,4.91.72,10.67,10.67,0,0,1,3.6,2,8.31,8.31,0,0,1,2.21,3,9.46,9.46,0,0,1,.74,3.74,6.78,6.78,0,0,1-1.22,4.08,7.6,7.6,0,0,1-2.81,2.45,8.19,8.19,0,0,1,3.7,3.52,10.05,10.05,0,0,1,1.24,4.78,9.71,9.71,0,0,1-.88,4.12,9.45,9.45,0,0,1-2.55,3.31,12.44,12.44,0,0,1-4,2.21,16,16,0,0,1-5.23.82,16.51,16.51,0,0,1-5.35-.82,12.18,12.18,0,0,1-4-2.21,9.4,9.4,0,0,1-2.49-3.31A9.85,9.85,0,0,1,127.63,310.71Zm8.29-.29a3.46,3.46,0,0,0,.36,1.58,4.06,4.06,0,0,0,1,1.25,4.52,4.52,0,0,0,1.42.82,5.42,5.42,0,0,0,4.8-.68,3.41,3.41,0,0,0,1.34-3,3.21,3.21,0,0,0-.65-2.06,4.73,4.73,0,0,0-1.58-1.3,7.19,7.19,0,0,0-2-.67,15.21,15.21,0,0,0-1.87-.24,6.18,6.18,0,0,0-2,1.78A4.11,4.11,0,0,0,135.92,310.42Zm8.21-14.92a2.67,2.67,0,0,0-1.08-2.16,4,4,0,0,0-2.52-.86,3.5,3.5,0,0,0-2.42.91,2.74,2.74,0,0,0-1,2.11,2.36,2.36,0,0,0,.52,1.61,3.76,3.76,0,0,0,1.27.93,6.13,6.13,0,0,0,1.56.48,8,8,0,0,0,1.39.15,4.84,4.84,0,0,0,1.61-1.25A2.82,2.82,0,0,0,144.13,295.5Z" fill="#010101"/><path d="M445,311c.83.48,1.84,1,3,1.58a8.91,8.91,0,0,0,4,.86,5.56,5.56,0,0,0,4.29-1.67,6.88,6.88,0,0,0,1.56-4.85,8.66,8.66,0,0,1-2.61,1.73,9,9,0,0,1-3.72.72,11.4,11.4,0,0,1-4.2-.77,10.18,10.18,0,0,1-5.71-5.57,11,11,0,0,1-.84-4.36,12.37,12.37,0,0,1,.89-4.65,11.47,11.47,0,0,1,2.54-3.87,12.22,12.22,0,0,1,4.06-2.63,14.08,14.08,0,0,1,5.42-1,13.47,13.47,0,0,1,5.49,1.11,12.61,12.61,0,0,1,4.37,3.14,14.45,14.45,0,0,1,2.88,5,20.34,20.34,0,0,1,1,6.69,33.62,33.62,0,0,1-.24,3.88,25,25,0,0,1-.84,4.13,20.81,20.81,0,0,1-1.63,4,12.32,12.32,0,0,1-2.67,3.38,12.12,12.12,0,0,1-3.93,2.33,15.16,15.16,0,0,1-5.37.86,15.38,15.38,0,0,1-2.74-.26,24.29,24.29,0,0,1-3-.74,18.84,18.84,0,0,1-2.9-1.2,12.5,12.5,0,0,1-2.4-1.59Zm8.25-8.54a4.81,4.81,0,0,0,1.56-.34,5.68,5.68,0,0,0,1.24-.69,7,7,0,0,0,1-.87q.42-.45.72-.84a9.81,9.81,0,0,0-.2-1.89,5.68,5.68,0,0,0-.67-1.82,4.26,4.26,0,0,0-1.24-1.39,3.23,3.23,0,0,0-1.92-.56,4.32,4.32,0,0,0-3.12,1.2,3.92,3.92,0,0,0-1.25,2.93,6.61,6.61,0,0,0,.19,1.49,3.42,3.42,0,0,0,.68,1.36,3.92,3.92,0,0,0,1.19,1A3.7,3.7,0,0,0,453.22,302.41Z" fill="#010101"/><path d="M480.08,321.17a13,13,0,0,1-3.4-.46,16.92,16.92,0,0,1-3.19-1.2,12.79,12.79,0,0,1-2.69-1.73,9.71,9.71,0,0,1-1.9-2l4.9-5.08a14.65,14.65,0,0,0,2.8,2.23,6.7,6.7,0,0,0,3.53.89,4.87,4.87,0,0,0,3.17-.94,3.36,3.36,0,0,0,1.15-2.76,3.12,3.12,0,0,0-1.08-2.73,4.93,4.93,0,0,0-2.9-.77h-3.6v-5.71h3.5a4.85,4.85,0,0,0,2.9-.84,2.85,2.85,0,0,0,1.18-2.47,3.47,3.47,0,0,0-.39-1.68,3.41,3.41,0,0,0-1-1.17,4.63,4.63,0,0,0-1.34-.7,4.91,4.91,0,0,0-1.51-.24,6.28,6.28,0,0,0-2.88.77,10.07,10.07,0,0,0-2.74,2.11L470,291a10.18,10.18,0,0,1,1.7-1.51,15.55,15.55,0,0,1,2.45-1.46,17.87,17.87,0,0,1,2.92-1.13,11.16,11.16,0,0,1,3.2-.46,17.24,17.24,0,0,1,5.2.72,10.85,10.85,0,0,1,3.84,2.06,8.85,8.85,0,0,1,2.37,3.22,10.24,10.24,0,0,1,.82,4.17,5.85,5.85,0,0,1-.39,2.21,7.09,7.09,0,0,1-.93,1.7,9.26,9.26,0,0,1-1.15,1.3,9.78,9.78,0,0,1-1.08.88c.38.29.83.66,1.34,1.11a9.75,9.75,0,0,1,1.46,1.63,9.23,9.23,0,0,1,1.18,2.23,8.16,8.16,0,0,1,.48,2.9,8.89,8.89,0,0,1-1.18,4.66,10.58,10.58,0,0,1-3,3.28,13.37,13.37,0,0,1-4.25,2A18.3,18.3,0,0,1,480.08,321.17Z" fill="#010101"/><path d="M69,377.63H90.68a31.19,31.19,0,0,1,9.41,1.17,14,14,0,0,1,5.62,3.14,10,10,0,0,1,2.7,4.54,20.48,20.48,0,0,1,.7,5.44,11.49,11.49,0,0,1-1.4,5.81,12.17,12.17,0,0,1-3.81,4.11,17.74,17.74,0,0,1-5.58,2.47,26.35,26.35,0,0,1-6.78.84H86.47V415.5h4.07v8.82H69V415.5h3.74V386.38H69Zm17.44,8.68v11.63h3a7.41,7.41,0,0,0,4.75-1.44,5,5,0,0,0,1.8-4.11,5.94,5.94,0,0,0-1.64-4.54,6.38,6.38,0,0,0-4.57-1.54Z" fill="#010101"/><path d="M135,425.52a29.18,29.18,0,0,1-9.62-1.53,20.38,20.38,0,0,1-7.58-4.61,20.86,20.86,0,0,1-4.94-7.72,30.57,30.57,0,0,1-1.77-10.92,27.53,27.53,0,0,1,1.7-9.89,22.58,22.58,0,0,1,4.81-7.71,21.4,21.4,0,0,1,7.41-5,24.87,24.87,0,0,1,9.52-1.77,29.14,29.14,0,0,1,10.66,1.77,19.8,19.8,0,0,1,7.48,5,20.48,20.48,0,0,1,4.41,7.85,34.16,34.16,0,0,1,1.43,10.22A31.66,31.66,0,0,1,157,411.4a20.5,20.5,0,0,1-4.54,7.64,19.78,19.78,0,0,1-7.39,4.81A27.86,27.86,0,0,1,135,425.52ZM135,415a4.39,4.39,0,0,0,2.84-1,8.3,8.3,0,0,0,2.14-2.8,16.67,16.67,0,0,0,1.37-4.34,31.78,31.78,0,0,0,.46-5.68,35.16,35.16,0,0,0-.43-5.71,17.78,17.78,0,0,0-1.34-4.61,8.43,8.43,0,0,0-2.3-3.11,5.13,5.13,0,0,0-3.34-1.13,4.18,4.18,0,0,0-2.77,1,8.47,8.47,0,0,0-2.14,2.91,18.1,18.1,0,0,0-1.4,4.47,29.65,29.65,0,0,0-.5,5.68,28.12,28.12,0,0,0,.56,5.91,17.88,17.88,0,0,0,1.54,4.51,7.94,7.94,0,0,0,2.34,2.87A4.91,4.91,0,0,0,135,415Z" fill="#010101"/><path d="M161.22,377.63h21.71a33.68,33.68,0,0,1,9.41,1.07,14.12,14.12,0,0,1,5.65,2.94,9.21,9.21,0,0,1,2.74,4.37,19.77,19.77,0,0,1,.7,5.38,8.8,8.8,0,0,1-2.77,6.51,11.4,11.4,0,0,1-3.08,2.07,12.45,12.45,0,0,1-3.84,1.1,10.35,10.35,0,0,1,3.31,1.11,10.64,10.64,0,0,1,4.71,5,8.1,8.1,0,0,1,.73,3.41,13.1,13.1,0,0,0,.34,3.34c.22.8.64,1.2,1.27,1.2q1.53,0,1.53-2.13v-2.21h4.48v3.67a17.06,17.06,0,0,1-.47,4,8.87,8.87,0,0,1-1.6,3.41,8.24,8.24,0,0,1-3,2.37,10.71,10.71,0,0,1-4.67.9q-6.62,0-9.79-3.27t-3.17-9.15a29.17,29.17,0,0,0-.2-3.74,4.6,4.6,0,0,0-.9-2.31,3.86,3.86,0,0,0-2-1.17,15.28,15.28,0,0,0-3.54-.33V415.5h4.07v8.82H161.22V415.5H165V386.38h-3.74Zm17.5,8.68v11.36h3a7.38,7.38,0,0,0,4.68-1.37,4.83,4.83,0,0,0,1.74-4,5.88,5.88,0,0,0-1.57-4.48,6.36,6.36,0,0,0-4.51-1.47Z" fill="#010101"/><path d="M254.6,377.63V395h-9.82v-8.55h-5.61v29h5.55v8.88H219.87v-8.88h5.47v-29H219.6V395h-9.82V377.63Z" fill="#010101"/><path d="M280.52,425.52A29.18,29.18,0,0,1,270.9,424a20.38,20.38,0,0,1-7.58-4.61,20.86,20.86,0,0,1-4.94-7.72,30.57,30.57,0,0,1-1.77-10.92,27.53,27.53,0,0,1,1.7-9.89,22.73,22.73,0,0,1,4.81-7.71,21.4,21.4,0,0,1,7.41-5,24.87,24.87,0,0,1,9.52-1.77,29.14,29.14,0,0,1,10.66,1.77,19.8,19.8,0,0,1,7.48,5A20.48,20.48,0,0,1,302.6,391,34.16,34.16,0,0,1,304,401.21a31.66,31.66,0,0,1-1.53,10.19A20.5,20.5,0,0,1,298,419a19.78,19.78,0,0,1-7.39,4.81A27.86,27.86,0,0,1,280.52,425.52Zm0-10.48a4.39,4.39,0,0,0,2.84-1,8.3,8.3,0,0,0,2.14-2.8,16.67,16.67,0,0,0,1.37-4.34,31.78,31.78,0,0,0,.46-5.68,35.16,35.16,0,0,0-.43-5.71,17.78,17.78,0,0,0-1.34-4.61,8.32,8.32,0,0,0-2.3-3.11,5.13,5.13,0,0,0-3.34-1.13,4.18,4.18,0,0,0-2.77,1,8.47,8.47,0,0,0-2.14,2.91,18.1,18.1,0,0,0-1.4,4.47,29.65,29.65,0,0,0-.5,5.68,28.12,28.12,0,0,0,.56,5.91,17.88,17.88,0,0,0,1.54,4.51,7.94,7.94,0,0,0,2.34,2.87A4.91,4.91,0,0,0,280.52,415Z" fill="#010101"/><path d="M305,432.67v-3.34h33.4v3.34Z" fill="#010101"/><path d="M340.11,424.32v-8.88h4.14v-29h-4.14v-8.82h20.37a30.56,30.56,0,0,1,10.79,1.77,23.52,23.52,0,0,1,8,4.81,20.2,20.2,0,0,1,4.94,7.18,23.2,23.2,0,0,1,1.71,8.95q0,11.49-6.62,17.74t-19,6.24Zm30.39-24a23.3,23.3,0,0,0-.57-5.18,14.43,14.43,0,0,0-1.77-4.44,9.41,9.41,0,0,0-3.1-3.11,8.68,8.68,0,0,0-4.58-1.16h-2.54v29h2.54a8.34,8.34,0,0,0,4.58-1.21,9.36,9.36,0,0,0,3.1-3.24,15.46,15.46,0,0,0,1.77-4.77A28.9,28.9,0,0,0,370.5,400.34Z" fill="#010101"/><path d="M440.51,424.32H413.72v-8.75h6.35L418.66,411H405l-1.4,4.54h5.21v8.75H387.53v-8.75h4.55l9-29.32h-2.73v-8.62H424l11.82,37.94h4.68ZM407.44,403h8.75l-4.41-14.43Z" fill="#010101"/><path d="M466.43,398.67a5.08,5.08,0,0,1,.36-1.2c.2-.49.43-1,.67-1.54s.5-1.07.77-1.6.49-1,.67-1.41l3.67-6.74H468.9v-8.55h18v8.55h-3.61L470.9,407.89v7.75h3.74v8.68H453.27v-8.68h3.8v-7.89l-13-21.57h-3.27v-8.55h22.85v8.55h-3.48l3.88,7.08a12.47,12.47,0,0,0,.43,1.2c.2.49.41,1,.64,1.54s.42,1.05.6,1.53.31.87.4,1.14Z" fill="#010101"/><path d="M487.87,424.32V407.49h12.42a5.6,5.6,0,0,0,.94,3.37,6.89,6.89,0,0,0,2.24,2,8.81,8.81,0,0,0,2.73,1,13.9,13.9,0,0,0,2.51.27,14.11,14.11,0,0,0,1.87-.14,6.32,6.32,0,0,0,1.84-.5,4.07,4.07,0,0,0,1.4-1,2.44,2.44,0,0,0,.57-1.7c0-.85-.64-1.55-1.91-2.11a37.73,37.73,0,0,0-4.74-1.63q-2.83-.81-6.18-1.84a25.76,25.76,0,0,1-6.18-2.84,16.38,16.38,0,0,1-4.74-4.57,12.19,12.19,0,0,1-1.9-7,12.67,12.67,0,0,1,1.57-6.42,14.22,14.22,0,0,1,3.94-4.47,17.44,17.44,0,0,1,5.14-2.61,17.85,17.85,0,0,1,5.24-.86,24.24,24.24,0,0,1,4.15.36,18.49,18.49,0,0,1,3.94,1.17,13,13,0,0,1,3.37,2.11,11,11,0,0,1,2.51,3.17l.66-5.61h11.49v16.76H518.66a7.69,7.69,0,0,0-.67-3.3,7,7,0,0,0-1.83-2.44,7.68,7.68,0,0,0-2.74-1.5,10.66,10.66,0,0,0-3.31-.5,5.26,5.26,0,0,0-1.53.23,6.21,6.21,0,0,0-1.51.67,3.71,3.71,0,0,0-1.13,1.1,2.78,2.78,0,0,0-.44,1.54,3.33,3.33,0,0,0,2,2.87,28.17,28.17,0,0,0,4.91,2.14l6.35,2.17a35,35,0,0,1,6.35,2.9,17,17,0,0,1,4.91,4.35,10.53,10.53,0,0,1,2,6.54,12.44,12.44,0,0,1-1.64,6.61,13.88,13.88,0,0,1-4.21,4.38,17.34,17.34,0,0,1-5.71,2.44,26.88,26.88,0,0,1-6.15.73,19,19,0,0,1-8.55-1.93,17.65,17.65,0,0,1-3.1-2,16,16,0,0,1-2.31-2.24l-.73,5.14Z" fill="#010101"/><path d="M261.12,218.06A66.32,66.32,0,0,0,247,231a67.71,67.71,0,0,0-7.9,12.27,69.67,69.67,0,0,0-5,49.36,70.7,70.7,0,0,0,15.71,28.26,66.64,66.64,0,0,0,34.62,20.37,71.24,71.24,0,0,0,40.42-2.63A69.75,69.75,0,0,0,359,310.22a69,69,0,0,0,9.6-26.56c3.32-24.26-7.75-42.42-10.57-46.77a69.54,69.54,0,0,0-18.3-18.95A1.75,1.75,0,0,0,340,217a3.33,3.33,0,0,1-1-2,1.88,1.88,0,0,0-.26-.55,2.69,2.69,0,0,0-.42-.49,2.24,2.24,0,0,0-.15-.83,2.57,2.57,0,0,0-.18-.37,1.57,1.57,0,0,0,.08-.6,1.51,1.51,0,0,0-.77-1.19,1.62,1.62,0,0,0-1.94.47l-.38-.42a10.49,10.49,0,0,0,1.8-1.9,4.23,4.23,0,0,0,.65-1.24,2.23,2.23,0,0,0-.38-2.32c-.94-1.48-1.86-1.84-2.73-2.74a1,1,0,0,0-.44-.3c-.22-.07-.32,0-.75,0s-.46-.1-.5-.14-.08-.15-.08-.38c0-.54,0-.64,0-.83s-.16-.28-.45-.54c-.73-.68-.09-.16-1.1-1.07a5.82,5.82,0,0,0-.93-.76,2.13,2.13,0,0,0-1.39,0,5.06,5.06,0,0,0-2.18,1.2h0l1.07-1.68a7.72,7.72,0,0,0,1.5-.4,5.44,5.44,0,0,0,2-1.11,5,5,0,0,0,1.18-1.7,5.21,5.21,0,0,0,.37-2.45l1.15-.57a2.43,2.43,0,0,0,1.69.11,2.35,2.35,0,0,0,1.58-1.73,2.66,2.66,0,0,0-2.23-3,2.13,2.13,0,0,0-1.23.31l-.65-.42-.35-1.66a2.63,2.63,0,0,0-.15-3.88,2.4,2.4,0,0,0-2.81,0,2.56,2.56,0,0,0-1,2.12,1.94,1.94,0,0,0-.77.57,2.35,2.35,0,0,0-.27.46,10.43,10.43,0,0,0-4.34-1.88l-.3-4.79a3.39,3.39,0,0,0,.59-1.48,3,3,0,0,0-.47-2.25c-.25-.33-.31-.22-1.12-.89s-.89-.93-1.42-1.24a10.13,10.13,0,0,0-1.66-.53,7.42,7.42,0,0,1-1.72-.77c-.73-.49-.73-.77-1.3-1.13a3.53,3.53,0,0,0-2.07-.47,9.61,9.61,0,0,0-2.7-4.1l0-1.14a5,5,0,0,0-.55-.88,5.09,5.09,0,0,0-2.07-1.52,2.06,2.06,0,0,0,.8-1.17,1.85,1.85,0,0,0,0-.84c0-.18-.25-.86-.78-1a1.66,1.66,0,0,0-.52,0H307a38.3,38.3,0,0,0-5.17.87,1.81,1.81,0,0,0-.65-1.3,1.23,1.23,0,0,0-.64-.28,2,2,0,0,0-1.45.59,6.7,6.7,0,0,0-1.22,1.27,15,15,0,0,0-1.1,1.63,15.59,15.59,0,0,0-1.4,1,14.5,14.5,0,0,0-1.85,1.77,11.61,11.61,0,0,0-1.32.52,5.14,5.14,0,0,0-1.05.6,3.24,3.24,0,0,0-1,1.45,3.67,3.67,0,0,1-1.07-.41,4.86,4.86,0,0,1-1.55-1.78,9.21,9.21,0,0,0-2.29-2.23,6.22,6.22,0,0,0-3.71-.92,1.72,1.72,0,0,0-1.33-1,7,7,0,0,0-2.06-2,6.52,6.52,0,0,0-3.31-1,3.52,3.52,0,0,0-2.45.66,1.6,1.6,0,0,0-.71,1.22c.06.79,1.16,1.22,1.3,1.28.56.21.78.06,1.37.22a3.31,3.31,0,0,1,1.57,1,12.26,12.26,0,0,0-2,.12,3.17,3.17,0,0,0-1.74.56,2.19,2.19,0,0,0-.64,1l-1.07.22a1.57,1.57,0,0,0-.52-.91,1.48,1.48,0,0,0-.64-.29,4.87,4.87,0,0,0-2,0,6.76,6.76,0,0,0-2.11.69c-.36.19-.29.2-.58.34a5.14,5.14,0,0,1-2.06.47c-.69,0-.82-.11-1.2,0a1.48,1.48,0,0,0-.84.78,1.59,1.59,0,0,0,.18,1.35,2.8,2.8,0,0,0,1.93,1.05,7.31,7.31,0,0,0,2.7.17,1.55,1.55,0,0,0,0,1.13c.23.55.81.76,1.37,1A8.38,8.38,0,0,0,268,170a6.87,6.87,0,0,1,2,1,8,8,0,0,0,3.14,1,4.13,4.13,0,0,0-.25.83,3.81,3.81,0,0,0,0,1.16,2.86,2.86,0,0,0-1.69,1.47,2.36,2.36,0,0,0-.17,1.12,8.72,8.72,0,0,0,1.12,3.68,9.86,9.86,0,0,0,4.41,3.72l-2,1.22a2.89,2.89,0,0,0-.8-1,3,3,0,0,0-2.16-.59,2.43,2.43,0,0,0-3.5-.57,2.56,2.56,0,0,0-.84,2.18,2.77,2.77,0,0,0,1.84,2.23,4.43,4.43,0,0,0-.54,1.15,3.81,3.81,0,0,0-.14.91,2.81,2.81,0,0,0-.69,1.13,3,3,0,0,0,.07,2.08,3.39,3.39,0,0,0,3.6,1.67,1.61,1.61,0,0,0,1.35,1.47,2.25,2.25,0,0,0-.27,1.42,3.71,3.71,0,0,0,.66,1.29c.23.37.52.82.86,1.33a3.17,3.17,0,0,0-1.44-1,2.78,2.78,0,0,0-1.69-.07,3,3,0,0,0-.81.44,7.81,7.81,0,0,0-1.5,1.54.73.73,0,0,0-.19.37c0,.21.07.29.05.52a1,1,0,0,1-.22.44,1.46,1.46,0,0,1-.49.36c-.42.2-.6.07-1,.22a1.62,1.62,0,0,0-.54.4c-1.16,1.1-1.85,1.86-2.13,2.18a3.66,3.66,0,0,0-.61.76,2.57,2.57,0,0,0,0,1.81,5.53,5.53,0,0,0,1.18,1.77c.46.58.87,1,1.15,1.36l-.25.5a1.8,1.8,0,0,0-1-.58,1.58,1.58,0,0,0-1.49.37,3.1,3.1,0,0,0-.28,1.24c0,.29,0,.42-.11.74a2.52,2.52,0,0,1-.26.84c-.19.28-.28.22-.42.45-.22.4,0,.67-.22,1s-.28.11-.54.31a1.4,1.4,0,0,0-.49.86A1.64,1.64,0,0,0,261.12,218.06Z" fill="#010101"/></svg>