<svg id="Camada_1" data-name="Camada 1" xmlns="http://www.w3.org/2000/svg" viewBox="0 0 595.28 595.28">
    <title>SVG_corretos_site</title>
    <rect id="Retângulo_30" data-name="Retângulo 30" width="595.28" height="595.28" class="cls-1" />
    <g id="Grupo_33" data-name="Grupo 33">
        <path id="Caminho_53" data-name="Caminho 53"
            d="M237.15,372.61H131.72c-.48,1.37-1,2.63-1.39,3.91q-9.81,30.56-19.64,61.09a13.76,13.76,0,0,1-1.84,3.94,5.48,5.48,0,0,1-4.82,1.78c-7.66,0-15.32,0-23,0-9.23,0-18.47-.13-27.7.05-4.91.09-6.18-1.53-4.5-6.34q13-37.1,25.92-74.23,32.15-92.22,64.35-184.42a87.52,87.52,0,0,0,5.07-28c0-3.41.69-4.06,4.07-4.06h70.51c3.58,0,3.85.24,5.13,3.83l76.27,213.91,25.77,72.31a26.64,26.64,0,0,1,1.12,3.59,2.47,2.47,0,0,1-1.46,3.18,2.67,2.67,0,0,1-.88.15,14.84,14.84,0,0,1-2.21.07H266.17c-4,0-4.79-.57-6.12-4.44q-10.76-31.23-21.48-62.46C238.15,375.21,237.69,374,237.15,372.61Zm-16.86-56.43c-11.5-38-24.46-75.1-34.59-113.06-.38-1.43-.88-2.79-1.33-4.17a.37.37,0,0,0-.23-.21,1.59,1.59,0,0,0-.39.11C174,238.44,160.7,277,148.32,316.18Z"
            class="cls-2" />
        <path id="Caminho_54" data-name="Caminho 54"
            d="M404.73,346.44c.7,3.33,1.14,6.23,1.9,9a48.73,48.73,0,0,0,17.28,27.42,63.54,63.54,0,0,0,22.16,10.15,90.88,90.88,0,0,0,30.54,2.81,215.18,215.18,0,0,0,37.83-6c4.14-1,8.15-2.59,12.61-4a20.4,20.4,0,0,1,.47,3c0,14.27,0,28.54,0,42.81a6,6,0,0,1-4,6.07,126,126,0,0,1-28,8.05,214.4,214.4,0,0,1-45.11,3.1,128.66,128.66,0,0,1-42.81-7.79,97.37,97.37,0,0,1-60.06-65.52,139.63,139.63,0,0,1,5.24-98.13,104.92,104.92,0,0,1,47.94-52.77,87.08,87.08,0,0,1,30.21-9.2,167.51,167.51,0,0,1,25.43-1.16,100.51,100.51,0,0,1,45.23,11.8,79.34,79.34,0,0,1,33.61,35.55A110,110,0,0,1,546.54,301a176.36,176.36,0,0,1-.45,33.92c-.21,2.29-.39,4.6-.75,6.88-.44,2.85-1.54,3.8-4.32,4-6.18.48-12.35.81-18.51,1.37a141.65,141.65,0,0,1-22-.48c-2.19-.14-4.4-.23-6.6-.23h-85Zm.16-41.56c1.22.11,2,.24,2.85.24q36-.08,72-.21a18.15,18.15,0,0,0,5.21-1c2.64-.83,2.75-1.15,2.71-3.81a37.64,37.64,0,0,0-25.93-35,46.27,46.27,0,0,0-15.52-1.84A38.79,38.79,0,0,0,414.76,279a55,55,0,0,0-9.87,25.92Z"
            class="cls-2" />
    </g>
</svg>