<svg id="Camada_1" data-name="Camada 1" xmlns="http://www.w3.org/2000/svg" viewBox="0 0 595.28 595.28">
    <title>SVG_corretos_site</title>
    <rect id="Retângulo_32" data-name="Retângulo 32" width="595.28" height="595.28" class="cls-1" />
    <g id="Grupo_27" data-name="Grupo 27">
        <path id="Caminho_38" data-name="Caminho 38"
            d="M388.37,464.16c-1.15.07-2,.17-2.86.17-19.15,0-38.31,0-57.47.05a3.53,3.53,0,0,1-4-2.93s0-.07,0-.11c-9.09-28.79-18.36-57.51-27.48-86.29a3.82,3.82,0,0,0-4.34-3.2l-.07,0q-48.39.13-96.77,0A3.8,3.8,0,0,0,191,375a.52.52,0,0,0,0,.11c-7.28,24.3-14.69,48.56-22,72.83-1.64,5.41-3.25,10.84-4.87,16.25H102.66c2.19-6.88,4.28-13.56,6.44-20.22l34.32-106.88Q169,257.25,194.54,177.35c3.87-12.07,7.89-24.1,11.65-36.2.6-1.93,1.32-2.44,3.27-2.44,23.62,0,47.25,0,70.88-.16,3.24,0,3.18,2.18,3.76,4q17.53,53.79,35,107.61,25.71,79,51.47,158.08,8.74,26.85,17.41,53.73A21.31,21.31,0,0,1,388.37,464.16ZM285.14,327c-14.55-47.14-31.14-93.1-42.49-140.85-10.47,48-26.48,94-41,140.85Z"
            class="cls-2" />
        <path id="Caminho_39" data-name="Caminho 39" d="M429.39,229.07h59.36V464.15H429.39Z" class="cls-2" />
        <path id="Caminho_40" data-name="Caminho 40"
            d="M425.9,162.92c.26-18.9,14.23-32.14,33.81-32a31.88,31.88,0,0,1,32.91,30.8c0,.85,0,1.71,0,2.56-.28,18-15,31.25-34.44,31a31.44,31.44,0,0,1-32.26-30.58C425.89,164.07,425.89,163.49,425.9,162.92Z"
            class="cls-2" />
    </g>
</svg>