<svg id="Camada_1" data-name="Camada 1" xmlns="http://www.w3.org/2000/svg" viewBox="0 0 595.28 595.28">
    <title>SVG_corretos_site</title>
    <rect id="Retângulo_34" data-name="Retângulo 34" width="595.28" height="595.28" class="cls-1" />
    <g id="Grupo_29" data-name="Grupo 29">
        <path id="Caminho_43" data-name="Caminho 43"
            d="M445.22,281.77q0,70.26.07,140.5a175.54,175.54,0,0,0,1.38,17.86,4.71,4.71,0,0,1-2.9,5.38,157.85,157.85,0,0,1-49.91,15.35,181.38,181.38,0,0,1-35.54,1.91,107.57,107.57,0,0,1-77.9-35.91,100.34,100.34,0,0,1-21.64-43.62,178.79,178.79,0,0,1-4.58-52.42,127.9,127.9,0,0,1,24.53-70.68,107.55,107.55,0,0,1,68.14-43.72,181.08,181.08,0,0,1,42-2.38c2.64.09,2.8-.87,2.8-2.9q-.06-26.83,0-53.69V136.07c0-3.36.39-3.74,4-3.75H441.3c3.76,0,3.93.2,3.93,4ZM391.76,337c0-24.33,0-48.65.05-73a3.16,3.16,0,0,0-2.59-3.64h-.06a57,57,0,0,0-31.82,0c-23.25,6.34-37.72,22-44.54,44.67a123.13,123.13,0,0,0-.88,64,58.1,58.1,0,0,0,21.34,34.17,58.74,58.74,0,0,0,33.06,12.39,63.57,63.57,0,0,0,22.44-1.9,3.72,3.72,0,0,0,3.07-4.25c-.12-24.17-.07-48.3-.07-72.45Z"
            class="cls-2" />
        <path id="Caminho_44" data-name="Caminho 44"
            d="M201.1,295.35V453.86c0,3.83,0,4-3.92,4q-22.16.07-44.31,0c-3.92,0-4.28-.56-4.28-5.27V137.9c0-5.36.26-5.61,5.55-5.61h42.23c4.7,0,4.76.07,4.76,4.81Z"
            class="cls-2" />
    </g>
</svg>