<svg id="Camada_1" data-name="Camada 1" xmlns="http://www.w3.org/2000/svg" viewBox="0 0 595.28 595.28">
    <title>SVG_corretos_site</title>
    <rect id="Retângulo_33" data-name="Retângulo 33" width="595.28" height="595.28" class="cls-1" />
    <g id="Grupo_32" data-name="Grupo 32">
        <path id="Caminho_52" data-name="Caminho 52"
            d="M453.29,298.28q0,75.95.06,151.89a3.6,3.6,0,0,1-2.92,4.16l-.32,0q-52.23,14.33-104.4,28.9a11.24,11.24,0,0,1-7.33-.4q-55.38-20.55-110.79-41c-27.33-10.11-54.64-20.28-82-30.3a4.46,4.46,0,0,1-3.46-5q.09-108.15-.12-216.3a5,5,0,0,1,4-5.54q51.27-19.08,102.45-38.39,45.75-17.19,91.51-34.33a7.17,7.17,0,0,1,4.15-.22c35.32,10.11,70.62,20.34,106,30.44a3.81,3.81,0,0,1,3.37,4.2,2.51,2.51,0,0,1,0,.27q-.14,75.81-.06,151.62ZM144.56,409.59l.09.57,196.94,27.12V170.38c-6.42,1.53-12.48,3-18.53,4.41l-108.54,26c-4.38,1-3.81.31-3.81,4.91q0,87.24.06,174.46a4.4,4.4,0,0,1-3.33,4.92c-17.33,6.66-34.58,13.45-51.85,20.21q-5.53,2.14-11,4.31Z"
            class="cls-2" />
    </g>
</svg>