<svg id="Camada_1" data-name="Camada 1" xmlns="http://www.w3.org/2000/svg" viewBox="0 0 595.28 595.28">
    <title>SVG_corretos_site</title>
    <rect id="Retângulo_28" data-name="Retângulo 28" width="595.28" height="595.28" class="cls-1" />
    <g id="Grupo_28" data-name="Grupo 28">
        <path id="Caminho_41" data-name="Caminho 41"
            d="M150.26,365.87v8c0,29.44-.11,58.89.11,88.33,0,5.71-1.61,7.88-7.53,7.78q-26.31-.45-52.63,0c-5.79.1-7.2-2.16-7.2-7.46q.15-156.09,0-312.18c0-5.43,1.54-7.26,7.21-7.33,31.05-.4,62.09-1.55,93.14-1.8a180.46,180.46,0,0,1,64.16,10c44.54,16.29,70.57,54.18,70.12,101.76-.31,31.87-9.21,59.94-33.47,81.89A118.51,118.51,0,0,1,214,364.17c-18.39,1.78-37,1.23-55.5,1.7C156.07,365.92,153.68,365.87,150.26,365.87Zm.52-58c22.74.95,44.64,1.84,66-5.51,22.92-7.89,33.6-23.52,33.46-49.47-.13-22.83-12-38.76-33.91-46-15.48-5.14-31.4-4.65-47.31-4.4-6,.1-11.95,0-18.2,0Z"
            class="cls-2" />
        <path id="Caminho_42" data-name="Caminho 42"
            d="M428.11,253.72c6.28-5.45,12.18-11.19,18.7-16.1a98.49,98.49,0,0,1,57.52-21c7-.19,7.82.48,7.84,7.25,0,17.95-.16,35.9.1,53.84.08,5.27-1.62,7.07-6.92,7A138,138,0,0,0,450,295.42c-1.3.54-2.58,1.15-3.85,1.75a22.23,22.23,0,0,0-14.75,23.16c.89,47,.37,94,.35,141,0,9.44-.08,9.52-9.34,9.52H372.16c-10.12,0-10.25-.12-10.25-10,0-48.2.21-96.4-.09-144.59-.18-28.82-1.12-57.65-1.81-86.46-.18-7.88-.31-7.88,7.81-7.89,15.53,0,31.06.16,46.58-.08a8.49,8.49,0,0,1,9.67,7.08c0,.2.05.4.07.6C425.56,237.48,426.79,245.54,428.11,253.72Z"
            class="cls-2" />
    </g>
</svg>