<svg id="Camada_1" data-name="Camada 1" xmlns="http://www.w3.org/2000/svg" viewBox="0 0 595.28 595.28">
    <title>SVG_corretos_site</title>
    <rect id="Retângulo_36" data-name="Retângulo 36" width="595.28" height="595.28" class="cls-1" />
    <g id="Grupo_30" data-name="Grupo 30">
        <path id="Caminho_45" data-name="Caminho 45"
            d="M139.45,355.23v98.95c0,4.64-1,5.64-5.52,5.64q-20.81,0-41.6,0c-5.17,0-10.34,0-15.51,0-4.15,0-4.84-.76-4.94-5V137.57c0-1.06,0-2.12,0-3.18.18-2.91,1-3.68,3.92-3.8,2.23-.08,4.46,0,6.7-.05,14.2-.29,28.42-.68,42.62-.86,20.46-.27,40.91-1,61.31-.41a146.6,146.6,0,0,1,66.32,16.44,99.59,99.59,0,0,1,53.4,74,128.92,128.92,0,0,1-2.52,56.22,98.65,98.65,0,0,1-50.43,62.61,136,136,0,0,1-44,14.09,308.93,308.93,0,0,1-62.51,2.43c-1.64-.06-3.28,0-4.93,0C141.22,355.05,140.64,355.13,139.45,355.23ZM140,296c1.22.13,2.24.3,3.26.33,7.61.21,15.23.43,22.87.56a116.2,116.2,0,0,0,24.12-2.07,82.61,82.61,0,0,0,24.37-7.68,44,44,0,0,0,22.72-25.23,62.47,62.47,0,0,0,1.51-32.69,43.48,43.48,0,0,0-25.13-31.54,75.55,75.55,0,0,0-30.23-7.21c-13.25-.34-26.52-.05-39.79,0a32.72,32.72,0,0,0-3.7.42Z"
            class="cls-2" />
        <path id="Caminho_46" data-name="Caminho 46"
            d="M341.77,419.7V394.31c0-5.46,1.24-6.18,5.92-3.49a145.93,145.93,0,0,0,45.17,16.1,140.42,140.42,0,0,0,32.53,2.76,55.84,55.84,0,0,0,19.66-3.39,22.9,22.9,0,0,0,6.06-3.45,13.54,13.54,0,0,0,1.74-19.06l-.67-.75a41,41,0,0,0-14.77-10c-9.15-3.95-18.43-7.58-27.65-11.34A166.16,166.16,0,0,1,371,340.39,68,68,0,0,1,344,299.61a72.79,72.79,0,0,1,33.4-77.68,102.46,102.46,0,0,1,40.19-14,212.28,212.28,0,0,1,40.09-1,160.88,160.88,0,0,1,37.15,5.41c3.8,1.11,7.55,2.53,11.33,3.77a5.79,5.79,0,0,1,4.18,5.49c.09,1,.09,1.91.09,2.82V272c0,5-2.63,6.56-7.38,4.56-5.4-2.28-10.73-4.73-16.24-6.71a148.14,148.14,0,0,0-28.06-6.23,123.54,123.54,0,0,0-25.63-1.29,74.8,74.8,0,0,0-14.87,2.43,14,14,0,0,0-10.81,12.5,13.35,13.35,0,0,0,3.76,10.95A33.94,33.94,0,0,0,421.49,296a232.74,232.74,0,0,0,27.32,12.11A205.13,205.13,0,0,1,492,329.34a65.74,65.74,0,0,1,27.45,33.4A71.07,71.07,0,0,1,523,394.69c-3.27,29.6-19.51,49.57-46.31,61.42a111.86,111.86,0,0,1-39.14,9.27,292.19,292.19,0,0,1-31.32.51,169.08,169.08,0,0,1-55.58-11.22c-1.19-.48-2.35-1.07-3.55-1.53a7.55,7.55,0,0,1-5.33-8.09C341.91,436.63,341.77,428.16,341.77,419.7Z"
            class="cls-2" />
    </g>
</svg>