<svg id="Camada_1" data-name="Camada 1" xmlns="http://www.w3.org/2000/svg" viewBox="0 0 595.28 595.28">
    <title>SVG_corretos_site</title>
    <rect id="Retângulo_27" data-name="Retângulo 27" width="595.28" height="595.28" class="cls-1" />
    <g id="Grupo_34" data-name="Grupo 34">
        <path id="Caminho_55" data-name="Caminho 55"
            d="M461.76,189.4c11.42,14.83,25.93,28.22,33.7,44.77,24.26,51.72,25.44,105.76,8.88,160.19-5.81,19.11-18.55,33.2-34.34,45.07-24.1,18.15-47.79,36.86-71.83,55.11-22.32,16.94-48.86,22.35-75.69,24.94-41.22,4-81.35.78-116.87-24.42-8.54-6.06-19-9.26-27.93-14.9-18.61-11.84-37.22-23.79-55-36.86-35.62-26.22-48.7-61.41-40.52-105,5.38-28.78,8.68-58,14.48-86.66a108.6,108.6,0,0,1,13.87-34.29A277.34,277.34,0,0,1,255.1,101a153,153,0,0,1,129.55,10,44.37,44.37,0,0,1,9.3,10.13l-2.48,3.37c-3.25-1.1-6.46-2.38-9.75-3.27-15.92-4.42-31.83-12.34-47.8-12.49C260.18,108.07,204.05,144,158,198.55a29.32,29.32,0,0,0-5.89,11.39c-8.94,35.34-19.11,70.46-26,106.22A125.37,125.37,0,0,0,224,461.28a120.69,120.69,0,0,1,32.69,10.4C295,492.47,333.85,492,373.45,477.3a439,439,0,0,0,43.77-18.38c69.22-34.53,90.08-74.64,81.52-151.27-4-35.51-12.24-68.92-33.82-98.12A84.72,84.72,0,0,1,458,196.91a14.12,14.12,0,0,1-.71-3.92Z"
            class="cls-2" />
        <path id="Caminho_56" data-name="Caminho 56"
            d="M480.4,328c-1.4,17.34-13.9,35.71-27.84,39.29-15.48,4-29.3-3.92-38.95-22.25-12.26-23.3-12.07-37.8.67-50.77,19.77-20.12,46.44-16.2,58.87,9.27A149.68,149.68,0,0,1,480.4,328Z"
            class="cls-2" />
        <path id="Caminho_57" data-name="Caminho 57"
            d="M191.31,317.63c-16.71-.38-32.9-19.43-32.05-37.71.71-15.53,18-30.07,35.12-29.63,17.6.44,29.29,13.61,28.76,32.39C222.61,301,207.14,318,191.31,317.63Z"
            class="cls-2" />
        <path id="Caminho_58" data-name="Caminho 58"
            d="M331.16,411.42c1.42.08,2.85.05,4.28.26,11.71,1.73,21.37,7,24.37,18.94a15.63,15.63,0,0,1-5.32,13.08c-9.87,7.24-21.94,12.88-32.94,4.26-8.37-6.55-13.94-16.65-20.75-25.21l29.08-14.18Z"
            class="cls-2" />
    </g>
</svg>