<svg id="Camada_1" data-name="Camada 1" xmlns="http://www.w3.org/2000/svg" viewBox="0 0 595.28 595.28">
    <title>SVG_corretos_site</title>
    <rect id="Retângulo_29" data-name="Retângulo 29" width="595.28" height="595.28" class="cls-1" />
    <g id="Grupo_35" data-name="Grupo 35">
        <path id="Caminho_59" data-name="Caminho 59"
            d="M469.34,228.17V143.93c0-5.79,0-5.82,5.77-5.82h50.77c.83,0,1.68,0,2.52,0a2.19,2.19,0,0,1,2.23,2.17v0c.11,1.15.07,2.31.07,3.47q0,127.07.07,254.13c0,11.33.85,22.67,1.31,34,0,1.05,0,2.1.12,3.14a4.72,4.72,0,0,1-3.52,5.28c-6.93,2.43-13.76,5.18-20.78,7.32a217.7,217.7,0,0,1-45.12,8.4,191.17,191.17,0,0,1-34,.48c-23.42-2.2-45.43-8.57-64.28-23.25A95,95,0,0,1,329.26,376a137.9,137.9,0,0,1-1.83-50.13A111.49,111.49,0,0,1,379.2,247a119.93,119.93,0,0,1,47.26-17.36A167.66,167.66,0,0,1,467,228.15C467.59,228.22,468.19,228.17,469.34,228.17Zm-.19,52.49c-.74-.24-1.43-.52-2.1-.68a68.91,68.91,0,0,0-18.79-1.3A64.24,64.24,0,0,0,412.77,291a52.59,52.59,0,0,0-21.86,31.34,82.51,82.51,0,0,0,2.47,47.16,48.33,48.33,0,0,0,24,28,58.1,58.1,0,0,0,23.27,6.21c7.22.38,14.48.1,21.71-.11a43.57,43.57,0,0,0,6.82-1.26Z"
            class="cls-2" />
        <path id="Caminho_60" data-name="Caminho 60"
            d="M63.43,451.76a4.82,4.82,0,0,1,1-5.06q8.5-14,17.06-28,32.89-54,65.82-107.91c.65-1.07,1.28-2.17,2-3.42-.72-1.26-1.43-2.54-2.17-3.81Q107,235.43,66.72,167.32c-.27-.45-.55-.9-.8-1.36-1.53-2.73-1-3.81,2.27-3.83,6.41-.07,12.85,0,19.23,0h40.36c1.16,0,2.31.05,3.47,0a6.45,6.45,0,0,1,6.36,4.25c3,6.47,5.89,13,9.3,19.3,9.68,17.81,19.66,35.46,29.4,53.25,5.19,9.51,10.11,19.12,15.17,28.7.51,1,1.05,2,1.79,3.32a18.68,18.68,0,0,0,1.43-2.08C211,234.73,230.07,202,247.5,168.44c.58-1.12,1.21-2.22,1.68-3.38a4.14,4.14,0,0,1,4.39-2.86c2.85.06,5.68,0,8.51,0H311.9c3.26.12,4,1.38,2.32,4.13l-17.34,28.56q-31.61,52.17-63.26,104.3a5.51,5.51,0,0,0-.06,6.72q42.54,69.49,84.87,139.12a30.77,30.77,0,0,1,2,3.91,6.29,6.29,0,0,1,0,2c-1.06.07-2,.18-2.89.18q-31.69,0-63.38,0c-1,0-1.9-.1-2.85-.11a7.72,7.72,0,0,1-7.33-4.94C227.17,412,208.72,378.77,190.2,345.55c-.45-.8-1-1.55-1.73-2.71-.67,1.08-1.19,1.81-1.6,2.59q-27.15,50.91-54.23,101.8a7.62,7.62,0,0,1-7.74,4.52c-17.87-.11-35.74,0-53.61,0C68.63,451.79,66,451.77,63.43,451.76Z"
            class="cls-2" />
    </g>
</svg>