<svg id="cunha_leao" data-name="Camada 1" xmlns="http://www.w3.org/2000/svg" viewBox="0 0 595.28 595.28">
    <defs>
        <style>
            svg#cunha_leao .cls-s2 {
                fill: none;
                stroke-miterlimit: 10;
            }
            svg#cunha_leao .sw1 {
                stroke-width: 12.05px;
            }
            svg#cunha_leao .sw2 {
                stroke-width: 12.43px;
            }
        </style>
    </defs>
    <title>SVG_corretos_site</title>
    <rect id="Ret창ngulo_16" data-name="Ret창ngulo 16" class="cls-1" width="595.28" height="595.28" />
    <path id="Caminho_12" data-name="Caminho 12" class="cls-s2 sw1"
        d="M327.1,286.07H269.27l-34.91-34.91L194,162.8l-30.54-43.63,63.27-48,69.81,39.27,72-39.27,63.26,48L401.26,162.8c-13.82,29.82-27.64,58.54-41.46,88.36C348.91,262.43,338,274.8,327.1,286.07Z" />
    <line id="Linha_7" data-name="Linha 7" class="cls-s2 sw1" x1="194" y1="162.8" x2="401.26" y2="162.8" />
    <path id="Caminho_13" data-name="Caminho 13" class="cls-s2 sw1"
        d="M194,162.78l-39.26,87.27,144,161.45L440.54,250.05l-39.27-87.27" />
    <line id="Linha_8" data-name="Linha 8" class="cls-s2 sw2" x1="237.64" y1="162.8" x2="237.64" y2="255.53" />
    <line id="Linha_9" data-name="Linha 9" class="cls-s2 sw2" x1="355.44" y1="162.8" x2="355.44" y2="255.53" />
    <path id="Caminho_14" data-name="Caminho 14" class="cls-2" d="M302,283.89h-8.73l-38.18-36h85.09Z" />
    <g id="Cunha_Le찾o" data-name="Cunha Le찾o" class="cls-is">
        <g class="cls-is">
            <path class="cls-2"
                d="M154,482.65a56.33,56.33,0,0,0-8.08-3.29,26.47,26.47,0,0,0-8-1.22,16.66,16.66,0,0,0-6.65,1.32,16.08,16.08,0,0,0-5.33,3.69,17.32,17.32,0,0,0-3.54,5.57,19.66,19.66,0,0,0,0,14,16.16,16.16,0,0,0,3.58,5.51,15.92,15.92,0,0,0,5.47,3.57,18.36,18.36,0,0,0,7,1.29,28.54,28.54,0,0,0,3.39-.21,31.2,31.2,0,0,0,3.79-.75c1.36-.36,2.82-.84,4.4-1.43a57.11,57.11,0,0,0,5.22-2.33l3.07,8.3a40.75,40.75,0,0,1-10.62,4,45.69,45.69,0,0,1-9.18,1,29.64,29.64,0,0,1-10.94-2,26,26,0,0,1-8.65-5.47,25.22,25.22,0,0,1-7.79-18.51,24.72,24.72,0,0,1,2.25-10.65,26,26,0,0,1,6-8.23,28,28,0,0,1,18.77-7.22,43.31,43.31,0,0,1,9.15,1A53.2,53.2,0,0,1,158,474.42Z" />
            <path class="cls-2"
                d="M189.19,520.39a26.2,26.2,0,0,1-4.62,1.18,30.22,30.22,0,0,1-5.18.47,19.38,19.38,0,0,1-5.15-.75,14.9,14.9,0,0,1-5-2.51,13.52,13.52,0,0,1-5.39-11.4v-21h9.36v20.95a6.22,6.22,0,0,0,.57,2.75,5.49,5.49,0,0,0,1.5,1.93,6.75,6.75,0,0,0,2.11,1.15,7.39,7.39,0,0,0,2.33.39,23.48,23.48,0,0,0,3.79-.25,7.61,7.61,0,0,0,2.78-1V486.36h9.44v38.39Z" />
            <path class="cls-2"
                d="M210.13,487.15a31.92,31.92,0,0,1,4.72-1.29,29.17,29.17,0,0,1,5.51-.5q6.57,0,10.54,3.68t4,11.26v20.95h-9.3V501.52a9.33,9.33,0,0,0-1.57-5.86,5,5,0,0,0-4.14-2,15.49,15.49,0,0,0-6.8,1.22v26.38h-9.29V483.86l6.36,3.43Z" />
            <path class="cls-2"
                d="M251.88,486.79q1.44-.5,3.15-.93a15.92,15.92,0,0,1,3.79-.43,16.79,16.79,0,0,1,5.68.93,12.25,12.25,0,0,1,4.51,2.79,12.85,12.85,0,0,1,3,4.65,17.72,17.72,0,0,1,1.08,6.43v21h-9.3V501.52a10.32,10.32,0,0,0-1.36-5.72,4.6,4.6,0,0,0-4.14-2.07,9.83,9.83,0,0,0-3.43.5,17.83,17.83,0,0,0-2.94,1.43v25.59h-9.29v-49.4l9.29-3.86Z" />
            <path class="cls-2"
                d="M300.07,520.68c-.43.09-1,.2-1.79.32s-1.58.23-2.46.32-1.78.17-2.68.22-1.74.07-2.51.07a9.89,9.89,0,0,1-4.39-1,12.3,12.3,0,0,1-3.58-2.65,13.32,13.32,0,0,1-2.43-3.64,9.88,9.88,0,0,1-.89-4.08,11.45,11.45,0,0,1,1.71-6.58,12.15,12.15,0,0,1,4.36-3.89,17.56,17.56,0,0,1,5.9-1.83,49.46,49.46,0,0,1,6.33-.42V496a2.73,2.73,0,0,0-1-2.14,3.78,3.78,0,0,0-2.61-.86,18.25,18.25,0,0,0-5.11.82,17.19,17.19,0,0,0-5.25,2.68l-3.79-7.5a24,24,0,0,1,7.9-3.18,38.88,38.88,0,0,1,7.33-.75,17.19,17.19,0,0,1,3.82.46,11.78,11.78,0,0,1,3.83,1.64,9.4,9.4,0,0,1,3,3.22,10.22,10.22,0,0,1,1.18,5.19V523Zm-2.43-15.44a28.3,28.3,0,0,0-3.22.18,9.88,9.88,0,0,0-2.82.71,4.77,4.77,0,0,0-2,1.54,4.17,4.17,0,0,0-.75,2.57,3.83,3.83,0,0,0,.82,2.47,2.5,2.5,0,0,0,2,1c.47,0,1,0,1.6-.07s1.17-.1,1.72-.18,1.06-.15,1.54-.25a6.86,6.86,0,0,0,1.07-.28Z" />
            <path class="cls-2" d="M350.83,513h20.23l3.58,8.15H341.11V470.56h9.72Z" />
            <path class="cls-2"
                d="M386.79,505.74a6.45,6.45,0,0,0,.61,3.14,7.42,7.42,0,0,0,1.93,2.51,8.77,8.77,0,0,0,3,1.64,11.79,11.79,0,0,0,3.72.57,11.06,11.06,0,0,0,4.86-1.07,20.57,20.57,0,0,0,4.58-3.15l4.07,7.15a27.43,27.43,0,0,1-6.54,3.9A19.47,19.47,0,0,1,395.3,522a19.71,19.71,0,0,1-7.55-1.4,16.9,16.9,0,0,1-5.79-3.86,17.38,17.38,0,0,1-3.71-5.86,20.26,20.26,0,0,1-1.33-7.47,20.57,20.57,0,0,1,1.25-7.26,16.71,16.71,0,0,1,3.51-5.68,15.53,15.53,0,0,1,5.47-3.68,18.26,18.26,0,0,1,7.08-1.33,15.31,15.31,0,0,1,5.61,1.11,13.88,13.88,0,0,1,5.11,3.58,18.91,18.91,0,0,1,3.72,6.32,27,27,0,0,1,1.43,9.3Zm12.73-7.37a7.64,7.64,0,0,0-2-3.43,5.11,5.11,0,0,0-3.83-1.5,6,6,0,0,0-4,1.39,7.75,7.75,0,0,0-2.36,3.54Z" />
            <path class="cls-2"
                d="M435.48,520.68c-.43.09-1,.2-1.79.32s-1.59.23-2.47.32-1.77.17-2.68.22-1.74.07-2.5.07a10,10,0,0,1-4.4-1,12.13,12.13,0,0,1-3.57-2.65,12.88,12.88,0,0,1-2.43-3.64,9.9,9.9,0,0,1-.9-4.08,11.38,11.38,0,0,1,1.72-6.58,12.07,12.07,0,0,1,4.36-3.89,17.49,17.49,0,0,1,5.9-1.83,49.43,49.43,0,0,1,6.32-.42V496a2.76,2.76,0,0,0-1-2.14,3.78,3.78,0,0,0-2.61-.86,18.2,18.2,0,0,0-5.11.82,17.13,17.13,0,0,0-5.26,2.68l-3.79-7.5a24.1,24.1,0,0,1,7.9-3.18,38.88,38.88,0,0,1,7.33-.75,17.28,17.28,0,0,1,3.83.46,11.64,11.64,0,0,1,3.82,1.64,9.52,9.52,0,0,1,3,3.22,10.22,10.22,0,0,1,1.18,5.19V523Zm8-51.55a37.42,37.42,0,0,1-.14,3.76,11.75,11.75,0,0,1-.43,2.28,6.28,6.28,0,0,1-.71,1.54q-.43.65-1.08,1.5a8.23,8.23,0,0,1-6.29,2.5,8.89,8.89,0,0,1-2.86-.5c-1-.33-2-.69-3-1.07s-2-.75-3-1.11a7.27,7.27,0,0,0-2.54-.53c-.28,0-.56.33-.82,1a2.36,2.36,0,0,0,.4,2.21h-7.73q0-5.56,2-8.57t6.69-3a12.38,12.38,0,0,1,3.43.5,29.35,29.35,0,0,1,3.36,1.22l2.29,1.07a4.91,4.91,0,0,0,2.07.5c.24,0,.42-.33.54-1a6.06,6.06,0,0,0-.11-2.29ZM433,505.24a28.25,28.25,0,0,0-3.21.18,10,10,0,0,0-2.83.71,4.83,4.83,0,0,0-2,1.54,4.17,4.17,0,0,0-.75,2.57,3.83,3.83,0,0,0,.82,2.47,2.51,2.51,0,0,0,2,1c.48,0,1,0,1.61-.07s1.17-.1,1.72-.18,1.06-.15,1.53-.25A6.28,6.28,0,0,0,433,513Z" />
            <path class="cls-2"
                d="M484.59,511.1a17.5,17.5,0,0,1-9.79,9.61,19.41,19.41,0,0,1-7.37,1.4,18.83,18.83,0,0,1-7.29-1.4,18.23,18.23,0,0,1-5.86-3.82,17.47,17.47,0,0,1-3.93-5.79A18.21,18.21,0,0,1,460.14,487a18.82,18.82,0,0,1,7.29-1.39A19.41,19.41,0,0,1,474.8,487a17.67,17.67,0,0,1,5.89,3.86,18.74,18.74,0,0,1,3.9,20.27Zm-8.9-11.19a9.61,9.61,0,0,0-1.9-3.15,9.36,9.36,0,0,0-2.82-2.1,7.86,7.86,0,0,0-3.54-.79,8.3,8.3,0,0,0-3.5.75,8.48,8.48,0,0,0-2.86,2.11,10,10,0,0,0-1.9,3.18,12.1,12.1,0,0,0,0,7.94,9.29,9.29,0,0,0,1.9,3.11,9.13,9.13,0,0,0,2.86,2,8.64,8.64,0,0,0,7,0,9.31,9.31,0,0,0,2.82-2,9.13,9.13,0,0,0,1.9-3.11,11.93,11.93,0,0,0,0-7.94Z" />
        </g>
    </g>
</svg>