<svg id="cunha_leao_hex" data-name="Camada 1" xmlns="http://www.w3.org/2000/svg" viewBox="0 0 595.28 595.28">
    <defs>
        <style>
            .sw1,
            .sw2 {
                fill: none;
                stroke-miterlimit: 10;
            }
            .sw1 {
                stroke-width: 18.2px;
            }

            .sw2 {
                stroke-width: 7.58px;
            }

            .sw3 {
                stroke-width: 3.03px;
            }
        </style>
    </defs>
    <title>SVG_corretos_site</title>
    <g id="Grupo_39" data-name="Grupo 39">
        <g id="Grupo_37" data-name="Grupo 37">
            <path id="Caminho_61" data-name="Caminho 61" class="cls-1"
                d="M74.16,169.76V427L296.91,555.58,519.66,427V169.76L296.91,41.16Z" />
        </g>
        <path id="Caminho_62" data-name="Caminho 62" class="cls-s1 sw1"
            d="M50.17,155.91V440.82L296.91,583.27,543.65,440.82V155.91L296.91,13.46Z" />
    </g>
    <g id="Grupo_41" data-name="Grupo 41">
        <path id="Caminho_65" data-name="Caminho 65" class="cls-s1 sw2"
            d="M319,282H275.62q-13.1-13.09-26.2-26.2l-30.3-66.32-22.93-32.76,47.49-36,52.41,29.48,54-29.48,47.49,36-22.93,32.75c-10.37,22.38-20.74,43.94-31.11,66.32C335.4,264.21,327.21,273.49,319,282Z" />
        <line id="Linha_11" data-name="Linha 11" class="cls-s1 sw2" x1="219.12" y1="189.43" x2="374.7" y2="189.43" />
        <path id="Caminho_66" data-name="Caminho 66" class="cls-s1 sw2"
            d="M219.12,189.42l-29.48,65.51L297.73,376.11,404.17,254.93q-14.73-32.76-29.47-65.51" />
        <line id="Linha_12" data-name="Linha 12" class="cls-s1 sw2" x1="251.87" y1="189.43" x2="251.87" y2="259.03" />
        <line id="Linha_13" data-name="Linha 13" class="cls-s1 sw2" x1="340.31" y1="189.43" x2="340.31" y2="259.03" />
        <path id="Caminho_67" data-name="Caminho 67" class="cls-4 cls-s1 sw3" d="M300.18,280.32h-6.55L265,253.3h63.86Z" />
        <g id="Cunha_Leão" data-name="Cunha Leão" class="cls-is">
            <g class="cls-is">
                <path class="cls-4"
                    d="M184.42,411.76a46.49,46.49,0,0,0-6.34-2.58,20.71,20.71,0,0,0-6.29-.95,13.11,13.11,0,0,0-5.22,1,12.88,12.88,0,0,0-4.18,2.89,13.76,13.76,0,0,0-2.78,4.38,15.48,15.48,0,0,0,0,11,12.48,12.48,0,0,0,7.11,7.13,14.47,14.47,0,0,0,5.47,1,20.33,20.33,0,0,0,2.66-.17,22.33,22.33,0,0,0,3-.59,34.16,34.16,0,0,0,3.45-1.12c1.23-.47,2.6-1.07,4.1-1.82l2.41,6.51a31.82,31.82,0,0,1-8.33,3.14,36.51,36.51,0,0,1-7.22.79,23.21,23.21,0,0,1-8.58-1.55,20.61,20.61,0,0,1-6.8-4.29,20.21,20.21,0,0,1-4.49-6.46,19.9,19.9,0,0,1-1.62-8.08,19.38,19.38,0,0,1,1.77-8.36,20.21,20.21,0,0,1,4.71-6.45A21.58,21.58,0,0,1,164,403a21.8,21.8,0,0,1,8-1.48,34.22,34.22,0,0,1,7.19.81,42.09,42.09,0,0,1,8.42,2.95Z" />
                <path class="cls-4"
                    d="M212,441.4a20.88,20.88,0,0,1-3.62.92,24.24,24.24,0,0,1-4.07.37,15.24,15.24,0,0,1-4-.59,11.68,11.68,0,0,1-4-2,10.64,10.64,0,0,1-4.24-8.95v-16.5h7.35v16.44a4.92,4.92,0,0,0,.45,2.17,4.34,4.34,0,0,0,1.18,1.51,5.44,5.44,0,0,0,1.66.9,5.57,5.57,0,0,0,1.82.31,18.76,18.76,0,0,0,3-.2,6.05,6.05,0,0,0,2.18-.81V414.68h7.41v30.14Z" />
                <path class="cls-4"
                    d="M228.48,415.3a24.21,24.21,0,0,1,3.7-1,22.84,22.84,0,0,1,4.33-.4,11.73,11.73,0,0,1,8.28,2.89q3.11,2.89,3.11,8.84v16.45h-7.3V426.58a7.33,7.33,0,0,0-1.23-4.6,3.94,3.94,0,0,0-3.26-1.58,12.06,12.06,0,0,0-5.33,1v20.71h-7.29V412.72l5,2.69Z" />
                <path class="cls-4"
                    d="M261.26,415c.75-.26,1.57-.51,2.47-.73a12,12,0,0,1,3-.34,13.08,13.08,0,0,1,4.46.73,9.61,9.61,0,0,1,3.54,2.19,10.09,10.09,0,0,1,2.33,3.65,14,14,0,0,1,.84,5.05v16.5h-7.3V426.58a8.13,8.13,0,0,0-1.06-4.49,3.62,3.62,0,0,0-3.26-1.63,7.93,7.93,0,0,0-2.69.39,14.68,14.68,0,0,0-2.3,1.13v20.09H254V403.29l7.3-3Z" />
                <path class="cls-4"
                    d="M299.09,441.62c-.34.07-.81.16-1.41.25s-1.24.18-1.93.26-1.4.13-2.11.16-1.36.06-2,.06a7.6,7.6,0,0,1-3.45-.79,9.44,9.44,0,0,1-2.81-2.07,10.37,10.37,0,0,1-1.91-2.86,7.77,7.77,0,0,1-.7-3.2,9,9,0,0,1,1.35-5.17,9.47,9.47,0,0,1,3.42-3.06,13.78,13.78,0,0,1,4.63-1.43,38.76,38.76,0,0,1,5-.33v-1.18a2.15,2.15,0,0,0-.76-1.69,3,3,0,0,0-2.05-.67,14.11,14.11,0,0,0-4,.65,13.34,13.34,0,0,0-4.13,2.1l-3-5.89a18.8,18.8,0,0,1,6.2-2.5,30.75,30.75,0,0,1,5.75-.59,13.77,13.77,0,0,1,3,.36,9.27,9.27,0,0,1,3,1.3,7.37,7.37,0,0,1,2.33,2.52,8,8,0,0,1,.92,4.07v21.5Zm-1.91-12.12a21,21,0,0,0-2.53.14,7.7,7.7,0,0,0-2.21.56,3.77,3.77,0,0,0-1.58,1.21,3.27,3.27,0,0,0-.59,2,3,3,0,0,0,.65,1.93,2,2,0,0,0,1.6.82q.56,0,1.26-.06c.47,0,.92-.08,1.35-.14s.83-.12,1.21-.2a5.4,5.4,0,0,0,.84-.22Z" />
                <path class="cls-4" d="M338.93,435.56h15.89l2.8,6.4H331.3V402.28h7.63Z" />
                <path class="cls-4"
                    d="M367.17,429.89a5.2,5.2,0,0,0,.47,2.47,5.87,5.87,0,0,0,1.52,2,6.7,6.7,0,0,0,2.33,1.3,9.17,9.17,0,0,0,2.92.44,8.65,8.65,0,0,0,3.81-.84,16,16,0,0,0,3.59-2.47l3.2,5.62a21.55,21.55,0,0,1-5.13,3.05,15.14,15.14,0,0,1-6,1.21,15.47,15.47,0,0,1-5.93-1.09,13.3,13.3,0,0,1-4.54-3,13.58,13.58,0,0,1-2.92-4.61,17,17,0,0,1-.06-11.56,13,13,0,0,1,2.75-4.46,12.21,12.21,0,0,1,4.3-2.89,14.47,14.47,0,0,1,5.55-1,12,12,0,0,1,4.41.87,10.9,10.9,0,0,1,4,2.81,14.67,14.67,0,0,1,2.92,5,21.06,21.06,0,0,1,1.12,7.3Zm10-5.78a6,6,0,0,0-1.55-2.69,4,4,0,0,0-3-1.18,4.69,4.69,0,0,0-3.14,1.09,6.17,6.17,0,0,0-1.86,2.78Z" />
                <path class="cls-4"
                    d="M405.39,441.62c-.34.07-.81.16-1.41.25s-1.24.18-1.93.26-1.4.13-2.11.16-1.36.06-2,.06a7.6,7.6,0,0,1-3.45-.79,9.44,9.44,0,0,1-2.81-2.07,10.6,10.6,0,0,1-1.91-2.86,7.77,7.77,0,0,1-.7-3.2,9,9,0,0,1,1.35-5.17,9.47,9.47,0,0,1,3.42-3.06,13.85,13.85,0,0,1,4.63-1.43,38.76,38.76,0,0,1,5-.33v-1.18a2.15,2.15,0,0,0-.76-1.69,3,3,0,0,0-2.05-.67,14.11,14.11,0,0,0-4,.65,13.34,13.34,0,0,0-4.13,2.1l-3-5.89a18.8,18.8,0,0,1,6.2-2.5,30.75,30.75,0,0,1,5.75-.59,13.77,13.77,0,0,1,3,.36,9.27,9.27,0,0,1,3,1.3,7.37,7.37,0,0,1,2.33,2.52,8,8,0,0,1,.92,4.07v21.5Zm6.28-40.47a28.89,28.89,0,0,1-.11,3,8.76,8.76,0,0,1-.34,1.8,4.6,4.6,0,0,1-.56,1.2c-.22.34-.5.73-.84,1.18a6.46,6.46,0,0,1-4.94,2,6.85,6.85,0,0,1-2.24-.4c-.79-.26-1.58-.54-2.36-.84l-2.33-.87a5.6,5.6,0,0,0-2-.42c-.23,0-.44.26-.65.79a1.89,1.89,0,0,0,.31,1.74h-6.06a11.93,11.93,0,0,1,1.6-6.74q1.59-2.36,5.25-2.36a9.63,9.63,0,0,1,2.69.4,22.44,22.44,0,0,1,2.64.95l1.79.84a3.94,3.94,0,0,0,1.63.4c.19,0,.33-.27.42-.79a4.48,4.48,0,0,0-.08-1.8Zm-8.19,28.35a21.1,21.1,0,0,0-2.53.14,7.7,7.7,0,0,0-2.21.56,3.77,3.77,0,0,0-1.58,1.21,3.27,3.27,0,0,0-.58,2,3,3,0,0,0,.64,1.93,2,2,0,0,0,1.6.82q.56,0,1.26-.06c.47,0,.92-.08,1.35-.14s.83-.12,1.21-.2a5.4,5.4,0,0,0,.84-.22Z" />
                <path class="cls-4"
                    d="M443.94,434.1a14,14,0,0,1-3.05,4.55,14.12,14.12,0,0,1-4.63,3,15.26,15.26,0,0,1-5.79,1.09,14.79,14.79,0,0,1-5.72-1.09,14.53,14.53,0,0,1-4.6-3,13.89,13.89,0,0,1-3.09-4.55,14.3,14.3,0,0,1,7.69-18.94,14.8,14.8,0,0,1,5.72-1.1,15.26,15.26,0,0,1,5.79,1.1,13.88,13.88,0,0,1,4.63,3,14.68,14.68,0,0,1,3.05,15.91Zm-7-8.78a7.37,7.37,0,0,0-3.71-4.13,6.27,6.27,0,0,0-2.78-.62,6.6,6.6,0,0,0-2.75.59,6.78,6.78,0,0,0-2.24,1.66,7.73,7.73,0,0,0-1.49,2.5,8.94,8.94,0,0,0-.53,3.11,9,9,0,0,0,.53,3.12,7,7,0,0,0,3.73,4,6.77,6.77,0,0,0,5.53,0,7.49,7.49,0,0,0,2.22-1.6,7.24,7.24,0,0,0,1.49-2.44,9,9,0,0,0,.53-3.12A8.94,8.94,0,0,0,437,425.32Z" />
            </g>
        </g>
    </g>
</svg>