<svg id="Camada_1" data-name="Camada 1" xmlns="http://www.w3.org/2000/svg" viewBox="0 0 595.28 595.28">
    <title>A</title>
    <path id="Caminho_61" data-name="Caminho 61" d="M74.89,169V426.24L297.64,554.85,520.39,426.24V169L297.64,40.43Z"
        class="cls-1" />
    <path
        d="M297.64,593.05,41.8,445.35V149.93L297.64,2.22,553.48,149.93V445.35ZM60,434.84,297.64,572l237.63-137.2V160.44L297.64,23.24,60,160.44Z"
        class="cls-4" />
    <g style="isolation:isolate">
        <path d="M182.91,428.82H172.27V436h10.6v4.56h-10.6v7.4h11.24L185,452.5h-18.2V424.18H185Z" class="cls-4" />
        <path d="M191.71,454.82l-4.84-4.64,4.72-4.88,4.88,4.6Z" class="cls-4" />
        <path
            d="M223.23,424.9l4.08-3V454.1l-5.44-2V435.22h0l-8,11L206,435.26h-.08v16.88l-5.44,2v-32l4.12,2.84,9.32,12.64Z"
            class="cls-4" />
        <path
            d="M237.23,443.9a3.82,3.82,0,0,0,.34,1.76,4.29,4.29,0,0,0,1.08,1.4,4.87,4.87,0,0,0,1.66.92,6.67,6.67,0,0,0,2.08.32,6.16,6.16,0,0,0,2.72-.6,11.64,11.64,0,0,0,2.56-1.76l2.28,4a15.55,15.55,0,0,1-3.66,2.18,11.48,11.48,0,0,1-8.52.08,9.4,9.4,0,0,1-3.24-2.16,9.77,9.77,0,0,1-2.08-3.28,11.51,11.51,0,0,1-.74-4.18,11.35,11.35,0,0,1,.7-4.06,9.32,9.32,0,0,1,2-3.18,8.74,8.74,0,0,1,3.06-2.06,10.38,10.38,0,0,1,4-.74,8.6,8.6,0,0,1,3.14.62,7.72,7.72,0,0,1,2.86,2,10.49,10.49,0,0,1,2.08,3.54,15.08,15.08,0,0,1,.8,5.2Zm7.12-4.12a4.24,4.24,0,0,0-1.1-1.92,2.85,2.85,0,0,0-2.14-.84,3.34,3.34,0,0,0-2.24.78,4.39,4.39,0,0,0-1.32,2Z"
            class="cls-4" />
        <path
            d="M260.19,433.06h4.72v4.32h-4.72v8.36a12.51,12.51,0,0,0,.1,1.94.64.64,0,0,0,.7.58,3.92,3.92,0,0,0,1.52-.3c.48-.2,1-.48,1.68-.82l2,4.08c-.43.21-.9.43-1.42.64s-1,.4-1.56.56-1,.28-1.48.38a6.51,6.51,0,0,1-1.18.14,6.93,6.93,0,0,1-2-.3,5.29,5.29,0,0,1-1.78-.92,4.74,4.74,0,0,1-1.28-1.6,5.06,5.06,0,0,1-.5-2.3V437.38h-3.2v-4.32H255v-3.92l5.2-2.92Z"
            class="cls-4" />
        <path
            d="M279.11,452.26l-1,.18-1.38.18q-.74.08-1.5.12c-.51,0-1,0-1.4,0a5.55,5.55,0,0,1-2.46-.56,6.8,6.8,0,0,1-2-1.48,7.57,7.57,0,0,1-1.36-2,5.62,5.62,0,0,1-.5-2.28,6.38,6.38,0,0,1,1-3.68,6.72,6.72,0,0,1,2.44-2.18,9.8,9.8,0,0,1,3.3-1,27,27,0,0,1,3.54-.24v-.84a1.54,1.54,0,0,0-.54-1.2,2.12,2.12,0,0,0-1.46-.48,9.94,9.94,0,0,0-2.86.46,9.11,9.11,0,0,0-2.94,1.5l-2.12-4.2a13.37,13.37,0,0,1,4.42-1.78,21.7,21.7,0,0,1,4.1-.42,9.25,9.25,0,0,1,2.14.26,6.43,6.43,0,0,1,2.14.92,5.25,5.25,0,0,1,1.66,1.8,5.71,5.71,0,0,1,.66,2.9v15.32Zm-1.36-8.64a15.27,15.27,0,0,0-1.8.1,5.72,5.72,0,0,0-1.58.4,2.62,2.62,0,0,0-1.12.86,2.32,2.32,0,0,0-.42,1.44,2.15,2.15,0,0,0,.46,1.38,1.4,1.4,0,0,0,1.14.58c.27,0,.57,0,.9,0l1-.1c.31,0,.59-.09.86-.14a4.74,4.74,0,0,0,.6-.16Z"
            class="cls-4" />
        <path
            d="M293.45,432.88a10.38,10.38,0,0,1,2.82-.34,8.81,8.81,0,0,1,3.46.54,6.68,6.68,0,0,1,1.9,1.18,26.06,26.06,0,0,1,2.88-1.2,11,11,0,0,1,3.64-.52q3.72,0,5.5,2.2a8.93,8.93,0,0,1,1.78,5.8v12h-5.2v-11a7.61,7.61,0,0,0-.56-3.14,2.1,2.1,0,0,0-2.12-1.22,5.71,5.71,0,0,0-2,.32,6,6,0,0,0-1.6.92c0,.1.07.37.14.8a7.67,7.67,0,0,1,.1,1.24v12.08H299v-11a6.46,6.46,0,0,0-.66-3.38,2.24,2.24,0,0,0-2-1,6.06,6.06,0,0,0-1.94.26A12.43,12.43,0,0,0,293,438v14.6h-5.24v-21l3.6,2A20.75,20.75,0,0,1,293.45,432.88Z"
            class="cls-4" />
        <path
            d="M338.63,446.9a10,10,0,0,1-2.18,3.24,10.11,10.11,0,0,1-3.3,2.14,10.83,10.83,0,0,1-4.12.78,10.43,10.43,0,0,1-7.36-2.92,9.89,9.89,0,0,1-2.2-3.24,10.65,10.65,0,0,1,0-8.1,10.07,10.07,0,0,1,5.48-5.4,10.52,10.52,0,0,1,4.08-.78,10.83,10.83,0,0,1,4.12.78,9.85,9.85,0,0,1,3.3,2.16,10.49,10.49,0,0,1,2.18,11.34Zm-5-6.26a5.27,5.27,0,0,0-1.06-1.76A5.07,5.07,0,0,0,331,437.7a4.36,4.36,0,0,0-2-.44,4.66,4.66,0,0,0-2,.42,4.76,4.76,0,0,0-1.6,1.18,5.47,5.47,0,0,0-1.06,1.78,6.67,6.67,0,0,0,0,4.44,5,5,0,0,0,2.66,2.88,4.83,4.83,0,0,0,3.94,0,5,5,0,0,0,2.64-2.88,6.67,6.67,0,0,0,0-4.44Z"
            class="cls-4" />
        <path
            d="M353.83,438.66a5,5,0,0,0-1.48-1,3.76,3.76,0,0,0-1.56-.36,4.16,4.16,0,0,0-1.64.36,2.93,2.93,0,0,0-1.4,1.44v13.56h-5.24V432l3.24,2h.16a7.65,7.65,0,0,1,2.22-1.1,8.77,8.77,0,0,1,2.82-.46,9.84,9.84,0,0,1,3.06.44,6.51,6.51,0,0,1,2.38,1.32Z"
            class="cls-4" />
        <path
            d="M367.83,429.9a5.08,5.08,0,0,0-1.28-1.08,2.55,2.55,0,0,0-1.32-.4c-.64,0-1.07.43-1.28,1.3a13.86,13.86,0,0,0-.32,3.22v.64h4.08l-1,4.36h-3v14.64h-5.24V437.94h-2.48l1-4.36h1.48v-2c0-2.72.59-4.7,1.78-5.92a6.7,6.7,0,0,1,5.06-1.84,6.92,6.92,0,0,1,2.16.42,12.5,12.5,0,0,1,2.28,1Z"
            class="cls-4" />
        <path
            d="M389,446.9a10,10,0,0,1-2.18,3.24,10.11,10.11,0,0,1-3.3,2.14,10.83,10.83,0,0,1-4.12.78,10.43,10.43,0,0,1-7.36-2.92,9.89,9.89,0,0,1-2.2-3.24,10.65,10.65,0,0,1,0-8.1,10.07,10.07,0,0,1,5.48-5.4,10.52,10.52,0,0,1,4.08-.78,10.83,10.83,0,0,1,4.12.78,9.85,9.85,0,0,1,3.3,2.16A10.49,10.49,0,0,1,389,446.9Zm-5-6.26a5.27,5.27,0,0,0-1.06-1.76,5.07,5.07,0,0,0-1.58-1.18,4.36,4.36,0,0,0-2-.44,4.66,4.66,0,0,0-2,.42,4.76,4.76,0,0,0-1.6,1.18,5.47,5.47,0,0,0-1.06,1.78,6.67,6.67,0,0,0,0,4.44,5,5,0,0,0,2.66,2.88,4.83,4.83,0,0,0,3.94,0,5,5,0,0,0,2.64-2.88,6.67,6.67,0,0,0,0-4.44Z"
            class="cls-4" />
        <path
            d="M406,438.82a7.5,7.5,0,0,0-2.66-1.32,11,11,0,0,0-2.58-.32,4.15,4.15,0,0,0-1.9.44c-.58.29-.86.65-.86,1.08s.26.7.8.92a13.42,13.42,0,0,0,2,.58c.81.17,1.69.36,2.64.58a10.18,10.18,0,0,1,2.64,1,6.12,6.12,0,0,1,2,1.76,4.84,4.84,0,0,1,.8,2.9,5.55,5.55,0,0,1-.72,2.86,6.79,6.79,0,0,1-1.9,2.06,8.5,8.5,0,0,1-2.72,1.26,12.2,12.2,0,0,1-3.22.42,15.44,15.44,0,0,1-8-2.4l2-4.08a28,28,0,0,0,3.36,1.38,9.43,9.43,0,0,0,2.92.46,4.12,4.12,0,0,0,2.08-.52,1.63,1.63,0,0,0,.92-1.48c0-.35-.27-.62-.8-.82a14.4,14.4,0,0,0-2-.56c-.81-.17-1.7-.38-2.64-.6a10.84,10.84,0,0,1-2.64-1,6.07,6.07,0,0,1-2-1.74,5,5,0,0,1-.14-5.22,6.68,6.68,0,0,1,1.8-2,8.91,8.91,0,0,1,2.64-1.36,10,10,0,0,1,3.14-.5,15.39,15.39,0,0,1,3.76.5,10.55,10.55,0,0,1,3.6,1.66Z"
            class="cls-4" />
        <path
            d="M417,443.9a3.58,3.58,0,0,0,.34,1.76,4.16,4.16,0,0,0,1.08,1.4,4.87,4.87,0,0,0,1.66.92,6.62,6.62,0,0,0,2.08.32,6.16,6.16,0,0,0,2.72-.6,11.64,11.64,0,0,0,2.56-1.76l2.28,4a15.55,15.55,0,0,1-3.66,2.18,11.48,11.48,0,0,1-8.52.08,9.4,9.4,0,0,1-3.24-2.16,9.77,9.77,0,0,1-2.08-3.28,11.51,11.51,0,0,1-.74-4.18,11.35,11.35,0,0,1,.7-4.06,9.32,9.32,0,0,1,2-3.18,8.74,8.74,0,0,1,3.06-2.06,10.38,10.38,0,0,1,4-.74,8.64,8.64,0,0,1,3.14.62,7.72,7.72,0,0,1,2.86,2,10.49,10.49,0,0,1,2.08,3.54,15.08,15.08,0,0,1,.8,5.2Zm7.12-4.12a4.24,4.24,0,0,0-1.1-1.92,2.86,2.86,0,0,0-2.14-.84,3.34,3.34,0,0,0-2.24.78,4.31,4.31,0,0,0-1.32,2Z"
            class="cls-4" />
    </g>
    <path
        d="M446.25,360.68c-17.14,10.15-34.74,19.2-54.87,21.78-12.65,1.62-24.65-.86-35-8.08-9.54-6.63-18.44-14.24-27.24-21.85-8.14-7-15.46-15-23.76-21.87-5.64-4.64-12.34-8-19.2-12.34A49.36,49.36,0,0,1,292,313a78.67,78.67,0,0,1,32.59-13.08c11.79-1.81,22.71,2.26,31.85,9.4,14.25,11.12,28.17,22.72,41.62,34.8,13.14,11.81,28,17.37,45.55,15.64a24.18,24.18,0,0,1,2.69,0Z"
        class="cls-4" />
    <path
        d="M242.32,99c2.77,2.46,5.62,4.84,8.31,7.38,12,11.34,23.84,22.71,32.25,37.16,12.38,21.28,11.31,43.54,4.49,65.94-4.72,15.55-10.31,30.86-16,46.07-4.31,11.48-6.22,23-4.06,35.15.23,1.29.26,2.62.42,4.43-10.75-2.63-19.14-8-25.13-17-6.56-9.77-8.73-20.89-9.22-32.35-.9-21,3.53-41.29,8.34-61.54,3.14-13.2,6.28-26.42,8.78-39.76,2.73-14.59.59-28.57-7.51-41.34a35.86,35.86,0,0,1-1.69-3.4Z"
        class="cls-4" />
    <path
        d="M326.65,186.54a12.13,12.13,0,0,1,1.27,2.65c1.48,6.85,3.19,13.67,4.22,20.59,3.31,22.11-3.7,40.93-18.88,57-7.61,8.05-15.44,15.91-22.74,24.22-4.3,4.9-7.77,10.53-11.82,16.11a43.75,43.75,0,0,1-6.76-20.37c-.92-13.2,3.54-24.86,11.54-35,6.86-8.66,14.71-16.53,22-24.85,3.84-4.39,7.61-8.86,11.07-13.54a45,45,0,0,0,8.94-26.78Z"
        class="cls-4" />
    <path
        d="M282.24,315.33c7.65-24.52,23.43-40,48.95-44.41A186,186,0,0,1,353,268.46c15.33-.81,30.76-.65,46.1-5-1.05,1.08-2,2.25-3.14,3.24-14.09,12.47-30.78,19.84-48.72,24.69-7.49,2-15,3.91-22.55,5.78C309.58,300.9,294.71,305.25,282.24,315.33Z"
        class="cls-4" />
    <path
        d="M255.7,308.21a216.72,216.72,0,0,0-46.07-30.07,120.06,120.06,0,0,1,64.59,31.35c28.11,26.67,34.24,58.74,35.75,68.75A219.3,219.3,0,0,0,255.7,308.21Z"
        class="cls-4" />
    <path d="M193,275.83a6.66,6.66,0,0,1,7-6.17,6.41,6.41,0,1,1-7,6.17Z" class="cls-4" />
</svg>