<svg id="esom_hex" data-name="Camada 1" xmlns="http://www.w3.org/2000/svg" viewBox="0 0 595.28 595.28">
    <defs>
        <style>
            svg#esom_hex .sw1 {
                fill: none;
            }
            svg#esom_hex .sw1,
            svg#esom_hex .sw2 {
                stroke-miterlimit: 10;
            }
            svg#esom_hex .sw1 {
                stroke-width: 18.2px;
            }
            svg#esom_hex .sw2 {
                stroke-width: 6.07px;
            }
        </style>
    </defs>
    <title>SVG_corretos_site</title>
    <g id="Grupo_39" data-name="Grupo 39">
        <g id="Grupo_37" data-name="Grupo 37">
            <path id="Caminho_61" data-name="Caminho 61" class="cls-1"
                d="M74.89,169V426.24L297.64,554.85,520.39,426.24V169L297.64,40.43Z" />
        </g>
        <path id="Caminho_62" data-name="Caminho 62" class="cls-s1 sw1"
            d="M50.9,155.18V440.09L297.64,582.54,544.37,440.09V155.18L297.64,12.73Z" />
        <g id="Grupo_38" data-name="Grupo 38">
            <g id="Grupo_40" data-name="Grupo 40">
                <circle id="Elipse_15" data-name="Elipse 15" class="cls-4" cx="300.52" cy="245.03" r="58.7" />
                <rect id="Retângulo_40" data-name="Retângulo 40" class="cls-s1 sw1" x="206.1" y="153.16" width="183.75"
                    height="183.75" />
                <circle id="Elipse_16" data-name="Elipse 16" class="cls-4 cls-s2 sw2" cx="206.66" cy="244.52" r="17.43" />
                <circle id="Elipse_17" data-name="Elipse 17" class="cls-4 cls-s2 sw2" cx="389.87" cy="244.52" r="17.43" />
                <circle id="Elipse_18" data-name="Elipse 18" class="cls-4 cls-s2 sw2" cx="301.09" cy="336.24" r="17.43" />
                <circle id="Elipse_19" data-name="Elipse 19" class="cls-4 cls-s2 sw2" cx="301.09" cy="153.03" r="17.43" />
                <g id="ESOM" class="cls-is">
                    <g class="cls-is">
                        <path class="cls-4"
                            d="M226.7,392.65H206.08v13.88h20.54v8.84H206.08v14.34h21.78l2.95,8.84H195.53v-54.9h35.12Z" />
                        <path class="cls-4"
                            d="M265.47,396.6q-3.5-1.86-6-3.06a11.83,11.83,0,0,0-5.2-1.2,7.17,7.17,0,0,0-5,1.86,6.07,6.07,0,0,0-2,4.65,4.74,4.74,0,0,0,1.86,4,17.5,17.5,0,0,0,4.65,2.48q2.79,1.05,6.09,2a24.72,24.72,0,0,1,6.08,2.71,15.3,15.3,0,0,1,4.66,4.58,13.6,13.6,0,0,1,1.86,7.56,17.79,17.79,0,0,1-1.44,7.33,15.82,15.82,0,0,1-3.91,5.42,17.19,17.19,0,0,1-5.82,3.38,21.62,21.62,0,0,1-7.13,1.16,24.41,24.41,0,0,1-8.73-1.63,49.55,49.55,0,0,1-9-4.65l3.88-9.15c1,.67,2,1.37,3.1,2.09s2.16,1.39,3.22,2a21.49,21.49,0,0,0,3.18,1.47,8.84,8.84,0,0,0,3.06.58,11.3,11.3,0,0,0,4-.62,7.77,7.77,0,0,0,2.72-1.62,6.12,6.12,0,0,0,1.51-2.25,7.05,7.05,0,0,0,.46-2.48,6.31,6.31,0,0,0-1.86-4.89,15.36,15.36,0,0,0-4.65-2.83,59.39,59.39,0,0,0-6.09-2.05,25.22,25.22,0,0,1-6.08-2.6,14.73,14.73,0,0,1-4.65-4.38,12.92,12.92,0,0,1-1.87-7.44,14.26,14.26,0,0,1,1.4-6.25,16.47,16.47,0,0,1,3.76-5.07,17.53,17.53,0,0,1,5.58-3.42,19.08,19.08,0,0,1,6.87-1.24q7.66,0,15.58,4.89Z" />
                        <path class="cls-4"
                            d="M336.61,422.34a28.39,28.39,0,0,1-6.28,9,29.11,29.11,0,0,1-9.39,6,32,32,0,0,1-23.18,0,28.37,28.37,0,0,1-15.58-15,27.88,27.88,0,0,1,0-22.13,28,28,0,0,1,6.24-9,29.57,29.57,0,0,1,9.34-6,30.72,30.72,0,0,1,32.57,6,28,28,0,0,1,6.28,9,28,28,0,0,1,0,22.13Zm-9.85-18.57a18.4,18.4,0,0,0-10-10,19.71,19.71,0,0,0-14.74,0,18.1,18.1,0,0,0-5.93,4,19.3,19.3,0,0,0,0,27,18.23,18.23,0,0,0,5.93,4,19,19,0,0,0,20.71-4,18.57,18.57,0,0,0,4-6,20.3,20.3,0,0,0,0-15Z" />
                        <path class="cls-4"
                            d="M393,385.05l7.91-5.74v62.34l-10.54-3.8v-32.8h-.08L374.87,426.3l-15.35-21.17h-.16v32.72l-10.54,3.8V379.54l8,5.51,18.07,24.5Z" />
                    </g>
                </g>
            </g>
        </g>
    </g>
</svg>