<svg id="esom" data-name="Camada 1" xmlns="http://www.w3.org/2000/svg" viewBox="0 0 595.28 595.28">
    <defs>
        <style>
            svg#esom .cls-s2 {
                fill: none;
                stroke-width: 29px;
            }
            svg#esom .cls-s2,
            svg#esom .cls-s1 {
                stroke-miterlimit: 10;
            }
            svg#esom .cls-s1 {
                stroke-width: 19.05px;
            }
        </style>
    </defs>
    <title>SVG_corretos_site</title>
    <g id="Grupo_18" data-name="Grupo 18">
        <rect id="Ret창ngulo_14" data-name="Ret창ngulo 14" class="cls-1" width="595.28" height="595.28" />
        <circle id="Elipse_9" data-name="Elipse 9" class="cls-2" cx="301.49" cy="215.63" r="100.07" />
        <rect id="Ret창ngulo_15" data-name="Ret창ngulo 15" class="cls-s2" x="140.51" y="59" width="313.26"
            height="313.26" />
        <circle id="Elipse_10" data-name="Elipse 10" class="cls-2 cls-s1" cx="141.47" cy="214.76" r="29.71" />
        <circle id="Elipse_11" data-name="Elipse 11" class="cls-2 cls-s1" cx="453.81" cy="214.76" r="29.71" />
        <circle id="Elipse_12" data-name="Elipse 12" class="cls-2 cls-s1" cx="302.45" cy="371.12" r="29.71" />
        <circle id="Elipse_13" data-name="Elipse 13" class="cls-2 cls-s1" cx="302.45" cy="58.78" r="29.71" />
        <g id="ESOM" class="cls-is">
            <g class="cls-is">
                <path class="cls-2"
                    d="M183.36,469.11H150.42v22.17h32.81v14.11H150.42V528.3h34.79l4.71,14.11H133.58V454.75h56.09Z" />
                <path class="cls-2"
                    d="M245.26,475.43q-5.56-3-9.53-4.89a18.79,18.79,0,0,0-8.29-1.92,11.41,11.41,0,0,0-8.05,3,9.68,9.68,0,0,0-3.22,7.43,7.61,7.61,0,0,0,3,6.38,28.61,28.61,0,0,0,7.43,4q4.45,1.67,9.72,3.22a38.77,38.77,0,0,1,9.72,4.33,24.09,24.09,0,0,1,7.43,7.31q3,4.51,3,12.07a28.53,28.53,0,0,1-2.29,11.7,25.23,25.23,0,0,1-6.25,8.67,27.47,27.47,0,0,1-9.29,5.38,34.31,34.31,0,0,1-11.39,1.86,39.13,39.13,0,0,1-13.93-2.6,78.82,78.82,0,0,1-14.43-7.43L205,519.26c1.57,1.07,3.22,2.19,5,3.34s3.44,2.21,5.14,3.16a34.81,34.81,0,0,0,5.07,2.35,14.17,14.17,0,0,0,4.89.93,18.35,18.35,0,0,0,6.38-1,12.25,12.25,0,0,0,4.33-2.6,9.67,9.67,0,0,0,2.42-3.59,11.32,11.32,0,0,0,.74-4q0-5.08-3-7.8a24.29,24.29,0,0,0-7.43-4.52,94.36,94.36,0,0,0-9.72-3.28,39.84,39.84,0,0,1-9.72-4.15,23.53,23.53,0,0,1-7.43-7c-2-2.88-3-6.85-3-11.88a22.7,22.7,0,0,1,2.23-10,26.22,26.22,0,0,1,6-8.11,27.85,27.85,0,0,1,8.92-5.45,30.2,30.2,0,0,1,11-2q12.26,0,24.88,7.8Z" />
                <path class="cls-2"
                    d="M358.87,516.54a45.48,45.48,0,0,1-10,14.3,46.61,46.61,0,0,1-15,9.59,51.13,51.13,0,0,1-37,0A45.24,45.24,0,0,1,272,516.54a44.51,44.51,0,0,1,0-35.35,44.64,44.64,0,0,1,10-14.3,47,47,0,0,1,14.92-9.6,50.32,50.32,0,0,1,37,0,47.84,47.84,0,0,1,15,9.6,44.37,44.37,0,0,1,10,14.3,44.62,44.62,0,0,1,0,35.35Zm-15.73-29.66a29.29,29.29,0,0,0-15.91-16,31.34,31.34,0,0,0-23.52,0,28.7,28.7,0,0,0-9.48,6.38,30.56,30.56,0,0,0-6.37,9.59,31.43,31.43,0,0,0,0,23.9,30.56,30.56,0,0,0,6.37,9.59,28.55,28.55,0,0,0,9.48,6.38,31.34,31.34,0,0,0,23.52,0,29.29,29.29,0,0,0,15.91-16,32.32,32.32,0,0,0,0-23.9Z" />
                <path class="cls-2"
                    d="M448.94,457l12.63-9.16v99.55l-16.84-6.07V488.93h-.12L420,522.85l-24.52-33.8h-.24V541.3l-16.84,6.07V448.19L391.12,457,420,496.11Z" />
            </g>
        </g>
    </g>
</svg>