<svg id="foca_hex" data-name="Camada 1" xmlns="http://www.w3.org/2000/svg" viewBox="0 0 595.28 595.28">
    <defs>
        <style>

            .cls-s1 {
                fill: none;
                stroke-miterlimit: 10;
                stroke-width: 18.2px;
            }
        </style>
    </defs>
    <title>SVG_corretos_site</title>
    <g id="Grupo_39" data-name="Grupo 39">
        <g id="Grupo_37" data-name="Grupo 37">
            <path id="Caminho_61" data-name="Caminho 61" class="cls-1"
                d="M75.08,168.84V426.05l222.75,128.6,222.75-128.6V168.84L297.83,40.24Z" />
        </g>
        <path id="Caminho_62" data-name="Caminho 62" class="cls-s1"
            d="M51.09,155V439.9L297.83,582.35,544.57,439.9V155L297.83,12.54Z" />
    </g>
    <path id="Caminho_7" data-name="Caminho 7" class="cls-4"
        d="M230.8,411.47c-2.61.2-3.06.28-3.88,0-3-1-4.19-4.57-5.35-7.62a88.4,88.4,0,0,0-9.76-18.59,27.15,27.15,0,0,0-7.22-7.35c-2.07-1.36-4.81-2.2-10.3-3.88-2.69-.83-4.94-1.38-6.15-.27-.42.39-.38.66-1.34,2.14a18.74,18.74,0,0,1-2,2.68,10.23,10.23,0,0,1-4.68,2.4c-3.07,1-4.89.82-5.21,1.88a2.52,2.52,0,0,0,.4,1.73c.57,1.05,1.31,1.09,1.34,1.61,0,.74-1.47,1.08-3.34,2.41-1.33.94-1,1.08-2.94,2.77-2.43,2.13-3.69,2.55-3.61,3.38s1.37,1.3,2.4,1.7A76,76,0,0,1,180,401.58c.53.34,2.09,1.78,5.22,4.68,1.22,1.13,3.51,3.26,6.42,6.15,3.28,3.26,3.32,3.5,5.21,5.22a43.1,43.1,0,0,0,5.49,4.41c4,2.61,7,3.31,6.82,3.88-.1.42-1.78.35-4.81.13-7.3-.51-8.93-.89-11.5-.93s-5.16.55-10.43,1.74a107.35,107.35,0,0,0-12.57,3.61A137.86,137.86,0,0,0,157.12,436c-2.46,1.15-1.29.71-2.8,1.4-2.37,1.09-3.34,1.29-3.61,2.14a2.82,2.82,0,0,0,.66,2.21,9.22,9.22,0,0,0,3.88,3.08,10,10,0,0,0,3.28,1.4c1.87.29,2.5-.44,3.54.13,1.32.73.77,2.16,2,2.94,1.59,1,3.35-.83,4.95.2,1.12.73.73,1.95,1.93,2.54s1.88-.41,3,.07c1.65.7,1.06,3.21,2.89,4.28a4.31,4.31,0,0,0,3.14.2,9.05,9.05,0,0,0,4.61-2.61c.24-.23,4.28-2.56,12.37-7.22,6.91-4,14.83-4.53,22.8-5.08,10.53-.74,16.58.42,30,1.94,9.31,1.05,17.3,1.63,33.29,2.81,22.07,1.61,33.35,2.4,45.61,1.06,4.72-.51,23.13-2.73,30.49-8.29,3.85-2.91,8.28-5,12.16-7.88a8.33,8.33,0,0,1,2.28-1.21,9,9,0,0,1,3.34-.4c1.32.09,2.22.15,2.81.8s.24,1.32.8,1.88,1.81.3,3.47.13a10.46,10.46,0,0,1,5.49.4c1.61.76,1.21,1.64,3.74,3.74a7.07,7.07,0,0,0,3.88,2.14,5.63,5.63,0,0,0,4-1.2c1.23-1,1.06-1.84,2.14-2.27a4.14,4.14,0,0,1,3.34.53c.83.48,1,.91,2.14,2.14a11.9,11.9,0,0,0,2.94,2.81c2.37,1,4-1.93,6.69-1.07a22,22,0,0,1,3.61,2.54c1.71,1.31,2,1.65,2.54,1.61,1.7-.13,1.75-3.43,3.61-3.88,1.7-.42,3.76,1.84,5.48,3.74,2.53,2.79,2.75,4.35,4.15,4.55,2,.29,3.93-2.57,4.55-3.48a16.37,16.37,0,0,0,2.14-13.1c-.42-1.55-1.78-5.68-9.9-11.77-8.86-6.65-12.06-5.33-22.33-11.9-6.55-4.19-10.92-7.07-13.64-12.7-1.7-3.53-2.09-7.09-2.81-14.05a151.27,151.27,0,0,1-.67-15.64c-.23-12.33-4.1-21.95-7-29-3.64-9-7.36-18.29-15.91-26.61-3.7-3.6-6.44-5.22-11.24-10.84-5.91-6.92-5.44-8.81-9.63-12.43-7.08-6.13-15.69-7-18.85-7.36a43.11,43.11,0,0,0-19.66,2.81c-5.64,2.13-6.29,3.75-11.64,4.81-5.1,1-8.53.37-10.16,2.81-1.34,2-.59,4.81-.27,6a13.85,13.85,0,0,0,4,6.15c3,3.17,4.62,4,9,7.62s6.45,5.37,8,7.76c1.34,2.09,1.95,4.25,3.13,8.47a137.56,137.56,0,0,1,3.2,17.21c.43,2.83-.08-.36.94,9.09.37,3.41.61,5.38-.4,7.62a10.88,10.88,0,0,1-2.81,3.61c-2.64,2.5-4.62,3-7.62,4.68a45.58,45.58,0,0,0-9.36,7.22c-3.16,2.91-2.61,3-6,6.29a74,74,0,0,1-10.3,8.29,60.1,60.1,0,0,1-8.69,4.95c-1.32.6-1.61.67-7.76,3.07-4.73,1.85-7.09,2.78-7.75,3.08a91.06,91.06,0,0,0-10.3,5.75c-5.36,3.3-5.05,3.52-6.68,4C239.14,411.34,238.76,410.88,230.8,411.47Z" />
    <g id="FOCA" class="cls-is">
        <g class="cls-is">
            <path class="cls-4" d="M183.57,167.38v33.74h25.81v4.39H183.57v24.66h-4.39V163.08h38v4.3Z" />
            <path class="cls-4"
                d="M254.67,231.22h-1.24A32.44,32.44,0,0,1,230.88,221a35.68,35.68,0,0,1,0-49.21,32.44,32.44,0,0,1,22.55-10.23h1.24a32.82,32.82,0,0,1,22.56,10.23,35.92,35.92,0,0,1,0,49.21A32.82,32.82,0,0,1,254.67,231.22ZM254,165.85c-15.87.38-28.58,14-28.58,30.49s12.71,30.2,28.58,30.58c15.86-.38,28.66-13.95,28.66-30.58S269.87,166.23,254,165.85Z" />
            <path class="cls-4"
                d="M355.88,216.12a29,29,0,0,1-4,5,32.93,32.93,0,0,1-22.55,10.13h-1.24a33.18,33.18,0,0,1-22.65-10.13,35.1,35.1,0,0,1,0-48.74,33.18,33.18,0,0,1,22.65-10.13h1.24a32.93,32.93,0,0,1,22.55,10.13,28.59,28.59,0,0,1,4,5l-4,1.81a29.07,29.07,0,0,0-23.22-12.51c-15.86.28-28.67,13.66-28.67,30.1s12.81,29.82,28.67,30.2a29.42,29.42,0,0,0,23.22-12.62Z" />
            <path class="cls-4"
                d="M389.61,163l26.48,67.19H411.4l-5.16-13.1c-3.44,1.34-9.27,2.87-17.87,2.87s-14.62-1.62-18-3l-5.06,13.19h-4.68l26-67.19Zm15,50.08L388.18,171.2,372,213c.57.19,1.24.47,2,.66a45.68,45.68,0,0,0,14.33,2C396.4,215.64,401.75,214.21,404.62,213.06Z" />
        </g>
    </g>
</svg>