<svg id="Camada_1" data-name="Camada 1" xmlns="http://www.w3.org/2000/svg" viewBox="0 0 595.28 595.28"><defs></defs><title>SVG_corretos_site</title><rect id="Retângulo_9" data-name="Retângulo 9" class="cls-1" width="595.28" height="595.28"/><path id="Caminho_7" data-name="Caminho 7" class="cls-2" d="M199.19,435.51c-3.81.29-4.48.41-5.72,0-4.43-1.49-6.14-6.71-7.85-11.19A128.53,128.53,0,0,0,171.28,397a39.62,39.62,0,0,0-10.6-10.8,62.55,62.55,0,0,0-15.12-5.72c-4-1.21-7.26-2-9.06-.39-.61.56-.54.95-2,3.15a27.35,27.35,0,0,1-2.95,3.92,15,15,0,0,1-6.87,3.54c-4.51,1.45-7.18,1.2-7.66,2.74a3.84,3.84,0,0,0,.59,2.56c.84,1.54,1.91,1.6,2,2.36.06,1.09-2.16,1.58-4.91,3.53-2,1.38-1.48,1.59-4.32,4.07-3.57,3.12-5.41,3.74-5.3,5s2,1.9,3.53,2.5A112.73,112.73,0,0,1,124.53,421c.77.47,3.07,2.62,7.66,6.87,1.8,1.67,5.16,4.77,9.43,9.05,4.81,4.8,4.87,5.15,7.66,7.66a61.22,61.22,0,0,0,8.05,6.48c5.83,3.81,10.22,4.86,10,5.71-.15.62-2.62.51-7.07.2-10.72-.75-13.12-1.32-16.89-1.37a69.11,69.11,0,0,0-15.31,2.55,161.42,161.42,0,0,0-18.46,5.3c-5.95,2.14-10.19,4.11-18.66,8.05-3.61,1.69-1.9,1-4.12,2.06-3.48,1.6-4.91,1.91-5.3,3.15a4.15,4.15,0,0,0,1,3.24,13.33,13.33,0,0,0,5.72,4.51A14.5,14.5,0,0,0,93,486.5c2.75.43,3.68-.65,5.2.19,1.94,1.07,1.14,3.17,3,4.32,2.33,1.48,4.92-1.23,7.27.3,1.64,1.06,1.07,2.85,2.85,3.73s2.76-.61,4.42.1c2.42,1,1.54,4.71,4.22,6.28a6.47,6.47,0,0,0,4.62.3,13.4,13.4,0,0,0,6.77-3.82c.34-.34,6.28-3.76,18.17-10.6,10.13-5.84,21.77-6.65,33.48-7.46,15.46-1.08,24.33.62,44.08,2.86,13.67,1.54,25.41,2.38,48.9,4.12,32.39,2.38,49,3.52,67,1.57,6.94-.75,34-4,44.78-12.18,5.66-4.28,12.16-7.36,17.87-11.58a12,12,0,0,1,3.34-1.77,13,13,0,0,1,4.91-.59c1.94.13,3.26.21,4.12,1.18s.37,1.94,1.17,2.75c1,1,2.66.45,5.11.2a15.31,15.31,0,0,1,8,.59c2.38,1.11,1.79,2.41,5.5,5.49a10.46,10.46,0,0,0,5.72,3.14,8.35,8.35,0,0,0,5.89-1.76c1.81-1.47,1.55-2.7,3.14-3.34a6.11,6.11,0,0,1,4.92.79c1.21.7,1.52,1.34,3.14,3.14a17.44,17.44,0,0,0,4.32,4.12c3.48,1.43,5.83-2.83,9.82-1.57a32,32,0,0,1,5.3,3.73c2.52,1.91,2.92,2.42,3.73,2.35,2.5-.18,2.58-5,5.3-5.71,2.5-.62,5.52,2.71,8.05,5.5,3.72,4.09,4,6.38,6.09,6.67,2.94.41,5.78-3.78,6.67-5.11A24,24,0,0,0,513,465.19c-.61-2.27-2.62-8.34-14.54-17.28-13-9.76-17.71-7.83-32.79-17.48-9.62-6.15-16-10.37-20-18.65a60,60,0,0,1-4.12-20.62,217.42,217.42,0,0,1-1-23,115.62,115.62,0,0,0-10.21-42.61C425,312.29,419.55,298.73,407,286.51a169.6,169.6,0,0,1-16.49-15.9c-8.68-10.18-8-12.95-14.14-18.26a49.21,49.21,0,0,0-27.69-10.8,63,63,0,0,0-28.86,4.12c-8.28,3.13-9.24,5.5-17.09,7.07-7.49,1.49-12.53.54-14.92,4.12a11.21,11.21,0,0,0-.4,8.83,20.33,20.33,0,0,0,5.89,9.06,132.47,132.47,0,0,0,13.16,11.19,54.11,54.11,0,0,1,11.72,11.39,43.86,43.86,0,0,1,4.58,12.43A200.43,200.43,0,0,1,327.46,335c.62,4.16-.13-.52,1.38,13.34a20,20,0,0,1-.59,11.19,16.19,16.19,0,0,1-4.12,5.31,44.11,44.11,0,0,1-11.19,6.87,66.47,66.47,0,0,0-13.75,10.6c-4.64,4.29-3.83,4.41-8.84,9.23a107.28,107.28,0,0,1-15.12,12.17A86.92,86.92,0,0,1,262.47,411c-1.94.89-2.38,1-11.39,4.52-6.94,2.71-10.42,4.07-11.38,4.52a133.23,133.23,0,0,0-15.13,8.44c-7.88,4.85-7.42,5.16-9.81,5.89C211.44,435.32,210.87,434.65,199.19,435.51Z"/><g id="FOCA" class="cls-is"><g class="cls-is"><path class="cls-2" d="M131.35,77.6v50.45h38.59v6.58H131.35V171.5h-6.57V71.17h56.88V77.6Z"/><path class="cls-2" d="M237.69,173.07h-1.86a48.51,48.51,0,0,1-33.73-15.29,53.36,53.36,0,0,1,0-73.6,48.47,48.47,0,0,1,33.73-15.29h1.86a49,49,0,0,1,33.72,15.29,53.73,53.73,0,0,1,0,73.6A49.06,49.06,0,0,1,237.69,173.07Zm-1-97.75C213,75.89,194,96.18,194,120.91s19,45.16,42.73,45.73c23.73-.57,42.88-20.87,42.88-45.73S260.41,75.89,236.68,75.32Z"/><path class="cls-2" d="M389,150.49a42.65,42.65,0,0,1-6,7.43,49.24,49.24,0,0,1-33.73,15.15h-1.85a49.55,49.55,0,0,1-33.87-15.15,52.48,52.48,0,0,1,0-72.89,49.54,49.54,0,0,1,33.87-15.14h1.85A49.23,49.23,0,0,1,383,85a42.35,42.35,0,0,1,6,7.44l-6,2.71A43.51,43.51,0,0,0,348.3,76.46c-23.72.43-42.87,20.44-42.87,45s19.15,44.59,42.87,45.16A44,44,0,0,0,383,147.77Z"/><path class="cls-2" d="M439.48,71,479.07,171.5h-7l-7.72-19.58c-5.14,2-13.86,4.29-26.72,4.29s-21.87-2.43-26.87-4.43l-7.58,19.72h-7L435.05,71Zm22.44,74.89-24.58-62.6-24.15,62.45c.86.29,1.86.72,3,1a68.57,68.57,0,0,0,21.44,3C449.63,149.78,457.63,147.63,461.92,145.92Z"/></g></g></svg>