<svg id="Camada_1" data-name="Camada 1" xmlns="http://www.w3.org/2000/svg" viewBox="0 0 595.28 595.28">
    <title>Behance</title>
    <rect id="Retângulo_651" data-name="Retângulo 651" width="595.28" height="594.64" class="cls-1" />
    <g id="vyHsPF" class="cls-2">
        <path
            d="M83.17,163.82c31.21,0,62-.42,92.79.15,21.51.39,43.44-.19,64.4,3.8,39.07,7.42,56.63,40.14,51.27,77.13-2.8,19.27-13.25,32.68-31.24,41.53,4.88,2.89,9.37,5.26,13.57,8.08,18.07,12.14,26.18,29.74,27.49,51,1.11,17.89-2.64,34.64-12.41,49.74-14,21.66-34.8,32.55-59.89,33.79-31.29,1.55-62.68,1.44-94,1.85-17.15.22-34.3,0-52,0Zm61.12,220.64c21.93,0,43.54.63,65.09-.15,33-1.19,37.1-23.93,34.82-45.7-.93-9-6.21-16.6-15.11-19.67a80.88,80.88,0,0,0-23-4.73c-18.17-.67-36.38-.21-54.57-.21h-7.19Zm0-115.38c22.08,0,43.24.38,64.38-.24,5.92-.18,12.11-2.56,17.58-5.19,10-4.8,15.11-17.08,13.19-29.13-2.1-13.21-8.57-20.62-21.36-22.08-11.8-1.34-23.76-1.42-35.65-1.66-12.62-.26-25.24-.06-38.14-.06Z" />
        <path
            d="M512.11,341.32H373.26c-1.62,25.6,13.56,44.75,39.15,47.24,17.43,1.7,33.34-1.45,43.4-18.17a6.45,6.45,0,0,1,4.75-2.48c15.68-.18,31.35-.11,49.09-.11-3.31,7.62-5.37,14.48-9,20.36-16.16,26.13-40.69,38.68-70.59,40.95-22.31,1.69-43.84-1.28-63.94-12.61-24-13.56-37.81-33.79-42.22-60.62-4.26-25.9-3.59-51.57,6.34-76.25,11.83-29.39,34.63-46,64.91-52.13,21.82-4.42,43.64-2.44,64.17,6.78,28.48,12.78,44.47,35.78,49.95,65.83C511.65,313.19,511.2,326.79,512.11,341.32Zm-53.63-33.77c1.17-20.48-15-38.21-35.18-40-33.75-3-47.67,17.38-49.05,40Z" />
        <path d="M470.25,175.32v26.07H363.43V175.32Z" />
    </g>
</svg>