<svg id="Camada_1" data-name="Camada 1" xmlns="http://www.w3.org/2000/svg" viewBox="0 0 595.28 595.28">
    <title>BNP</title>
    <rect id="Retângulo_28" data-name="Retângulo 28" width="595.28" height="595.28" class="cls-1" />
    <path
        d="M461.31,215a8.12,8.12,0,0,0-8,8V404.75c-20.74-7.05-43-10.17-64.76-7.94A124.28,124.28,0,0,0,354.73,405c-4.77,1.91-9.45,4-14.1,6.18-2,.91-4,1.85-6,2.75-1,.45-2,.9-3,1.33l-.94.41.19-.1-.69.3a97.1,97.1,0,0,1-12.94,4.29c-2.32.58-4.69,1.05-7.05,1.41h.05a3.32,3.32,0,0,1-.41.06l.18,0-1.7.2c-1.35.13-2.7.23-4.06.29V384.12c0-4.17-3.67-8.17-8-8a8.13,8.13,0,0,0-8,8v37.36A75.71,75.71,0,0,1,274.55,418c-1-.37-2.06-.77-3.09-1.18a1.75,1.75,0,0,0-.32-.12l.16.07a5.11,5.11,0,0,1-.64-.27l-.08,0,0,0h-.07l-.41-.2c-2-.89-4-1.84-5.92-2.82-3.95-2-7.83-4-11.81-5.93A120.62,120.62,0,0,0,220.56,397c-25.73-4.4-52.13-1.79-76.81,6.46q-.31-32.85-.64-65.72l-.75-77.4q-.21-21.7-.43-43.44c0-4.17-3.64-8.17-8-8a8.11,8.11,0,0,0-8,8l.75,77.08.75,77.4q.23,21.72.42,43.44c0,4.7,5.14,9.67,10.11,7.69a174.22,174.22,0,0,1,31.47-9.33c1.56-.3,3.11-.58,4.68-.83l2.13-.32.58-.1h0l-.13,0,.69-.11c3.45-.43,6.92-.73,10.39-.92a140.42,140.42,0,0,1,21.7.52c.93.09,1.86.2,2.78.3.3.05.61.1.9.12h.15c1.63.26,3.23.51,4.85.81q4.43.84,8.77,2c2.6.71,5.16,1.51,7.69,2.43,1.11.39,2.22.81,3.32,1.24l.89.36-.09-.05,1,.43-.13,0-.44-.19.72.31c8,3.52,15.54,7.95,23.56,11.4A90.86,90.86,0,0,0,295,438l.83,0,.5,0h0a89.6,89.6,0,0,0,31.19-4.29c8.93-2.94,17.36-7.18,25.92-11l3-1.31.45-.21h0l.11-.05a.44.44,0,0,0,.16-.06l.12-.06a.13.13,0,0,0,.08,0h0c.12,0,.25-.11.38-.16l.11,0,.07,0,.3-.12c2.24-.92,4.51-1.78,6.81-2.56A112.45,112.45,0,0,1,380.57,414c1.46-.27,2.93-.52,4.4-.74l1.12-.14h-.19c.71-.07,1.42-.18,2.12-.25,3.45-.38,6.91-.6,10.38-.7a142.15,142.15,0,0,1,21.33,1l.61.07c-.56-.14-1.08-.39.49.07a2.31,2.31,0,0,0-.48-.07l.29.05,2.45.37c1.6.26,3.18.54,4.77.84,3,.59,6,1.26,9,2,5.31,1.36,10.56,3,15.72,4.88,2.22.81,4.42,1.67,6.62,2.58s5.14,0,7-1.44a7.8,7.8,0,0,0,3.14-6.26V223C469.3,218.84,465.62,214.83,461.31,215ZM289.43,421.62l-.29,0-.09,0,.14,0,.21,0h0Z"
        class="cls-2" />
    <path d="M239.77,419.17l-.13,0-.44-.19-.36-.15-.09-.05Z" class="cls-2" />
    <path d="M289.19,421.58h-.05l-.09,0Z" class="cls-2" />
    <path d="M289.48,421.62h0Z" class="cls-2" />
    <path d="M310.25,421.56a3.32,3.32,0,0,1-.41.06l.18,0h.23Z" class="cls-2" />
    <path d="M420.83,413.26a2.31,2.31,0,0,0-.48-.07h0C419.78,413.05,419.26,412.8,420.83,413.26Z" class="cls-2" />
    <path
        d="M493.08,240.27V460.16H102.19V240.27a8.47,8.47,0,0,1,16.93,0V438.76c1.07-.49,2.14-1,3.22-1.43,2-.88,3.89-1.57,5.84-2.37l5.84-2.09,5.85-1.84,5.84-1.59c3.89-1,7.8-1.9,11.69-2.64A222.81,222.81,0,0,1,204.14,423a106.06,106.06,0,0,1,23.37,3.5c2,.56,3.9,1.09,5.85,1.67s3.9,1.25,5.85,1.92l11.68,4.21,5.85,2.1c1.94.7,3.89,1.42,5.84,2s3.89,1.28,5.84,1.79,3.9,1.09,5.84,1.54a104.17,104.17,0,0,0,23.37,2.76q5.85,0,11.69-.55c3.89-.38,7.79-1,11.69-1.74a176.1,176.1,0,0,0,23.37-6.57l11.69-3.9,5.84-1.95,5.84-1.77a131.18,131.18,0,0,1,23.37-4.54,156,156,0,0,1,23.38-.24A186.11,186.11,0,0,1,437.87,426q5.85,1.1,11.69,2.61c1.94.49,3.89,1.1,5.84,1.67,1,.3,2,.56,2.92.89l2.92,1c3.9,1.31,7.79,2.92,11.68,4.67,1.08.5,2.15,1,3.23,1.54V240.27a8.47,8.47,0,0,1,16.93,0Z" class="cls-2" />
    <path d="M296.28,438.09A8.41,8.41,0,0,1,295,438l.83,0Z" class="cls-2" />
    <path d="M289.48,421.62h-.05l-.29,0-.09,0,.14,0,.21,0Z" class="cls-2" />
    <path
        d="M308.69,135.12c35.07.76,76.46,15.88,111.89,46.72a82.22,82.22,0,0,1,7.62,7.43c5.4,6.1,6.53,12.88.92,19.2-5.89,6.64-13.09,6.74-20.18,1.63-3.19-2.31-6-5.13-9-7.7-61.1-52.18-149.15-51.58-209.44,1.45-1.78,1.57-3.43,3.29-5.27,4.78-7.41,6-15.43,7.57-22-.27-6.11-7.27-3.46-14.56,2.8-21.08C196.32,155.63,248.11,134.9,308.69,135.12Z"
        class="cls-2" />
    <path
        d="M299.53,223.91c22.38-.43,43.77,8.37,62.29,24.6,7.18,6.29,11.82,13.6,4.37,22.41-7.26,8.58-15,5.94-22.82-.11-32.6-25.26-61.79-25.15-94.68.1-9.38,7.2-17.43,7.41-22.77-.12-5.93-8.36-2.73-15.46,4.08-21.87C247.16,232.78,271.43,223.61,299.53,223.91Z"
        class="cls-2" />
    <path
        d="M270.84,320.12c.27-14.15,11.87-24.85,26.41-24.37,13.62.46,24.9,11.94,24.8,25.24-.11,13.69-12.49,25.59-26.23,25.21C281.3,345.79,270.57,334.59,270.84,320.12Z"
        class="cls-2" />
</svg>