<svg id="Camada_1" data-name="Camada 1" xmlns="http://www.w3.org/2000/svg" viewBox="0 0 595.28 595.28">
    <title>FNAC</title>
    <rect id="Retângulo_28" data-name="Retângulo 28" width="595.28" height="595.28" class="cls-1" />
    <g id="N5hMMS">
        <path
            d="M87.34,372.7H56.11V288.2H39.42c0-.57-.1-1-.1-1.42,0-6,0-12,0-18,0-1.09.31-1.42,1.41-1.42,4.1,0,8.2-.13,12.3-.2h2.7c0-2.22,0-4.26,0-6.3a33.84,33.84,0,0,1,15.55-30.25,50.52,50.52,0,0,1,22.83-8.5c8.87-1.19,17.77-2.05,26.73-1.46s17.86,1.65,26.35,4.56c9.94,3.41,17.81,9.6,22.72,19.11a20.89,20.89,0,0,1,1.73,4.66c.59,2.41.95,4.87,1.44,7.48-.71,0-1.23.09-1.75.1-9.28.05-18.56.07-27.84.16a1.46,1.46,0,0,1-1.72-1.25,19.69,19.69,0,0,0-14.66-14.12,47.63,47.63,0,0,0-22.48-.7c-7.8,1.69-13.7,5.75-16.49,13.56a8.48,8.48,0,0,0-.6,2.1c-.27,3.49-.47,7-.69,10.56h87.09v14.23a4.47,4.47,0,0,0,.73-.51c5-6.9,11.81-10.76,19.87-13.11,12.43-3.64,25-3.86,37.74-2.63a73.35,73.35,0,0,1,24.63,6.62A40.81,40.81,0,0,1,274.15,287a22,22,0,0,1,3,10.32c.48,7.1.77,14.23.86,21.35.23,17.24.3,34.49.44,51.73v2H246.58c0-2.15,0-4.18,0-6.22l-.42-48.95a35.94,35.94,0,0,0-2.29-13.49,24.88,24.88,0,0,0-13.06-13.39,41.3,41.3,0,0,0-24.11-3.56c-6.68,1-13.18,2.43-19,5.89-8.61,5.09-13.6,12.48-13.61,22.7,0,18.42.06,36.84.09,55.26,0,.53,0,1,0,1.67H141.65V288.08H87.34Z"
            class="cls-2" />
        <path
            d="M319.71,301.2H287a32.38,32.38,0,0,1,3.15-11.94c5.92-12.46,16.34-19.08,29.33-22.06,14.38-3.3,29-3.26,43.57-1.87,7.85.75,15.63,1.77,23,4.67,5.86,2.29,11.64,4.65,16.37,9.12,4.58,4.33,7.77,9.25,8.52,15.57a100.06,100.06,0,0,1,1,10.77c.21,22,.28,44,.41,66v1.3H380.86V359.14c-2.31,1.31-4.39,2.54-6.52,3.68a87.45,87.45,0,0,1-72.28,4.69c-6.85-2.64-12.64-6.75-15.91-13.51a31.84,31.84,0,0,1-2.5-8.95,26.68,26.68,0,0,1,1.72-15.37,20.3,20.3,0,0,1,7.08-8.38c6.57-4.58,13.95-6.19,21.77-6.85,16.65-1.41,33.27-3.05,49.89-4.72a43.84,43.84,0,0,0,9.46-1.82c7.53-2.48,10-10.19,4.22-16.67-2.86-3.23-6.82-4.88-10.75-6.33a45.32,45.32,0,0,0-33.88.45,44.36,44.36,0,0,0-8.06,4.4c-3.25,2.21-4.17,5.88-5.05,9.46C319.91,299.78,319.85,300.37,319.71,301.2Zm60.82,21.17c-.35.17-.74.33-1.11.54a30.58,30.58,0,0,1-12.05,3.83c-10.54,1.12-21.07,2.2-31.61,3.3-4.7.5-9.44.7-13.8,2.93-3.25,1.65-5.39,4.08-5.6,7.77A11.3,11.3,0,0,0,321.3,351a34.58,34.58,0,0,0,13.84,5.71c16.6,3,30.7-1.33,41.79-14.37,1.87-2.2,3.41-4.65,3.55-7.56C380.67,330.68,380.53,326.59,380.53,322.37Z"
            class="cls-2" />
        <path
            d="M556,338c-1.46,3.55-2.58,7-4.21,10.15-5.19,10.08-13.88,16.09-24.07,20.35-8.91,3.73-18.28,5.2-27.79,6-9.89.86-19.73-.15-29.51-1.37a75.06,75.06,0,0,1-32.15-11.44c-11-7.16-18.09-17.13-20.29-30.06-1.89-11.12-1.24-22.28,3.11-32.84,4.21-10.22,11.6-17.71,21.53-22.62A86.35,86.35,0,0,1,462,269.83a117.81,117.81,0,0,1,59.83,1.68c8.37,2.43,16.12,6.22,22.46,12.43,5.34,5.21,9.34,11.21,11,18.86h-4.86c-9.23.06-18.46.11-27.69.23a2.27,2.27,0,0,1-2.16-1.13c-5.26-7.72-12.66-11.78-21.79-13.39a52,52,0,0,0-23.64.83c-7.22,2-14,5-18.85,11.11-6.48,8.22-8.67,17.45-6.3,27.66A30.38,30.38,0,0,0,464.16,348c4.35,2.66,9.3,3.78,14.23,4.8a51.72,51.72,0,0,0,29.77-2.67,26.89,26.89,0,0,0,13.25-11.07,2.93,2.93,0,0,1,2.91-1.62c10,.2,19.93.31,29.89.45C554.64,337.88,555.06,337.92,556,338Z"
            class="cls-2" />
    </g>
</svg>