<?xml version="1.0" encoding="UTF-8"?>
<svg id="Camada_1" data-name="Camada 1" xmlns="http://www.w3.org/2000/svg" viewBox="0 0 595.28 595.28">
  <defs>
    <style></style>
  </defs>
  <rect id="Retângulo_28" data-name="Retângulo 28" class="cls-1" x="0" width="595.28" height="595.28"/>
  <g>
    <path class="cls-2" d="m275.79,311.69c0,1.07,0,1.91,0,2.75,0,49.11.03,98.22-.04,147.33-.01,7.25.37,14.4,2.51,21.38,2.46,8.03,7,14.52,14.29,18.8,9.74,5.71,20.03,6.16,30.49,2.31,9.28-3.42,15.48-9.98,18.53-19.41,1.91-5.89,2.63-11.98,2.64-18.15.01-56.05.01-112.09.01-168.14,0-.45-.07-.9-.11-1.49-21.2,12.28-43.76,17.18-68.32,14.62Zm83.55-91.4c.08-26.07-21.32-51.65-52.03-51.56-30.06.09-52.73,22.64-52.78,52.95-.05,29.62,24.41,52.09,52.57,52,28.4-.09,53.25-23.11,52.24-53.39Zm-216.98,78.63c.65-1.72,1.38-3.41,1.93-5.16,3.41-10.82,6.38-21.79,10.23-32.44,8.22-22.76,18.64-44.5,32-64.75,9.75-14.77,21.34-28,34.34-39.98,11.85-10.92,24.79-20.33,39.05-27.93,13.39-7.14,27.45-12.37,42.31-15.34,19.41-3.88,38.77-3.36,58.02,1.19,14.27,3.37,27.27,9.71,39.69,17.3,5.71,3.49,11.19,7.37,16.86,10.95,1.37.87,3.15,2.14,4.72.76,1.67-1.46.5-3.4-.18-4.96-3.06-7.08-7.07-13.66-12.81-18.79-5.78-5.16-11.92-9.98-18.32-14.35-9.09-6.22-19.29-10.17-29.91-13.03-10.83-2.92-21.86-3.91-33.06-3.87-14.85.05-29.24,2.66-43.41,6.85-15.93,4.71-30.22,12.74-43.84,21.98-12.92,8.75-24.53,19.09-35.08,30.6-10.44,11.4-19.59,23.79-27.56,37.03-10.73,17.81-19.37,36.61-25.35,56.51-3.32,11.05-5.74,22.39-8.1,33.7-1.62,7.74-2.65,15.64-1.52,23.74Z"/>
    <path class="cls-2" d="m275.79,311.69c24.56,2.56,47.12-2.34,68.32-14.62.05.59.11,1.04.11,1.49,0,56.05,0,112.09-.01,168.14,0,6.18-.73,12.27-2.64,18.15-3.05,9.42-9.25,15.99-18.53,19.41-10.46,3.85-20.74,3.41-30.49-2.31-7.3-4.28-11.83-10.78-14.29-18.8-2.14-6.98-2.52-14.12-2.51-21.38.07-49.11.04-98.22.04-147.33,0-.84,0-1.68,0-2.75Z"/>
    <path class="cls-2" d="m359.34,220.29c1.01,30.28-23.84,53.3-52.24,53.39-28.15.09-52.62-22.38-52.57-52,.05-30.31,22.72-52.86,52.78-52.95,30.71-.09,52.11,25.49,52.03,51.56Z"/>
    <path class="cls-2" d="m142.36,298.91c-1.13-8.1-.11-15.99,1.52-23.74,2.37-11.31,4.78-22.65,8.1-33.7,5.98-19.89,14.63-38.7,25.35-56.51,7.98-13.24,17.12-25.62,27.56-37.03,10.54-11.51,22.16-21.85,35.08-30.6,13.62-9.23,27.91-17.27,43.84-21.98,14.17-4.19,28.56-6.81,43.41-6.85,11.2-.04,22.24.95,33.06,3.87,10.61,2.86,20.82,6.82,29.91,13.03,6.39,4.37,12.54,9.2,18.32,14.35,5.75,5.13,9.75,11.71,12.81,18.79.68,1.56,1.84,3.49.18,4.96-1.57,1.38-3.35.11-4.72-.76-5.67-3.58-11.14-7.46-16.86-10.95-12.42-7.59-25.42-13.93-39.69-17.3-19.25-4.55-38.61-5.07-58.02-1.19-14.86,2.97-28.92,8.2-42.31,15.34-14.26,7.6-27.2,17.01-39.05,27.93-13,11.98-24.59,25.2-34.34,39.98-13.36,20.24-23.77,41.99-32,64.75-3.85,10.66-6.82,21.63-10.23,32.44-.55,1.75-1.28,3.44-1.93,5.16Z"/>
  </g>
</svg>