<svg id="Camada_1" data-name="Camada 1" xmlns="http://www.w3.org/2000/svg" viewBox="0 0 595.28 595.28">
    <title>Pinterest</title>
    <rect id="Retângulo_28" data-name="Retângulo 28" x="0.16" width="595.28" height="595.28" class="cls-1" />
    <g id="p90obf.tif">
        <path
            d="M239.56,484.79c20.72-29,28-62.36,36.34-96.68,9.25,11.6,20.2,18.09,33.21,20.35,25.9,4.51,49.34-2.37,69.26-18.82,35.22-29.1,47.76-68.39,43.95-112.32-4.81-55.57-48-96.57-104.08-102.13-36.77-3.64-71.1,2.78-101.31,25.13-42.39,31.35-59.65,97.08-29.34,145.49,5.78,9.22,12.93,17.17,22.67,22.38,5.79,3.09,7.5,2.31,9.23-3.82.41-1.45.63-3,1.12-4.37,3.85-10.9,3-20.07-3.12-31.16-25.32-46.15,4.2-106.42,56.74-117.43,28.83-6,56.1-2.62,79.26,17.64a70.5,70.5,0,0,1,24,45.75c3.35,27.62-.54,54.15-16.29,77.75C351,367.92,337,377.93,317.45,377.92c-20.82,0-33.79-15.83-28.78-36,4.19-16.86,9.59-33.41,13.81-50.26a52,52,0,0,0,1.5-19.09c-2.85-21.34-23.93-29.87-41.5-17.18-11.22,8.1-16.3,19.82-17.94,33A76,76,0,0,0,248,322.7a18,18,0,0,1,.34,9.32c-6.05,26.58-11.79,53.25-18.74,79.59-5.59,21.17-6.12,42.38-4.11,63.89.09,1,.13,2.07.29,4.48-31.3-12.38-57-30.92-77.89-56-35.52-42.55-50.8-91.9-45-146.76C115,162.71,220.77,83.89,333.38,105.05c113.6,21.36,183.8,134,153.47,244S343.06,517,239.56,484.79Z" class="cls-2" />
    </g>
</svg>