<svg id="Camada_1" data-name="Camada 1" xmlns="http://www.w3.org/2000/svg" viewBox="0 0 595.28 595.28">
    <title>Procreate</title>
    <rect id="Retângulo_35" data-name="Retângulo 35" width="595.28" height="595.28" class="cls-1" />
    <path
        d="M119.82,465.31a193.44,193.44,0,0,1,12-68.84c4.52-12.16,20.4-51.09,59.31-82.57a246.81,246.81,0,0,1,68.31-36.62c15.28-5.22,30.59-9.3,30.59-9.3,14.62-3.89,20.11-4.58,32.48-8.11a299.9,299.9,0,0,0,30.79-10.64c-5.86,3.48-14.93,8.66-26.37,14.35-7.68,3.82-18.38,8.4-39.78,17.56-15.91,6.82-24.82,10.48-34,14.08-7,2.75-11.26,4.35-13,5-15.62,6-36.28,18.22-54.5,34.35a197.59,197.59,0,0,0-65.86,130.7Z"
        class="cls-2" />
    <path
        d="M283.06,286.05c8.05-3.41,14.6-6.34,19-8.36,21.47-9.76,37.85-18.35,49.94-24.7,4.9-2.58,9.56-5,15.88-8.52,14.44-8,25.28-14.6,28.06-16.31,21-13,41.53-25.43,55.66-46.72,5.94-9,15.21-25.89,18.06-51.47a130.05,130.05,0,0,1-36.49,95c-17.68,17.9-37.06,26.35-48.82,31.48-3.22,1.4-8.32,3.4-13.18,5.23-3.42,1.29-16,6-34,11.17-10.25,2.95-17.82,4.79-27.38,7.1C299.1,282.57,290,284.59,283.06,286.05Z"
        class="cls-2" />
    <path
        d="M472.87,134.44c-.86,22.06-6.21,60.35-34.06,90.65-19.8,21.56-42.9,30.29-75.55,42.62-42.19,16-55.68,12.1-92.6,25.19-27.17,9.63-55.55,20.39-84.07,46.49a200.77,200.77,0,0,0-50.11,72.06,197.34,197.34,0,0,0-12.66,48.44c6.47-19.83,21-54,53.47-82.66A188.59,188.59,0,0,1,236.57,342c17.07-6.07,35.67-9.59,57.34-13.69,17.82-3.37,18.59-2.76,31.09-5.26,13.86-2.77,40.58-7.87,64.32-19.76,8.86-4.44,38-19.43,59.49-49.71C483.38,204.84,475.35,148.74,472.87,134.44Z"
        class="cls-2" />
    <path
        d="M423,285.15a160.64,160.64,0,0,1-20.25,14.91c-13.27,8.26-30.18,16.07-66.9,24.09-35.88,7.84-36.66,4.09-73.16,12.72-16.19,3.83-31.63,8.26-49,17.82a197.26,197.26,0,0,0-18.52,11.85c-5.21,3.74-9.5,7.19-12.77,9.95a186.82,186.82,0,0,1,35.65-13.85,218.14,218.14,0,0,1,54.72-7.36c4.33,0,9.1.12,17-.26,1.58-.08,16.81-.87,28.36-3,16.9-3.17,28.65-9.85,47.16-20.29,9.3-5.25,22-12.46,36.53-25A194,194,0,0,0,423,285.15Z"
        class="cls-2" />
    <path
        d="M315.57,354.55a227.75,227.75,0,0,1-26.7,3.82c-12.06,1-18,.54-26.92.78-6,.16-25.93,1-46.11,6.78-9.37,2.69-26.75,7.67-43.59,20.92-22.47,17.68-32.19,40.8-36.36,53.79a107.17,107.17,0,0,1,20.81-29.2c17.85-17.68,37.77-24.55,55.1-30.32,17.49-5.82,23.08-5.2,48.62-11A544.32,544.32,0,0,0,315.57,354.55Z"
        class="cls-2" />
</svg>