<svg id="Camada_1" data-name="Camada 1" xmlns="http://www.w3.org/2000/svg" viewBox="0 0 595.28 595.28">
    <title>Savee</title>
    <rect id="Retângulo_651" data-name="Retângulo 651" width="595.28" height="594.64" class="cls-1" />
    <g id="rIMHuc.tif">
        <path
            d="M424.53,232.72H355.11c-.61-3.52-1.08-7.19-1.88-10.78-4.15-18.66-16.47-29.36-34.34-33.9-15.71-4-31.72-4.81-47.69-1.28a43.37,43.37,0,0,0-22.93,12.9c-9.32,10-9.88,21.65-5.84,33.8,2.3,6.92,8.51,10.58,14.85,12.83,13.38,4.75,26.93,9.13,40.62,12.88,24.2,6.65,48.84,11.79,72.77,19.28,24.39,7.63,44.24,22.54,56.47,45.45,17,31.79,12.31,89.61-36.12,118.61-23.71,14.19-49.71,20-77,21.42-32.44,1.66-64.29-1.24-93.94-15.48C181.69,430,160.2,399.74,159.2,356.26a46.79,46.79,0,0,1,.44-4.89h68.88c.63,4.73.94,9.44,1.92,14,4.12,19.05,16,31.81,33.87,38.31,26,9.49,52.46,9.52,78.34-.79,18.42-7.33,27-24.9,21.71-42.16-2.84-9.24-9.87-14.68-17.72-19.11-15.87-9-33.65-12.3-51-17.08-24-6.6-48.24-12.73-71.41-21.59-25.16-9.63-44.56-26.82-51.41-54.35-10.4-41.79,8.48-81.1,47.92-101.68,21.16-11,43.79-16,67.43-16.55,28-.69,55.48,2.47,81,14.73,35.49,17,54.59,45.19,55.48,85C424.7,230.88,424.6,231.63,424.53,232.72Z"
            class="cls-2" />
    </g>
</svg>