<svg id="Camada_1" data-name="Camada 1" xmlns="http://www.w3.org/2000/svg" viewBox="0 0 595.28 595.28">
    <title>Twitter</title>
    <rect id="Retângulo_651" data-name="Retângulo 651" width="595.28" height="594.64" class="cls-1" />
    <g id="cghpLm.tif">
        <path
            d="M123.42,411.14c39.21,3.7,74.11-5.89,105.41-29.59-32.94-2.65-54.9-19.2-66.53-49.61,10.55,1.38,20.88,1.28,31.26-1.44-35.56-10.5-54.53-34-56.65-71a77.14,77.14,0,0,0,32.18,8.47c-19.87-14.59-30.7-33.61-31.49-57.93a69.55,69.55,0,0,1,9.56-37.62c38.8,45.66,87.77,70.75,147.74,75-.13-1-.18-1.73-.32-2.4-8.55-41.74,21.7-82.08,64.27-85.49,22.11-1.77,41.11,5.39,57,20.88a3.37,3.37,0,0,0,3.51,1,143.83,143.83,0,0,0,42.06-16.18c.28-.16.58-.3,1.35-.7a69.93,69.93,0,0,1-11.9,22.35,74.7,74.7,0,0,1-18.67,16.73l.26.7c6.66-1.45,13.4-2.62,20-4.42s12.91-4.22,19.48-6.41c-.26.46-.53,1-.87,1.5a143,143,0,0,1-32.78,33.76,3.06,3.06,0,0,0-1.51,2.93c1.22,33.26-5.73,64.87-19.72,95a203.92,203.92,0,0,1-49.07,66.63,187.85,187.85,0,0,1-83.71,43.91c-50.43,11.79-99,6.81-145.39-16.93-4.57-2.34-8.94-5.06-13.39-7.62C124.87,412.27,124.39,411.85,123.42,411.14Z"
            class="cls-2" />
    </g>
</svg>