<svg id="Camada_1" data-name="Camada 1" xmlns="http://www.w3.org/2000/svg" viewBox="0 0 595.28 595.28">
    <defs>
        <style>
            .cls-1 {
                fill: #fce62f;
            }

            .cls-2,
            .cls-5 {
                fill: none;
                stroke: #010101;
                stroke-miterlimit: 10;
            }

            .cls-2 {
                stroke-width: 18.2px;
            }

            .cls-3 {
                isolation: isolate;
            }

            .cls-4 {
                fill: #010101;
            }

            .cls-5 {
                stroke-width: 30.34px;
            }
        </style>
    </defs>
    <title>SVG_corretos_site</title>
    <g id="Grupo_39" data-name="Grupo 39">
        <g id="Grupo_37" data-name="Grupo 37">
            <path id="Caminho_61" data-name="Caminho 61" class="cls-1"
                d="M74.89,169V426.24L297.64,554.85,520.39,426.24V169L297.64,40.43Z" />
        </g>
        <path id="Caminho_62" data-name="Caminho 62" class="cls-2"
            d="M50.9,155.18V440.09L297.64,582.54,544.37,440.09V155.18L297.64,12.73Z" />
    </g>
    <g id="Animação" class="cls-3">
        <g class="cls-3">
            <path class="cls-4"
                d="M200.54,433.07l-8.15,3.68-7.74-17H167.76l-7.87,17.1L152,433.07l21-45.51,5.34-2.27Zm-24.37-31.76-4.93,10.88h9.94Z" />
            <path class="cls-4"
                d="M210.48,402.11a28.48,28.48,0,0,1,4.41-1.2,27,27,0,0,1,5.14-.47q6.14,0,9.84,3.44t3.7,10.51V434H224.9V415.53a8.73,8.73,0,0,0-1.47-5.48,4.7,4.7,0,0,0-3.87-1.87,14.34,14.34,0,0,0-6.34,1.14V434h-8.68V399l5.94,3.2Z" />
            <path class="cls-4" d="M252.46,390.7l-7.94,8.14-7.94-8.14,7.94-8ZM248.59,434h-8.74V402.31l8.74-3.6Z" />
            <path class="cls-4"
                d="M265.51,401.08a17.56,17.56,0,0,1,4.71-.57,14.71,14.71,0,0,1,5.77.9,11.31,11.31,0,0,1,3.17,2,45.09,45.09,0,0,1,4.81-2,18.39,18.39,0,0,1,6.07-.87q6.21,0,9.18,3.67t3,9.68V434h-8.68V415.59a12.71,12.71,0,0,0-.93-5.24,3.55,3.55,0,0,0-3.54-2,9.55,9.55,0,0,0-3.34.53,10.32,10.32,0,0,0-2.67,1.54c.05.18.12.62.24,1.33a13.5,13.5,0,0,1,.16,2.07V434h-8.74V415.53q0-3.94-1.1-5.64a3.74,3.74,0,0,0-3.37-1.71,9.92,9.92,0,0,0-3.24.44,19.38,19.38,0,0,0-2.3,1V434h-8.75V399l6,3.27A35,35,0,0,1,265.51,401.08Z" />
            <path class="cls-4"
                d="M327.42,433.41c-.4.09-1,.19-1.67.3s-1.48.22-2.31.3-1.65.16-2.5.21-1.62.06-2.33.06a9.24,9.24,0,0,1-4.11-.93,11.65,11.65,0,0,1-3.34-2.47,12.61,12.61,0,0,1-2.27-3.41,9.3,9.3,0,0,1-.83-3.8,10.64,10.64,0,0,1,1.6-6.14,11.28,11.28,0,0,1,4.07-3.64,16.29,16.29,0,0,1,5.51-1.7,44.57,44.57,0,0,1,5.91-.4v-1.4a2.56,2.56,0,0,0-.9-2,3.54,3.54,0,0,0-2.44-.81,16.77,16.77,0,0,0-4.77.77,15.85,15.85,0,0,0-4.91,2.5l-3.54-7a22.18,22.18,0,0,1,7.38-3,35.93,35.93,0,0,1,6.84-.7,16.06,16.06,0,0,1,3.57.43,10.84,10.84,0,0,1,3.57,1.53,8.85,8.85,0,0,1,2.77,3,9.5,9.5,0,0,1,1.1,4.84v25.56ZM325.15,419a26.94,26.94,0,0,0-3,.16,9.65,9.65,0,0,0-2.63.67,4.45,4.45,0,0,0-1.87,1.44,3.86,3.86,0,0,0-.7,2.4,3.58,3.58,0,0,0,.76,2.3,2.35,2.35,0,0,0,1.91,1c.44,0,.94,0,1.5-.07s1.09-.1,1.6-.16,1-.15,1.44-.24a6.6,6.6,0,0,0,1-.26Z" />
            <path class="cls-4"
                d="M367.19,411c-1.29-.54-2.4-1-3.33-1.27s-1.77-.57-2.51-.77a14.2,14.2,0,0,0-1.93-.4,15.35,15.35,0,0,0-1.64-.1,7.93,7.93,0,0,0-6.14,2.57,9.71,9.71,0,0,0-2.33,6.78,9,9,0,0,0,2.37,6.6,8.6,8.6,0,0,0,6.44,2.41,15.65,15.65,0,0,0,3.84-.54,55.71,55.71,0,0,0,5.77-1.93l3.47,7a34.32,34.32,0,0,1-3.57,1.4c-1.23.4-2.43.74-3.61,1a31.69,31.69,0,0,1-3.33.64,22.93,22.93,0,0,1-2.77.2,19.88,19.88,0,0,1-7.11-1.24,16.18,16.18,0,0,1-5.54-3.44,15.61,15.61,0,0,1-3.61-5.27,17.23,17.23,0,0,1-1.3-6.74,18.82,18.82,0,0,1,1.3-7.08,16.39,16.39,0,0,1,3.61-5.5,15.8,15.8,0,0,1,5.51-3.57,18.54,18.54,0,0,1,6.94-1.27,22.64,22.64,0,0,1,5.84,1,50.21,50.21,0,0,1,7,2.5ZM360,435.83a4.67,4.67,0,0,1,2.53,1.95,6.38,6.38,0,0,1,1,3.68,5.79,5.79,0,0,1-2.7,5.26,13.36,13.36,0,0,1-7.37,1.65,7.28,7.28,0,0,1-1.07-.11c-.45-.06-.92-.14-1.4-.23l-1.41-.27-1.06-.2,1.26-5.76a24.15,24.15,0,0,0,3,.4,20.86,20.86,0,0,0,2.24,0c1.25-.09,1.87-.51,1.87-1.27,0-.54-.47-.9-1.4-1.08a12.26,12.26,0,0,0-3.21-.13l2.07-7.71h6.41Z" />
            <path class="cls-4"
                d="M394.43,433.41c-.4.09-1,.19-1.67.3s-1.48.22-2.31.3-1.65.16-2.5.21-1.62.06-2.33.06a9.24,9.24,0,0,1-4.11-.93,11.65,11.65,0,0,1-3.34-2.47,12.61,12.61,0,0,1-2.27-3.41,9.3,9.3,0,0,1-.83-3.8,10.64,10.64,0,0,1,1.6-6.14,11.28,11.28,0,0,1,4.07-3.64,16.29,16.29,0,0,1,5.51-1.7,44.57,44.57,0,0,1,5.91-.4v-1.4a2.56,2.56,0,0,0-.9-2,3.52,3.52,0,0,0-2.44-.81,16.77,16.77,0,0,0-4.77.77,15.85,15.85,0,0,0-4.91,2.5l-3.54-7a22.18,22.18,0,0,1,7.38-3,35.93,35.93,0,0,1,6.84-.7,16.06,16.06,0,0,1,3.57.43,10.84,10.84,0,0,1,3.57,1.53,8.85,8.85,0,0,1,2.77,3,9.5,9.5,0,0,1,1.1,4.84v25.56Zm7.47-48.12c0,1.47,0,2.64-.13,3.51a11.44,11.44,0,0,1-.4,2.13,5.65,5.65,0,0,1-.67,1.44c-.27.4-.6.86-1,1.4a7.68,7.68,0,0,1-5.87,2.33,8.43,8.43,0,0,1-2.67-.46c-.94-.31-1.87-.65-2.81-1l-2.77-1a6.77,6.77,0,0,0-2.37-.5c-.26,0-.52.31-.76.93a2.2,2.2,0,0,0,.36,2.07H375.6q0-5.21,1.91-8c1.26-1.86,3.34-2.8,6.24-2.8a11.48,11.48,0,0,1,3.2.47,27.35,27.35,0,0,1,3.14,1.13l2.13,1a4.49,4.49,0,0,0,1.94.47c.22,0,.39-.31.5-.93a5.46,5.46,0,0,0-.1-2.14ZM392.16,419a26.94,26.94,0,0,0-3,.16,9.65,9.65,0,0,0-2.63.67,4.51,4.51,0,0,0-1.87,1.44,3.86,3.86,0,0,0-.7,2.4,3.58,3.58,0,0,0,.76,2.3,2.35,2.35,0,0,0,1.91,1c.44,0,.94,0,1.5-.07s1.09-.1,1.6-.16,1-.15,1.44-.24a6.6,6.6,0,0,0,1-.26Z" />
            <path class="cls-4"
                d="M440.28,424.47a16.32,16.32,0,0,1-9.15,9,18,18,0,0,1-6.87,1.3A17.39,17.39,0,0,1,412,429.88a16.45,16.45,0,0,1-3.67-5.41,17.72,17.72,0,0,1,0-13.52,16.86,16.86,0,0,1,9.14-9,17.73,17.73,0,0,1,6.81-1.3,18.18,18.18,0,0,1,6.87,1.3,16.33,16.33,0,0,1,5.51,3.61,17.52,17.52,0,0,1,3.64,18.92ZM432,414a8.75,8.75,0,0,0-4.41-4.9,7.39,7.39,0,0,0-3.3-.73,7.72,7.72,0,0,0-3.27.7,7.84,7.84,0,0,0-2.67,2,9.23,9.23,0,0,0-1.77,3,11.21,11.21,0,0,0,0,7.41,8.29,8.29,0,0,0,4.44,4.81,8.06,8.06,0,0,0,6.57,0,8.72,8.72,0,0,0,2.64-1.9,8.51,8.51,0,0,0,1.77-2.91,11.21,11.21,0,0,0,0-7.41Z" />
        </g>
    </g>
    <path id="Caminho_609" data-name="Caminho 609" class="cls-5"
        d="M357.35,147H243.1L186,246,243.1,344.9H357.35L414.47,246Z" />
</svg>