<svg id="Camada_1" data-name="Camada 1" xmlns="http://www.w3.org/2000/svg" viewBox="0 0 595.28 4806.72">
    <title>A</title>
    <path d="M596.16,595.72H-.41V-.85H596.16ZM1.36,594h593V.92H1.36Z" class="cls-4" />
    <rect x="0.48" width="594.8" height="4806.72" class="cls-4" />
    <circle cx="330.36" cy="244.44" r="169.81" class="cls-1" />
    <path d="M95.55,520.2q36.48-163.35,73-326.7L313.69,295.63Z" class="cls-1" />
    <polygon points="217.17 281.16 95.55 520.2 214.65 279.89 217.17 281.16" class="cls-4" />
    <path
        d="M214.56,282a122.4,122.4,0,0,1,3.21-83.33,121.37,121.37,0,0,1,138.45-72.62A120.81,120.81,0,1,1,303.76,361.9a119.52,119.52,0,0,1-38.6-16.31,125,125,0,0,0,18.61,9.78,123.4,123.4,0,0,0,20,6.37,121.13,121.13,0,0,0,41.8,1.86,119.82,119.82,0,0,0,73-37.93,121.28,121.28,0,0,0,22.44-35.21,120.06,120.06,0,0,0,9-40.76,121.31,121.31,0,0,0-5.5-41.33A119.4,119.4,0,0,0,220,199.58a119.74,119.74,0,0,0-2.83,81.57Z"
        class="cls-4" />
    <path d="M430,119.61l-31.68,143-60-44.27Z" class="cls-4" />
    <circle cx="330.36" cy="244.44" r="70.35" class="cls-4" />
    <rect x="0.48" y="594.84" width="594.8" height="594.8" fill="none" />
    <path
        d="M203.86,696.82c-3.89.26-7.78.47-11.67.68s-7.79.43-11.68.6l-11.67.55q-5.84.3-11.67.53l2-.94c-7,9.47-13.88,19-20.93,28.38l-10.56,14.11L117,754.79q-10.64,14.06-21.38,28L74.1,810.67l0-8.12q29.1,34.74,57.67,69.93t56.68,70.73q28.08,35.58,55.55,71.66L257.64,1033l13.55,18.19c9,12.15,17.93,24.35,26.69,36.71-10.32-11.08-20.46-22.31-30.53-33.59l-15-17-14.94-17.06q-29.76-34.22-58.86-69T120.78,881.4Q92.21,846.23,64,810.71l-3.3-4.18L64,802.59l22.5-27.11q11.3-13.53,22.68-27l11.41-13.43,11.47-13.38c7.64-8.93,15.41-17.75,23.14-26.61l.86-1,1.1,0c3.89.17,7.78.33,11.68.55l11.67.64q5.83.31,11.68.7C196.09,696.28,200,696.53,203.86,696.82Z"
        class="cls-1" />
    <path
        d="M391.82,696.65c3.9-.27,7.79-.5,11.68-.73s7.79-.47,11.69-.65l11.68-.6c3.9-.21,7.79-.38,11.69-.54l1.12,0,.87,1c7.72,8.87,15.49,17.69,23.13,26.62l11.47,13.38,11.41,13.43q11.4,13.44,22.68,27l22.5,27.12,3.27,3.94-3.3,4.18Q503.62,846.27,475,881.4t-57.72,69.88q-29.13,34.72-58.87,69l-14.93,17.06-15.05,17q-15.11,16.92-30.52,33.59c8.75-12.35,17.68-24.56,26.68-36.71L338.11,1033l13.67-18.09q27.45-36.09,55.55-71.66T464,872.48q28.64-35.13,57.67-69.93l0,8.13L500.09,782.8q-10.72-14-21.37-28L468.1,740.72l-10.56-14.11c-7.05-9.41-14-18.91-20.93-28.38l2,.94c-3.9-.16-7.79-.32-11.69-.53l-11.7-.6q-5.85-.28-11.69-.65C399.62,697.15,395.72,696.93,391.82,696.65Z"
        class="cls-1" />
    <path
        d="M271.78,819c-4.34-6.09-15.78-7.51-24.13-5.81-9.4,1.92-15.13,7.86-18.76,11.62a27,27,0,0,0-6.7,9.83,22.5,22.5,0,0,0-.89,13.85,20.6,20.6,0,0,0,7.14,11.17c6,4.63,12.74,4.18,15.19,4a29.11,29.11,0,0,0,13.85-4.92c3-2,3.68-3.21,7.6-5.36s4.74-1.69,7.59-3.57a18.13,18.13,0,0,0,7.15-8c.61-1.43,2.39-5.61.9-9.83-.9-2.53-2.16-2.8-5.81-8C272.93,821.1,272.55,820.11,271.78,819Z"
        class="cls-1" />
    <path
        d="M346.17,813.21c-8.35-1.7-19.78-.28-24.12,5.81-.78,1.09-1.15,2.08-3.13,4.92-3.65,5.24-4.92,5.51-5.81,8-1.49,4.22.29,8.4.9,9.83a18.12,18.12,0,0,0,7.14,8c2.85,1.88,3.6,1.38,7.6,3.57s4.58,3.39,7.59,5.36a29.16,29.16,0,0,0,13.85,4.92c2.46.16,9.22.61,15.19-4a20.63,20.63,0,0,0,7.15-11.17,22.57,22.57,0,0,0-.89-13.85,27.13,27.13,0,0,0-6.7-9.83C361.3,821.07,355.57,815.13,346.17,813.21Z"
        class="cls-1" />
    <path
        d="M190.87,889.84c4-4,9.85-20.25,11.75-36.11a98.93,98.93,0,0,0,.65-14c-.81,1-1.62,2.13-2.43,3.31-.13,2.6-.35,4.89-.57,6.78-1.94,16.18-8,32.73-12,36.84a9.73,9.73,0,0,0-2.52,4.18c-.74,2.62,0,4.83,1.45,9.16a26.87,26.87,0,0,0,3.11,6.87,22,22,0,0,0,3.52,4.2l.09.08c-.35-.45-.71-.95-1.07-1.5a26.48,26.48,0,0,1-3.05-6.73c-1.42-4.24-2.14-6.41-1.42-9A9.58,9.58,0,0,1,190.87,889.84Z"
        class="cls-1" />
    <path
        d="M403,889.84c-3.95-4-9.84-20.25-11.74-36.11a98.7,98.7,0,0,1-.66-14c.81,1,1.63,2.13,2.44,3.31.13,2.6.34,4.89.57,6.78,1.93,16.18,7.95,32.73,12,36.84a9.83,9.83,0,0,1,2.52,4.18c.74,2.62,0,4.83-1.45,9.16a26.87,26.87,0,0,1-3.11,6.87,22.36,22.36,0,0,1-3.52,4.2l-.09.08c.35-.45.71-.95,1.07-1.5a26.43,26.43,0,0,0,3-6.73c1.42-4.24,2.15-6.41,1.42-9A9.48,9.48,0,0,0,403,889.84Z"
        class="cls-1" />
    <path
        d="M189.64,869.62a21.24,21.24,0,0,1-2.51-6.8c-.48-2.41-.27-5-.44-7.22s-.57-4.71-.91-7.08-.69-4.74-1.09-7.09-.84-4.69-1.28-7-.9-4.81-1.23-7.21c-.67-4.83-1.1-9.68-1.36-14.55a133.57,133.57,0,0,1,.11-14.7,101.47,101.47,0,0,1,1.9-14.74,90,90,0,0,1,10.87-28,97.41,97.41,0,0,1,19.53-22.9l2.9-2.42,3-2.31c2.05-1.53,4.17-2.93,6.31-4.25a112.68,112.68,0,0,1,13.3-7,133.57,133.57,0,0,1,28.52-9c4.88-1,9.8-1.68,14.73-2.2q3.7-.37,7.41-.6c1.24-.08,2.47-.12,3.71-.18s2.54-.09,3.81-.11c2.57,0,5,.15,7.5.3s4.94.34,7.41.6c4.93.51,9.85,1.23,14.73,2.2a132.86,132.86,0,0,1,28.53,9,113.6,113.6,0,0,1,13.31,7c2.14,1.32,4.25,2.72,6.3,4.24l3,2.32,2.91,2.42a96.83,96.83,0,0,1,19.53,22.91,90.15,90.15,0,0,1,10.88,28,104.31,104.31,0,0,1,1.9,14.74,136.08,136.08,0,0,1,.1,14.7c-.26,4.87-.69,9.72-1.36,14.55-.33,2.4-.75,4.86-1.23,7.21s-.89,4.67-1.29,7-.74,4.72-1.09,7.09-.71,4.75-.91,7.08,0,4.81-.45,7.22a21,21,0,0,1-2.5,6.8,22.27,22.27,0,0,0,1.64-6.91c.19-2.36-.27-4.63-.38-7.15s.11-4.86.21-7.27.23-4.8.4-7.22.38-4.83.66-7.23.49-4.69.63-7.07c.28-4.71.31-9.46.18-14.18a139.68,139.68,0,0,0-1-14.05,96.82,96.82,0,0,0-2.64-13.65,91.65,91.65,0,0,0-4.58-13,83.64,83.64,0,0,0-6.54-12,85.8,85.8,0,0,0-8.52-10.66,96.88,96.88,0,0,0-10-9.36l-2.69-2.1-2.77-2c-1.84-1.27-3.75-2.49-5.72-3.64A101,101,0,0,0,350.83,726a125.55,125.55,0,0,0-26.38-7.89c-4.53-.86-9.12-1.52-13.73-2-2.31-.23-4.62-.4-6.94-.53s-4.65-.2-6.87-.25l-3.39.08c-1.16,0-2.32.08-3.48.15-2.32.14-4.63.31-6.94.54-4.61.44-9.19,1.11-13.73,2A126.92,126.92,0,0,0,243,726a102.4,102.4,0,0,0-12.26,6.14c-2,1.15-3.89,2.36-5.73,3.64l-2.77,2-2.69,2.1a97,97,0,0,0-10,9.36,78,78,0,0,0-15.06,22.66,91.65,91.65,0,0,0-4.58,13,96.8,96.8,0,0,0-2.63,13.65,136.81,136.81,0,0,0-1,14.05c-.13,4.72-.09,9.47.19,14.18.13,2.38.34,4.68.63,7.07s.48,4.82.65,7.23.29,4.83.41,7.22.25,4.8.21,7.27-.57,4.79-.37,7.15A22,22,0,0,0,189.64,869.62Z"
        class="cls-1" />
    <polygon
        points="213.33 1608.61 50.39 1608.61 50.39 1362.77 184.68 1362.77 184.65 1460.37 168.64 1460.36 168.66 1378.79 66.4 1378.79 66.4 1592.59 197.32 1592.59 197.32 1485.76 213.34 1485.76 213.33 1608.61"
        class="cls-1" />
    <polygon
        points="75.91 1577.83 75.91 1393.62 150.4 1393.62 150.4 1409.63 91.92 1409.63 91.92 1561.81 184.65 1561.79 184.66 1577.8 75.91 1577.83"
        class="cls-1" />
    <rect x="100.3" y="1484.52" width="82.61" height="16.02" class="cls-1" />
    <rect x="197.32" y="1362.71" width="16.02" height="97.65" class="cls-1" />
    <path
        d="M244.41,1396.25c0-4.49,0-10.92,5.25-15.76,3.87-3.53,8.43-4,13.34-4,9.61,0,16.45,5.87,16.45,15.69H268.39c-.21-4.49-2.49-6.57-6.29-6.57-5.81,0-6.22,5-6.22,8v16c0,6.64,1.24,10.71,6.7,10.71,5.81,0,5.81-4.77,5.81-6.63v-3.46h-5.94v-8.43h17v27.1h-5l-1.45-3.53h-.48c-1.45,1.73-3.73,4.35-11.55,4.35-5.11,0-9.81-1.45-13.13-5.59-2.76-3.53-3.45-7.75-3.45-14Z"
        class="cls-1" />
    <path
        d="M304.33,1390.51c4.08,0,9.34.35,12.59,5.6,1.79,3,2.28,7.12,2.28,13.69,0,7.53-.14,11.82-3.94,15.55-1.25,1.17-3.53,3.46-10,3.46-2.21,0-6.08-.14-8.43-1.46-6.15-3.45-6.5-9.47-6.5-18.38C290.3,1402.06,290.3,1390.51,304.33,1390.51Zm-4.21,21.84a41.4,41.4,0,0,0,.48,5.88,4,4,0,0,0,4.22,3.32c4.63,0,4.63-3.25,4.63-13.14,0-5.73,0-10.57-4.56-10.57-4.77,0-4.77,4.49-4.77,7.33Z"
        class="cls-1" />
    <path d="M328.74,1377.52h9.74v50.73h-9.74Z" class="cls-1" />
    <path
        d="M366.2,1396.11v-18.59H376v50.73h-9.13v-5.94h-.41c-3.32,5.6-6.5,6.5-10.09,6.5-6.5,0-8.51-5.19-9.06-8.3a56,56,0,0,1-.48-8.92c0-6.7,0-10.85.76-14.24.83-3.87,3.59-6.77,8.64-6.77,6.08,0,8.36,3.6,9.61,5.53Zm0,4.91c-.83-.76-3.25-2.77-5.67-2.77-3.73,0-3.73,3.6-3.73,9.68a78.61,78.61,0,0,0,.21,8.57c.48,3,2.07,3.73,3.73,3.73a7.36,7.36,0,0,0,5.46-2.83Z"
        class="cls-1" />
    <path
        d="M245.17,1477.54c0-11.61,6.22-18.18,18-18.18,3,0,7.6.62,11.13,3.39,4.56,3.59,5.11,9.81,5.25,13.89H268.46c-.07-2.49-.21-8-5.74-8a6.55,6.55,0,0,0-4.21,1.59c-1.8,1.66-1.87,4.15-1.87,5.53V1495c0,2.76,0,8.08,6.15,8.08,4.56,0,5.95-3.73,5.95-9.19h11.19a31,31,0,0,1-.48,6.22,14.1,14.1,0,0,1-5.32,9.06c-3.6,2.9-8.85,3.38-11.06,3.38-5.88,0-9.95-1.38-13.13-4.49-2.08-2-4.77-4.91-4.77-15.28Z"
        class="cls-1" />
    <path
        d="M290.3,1460.47h9.75v14.86l-.14,5h.42c2.76-4.9,6.36-6.63,10.16-6.63a8.22,8.22,0,0,1,7.12,3.59c1.66,2.49,1.66,5.32,1.66,7.61v26.33h-9.68v-23.57c0-2.21-.07-5.46-3.32-5.46-2.28,0-3.52,1.18-6.22,3.59v25.44H290.3Z"
        class="cls-1" />
    <path
        d="M326,1478.51c3.11-2.42,6.22-4.84,14-4.84,2.56,0,8,.62,11,3.59a9.37,9.37,0,0,1,2.77,7.47v18c0,.21.28,2.21,2.14,2.28v6.64h-2.83a8,8,0,0,1-7.54-4.57h-.27a10.77,10.77,0,0,1-3.39,3.25,13.3,13.3,0,0,1-6.36,1.87c-3.87,0-9.82-2-9.82-10.44,0-3.39,1.25-8.78,7.88-11.82a30.79,30.79,0,0,1,10.51-2.56c0-3.59,0-4.63-.69-5.59a4.93,4.93,0,0,0-4-1.59c-4.22,0-6.84,2.28-8.85,4Zm18,14c-2.14.41-9.12,1.73-9.12,8,0,2.49,1.52,4.49,3.87,4.49,4.42,0,5.25-4.42,5.25-6.84Z"
        class="cls-1" />
    <path d="M362.54,1474.57h9.26v8.29h.28c3.45-8,7.39-9.12,10.92-9.26v12.65c-4.08,0-6.64,0-10.58,3.32v21.63h-9.88Z"
        class="cls-1" />
    <path
        d="M390.33,1474.57H399v6.84h.27c3.74-7.26,8.92-7.74,10.58-7.74,6.22,0,7.46,4.91,7.95,6.84h.34c1.8-2.63,4.77-6.84,11.06-6.84,3.67,0,6.71,1.86,7.88,5.32.76,2.21.9,6.71.9,9.12v23.09h-9.47v-25c0-1.73-.41-4-3.59-4-1.39,0-2.91.34-6,3.39v25.57H409.4v-24c0-1.52,0-5-3.45-5-2,0-3.6,1.31-6.15,3.59v25.44h-9.47Z"
        class="cls-1" />
    <path d="M457.38,1468.48h-9.54v-8.29h9.54Zm-9.54,6.09h9.54v36.63h-9.54Z" class="cls-1" />
    <path
        d="M467,1474.57h9v6.77h.21c2.14-3.94,5.67-7.53,10.51-7.53,9.26,0,9.26,7.81,9.26,10.57v26.82H486.2v-23.91c0-1.46.07-5-3.18-5-2.76,0-4.42,1.8-6.29,3.8v25.09H467Z"
        class="cls-1" />
    <path
        d="M511.78,1513.76c1,1.24,2.56,3.39,5.87,3.39,1.59,0,4.57-.69,5.67-3.11a10.48,10.48,0,0,0,.55-4.22v-5.53h-.34a11.23,11.23,0,0,1-9.89,5.25,8.81,8.81,0,0,1-8-5.6,19.23,19.23,0,0,1-.76-6.36v-10.23c0-3.52,0-14,9.26-14A9.58,9.58,0,0,1,521,1476a13.31,13.31,0,0,1,3.25,4.28h.28v-6.22h9.12v31.11c0,7-.07,18-15.28,18-8.29,0-11.68-3.66-12.58-5.88Zm12.09-28.62c-.83-1.17-3.66-2.35-5.18-2.35a3.41,3.41,0,0,0-3.59,2.42,29,29,0,0,0-.7,6.36c0,1.31.21,6.5.7,7.81a3.63,3.63,0,0,0,3.59,2.63,7.21,7.21,0,0,0,5.18-2.63Z"
        class="cls-1" />
    <path d="M245.93,1543.42h11.26v19.21h14.24v-19.21h11.41v50.73h-11.2v-21.91H257.26v21.91H245.93Z" class="cls-1" />
    <path
        d="M308.14,1556.41c4.07,0,9.33.35,12.58,5.6,1.79,3,2.28,7.12,2.28,13.69,0,7.53-.14,11.82-3.94,15.55-1.25,1.17-3.53,3.45-10,3.45-2.22,0-6.09-.13-8.44-1.45-6.15-3.45-6.5-9.47-6.5-18.38C294.1,1568,294.1,1556.41,308.14,1556.41Zm-4.22,21.84a41.4,41.4,0,0,0,.48,5.88,4,4,0,0,0,4.22,3.32c4.63,0,4.63-3.25,4.63-13.14,0-5.73,0-10.57-4.56-10.57-4.77,0-4.77,4.49-4.77,7.32Z"
        class="cls-1" />
    <path
        d="M361.43,1557.52v36.63h-8.85v-6.22h-.41c-2.08,3.46-4.7,7.12-10.58,7.12-8.71,0-9-7.19-9-9.75v-27.78h9.67v23.84c0,2.49.56,5.12,3.32,5.12a7.75,7.75,0,0,0,3.11-1,9.8,9.8,0,0,0,3.11-2.83v-25.16Z"
        class="cls-1" />
    <path
        d="M388.87,1566.29c-3.24-2.21-4.83-3-7.12-3s-3.73,1-3.73,2.84c0,2,2.08,3,4.91,4.21,5.18,2.35,11.2,5.26,11.2,13.07,0,9.33-8.37,11.68-12.44,11.68a18.14,18.14,0,0,1-12.31-4.56l4.36-6.64c1.86,1.94,4.07,4.15,7.74,4.15,2.9,0,3.8-1.94,3.8-3.25,0-2.07-1.45-2.7-4.36-4.08-8-3.73-11.47-7.12-11.47-12.86a10.76,10.76,0,0,1,5.18-9.53,12.91,12.91,0,0,1,7.4-1.8,18.56,18.56,0,0,1,11,3.73Z"
        class="cls-1" />
    <path
        d="M409.2,1577.84c-.07,3.73-.07,10,6.7,10,3,0,5.39-.55,9.75-2.69l1,7.32c-3.73,1.32-6.77,2.42-11.61,2.42-4.49,0-11.89-1-14.1-9.4a43.73,43.73,0,0,1-.9-7.33c0-6.42,0-12.44,2.49-16.52,2.83-4.7,8.23-5.18,11.2-5.18,5.94,0,8.78,2.49,10.57,5.18,2.22,3.25,2.22,6.71,2.22,16.18Zm9.33-5.46c0-5.53-.07-9.75-4.91-9.75-4.56,0-4.49,5.12-4.42,9.75Z"
        class="cls-1" />
    <path d="M148.7,2093.88l-60.61-5.37q38.16-86.12,76.34-172.24Z" class="cls-1" />
    <path d="M122.74,2051.42l60.61,5.36L106,2240.68Z" class="cls-1" />
    <path
        d="M275.37,2031.71a51.58,51.58,0,0,1-1.2,12,18.85,18.85,0,0,1-3.84,8,14.53,14.53,0,0,1-6.84,4.41,33.74,33.74,0,0,1-10.14,1.33H232.66V1956.16h20.56a26.28,26.28,0,0,1,8.34,1.24,16.09,16.09,0,0,1,6.44,3.93,18,18,0,0,1,4.17,6.91,31.12,31.12,0,0,1,1.47,10.21V1985a41.28,41.28,0,0,1-.57,7.08,19.58,19.58,0,0,1-1.9,5.8,13.65,13.65,0,0,1-3.51,4.31,12.85,12.85,0,0,1-5.3,2.5,13.64,13.64,0,0,1,5.34,2.34,16.33,16.33,0,0,1,4.1,4.3,20.62,20.62,0,0,1,2.64,5.88,26.1,26.1,0,0,1,.93,7.1ZM266,1978.85a26.51,26.51,0,0,0-.66-5.94,13.8,13.8,0,0,0-2.21-5,11.33,11.33,0,0,0-4-3.44,12.64,12.64,0,0,0-6-1.3H240.27v38.24h11.81a18,18,0,0,0,6.48-1,10.15,10.15,0,0,0,4.3-3.07,12.81,12.81,0,0,0,2.37-5,29.16,29.16,0,0,0,.73-6.88Zm1.74,45.45a18.47,18.47,0,0,0-1-6.2,15.08,15.08,0,0,0-2.93-5.08,14.45,14.45,0,0,0-4.57-3.4,13.75,13.75,0,0,0-5.94-1.27H240.27v42h13.15a29.78,29.78,0,0,0,5.74-.53,9.15,9.15,0,0,0,4.63-2.44,12.1,12.1,0,0,0,3-5.57,35.56,35.56,0,0,0,.9-10Z"
        class="cls-1" />
    <path
        d="M291.39,2057.61V1956.23h20.69a32.84,32.84,0,0,1,10.15,1.37,14.9,14.9,0,0,1,6.84,4.43,19.07,19.07,0,0,1,3.83,8,51.68,51.68,0,0,1,1.21,12v9.67a23.64,23.64,0,0,1-3.44,12.78,20.81,20.81,0,0,1-9.51,8.18,25,25,0,0,1,4.17,3.3,17.47,17.47,0,0,1,3,4,24.49,24.49,0,0,1,2,5.14,41.67,41.67,0,0,1,1.2,6.54l1.73,14.75a32.38,32.38,0,0,0,1.21,6,34.31,34.31,0,0,0,2,5.18h-8.14a39.59,39.59,0,0,1-1.64-4.88,43,43,0,0,1-1.17-6.07l-1.73-14.75a27,27,0,0,0-2-7.71,18.35,18.35,0,0,0-3.41-5.3,13.35,13.35,0,0,0-4.17-3.07,10.09,10.09,0,0,0-4.2-1H299v42.78Zm35-75.62a36.34,36.34,0,0,0-1.1-10,13.13,13.13,0,0,0-3-5.57,8.56,8.56,0,0,0-4.51-2.41,30.37,30.37,0,0,0-5.67-.5H299v44h12.88a14.19,14.19,0,0,0,6-1.23,13.64,13.64,0,0,0,4.54-3.37,15.72,15.72,0,0,0,2.9-5,19.17,19.17,0,0,0,1.1-6.21Z"
        class="cls-1" />
    <path d="M349.92,2057.61V1956.23l37.51-.07v7.21l-29.9.13v38.31h25.3V2009h-25.3v41.38h29.9v7.21Z" class="cls-1" />
    <path
        d="M434.88,2057.61l-4.6-24.56h-26.9l-4.6,24.56H391l19.95-101.52h11.82l19.95,101.52ZM404.72,2026h24.22l-11.74-62.8h-.67Z"
        class="cls-1" />
    <path d="M453.3,2057.61V1956.16H461v46.72h9.34l20.29-46.65H499l-21.42,50L501,2057.61h-8.41l-22.09-47.46H461v47.46Z"
        class="cls-1" />
    <path
        d="M257,2081.27a29.49,29.49,0,0,1,12.27,2.35,19,19,0,0,1,7.61,6.21,24.34,24.34,0,0,1,3.85,9.17,55.74,55.74,0,0,1,1.09,11.24v45.82a55.6,55.6,0,0,1-1.09,11.24,23.85,23.85,0,0,1-3.89,9.17,19.15,19.15,0,0,1-7.63,6.21,29.24,29.24,0,0,1-12.41,2.28H232.32V2081.27Zm.21,88.08q4.83-.13,6.68-3.68t1.84-9.68v-45.75a33.12,33.12,0,0,0-.41-5.42,12.52,12.52,0,0,0-1.4-4.15,7.16,7.16,0,0,0-2.62-2.7,8.63,8.63,0,0,0-4.09-1h-8.73v72.4Z"
        class="cls-1" />
    <path
        d="M318.08,2079.91s0-.07.06-.07q7.64,0,12.51,2.35a19.2,19.2,0,0,1,7.64,6.34,24.64,24.64,0,0,1,3.82,9.31,57.57,57.57,0,0,1,1.05,11.18v48.13a58.08,58.08,0,0,1-1.05,11.25,24.38,24.38,0,0,1-3.85,9.3,19.34,19.34,0,0,1-7.67,6.31,29.12,29.12,0,0,1-12.45,2.32l-.06-.07v.07q-7.63,0-12.51-2.36a19.35,19.35,0,0,1-7.67-6.34,24.07,24.07,0,0,1-3.85-9.3,56.86,56.86,0,0,1-1.06-11.18V2109a56.76,56.76,0,0,1,1.06-11.22,23.8,23.8,0,0,1,3.88-9.27,19.75,19.75,0,0,1,7.7-6.34q4.88-2.36,12.45-2.35Zm0,90.74a.31.31,0,0,1,.13,0,.35.35,0,0,0,.14,0,8.36,8.36,0,0,0,4.57-1.22,7.79,7.79,0,0,0,2.62-3,12.81,12.81,0,0,0,1.19-4.33,45.87,45.87,0,0,0,.28-5v-48c0-1.69-.08-3.34-.24-5a12.88,12.88,0,0,0-1.16-4.36,7.48,7.48,0,0,0-2.66-3.07,8.62,8.62,0,0,0-4.81-1.16.71.71,0,0,1-.34-.07,8.38,8.38,0,0,0-4.56,1.23,7.39,7.39,0,0,0-2.59,3,13.29,13.29,0,0,0-1.16,4.33,43.83,43.83,0,0,0-.28,5.05v48q0,2.52.24,5a12.94,12.94,0,0,0,1.16,4.36,7.61,7.61,0,0,0,2.66,3.07A8.62,8.62,0,0,0,318.08,2170.65Z"
        class="cls-1" />
    <path
        d="M437.65,2081.2,424.22,2185H403.36l-9-77.37-9,77.37H364.5L351.07,2081.2h16.3l8.11,79.36,8.79-79.36h20.18l8.73,79.36,8.11-79.36Z"
        class="cls-1" />
    <path d="M448.15,2185V2081.27H468.4l18.47,66.54-.54-66.54h16.15l.21,103.69H483.8l-20-68.17.61,68.17Z"
        class="cls-1" />
    <path
        d="M97,2080.49q6.57-16.59,13.49-33c4.59-11,9.29-21.91,14-32.83s9.53-21.79,14.42-32.64,9.86-21.66,15-32.41q-6.56,16.61-13.48,33c-4.6,11-9.3,21.91-14,32.82s-9.54,21.8-14.43,32.64S102.07,2069.74,97,2080.49Z"
        class="cls-4" />
    <rect x="232.31" y="2065.5" width="270.47" height="9.05" class="cls-1" />
    <path d="M171.45,1958.89l.69-2.8,29.86-.44c-.22.93-.43,1.86-.65,2.79Z" class="cls-1" />
    <path d="M176.68,2025.51l3.16-.21,8.79-67.2-3-.2Z" class="cls-1" />
    <polygon
        points="278.22 2070.03 300.55 2069.78 322.88 2069.63 367.55 2069.51 412.21 2069.63 434.55 2069.77 456.88 2070.03 434.55 2070.28 412.21 2070.42 367.55 2070.54 322.88 2070.42 300.55 2070.28 278.22 2070.03"
        class="cls-4" />
    <path
        d="M212.8,2647.76l-2.23-6.29,110.15-39.09c4.12-2.79,11.11-8.71,14.16-18.28,3.91-12.23-.86-23-2.65-27.08-3.36-7.61-7.11-10.65-13.91-16.17A200.06,200.06,0,0,1,297,2521.31c-16.79-17.75-19.7-26.32-20.34-32.93a42,42,0,0,1,5.46-24.26,35.51,35.51,0,0,1,14.54-14c11.72-5.95,23.29-3.08,27.72-1.57a37.66,37.66,0,0,1,17.65,12.77l-5.3,4.07a31,31,0,0,0-14.5-10.52c-3.63-1.23-13.09-3.59-22.54,1.21a29.09,29.09,0,0,0-11.84,11.51,34.9,34.9,0,0,0-4.54,20.18c.33,3.39,1,10.46,18.54,29a192.56,192.56,0,0,0,20.64,19c7.1,5.76,11.8,9.57,15.81,18.65,1.88,4.25,7.58,17.17,2.9,31.81-3.76,11.78-12.37,18.86-17.16,22l-.34.22Z"
        class="cls-1" />
    <path
        d="M340.48,2588.08l-5.69-3.48c14.47-23.65,11.62-40.13,8.63-47.85a60.66,60.66,0,0,0-18.78-24.95c-2.3-1.77-4.62-3.25-6.85-4.68-5.83-3.73-11.32-7.25-14.7-14.62a30.42,30.42,0,0,1-2.51-15.1l.15-2.12,2-.76a31.29,31.29,0,0,0,9.42-5.52c.65-.55,1.18-1.06,1.69-1.56a26.76,26.76,0,0,1,4.37-3.57,32.31,32.31,0,0,1,18.91-5.12l-.29,6.67a26,26,0,0,0-8.23,1,25,25,0,0,0-6.74,3.06,20.15,20.15,0,0,0-3.38,2.78c-.55.53-1.17,1.13-1.95,1.8a37.39,37.39,0,0,1-9.35,5.86,23.29,23.29,0,0,0,2,9.81c2.56,5.58,6.83,8.31,12.23,11.77,2.36,1.51,4.79,3.07,7.32,5a67.64,67.64,0,0,1,20.94,27.82C353.08,2543.21,356.46,2562,340.48,2588.08Z"
        class="cls-1" />
    <path
        d="M315.33,2469.06a20.4,20.4,0,0,1-1-11.9,20.1,20.1,0,0,1,4.12-8.4l5.15,4.25a13.42,13.42,0,0,0-2.75,5.6,13.66,13.66,0,0,0,.69,8Z"
        class="cls-1" />
    <path
        d="M276.76,2568.81l-5.29-4.07a69.16,69.16,0,0,0,10.27-18.67,72.13,72.13,0,0,0,2.08-41l6.5-1.54a78.7,78.7,0,0,1-2.3,44.84A75.87,75.87,0,0,1,276.76,2568.81Z"
        class="cls-1" />
    <rect x="226.46" y="2562.8" width="107.39" height="6.68" transform="translate(-847.18 243.93) rotate(-19.66)"
        class="cls-1" />
    <rect x="208.48" y="2588.9" width="133.36" height="6.68" transform="translate(-867.97 249.45) rotate(-19.95)"
        class="cls-1" />
    <path
        d="M161.16,2664V2557.68l0-.22c3.74-28.49,26.41-50.5,53.91-52.33,31.23-2.08,59.11,22.57,62.14,54.95v.21l.2,6.38-6.68.21-.19-6.28c-2.75-28.76-27.39-50.65-55-48.8-24.26,1.61-44.29,21.08-47.7,46.32V2664Z"
        class="cls-1" />
    <path
        d="M214.13,2735.77l-6.68-.06L209.14,2563a11,11,0,0,1,10.72-10.63H220a11,11,0,0,1,10.68,8.94l.06.32,0,25.81h-6.68l0-25.12A4.29,4.29,0,0,0,220,2559a4.35,4.35,0,0,0-4.13,4.18Z"
        class="cls-1" />
    <path
        d="M182.69,2704.94l-.1-141.63,0-.26c3.52-20.67,17.91-35.43,35-35.89h.8c16.36,0,30.77,13.45,35.21,33l.08.34v17.13h-6.12v-16.44c-3.94-16.81-16.19-28.29-29.81-27.9-13.83.37-26,13.2-29.08,30.55l.11,141.11Z"
        class="cls-1" />
    <polygon
        points="417.81 2670.53 411.13 2670.53 411.13 2516.97 332.86 2516.97 332.86 2510.29 417.81 2510.29 417.81 2670.53"
        class="cls-1" />
    <rect x="242.61" y="2510.29" width="45.47" height="6.68" class="cls-1" />
    <polygon
        points="167.84 2670.85 161.16 2670.85 161.16 2510.29 194.35 2510.29 194.35 2516.97 167.84 2516.97 167.84 2670.85"
        class="cls-1" />
    <path
        d="M289.45,2805.92l-1.8-1.18c-27.84-18.26-52.42-38.45-73.07-60-22.44-23.46-40.3-48.6-53.08-74.74l6-2.93c12.48,25.51,29.94,50.09,51.9,73.05,19.86,20.75,43.44,40.21,70.12,57.88,28.15-17.9,52.7-37.88,73-59.41,21.15-22.44,37.61-46.47,48.92-71.44l6.08,2.76c-11.61,25.64-28.48,50.29-50.14,73.26-21.11,22.4-46.72,43.14-76.11,61.63Z"
        class="cls-1" />
    <path d="M338.61,2766a102.5,102.5,0,0,0-97.59,0l-3.19-5.87a109.24,109.24,0,0,1,104,0Z" class="cls-1" />
    <path
        d="M336.81,2465.42a19.21,19.21,0,0,1,5.75.76,20.16,20.16,0,0,1,2.73,1,21.08,21.08,0,0,0-1-2.38,22.26,22.26,0,0,0-2.25-3.58,5.58,5.58,0,0,0-3.67,1.51A5.46,5.46,0,0,0,336.81,2465.42Z"
        class="cls-1" />
    <path d="M137.82,2890.07H151v8.77H129.05v-61.39H151v8.77H137.82v17.54h8.77v8.77h-8.77Z" class="cls-1" />
    <path
        d="M164.13,2850.6V2855h-8.77v-4.39a13.16,13.16,0,0,1,26.31,0,29.22,29.22,0,0,1-8.77,21.49q-8.76,8.77-8.77,18h17.54v8.77H155.36v-8.77a29.25,29.25,0,0,1,8.77-21.49q8.77-8.77,8.77-18a4.39,4.39,0,0,0-8.77,0Z"
        class="cls-1" />
    <path
        d="M186.06,2850.6a13.16,13.16,0,0,1,26.31,0v35.08a13.16,13.16,0,0,1-26.31,0Zm17.54,0a4.39,4.39,0,0,0-8.77,0v35.08a4.39,4.39,0,0,0,8.77,0Z"
        class="cls-1" />
    <path
        d="M238.68,2837.45a13.16,13.16,0,0,1,13.15,13.15v8.77a13.16,13.16,0,0,1-13.15,13.16h-4.39v26.31h-8.77v-61.39Zm4.38,13.15a4.4,4.4,0,0,0-4.38-4.38h-4.39v17.54h4.39a4.42,4.42,0,0,0,4.38-4.39Z"
        class="cls-1" />
    <path
        d="M256.22,2850.6a13.16,13.16,0,0,1,26.31,0v35.08a13.16,13.16,0,0,1-26.31,0Zm17.54,0a4.39,4.39,0,0,0-8.77,0v35.08a4.39,4.39,0,0,0,8.77,0Z"
        class="cls-1" />
    <path
        d="M300.07,2837.45a13.18,13.18,0,0,1,13.16,13.15v8.77a12.68,12.68,0,0,1-3.86,9.3,13,13,0,0,1-2.5,2l6.4,28.2h-9l-6-26.31h-2.63v26.31h-8.78v-61.39Zm4.38,13.15a4.4,4.4,0,0,0-4.38-4.38h-4.38v17.54h4.38a4.42,4.42,0,0,0,4.38-4.39Z"
        class="cls-1" />
    <path d="M335.15,2846.22v52.62h-8.77v-52.62h-8.77v-8.77h26.31v8.77Z" class="cls-1" />
    <path d="M348.31,2885.68v-48.23h8.77v48.23a4.39,4.39,0,0,0,8.77,0v-48.23h8.77v48.23a13.16,13.16,0,1,1-26.31,0Z"
        class="cls-1" />
    <path
        d="M405.31,2850.6V2855h-8.77v-4.39a4.39,4.39,0,0,0-8.77,0v35.08a4.39,4.39,0,0,0,8.77,0v-13.15h-4.38v-8.77h13.15v21.92a13.16,13.16,0,0,1-26.31,0V2850.6a13.16,13.16,0,0,1,26.31,0Z"
        class="cls-1" />
    <path d="M426.89,2890.07h-8l-1.18,8.77h-8.86l8.29-61.39h11.53l8.24,61.39h-8.81ZM420,2881.3h5.66l-2.85-21.05Z"
        class="cls-1" />
    <path d="M440.39,2837.45h8.77v52.62h13.16v8.77H440.39Z" class="cls-1" />
    <path
        d="M391.53,2658.78a37.89,37.89,0,1,1,0-75.78,42.1,42.1,0,0,1,11.27,1.71,34.66,34.66,0,0,1,13.39,8.2l-4.69,4.76a27.89,27.89,0,0,0-10.75-6.6h0a35.66,35.66,0,0,0-9.22-1.39A31.21,31.21,0,1,0,411.35,2645l4.25,5.16A38,38,0,0,1,391.53,2658.78Z"
        class="cls-1" />
    <rect x="388.19" y="2655.44" width="6.68" height="53.24" class="cls-1" />
    <rect x="388.19" y="2513.63" width="6.68" height="72.71" class="cls-1" />
    <path
        d="M253,2466.28c-6.08-7.8-7.41-17.54-3.4-24.81,4.77-8.64,14.79-10.17,18.88-10.43,6.87-.44,11.38,2,17.1,5.05a101.7,101.7,0,0,0,11.39,5.44,83.87,83.87,0,0,0,20.62,5.2l-.8,6.63a90.53,90.53,0,0,1-22.27-5.62,108.73,108.73,0,0,1-12.1-5.76c-5.33-2.86-8.55-4.58-13.52-4.27-2.33.15-10.19,1.09-13.45,7-2.72,4.93-1.61,11.78,2.82,17.47Z"
        class="cls-1" />
    <path
        d="M289.49,2704l-1.79-1.29c-.82-.6-8-6.08-8-15.66,0-9.87,7.53-15.33,8.39-15.92l1.85-1.27,1.87,1.23a19.05,19.05,0,0,1,8.64,17.89c-1,8.6-7.71,13.07-9.05,13.88Zm.58-25.78a12.39,12.39,0,0,0-.23,17.45,12.09,12.09,0,0,0,4-7.44A12.21,12.21,0,0,0,290.07,2678.17Z"
        class="cls-1" />
    <path
        d="M277.9,2701.27a19.44,19.44,0,0,1-13.92-5.61c-7-7-5.51-16.16-5.32-17.18l.41-2.21,2.19-.46a19.08,19.08,0,0,1,18.76,6.54c5.39,6.77,3.79,14.7,3.41,16.22l-.53,2.15-2.18.35A18.87,18.87,0,0,1,277.9,2701.27Zm-12.82-19.19a12.4,12.4,0,0,0,12.18,12.5,11.65,11.65,0,0,0-12-12.5Z"
        class="cls-1" />
    <path
        d="M302.46,2702.13a19.41,19.41,0,0,1-4.58-.52l-2.14-.53-.35-2.18a19.88,19.88,0,0,1,5.4-16.74c7-7,16.16-5.51,17.19-5.32l2.2.41.46,2.19a19.07,19.07,0,0,1-6.54,18.76A18.45,18.45,0,0,1,302.46,2702.13Zm-.58-6.69a11.67,11.67,0,0,0,12.5-12.18,12.4,12.4,0,0,0-12.5,12.18Z"
        class="cls-1" />
    <path
        d="M272.22,2722.48a19.25,19.25,0,0,1-4-.42l-2.19-.46-.41-2.2c-.19-1-1.65-10.21,5.32-17.18,6.78-6.79,15.75-5.57,16.74-5.41l2.18.35.53,2.15c.38,1.52,2,9.44-3.41,16.22A18.92,18.92,0,0,1,272.22,2722.48Zm-.17-6.68a11.67,11.67,0,0,0,12.18-12.5,12.4,12.4,0,0,0-12.18,12.5Z"
        class="cls-1" />
    <path
        d="M307.53,2722.16a19.56,19.56,0,0,1-14-5.57,19.9,19.9,0,0,1-5.4-16.75l.35-2.18,2.14-.53c1.52-.38,9.45-2,16.22,3.41a19.08,19.08,0,0,1,6.54,18.77l-.46,2.19-2.2.4A18.2,18.2,0,0,1,307.53,2722.16Zm-12.91-18.86a12.72,12.72,0,0,0,3.64,8.56,12.86,12.86,0,0,0,8.86,3.62,11.67,11.67,0,0,0-12.5-12.18Z"
        class="cls-1" />
    <rect x="286.15" y="2698.79" width="6.68" height="52.65" class="cls-1" />
    <path
        d="M261.92,2712.12a16,16,0,0,1-11.06-4.51l-1.32-1.29.69-1.71c.32-.79,3.35-7.82,11.26-9.6,7.69-1.74,13.39,3,14,3.6l1.37,1.21-.58,1.72a16,16,0,0,1-9.51,9.77A14.67,14.67,0,0,1,261.92,2712.12Zm-5.64-7.19a9.59,9.59,0,0,0,14-3.33,10.21,10.21,0,0,0-14,3.33Z"
        class="cls-1" />
    <path
        d="M280.67,2685.08A15.23,15.23,0,0,1,266,2664.43l.62-1.73,1.83-.1c.86,0,8.5-.23,13.43,6.22a16.36,16.36,0,0,1,2.58,14.25l-.53,1.74-1.81.19A13,13,0,0,1,280.67,2685.08Zm-10-16.85a10,10,0,0,0,2.55,8.41,9.89,9.89,0,0,0,6.31,2.89,10.21,10.21,0,0,0-8.86-11.3Z"
        class="cls-1" />
    <path
        d="M317.18,2712.12a14.65,14.65,0,0,1-4.85-.81,16,16,0,0,1-9.51-9.77l-.58-1.72,1.36-1.21c.63-.55,6.32-5.34,14-3.6,7.91,1.78,10.94,8.81,11.26,9.6l.69,1.71-1.33,1.29A16,16,0,0,1,317.18,2712.12Zm-8.31-10.52a9.87,9.87,0,0,0,5.26,4.52,10,10,0,0,0,8.7-1.19,10.58,10.58,0,0,0-6.41-4.56A10.46,10.46,0,0,0,308.87,2701.6Z"
        class="cls-1" />
    <path
        d="M298.88,2684.45a13,13,0,0,1-1.46-.08l-1.81-.19-.53-1.75a16.34,16.34,0,0,1,2.58-14.24c4.93-6.45,12.57-6.27,13.43-6.22l1.84.1.61,1.73a15.23,15.23,0,0,1-14.66,20.65Zm10-16.85a10.21,10.21,0,0,0-8.86,11.3,9.58,9.58,0,0,0,8.86-11.3Z"
        class="cls-1" />
    <path
        d="M282.09,2669.73l-5.14-2.52a34.1,34.1,0,0,1,11.31-13.2l1.83-1.32,1.71,1.48a59.92,59.92,0,0,1,10.47,12.37l-4.84,3.05a49.38,49.38,0,0,0-4.5-6.07c-1.18-1.35-2.22-2.48-3.19-3.45a27.54,27.54,0,0,0-4.1,4.08A29.79,29.79,0,0,0,282.09,2669.73Z"
        class="cls-1" />
    <rect x="279.52" y="2617.55" width="77.46" height="6.68" class="cls-1" />
    <rect x="305.46" y="2667.51" width="71.12" height="6.68" transform="translate(-1788.35 1022.97) rotate(-44.99)"
        class="cls-1" />
    <rect x="352.94" y="2566.67" width="6.68" height="33.69" transform="translate(-1722.44 1008.58) rotate(-45)"
        class="cls-1" />
    <path d="M278.93,3367.55l2.21-140.75v-.08l4.76-22.34-3.93,22.5v-.09l3,140.74a3,3,0,0,1-6,.13Z" class="cls-1" />
    <path
        d="M281.15,3226.39a34.43,34.43,0,0,0-7.06-9.4c-.7-.69-1.41-1.35-2.15-2-.37-.3-.74-.6-1.12-.88l-1.22-.9a31.42,31.42,0,0,1-4.67-4.26,40.46,40.46,0,0,1-3.69-5.21,20.19,20.19,0,0,1-2.34-6,16.89,16.89,0,0,1,2-12.49.24.24,0,0,1,.32-.06.22.22,0,0,1,.1.18h0a45.4,45.4,0,0,0,.45,5.87,30.91,30.91,0,0,0,1.34,5.34c.61,1.75,1.28,3.46,2,5.2a27.33,27.33,0,0,0,2.58,5,27.71,27.71,0,0,0,3.82,4.21l1.08,1c.39.37.76.74,1.12,1.12.72.76,1.39,1.55,2,2.35a33,33,0,0,1,5.85,10.69.21.21,0,0,1-.14.27A.23.23,0,0,1,281.15,3226.39Z"
        class="cls-1" />
    <path
        d="M241.91,3213a21,21,0,0,0,8.7,5.58,34.63,34.63,0,0,0,5,1.39,29.32,29.32,0,0,0,5.06.7c1.71.09,3.46,0,5.27-.07a23.81,23.81,0,0,1,5.54.42,20.1,20.1,0,0,1,5.4,1.93,17.3,17.3,0,0,1,4.58,3.32.22.22,0,0,1,0,.32.22.22,0,0,1-.19.06h0c-3.68-.52-7.07-1.16-10.36-1.33a93.79,93.79,0,0,1-10.6-1.2,34.76,34.76,0,0,1-10.56-3.56,21,21,0,0,1-8.17-7.3.21.21,0,0,1,.07-.3A.22.22,0,0,1,241.91,3213Z"
        class="cls-1" />
    <path
        d="M263.74,3205.75a26,26,0,0,1-4,.51,29.39,29.39,0,0,1-3.87,0,22.43,22.43,0,0,1-3.77-.59,18,18,0,0,1-3.53-1.25,17.74,17.74,0,0,0,3.63.17,21.74,21.74,0,0,0,3.53-.49,27.93,27.93,0,0,0,3.38-1,21.47,21.47,0,0,0,3.09-1.38,2.2,2.2,0,1,1,2.17,3.83,2.48,2.48,0,0,1-.62.24Z"
        class="cls-1" />
    <path
        d="M281.82,3255a40.18,40.18,0,0,1,7.69-9.15,46.65,46.65,0,0,1,4.8-3.69,40.63,40.63,0,0,1,5.42-2.8,12.49,12.49,0,0,0,4.2-3,29.48,29.48,0,0,0,3.1-4.13,54.11,54.11,0,0,0,2.69-4.86l2.57-5.31a.22.22,0,0,1,.3-.1.23.23,0,0,1,.13.17,19.59,19.59,0,0,1-.09,6.16,22.39,22.39,0,0,1-1.78,6,14.81,14.81,0,0,1-4,5.21,18.63,18.63,0,0,1-5.78,3.08,40,40,0,0,0-5.29,2.08,45.43,45.43,0,0,0-4.94,2.92,43,43,0,0,0-8.67,7.7.22.22,0,0,1-.31,0A.23.23,0,0,1,281.82,3255Z"
        class="cls-1" />
    <path
        d="M303.33,3238.76c1.48.2,2.95.48,4.41.81s2.92.69,4.36,1.13,2.88,1,4.29,1.56a31,31,0,0,1,4.17,2.21l-.24-.15a33.53,33.53,0,0,0,3.71,1.21c1.26.35,2.47.73,3.64,1.13a22.65,22.65,0,0,0,3.51.9,5.65,5.65,0,0,0,3.6-.44h0a.23.23,0,0,1,.31.11.18.18,0,0,1,0,.16,4,4,0,0,1-1.37,2,6.67,6.67,0,0,1-2.23,1.15,11.59,11.59,0,0,1-4.73.3,13.85,13.85,0,0,1-4.3-1.24,40.74,40.74,0,0,1-3.85-2.15l-.21-.12,0,0a36.63,36.63,0,0,0-7.13-4.55q-1.93-1-4-1.89c-1.34-.59-2.71-1.16-4.08-1.69a.21.21,0,0,1-.13-.28A.21.21,0,0,1,303.33,3238.76Z"
        class="cls-1" />
    <path
        d="M315.69,3240.78a14.39,14.39,0,0,0,1.59-.78c.55-.29,1.09-.63,1.62-1s1-.75,1.55-1.12,1-.82,1.46-1.25a21.6,21.6,0,0,0,4.7-6.14,22.22,22.22,0,0,0,2.33-7.55l.14-1c.05-.33,0-.67.05-1l.05-2c0-1.36-.23-2.71-.33-4.08.28,1.33.66,2.67.87,4l.22,2.07a9.3,9.3,0,0,1,.09,1v1a23.58,23.58,0,0,1-1.42,8.35,24.37,24.37,0,0,1-4.31,7.5c-.47.56-1,1.09-1.46,1.63s-1,1-1.6,1.51-1.13,1-1.73,1.4a18.85,18.85,0,0,1-1.95,1.29,2.18,2.18,0,1,1-2.17-3.78l.26-.13Z"
        class="cls-1" />
    <path
        d="M326.56,3233.3a27.77,27.77,0,0,0,3,.43c1.06.09,2.12.16,3.2.18a58.49,58.49,0,0,0,6.47-.24,62.81,62.81,0,0,0,6.49-1c2.15-.43,4.28-1,6.4-1.66-2,1-4,1.91-6.1,2.7a61.27,61.27,0,0,1-6.4,2.08,59.07,59.07,0,0,1-6.66,1.36c-1.13.17-2.28.28-3.43.37a30.12,30.12,0,0,1-3.59.07,2.18,2.18,0,0,1,.21-4.35,2,2,0,0,1,.35,0Z"
        class="cls-1" />
    <path
        d="M293.33,3246.34a57.51,57.51,0,0,0,4.08,4.71,47.81,47.81,0,0,0,4.66,4.23,23.18,23.18,0,0,0,5.35,3.23,9.27,9.27,0,0,0,6.17.54,9.74,9.74,0,0,1-6.49.49,24.63,24.63,0,0,1-6.21-2.44,47.66,47.66,0,0,1-5.61-3.59,58.85,58.85,0,0,1-5.19-4.28,2.18,2.18,0,1,1,3-3.19,3,3,0,0,1,.24.26Z"
        class="cls-1" />
    <path
        d="M281.28,3260a22,22,0,0,0-8.82.43,25.18,25.18,0,0,0-4.16,1.33,16.06,16.06,0,0,0-2,.86,17.55,17.55,0,0,0-1.93,1c-.62.38-1.24.75-1.85,1.14s-1.16.89-1.73,1.32-1.17.84-1.74,1.3-1.18.83-1.8,1.22c-1.22.79-2.41,1.65-3.75,2.37a25.39,25.39,0,0,1-4.09,2.29h0a.24.24,0,0,1-.31-.12.28.28,0,0,1,0-.18,23,23,0,0,1,2.31-4.22,29.75,29.75,0,0,1,3.17-3.57,25.51,25.51,0,0,1,8.31-4.7,22.5,22.5,0,0,1,2.26-.81,17.83,17.83,0,0,1,2.3-.66,27.93,27.93,0,0,1,4.71-.72,21,21,0,0,1,2.38,0l1.18.05,1.17.13a16.75,16.75,0,0,1,4.55,1.17.21.21,0,0,1,.11.28.21.21,0,0,1-.24.13Z"
        class="cls-1" />
    <path
        d="M261.05,3263.52a49,49,0,0,1-8.74-1.79,45.4,45.4,0,0,1-8.37-3.41c-1.32-.76-2.73-1.43-4-2.32a16,16,0,0,1-3.51-3.12,17.3,17.3,0,0,1-2.39-4.12,12.16,12.16,0,0,1-1-4.61.23.23,0,0,1,.37-.19l0,0c1.24,1.05,2.07,2.16,3.15,3.1s2,1.86,3,2.8,2,1.82,3,2.74a26.69,26.69,0,0,0,3.16,2.73l1.75,1.19c.59.39,1.22.73,1.82,1.1s1.24.72,1.87,1.07,1.26.68,1.91,1a61,61,0,0,0,8,3.39h0a.22.22,0,0,1,.14.28A.23.23,0,0,1,261.05,3263.52Z"
        class="cls-1" />
    <path
        d="M301.56,3203.72c-.22.22,2.53,8.63,2.67,9.37.88,4.73,1.19,10.86-2.21,14.77a6.27,6.27,0,0,1-3.78,2.1c-3.93.7-7.94-.24-8.81-4.26-.95-4.42.08-8,2.7-11.68A73,73,0,0,1,301.56,3203.72Z"
        class="cls-1" />
    <path
        d="M301.41,3203.87s0,.05.1.08.24,0,.24-.1l0-.06v0l0,.11.07.24.15.49.33,1,.71,2,1.43,3.94.35,1,.09.27.07.3.11.52c.16.7.29,1.4.4,2.1a27,27,0,0,1,.36,4.33,14.09,14.09,0,0,1-2.69,8.64,7.69,7.69,0,0,1-4.27,2.72,13.56,13.56,0,0,1-4.77.33,7.94,7.94,0,0,1-4.84-2.21,7.52,7.52,0,0,1-1.56-2.4,10.39,10.39,0,0,1-.41-1.28c-.09-.38-.18-.77-.25-1.16a13.92,13.92,0,0,1,0-4.86,14.38,14.38,0,0,1,1.7-4.52,29.13,29.13,0,0,1,5.77-6.72c1.06-1,2.19-1.84,3.33-2.69.58-.41,1.15-.83,1.74-1.22l.89-.59c.19-.12.23-.13.36-.11A.87.87,0,0,0,301.41,3203.87Zm.31-.3c-.07.12-.09.32-.21.58a4.11,4.11,0,0,1-.39.61l-.61.87-1.24,1.71-2.47,3.34c-.79,1.12-1.59,2.2-2.29,3.34a22.5,22.5,0,0,0-1.89,3.33,13,13,0,0,0-1.27,6.8,4.69,4.69,0,0,0,.79,2.8,4.22,4.22,0,0,0,2.53,1.39,10.32,10.32,0,0,0,3.55,0,4.69,4.69,0,0,0,2.76-1.49,11.56,11.56,0,0,0,2.72-6.88,24.58,24.58,0,0,0,.07-4c0-.67-.1-1.35-.18-2l-.06-.51,0-.22-.05-.23-.24-1-1-4.06-.48-2-.22-1-.1-.52,0-.27v-.24a.58.58,0,0,1,0-.13.25.25,0,0,1,.25-.13A.27.27,0,0,1,301.72,3203.57Z"
        class="cls-1" />
    <path
        d="M315.68,3173.89c-.13.37,7.49,8.25,8.05,9,3.54,4.79,7.22,11.46,5.55,17.66a7.76,7.76,0,0,1-3.08,4.38c-4,2.92-9,4-12.13,0-3.46-4.41-4.23-8.94-3.33-14.48S313.7,3179.27,315.68,3173.89Z"
        class="cls-1" />
    <path
        d="M315.77,3173.64c.11,0,.2.26.18.22l0,0,.08.11.21.23.43.47.91.91,1.86,1.81,3.72,3.62.93.93.25.25.24.3.41.51c.55.69,1.07,1.41,1.59,2.13a32.85,32.85,0,0,1,2.73,4.64,21,21,0,0,1,1.74,5.27,14.77,14.77,0,0,1,0,5.81,9.62,9.62,0,0,1-3.29,5.35,17,17,0,0,1-5.14,3,11,11,0,0,1-3.14.63,8.81,8.81,0,0,1-3.45-.47,9.33,9.33,0,0,1-3-1.83c-.22-.2-.41-.41-.61-.61s-.39-.42-.53-.6c-.31-.37-.62-.75-.91-1.16a17.05,17.05,0,0,1-2.65-5.41,18.2,18.2,0,0,1-.53-3,22.7,22.7,0,0,1,0-3,27.53,27.53,0,0,1,1-5.52,43.06,43.06,0,0,1,1.77-5.09c.66-1.65,1.44-3.24,2.25-4.81.42-.77.83-1.55,1.28-2.3l.68-1.14a6.07,6.07,0,0,1,.49-.75C315.46,3173.9,315.68,3173.78,315.77,3173.64Zm-.18.51a1,1,0,0,0,.11.69c.09.14.1.19.05.46l-.21,1.3-.46,2.57-.94,5.06c-.27,1.68-.58,3.32-.75,5a31.22,31.22,0,0,0-.29,4.74,16.18,16.18,0,0,0,2.26,8.27c.18.32.39.64.6.95a3.54,3.54,0,0,0,.28.41c.09.11.17.24.27.35a4.37,4.37,0,0,0,1.25,1,5.06,5.06,0,0,0,3.58.16,12.46,12.46,0,0,0,4-1.92,5.73,5.73,0,0,0,2.28-3.16,14.34,14.34,0,0,0-.71-9.14,30.17,30.17,0,0,0-2.09-4.52c-.42-.73-.85-1.46-1.31-2.17l-.35-.54-.15-.23-.17-.23-.82-1-3.34-4-1.64-2-.81-1-.39-.54-.19-.28-.1-.15-.05-.11C315.4,3174,315.5,3174.16,315.59,3174.15Z"
        class="cls-1" />
    <path
        d="M351.17,3165.73c-.25.19,1.4,9,1.44,9.8.25,4.88-.25,11.1-4.2,14.59a6.37,6.37,0,0,1-4.09,1.6c-4.06.19-8-1.29-8.31-5.46-.37-4.59,1.15-8,4.27-11.42A75.35,75.35,0,0,1,351.17,3165.73Z"
        class="cls-1" />
    <path
        d="M351.35,3165.6a.29.29,0,0,1,0,.22v.16l0,.25.09.52.2,1,.45,2.08.91,4.16.22,1.06,0,.28,0,.31.05.54c.06.72.1,1.45.13,2.17a28.47,28.47,0,0,1-.23,4.41,14.26,14.26,0,0,1-3.86,8.35,7.82,7.82,0,0,1-4.67,2.17,14,14,0,0,1-4.85-.3,8.07,8.07,0,0,1-4.58-2.88,7.61,7.61,0,0,1-1.26-2.63,13,13,0,0,1-.23-1.34c0-.4-.08-.8-.1-1.2a14,14,0,0,1,.64-4.91,14.94,14.94,0,0,1,2.31-4.32,29.53,29.53,0,0,1,6.72-6c1.2-.83,2.45-1.57,3.71-2.27.64-.34,1.27-.68,1.92-1l1-.47a5.7,5.7,0,0,1,.68-.29C351,3165.63,351.22,3165.65,351.35,3165.6Zm-.35.26a.79.79,0,0,0-.24.52c0,.14,0,.18-.17.34l-.74.79-1.48,1.56-2.93,3c-.94,1-1.9,2-2.76,3.06a24.19,24.19,0,0,0-2.35,3.11,13.35,13.35,0,0,0-2.19,6.68,4.91,4.91,0,0,0,.43,2.93,4.21,4.21,0,0,0,2.36,1.73,10.34,10.34,0,0,0,3.58.48,4.7,4.7,0,0,0,3-1.13,11.78,11.78,0,0,0,3.65-6.57,24.57,24.57,0,0,0,.61-4q.08-1,.09-2.07v-.75l0-.24-.11-1-.49-4.23-.21-2.13-.09-1.06,0-.55v-.52C350.94,3165.67,350.93,3165.83,351,3165.86Z"
        class="cls-1" />
    <path
        d="M363.35,3194.11c-.38.1-2.44,10.87-2.74,11.76-1.89,5.65-5.23,12.49-11.27,14.69a7.69,7.69,0,0,1-5.35,0c-4.69-1.59-8.47-5-7-9.91,1.62-5.37,4.89-8.6,9.94-11.05S357.81,3195.58,363.35,3194.11Z"
        class="cls-1" />
    <path
        d="M363.61,3194c0,.1-.1.31-.08.27v0l0,.14-.07.3-.13.62-.23,1.27-.41,2.56-.82,5.12-.22,1.3-.07.35-.1.36-.19.64c-.25.84-.53,1.68-.83,2.52a33.07,33.07,0,0,1-2.22,4.9,21.31,21.31,0,0,1-3.31,4.46,15,15,0,0,1-4.78,3.3,9.57,9.57,0,0,1-6.27.38,16.83,16.83,0,0,1-5.37-2.5,10.78,10.78,0,0,1-2.32-2.22,8.51,8.51,0,0,1-1.59-3.08,9.1,9.1,0,0,1-.26-3.55c0-.29.1-.57.15-.85a6,6,0,0,1,.18-.78c.13-.47.26-.94.42-1.41a17.12,17.12,0,0,1,2.91-5.28,19,19,0,0,1,2.14-2.16,21.69,21.69,0,0,1,2.41-1.72,27.69,27.69,0,0,1,5.11-2.34,46.68,46.68,0,0,1,5.18-1.48c1.74-.4,3.49-.68,5.23-.92.88-.09,1.75-.2,2.63-.27l1.31-.1a5.81,5.81,0,0,1,.9,0C363.22,3193.92,363.44,3194,363.61,3194Zm-.52.14a1,1,0,0,0-.5.49c-.07.15-.11.19-.35.3l-1.19.57-2.37,1.11-4.68,2.14c-1.52.75-3.05,1.43-4.49,2.24a32.8,32.8,0,0,0-4.05,2.49,16.09,16.09,0,0,0-5.46,6.6,10.44,10.44,0,0,0-.44,1,4,4,0,0,0-.17.47c0,.13-.1.27-.13.41a4.14,4.14,0,0,0-.09,1.6,5,5,0,0,0,1.92,3,12.63,12.63,0,0,0,3.85,2.13,5.77,5.77,0,0,0,3.89.05,14.32,14.32,0,0,0,7.07-5.83,31.76,31.76,0,0,0,2.5-4.32c.36-.76.7-1.53,1-2.32l.24-.59.1-.25.09-.28.34-1.23,1.32-5,.71-2.51.38-1.25.21-.63.12-.31.08-.17.05-.1C363.1,3193.94,363,3194.11,363.09,3194.18Z"
        class="cls-1" />
    <path
        d="M388.67,3226.5c-.31-.16-8,5.74-8.73,6.16-4.56,2.62-10.79,5.17-16.07,3.07a6.84,6.84,0,0,1-3.54-3.14c-2.15-3.81-2.64-8.3,1.21-10.66,4.22-2.6,8.28-2.81,13-1.46A80.56,80.56,0,0,1,388.67,3226.5Z"
        class="cls-1" />
    <path
        d="M388.46,3226.39a.14.14,0,0,0,0,.13.25.25,0,0,0,.2.22h.06l0,0-.11.06-.23.16-.45.33-.9.71-1.77,1.44-3.56,2.91-.91.72-.25.19-.28.18-.49.31c-.67.41-1.35.8-2,1.18a29.79,29.79,0,0,1-4.35,1.93,15.42,15.42,0,0,1-9.91.37,8.55,8.55,0,0,1-4.37-3.44A14.78,14.78,0,0,1,357,3229a8.69,8.69,0,0,1,.52-5.8,8.31,8.31,0,0,1,1.92-2.5c.19-.17.4-.31.6-.47a6.17,6.17,0,0,1,.58-.4c.36-.24.72-.47,1.1-.69a15.31,15.31,0,0,1,5-1.77,15.87,15.87,0,0,1,5.29.11,24.83,24.83,0,0,1,4.75,1.46,39.45,39.45,0,0,1,4.29,2.07c1.38.76,2.7,1.6,4,2.47.64.45,1.28.89,1.9,1.36l.93.71c.19.14.21.18.25.33A.83.83,0,0,0,388.46,3226.39Zm.42.21c-.15,0-.36,0-.68,0a7.64,7.64,0,0,1-.77-.18l-1.12-.32-2.22-.67-4.35-1.34c-1.44-.4-2.85-.84-4.28-1.15a28.32,28.32,0,0,0-4.14-.75,14.29,14.29,0,0,0-7.49,1.15,5.31,5.31,0,0,0-2.61,1.84,4.64,4.64,0,0,0-.51,3.12A11.35,11.35,0,0,0,362,3232a5,5,0,0,0,2.54,2.32,12.73,12.73,0,0,0,8.1.31,26.37,26.37,0,0,0,4.19-1.39c.68-.29,1.36-.59,2-.92l.5-.25.22-.11.22-.13.95-.62,3.82-2.53,1.94-1.24,1-.6.51-.29.26-.14.15-.07.1,0s0,0,.13,0a.28.28,0,0,1,.23.21A.28.28,0,0,1,388.88,3226.6Z"
        class="cls-1" />
    <path
        d="M369,3263.79c-.16-.3-9.71.13-10.53.06-5.17-.46-11.65-1.91-14.74-6.58a6.83,6.83,0,0,1-1.08-4.55c.41-4.29,2.55-8.2,7-7.94,4.88.29,8.28,2.41,11.38,6.2A79.07,79.07,0,0,1,369,3263.79Z"
        class="cls-1" />
    <path
        d="M369.15,3264c-.08.05-.28,0-.24,0h-1l-1.12.06-2.25.17-4.52.34-1.14.08h-.64l-.58,0c-.76,0-1.53-.11-2.3-.2a27.57,27.57,0,0,1-4.61-.89,15.18,15.18,0,0,1-8.22-5.29A8.4,8.4,0,0,1,341,3253a14.7,14.7,0,0,1,1-5.05,8.6,8.6,0,0,1,3.7-4.4,8.12,8.12,0,0,1,3-.93,12.25,12.25,0,0,1,1.45,0c.42,0,.85,0,1.28.07a15.12,15.12,0,0,1,5.07,1.4,15.72,15.72,0,0,1,4.21,3.08,23.91,23.91,0,0,1,3,3.86,41.36,41.36,0,0,1,2.3,4.09c.69,1.39,1.28,2.82,1.83,4.25.26.73.53,1.44.77,2.17l.35,1.1a5,5,0,0,1,.2.76C369.17,3263.64,369.12,3263.86,369.15,3264Zm-.22-.41a.88.88,0,0,0-.51-.33c-.15,0-.19-.05-.34-.23l-.72-.89-1.42-1.79-2.76-3.54c-.94-1.14-1.83-2.29-2.81-3.35a28.06,28.06,0,0,0-2.93-2.94,14.09,14.09,0,0,0-6.7-3.29,5.12,5.12,0,0,0-3.15,0,4.58,4.58,0,0,0-2.18,2.23,11.35,11.35,0,0,0-1,3.7,5,5,0,0,0,.75,3.31,12.5,12.5,0,0,0,6.38,4.82,26.28,26.28,0,0,0,4.16,1.24c.72.15,1.45.29,2.18.4l.55.09.23,0,.26,0,1.11,0,4.52.11,2.27.09,1.14.07.57.05.3,0,.15,0,.1,0C369.14,3263.55,369,3263.52,368.93,3263.59Z"
        class="cls-1" />
    <path
        d="M338.63,3280.81c-.07-.31-8.9-2.48-9.63-2.76-4.6-1.8-10.12-4.87-11.69-10a6.38,6.38,0,0,1,.23-4.43c1.52-3.82,4.52-6.81,8.5-5.38,4.38,1.57,6.92,4.41,8.73,8.7A75.07,75.07,0,0,1,338.63,3280.81Z"
        class="cls-1" />
    <path
        d="M338.58,3280.6a.15.15,0,0,0-.12,0,.22.22,0,0,0,0,.27c.07.08,0,0,0,.05l0,0-.11,0-.25-.07-.51-.14-1-.24-2.1-.45-4.21-.89-1.07-.24-.28-.08-.3-.1-.52-.18c-.69-.24-1.37-.51-2-.79a26.67,26.67,0,0,1-4-2,14.47,14.47,0,0,1-6.08-7,7.89,7.89,0,0,1-.05-5.21,13.67,13.67,0,0,1,2.3-4.34,8.18,8.18,0,0,1,4.56-3,7.71,7.71,0,0,1,2.95-.06,10.72,10.72,0,0,1,1.33.34,12.12,12.12,0,0,1,1.15.41,14.28,14.28,0,0,1,4.25,2.63,15,15,0,0,1,3,3.94,30.06,30.06,0,0,1,2.73,8.69c.26,1.45.42,2.91.54,4.36,0,.73.1,1.46.12,2.19l0,1.1c0,.22,0,.27-.09.38A.79.79,0,0,0,338.58,3280.6Zm.1.43c-.07-.12-.23-.25-.4-.5a6.1,6.1,0,0,1-.32-.67l-.42-1-.82-2-1.57-4c-.55-1.29-1.06-2.58-1.67-3.81a23.75,23.75,0,0,0-1.89-3.47,13.36,13.36,0,0,0-5.24-4.8,4.92,4.92,0,0,0-2.87-.83,4.36,4.36,0,0,0-2.59,1.46,10.7,10.7,0,0,0-1.93,3.09,4.79,4.79,0,0,0-.2,3.23,11.91,11.91,0,0,0,4.53,6.1,25.46,25.46,0,0,0,3.47,2.25c.62.33,1.24.65,1.88.95l.48.23.2.09.23.08,1,.34,4.1,1.31,2,.69,1,.37.51.2.26.11.14.07.08,0s0,0,.09.09a.26.26,0,0,1,0,.29A.33.33,0,0,1,338.68,3281Z"
        class="cls-1" />
    <path
        d="M310.87,3301.1c0-.39-9.43-5.94-10.17-6.52-4.69-3.66-10-9.1-10.08-15.53a7.8,7.8,0,0,1,1.8-5c3.07-3.89,7.57-6.31,11.68-3.29,4.51,3.33,6.47,7.49,7.09,13.07S311.34,3295.38,310.87,3301.1Z"
        class="cls-1" />
    <path
        d="M310.89,3300.83s-.06,0-.16,0a.28.28,0,0,0-.14.29c.06.13,0,.07,0,.07l0,0-.11-.08-.26-.17-.54-.33-1.12-.64-2.27-1.25-4.56-2.48-1.15-.65-.3-.18-.31-.22-.54-.38c-.71-.52-1.41-1.07-2.1-1.63a33.25,33.25,0,0,1-3.88-3.73,21.72,21.72,0,0,1-3.09-4.61,15.17,15.17,0,0,1-1.51-5.61,9.65,9.65,0,0,1,1.74-6,16.83,16.83,0,0,1,4.16-4.22,11.14,11.14,0,0,1,2.86-1.45A8.73,8.73,0,0,1,301,3267a9.13,9.13,0,0,1,3.43.95c.26.12.5.28.75.42a7.36,7.36,0,0,1,.68.44,13.76,13.76,0,0,1,1.18.87,17,17,0,0,1,4,4.5,18.62,18.62,0,0,1,1.32,2.74,23,23,0,0,1,.82,2.85,27.15,27.15,0,0,1,.49,5.6,43.37,43.37,0,0,1-.34,5.37c-.2,1.77-.52,3.52-.88,5.24-.2.86-.39,1.71-.62,2.57l-.34,1.27c-.07.26-.1.31-.24.4A1,1,0,0,0,310.89,3300.83Zm0,.54c0-.17-.18-.37-.29-.72a5.74,5.74,0,0,1-.13-.89l-.14-1.31-.25-2.6-.45-5.13c-.2-1.68-.33-3.35-.62-5a31.52,31.52,0,0,0-1-4.65,16.17,16.17,0,0,0-4.4-7.36c-.26-.26-.54-.51-.83-.76a3.74,3.74,0,0,0-.38-.31c-.12-.08-.23-.19-.35-.26a4.1,4.1,0,0,0-1.47-.62,5,5,0,0,0-3.49.79,12.82,12.82,0,0,0-3.3,2.92,5.75,5.75,0,0,0-1.35,3.65,14.37,14.37,0,0,0,3.13,8.62,30.36,30.36,0,0,0,3.24,3.79c.59.6,1.21,1.18,1.84,1.75l.47.42.21.18.23.17,1,.73,4.29,2.93,2.12,1.51,1.05.78.52.4.26.22.13.13.08.08a.72.72,0,0,1,.08.14.32.32,0,0,1-.13.33A.44.44,0,0,1,310.85,3301.37Z"
        class="cls-1" />
    <path
        d="M251.38,3302.49c.36-.16.6-11.12.74-12,.92-5.89,3.08-13.19,8.66-16.36a7.72,7.72,0,0,1,5.28-.89c4.89.79,9.19,3.54,8.55,8.6-.7,5.56-3.38,9.3-8,12.55S256.6,3300.12,251.38,3302.49Z"
        class="cls-1" />
    <path
        d="M251.62,3302.38a.19.19,0,0,0-.08-.13.26.26,0,0,0-.33,0c-.08.1,0,.06-.05.06v0l0-.14,0-.31,0-.64v-1.29l0-2.59,0-5.19v-1.67l0-.37.08-.66c.11-.88.24-1.75.4-2.63a32.43,32.43,0,0,1,1.37-5.2,21.34,21.34,0,0,1,2.52-4.94,15,15,0,0,1,4.17-4.06,9.6,9.6,0,0,1,6.12-1.42,17,17,0,0,1,5.71,1.58,11.25,11.25,0,0,1,2.66,1.8,8.86,8.86,0,0,1,2.08,2.78,9.17,9.17,0,0,1,.85,3.45c0,.29,0,.57,0,.86s0,.58-.05.8c-.05.49-.1,1-.18,1.46a17,17,0,0,1-2,5.69,19.16,19.16,0,0,1-1.75,2.49,21.7,21.7,0,0,1-2.09,2.09,27.1,27.1,0,0,1-4.65,3.16,42.45,42.45,0,0,1-4.87,2.32c-1.64.69-3.32,1.26-5,1.78-.85.24-1.69.5-2.54.71l-1.28.32c-.27.07-.32.06-.47,0A1,1,0,0,0,251.62,3302.38Zm-.49.22c.13-.1.24-.33.49-.59a6.39,6.39,0,0,1,.71-.56l1.07-.76,2.16-1.48,4.26-2.89c1.38-1,2.76-1.92,4.05-3a31.78,31.78,0,0,0,3.58-3.12,16.16,16.16,0,0,0,4.29-7.43c.1-.35.18-.72.26-1.09a4.39,4.39,0,0,0,.09-.49c0-.14.05-.29.06-.43a4.21,4.21,0,0,0-.18-1.59,5.07,5.07,0,0,0-2.39-2.66,13,13,0,0,0-4.15-1.46,5.79,5.79,0,0,0-3.85.6,14.28,14.28,0,0,0-6,6.93,29.29,29.29,0,0,0-1.74,4.67c-.23.81-.45,1.63-.63,2.46l-.14.62-.06.27,0,.28-.12,1.28-.48,5.17-.28,2.58-.16,1.3-.11.65-.06.34,0,.17,0,.11s0,0-.08.13a.28.28,0,0,1-.34,0A.33.33,0,0,1,251.13,3302.6Z"
        class="cls-1" />
    <path
        d="M215.4,3286.44c.38-.07,3.37-10.63,3.74-11.49,2.36-5.47,6.28-12,12.48-13.67a7.81,7.81,0,0,1,5.34.46c4.53,2,8,5.73,6.12,10.47-2.07,5.21-5.61,8.16-10.85,10.16S221.05,3285.45,215.4,3286.44Z"
        class="cls-1" />
    <path
        d="M215.14,3286.48c0-.1.12-.29.09-.26l0,0,.06-.13.1-.3.18-.61.34-1.24.63-2.51,1.25-5,.33-1.27.1-.35.14-.35.24-.61c.32-.83.67-1.64,1-2.45a33.37,33.37,0,0,1,2.63-4.69,21.54,21.54,0,0,1,3.68-4.16,15,15,0,0,1,5.05-2.88,9.59,9.59,0,0,1,6.28.16,16.76,16.76,0,0,1,5.13,3,10.77,10.77,0,0,1,2.13,2.4,8.78,8.78,0,0,1,1.27,6.77,8,8,0,0,1-.22.84,6.78,6.78,0,0,1-.25.76c-.16.46-.34.91-.54,1.36a17,17,0,0,1-3.35,5,18,18,0,0,1-2.32,2,22.16,22.16,0,0,1-2.55,1.51,27.54,27.54,0,0,1-5.29,1.89,42.93,42.93,0,0,1-5.29,1c-1.76.25-3.53.38-5.29.47-.88,0-1.76.06-2.64.05h-1.32a5.54,5.54,0,0,1-.9-.06C215.52,3286.63,215.3,3286.5,215.14,3286.48Zm.53-.09a1,1,0,0,0,.53-.44c.08-.15.13-.19.38-.28l1.23-.47,2.46-.9,4.84-1.73c1.59-.61,3.17-1.16,4.67-1.85a31.77,31.77,0,0,0,4.25-2.12,16.19,16.19,0,0,0,6-6.12c.19-.31.36-.65.53-1,.09-.18.15-.32.2-.45s.13-.27.17-.4a4.41,4.41,0,0,0,.23-1.59,5.12,5.12,0,0,0-1.66-3.17,12.8,12.8,0,0,0-3.65-2.46A5.8,5.8,0,0,0,232,3263a14.37,14.37,0,0,0-7.55,5.21,30.32,30.32,0,0,0-2.85,4.08c-.43.73-.84,1.47-1.23,2.23l-.29.56-.12.25-.11.27-.44,1.2-1.75,4.88-.92,2.44-.49,1.21-.26.61-.15.3-.09.16-.06.1C215.63,3286.63,215.73,3286.46,215.67,3286.39Z"
        class="cls-1" />
    <path
        d="M240.68,3231.18c.22.32,11-1.47,12-1.5,6-.19,13.52.58,17.68,5.48a7.76,7.76,0,0,1,1.85,5c.12,4.95-1.78,9.68-6.88,10-5.59.34-9.76-1.6-13.8-5.5S244,3235.87,240.68,3231.18Z"
        class="cls-1" />
    <path
        d="M240.84,3231.4a.2.2,0,0,0,.11-.11.27.27,0,0,0-.08-.32l-.06,0H241l.31,0,.63-.09,1.27-.22,2.54-.5,5.1-1,1.29-.24.35,0,.38,0,.66-.05c.88-.06,1.76-.08,2.65-.09a33.61,33.61,0,0,1,5.37.38,21.34,21.34,0,0,1,5.33,1.57,15,15,0,0,1,4.75,3.34,9.65,9.65,0,0,1,2.53,5.76,16.89,16.89,0,0,1-.5,5.89,10.71,10.71,0,0,1-1.27,2.95,8.92,8.92,0,0,1-2.35,2.57,9,9,0,0,1-3.24,1.46c-.28.07-.56.11-.84.16s-.57.08-.8.09a14.15,14.15,0,0,1-1.47.09,17,17,0,0,1-6-.9,18.12,18.12,0,0,1-2.76-1.26,21.11,21.11,0,0,1-2.45-1.67,27.13,27.13,0,0,1-4-4,43.83,43.83,0,0,1-3.17-4.35c-1-1.49-1.85-3-2.68-4.58-.39-.79-.79-1.57-1.16-2.37l-.55-1.2c-.12-.25-.12-.3-.08-.47A1,1,0,0,0,240.84,3231.4Zm-.31-.44c.12.1.37.16.68.36a6.54,6.54,0,0,1,.67.6l1,.91,1.85,1.85,3.63,3.65c1.23,1.17,2.4,2.36,3.66,3.44a33.52,33.52,0,0,0,3.73,2.94,16.27,16.27,0,0,0,8.09,2.84c.37,0,.74,0,1.12,0,.21,0,.36,0,.5,0l.43,0a4.55,4.55,0,0,0,1.53-.47,5.09,5.09,0,0,0,2.17-2.85,12.71,12.71,0,0,0,.67-4.35,5.75,5.75,0,0,0-1.3-3.66,14.33,14.33,0,0,0-7.92-4.62,30.72,30.72,0,0,0-4.91-.85c-.84-.07-1.69-.13-2.53-.16l-.64,0h-.27l-.29,0-1.28.1-5.17.5-2.59.2-1.31.08-.66,0h-.52l-.11,0s0,0-.15,0a.3.3,0,0,1-.11-.33A.4.4,0,0,1,240.53,3231Z"
        class="cls-1" />
    <path
        d="M186,3250.09c.31.22,9.87-5.16,10.74-5.51,5.54-2.21,12.91-4.07,18.5-.89a7.72,7.72,0,0,1,3.45,4.09c1.81,4.61,1.64,9.71-3,11.74-5.14,2.23-9.72,1.83-14.85-.45S190.68,3253.37,186,3250.09Z"
        class="cls-1" />
    <path
        d="M186.2,3250.24a.27.27,0,0,0,.07-.14c0-.12-.12-.28-.19-.27H186l0,0,.13-.05.28-.14.56-.3,1.12-.65,2.22-1.34,4.44-2.68,1.13-.67.32-.17.34-.16.6-.27q1.22-.52,2.46-1a33.12,33.12,0,0,1,5.18-1.48,21.67,21.67,0,0,1,5.54-.35,15.1,15.1,0,0,1,5.61,1.52,9.61,9.61,0,0,1,4.34,4.54,16.9,16.9,0,0,1,1.55,5.72,10.61,10.61,0,0,1-.19,3.2,8.75,8.75,0,0,1-1.32,3.21,9.39,9.39,0,0,1-2.54,2.49c-.25.16-.5.29-.75.43a7.07,7.07,0,0,1-.71.37c-.44.2-.89.41-1.35.58a17,17,0,0,1-5.91,1.19,18,18,0,0,1-3-.23,20.81,20.81,0,0,1-2.87-.74,27.7,27.7,0,0,1-5.09-2.38,46.45,46.45,0,0,1-4.47-3c-1.43-1.07-2.78-2.22-4.08-3.4-.64-.61-1.29-1.2-1.91-1.83l-.93-.94c-.19-.19-.21-.24-.22-.41A1,1,0,0,0,186.2,3250.24Zm-.44-.31c.15.06.4,0,.76.12a5.44,5.44,0,0,1,.83.33l1.21.53,2.37,1.1,4.66,2.19c1.55.68,3.06,1.4,4.61,2a32.65,32.65,0,0,0,4.52,1.49,16.18,16.18,0,0,0,8.57-.1c.35-.09.71-.21,1.07-.33a2.76,2.76,0,0,0,.46-.18l.41-.16a4.41,4.41,0,0,0,1.27-1,5.07,5.07,0,0,0,1.07-3.41,12.73,12.73,0,0,0-.86-4.32,5.76,5.76,0,0,0-2.48-3,14.33,14.33,0,0,0-9-1.63,30.93,30.93,0,0,0-4.9.88c-.82.22-1.63.45-2.44.71l-.6.2-.26.09-.27.11-1.16.54-4.69,2.23-2.37,1.08-1.2.52-.61.24-.32.11-.17.06-.12,0s0,0-.15,0a.31.31,0,0,1-.19-.43Z"
        class="cls-1" />
    <path
        d="M202.86,3222.24c.22.24,8.88-2.43,9.65-2.56,4.85-.81,11.14-1,15.08,2.54a6.38,6.38,0,0,1,2.07,3.91c.65,4-.38,8.13-4.52,8.95-4.55.89-8.17-.24-11.91-3A75.54,75.54,0,0,1,202.86,3222.24Z"
        class="cls-1" />
    <path
        d="M203,3222.4s.05,0,.08-.1a.21.21,0,0,0-.1-.25l-.06,0h0l.12,0,.24-.06.51-.15,1-.32,2-.69,4.06-1.39,1-.34.29-.08.3-.07.54-.11c.71-.15,1.43-.26,2.16-.37a27.16,27.16,0,0,1,4.44-.28,14.4,14.4,0,0,1,8.79,2.91,7.86,7.86,0,0,1,2.71,4.43,13.73,13.73,0,0,1,.25,4.88,8.1,8.1,0,0,1-2.35,4.92,7.61,7.61,0,0,1-2.5,1.56,11.78,11.78,0,0,1-1.31.39c-.4.09-.79.17-1.19.23a14,14,0,0,1-5-.08,15,15,0,0,1-4.59-1.82,30,30,0,0,1-6.77-6c-1-1.11-1.85-2.28-2.7-3.46-.41-.61-.83-1.2-1.22-1.81l-.58-.93c-.12-.19-.13-.23-.11-.37A.83.83,0,0,0,203,3222.4Zm-.3-.33c.12.08.32.11.59.23a5.08,5.08,0,0,1,.62.41l.88.65,1.72,1.3,3.37,2.59c1.14.82,2.23,1.67,3.38,2.41a23.92,23.92,0,0,0,3.38,2,13.47,13.47,0,0,0,6.94,1.43,5,5,0,0,0,2.89-.76,4.36,4.36,0,0,0,1.46-2.57,10.75,10.75,0,0,0,.07-3.63,4.83,4.83,0,0,0-1.47-2.87,11.87,11.87,0,0,0-7-2.9,25.64,25.64,0,0,0-4.12-.15c-.7,0-1.39.08-2.09.15l-.52,0-.23,0-.23,0-1,.23-4.17,1-2.11.46-1.06.2-.53.09-.28,0h-.25l-.12,0a.23.23,0,0,1-.13-.26A.36.36,0,0,1,202.71,3222.07Z"
        class="cls-1" />
    <path
        d="M213.1,3190.73c.08.31,9,1.91,9.75,2.14,4.69,1.5,10.37,4.2,12.25,9.16a6.49,6.49,0,0,1,.06,4.43c-1.28,3.89-4.07,7.05-8.12,5.88-4.45-1.28-7.16-4-9.23-8.1A74.55,74.55,0,0,1,213.1,3190.73Z"
        class="cls-1" />
    <path
        d="M213.16,3191a.24.24,0,0,0,.12-.06.21.21,0,0,0,0-.27c-.07-.07,0,0,0,0h0l.11,0,.25.06.52.1,1,.18,2.11.31,4.25.63,1.07.17.29,0,.3.08.53.15c.7.2,1.4.42,2.09.66a26.68,26.68,0,0,1,4.08,1.78,14.44,14.44,0,0,1,6.49,6.61,8,8,0,0,1,.38,5.18,13.78,13.78,0,0,1-2,4.46,8,8,0,0,1-4.34,3.29,7.63,7.63,0,0,1-2.92.25,11.18,11.18,0,0,1-1.35-.26c-.39-.1-.78-.2-1.17-.33a14.25,14.25,0,0,1-4.39-2.35,14.9,14.9,0,0,1-3.26-3.72,30,30,0,0,1-3.26-8.47c-.35-1.43-.6-2.87-.81-4.31-.09-.72-.19-1.44-.26-2.16l-.09-1.09c0-.23,0-.27.07-.38A.85.85,0,0,0,213.16,3191Zm-.12-.43c.07.12.24.24.42.47a4.2,4.2,0,0,1,.36.65l.49,1,.94,1.94,1.81,3.85c.63,1.25,1.22,2.5,1.9,3.69a24.45,24.45,0,0,0,2.1,3.32,13.28,13.28,0,0,0,5.51,4.44,4.91,4.91,0,0,0,2.92.65,4.34,4.34,0,0,0,2.47-1.61,10.49,10.49,0,0,0,1.72-3.2,4.75,4.75,0,0,0,0-3.22,11.83,11.83,0,0,0-4.89-5.79,25.07,25.07,0,0,0-3.59-2c-.64-.29-1.28-.57-1.93-.83l-.49-.19-.21-.08-.23-.07-1-.27-4.16-1-2.08-.56-1-.3-.52-.17-.26-.09-.14-.06L213,3191s0,0-.1-.08a.26.26,0,0,1,0-.29A.22.22,0,0,1,213,3190.52Z"
        class="cls-1" />
    <path
        d="M237.08,3163.42c0,.32,7.78,4.94,8.38,5.42,3.87,3,8.26,7.55,8.28,12.86a6.44,6.44,0,0,1-1.49,4.17c-2.56,3.2-6.28,5.18-9.66,2.67-3.73-2.76-5.33-6.2-5.82-10.81A75.22,75.22,0,0,1,237.08,3163.42Z"
        class="cls-1" />
    <path
        d="M237.06,3163.64s.05,0,.13,0a.21.21,0,0,0,.12-.24c0-.1,0,0,0-.06l0,0,.09.07.21.14.45.28.93.53,1.87,1,3.76,2.07,1,.54.25.15.25.18.44.32c.59.43,1.16.88,1.73,1.35a27.49,27.49,0,0,1,3.2,3.1,14.44,14.44,0,0,1,3.77,8.46,7.93,7.93,0,0,1-1.46,5,13.66,13.66,0,0,1-3.44,3.47,8.06,8.06,0,0,1-5.22,1.57,7.61,7.61,0,0,1-2.83-.79,13.61,13.61,0,0,1-1.18-.71c-.33-.23-.66-.47-1-.73a14.25,14.25,0,0,1-3.3-3.73,15,15,0,0,1-1.74-4.63,29.74,29.74,0,0,1-.1-9.07c.17-1.46.44-2.9.75-4.32.17-.71.32-1.42.52-2.12l.29-1.05c.06-.22.08-.25.2-.33A.8.8,0,0,0,237.06,3163.64Zm0-.44c0,.14.14.31.23.59a4.72,4.72,0,0,1,.11.74l.12,1.08.19,2.15.36,4.24c.15,1.39.26,2.77.49,4.12a23.27,23.27,0,0,0,.8,3.84,13.35,13.35,0,0,0,3.61,6.1,4.92,4.92,0,0,0,2.51,1.62,4.35,4.35,0,0,0,2.88-.65,10.63,10.63,0,0,0,2.73-2.39,4.8,4.8,0,0,0,1.13-3,11.87,11.87,0,0,0-2.56-7.13,25.41,25.41,0,0,0-2.66-3.14c-.49-.5-1-1-1.52-1.45l-.39-.35-.17-.15-.19-.15-.87-.6-3.53-2.44-1.75-1.25-.87-.64-.42-.34-.22-.18-.11-.11-.06-.07s0,0-.06-.11a.24.24,0,0,1,.1-.27C237.06,3163.2,237.08,3163.2,237.1,3163.2Z"
        class="cls-1" />
    <path
        d="M285.27,3176.12c-.27.17.65,9.19.63,10-.15,4.92-1.18,11.13-5.43,14.31a6.49,6.49,0,0,1-4.24,1.27c-4.09-.16-7.9-2-7.89-6.19,0-4.63,1.82-8,5.24-11.1A75.82,75.82,0,0,1,285.27,3176.12Z"
        class="cls-1" />
    <path
        d="M285.08,3176.24a.22.22,0,0,0,.09.1c.08.06.25,0,.26-.05s0-.05,0-.05v.15l0,.26,0,.52.12,1.06.28,2.12.57,4.25.13,1.08,0,.3v.85c0,.73,0,1.46-.06,2.2a26.82,26.82,0,0,1-.59,4.41,14.5,14.5,0,0,1-4.56,8.06,8,8,0,0,1-4.88,1.79,14,14,0,0,1-4.84-.71,8.06,8.06,0,0,1-4.36-3.27,7.53,7.53,0,0,1-1.05-2.74,11.74,11.74,0,0,1-.12-1.37c0-.4,0-.81,0-1.22a14.15,14.15,0,0,1,1.05-4.87,15,15,0,0,1,2.68-4.15,29.85,29.85,0,0,1,7.24-5.46c1.28-.73,2.59-1.37,3.92-2,.67-.29,1.33-.58,2-.84l1-.4c.21-.08.26-.08.39,0A.87.87,0,0,0,285.08,3176.24Zm.38-.24c-.1.11-.16.3-.34.54a5.3,5.3,0,0,1-.52.53l-.8.73-1.62,1.44L279,3182c-1,1-2.08,1.86-3,2.85a23.36,23.36,0,0,0-2.61,2.93,13.29,13.29,0,0,0-2.76,6.52,5,5,0,0,0,.18,3,4.27,4.27,0,0,0,2.24,1.93,10.39,10.39,0,0,0,3.55.78,4.75,4.75,0,0,0,3.09-.89,11.83,11.83,0,0,0,4.21-6.29,25.47,25.47,0,0,0,1-4c.1-.69.19-1.38.26-2.08l.05-.52,0-.23v-.24l0-1.06-.14-4.28,0-2.15v-1.09l0-.54,0-.28,0-.15,0-.09s0,0,.05-.12a.25.25,0,0,1,.28-.08A.26.26,0,0,1,285.46,3176Z"
        class="cls-1" />
    <path
        d="M297.32,3154.92c-.14.29,5.63,7.2,6,7.85,2.61,4.13,5.22,9.8,3.48,14.78a6.39,6.39,0,0,1-2.78,3.4c-3.45,2.15-7.59,2.77-9.93-.71-2.57-3.81-2.92-7.56-1.85-12A74.51,74.51,0,0,1,297.32,3154.92Z"
        class="cls-1" />
    <path
        d="M297.41,3154.72c.08,0,.14.22.13.19l0,0,.06.1.16.2.32.41.69.8,1.41,1.59,2.83,3.18.71.82.18.22.18.26.31.44c.4.6.79,1.22,1.17,1.84a28,28,0,0,1,2,4,14.32,14.32,0,0,1,.72,9.16,7.9,7.9,0,0,1-3,4.19,14,14,0,0,1-4.38,2.1,8,8,0,0,1-5.4-.27,7.49,7.49,0,0,1-2.39-1.68,10.77,10.77,0,0,1-.86-1.05c-.23-.33-.46-.66-.67-1a14.11,14.11,0,0,1-1.85-4.59,14.75,14.75,0,0,1-.09-4.91,29.41,29.41,0,0,1,2.92-8.51c.64-1.31,1.37-2.57,2.13-3.8.39-.61.77-1.22,1.18-1.81l.63-.89a5.24,5.24,0,0,1,.45-.58C297.13,3154.92,297.32,3154.83,297.41,3154.72Zm-.19.4a.87.87,0,0,0,.06.57c.06.12.06.17,0,.38l-.25,1-.53,2.08-1.07,4.09c-.32,1.35-.68,2.68-.91,4a22.58,22.58,0,0,0-.53,3.87,13.14,13.14,0,0,0,1.36,6.89,4.83,4.83,0,0,0,1.8,2.35,4.3,4.3,0,0,0,2.91.36,10.7,10.7,0,0,0,3.36-1.34,4.69,4.69,0,0,0,2-2.45,11.73,11.73,0,0,0,0-7.52,25.35,25.35,0,0,0-1.45-3.82c-.3-.63-.6-1.25-.94-1.86l-.25-.46-.1-.19-.14-.2-.6-.86-2.5-3.45-1.22-1.75-.6-.89-.29-.46-.14-.24-.07-.13,0-.09C297.08,3155,297.15,3155.13,297.22,3155.12Z"
        class="cls-1" />
    <path
        d="M270.3,3149.75c-.22.24,3.33,8.51,3.54,9.26,1.31,4.7,2.18,10.89-.92,15.15a6.32,6.32,0,0,1-3.64,2.46c-3.92,1.07-8.06.48-9.3-3.52-1.37-4.39-.63-8.09,1.68-12.07A74.79,74.79,0,0,1,270.3,3149.75Z"
        class="cls-1" />
    <path
        d="M270.46,3149.9l3.5,7.53.45,1,.11.27.1.3.16.51c.22.69.41,1.39.59,2.1a27.08,27.08,0,0,1,.75,4.35,14.41,14.41,0,0,1-1.94,9,7.93,7.93,0,0,1-4.09,3.14,14,14,0,0,1-4.8.76,8.09,8.09,0,0,1-5.1-1.81,7.64,7.64,0,0,1-1.8-2.29,11.28,11.28,0,0,1-.52-1.26c-.13-.38-.26-.76-.36-1.15a14.19,14.19,0,0,1-.45-4.92,14.89,14.89,0,0,1,1.32-4.73,29.83,29.83,0,0,1,5.24-7.32,47.26,47.26,0,0,1,6.51-5.74Zm0,0c-1.38,2.55-2.94,4.94-4.37,7.33-.69,1.2-1.41,2.37-2,3.58a22.6,22.6,0,0,0-1.61,3.55,13.12,13.12,0,0,0-.68,7,4.94,4.94,0,0,0,1.05,2.77,4.28,4.28,0,0,0,2.69,1.17,10.27,10.27,0,0,0,3.59-.32,4.71,4.71,0,0,0,2.67-1.75,11.78,11.78,0,0,0,2.13-7.21,25.54,25.54,0,0,0-.29-4.08c-.1-.69-.22-1.37-.36-2.05l-.11-.51,0-.22-.07-.23-.33-1-1.41-4-.66-2-.32-1-.15-.53-.06-.27,0-.14c0-.07-.06-.09.06-.32Z"
        class="cls-1" />
    <path
        d="M431,3143.2c-30.67-55-93.72-89.37-159-83.63-78.31,6.88-120.45,68-125.89,76.15,13.07-16.61,42.66-48.93,90.38-62.12a183.09,183.09,0,0,1,63.28-5.65c-.12,0-18.68,1.69-29.55,5-6.21,1.9-14.58,5.82-23.45,14.77,8.2-3.56,59.52-24.84,111.2.91,26.2,13.06,41.36,32.65,48.61,43.72a56.86,56.86,0,0,0-18.65-9,57.7,57.7,0,0,0-29.91,0,84.42,84.42,0,0,1,38.16,19.12c4.47,4,15.68,14.87,24.77,40,17.46,48.3,6.88,93.16,6.53,93.15a49,49,0,0,0-16.53-43.72c2.88,12.46,5.65,32.74-1.55,54.45-18.46,55.65-89.34,81.08-90.1,80-.24-.35,6.28-3.94,12.38-13a54.34,54.34,0,0,0,6.8-14.3c-17,10.68-61,35-109.87,24-34.55-7.75-55.81-29.57-58.77-37.42-.37-1-2.46-6.8-.33-9,2-2.07,5.47-1.37,6-1.27,5.59,1.11,7.69,7.76,7.82,8.18a60.2,60.2,0,0,0-2.81-8.57,61.27,61.27,0,0,0-5.4-10.22,24.09,24.09,0,0,1,3.49,1.94,24.67,24.67,0,0,1,6.63,6.62,33.75,33.75,0,0,0-3.87-9.36c-15.42-25.34-60.69-20.47-64.93-20l7.46,4.64a55.57,55.57,0,0,0,9.86,11.28,56.23,56.23,0,0,0,17.19,10.25,81.22,81.22,0,0,0,11,30.15c33.32,53.82,139.51,73.32,211.84,27.33C444.55,3322.49,474,3220.24,431,3143.2Z"
        class="cls-1" />
    <path
        d="M431,3143.2a163.91,163.91,0,0,0-59.11-60.31,167.61,167.61,0,0,0-81.05-23.77,161.3,161.3,0,0,0-21.31.82,154,154,0,0,0-21,3.61c-1.72.45-3.47.82-5.17,1.33l-5.12,1.51c-3.37,1.12-6.75,2.23-10.05,3.56a167.92,167.92,0,0,0-19.33,9,185.27,185.27,0,0,0-62.59,56.89l-.37-.27c3-3.83,6.17-7.53,9.43-11.15,1.67-1.77,3.29-3.59,5-5.3l2.57-2.59,2.64-2.52a181.76,181.76,0,0,1,22.73-18.31,169.05,169.05,0,0,1,25.47-14.26l3.35-1.46c1.12-.49,2.22-1,3.38-1.4l6.85-2.55c4.65-1.46,9.28-3,14-4.09a180.43,180.43,0,0,1,28.85-4.54,176.11,176.11,0,0,1,29.23,0h.13c-.08.38.25-.85.09.93-.16,0-.06,0-.07,0h0l-.42,0-.9.09-1.81.19-3.61.43c-2.41.3-4.82.64-7.21,1a124.07,124.07,0,0,0-14.22,2.94,50,50,0,0,0-13.13,5.88,64.4,64.4,0,0,0-11.2,9.11l-.61-.89A140.62,140.62,0,0,1,268,3080a150.87,150.87,0,0,1,22.34-3.89,135.24,135.24,0,0,1,22.68-.29A120.06,120.06,0,0,1,376.21,3099a129.44,129.44,0,0,1,31,32.94l2.41,3.68-3.55-2.6a57,57,0,0,0-10.91-6.23,55,55,0,0,0-12-3.64,57.16,57.16,0,0,0-12.53-.86,57.85,57.85,0,0,0-12.41,1.9l0-1.66a87.53,87.53,0,0,1,27.29,10.91,80.26,80.26,0,0,1,11.81,8.87,70.55,70.55,0,0,1,9.78,11.08,114.08,114.08,0,0,1,13.66,26,162.12,162.12,0,0,1,8,28.25,184.23,184.23,0,0,1,1.54,58.53c-.35,2.43-.74,4.85-1.25,7.27-.13.61-.26,1.21-.42,1.83,0,.16-.08.3-.14.49,0,0,0,.1-.07.18s.18-.2-.25.38c-.38.41-1.23.46-1.6-.5a1.21,1.21,0,0,1,0-.29v-.24l.1-.92c.13-1.19.21-2.38.25-3.57a49.31,49.31,0,0,0-1.58-14.21,46.3,46.3,0,0,0-5.71-13.07,52.79,52.79,0,0,0-9.31-10.87l1.61-.95a113.72,113.72,0,0,1,3.05,26.71,96,96,0,0,1-1.08,13.44c-.31,2.23-.78,4.43-1.24,6.64s-1.08,4.37-1.78,6.51a93,93,0,0,1-11.63,24.26,122,122,0,0,1-17.34,20.53,176.68,176.68,0,0,1-44.12,30.28c-4,2-8.11,3.8-12.31,5.4-1.05.4-2.11.78-3.19,1.13-.54.18-1.08.35-1.65.5a8.58,8.58,0,0,1-1,.19,1.54,1.54,0,0,1-.54,0,1,1,0,0,1-.68-1.26,1.32,1.32,0,0,1,.22-.38,3.42,3.42,0,0,1,.42-.4,62.66,62.66,0,0,0,5-4.28,52.23,52.23,0,0,0,13.51-22.2l1.34,1a183.34,183.34,0,0,1-49,21.87c-17.31,4.75-35.63,6.36-53.46,3.66a115.85,115.85,0,0,1-26-7.15A112.81,112.81,0,0,1,187,3345a93.34,93.34,0,0,1-10.22-8.84,56.11,56.11,0,0,1-4.47-5.12l-1-1.37c-.33-.47-.62-1-.92-1.46-.15-.25-.31-.48-.45-.75l-.38-.8-.37-.8c-.11-.27-.2-.55-.29-.82a23.61,23.61,0,0,1-.85-3.36,10.34,10.34,0,0,1,0-3.6,4.2,4.2,0,0,1,.82-1.82,4.6,4.6,0,0,1,1.54-1.22,7.44,7.44,0,0,1,3.62-.67,9.4,9.4,0,0,1,3.51.8,10.3,10.3,0,0,1,2.93,2.07,15.28,15.28,0,0,1,3.57,6l-1.35.36a60.24,60.24,0,0,0-8.09-18.58l-1.26-1.93,2.09,1a25,25,0,0,1,10.39,8.81l-1.18.52a32.79,32.79,0,0,0-3.79-9.2,32.32,32.32,0,0,0-6.45-7.59,47.59,47.59,0,0,0-17.69-9.26,88.77,88.77,0,0,0-19.92-3.35,121.19,121.19,0,0,0-20.25.45l.22-1,7.46,4.65.09.06.07.09A55.19,55.19,0,0,0,136,3301a55.84,55.84,0,0,0,15.09,8.58l.26.09,0,.28a81.06,81.06,0,0,0,11,30.14l2.26,3.35c.38.55.73,1.12,1.14,1.66l1.25,1.58c.84,1.05,1.65,2.13,2.52,3.16l2.71,3c.46.49.9,1,1.38,1.47l1.46,1.4,2.92,2.8,3.09,2.6,1.54,1.31,1.62,1.21a128.22,128.22,0,0,0,28,16.05,168.49,168.49,0,0,0,30.92,9.5,188.56,188.56,0,0,0,64.49,2,168.25,168.25,0,0,0,61-20.79,158.69,158.69,0,0,0,47.73-43.26,178.58,178.58,0,0,0,28.11-58.08,175.92,175.92,0,0,0,5.67-64.29A158.75,158.75,0,0,0,431,3143.2Zm0,0a158.75,158.75,0,0,1,19.21,61.56,175.89,175.89,0,0,1-5.6,64.33,178.9,178.9,0,0,1-28.08,58.18,159.3,159.3,0,0,1-47.75,43.38,169.84,169.84,0,0,1-61.1,20.95,188.85,188.85,0,0,1-64.67-1.81,168.75,168.75,0,0,1-31.07-9.45,129.11,129.11,0,0,1-28.21-16.06l-1.64-1.22-1.55-1.31-3.12-2.62-3-2.81-1.47-1.4c-.49-.48-.93-1-1.39-1.49l-2.76-3c-.88-1-1.69-2.12-2.55-3.18l-1.26-1.6c-.42-.54-.78-1.12-1.16-1.68l-2.29-3.38a81.59,81.59,0,0,1-11.16-30.44l.3.37a56.51,56.51,0,0,1-27.32-21.69l.16.16-7.47-4.63-1.32-.82,1.54-.17a121.49,121.49,0,0,1,20.45-.51,89.86,89.86,0,0,1,20.19,3.34,48.74,48.74,0,0,1,18.17,9.46,33.11,33.11,0,0,1,10.69,17.42l.89,3.57-2.06-3a23.63,23.63,0,0,0-9.86-8.32l.84-1a61.66,61.66,0,0,1,8.33,19l-1.35.37a14.13,14.13,0,0,0-3.23-5.41,8,8,0,0,0-5.5-2.44,6.1,6.1,0,0,0-2.91.53,3.19,3.19,0,0,0-1.06.84,2.68,2.68,0,0,0-.53,1.21,13.5,13.5,0,0,0,.86,6.19c.08.26.17.52.27.77l.34.71.33.71c.12.24.28.46.42.69.29.46.56.93.87,1.37l1,1.32a55.25,55.25,0,0,0,4.36,5,91.19,91.19,0,0,0,10.06,8.65,110.21,110.21,0,0,0,23.2,12.91,113.84,113.84,0,0,0,25.62,7c17.57,2.65,35.63,1.05,52.75-3.66A181.78,181.78,0,0,0,338,3338.26L340,3337l-.72,2.33a53.94,53.94,0,0,1-14,23,61.07,61.07,0,0,1-5.12,4.37l-.19.17a.85.85,0,0,0,.11-.21.89.89,0,0,0-.15-.81.88.88,0,0,0-.43-.3l-.13,0c.16,0,.43-.08.68-.14.5-.13,1-.29,1.54-.46,1-.34,2.07-.72,3.1-1.11,4.12-1.58,8.17-3.4,12.15-5.34a175.43,175.43,0,0,0,43.61-30,119.72,119.72,0,0,0,17.05-20.22,91.3,91.3,0,0,0,11.36-23.76c.68-2.1,1.2-4.24,1.73-6.37s.9-4.31,1.21-6.5a96.49,96.49,0,0,0,1.06-13.16,111.67,111.67,0,0,0-3-26.25l-.69-3,2.3,2.07a54.83,54.83,0,0,1,9.64,11.29,48.48,48.48,0,0,1,5.94,13.62,51.75,51.75,0,0,1,1.63,14.76c-.05,1.24-.14,2.49-.27,3.72l-.1.9v.09h0c0-.08,0,.18,0-.18a1,1,0,0,0-1.56-.48c-.41.56-.11.15-.21.28l0,0,.11-.38c.14-.56.27-1.15.4-1.74.49-2.35.89-4.74,1.23-7.13a182.52,182.52,0,0,0-1.46-57.93A160.33,160.33,0,0,0,419,3180a112.4,112.4,0,0,0-13.42-25.63,68.14,68.14,0,0,0-9.52-10.82,78.68,78.68,0,0,0-11.54-8.69,85.75,85.75,0,0,0-26.75-10.72l-3.45-.76,3.42-.9a58.91,58.91,0,0,1,25.68-1,56.9,56.9,0,0,1,12.37,3.79,58.21,58.21,0,0,1,11.2,6.44l-1.14,1.09a127.9,127.9,0,0,0-30.55-32.64,118.93,118.93,0,0,0-62.4-23.06,133.83,133.83,0,0,0-22.47.23,148.89,148.89,0,0,0-22.17,3.8,140.09,140.09,0,0,0-21.33,7.11l-2.64,1.13,2-2a65.42,65.42,0,0,1,11.42-9.22,50.87,50.87,0,0,1,13.41-6,124.1,124.1,0,0,1,14.35-2.92c2.41-.37,4.82-.71,7.24-1l3.63-.42,1.82-.19.91-.09.49,0h0c-.05,0,0,0-.19,0-.19,1.78.1.55,0,.92h-.1a175.13,175.13,0,0,0-29.06-.11,178.9,178.9,0,0,0-28.74,4.44c-4.72,1.1-9.34,2.59-14,4l-6.83,2.52c-1.15.39-2.25.9-3.36,1.38l-3.34,1.45a167.72,167.72,0,0,0-25.41,14.13A180.63,180.63,0,0,0,166,3114.41l-2.65,2.5-2.56,2.59c-1.74,1.69-3.36,3.51-5,5.27-3.26,3.6-6.43,7.28-9.44,11.09l-.37-.26a186.53,186.53,0,0,1,62.84-56.88,166.76,166.76,0,0,1,19.37-9c3.3-1.33,6.69-2.44,10.07-3.56l5.13-1.51c1.7-.51,3.45-.88,5.17-1.32a151.51,151.51,0,0,1,21-3.59,163.49,163.49,0,0,1,21.34-.81A167.93,167.93,0,0,1,372,3082.81,163.92,163.92,0,0,1,431,3143.2Z"
        class="cls-1" />
    <path d="M198.85,3232a5.84,5.84,0,1,1-5.84-5.84A5.83,5.83,0,0,1,198.85,3232Z" class="cls-1" />
    <path
        d="M199.07,3232a8.28,8.28,0,0,1-1.6,4.45,6.1,6.1,0,0,1-4.45,2.47,7.08,7.08,0,0,1-5.15-1.77,7.46,7.46,0,0,1-2.43-5.15,8.08,8.08,0,0,1,1.93-5.65A7,7,0,0,1,193,3224,6.14,6.14,0,0,1,198,3227,8.81,8.81,0,0,1,199.07,3232Zm-.43,0a3.87,3.87,0,0,0-2.32-3.3,6.15,6.15,0,0,0-3.3-.36,5.53,5.53,0,0,0-2.61,1,3.66,3.66,0,0,0-1.49,2.61,4.49,4.49,0,0,0,4.1,4.75,5.58,5.58,0,0,0,3.8-.94A4.37,4.37,0,0,0,198.64,3232Z"
        class="cls-1" />
    <path d="M385.35,3249.14a5.84,5.84,0,1,1-5.84-5.84A5.84,5.84,0,0,1,385.35,3249.14Z" class="cls-1" />
    <path
        d="M385.56,3249.14a8.28,8.28,0,0,1-1.6,4.45,6.08,6.08,0,0,1-4.45,2.47,7.1,7.1,0,0,1-5.15-1.77,7.46,7.46,0,0,1-2.43-5.15,8.08,8.08,0,0,1,1.93-5.65,7,7,0,0,1,5.65-2.36,6.2,6.2,0,0,1,2.92.95,6.38,6.38,0,0,1,2,2.11A8.88,8.88,0,0,1,385.56,3249.14Zm-.43,0a3.87,3.87,0,0,0-2.32-3.3,6.15,6.15,0,0,0-3.3-.36,5.53,5.53,0,0,0-2.61,1.05,3.66,3.66,0,0,0-1.49,2.61,4.49,4.49,0,0,0,4.1,4.75,5.58,5.58,0,0,0,3.8-.94A4.37,4.37,0,0,0,385.13,3249.14Z"
        class="cls-1" />
    <path d="M330.78,3292.15a5.84,5.84,0,1,1-5.84-5.83A5.83,5.83,0,0,1,330.78,3292.15Z" class="cls-1" />
    <path
        d="M331,3292.15a8.19,8.19,0,0,1-1.61,4.45,6.1,6.1,0,0,1-4.45,2.48,7.11,7.11,0,0,1-5.15-1.78,7.43,7.43,0,0,1-2.42-5.14,8,8,0,0,1,1.93-5.65,7,7,0,0,1,5.64-2.36,6.11,6.11,0,0,1,2.93.94,6.37,6.37,0,0,1,2,2.12A8.76,8.76,0,0,1,331,3292.15Zm-.44,0a3.85,3.85,0,0,0-2.31-3.3,6.18,6.18,0,0,0-3.31-.36,5.45,5.45,0,0,0-2.6,1.06,3.68,3.68,0,0,0-1.5,2.6,4.5,4.5,0,0,0,4.1,4.76,5.6,5.6,0,0,0,3.81-.95A4.38,4.38,0,0,0,330.56,3292.15Z"
        class="cls-1" />
    <path d="M291.74,3151.94a5.84,5.84,0,1,1-5.84-5.83A5.84,5.84,0,0,1,291.74,3151.94Z" class="cls-1" />
    <path
        d="M292,3151.94a8.26,8.26,0,0,1-1.6,4.45,6.12,6.12,0,0,1-4.45,2.48,7.15,7.15,0,0,1-5.15-1.78,7.39,7.39,0,0,1-2.42-5.15,8,8,0,0,1,1.92-5.64,7,7,0,0,1,5.65-2.36,6.15,6.15,0,0,1,2.93.94,6.47,6.47,0,0,1,2,2.12A8.83,8.83,0,0,1,292,3151.94Zm-.43,0a3.87,3.87,0,0,0-2.32-3.3,6.15,6.15,0,0,0-3.3-.36,5.45,5.45,0,0,0-2.61,1.06,3.62,3.62,0,0,0-1.49,2.6,4.49,4.49,0,0,0,4.1,4.75,5.53,5.53,0,0,0,3.8-.94A4.36,4.36,0,0,0,291.52,3151.94Z"
        class="cls-1" />
    <path d="M334.54,3168.81a5.84,5.84,0,1,1-5.84-5.83A5.83,5.83,0,0,1,334.54,3168.81Z" class="cls-1" />
    <path
        d="M334.76,3168.81a8.22,8.22,0,0,1-1.61,4.45,6.1,6.1,0,0,1-4.45,2.48,7.11,7.11,0,0,1-5.14-1.78,7.4,7.4,0,0,1-2.43-5.15,8,8,0,0,1,1.93-5.64,7,7,0,0,1,5.64-2.37,6.23,6.23,0,0,1,2.93.95,6.44,6.44,0,0,1,2,2.11A8.81,8.81,0,0,1,334.76,3168.81Zm-.44,0a3.85,3.85,0,0,0-2.31-3.3,6.18,6.18,0,0,0-3.31-.36,5.45,5.45,0,0,0-2.6,1.06,3.66,3.66,0,0,0-1.5,2.6,4.5,4.5,0,0,0,4.1,4.75,5.6,5.6,0,0,0,3.81-.94A4.35,4.35,0,0,0,334.32,3168.81Z"
        class="cls-1" />
    <path d="M243.6,3293.61a5.84,5.84,0,1,1-5.83-5.83A5.83,5.83,0,0,1,243.6,3293.61Z" class="cls-1" />
    <path
        d="M243.82,3293.61a8.26,8.26,0,0,1-1.6,4.45,6.14,6.14,0,0,1-4.45,2.48,7.11,7.11,0,0,1-5.15-1.78,7.44,7.44,0,0,1-2.43-5.15,8,8,0,0,1,1.93-5.64,7,7,0,0,1,5.65-2.36,6.08,6.08,0,0,1,2.92.94,6.4,6.4,0,0,1,2,2.12A8.83,8.83,0,0,1,243.82,3293.61Zm-.43,0a3.87,3.87,0,0,0-2.32-3.3,6.15,6.15,0,0,0-3.3-.36,5.45,5.45,0,0,0-2.61,1.06,3.64,3.64,0,0,0-1.49,2.6,4.5,4.5,0,0,0,4.1,4.76,5.59,5.59,0,0,0,3.8-.95A4.36,4.36,0,0,0,243.39,3293.61Z"
        class="cls-1" />
    <path d="M230.15,3178.73a5.84,5.84,0,1,1-5.84-5.83A5.84,5.84,0,0,1,230.15,3178.73Z" class="cls-1" />
    <path d="M302.65,3194.11a5.84,5.84,0,1,1-5.84-5.84A5.83,5.83,0,0,1,302.65,3194.11Z" class="cls-1" />
    <path d="M379.51,3207.57a5.84,5.84,0,1,1-5.84-5.83A5.83,5.83,0,0,1,379.51,3207.57Z" class="cls-1" />
    <path d="M129.6,3470.48V3473H107v-38.64h21.94v2.48h-19.4v19.46h14.88v2.54H109.54v11.68Z" class="cls-1" />
    <path
        d="M156.62,3453.06l-14.94,17.42h17.2V3473H136.22l18.19-21.11a7.86,7.86,0,0,0,.67-.88,9.69,9.69,0,0,0,1.65-5.4,8.83,8.83,0,1,0-17.64-.23h-2.48a11.7,11.7,0,0,1,11.08-11.74h.44a12.07,12.07,0,0,1,8.93,18.91Z"
        class="cls-1" />
    <path
        d="M185.23,3473.57h-.71a18.68,18.68,0,0,1-13-5.9,20.58,20.58,0,0,1,0-28.39,18.72,18.72,0,0,1,13-5.9h.71a18.91,18.91,0,0,1,13,5.9,20.71,20.71,0,0,1,0,28.39A18.87,18.87,0,0,1,185.23,3473.57Zm-.38-37.71c-9.15.22-16.49,8-16.49,17.59s7.34,17.42,16.49,17.64c9.15-.22,16.54-8.05,16.54-17.64S194,3436.08,184.85,3435.86Z"
        class="cls-1" />
    <path
        d="M231.22,3473h-2.54v-37.7l.88-.28c.5-.11,12.41-3.75,19.13,1.21,3,2.21,4.47,5.63,4.47,10.2s-1.49,8.05-4.47,10.2c-5.34,4-13.94,2.48-17.47,1.66Zm0-17.31c2.7.72,11.24,2.43,16-1.1,2.32-1.65,3.42-4.41,3.42-8.16s-1.1-6.45-3.42-8.16c-4.79-3.52-13.28-1.76-16-1.1Z"
        class="cls-1" />
    <path
        d="M277.53,3473.57h-.72a18.68,18.68,0,0,1-13-5.9,20.58,20.58,0,0,1,0-28.39,18.72,18.72,0,0,1,13-5.9h.72a18.93,18.93,0,0,1,13,5.9,20.74,20.74,0,0,1,0,28.39A18.89,18.89,0,0,1,277.53,3473.57Zm-.39-37.71c-9.15.22-16.48,8-16.48,17.59s7.33,17.42,16.48,17.64c9.15-.22,16.54-8.05,16.54-17.64S286.29,3436.08,277.14,3435.86Z"
        class="cls-1" />
    <path
        d="M317.5,3459l8.27,13.94h-2.92l-8.05-13.61a32,32,0,0,1-9.48-.94V3473h-2.54v-37.65l.88-.27c.5-.17,12.35-3.81,19.13,1.15,3,2.21,4.47,5.68,4.47,10.31s-1.49,8.11-4.47,10.31A14.08,14.08,0,0,1,317.5,3459Zm3.81-4.25c2.26-1.71,3.41-4.46,3.41-8.27s-1.15-6.56-3.41-8.27c-4.8-3.52-13.29-1.76-16-1v18.63C308,3456.54,316.51,3458.3,321.31,3454.77Z"
        class="cls-1" />
    <path d="M355.66,3436.69h-11V3473h-2.48v-36.27h-11v-2.48h24.54Z" class="cls-1" />
    <path
        d="M373.63,3473.41a12.5,12.5,0,0,1-12.46-12.52v-26.52h2.48v26.52a10,10,0,1,0,20,0v-26.52h2.48v26.52A12.5,12.5,0,0,1,373.63,3473.41Z"
        class="cls-1" />
    <path
        d="M425.68,3466.85l-.72.77c-.61.6-1.21,1.16-1.88,1.71a18.76,18.76,0,0,1-11.08,4.13h-.71a19.09,19.09,0,0,1-12.9-5.84,20.24,20.24,0,0,1,0-28.12,18.83,18.83,0,0,1,12.9-5.84H412a18.85,18.85,0,0,1,13,5.84l.33.33-2,1.6a16.44,16.44,0,0,0-11.64-5.29c-9.09.22-16.43,7.94-16.43,17.42s7.34,17.2,16.43,17.36a16.32,16.32,0,0,0,11.41-5v-7.17H410.79v-2.53h14.89Z"
        class="cls-1" />
    <path
        d="M446.24,3434.21,461.51,3473h-2.7l-3-7.55a28.44,28.44,0,0,1-10.3,1.66,28.15,28.15,0,0,1-10.37-1.71l-2.92,7.6h-2.7l15-38.75Zm8.66,28.89L445.41,3439,436.1,3463c.33.11.71.28,1.16.39a26.55,26.55,0,0,0,8.27,1.15A25.78,25.78,0,0,0,454.9,3463.1Z"
        class="cls-1" />
    <path d="M470.67,3470.43h18.08v2.48H468.13v-38.76h2.54Z" class="cls-1" />
    <polygon points="331.29 3788.84 188.36 3645.91 187.69 3646.22 179.14 3627.95 335.66 3784.46 331.29 3788.84"
        class="cls-1" />
    <polygon
        points="250.29 3922.87 412.18 4085.98 409.31 4086.58 467.81 3945.82 412.58 4087.89 411.63 4090.34 409.71 4088.49 244.09 3929.17 250.29 3922.87"
        class="cls-1" />
    <polygon points="279.11 3855.57 219.01 3852.48 279.11 3849.39 279.11 3855.57" class="cls-1" />
    <rect x="310.53" y="3836.36" width="6.19" height="103.85" transform="translate(-2657.57 1360.62) rotate(-45)"
        class="cls-1" />
    <rect x="189.53" y="3922.79" width="162.99" height="6.19" class="cls-1" />
    <polygon points="189.63 3929.02 89.51 3863.97 192.86 3923.75 189.63 3929.02" class="cls-1" />
    <polygon points="162.28 3823.63 82.62 3823.49 162.05 3817.45 162.28 3823.63" class="cls-1" />
    <rect x="144.37" y="3780.47" width="107.18" height="6.19" transform="translate(-2617.4 1248.16) rotate(-45)"
        class="cls-1" />
    <polygon points="192.5 3641.86 264.48 3808.82 186.87 3644.41 192.5 3641.86" class="cls-1" />
    <polygon
        points="331.31 3782.66 352.36 3783.07 353.67 3783.1 354.46 3784.05 475 3929.36 350.23 3787.67 352.33 3788.64 331.28 3788.84 331.31 3782.66"
        class="cls-1" />
    <polygon points="419.95 3851.02 513.13 3963.2 416.59 3853.89 419.95 3851.02" class="cls-1" />
    <rect x="274.46" y="4529.06" width="15.6" height="138.09" class="cls-1" />
    <rect x="201.83" y="4491.82" width="15.6" height="198.94" transform="translate(-3185.13 1492.99) rotate(-45)"
        class="cls-1" />
    <path d="M279,4540.09l11-11L30.68,4280.71Z" class="cls-1" />
    <path d="M133.82,4526.65l15.1-3.91q-30.39-81.83-60.79-163.63Z" class="cls-1" />
    <path d="M383.25,4388.47v15.6H205.41l11-11-6.12-4.56Z" class="cls-1" />
    <path d="M216.45,4393l-11,11v-15.6h4.92Z" class="cls-1" />
    <path d="M459,4328.38,372.23,4393l11,11Z" class="cls-1" />
    <path d="M210.33,4388.47h-4.92v15.6l-75.68-75.69Z" class="cls-1" />
    <path d="M216.45,4393l-11,11v-15.6h4.92Z" class="cls-1" />
    <rect x="305.69" y="4529.06" width="15.6" height="138.09" transform="translate(626.98 9196.21) rotate(-180)"
        class="cls-1" />
    <rect x="378.32" y="4491.82" width="15.6" height="198.94" transform="translate(-2587.39 8110.86) rotate(-135)"
        class="cls-1" />
    <path d="M316.72,4540.09l-11-11,259.38-248.35Z" class="cls-1" />
    <path d="M461.93,4526.65l-15.1-3.91q30.39-81.83,60.79-163.63Z" class="cls-1" />
</svg>