<svg id="Camada_1" data-name="Camada 1" xmlns="http://www.w3.org/2000/svg" viewBox="0 0 595.28 595.28"><defs><style>.cls-1{fill:#010101;}.cls-2,.cls-5{fill:none;}.cls-2{stroke:#010101;stroke-miterlimit:10;stroke-width:18.2px;}.cls-3{isolation:isolate;}.cls-4{fill:#f6e033;}.cls-5{stroke:#f6e033;stroke-width:30.34px;}</style></defs><title>SVG_corretos_site</title><g id="Grupo_39" data-name="Grupo 39"><g id="Grupo_37" data-name="Grupo 37"><path id="Caminho_61" data-name="Caminho 61" class="cls-1" d="M74.89,169V426.24L297.64,554.85,520.39,426.24V169L297.64,40.43Z"/></g><path id="Caminho_62" data-name="Caminho 62" class="cls-2" d="M50.9,155.18V440.09L297.64,582.54,544.37,440.09V155.18L297.64,12.73Z"/></g><g id="Design" class="cls-3"><g class="cls-3"><path class="cls-4" d="M216.52,404.48a32.54,32.54,0,0,1,12.9,2.22,22.77,22.77,0,0,1,8.19,5.7,20,20,0,0,1,4.3,7.71,28.31,28.31,0,0,1-.1,16.83,21.59,21.59,0,0,1-12.25,13.65,29.32,29.32,0,0,1-12.08,2.22H198.29V404.48ZM207.58,445h9.69a18.18,18.18,0,0,0,6.25-1.09,15,15,0,0,0,8.8-8.44,18.1,18.1,0,0,0,1.33-7.2,16.63,16.63,0,0,0-1.23-6.48,14,14,0,0,0-3.48-5,15.89,15.89,0,0,0-5.36-3.24,19.51,19.51,0,0,0-6.86-1.16h-9.14Z"/><path class="cls-4" d="M258.64,438.13a6.15,6.15,0,0,0,.58,3,7.17,7.17,0,0,0,1.84,2.39,8.55,8.55,0,0,0,2.83,1.57,11.33,11.33,0,0,0,3.55.54,10.55,10.55,0,0,0,4.64-1,19.73,19.73,0,0,0,4.37-3l3.89,6.83a26.3,26.3,0,0,1-6.24,3.72,18.54,18.54,0,0,1-7.34,1.47,18.92,18.92,0,0,1-7.2-1.33,16.17,16.17,0,0,1-5.53-3.69,16.38,16.38,0,0,1-3.55-5.6,20.79,20.79,0,0,1-.07-14.06,15.94,15.94,0,0,1,3.35-5.43A14.92,14.92,0,0,1,259,420a17.65,17.65,0,0,1,6.76-1.26,14.63,14.63,0,0,1,5.35,1.05,13.24,13.24,0,0,1,4.88,3.42,17.81,17.81,0,0,1,3.55,6,25.6,25.6,0,0,1,1.37,8.87Zm12.15-7a7.22,7.22,0,0,0-1.88-3.27,4.86,4.86,0,0,0-3.65-1.44,5.78,5.78,0,0,0-3.83,1.33,7.53,7.53,0,0,0-2.25,3.38Z"/><path class="cls-4" d="M308.12,429.46a13.16,13.16,0,0,0-4.54-2.25,18.46,18.46,0,0,0-4.4-.54,7,7,0,0,0-3.24.75c-1,.5-1.47,1.11-1.47,1.84s.46,1.21,1.37,1.57a22.61,22.61,0,0,0,3.44,1c1.39.3,2.89.62,4.51,1a17.38,17.38,0,0,1,4.51,1.67,10.26,10.26,0,0,1,3.44,3,8.26,8.26,0,0,1,1.37,4.95,9.38,9.38,0,0,1-1.23,4.88,11.45,11.45,0,0,1-3.24,3.52A14.5,14.5,0,0,1,304,453a20.66,20.66,0,0,1-5.49.72,26.34,26.34,0,0,1-13.65-4.1l3.34-7a45.18,45.18,0,0,0,5.74,2.35,16.1,16.1,0,0,0,5,.79,7.11,7.11,0,0,0,3.55-.89,2.76,2.76,0,0,0,1.57-2.52c0-.6-.46-1.06-1.37-1.4a24.19,24.19,0,0,0-3.44-1c-1.39-.3-2.89-.64-4.51-1a18.55,18.55,0,0,1-4.5-1.71,10.33,10.33,0,0,1-3.45-3,8.57,8.57,0,0,1-.24-8.91,11.38,11.38,0,0,1,3.07-3.41,15.62,15.62,0,0,1,4.51-2.32,16.77,16.77,0,0,1,5.36-.86,25.91,25.91,0,0,1,6.41.86A18.52,18.52,0,0,1,312,422.5Z"/><path class="cls-4" d="M331.4,408.71,323.28,417l-8.12-8.33,8.12-8.19Zm-4,44.24H318.5V420.59l8.94-3.69Z"/><path class="cls-4" d="M352.46,419.22a13.33,13.33,0,0,1,4.3,2.33,12.5,12.5,0,0,1,3.21,3.92,11.48,11.48,0,0,1,1.26,5.5,12.12,12.12,0,0,1-1,5,11.86,11.86,0,0,1-2.53,3.65,14.17,14.17,0,0,1-3.55,2.53,21.51,21.51,0,0,1-4,1.53l-1.36.38c-.41.11-.62.28-.62.51a3,3,0,0,0,1.74.51l3,.24a35,35,0,0,1,3.58.48,10,10,0,0,1,3.45,1.3,7.44,7.44,0,0,1,2.59,2.69,9,9,0,0,1,1,4.61,8.19,8.19,0,0,1-1.54,4.71,14.35,14.35,0,0,1-4.09,3.92,22.92,22.92,0,0,1-5.91,2.7,23.51,23.51,0,0,1-6.89,1,17.59,17.59,0,0,1-5.16-.71,12.76,12.76,0,0,1-4.06-2,9.59,9.59,0,0,1-2.66-3.07,7.9,7.9,0,0,1-.95-3.82,10,10,0,0,1,1.46-5.29,6.36,6.36,0,0,1,4.2-3l.75-.68a7.86,7.86,0,0,1-2-1.37,3.05,3.05,0,0,1-1.09-2.39,3.09,3.09,0,0,1,1-2.52,8.6,8.6,0,0,1,2.77-1.43,7.73,7.73,0,0,1-2.43-1.78,10.88,10.88,0,0,1-1.63-2.35,10.26,10.26,0,0,1-.93-2.6,12.89,12.89,0,0,1-.27-2.56,14.16,14.16,0,0,1,.75-4.5,11.24,11.24,0,0,1,2.39-4.06,12,12,0,0,1,4.23-2.94,15.77,15.77,0,0,1,6.28-1.13A15.16,15.16,0,0,1,352.46,419.22Zm.65,33.69a22,22,0,0,0-4.44-.37,12,12,0,0,0-2.22.23,10.24,10.24,0,0,0-2.42.79,6.92,6.92,0,0,0-2,1.37,2.66,2.66,0,0,0-.82,2,2,2,0,0,0,1,1.71,5.9,5.9,0,0,0,3.21.68,13.07,13.07,0,0,0,3.35-.44,16.82,16.82,0,0,0,3-1.09,8.73,8.73,0,0,0,2.18-1.47,2.32,2.32,0,0,0,.85-1.64Q354.88,453.29,353.11,452.91ZM351,427.45a4.51,4.51,0,0,0-3.38-1.47,4.31,4.31,0,0,0-3.31,1.44A5,5,0,0,0,343,431a5.49,5.49,0,0,0,1.33,3.72,4.27,4.27,0,0,0,3.38,1.53,4.34,4.34,0,0,0,3.34-1.5,5.28,5.28,0,0,0,1.37-3.69A5,5,0,0,0,351,427.45Z"/><path class="cls-4" d="M374.75,420.38a29.35,29.35,0,0,1,4.5-1.22,27.43,27.43,0,0,1,5.26-.48q6.27,0,10.07,3.51t3.79,10.75v20h-8.88V434.11a8.92,8.92,0,0,0-1.5-5.6,4.77,4.77,0,0,0-4-1.91,14.61,14.61,0,0,0-6.48,1.16V453h-8.88v-35.7l6.08,3.27Z"/></g></g><path id="Caminho_611" data-name="Caminho 611" class="cls-5" d="M212.13,161.81h179v179h-179Z"/></svg>