<svg id="Camada_1" data-name="Camada 1" xmlns="http://www.w3.org/2000/svg" viewBox="0 0 595.28 595.28"><defs><style>.cls-1{fill:#010101;}.cls-2{isolation:isolate;}.cls-3{fill:#f6e033;}.cls-4{fill:none;stroke:#f6e033;stroke-miterlimit:10;stroke-width:43.78px;}</style></defs><title>SVG_corretos_site</title><rect id="Ret창ngulo_190" data-name="Ret창ngulo 190" class="cls-1" width="595.28" height="595.28"/><g id="Design" class="cls-2"><g class="cls-2"><path class="cls-3" d="M175.31,467.8q11.61,0,19.24,3.31a34,34,0,0,1,12.21,8.5,29.68,29.68,0,0,1,6.42,11.5A42.17,42.17,0,0,1,213,516.2a32.18,32.18,0,0,1-18.27,20.36q-7.32,3.32-18,3.31H148.13V467.8ZM162,528.27h14.45a26.86,26.86,0,0,0,9.31-1.63,22.6,22.6,0,0,0,7.79-4.79,23,23,0,0,0,5.35-7.78,27.15,27.15,0,0,0,2-10.74,24.8,24.8,0,0,0-1.83-9.67,21.26,21.26,0,0,0-5.19-7.49,24.17,24.17,0,0,0-8-4.83,29.13,29.13,0,0,0-10.23-1.73H162Z"/><path class="cls-3" d="M238.11,518a9.39,9.39,0,0,0,.87,4.48,10.64,10.64,0,0,0,2.75,3.57,12.62,12.62,0,0,0,4.22,2.34,16.77,16.77,0,0,0,5.3.81,15.67,15.67,0,0,0,6.92-1.53,29.55,29.55,0,0,0,6.51-4.47l5.8,10.17a39.23,39.23,0,0,1-9.31,5.55,27.62,27.62,0,0,1-10.94,2.19,28.07,28.07,0,0,1-10.74-2,24.22,24.22,0,0,1-8.25-5.5,24.74,24.74,0,0,1-5.29-8.35,31,31,0,0,1-.1-21,23.64,23.64,0,0,1,5-8.09,22.21,22.21,0,0,1,7.78-5.24,26.22,26.22,0,0,1,10.08-1.88,21.76,21.76,0,0,1,8,1.57,19.85,19.85,0,0,1,7.28,5.09,26.81,26.81,0,0,1,5.29,9,38.16,38.16,0,0,1,2,13.23Zm18.12-10.48a10.8,10.8,0,0,0-2.8-4.89,7.27,7.27,0,0,0-5.44-2.13,8.53,8.53,0,0,0-5.7,2,11,11,0,0,0-3.36,5Z"/><path class="cls-3" d="M311.91,505.06a19.26,19.26,0,0,0-6.77-3.36,27.48,27.48,0,0,0-6.56-.82,10.55,10.55,0,0,0-4.84,1.12c-1.46.75-2.19,1.67-2.19,2.75s.68,1.8,2,2.34a31.36,31.36,0,0,0,5.14,1.48q3.11.66,6.72,1.47a26.37,26.37,0,0,1,6.72,2.5,15.21,15.21,0,0,1,5.14,4.48,12.29,12.29,0,0,1,2,7.38,14,14,0,0,1-1.83,7.27,16.92,16.92,0,0,1-4.83,5.25,21.73,21.73,0,0,1-6.93,3.2,30.66,30.66,0,0,1-8.19,1.07q-10.19,0-20.36-6.1l5-10.39a69,69,0,0,0,8.55,3.51,24,24,0,0,0,7.43,1.17,10.57,10.57,0,0,0,5.29-1.32,4.13,4.13,0,0,0,2.34-3.76c0-.89-.67-1.58-2-2.09a38,38,0,0,0-5.14-1.43q-3.11-.66-6.72-1.52a27.64,27.64,0,0,1-6.72-2.55,15.4,15.4,0,0,1-5.14-4.43,11.81,11.81,0,0,1-2-7.22,12,12,0,0,1,1.67-6.06,17.25,17.25,0,0,1,4.59-5.09,23.26,23.26,0,0,1,6.71-3.46,25.08,25.08,0,0,1,8-1.27,38.55,38.55,0,0,1,9.57,1.27,27.61,27.61,0,0,1,9.16,4.22Z"/><path class="cls-3" d="M346.62,474.11l-12.11,12.42L322.4,474.11l12.11-12.21Zm-5.9,66H327.38V491.82l13.34-5.49Z"/><path class="cls-3" d="M378,489.79a19.71,19.71,0,0,1,6.42,3.46,19,19,0,0,1,4.78,5.85,17.05,17.05,0,0,1,1.88,8.2,17.94,17.94,0,0,1-1.42,7.43,17.71,17.71,0,0,1-3.77,5.44,20.64,20.64,0,0,1-5.29,3.77,32.9,32.9,0,0,1-5.9,2.29l-2,.56c-.61.17-.92.42-.92.76a4.39,4.39,0,0,0,2.6.77l4.53.35q2.55.21,5.34.71a15.12,15.12,0,0,1,5.14,1.94,11.33,11.33,0,0,1,3.87,4,13.45,13.45,0,0,1,1.53,6.87,12.26,12.26,0,0,1-2.29,7,21.57,21.57,0,0,1-6.11,5.86,34.56,34.56,0,0,1-8.8,4,34.91,34.91,0,0,1-10.28,1.52,26.38,26.38,0,0,1-7.69-1.06,19.32,19.32,0,0,1-6.06-3,14.18,14.18,0,0,1-4-4.58,11.81,11.81,0,0,1-1.42-5.7,15,15,0,0,1,2.19-7.89,9.5,9.5,0,0,1,6.26-4.53l1.12-1a12.11,12.11,0,0,1-3.06-2,4.56,4.56,0,0,1-1.63-3.56,4.63,4.63,0,0,1,1.48-3.77,13.36,13.36,0,0,1,4.12-2.14A11.39,11.39,0,0,1,355,518.7a16.51,16.51,0,0,1-2.44-3.51,15,15,0,0,1-1.38-3.87,19.16,19.16,0,0,1-.4-3.82,21,21,0,0,1,1.12-6.72,16.69,16.69,0,0,1,3.56-6,18.05,18.05,0,0,1,6.31-4.38,23.45,23.45,0,0,1,9.36-1.68A22.43,22.43,0,0,1,378,489.79ZM379,540a32.9,32.9,0,0,0-6.61-.56,17.78,17.78,0,0,0-3.31.36,14.87,14.87,0,0,0-3.62,1.17,10.51,10.51,0,0,0-2.95,2,4.05,4.05,0,0,0-1.22,3,3,3,0,0,0,1.53,2.54,8.75,8.75,0,0,0,4.78,1,19.85,19.85,0,0,0,5-.66,24.66,24.66,0,0,0,4.53-1.63,12.79,12.79,0,0,0,3.26-2.19,3.49,3.49,0,0,0,1.27-2.44C381.64,541.26,380.76,540.39,379,540Zm-3.1-38a6.73,6.73,0,0,0-5-2.18,6.47,6.47,0,0,0-4.94,2.13,7.51,7.51,0,0,0-2,5.3,8.16,8.16,0,0,0,2,5.54,6.36,6.36,0,0,0,5,2.29,6.47,6.47,0,0,0,5-2.24,7.88,7.88,0,0,0,2-5.49A7.48,7.48,0,0,0,375.89,502.05Z"/><path class="cls-3" d="M411.26,491.52a42.81,42.81,0,0,1,6.72-1.83,40.57,40.57,0,0,1,7.84-.72q9.36,0,15,5.25t5.65,16v29.82H433.25V512q0-5.5-2.24-8.35a7.15,7.15,0,0,0-5.91-2.85q-6.21,0-9.67,1.73v37.56H402.2V486.84l9.06,4.88Z"/></g></g><rect id="Ret창ngulo_192" data-name="Ret창ngulo 192" class="cls-4" x="167.86" y="117.42" width="258.57" height="258.57"/></svg>