<svg id="Camada_1" data-name="Camada 1" xmlns="http://www.w3.org/2000/svg" viewBox="0 0 595.28 595.28"><defs><style>.cls-1{fill:#f6e033;}.cls-2{isolation:isolate;}.cls-3{fill:#010101;}.cls-4{fill:none;stroke:#010101;stroke-miterlimit:10;stroke-width:43.78px;}</style></defs><title>SVG_corretos_site</title><rect id="Retângulo_188" data-name="Retângulo 188" class="cls-1" width="595.28" height="595.28"/><g id="Ilustração" class="cls-2"><g class="cls-2"><path class="cls-3" d="M91.64,539.56H77.8V469.12l13.84-5.19Z"/><path class="cls-3" d="M120.45,524c0,2.17.44,3.54,1.32,4.12a5,5,0,0,0,2.75.86,8.6,8.6,0,0,0,3.77-1,27.71,27.71,0,0,0,3.87-2.35l-1.12,13a7.87,7.87,0,0,1-3.46,1.48,21.43,21.43,0,0,1-4.18.46,17.68,17.68,0,0,1-5.39-.92,17.22,17.22,0,0,1-5.3-2.8,15.61,15.61,0,0,1-4-4.63,12.66,12.66,0,0,1-1.57-6.41v-56.5l13.33-4.17Z"/><path class="cls-3" d="M173.38,538.54a37.3,37.3,0,0,1-6.56,1.68,43.4,43.4,0,0,1-7.38.66,27.19,27.19,0,0,1-7.33-1.07,21.09,21.09,0,0,1-7.18-3.56A19.23,19.23,0,0,1,137.25,520V490.09h13.33v29.82a8.91,8.91,0,0,0,.81,3.92,8,8,0,0,0,2.14,2.75,9.48,9.48,0,0,0,3,1.63,10.55,10.55,0,0,0,3.31.56,33.53,33.53,0,0,0,5.4-.36,10.83,10.83,0,0,0,4-1.47V490.09h13.43v54.66Z"/><path class="cls-3" d="M226.11,504.75a19.35,19.35,0,0,0-6.77-3.36,27.62,27.62,0,0,0-6.57-.82,10.53,10.53,0,0,0-4.83,1.12c-1.46.75-2.19,1.67-2.19,2.75s.68,1.8,2,2.34a31.06,31.06,0,0,0,5.14,1.48c2.07.44,4.3.93,6.71,1.47a26.37,26.37,0,0,1,6.72,2.5,15.21,15.21,0,0,1,5.14,4.48,12.22,12.22,0,0,1,2,7.38,14.08,14.08,0,0,1-1.83,7.28,17,17,0,0,1-4.84,5.24,21.67,21.67,0,0,1-6.92,3.2,30.66,30.66,0,0,1-8.19,1.07q-10.19,0-20.36-6.1l5-10.39a66.29,66.29,0,0,0,8.55,3.51,24,24,0,0,0,7.43,1.18,10.6,10.6,0,0,0,5.29-1.33A4.13,4.13,0,0,0,220,524c0-.89-.68-1.58-2-2.09a37.54,37.54,0,0,0-5.14-1.43q-3.1-.66-6.71-1.52a27.64,27.64,0,0,1-6.72-2.55,15.3,15.3,0,0,1-5.14-4.43,12.8,12.8,0,0,1-.36-13.28,17.22,17.22,0,0,1,4.58-5.09,23.45,23.45,0,0,1,6.72-3.46,25,25,0,0,1,8-1.27,38.67,38.67,0,0,1,9.57,1.27,27.7,27.7,0,0,1,9.16,4.22Z"/><path class="cls-3" d="M259.6,490.09h12v11h-12v21.28a33,33,0,0,0,.25,4.93,1.62,1.62,0,0,0,1.78,1.48,9.93,9.93,0,0,0,3.87-.76q1.83-.76,4.28-2.09l5.09,10.38c-1.09.55-2.29,1.09-3.62,1.63s-2.64,1-4,1.43-2.58.72-3.76,1a15.65,15.65,0,0,1-3,.36,18,18,0,0,1-5.09-.76,13.4,13.4,0,0,1-4.53-2.35,12,12,0,0,1-3.25-4.07,12.68,12.68,0,0,1-1.28-5.85V501.08h-8.14v-11h8.14v-10l13.24-7.43Z"/><path class="cls-3" d="M308.35,504.34a12.64,12.64,0,0,0-3.76-2.65,9.65,9.65,0,0,0-4-.91,10.51,10.51,0,0,0-4.17.91,7.49,7.49,0,0,0-3.57,3.67v34.51H279.55V487.34l8.24,5.09h.41a19.7,19.7,0,0,1,5.65-2.8,22.55,22.55,0,0,1,7.18-1.17,25.39,25.39,0,0,1,7.78,1.12,16.89,16.89,0,0,1,6.06,3.36Z"/><path class="cls-3" d="M343,539c-.61.13-1.46.29-2.54.46s-2.26.32-3.51.46-2.53.23-3.82.3-2.48.1-3.56.1a14,14,0,0,1-6.26-1.42,17.38,17.38,0,0,1-5.09-3.77,18.54,18.54,0,0,1-3.46-5.19,14.07,14.07,0,0,1-1.28-5.8,16.27,16.27,0,0,1,2.45-9.37,17.07,17.07,0,0,1,6.21-5.55,24.88,24.88,0,0,1,8.39-2.59,68.43,68.43,0,0,1,9-.61v-2.14a3.92,3.92,0,0,0-1.37-3.05,5.38,5.38,0,0,0-3.72-1.22,25.6,25.6,0,0,0-7.28,1.17,24.2,24.2,0,0,0-7.48,3.81l-5.39-10.68a34.1,34.1,0,0,1,11.25-4.53,54.56,54.56,0,0,1,10.43-1.07,24.73,24.73,0,0,1,5.45.66,16.47,16.47,0,0,1,5.44,2.34,13.33,13.33,0,0,1,4.22,4.58,14.55,14.55,0,0,1,1.68,7.38v39Zm-3.46-22a40.41,40.41,0,0,0-4.58.26,14.62,14.62,0,0,0-4,1,6.83,6.83,0,0,0-2.85,2.19,6,6,0,0,0-1.07,3.67,5.46,5.46,0,0,0,1.17,3.51,3.59,3.59,0,0,0,2.9,1.48c.68,0,1.44,0,2.29-.11s1.67-.15,2.45-.25,1.51-.22,2.18-.36a9.47,9.47,0,0,0,1.53-.4Z"/><path class="cls-3" d="M403.63,504.75c-2-.82-3.66-1.46-5.09-1.94s-2.7-.86-3.82-1.17a19.17,19.17,0,0,0-5.44-.76,12.08,12.08,0,0,0-9.37,3.92q-3.56,3.92-3.56,10.33T380,525.21q3.62,3.66,9.83,3.66a24.09,24.09,0,0,0,5.85-.81,88.06,88.06,0,0,0,8.8-2.95l5.3,10.68a49.29,49.29,0,0,1-5.45,2.14q-2.81.92-5.5,1.58a47,47,0,0,1-5.09,1,34.31,34.31,0,0,1-4.22.3,30.28,30.28,0,0,1-10.84-1.88,25,25,0,0,1-8.45-5.24,24,24,0,0,1-5.5-8,26.1,26.1,0,0,1-2-10.28,28.51,28.51,0,0,1,2-10.79,25.21,25.21,0,0,1,5.5-8.39,24.3,24.3,0,0,1,8.4-5.45,28.48,28.48,0,0,1,10.59-1.93,34.81,34.81,0,0,1,8.9,1.47,78,78,0,0,1,10.64,3.82Zm-11,37.89a7.06,7.06,0,0,1,3.86,3,9.76,9.76,0,0,1,1.53,5.62q0,5.41-4.12,8t-11.25,2.5a11.76,11.76,0,0,1-1.63-.15l-2.14-.36c-.74-.14-1.46-.27-2.13-.41s-1.23-.24-1.63-.31l1.93-8.79a35.12,35.12,0,0,0,4.53.62,32.23,32.23,0,0,0,3.41,0c1.9-.14,2.85-.79,2.85-1.94,0-.82-.71-1.37-2.14-1.64a18.66,18.66,0,0,0-4.88-.2L384,536.81h9.78Z"/><path class="cls-3" d="M445.16,539c-.61.13-1.46.29-2.55.46s-2.25.32-3.51.46-2.53.23-3.81.3-2.48.1-3.57.1a14,14,0,0,1-6.26-1.42,17.51,17.51,0,0,1-5.09-3.77,18.76,18.76,0,0,1-3.46-5.19,14.06,14.06,0,0,1-1.27-5.8,16.27,16.27,0,0,1,2.44-9.37,17.23,17.23,0,0,1,6.21-5.55,24.93,24.93,0,0,1,8.4-2.59,68.43,68.43,0,0,1,9-.61v-2.14a3.9,3.9,0,0,0-1.38-3.05,5.34,5.34,0,0,0-3.71-1.22,25.55,25.55,0,0,0-7.28,1.17,24.09,24.09,0,0,0-7.48,3.81l-5.4-10.68a34.1,34.1,0,0,1,11.25-4.53,54.74,54.74,0,0,1,10.44-1.07,24.58,24.58,0,0,1,5.44.66,16.43,16.43,0,0,1,5.45,2.34,13.53,13.53,0,0,1,4.22,4.58,14.55,14.55,0,0,1,1.68,7.38v39Zm11.4-73.39c0,2.24-.07,4-.2,5.34a17,17,0,0,1-.61,3.26,8.9,8.9,0,0,1-1,2.19q-.62.91-1.53,2.13a11.73,11.73,0,0,1-9,3.57,13,13,0,0,1-4.07-.71c-1.42-.48-2.85-1-4.27-1.53s-2.9-1.07-4.23-1.58a10.13,10.13,0,0,0-3.61-.76c-.41,0-.8.47-1.17,1.42a3.37,3.37,0,0,0,.56,3.16h-11q0-7.95,2.91-12.22t9.51-4.27a17.58,17.58,0,0,1,4.89.71,40.69,40.69,0,0,1,4.78,1.73l3.26,1.53a7,7,0,0,0,2.95.71c.34,0,.6-.47.77-1.42a8.57,8.57,0,0,0-.16-3.26ZM441.7,517a40.41,40.41,0,0,0-4.58.26,14.44,14.44,0,0,0-4,1,6.83,6.83,0,0,0-2.85,2.19,5.92,5.92,0,0,0-1.07,3.67,5.46,5.46,0,0,0,1.17,3.51,3.59,3.59,0,0,0,2.9,1.48c.68,0,1.44,0,2.29-.11s1.66-.15,2.44-.25,1.51-.22,2.19-.36a9.47,9.47,0,0,0,1.53-.4Z"/><path class="cls-3" d="M515.09,525.31a24.95,24.95,0,0,1-14,13.69,27.61,27.61,0,0,1-10.48,2,26.84,26.84,0,0,1-10.38-2,26.18,26.18,0,0,1-8.35-5.45,24.87,24.87,0,0,1-5.6-8.24,27,27,0,0,1,0-20.61,25.65,25.65,0,0,1,5.6-8.25,26,26,0,0,1,8.35-5.5,26.84,26.84,0,0,1,10.38-2,27.61,27.61,0,0,1,10.48,2,25.16,25.16,0,0,1,8.4,5.5,26.17,26.17,0,0,1,5.55,8.25,27.17,27.17,0,0,1,0,20.61Zm-12.67-15.93a13.72,13.72,0,0,0-2.7-4.48,13.56,13.56,0,0,0-4-3,11.29,11.29,0,0,0-5-1.12,11.75,11.75,0,0,0-5,1.07,12.13,12.13,0,0,0-4.07,3,14.1,14.1,0,0,0-2.7,4.53,16.94,16.94,0,0,0,0,11.3,12.68,12.68,0,0,0,6.77,7.33,12.29,12.29,0,0,0,10,0,13.41,13.41,0,0,0,4-2.9,13.18,13.18,0,0,0,2.7-4.43,17.11,17.11,0,0,0,0-11.3Z"/></g></g><path id="Caminho_607" data-name="Caminho 607" class="cls-4" d="M296.57,118,148,375.38H445.16Z"/></svg>