<svg id="Camada_1" data-name="Camada 1" xmlns="http://www.w3.org/2000/svg" viewBox="0 0 595.28 595.28"><defs><style>.cls-1{fill:#fce62f;}.cls-2,.cls-5{fill:none;stroke:#010101;stroke-miterlimit:10;}.cls-2{stroke-width:18.2px;}.cls-3{isolation:isolate;}.cls-4{fill:#010101;}.cls-5{stroke-width:30.34px;}</style></defs><title>SVG_corretos_site</title><g id="Grupo_39" data-name="Grupo 39"><g id="Grupo_37" data-name="Grupo 37"><path id="Caminho_61" data-name="Caminho 61" class="cls-1" d="M74.89,169V426.24L297.64,554.85,520.39,426.24V169L297.64,40.43Z"/></g><path id="Caminho_62" data-name="Caminho 62" class="cls-2" d="M50.9,155.18V440.09L297.64,582.54,544.37,440.09V155.18L297.64,12.73Z"/></g><g id="Ilustração" class="cls-3"><g class="cls-3"><path class="cls-4" d="M164.15,430.72h-9.07V384.54l9.07-3.41Z"/><path class="cls-4" d="M183,420.51q0,2.14.87,2.7a3.24,3.24,0,0,0,1.8.57,5.5,5.5,0,0,0,2.47-.67,17.65,17.65,0,0,0,2.54-1.53l-.74,8.54a5,5,0,0,1-2.27,1,13.71,13.71,0,0,1-2.73.3,11.58,11.58,0,0,1-3.54-.6A11.16,11.16,0,0,1,178,429a10.14,10.14,0,0,1-2.64-3,8.31,8.31,0,0,1-1-4.21v-37l8.74-2.74Z"/><path class="cls-4" d="M217.75,430.06a25.14,25.14,0,0,1-4.31,1.1,28.24,28.24,0,0,1-4.84.43,17.92,17.92,0,0,1-4.8-.7,14,14,0,0,1-4.71-2.34,13.32,13.32,0,0,1-3.6-4.23,13.12,13.12,0,0,1-1.44-6.41V398.29h8.75v19.55a5.76,5.76,0,0,0,.53,2.57,5.08,5.08,0,0,0,1.4,1.8,6.17,6.17,0,0,0,2,1.07,6.73,6.73,0,0,0,2.17.37,21.67,21.67,0,0,0,3.54-.24,7.1,7.1,0,0,0,2.6-1V398.29h8.81v35.84Z"/><path class="cls-4" d="M252.32,407.9a12.62,12.62,0,0,0-4.44-2.21,18.2,18.2,0,0,0-4.3-.53,6.82,6.82,0,0,0-3.17.73c-1,.49-1.44,1.09-1.44,1.81s.45,1.18,1.34,1.53a20.64,20.64,0,0,0,3.37,1c1.35.29,2.82.61,4.4,1a17.11,17.11,0,0,1,4.41,1.63,10.16,10.16,0,0,1,3.37,2.94,8,8,0,0,1,1.33,4.84,9.23,9.23,0,0,1-1.2,4.77,11.18,11.18,0,0,1-3.17,3.44,14.25,14.25,0,0,1-4.54,2.1,20.17,20.17,0,0,1-5.37.7,25.75,25.75,0,0,1-13.35-4l3.27-6.81a45.6,45.6,0,0,0,5.61,2.3,15.94,15.94,0,0,0,4.87.77,6.9,6.9,0,0,0,3.47-.87,2.72,2.72,0,0,0,1.54-2.47c0-.58-.45-1-1.34-1.37a24.71,24.71,0,0,0-3.37-.93c-1.36-.29-2.82-.62-4.4-1a18.36,18.36,0,0,1-4.41-1.67,10.18,10.18,0,0,1-3.37-2.9,8.42,8.42,0,0,1-.23-8.71,11.14,11.14,0,0,1,3-3.34,15.31,15.31,0,0,1,4.41-2.27,16.28,16.28,0,0,1,5.23-.84,25.21,25.21,0,0,1,6.28.84,18.19,18.19,0,0,1,6,2.77Z"/><path class="cls-4" d="M274.28,398.29h7.88v7.2h-7.88v13.95a20.32,20.32,0,0,0,.17,3.24,1.05,1.05,0,0,0,1.16,1,6.61,6.61,0,0,0,2.54-.5c.8-.34,1.74-.79,2.8-1.37l3.34,6.81c-.71.35-1.5.71-2.37,1.07s-1.73.66-2.6.93a23,23,0,0,1-2.47.63,10.13,10.13,0,0,1-2,.24,11.71,11.71,0,0,1-3.34-.5,8.94,8.94,0,0,1-3-1.54,8,8,0,0,1-2.13-2.67,8.3,8.3,0,0,1-.84-3.84V405.49h-5.34v-7.2h5.34v-6.55l8.68-4.87Z"/><path class="cls-4" d="M306.25,407.63a8.31,8.31,0,0,0-2.47-1.74,6.33,6.33,0,0,0-2.6-.6,7,7,0,0,0-2.74.6,4.93,4.93,0,0,0-2.33,2.41v22.62h-8.75V396.48l5.41,3.34H293a12.88,12.88,0,0,1,3.7-1.84,14.78,14.78,0,0,1,4.7-.76,16.73,16.73,0,0,1,5.11.73,11,11,0,0,1,4,2.2Z"/><path class="cls-4" d="M328.94,430.32c-.4.09-.95.19-1.67.3s-1.48.21-2.3.3-1.66.16-2.5.2-1.63.07-2.34.07a9.2,9.2,0,0,1-4.1-.93,11.65,11.65,0,0,1-3.34-2.47,12.38,12.38,0,0,1-2.27-3.41,9.14,9.14,0,0,1-.83-3.8,10.64,10.64,0,0,1,1.6-6.14,11.2,11.2,0,0,1,4.07-3.64,16.07,16.07,0,0,1,5.51-1.7,44.54,44.54,0,0,1,5.9-.4v-1.4a2.58,2.58,0,0,0-.9-2,3.54,3.54,0,0,0-2.43-.8,16.89,16.89,0,0,0-4.78.77,15.81,15.81,0,0,0-4.9,2.5l-3.54-7a22.52,22.52,0,0,1,7.38-3,36.76,36.76,0,0,1,6.84-.7,16.1,16.1,0,0,1,3.57.44,10.84,10.84,0,0,1,3.57,1.53,9,9,0,0,1,2.77,3,9.58,9.58,0,0,1,1.1,4.84v25.56Zm-2.27-14.41a26.89,26.89,0,0,0-3,.16,9.46,9.46,0,0,0-2.64.67,4.49,4.49,0,0,0-1.87,1.43,4,4,0,0,0-.7,2.41,3.59,3.59,0,0,0,.77,2.3,2.33,2.33,0,0,0,1.9,1c.45,0,.95,0,1.5-.07s1.09-.1,1.61-.17,1-.14,1.43-.23a5.82,5.82,0,0,0,1-.27Z"/><path class="cls-4" d="M368.72,407.9c-1.29-.54-2.4-1-3.34-1.27s-1.76-.57-2.5-.77a14.2,14.2,0,0,0-1.93-.4,13.23,13.23,0,0,0-1.64-.1,7.91,7.91,0,0,0-6.14,2.57,9.66,9.66,0,0,0-2.34,6.77,9,9,0,0,0,2.37,6.61,8.65,8.65,0,0,0,6.44,2.4,15.48,15.48,0,0,0,3.84-.53,55.73,55.73,0,0,0,5.78-1.93l3.47,7a34.38,34.38,0,0,1-3.57,1.41c-1.23.4-2.43.74-3.61,1a28.92,28.92,0,0,1-3.34.63,20.83,20.83,0,0,1-2.77.2,19.79,19.79,0,0,1-7.1-1.23,16.18,16.18,0,0,1-5.54-3.44,15.61,15.61,0,0,1-3.61-5.27,17.05,17.05,0,0,1-1.3-6.74,18.63,18.63,0,0,1,1.3-7.08,16.39,16.39,0,0,1,3.61-5.5,15.85,15.85,0,0,1,5.5-3.57,18.61,18.61,0,0,1,6.94-1.27,22.51,22.51,0,0,1,5.84,1,49.87,49.87,0,0,1,7,2.5Zm-7.21,24.84a4.64,4.64,0,0,1,2.54,1.95,6.38,6.38,0,0,1,1,3.68,5.79,5.79,0,0,1-2.7,5.26,13.3,13.3,0,0,1-7.38,1.64,7.27,7.27,0,0,1-1.07-.1c-.44-.06-.91-.14-1.4-.23l-1.4-.27c-.44-.09-.8-.16-1.07-.2l1.27-5.76a24.15,24.15,0,0,0,3,.4,20.87,20.87,0,0,0,2.24,0c1.24-.09,1.87-.52,1.87-1.28,0-.53-.47-.89-1.41-1.07a12.19,12.19,0,0,0-3.2-.13l2.07-7.71h6.41Z"/><path class="cls-4" d="M396,430.32c-.4.09-.95.19-1.67.3s-1.48.21-2.3.3-1.66.16-2.5.2-1.63.07-2.34.07a9.2,9.2,0,0,1-4.1-.93,11.65,11.65,0,0,1-3.34-2.47,12.38,12.38,0,0,1-2.27-3.41,9.14,9.14,0,0,1-.83-3.8,10.64,10.64,0,0,1,1.6-6.14,11.2,11.2,0,0,1,4.07-3.64,16.07,16.07,0,0,1,5.51-1.7,44.54,44.54,0,0,1,5.9-.4v-1.4a2.58,2.58,0,0,0-.9-2,3.54,3.54,0,0,0-2.43-.8,16.89,16.89,0,0,0-4.78.77,15.92,15.92,0,0,0-4.9,2.5l-3.54-7a22.52,22.52,0,0,1,7.38-3,36.76,36.76,0,0,1,6.84-.7,16.1,16.1,0,0,1,3.57.44,10.84,10.84,0,0,1,3.57,1.53,9,9,0,0,1,2.77,3,9.58,9.58,0,0,1,1.1,4.84v25.56Zm7.48-48.12c0,1.47-.05,2.64-.14,3.5a10.11,10.11,0,0,1-.4,2.14,5.57,5.57,0,0,1-.66,1.43c-.27.41-.6.87-1,1.41a7.73,7.73,0,0,1-5.88,2.33,8.52,8.52,0,0,1-2.67-.46c-.93-.32-1.87-.65-2.8-1s-1.9-.7-2.77-1a6.77,6.77,0,0,0-2.37-.5c-.27,0-.52.31-.77.93a2.23,2.23,0,0,0,.37,2.07h-7.21q0-5.2,1.9-8t6.24-2.8a11.49,11.49,0,0,1,3.21.47,27.2,27.2,0,0,1,3.13,1.13l2.14,1a4.6,4.6,0,0,0,1.94.47c.22,0,.39-.31.5-.93a5.66,5.66,0,0,0-.1-2.14Zm-9.75,33.71a26.89,26.89,0,0,0-3,.16,9.46,9.46,0,0,0-2.64.67,4.49,4.49,0,0,0-1.87,1.43,4,4,0,0,0-.7,2.41,3.59,3.59,0,0,0,.77,2.3,2.33,2.33,0,0,0,1.9,1c.45,0,.95,0,1.51-.07s1.09-.1,1.6-.17,1-.14,1.43-.23a5.82,5.82,0,0,0,1-.27Z"/><path class="cls-4" d="M441.8,421.38a16.26,16.26,0,0,1-9.14,9,18.22,18.22,0,0,1-6.87,1.3,17.73,17.73,0,0,1-6.81-1.3,17.42,17.42,0,0,1-5.48-3.57,16.61,16.61,0,0,1-3.67-5.41A17,17,0,0,1,419,398.85a17.54,17.54,0,0,1,6.81-1.3,18,18,0,0,1,6.87,1.3,16.43,16.43,0,0,1,5.51,3.61,17.48,17.48,0,0,1,3.63,18.92Zm-8.3-10.45a9.07,9.07,0,0,0-1.77-2.93,8.77,8.77,0,0,0-2.64-2,7.4,7.4,0,0,0-3.3-.74,7.87,7.87,0,0,0-3.27.7,8,8,0,0,0-2.67,2,9.23,9.23,0,0,0-1.77,3,11,11,0,0,0,0,7.41,8.29,8.29,0,0,0,4.44,4.81,8.06,8.06,0,0,0,6.57,0,8.37,8.37,0,0,0,4.41-4.81,11.21,11.21,0,0,0,0-7.41Z"/></g></g><path id="Caminho_607" data-name="Caminho 607" class="cls-5" d="M301.46,150.12,202.11,322.19H400.8Z"/></svg>