<svg id="Camada_1" data-name="Camada 1" xmlns="http://www.w3.org/2000/svg" viewBox="0 0 595.28 595.28"><defs><style>.cls-1{fill:#010101;}.cls-2{isolation:isolate;}.cls-3{fill:#f6e033;}.cls-4{fill:none;stroke:#f6e033;stroke-miterlimit:10;stroke-width:43.78px;}</style></defs><title>SVG_corretos_site</title><rect id="Retângulo_191" data-name="Retângulo 191" class="cls-1" width="595.28" height="595.28"/><g id="Outros" class="cls-2"><g class="cls-2"><path class="cls-3" d="M213.72,529.72a37.11,37.11,0,0,1-8.25,11.76,38.1,38.1,0,0,1-12.31,7.89,42.07,42.07,0,0,1-30.44,0,37.3,37.3,0,0,1-20.46-19.65,36.69,36.69,0,0,1,0-29.06,36.78,36.78,0,0,1,8.2-11.76A38.79,38.79,0,0,1,162.72,481a40.28,40.28,0,0,1,42.75,7.89,36.45,36.45,0,0,1,8.25,11.76,36.69,36.69,0,0,1,0,29.06Zm-12.93-24.38a24.06,24.06,0,0,0-13.08-13.13,25.81,25.81,0,0,0-19.34,0,23.77,23.77,0,0,0-7.79,5.24,25.36,25.36,0,0,0-5.24,7.89,26,26,0,0,0,0,19.65,25.36,25.36,0,0,0,5.24,7.89,23.92,23.92,0,0,0,7.79,5.24,25.81,25.81,0,0,0,19.34,0,24.46,24.46,0,0,0,7.84-5.24,24.2,24.2,0,0,0,5.24-7.89,26.61,26.61,0,0,0,0-19.65Z"/><path class="cls-3" d="M262.83,550a39.15,39.15,0,0,1-6.56,1.68,43.4,43.4,0,0,1-7.38.66,27.65,27.65,0,0,1-7.33-1.07,21.27,21.27,0,0,1-7.18-3.56,19.27,19.27,0,0,1-7.68-16.24V501.52H240v29.83a8.94,8.94,0,0,0,.81,3.92A8.09,8.09,0,0,0,243,538a9.5,9.5,0,0,0,3,1.62,10.21,10.21,0,0,0,3.3.56,33.68,33.68,0,0,0,5.4-.35,11,11,0,0,0,4-1.48V501.52h13.43v54.67Z"/><path class="cls-3" d="M300.19,501.52h12v11h-12v21.27a33.08,33.08,0,0,0,.25,4.94,1.62,1.62,0,0,0,1.78,1.47,9.93,9.93,0,0,0,3.87-.76,46.51,46.51,0,0,0,4.28-2.09l5.09,10.39c-1.09.54-2.29,1.08-3.62,1.63s-2.64,1-4,1.42a38.75,38.75,0,0,1-3.76,1,16.36,16.36,0,0,1-3,.35,17.65,17.65,0,0,1-5.09-.76,13.41,13.41,0,0,1-4.52-2.34,12.12,12.12,0,0,1-3.26-4.07,12.72,12.72,0,0,1-1.27-5.86V512.52h-8.15v-11H287v-10l13.23-7.43Z"/><path class="cls-3" d="M349,515.77a12.77,12.77,0,0,0-3.77-2.64,9.67,9.67,0,0,0-4-.92,10.53,10.53,0,0,0-4.17.92,7.47,7.47,0,0,0-3.57,3.66V551.3H320.14V498.78l8.24,5.08h.41a19.7,19.7,0,0,1,5.65-2.79,22.55,22.55,0,0,1,7.18-1.17A25.7,25.7,0,0,1,349.4,501a16.8,16.8,0,0,1,6.06,3.36Z"/><path class="cls-3" d="M403.3,536.74a24.89,24.89,0,0,1-13.94,13.69,27.51,27.51,0,0,1-10.49,2,26.7,26.7,0,0,1-10.38-2,26.27,26.27,0,0,1-8.35-5.44,25.17,25.17,0,0,1-5.6-8.25,26.14,26.14,0,0,1,5.6-28.85,25.76,25.76,0,0,1,8.35-5.5,26.88,26.88,0,0,1,10.38-2,27.7,27.7,0,0,1,10.49,2,24.91,24.91,0,0,1,8.39,5.5,26.65,26.65,0,0,1,5.55,28.85Zm-12.67-15.93a13.72,13.72,0,0,0-2.7-4.48,13.47,13.47,0,0,0-4-3,11.43,11.43,0,0,0-5-1.12,11.93,11.93,0,0,0-5,1.07,12.37,12.37,0,0,0-4.07,3,14.07,14.07,0,0,0-2.69,4.53,16.94,16.94,0,0,0,0,11.3,12.62,12.62,0,0,0,6.76,7.33,12.29,12.29,0,0,0,10,0,12.81,12.81,0,0,0,6.72-7.33,16.94,16.94,0,0,0,0-11.3Z"/><path class="cls-3" d="M446.56,516.18a19.61,19.61,0,0,0-6.77-3.36,27.46,27.46,0,0,0-6.56-.81,10.42,10.42,0,0,0-4.84,1.12c-1.46.75-2.19,1.66-2.19,2.75s.68,1.8,2,2.34a32.48,32.48,0,0,0,5.14,1.47l6.72,1.48a26,26,0,0,1,6.72,2.49,15.32,15.32,0,0,1,5.14,4.48,12.33,12.33,0,0,1,2,7.38,14.06,14.06,0,0,1-1.83,7.28,16.88,16.88,0,0,1-4.83,5.24,21.53,21.53,0,0,1-6.93,3.21,31.07,31.07,0,0,1-8.19,1.07q-10.18,0-20.36-6.11l5-10.38a69,69,0,0,0,8.55,3.51,24.28,24.28,0,0,0,7.43,1.17,10.57,10.57,0,0,0,5.29-1.32,4.14,4.14,0,0,0,2.35-3.77c0-.88-.68-1.58-2-2.09a36.67,36.67,0,0,0-5.14-1.42q-3.11-.66-6.72-1.53a27.22,27.22,0,0,1-6.72-2.54,15.51,15.51,0,0,1-5.14-4.43,12.82,12.82,0,0,1-.35-13.28,17,17,0,0,1,4.58-5.09,23.28,23.28,0,0,1,6.71-3.47,25.38,25.38,0,0,1,8-1.27,39,39,0,0,1,9.56,1.27,27.58,27.58,0,0,1,9.17,4.23Z"/></g></g><path id="Caminho_610" data-name="Caminho 610" class="cls-4" d="M297.11,119.86,173.27,179.5l-30.58,134L228.39,421H365.84l85.7-107.46L421,179.5Z"/></svg>