<svg id="Camada_1" data-name="Camada 1" xmlns="http://www.w3.org/2000/svg" viewBox="0 0 595.28 595.28"><defs><style>.cls-1{fill:#010101;}.cls-2,.cls-5{fill:none;stroke-miterlimit:10;}.cls-2{stroke:#010101;stroke-width:18.2px;}.cls-3{isolation:isolate;}.cls-4{fill:#f6e033;}.cls-5{stroke:#f6e033;stroke-width:30.34px;}</style></defs><title>SVG_corretos_site</title><g id="Grupo_39" data-name="Grupo 39"><g id="Grupo_37" data-name="Grupo 37"><path id="Caminho_61" data-name="Caminho 61" class="cls-1" d="M74.89,169V426.24L297.64,554.85,520.39,426.24V169L297.64,40.43Z"/></g><path id="Caminho_62" data-name="Caminho 62" class="cls-2" d="M50.9,155.18V440.09L297.64,582.54,544.37,440.09V155.18L297.64,12.73Z"/></g><g id="Outros" class="cls-3"><g class="cls-3"><path class="cls-4" d="M242.08,421.84a24.24,24.24,0,0,1-5.41,7.7,25,25,0,0,1-8.07,5.18,27.57,27.57,0,0,1-20,0,24.48,24.48,0,0,1-13.41-12.88,24,24,0,0,1,0-19.06,24.09,24.09,0,0,1,5.37-7.71,25.41,25.41,0,0,1,8-5.17,26.42,26.42,0,0,1,28,5.17,23.73,23.73,0,0,1,5.41,7.71,24,24,0,0,1,0,19.06Zm-8.48-16a15.78,15.78,0,0,0-8.57-8.61,17,17,0,0,0-12.68,0,15.5,15.5,0,0,0-5.11,3.44,16.58,16.58,0,0,0-3.44,5.17,16.59,16.59,0,0,0,3.44,18,15.5,15.5,0,0,0,5.11,3.44,16.32,16.32,0,0,0,17.82-3.44,15.79,15.79,0,0,0,3.43-5.17,17.34,17.34,0,0,0,0-12.88Z"/><path class="cls-4" d="M274.28,435.12a25,25,0,0,1-4.3,1.1,28.24,28.24,0,0,1-4.84.43,18,18,0,0,1-4.81-.7,13.89,13.89,0,0,1-4.7-2.33,12.62,12.62,0,0,1-5-10.65V403.35h8.74V422.9a5.76,5.76,0,0,0,.54,2.57,5,5,0,0,0,1.4,1.8,6.07,6.07,0,0,0,2,1.07,6.64,6.64,0,0,0,2.17.37,22.77,22.77,0,0,0,3.53-.23,7.28,7.28,0,0,0,2.61-1V403.35h8.81v35.84Z"/><path class="cls-4" d="M298.78,403.35h7.87v7.21h-7.87v13.95a21.92,21.92,0,0,0,.16,3.23,1.07,1.07,0,0,0,1.17,1,6.61,6.61,0,0,0,2.54-.5,29.19,29.19,0,0,0,2.8-1.37l3.34,6.81c-.71.36-1.5.71-2.37,1.07s-1.73.66-2.6.93-1.69.48-2.47.64a10.84,10.84,0,0,1-2,.23A11.71,11.71,0,0,1,296,436a8.94,8.94,0,0,1-3-1.54,7.87,7.87,0,0,1-2.13-2.67,8.28,8.28,0,0,1-.84-3.83V410.56h-5.34v-7.21h5.34v-6.54l8.68-4.88Z"/><path class="cls-4" d="M330.75,412.69a8.45,8.45,0,0,0-2.47-1.73,6.33,6.33,0,0,0-2.6-.6,6.93,6.93,0,0,0-2.74.6,5,5,0,0,0-2.34,2.4V436h-8.74V401.54l5.41,3.34h.26a12.82,12.82,0,0,1,3.71-1.83,14.79,14.79,0,0,1,4.7-.77,16.78,16.78,0,0,1,5.11.73,11,11,0,0,1,4,2.21Z"/><path class="cls-4" d="M366.39,426.44a16.34,16.34,0,0,1-9.14,9,18.08,18.08,0,0,1-6.88,1.3,17.39,17.39,0,0,1-12.28-4.87,16.45,16.45,0,0,1-3.67-5.41,17.7,17.7,0,0,1,0-13.51,16.77,16.77,0,0,1,3.67-5.41,17,17,0,0,1,5.47-3.61,17.73,17.73,0,0,1,6.81-1.3,18.27,18.27,0,0,1,6.88,1.3,16.39,16.39,0,0,1,5.5,3.61,17.46,17.46,0,0,1,3.64,18.92ZM358.08,416a8.74,8.74,0,0,0-1.77-2.93,8.9,8.9,0,0,0-2.63-2,7.47,7.47,0,0,0-3.31-.73,7.72,7.72,0,0,0-3.27.7,7.93,7.93,0,0,0-2.67,2,9.08,9.08,0,0,0-1.77,3,11.21,11.21,0,0,0,0,7.41,8.36,8.36,0,0,0,1.77,2.91,8.61,8.61,0,0,0,2.67,1.9,8.08,8.08,0,0,0,6.58,0,8.68,8.68,0,0,0,2.63-1.9,8.36,8.36,0,0,0,1.77-2.91,11.21,11.21,0,0,0,0-7.41Z"/><path class="cls-4" d="M394.76,413a12.75,12.75,0,0,0-4.44-2.2,17.79,17.79,0,0,0-4.31-.54,6.88,6.88,0,0,0-3.17.74c-.95.49-1.43,1.09-1.43,1.8s.44,1.18,1.33,1.53a20.94,20.94,0,0,0,3.37,1c1.36.29,2.83.61,4.41,1a17.27,17.27,0,0,1,4.4,1.63,10.07,10.07,0,0,1,3.37,2.94,8.06,8.06,0,0,1,1.34,4.84,9.23,9.23,0,0,1-1.2,4.77,11.18,11.18,0,0,1-3.17,3.44,14.45,14.45,0,0,1-4.54,2.1,20.28,20.28,0,0,1-5.37.7,25.75,25.75,0,0,1-13.35-4l3.27-6.81a44.91,44.91,0,0,0,5.6,2.3,16,16,0,0,0,4.88.77,6.93,6.93,0,0,0,3.47-.87,2.71,2.71,0,0,0,1.53-2.47c0-.58-.44-1-1.33-1.37a25.13,25.13,0,0,0-3.37-.93c-1.36-.29-2.83-.62-4.41-1a18.13,18.13,0,0,1-4.4-1.67,10,10,0,0,1-3.37-2.9,7.77,7.77,0,0,1-1.34-4.74,7.85,7.85,0,0,1,1.1-4,11.32,11.32,0,0,1,3-3.34,15.13,15.13,0,0,1,4.4-2.27,16.34,16.34,0,0,1,5.24-.83,25.16,25.16,0,0,1,6.27.83,18.09,18.09,0,0,1,6,2.77Z"/></g></g><path id="Caminho_610" data-name="Caminho 610" class="cls-5" d="M300.56,145.05l-84.08,40.5-20.77,91,58.19,73h93.33l58.19-73-20.77-91Z"/></svg>