<svg id="Camada_1" data-name="Camada 1" xmlns="http://www.w3.org/2000/svg" viewBox="0 0 595.28 595.28"><defs><style>.cls-1{fill:#010101;}.cls-2,.cls-5{fill:none;stroke-miterlimit:10;}.cls-2{stroke:#010101;stroke-width:18.2px;}.cls-3{isolation:isolate;}.cls-4{fill:#f6e033;}.cls-5{stroke:#f6e033;stroke-width:30.34px;}</style></defs><title>SVG_corretos_site</title><g id="Grupo_39" data-name="Grupo 39"><g id="Grupo_37" data-name="Grupo 37"><path id="Caminho_61" data-name="Caminho 61" class="cls-1" d="M74.89,169V426.24L297.64,554.85,520.39,426.24V169L297.64,40.43Z"/></g><path id="Caminho_62" data-name="Caminho 62" class="cls-2" d="M50.9,155.18V440.09L297.64,582.54,544.37,440.09V155.18L297.64,12.73Z"/></g><g id="Pintura" class="cls-3"><g class="cls-3"><path class="cls-4" d="M211,396a23.9,23.9,0,0,1,7.78,1.12,14.76,14.76,0,0,1,5.34,3.07,12.09,12.09,0,0,1,3.07,4.5,15.19,15.19,0,0,1,1,5.48,17.07,17.07,0,0,1-.83,5.23,11.6,11.6,0,0,1-2.9,4.64,15.23,15.23,0,0,1-5.48,3.35,24.54,24.54,0,0,1-8.58,1.29h-5.51v20.86h-9.49V396Zm-6.14,20.73h5.3a12.66,12.66,0,0,0,3.91-.53,7.17,7.17,0,0,0,2.58-1.39,5.22,5.22,0,0,0,1.43-2.06,7,7,0,0,0,.45-2.51,6,6,0,0,0-1.88-4.43c-1.26-1.24-3.3-1.85-6.14-1.85h-5.65Z"/><path class="cls-4" d="M246.25,400.35l-8.31,8.51-8.3-8.51,8.3-8.38Zm-4.05,45.21h-9.14V412.49l9.14-3.77Z"/><path class="cls-4" d="M256.15,412.28a30.78,30.78,0,0,1,4.61-1.26,28.53,28.53,0,0,1,5.37-.48q6.42,0,10.29,3.59t3.88,11v20.44h-9.07V426.31a9.17,9.17,0,0,0-1.54-5.73,4.89,4.89,0,0,0-4.05-1.95,15.15,15.15,0,0,0-6.63,1.19v25.74h-9.07V409.07l6.21,3.35Z"/><path class="cls-4" d="M299.21,411.51h8.23v7.54h-8.23v14.58a22.41,22.41,0,0,0,.17,3.39,1.11,1.11,0,0,0,1.22,1,7,7,0,0,0,2.65-.52,30.91,30.91,0,0,0,2.93-1.44l3.49,7.12c-.74.38-1.57.75-2.47,1.12s-1.82.7-2.73,1-1.76.49-2.58.66a11,11,0,0,1-2.06.24,12,12,0,0,1-3.48-.52,9.21,9.21,0,0,1-3.11-1.61,8.27,8.27,0,0,1-2.23-2.79,8.71,8.71,0,0,1-.87-4V419.05h-5.59v-7.54h5.59v-6.84l9.07-5.09Z"/><path class="cls-4" d="M337.24,444.73a26.08,26.08,0,0,1-4.51,1.15,29.77,29.77,0,0,1-5.05.45,18.82,18.82,0,0,1-5-.73,14.54,14.54,0,0,1-4.92-2.44A13.21,13.21,0,0,1,312.46,432V411.51h9.14V432a6.08,6.08,0,0,0,.56,2.68,5.47,5.47,0,0,0,1.47,1.89,6.31,6.31,0,0,0,2.06,1.11A7,7,0,0,0,328,438a22.15,22.15,0,0,0,3.69-.25,7.45,7.45,0,0,0,2.72-1V411.51h9.22V449Z"/><path class="cls-4" d="M370.73,421.28a8.7,8.7,0,0,0-2.58-1.81,6.6,6.6,0,0,0-2.72-.63,7.23,7.23,0,0,0-2.87.63,5.13,5.13,0,0,0-2.44,2.51v23.65H351v-36l5.65,3.49h.28a13.17,13.17,0,0,1,3.87-1.92,15.36,15.36,0,0,1,4.92-.8,17.53,17.53,0,0,1,5.34.76,11.44,11.44,0,0,1,4.15,2.31Z"/><path class="cls-4" d="M394.45,445c-.42.09-1,.19-1.74.31s-1.55.22-2.41.31-1.73.17-2.62.21-1.69.07-2.44.07a9.64,9.64,0,0,1-4.29-1,11.72,11.72,0,0,1-3.49-2.59,12.68,12.68,0,0,1-2.37-3.55,9.72,9.72,0,0,1-.87-4,11.2,11.2,0,0,1,1.67-6.42,11.68,11.68,0,0,1,4.26-3.8,17,17,0,0,1,5.75-1.78,47.19,47.19,0,0,1,6.18-.42v-1.47a2.68,2.68,0,0,0-.94-2.09,3.7,3.7,0,0,0-2.55-.84,17.7,17.7,0,0,0-5,.8,16.64,16.64,0,0,0-5.13,2.62l-3.69-7.33a23.42,23.42,0,0,1,7.71-3.1,37.63,37.63,0,0,1,7.15-.73,16.91,16.91,0,0,1,3.73.45,11.12,11.12,0,0,1,3.73,1.61,9.07,9.07,0,0,1,2.9,3.14,9.93,9.93,0,0,1,1.15,5.05v26.73Zm-2.37-15.08a26.9,26.9,0,0,0-3.14.18,10,10,0,0,0-2.76.7,4.74,4.74,0,0,0-1.95,1.5,4.06,4.06,0,0,0-.73,2.51,3.74,3.74,0,0,0,.8,2.41,2.45,2.45,0,0,0,2,1c.46,0,1,0,1.57-.07s1.14-.11,1.67-.18,1-.15,1.5-.24a6.21,6.21,0,0,0,1.05-.28Z"/></g></g><path id="Caminho_608" data-name="Caminho 608" class="cls-5" d="M297.64,131.1,185.43,212.63l42.86,131.91H367l42.86-131.91Z"/></svg>