<svg id="Camada_1" data-name="Camada 1" xmlns="http://www.w3.org/2000/svg" viewBox="0 0 595.28 595.28"><defs><style>.cls-1{fill:#010101;}.cls-2{isolation:isolate;}.cls-3{fill:#f6e033;}.cls-4{fill:none;stroke:#f6e033;stroke-miterlimit:10;stroke-width:43.78px;}</style></defs><title>SVG_corretos_site</title><rect id="Retângulo_187" data-name="Retângulo 187" class="cls-1" width="595.28" height="595.28"/><g id="Pintura" class="cls-2"><g class="cls-2"><path class="cls-3" d="M169.39,465.82a34.94,34.94,0,0,1,11.35,1.63,21.54,21.54,0,0,1,7.79,4.48,17.56,17.56,0,0,1,4.48,6.56,22.13,22.13,0,0,1,1.42,8,24.76,24.76,0,0,1-1.22,7.64,16.81,16.81,0,0,1-4.22,6.77,22.26,22.26,0,0,1-8,4.88,35.7,35.7,0,0,1-12.53,1.89h-8v30.43H146.59V465.82Zm-9,30.23h7.74a18.51,18.51,0,0,0,5.7-.76,10.55,10.55,0,0,0,3.77-2,7.57,7.57,0,0,0,2.08-3,10.15,10.15,0,0,0,.66-3.66,8.76,8.76,0,0,0-2.74-6.47c-1.84-1.8-4.82-2.7-9-2.7h-8.25Z"/><path class="cls-3" d="M220.8,472.13l-12.12,12.42-12.11-12.42,12.11-12.21Zm-5.91,66H201.56V489.84l13.33-5.49Z"/><path class="cls-3" d="M235.25,489.54a42.81,42.81,0,0,1,6.72-1.83,40.57,40.57,0,0,1,7.84-.72q9.36,0,15,5.24t5.65,16v29.82H257.24V510q0-5.5-2.24-8.35a7.15,7.15,0,0,0-5.91-2.85q-6.21,0-9.67,1.73v37.56H226.19V484.86l9.06,4.88Z"/><path class="cls-3" d="M298.05,488.42h12v11h-12v21.28a32.66,32.66,0,0,0,.26,4.93,1.61,1.61,0,0,0,1.78,1.48,10.11,10.11,0,0,0,3.87-.76q1.83-.76,4.27-2.09l5.09,10.38c-1.08.54-2.29,1.09-3.61,1.63s-2.65,1-4,1.42a38.18,38.18,0,0,1-3.77,1,15.64,15.64,0,0,1-3,.36,17.61,17.61,0,0,1-5.09-.77,13.19,13.19,0,0,1-4.53-2.34,12.15,12.15,0,0,1-3.26-4.07,12.68,12.68,0,0,1-1.27-5.85V499.41h-8.14v-11h8.14v-10L298.05,471Z"/><path class="cls-3" d="M353.53,536.87a37.2,37.2,0,0,1-6.57,1.68,43.22,43.22,0,0,1-7.38.66,27.18,27.18,0,0,1-7.32-1.07,21.18,21.18,0,0,1-7.18-3.56,19.27,19.27,0,0,1-7.69-16.24V488.42h13.34v29.82a8.91,8.91,0,0,0,.81,3.92,8,8,0,0,0,2.14,2.75,9.48,9.48,0,0,0,3,1.63,10.5,10.5,0,0,0,3.31.56,33.53,33.53,0,0,0,5.4-.36,11.08,11.08,0,0,0,4-1.47V488.42h13.43v54.66Z"/><path class="cls-3" d="M402.39,502.67a12.81,12.81,0,0,0-3.77-2.65,9.65,9.65,0,0,0-4-.91,10.51,10.51,0,0,0-4.17.91,7.44,7.44,0,0,0-3.56,3.67v34.5H373.58V485.67l8.25,5.09h.4a19.44,19.44,0,0,1,5.65-2.8,22.59,22.59,0,0,1,7.18-1.17,25.45,25.45,0,0,1,7.79,1.12,16.76,16.76,0,0,1,6,3.36Z"/><path class="cls-3" d="M437,537.28c-.61.13-1.46.29-2.55.46s-2.26.32-3.51.45-2.53.24-3.82.31-2.48.1-3.56.1a14,14,0,0,1-6.26-1.42,17.51,17.51,0,0,1-5.09-3.77,18.76,18.76,0,0,1-3.46-5.19,14.06,14.06,0,0,1-1.27-5.8,16.27,16.27,0,0,1,2.44-9.37,17.23,17.23,0,0,1,6.21-5.55,24.93,24.93,0,0,1,8.4-2.59,68.32,68.32,0,0,1,9-.61v-2.14a3.9,3.9,0,0,0-1.38-3.05,5.34,5.34,0,0,0-3.71-1.23,25.58,25.58,0,0,0-7.28,1.18,24.09,24.09,0,0,0-7.48,3.81l-5.4-10.69a34.53,34.53,0,0,1,11.25-4.53A55.48,55.48,0,0,1,430,486.59a24.66,24.66,0,0,1,5.45.66,16.38,16.38,0,0,1,5.44,2.34,13.36,13.36,0,0,1,4.23,4.58,14.55,14.55,0,0,1,1.68,7.38v39Zm-3.46-22a40.28,40.28,0,0,0-4.58.26,14.26,14.26,0,0,0-4,1,7,7,0,0,0-2.85,2.19,6,6,0,0,0-1.06,3.67,5.45,5.45,0,0,0,1.17,3.51,3.56,3.56,0,0,0,2.9,1.47c.67,0,1.44,0,2.29-.1s1.66-.15,2.44-.25,1.51-.22,2.19-.36a8.38,8.38,0,0,0,1.53-.41Z"/></g></g><path id="Caminho_608" data-name="Caminho 608" class="cls-4" d="M297.64,109.43,147.12,218.79l57.49,176.94H390.66l57.5-176.94Z"/></svg>