<svg id="Camada_1" data-name="Camada 1" xmlns="http://www.w3.org/2000/svg" viewBox="0 0 595.28 595.28"><defs><style>.cls-1{fill:#f5e035;}.cls-2{fill:#010101;}</style></defs><title>SVG_corretos_site</title><rect class="cls-1" width="595.28" height="595.28"/><path class="cls-2" d="M47.62,328.83l-.53,1.88-4.81,16.22H36.39l5-16.22H36.57V329h7.58L43.26,332l-4,13.47h1.7l3.65-12.49L45.75,329l.63-2.05.44-1.69h9.1l.62-2h-5.8l.54-1.7,1.34-4.72H51.19l-1.43,4.72-.44,1.7H47.45l1.24-4.37,1.16-3.66h5.08l-1.87,6.33h5.8L57.16,327h-9Zm13.73-15.24H36.57v-5.44H61.09l.62-2H55.83l4.9-16.49H59.21l-4.9,16.49H52.53l5.35-18H63l-4.82,16.32h5.71l-1.52,5.43H38.26v2.05H61.8ZM50.92,306.1H36.57v-1.69H49.32l5-16.32h2.14l-4,13.19ZM44.77,327h-8.2v-5.44h7.58l2-6.33h2.23l-2,6.33-.45,1.7H38.26v2h7.05ZM56.54,329l-.54,1.7H50.39l-4.82,16.22H43.7l4.37-14.71,1-3.21Zm4.64,3.39h5.08L62,346.93H60.19l3.75-12.84H62.51l-3.74,12.84h-6l4.45-14.53h2.32l-3.92,13h1.69ZM71,316.62l-1.51,4.9h9.18v1.7H67.15l2-6.6H67.68l-2.58,8.65H78.65v5.44H57.88l2.94-10.08,1.69-5.53h2.23l-1.87,6.42L60.55,329H77V327H62.78l3.48-11.86h5.17L71,316.53Zm8.38-28.53-4.81,16.32h4.1v1.69H72.23l1-3.39,3.92-13.1H75.62l-4,13.55-.81,2.94-.62,2h8.47v5.44H63l.53-1.7.72-2.4.09-.36,6.5-21h2l-7.13,23.8H77v-2.05h-9.1l2.68-9.18,3.74-12.57Z"/><path class="cls-2" d="M146.32,337.78l-10.88,4.91L125.1,320H102.54L92,342.87l-10.61-5.09,28-60.79,7.13-3Zm-32.54-42.43-6.6,14.53h13.28Z"/><path class="cls-2" d="M155.59,301.21c2,0,3.49,0,4.59,0s2.11,0,3,0h7.62q1.51,2.56,3,5l3,4.95-11.14.08V333h-2.23L153.45,322.9h2.14Zm9.89-9.72-10.07-10.07h20.06a8.11,8.11,0,0,1,6.37,2.63,9.3,9.3,0,0,1,2.37,6.46,3.29,3.29,0,0,1-.05.54,2.55,2.55,0,0,0,0,.44Zm31.12,9.18a10.55,10.55,0,0,1-.81,4.15,9.77,9.77,0,0,1-2.25,3.3,10.8,10.8,0,0,1-7.55,3h-2.5L196.6,333h-2.52q-2.61-2.49-5.13-5t-5.1-5.07h2.58q-3.19-5.5-6.53-10.89c-2.22-3.58-4.4-7.22-6.53-10.89h2.57a10.25,10.25,0,0,0,4.23-.85,10.53,10.53,0,0,0,3.33-2.33,10.16,10.16,0,0,0,2.18-3.5,12.07,12.07,0,0,0,.75-4.25,10.88,10.88,0,0,0-2.07-6.54l9.11,8.91a9.07,9.07,0,0,1,2.46,3.75A14.11,14.11,0,0,1,196.6,300.67Z"/><path class="cls-2" d="M236,320.06q0,6.69,4.55,6.69a15.33,15.33,0,0,0,2.14-.23,16.46,16.46,0,0,1,2.14-.22,2.9,2.9,0,0,1,2.85,2.85q0,3.12-4,3.12h-.54a3.58,3.58,0,0,0-.62-.09l-4.37-.62a39.48,39.48,0,0,0-5.61-.36,44,44,0,0,0-6,.36l-4.46.62a2.64,2.64,0,0,0-.62.09h-.62q-3.93,0-3.93-3.12a2.52,2.52,0,0,1,2.86-2.85,16.62,16.62,0,0,1,2.14.22,15.19,15.19,0,0,0,2.14.23q4.45,0,4.45-6.69v-36.2q0-6.33-6.5-6.33h-2.77q-6.42,0-6.42,6.24c0,1.49,0,2.5.09,3l.36,3.29a21.32,21.32,0,0,1,.09,2.23q0,5.63-3.48,5.62-3.3,0-3.3-4.1c0-.77.06-2.11.18-4,.18-2.86.27-4.67.27-5.44,0-1.49-.05-3-.15-4.64-.2-3.15-.3-4.48-.3-4,0-2.5,1.13-3.74,3.38-3.74q1.24,0,5.79.26c.29,0,2.73.12,7.3.36h10.14c1.19,0,4.36-.05,9.53-.16,1.12,0,3.05-.07,5.78-.23,2.43-.16,4.33-.23,5.7-.23,3,0,4.45,1.21,4.45,3.65v.18c0,.59-.08,1.69-.23,3.3s-.31,3.33-.49,5.17v1c0,.89.09,2.29.27,4.19.24,2.5.36,4,.36,4.64q0,3.64-3.48,3.65t-3.39-4.48c0-1.07.09-2.67.27-4.79s.27-3.71.27-4.79q0-6.18-7-6.18h-2.5q-3.3,0-4.73,1.39t-1.6,4.59l-.36,6.24Z"/><path class="cls-2" d="M283,261.35l-2.7-.17a35.49,35.49,0,0,0-4.22-.13q4.88,8.88,15,24.86Q302.15,303.4,306.5,311q1.74-3,27.12-50h-2.57c-1.25,0-2.22,0-2.92,0q-.35,0-1.35.09h-.3c-.12-.35-.23-.73-.35-1.14a10.63,10.63,0,0,1-.43-1.56c.75,0,1.56,0,2.43.08s1.54.09,1.83.09h14.63c.32,0,.88,0,1.7-.09s1.36-.08,1.74-.08a3,3,0,0,1,2.65,1.09q0,1.65-2.22,1.74a12.52,12.52,0,0,1-2-.09c-1-.09-1.62-.13-1.91-.13H337v56.07a24,24,0,0,0,5.27.35q4.83-.14,6-.05l.78,0a3.65,3.65,0,0,1,1,0c.72,0,1.06.36,1,1q.09,1.65-2.61,1.74a16.9,16.9,0,0,1-2.31-.09c-1.1-.09-1.8-.13-2.09-.13H323a2.87,2.87,0,0,1-.09-.35l-.08-.26c-.06-.2-.13-.48-.22-.83-.15-.87-.22-1.23-.22-1.08a11.52,11.52,0,0,1,2.31,0c.9.09,1.52.13,1.87.13h7.62q.39-9.66.35-25.72-.13-21.37-.05-26.08-5.52,9.13-13.8,24.68-12.62,23.77-13.62,25.6-6.11-9.11-16.24-25.51-11.36-18.45-16.06-25.68,0,6.66.22,26.29.21,16.37.08,26.42c1.11.06,3,.05,5.75,0s4.74,0,6.14,0l.78,0a7.08,7.08,0,0,1,1-.09c.72.06,1.06.41,1,1,.14,1.07-.61,1.65-2.26,1.74-.53,0-1.25,0-2.18-.09s-1.67-.13-2-.13H263.45a5.12,5.12,0,0,1-.18-.52c-.06-.2-.16-.51-.3-.92s-.22-.79-.31-1.17a15,15,0,0,1,2,0c.84.09,1.39.13,1.66.13h6.39q.13-10.32-.08-28.25-.27-19.76-.22-28.12l-11.45,0a24.26,24.26,0,0,1,0-2.44l17.2,0q.25,0,1.35-.09a8.51,8.51,0,0,1,1.57-.08c1.24,0,1.9.49,2,1.39Z"/><path class="cls-2" d="M414.49,324.6a5.43,5.43,0,0,1-1,3.06,3.57,3.57,0,0,1-2.17,1.43,3.8,3.8,0,0,1-2.56-.45,5.52,5.52,0,0,1-2.17-2.36,83.08,83.08,0,0,0-1.67-9.11q-1.1-4.49-2.56-8.92l-26.11.2a2.47,2.47,0,0,1-.44-.05,2.58,2.58,0,0,0-.45,0q-2.46,8.37-4.43,17.34a4.64,4.64,0,0,1-2.26,2.75,3.9,3.9,0,0,1-2.81.3,3.76,3.76,0,0,1-2.17-1.77,4.93,4.93,0,0,1-.44-3.55,289.22,289.22,0,0,1,7.83-27.93,176.74,176.74,0,0,1,11.48-26.64,3.43,3.43,0,0,1,2.75-2.37,3.55,3.55,0,0,1,2.07-.15,3.59,3.59,0,0,1,1.68.94c.06,0,.1,0,.1.05s0,.05.09.05a46.88,46.88,0,0,1,8.58,11.13q3.43,6.21,6.3,12.61,1.08,2.26,2,4.53t1.82,4.53l5.22-.1a5.34,5.34,0,0,1,2.76,1.78,3.75,3.75,0,0,1,.84,2.41,3.82,3.82,0,0,1-1,2.36,5,5,0,0,1-2.85,1.53h-2.07c.85,2.7,1.59,5.4,2.21,8.13A76.46,76.46,0,0,1,414.49,324.6ZM387.3,277.22c-1.83,3.74-3.53,7.55-5.07,11.43s-3,7.78-4.28,11.72l21.47-.2c-.85-2-1.72-3.9-2.61-5.81s-1.79-3.81-2.71-5.71-2.1-3.84-3.15-5.82A38.79,38.79,0,0,0,387.3,277.22Z"/><path class="cls-2" d="M436,302h-8.94V284.15H436Zm-8.94,26.82v-8.94H436v8.94Zm35.76-53.64v8.94H436v-8.94Zm0,26.82V311H436V302Zm0,35.76H436v-8.94h26.82Zm8.94-53.64v8.94h-8.94v-8.94Zm0,26.82v17.88h-8.94V311Z"/><path class="cls-2" d="M541.34,357.23a8,8,0,0,0,1.65,1.16c.56.3,1.08.6,1.56.89a7.3,7.3,0,0,0,2.18.76,4.59,4.59,0,0,1,1.29.31,4,4,0,0,0-1.2.14,7.94,7.94,0,0,1-.8.22l-.85.18a6.67,6.67,0,0,1-1.25.09h-4.1a10,10,0,0,1-2.05-.14,10.93,10.93,0,0,0-2-.13c-.53,0-1,0-1.25,0a8,8,0,0,0-.8-.05,8.83,8.83,0,0,1-.89,0c-.3,0-.71-.05-1.25-.05s-1,0-1.29.05a6.76,6.76,0,0,0-.89.13,7.21,7.21,0,0,1-.85.13c-.3,0-.71.05-1.25.05a15,15,0,0,1-2-.09,14.9,14.9,0,0,0-2.05-.09,11,11,0,0,0-2,.13,10,10,0,0,1-2.05.14,7.61,7.61,0,0,1-2-.18,12.18,12.18,0,0,0-2-.36,7.46,7.46,0,0,1,1.38-.35,8.81,8.81,0,0,0,2.19-.81,13.53,13.53,0,0,0,3.2-2,15.17,15.17,0,0,0,1.43-1.2,13.44,13.44,0,0,0,1.34-1.47,5,5,0,0,0,.62-1.65,8.6,8.6,0,0,1,.63-1.92c.23-.53.47-1.1.71-1.69a9.78,9.78,0,0,0,.53-1.87l.36-1.83a10.16,10.16,0,0,0,.18-1.92h-.18a4.28,4.28,0,0,1,.22-1.69,4.57,4.57,0,0,0,.23-1.78,4.26,4.26,0,0,0-.23-1.7,4.25,4.25,0,0,1-.22-1.69,7.65,7.65,0,0,0-.13-1.79,6.77,6.77,0,0,1-.14-1.69c0-.89,0-1.48,0-1.78s0-.86,0-1.7,0-1.39,0-1.69,0-.89,0-1.78a2.87,2.87,0,0,1,.36-1.7,2.81,2.81,0,0,0,.36-1.69,3.4,3.4,0,0,0-.49-1.78,5,5,0,0,0-1-1.25,3.52,3.52,0,0,0-1.34-.67c-.53-.15-1.1-.28-1.69-.4a2.64,2.64,0,0,0-.62-.09,4.58,4.58,0,0,0-.9.09,3.55,3.55,0,0,1-1.15.18h-.45A5.23,5.23,0,0,1,519,319c-.27-.06-.53-.11-.76-.14s-.51-.07-.81-.13a5.94,5.94,0,0,0-1.15-.09,10.45,10.45,0,0,0-1.12.05,5.73,5.73,0,0,0-.76.13,5.35,5.35,0,0,1-.8.13c-.3,0-.68.05-1.16.05a5.36,5.36,0,0,1-1.11-.09c-.27-.06-.52-.1-.76-.14s-.51-.07-.8-.13a6.13,6.13,0,0,0-1.16-.09l-1.56.18a11,11,0,0,0-1.56.27,12.78,12.78,0,0,0-1.56.44,4,4,0,0,0-1.29.72A3.38,3.38,0,0,0,501.4,323a10.18,10.18,0,0,1-.09,1.69,10.41,10.41,0,0,0-.09,1.7,3.61,3.61,0,0,0,.27,1.69,3.64,3.64,0,0,1,.26,1.69,5.68,5.68,0,0,1-.17,1.7,5.24,5.24,0,0,0-.18,1.69,4.51,4.51,0,0,1-.22,1.7,4.2,4.2,0,0,0-.23,1.69,5.18,5.18,0,0,0,.36,2,10.27,10.27,0,0,1,.53,1.78,10.94,10.94,0,0,1,.18,2,4.55,4.55,0,0,0,.36,1.87,5,5,0,0,0,1,1.69c.41.48.8.95,1.16,1.43a14,14,0,0,0,1.25,1.56c.41.44.86.87,1.33,1.29a20.62,20.62,0,0,0,3.12,2.14,7.35,7.35,0,0,0,2.19.76,6.55,6.55,0,0,1,1.38.31,5.55,5.55,0,0,1-.89.09.8.8,0,0,1-.36-.09,6.48,6.48,0,0,1-.8,0c-.24,0-.51-.08-.8-.14a6.75,6.75,0,0,0-1.25-.09,6.07,6.07,0,0,0-2.05.23,6.48,6.48,0,0,1-2.05.22h-4.1c-.54,0-1,0-1.3,0a7.23,7.23,0,0,0-.89.14,7,7,0,0,1-.84.13c-.3,0-.72.05-1.25.05a7.66,7.66,0,0,1-1.25-.09,7,7,0,0,1-.85-.23,6.87,6.87,0,0,0-.84-.22,6.75,6.75,0,0,0-1.25-.09,6.44,6.44,0,0,0-2,.22,6.11,6.11,0,0,1-2.05.23,9.81,9.81,0,0,1-2.05-.14,10.23,10.23,0,0,0-2.06-.13,10.8,10.8,0,0,1-2-.13,13.31,13.31,0,0,0-2.06-.23,4.92,4.92,0,0,1,1.34-.26,6.39,6.39,0,0,0,2.14-.72,10.07,10.07,0,0,1,1.61-.8,5.85,5.85,0,0,0,1.69-1.07,3.53,3.53,0,0,0,1-1.56,5.64,5.64,0,0,1,.93-1.74c.36-.47.7-.95,1-1.42a12,12,0,0,0,.93-1.7,13.78,13.78,0,0,1,.85-1.6,5.14,5.14,0,0,0,.67-1.79,2.82,2.82,0,0,0,.09-.71,4.21,4.21,0,0,0-.18-1.16,6.73,6.73,0,0,1-.27-2v-1.16a5.65,5.65,0,0,1,.05-.71c0-.24,0-.51,0-.8v-2.23c0-.24,0-.48,0-.72a6.22,6.22,0,0,1-.05-.8V329a5.36,5.36,0,0,1,.09-1.11,5.62,5.62,0,0,1,.22-.76c.09-.24.18-.49.27-.76a4.85,4.85,0,0,0,0-2.23c-.09-.26-.18-.52-.27-.75a5.62,5.62,0,0,1-.22-.76,7,7,0,0,1,0-2.23c.06-.27.1-.52.13-.76s.08-.5.14-.8a6.06,6.06,0,0,0,.09-1.16,5.3,5.3,0,0,0-.09-1.11c-.06-.27-.11-.52-.14-.76s-.07-.49-.13-.76a5.36,5.36,0,0,1-.09-1.11,10.45,10.45,0,0,1,.05-1.12,4.46,4.46,0,0,1,.13-.76,5.57,5.57,0,0,0,.13-.75,10.45,10.45,0,0,0,.05-1.12,10.24,10.24,0,0,0-.05-1.11,6.8,6.8,0,0,1,0-.76,8,8,0,0,0,0-.8c0-.3,0-.69,0-1.16v-1.16c0-.24,0-.48,0-.71a5,5,0,0,1,0-.81v-1.07a4,4,0,0,1,.13-1.11c.09-.27.18-.52.27-.76s.18-.49.27-.76a3.62,3.62,0,0,0,.13-1.11,6,6,0,0,0-.31-1.92,14.64,14.64,0,0,1-.49-1.83c-.12-.65-.22-1.29-.31-1.91a6.38,6.38,0,0,0-.49-1.74,7.07,7.07,0,0,0-1.07-1.69c-.42-.48-.8-.95-1.16-1.43a12.47,12.47,0,0,1-1.07-1.61,5.24,5.24,0,0,0-1.16-1.42,4.31,4.31,0,0,0-1.69-1,6.57,6.57,0,0,1-1.61-.72,16.07,16.07,0,0,0-2.09-.89c-.57-.18-1-.32-1.3-.44a7.32,7.32,0,0,0,2.06-.32,6.36,6.36,0,0,1,2-.22,4,4,0,0,1,2.06.36,4,4,0,0,0,2.05.35,4.46,4.46,0,0,0,1.24-.13L491,282a7.55,7.55,0,0,1,.8-.26,4.48,4.48,0,0,1,1.25-.14v.18h4.19c.53,0,1,0,1.25,0a6.55,6.55,0,0,0,.89,0c.23,0,.52,0,.84,0s.76.05,1.3.05v.36h3.56a3.43,3.43,0,0,0,1.79-.32,3.5,3.5,0,0,1,1.78-.31c.65,0,1.17,0,1.56,0l1.07-.09c.32,0,.67-.08,1-.14h.36a8.17,8.17,0,0,1,1.16.09c-.24.12-.68.33-1.34.63s-1.39.65-2.23,1.07a20.62,20.62,0,0,0-3.12,2.14,7.54,7.54,0,0,0-1.29,1.24c-.39.48-.79,1-1.2,1.61a10.52,10.52,0,0,0-1.79,3.21c-.23.53-.52,1.1-.84,1.69a6.13,6.13,0,0,0-.67,1.88,25.48,25.48,0,0,0-.27,3.83,3.15,3.15,0,0,0,.31,1.69,3.17,3.17,0,0,1,.32,1.7,6,6,0,0,1-.18,1.78,5.24,5.24,0,0,0-.18,1.69,3.63,3.63,0,0,0,.27,1.7,3.78,3.78,0,0,1,.26,1.69,2.57,2.57,0,0,1-.4,1.69,2.88,2.88,0,0,0-.4,1.79,2.71,2.71,0,0,0,.49,1.65,4.91,4.91,0,0,0,1.12,1.11,5.85,5.85,0,0,0,2.85,1.43,1.64,1.64,0,0,0,.53.09,2.75,2.75,0,0,0,1.07-.27,4.27,4.27,0,0,1,1.16-.18h8a4,4,0,0,1,1.15.14c.3.08.57.17.81.26l.76.27a3.57,3.57,0,0,0,1.11.13,4.69,4.69,0,0,0,1.56-.44,7.74,7.74,0,0,1,1.47-.54c.59-.12,1.16-.2,1.7-.26a2.42,2.42,0,0,0,1.33-.54,2,2,0,0,0,.8-1.16,7,7,0,0,0,.18-1.69v-8.92a6.58,6.58,0,0,0,0-.8,6.35,6.35,0,0,1,0-.8v-1.16h.36c0-.65,0-1.31.09-2v-.63a8.62,8.62,0,0,0-.09-1.24,9.69,9.69,0,0,0-.54-1.88c-.23-.59-.47-1.16-.71-1.69a6.88,6.88,0,0,0-.93-1.74c-.39-.5-.76-1-1.12-1.47a12.89,12.89,0,0,0-1.29-1.43c-.45-.41-.91-.8-1.38-1.16a6.35,6.35,0,0,0-1.65-1.07,9.51,9.51,0,0,1-1.56-.8,23.23,23.23,0,0,1-2-1.11A9.11,9.11,0,0,0,515,284c.53,0,.95,0,1.25,0a5.76,5.76,0,0,1,.8.14l.8.18a6.9,6.9,0,0,0,1.25.08,5.24,5.24,0,0,0,2.05-.26,5.19,5.19,0,0,1,2-.27h4.1c.54,0,1,0,1.25,0a8.85,8.85,0,0,1,.89-.05c.24,0,.52,0,.85,0s.76-.05,1.29-.05a6.67,6.67,0,0,1,1.25.09,7,7,0,0,0,.85.13c.26,0,.55.08.84.14a6.75,6.75,0,0,0,1.25.09,5.16,5.16,0,0,0,2-.27,5.19,5.19,0,0,1,2.05-.27c.54,0,.95,0,1.25.05a8.83,8.83,0,0,0,.89,0,8,8,0,0,1,.8.05c.3,0,.72,0,1.25,0h2c.36,0,1,0,2.05.09-.29.12-.74.31-1.33.58s-1.31.61-2.14,1a11.8,11.8,0,0,0-1.43,1c-.48.39-1,.82-1.52,1.29a14.85,14.85,0,0,0-2.49,2.59,13.9,13.9,0,0,1-1.21,1.38,5.82,5.82,0,0,0-1.11,1.65,4.29,4.29,0,0,0-.36,1.78,11.7,11.7,0,0,1-.17,2,13.3,13.3,0,0,1-.5,1.79,5.82,5.82,0,0,0-.31,1.87,11,11,0,0,1-.09,1.78,11.17,11.17,0,0,0-.09,1.79v3.65c0,.89,0,1.49,0,1.78s0,.89,0,1.79a3.41,3.41,0,0,0,.31,1.78,3.41,3.41,0,0,1,.31,1.78,11.26,11.26,0,0,1-.09,1.79,11,11,0,0,0-.09,1.78,5.62,5.62,0,0,1-.18,1.78,5.66,5.66,0,0,0-.18,1.78,4.26,4.26,0,0,0,.23,1.7,4.62,4.62,0,0,1,.22,1.78,7.65,7.65,0,0,0,.13,1.79,7.32,7.32,0,0,1,.14,1.78,5.66,5.66,0,0,1-.18,1.78,5.66,5.66,0,0,0-.18,1.78,8.2,8.2,0,0,0,.13,1.79,7.32,7.32,0,0,1,.14,1.78,11,11,0,0,1-.09,1.78,11.17,11.17,0,0,0-.09,1.79c0,.89,0,1.48,0,1.78s0,.89,0,1.78v2a.8.8,0,0,0-.09.36,6.21,6.21,0,0,0,.18,1.52,4.86,4.86,0,0,0,.71,1.78,10.75,10.75,0,0,1,.9,1.6,19.31,19.31,0,0,1,.71,1.83,5.13,5.13,0,0,0,.8,1.56c.42.54.8,1.07,1.16,1.61A5.31,5.31,0,0,0,541.34,357.23Zm-43.51-55.45q-.18-.54-.36-1.2a7,7,0,0,1-.17-1.74,17.07,17.07,0,0,1,.13-2.14c.09-.71.19-1.49.31-2.32a8.66,8.66,0,0,1,.54-1.92c.23-.56.47-1.08.71-1.56a3.52,3.52,0,0,0,.27-.44l.18-.36a19.27,19.27,0,0,1,2.23-4.1h-.18a4.07,4.07,0,0,1-1.79-.44h-.62a4.16,4.16,0,0,0-.8-.09h-6l-.17.09a2.38,2.38,0,0,1,.44.62l.31.31.32.31q.44.63,1,1.38a8.34,8.34,0,0,1,1,1.83,7.46,7.46,0,0,1,.58,1.88c.08.59.19,1.15.31,1.69a2.49,2.49,0,0,0,0,.49,2.08,2.08,0,0,1,.05.4,6.5,6.5,0,0,1,.26.89c.12.48.26,1,.41,1.56a8,8,0,0,1,.22,1.92,8.28,8.28,0,0,1-.22,2.05,13.14,13.14,0,0,1-.41,1.25.82.82,0,0,0-.17.44,8.43,8.43,0,0,0,0,1,4.73,4.73,0,0,1,0,.67c0,.29,0,.59.05.89s0,.68,0,1.16v1.6a4.56,4.56,0,0,1,.09.89v1.34a9.38,9.38,0,0,1-.26,2.59,2.54,2.54,0,0,1-.05.49,3.76,3.76,0,0,0,0,.67,4.24,4.24,0,0,0,.09,1,11.26,11.26,0,0,1,.26,1.2,10.72,10.72,0,0,1,.09,1.56,12.38,12.38,0,0,1-.09,1.69c-.06.42-.12.78-.18,1.07a5.6,5.6,0,0,0-.08,1.07,3.19,3.19,0,0,0,.08.63c.12.41.24.86.36,1.33a7.48,7.48,0,0,1,.18,1.79,8.28,8.28,0,0,1-.22,2c-.15.53-.29,1-.4,1.25a1.37,1.37,0,0,0-.09.44v1.7a14.7,14.7,0,0,1,.09,2.14v2.05a5.78,5.78,0,0,1-.05.71,8.55,8.55,0,0,0,0,1,5.36,5.36,0,0,0,.17,1.07,11.43,11.43,0,0,1,.27,1.52v.62a8.76,8.76,0,0,1-.09,1.25,7.12,7.12,0,0,1-.58,1.91,14.17,14.17,0,0,1-.84,1.56.81.81,0,0,0-.23.36,1.74,1.74,0,0,1-.13.36,9.66,9.66,0,0,1-1.07,2.05c-.42.59-.8,1.13-1.16,1.6l-.18.27a1.05,1.05,0,0,0-.26.54,3,3,0,0,1,.89-.09,9.9,9.9,0,0,1,1.78.13c.48.09.92.19,1.34.31l.44.14a3.08,3.08,0,0,0,.63,0,6.33,6.33,0,0,0,.89,0c.18,0,.38-.08.62-.14a9,9,0,0,1,1.07-.13c.42,0,1-.05,1.7-.05h.35a1.58,1.58,0,0,0-.26-.35,3.29,3.29,0,0,0-.54-.63,18,18,0,0,0-1.07-1.51,9.32,9.32,0,0,1-1.07-1.79,7.11,7.11,0,0,1-.44-1.87c-.06-.59-.09-1.13-.09-1.6a3.83,3.83,0,0,0-.05-.63,3.15,3.15,0,0,1,0-.53,1.57,1.57,0,0,1-.14-.4,1.57,1.57,0,0,0-.13-.4c-.12-.48-.27-1-.45-1.61a7.1,7.1,0,0,1-.26-2,10.72,10.72,0,0,1,.09-1.56,4.19,4.19,0,0,1,.26-1,2.61,2.61,0,0,0,.09-.8c0-.59,0-1.07.05-1.42a3.28,3.28,0,0,1,.22-1,4.27,4.27,0,0,0,.09-1,2.64,2.64,0,0,0-.09-.62,10.8,10.8,0,0,1-.31-1.16,7.71,7.71,0,0,1-.14-1.6c0-.54,0-.95.05-1.25a8.83,8.83,0,0,0,0-.89,5.92,5.92,0,0,0,.09-1.25,7.15,7.15,0,0,1,2.05-5.26,6.27,6.27,0,0,1-2-2.77,8.19,8.19,0,0,1-.44-2.4,6.94,6.94,0,0,1,.22-1.92,8.14,8.14,0,0,1,.49-1.29q0-.18.09-.18v-.09a.91.91,0,0,0-.18-.53,10.1,10.1,0,0,1-.31-1.21,8.38,8.38,0,0,1-.14-1.65,9.94,9.94,0,0,1,.09-1.47q.09-.57.18-1a4.24,4.24,0,0,0,.09-1v-.18A.37.37,0,0,0,497.83,301.78Zm38.6,55.28a1.5,1.5,0,0,1-.22-.27,1.21,1.21,0,0,0-.22-.27,8.55,8.55,0,0,1-1-1.74q-.36-.84-.63-1.56l-.17-.49c-.06-.15-.12-.28-.18-.4l-.18-.36-.18-.35c-.3-.48-.58-1-.85-1.52a6.89,6.89,0,0,1-.58-2,9.94,9.94,0,0,1-.17-1.78v-4.64a9.55,9.55,0,0,0,.09-1.6V339a4.4,4.4,0,0,1,.08-.89v-1.52a6.94,6.94,0,0,0-.08-1.25c0-.29,0-.61,0-.93s0-.79,0-1.39a10.05,10.05,0,0,1,.26-2.49,4.76,4.76,0,0,0,.09-1.07,5.26,5.26,0,0,0-.09-1.16,8.88,8.88,0,0,1-.13-.94c0-.32,0-.81,0-1.47a3.91,3.91,0,0,0-.09-.8,4.63,4.63,0,0,1-.27-1.07,11.7,11.7,0,0,1-.09-1.61c0-.65,0-1.17,0-1.56a4.66,4.66,0,0,1,.23-1.11,3.7,3.7,0,0,0,.09-.89c0-.54,0-.95,0-1.25s0-.56,0-.8v-1.52a2.31,2.31,0,0,0-.09-.62,8.19,8.19,0,0,1-.45-2.94v-1.25a4.48,4.48,0,0,1,.09-.89v-5.08a14,14,0,0,1,.09-2.06,3.87,3.87,0,0,1,0-.62,5.87,5.87,0,0,0,0-.89,7.17,7.17,0,0,1,.22-1.83c.15-.56.28-1.08.4-1.56a5.19,5.19,0,0,0,.18-.89,1.7,1.7,0,0,0,.09-.54,2.64,2.64,0,0,1,.09-.62q.09-.7.18-1.56a6.18,6.18,0,0,1,.44-1.74,8.39,8.39,0,0,1,1.07-1.87c.42-.53.77-1,1.07-1.34l.63-.62a1.87,1.87,0,0,1,.35-.54,3.08,3.08,0,0,1-.89.09,12.38,12.38,0,0,1-1.69-.09c-.42-.06-.78-.11-1.07-.17l-.63-.14a5.26,5.26,0,0,0-.8,0,8.24,8.24,0,0,0-1,0,5.47,5.47,0,0,1-.76,0,5,5,0,0,1-1,.09h-2a1.68,1.68,0,0,0,.17.26,1,1,0,0,1,.18.27,2.56,2.56,0,0,0,.45.54c.3.47.64,1,1,1.51a9.46,9.46,0,0,1,1,1.87l.27.54c.23.47.47,1,.71,1.69a11.35,11.35,0,0,1,.54,2.14,6.35,6.35,0,0,1,.17,1.43v.27c-.06.59-.09,1.13-.09,1.6a3.72,3.72,0,0,1,0,.62,3.27,3.27,0,0,0,0,.54,3.16,3.16,0,0,1-.36,1.6v.09a4.56,4.56,0,0,1,.09.89v7a8.83,8.83,0,0,0,0,.89c0,.3,0,.71,0,1.25a7.5,7.5,0,0,1-1.7,5.08,7.29,7.29,0,0,1,2.23,5.35,6,6,0,0,1-.22,1.78c-.15.48-.28.89-.4,1.25q0,.18-.09.18v.18a7.21,7.21,0,0,0,0,.93,4.13,4.13,0,0,1,.05.58,7.77,7.77,0,0,0,0,.8c0,.3,0,.69,0,1.16a11.61,11.61,0,0,1,0,1.16c0,.3,0,.57,0,.8a3.83,3.83,0,0,1-.05.63,6.33,6.33,0,0,0,0,.89,3.76,3.76,0,0,0,0,.67,2.46,2.46,0,0,1,.05.49,8.88,8.88,0,0,1,.13.94c0,.32,0,.78,0,1.38a1.36,1.36,0,0,0,0,.4l.13.4a10.73,10.73,0,0,1,.27,2.59,11.64,11.64,0,0,1-.09,1.6,5.24,5.24,0,0,1-.26,1.07V343a2.72,2.72,0,0,1,.08.71,14.15,14.15,0,0,1-.13,2c-.09.62-.19,1.17-.31,1.65a2.27,2.27,0,0,0-.09.71,9.26,9.26,0,0,1-.54,2.05c-.23.59-.47,1.13-.71,1.61a5.58,5.58,0,0,1-.27.62,4.66,4.66,0,0,0-.26,1.07c-.12.48-.29,1-.49,1.6a7.35,7.35,0,0,1-.94,1.79,1,1,0,0,0-.36.44h.18a7.38,7.38,0,0,0,.94,0c.21,0,.43-.08.67-.13a8.27,8.27,0,0,1,1.07-.14c.41,0,1,0,1.6,0s1.15,0,1.47,0,.64.05.94.05a4.89,4.89,0,0,0,.8.09Z"/></svg>