<svg id="facebook" data-name="Camada 1" xmlns="http://www.w3.org/2000/svg" viewBox="0 0 595.28 595.28">
    <defs>
        <style>
        </style>
    </defs>
    <title>Facebook</title>
    <rect id="Retângulo_652" data-name="Retângulo 652" class="cls-1" width="595.28" height="595.28" />
    <path id="Caminho_749" data-name="Caminho 749" class="cls-2"
        d="M317.48,440.55l-97.85.14a54,54,0,0,1-53.86-53.87V209.61a54,54,0,0,1,53.86-53.86H396.85a54,54,0,0,1,53.87,53.86V386.82a54,54,0,0,1-53.87,53.87H361.6v-113l35.59.28L404,284.69H361.57V252.22A15.63,15.63,0,0,1,378,237.43h.12l27.19-.57.45-38.54H361.57a49.58,49.58,0,0,0-25.75,10.5,53.14,53.14,0,0,0-18.47,39.36q.06,18.26.1,36.5H280.88V328l36.43-.14Q317.4,384.18,317.48,440.55Z" />
</svg>