<svg id="Camada_1" data-name="Camada 1" xmlns="http://www.w3.org/2000/svg" viewBox="0 0 126.84 119.02">
    <defs>
        <style>
            .cls-1 {
                fill: var(--accent-color);
            }

            .cls-2,
            .cls-3 {
                fill: none;
                stroke: #000;
                stroke-miterlimit: 10;
            }

            .cls-2 {
                stroke-width: 4.71px;
            }

            .cls-3 {
                stroke-width: 4.15px;
            }
        </style>
    </defs>
    <title>SVG_Site_JoaoRodrigo</title>
    <g id="Grupo_381" data-name="Grupo 381">
        <rect id="Retângulo_651" data-name="Retângulo 651" class="cls-1" x="13.38" y="7.98" width="104.37"
            height="104.37" />
        <g id="Grupo_379" data-name="Grupo 379">
            <g id="Grupo_378" data-name="Grupo 378">
                <path id="Caminho_748" data-name="Caminho 748" class="cls-2"
                    d="M80.23,82.87q-7.2.21-14.74.2t-14.72-.2A7.8,7.8,0,0,1,43,75.06q-.11-7.31-.1-14.8T43,45.33a8.08,8.08,0,0,1,2.28-5.52,7.68,7.68,0,0,1,5.46-2.29q7.13-.27,14.74-.28t14.72.28A7.8,7.8,0,0,1,88,45.33q.24,7.24.24,14.93T88,75.06a8.06,8.06,0,0,1-2.27,5.52A7.7,7.7,0,0,1,80.23,82.87Z" />
                <circle id="Elipse_108" data-name="Elipse 108" class="cls-2" cx="65.56" cy="61.18" r="11.91" />
                <circle id="Elipse_109" data-name="Elipse 109" class="cls-3" cx="78.79" cy="46.94" r="1.6" />
            </g>
        </g>
    </g>
</svg>