<svg id="instagram" data-name="Camada 1" xmlns="http://www.w3.org/2000/svg" viewBox="0 0 595.28 595.28">
    <defs>
        <style>
            svg#instagram .cls-1 {
                fill: var(--icon-background-color);
            }

            svg#instagram .cls-2,
            svg#instagram .cls-3 {
                fill: none;
                stroke: var(--icon-foreground-color);
                stroke-miterlimit: 10;
            }

            svg#instagram .cls-2 {
                stroke-width: 26.85px;
            }

            svg#instagram .cls-3 {
                stroke-width: 23.62px;
            }
        </style>
    </defs>
    <title>Instagram</title>
    <rect id="Retângulo_651" data-name="Retângulo 651" class="cls-1" width="595.28" height="595.28" />
    <g id="Grupo_379" data-name="Grupo 379">
        <g id="Grupo_378" data-name="Grupo 378">
            <path id="Caminho_748" data-name="Caminho 748" class="cls-2"
                d="M380.86,426.74q-41,1.14-84,1.14T213,426.74a44.44,44.44,0,0,1-44.08-44.5q-.62-41.64-.62-84.35,0-43.08.62-85.07a45.78,45.78,0,0,1,12.95-31.43A43.76,43.76,0,0,1,213,168.31q40.59-1.53,83.95-1.59t83.9,1.59a44.44,44.44,0,0,1,44.08,44.51q1.35,41.3,1.39,85.09,0,43.36-1.39,84.33A45.8,45.8,0,0,1,412,413.66,43.76,43.76,0,0,1,380.86,426.74Z" />
            <circle id="Elipse_108" data-name="Elipse 108" class="cls-2" cx="297.29" cy="303.14" r="67.85" />
            <circle id="Elipse_109" data-name="Elipse 109" class="cls-3" cx="372.66" cy="222.01" r="9.13" />
        </g>
    </g>
</svg>