<svg id="linkedin" data-name="Camada 1" xmlns="http://www.w3.org/2000/svg" viewBox="0 0 595.28 595.28">
    <defs>
        <style>
        </style>
    </defs>
    <title>LinkedIn</title>
    <rect id="Retângulo_653" data-name="Retângulo 653" class="cls-1" width="595.28" height="595.28" />
    <g id="Grupo_380" data-name="Grupo 380">
        <path id="Caminho_750" data-name="Caminho 750" class="cls-2"
            d="M444.56,297.88c0,38.13.09,76.26-.07,114.39a25.63,25.63,0,0,1-13.77,24.19,27.49,27.49,0,0,1-13,3q-115.09.17-230.19,0a24.52,24.52,0,0,1-23.81-14.21,31.37,31.37,0,0,1-2.91-12.78q-.26-114.87-.05-229.73a25.4,25.4,0,0,1,13.77-23.95,27.31,27.31,0,0,1,13-3.05q115.1-.17,230.19,0a25.21,25.21,0,0,1,24,14.16,29,29,0,0,1,2.85,13.3Q444.64,240.55,444.56,297.88ZM316.75,277.34v-9.72a7.35,7.35,0,0,0-6.74-7.93,6.53,6.53,0,0,0-1.25,0c-10.33,0-20.66.21-31-.09a8.34,8.34,0,0,0-8.81,7.83,7.85,7.85,0,0,0,0,1q.11,65.72,0,131.41a8.19,8.19,0,0,0,7.12,9.12,8.39,8.39,0,0,0,1.94,0q14.91.1,29.82,0a8,8,0,0,0,8.87-8.94c0-21.68.08-43.35,0-65a55.23,55.23,0,0,1,2.69-18.31c4-11.73,11.61-18.88,25.06-18.13a20.71,20.71,0,0,1,19.63,15,58.87,58.87,0,0,1,2.63,17.87c.06,22.82,0,45.67,0,68.51,0,6,2.73,8.9,8.73,8.94q15.5.1,31,0a8,8,0,0,0,8.9-9c-.2-27.95-.35-55.9-.78-83.85a76.61,76.61,0,0,0-7.82-33.23,42.88,42.88,0,0,0-25-22.31,69.85,69.85,0,0,0-28-3,55.89,55.89,0,0,0-17.84,4,42.64,42.64,0,0,0-19.11,15.81ZM201.32,334.08v65.67a8,8,0,0,0,8.55,9.13q15.25.3,30.51,0a8.2,8.2,0,0,0,8.56-7.83q0-.36,0-.72c.06-.78,0-1.56,0-2.33V270.37a23.51,23.51,0,0,0-.16-3.25,7.74,7.74,0,0,0-8-7.47l-.44,0H210.32a7.84,7.84,0,0,0-9,6.47,7.93,7.93,0,0,0,0,2.48q0,32.75,0,65.46Zm-6.91-117a30.65,30.65,0,1,0,30.69-30.69,30.66,30.66,0,0,0-30.69,30.69Z" />
    </g>
</svg>