<svg id="Camada_1" data-name="Camada 1" xmlns="http://www.w3.org/2000/svg" viewBox="0 0 119.89 120.33">
    <defs>
        <style>
            .cls-1 {
                fill: var(--accent-color);
            }
        </style>
    </defs>
    <title>SVG_Site_JoaoRodrigo</title>
    <g id="Grupo_381" data-name="Grupo 381">
        <rect id="Retângulo_653" data-name="Retângulo 653" class="cls-1" x="6.04" y="7.98" width="104.37"
            height="104.37" />
        <g id="Grupo_380" data-name="Grupo 380">
            <path id="Caminho_750" data-name="Caminho 750"
                d="M84,60.2c0,6.69,0,13.38,0,20.06a4.49,4.49,0,0,1-2.42,4.24,4.88,4.88,0,0,1-2.28.54H38.91a4.29,4.29,0,0,1-4.17-2.5,5.4,5.4,0,0,1-.51-2.24q0-20.13,0-40.27a4.44,4.44,0,0,1,2.41-4.2,4.79,4.79,0,0,1,2.28-.54q20.19,0,40.36,0a4.42,4.42,0,0,1,4.2,2.48,5.11,5.11,0,0,1,.5,2.34Q84,50.16,84,60.2ZM61.57,56.6V54.9a1.29,1.29,0,0,0-1.18-1.39h-.22c-1.81,0-3.62,0-5.43,0a1.47,1.47,0,0,0-1.55,1.38V55q0,11.52,0,23a1.42,1.42,0,0,0,1.25,1.59,1.29,1.29,0,0,0,.34,0H60a1.4,1.4,0,0,0,1.55-1.23,1,1,0,0,0,0-.34c0-3.8,0-7.6,0-11.4A9.73,9.73,0,0,1,62,63.5c.7-2.06,2-3.31,4.39-3.18A3.64,3.64,0,0,1,69.87,63a10.36,10.36,0,0,1,.46,3.13c0,4,0,8,0,12,0,1.06.48,1.56,1.53,1.57,1.81,0,3.62,0,5.44,0a1.4,1.4,0,0,0,1.56-1.22,1.38,1.38,0,0,0,0-.35c0-4.9-.06-9.8-.13-14.7a13.42,13.42,0,0,0-1.37-5.83A7.56,7.56,0,0,0,73,53.66a12.19,12.19,0,0,0-4.91-.53,9.88,9.88,0,0,0-3.13.7,7.51,7.51,0,0,0-3.35,2.78ZM41.33,66.55V78.07a1.41,1.41,0,0,0,1.18,1.59,1.71,1.71,0,0,0,.32,0c1.78,0,3.57,0,5.35,0a1.44,1.44,0,0,0,1.5-1.38v-.12c0-.14,0-.28,0-.41V55.38a5.44,5.44,0,0,0,0-.57,1.36,1.36,0,0,0-1.4-1.31H42.91a1.37,1.37,0,0,0-1.58,1.13,1.55,1.55,0,0,0,0,.43V66.55Zm-1.21-20.5a5.38,5.38,0,1,0,5.38-5.39,5.43,5.43,0,0,0-5.38,5.39Z" />
        </g>
    </g>
</svg>