<?xml version="1.0" encoding="UTF-8"?>
<svg id="Camada_1" xmlns="http://www.w3.org/2000/svg" viewBox="0 0 324.99 310.34">
  <path class="cls-1" d="M125.78,60.87c5.38,8.94,10,17.42,13.87,25.46,3.87,8.04,6.76,16.08,8.68,24.12,1.92,8.04,2.83,16.29,2.72,24.73-.11,8.45-1.37,17.49-3.78,27.11-1.37,5.63-3.21,11.06-5.53,16.27-2.31,5.21-5.09,9.97-8.34,14.27-3.25,4.3-7,8.01-11.25,11.13-4.25,3.12-9.09,5.42-14.52,6.92-6.79,1.87-13.2,1.93-19.23.18-6.03-1.75-11.48-4.65-16.35-8.72-4.87-4.06-9.05-8.92-12.56-14.58-3.51-5.65-6.09-11.52-7.76-17.58-.62-2.26-1.2-4.88-1.72-7.85-.53-2.97-.65-5.83-.39-8.58.27-2.75,1.09-5.24,2.47-7.47,1.38-2.23,3.61-3.77,6.69-4.62,2.8-.77,5.38-.43,7.73,1.01,2.35,1.45,4.52,3.5,6.52,6.16,2,2.66,3.92,5.74,5.75,9.22,1.84,3.49,3.69,6.87,5.57,10.15,3.04,5.39,6.27,9.18,9.7,11.35,3.42,2.18,6.78,2.95,10.06,2.34,3.29-.61,6.37-2.5,9.24-5.68,2.87-3.18,5.25-7.36,7.13-12.55,3.05-8.73,4.62-17.34,4.72-25.83.09-8.5-.76-16.66-2.58-24.48-1.81-7.82-4.25-15.19-7.32-22.08-3.07-6.9-6.24-13.11-9.51-18.63-3.28,1.88-7,4.21-11.14,7.01-4.15,2.8-8.39,5.59-12.73,8.4-4.34,2.8-8.57,5.38-12.7,7.73-4.12,2.35-7.86,3.99-11.21,4.91-3.89,1.07-7.39.65-10.5-1.27-3.11-1.92-5.19-4.78-6.23-8.58-.85-3.08-.73-5.93.34-8.56,1.08-2.63,2.88-4.83,5.41-6.6,2.13-1.46,5.18-3.27,9.16-5.44,3.98-2.17,8.43-4.46,13.36-6.89,4.93-2.43,10.1-4.87,15.51-7.33,5.41-2.46,10.63-4.77,15.69-6.95,5.05-2.17,9.68-4.07,13.9-5.72,4.22-1.65,7.6-2.82,10.13-3.52,1.18-.32,2.38-.38,3.6-.19,1.22.2,2.4.58,3.53,1.15,1.13.57,2.11,1.32,2.96,2.25.84.94,1.43,1.99,1.75,3.17.55,1.99.54,3.72-.03,5.19-.57,1.47-1.43,2.78-2.57,3.92-1.15,1.14-2.47,2.17-3.98,3.07-1.5.9-2.93,1.73-4.28,2.49Z"/>
  <path class="cls-1" d="M231.21,204.63c2.59,1.33,5.61,2.62,9.04,3.87,3.43,1.25,6.86,2.47,10.29,3.67,3.43,1.2,6.69,2.37,9.78,3.51,3.09,1.14,5.59,2.23,7.49,3.25,1.59.78,3,1.88,4.24,3.31,1.23,1.43,1.95,3.12,2.16,5.08.28,2.71-.51,4.89-2.36,6.55-1.86,1.66-3.95,2.61-6.29,2.85-3.27.34-6.8-.02-10.59-1.09-3.79-1.07-7.67-2.5-11.63-4.31-3.96-1.8-7.87-3.78-11.73-5.92-3.86-2.15-7.44-4.15-10.75-6.03-3.31-1.87-6.25-3.4-8.83-4.6-2.58-1.19-4.52-1.72-5.83-1.59l-11.34,1.18c-.12,1.52-.13,3.08,0,4.67.12,1.59.27,3.23.44,4.91.48,4.58,1.22,7.87,2.23,9.89,1.01,2.02,2.04,3.52,3.09,4.49,1.04.98,2.01,1.84,2.89,2.6.88.76,1.42,2.12,1.63,4.08.26,2.52-.53,4.68-2.37,6.48-1.84,1.8-3.93,2.82-6.26,3.06-4.02.42-7.41-.43-10.18-2.55-2.77-2.12-5.12-5.01-7.06-8.68-1.94-3.67-3.49-7.85-4.63-12.54-1.15-4.69-2.11-9.38-2.88-14.07-.77-4.68-1.42-9.1-1.95-13.25-.53-4.14-1.12-7.55-1.77-10.22-.64.16-1.19.32-1.65.45-.46.14-.92.24-1.39.29-2.71.28-4.99-.3-6.84-1.76-1.85-1.46-2.91-3.5-3.18-6.11-.24-2.33.04-5.03.85-8.09.81-3.06,1.91-6.14,3.28-9.26,1.37-3.11,2.88-6.1,4.52-8.96,1.64-2.86,3.1-5.3,4.4-7.33,1.22-1.83,2.23-4.17,3.02-7.04.78-2.86,1.5-5.96,2.15-9.28s1.38-6.68,2.21-10.07c.83-3.39,1.92-6.47,3.28-9.26,1.36-2.78,3.05-5.13,5.07-7.04,2.02-1.91,4.61-3.03,7.79-3.36,2.05-.21,3.75.03,5.1.74,1.35.71,2.44,1.71,3.28,2.98.84,1.28,1.39,2.73,1.66,4.36.26,1.62.34,3.24.22,4.86,6.37-3.21,12.76-6.14,19.18-8.8,6.42-2.65,13.28-4.36,20.56-5.12,4.76-.5,9.38-.34,13.85.46,4.47.81,8.5,2.32,12.08,4.54,3.58,2.22,6.58,5.17,8.99,8.83,2.41,3.66,3.89,8.11,4.44,13.34.49,4.67.08,9.36-1.22,14.07-1.3,4.71-3.22,9.37-5.76,13.98-2.54,4.61-5.54,9.07-9.01,13.4-3.47,4.33-7.13,8.37-10.98,12.12-3.86,3.75-7.74,7.2-11.66,10.35-3.92,3.15-7.6,5.84-11.05,8.09ZM245.04,125.47c-3.83.4-7.86,1.34-12.09,2.82-4.23,1.48-8.43,3.31-12.59,5.49-4.16,2.18-8.09,4.6-11.77,7.24-3.69,2.65-6.86,5.29-9.51,7.93-.43.42-.83,1.53-1.21,3.31-.38,1.79-.72,3.92-1.03,6.41-.31,2.49-.57,5.15-.79,8.01-.22,2.85-.41,5.59-.56,8.2-.15,2.61-.27,4.91-.34,6.9-.08,1.99-.07,3.36,0,4.1.22,2.15,1.06,3.81,2.5,4.98,1.44,1.17,3.15,1.65,5.11,1.45,2.8-.29,6.16-1.58,10.07-3.88,3.91-2.29,7.95-5.17,12.12-8.63,4.17-3.45,8.27-7.35,12.3-11.69,4.03-4.34,7.65-8.75,10.86-13.24,1.23-1.73,2.56-3.71,3.98-5.93,1.42-2.22,2.65-4.5,3.68-6.82,1.03-2.32,1.74-4.57,2.13-6.73.39-2.16.26-4.04-.37-5.62-.64-1.58-1.94-2.79-3.92-3.63-1.97-.83-4.83-1.05-8.56-.66Z"/>
  <path class="cls-1" d="M188.58,56.94c-1.01,3.17-2.3,7.3-5.28,7.79-3.76.62-7.82-3.48-7.82-7.82,0-4.53,4.24-7.61,7.82-7.82.17,0,4.16-.18,5.61,2.39.88,1.56.36,3.29-.33,5.45Z"/>
  <path class="cls-1" d="M243.73,35.65c.99,4.57.24,5.88,0,6.27-1.66,2.6-5.91,2.85-8.57,2.3-5.75-1.19-9.72-7.28-9.93-12.7-.05-1.32-.14-3.79,1.49-5.78,2.6-3.17,8.19-3.42,11.72-1.32,3.27,1.94,4.03,5.43,5.28,11.24Z"/>
  <path class="cls-1" d="M235.17,70.58c-.56,2.25-2.16,3.97-4.48,6.35-2.94,3.01-4.59,4.7-6.87,5-4.67.63-10.56-5.07-11.35-11.35-.85-6.75,4.11-14.99,11.12-15.12,7.63-.15,13,9.4,11.58,15.12Z"/>
  <path class="cls-1" d="M113.25,233.09c-.18,1.19-1.04,3.44-2.94,3.61-1.74.15-3.52-1.52-3.52-3.52,0-2.08,1.92-3.44,3.52-3.52.22-.01,1.67-.06,2.5,1.02.67.87.51,1.93.44,2.42Z"/>
  <path class="cls-1" d="M154.88,254.14c-.1,2.59-3.08,4.95-5.93,5.37-3.98.59-8.98-2.43-9.03-6.72-.05-4.5,5.39-7.81,8.59-6.94,1.37.37,2.25,1.49,3.85,3.52,1.67,2.11,2.58,3.27,2.52,4.76Z"/>
  <path class="cls-1" d="M99.18,262.71c-.56,2.07-3.63,13.46-12.88,14.5-8.04.91-15.65-6.59-16.18-14.17-.32-4.66,2.1-8.2,2.97-9.36,4.42-5.81,11.55-5.94,13.21-5.97,1.85-.03,9.44-.17,12.55,4.98,2.09,3.48,1.01,7.48.33,10.02Z"/>
</svg>