<svg id="Camada_1" data-name="Camada 1" xmlns="http://www.w3.org/2000/svg" viewBox="0 0 595.28 595.28">
    <defs>
        <style>
        </style>
    </defs>
    <title>Hallo Animação</title>
    <rect class="cls-1" x="0.63" width="594.64" height="594.64" />
    <path class="cls-2"
        d="M298.07,238,298,260.57l-7.68.79-60.23-60.17c5.11-2.2,8.06-6.91,7.45-11.28-.64-4.58-5.24-9.09-8.44-8-2.33.78-3.85,4.49-3.52,8.93a22.86,22.86,0,0,0-.14-5.75c-.21-1.41-.9-5.87-3.17-8.4-4.46-5-17.19-4.78-21.45,2.25s2.68,16.33,3.56,17.51c5.88,7.89,15.1,9.08,17.1,9.3l65.7,64.66,4.56,66.52-23.62,12.93q-9.12,10-18.25,20.08a41.16,41.16,0,0,1-.33,4.78c-.09.75-.24,1.84-.25,1.84s.07-.42.19-1.17a45.44,45.44,0,0,0-1.6-18.78c-1.61-4.85-4-12-7.73-12.21s-8,7.05-8.57,13.61c-.44,4.68,1.07,7.37,3.15,14.09a120,120,0,0,1,4.16,19.08c2.33.7,5.72,1.29,8.71-.28a11.17,11.17,0,0,0,4.73-5.46c2.22-4.82,7.76-13.21,19.92-28.33l31.34-12.88,26.09,35.43L302.1,399.29a31,31,0,0,0,.68,18.42c2.19,5.89,7.09,12.93,10.08,12.11,3.26-.89,3-10.77,3-11.35A28.66,28.66,0,0,0,311,403.82l32.69-22q-14.47-23-28.94-46L321.62,271l83.92-61.43a32,32,0,0,0,18-8.15c2.85-2.7,8.41-8,7-13.77a10.34,10.34,0,0,0-6.75-7c-5.68-1.85-13.26,1.88-17.43,9.84.73-3-.1-5.93-2-7-2.68-1.59-6.48,1.15-8.16,3.37-2.13,2.83-1.83,6.16-1.68,7.87a14.93,14.93,0,0,0,2.53,7l-78.71,60-7.68-.56q.61-10.66,1.24-21.34" />
    <path class="cls-2"
        d="M298.08,240c-18.95-3.82-31.71-15.25-34.52-17.86s-22.78-21.79-22.78-52.28a72.71,72.71,0,0,1,11.75-39.25q-3.15-20.2-6.29-40.4l26.66,20.17a67.45,67.45,0,0,1,76.07-.3l26.55-20q-2.73,20.33-5.47,40.67c5.22,7.2,13.56,21.15,13.47,39.12-.18,36-34.07,70.4-71.37,71.37" />
    <path class="cls-2"
        d="M161.66,486.64v13.23h-4.3v11.95H142.44v-31.9q0-9.27,5.06-14.39t14.2-5.13q8.82,0,13.05,4.65T179,479.4v32.42H164.05V480.39a8.37,8.37,0,0,0-.7-4.08,2.67,2.67,0,0,0-2.49-1.14c-2.33,0-3.5,1.75-3.5,5.22v6.25Z" />
    <path class="cls-2"
        d="M219.66,511.82H205.91v-20.7c0-2.1-.87-3.16-2.61-3.16s-2.57,1.06-2.57,3.16v20.7H187V491.38a16.7,16.7,0,0,1,4.74-12.07,16.5,16.5,0,0,1,24.22.79q3.7,4.44,3.71,12.39Z" />
    <path class="cls-2"
        d="M241.42,475.17v36.65H227.67V475.17Zm-6.84-16.35a6.73,6.73,0,0,1,4.83,2,6.5,6.5,0,0,1,.11,9.35,7.55,7.55,0,0,1-9.88,0,6.5,6.5,0,0,1,.11-9.35A6.73,6.73,0,0,1,234.58,458.82Z" />
    <path class="cls-2"
        d="M299.78,511.82H286V492a7.28,7.28,0,0,0-.48-3.16,1.77,1.77,0,0,0-1.72-.88q-2.32,0-2.32,4.08v19.74H267.77V492a7.07,7.07,0,0,0-.5-3.16,1.83,1.83,0,0,0-1.75-.88q-2.26,0-2.27,4.08v19.74H249.5V489.25a14.56,14.56,0,0,1,4.15-10.49,13.46,13.46,0,0,1,10.07-4.32q6.11,0,11,5.14,5.4-5.13,10.8-5.14a13.64,13.64,0,0,1,11,5q3.27,3.9,3.27,11.35Z" />
    <path class="cls-2"
        d="M328.19,498.07v14.22a17.86,17.86,0,0,1-3.09.3,18.81,18.81,0,0,1-13.78-5.44,19.15,19.15,0,0,1,13.6-32.71q8.88,0,14,5.2t5.12,14.2v18H330.32v-17a7,7,0,0,0-1.42-4.63,4.63,4.63,0,0,0-3.8-1.73,5.41,5.41,0,0,0-3.9,9.08,4.88,4.88,0,0,0,3.64,1.47A6.24,6.24,0,0,0,328.19,498.07Z" />
    <path class="cls-2"
        d="M375.52,511.52q-.94,7.25-8.78,10.62l-5-5a8.11,8.11,0,0,0,2-4.71v-.66a19,19,0,0,1-13.67-18.59,17.84,17.84,0,0,1,5.62-13.23,19,19,0,0,1,32.16,9.88l-13.93.52a5.44,5.44,0,0,0-4.55-2.36,5.15,5.15,0,0,0-3.86,1.55A5.33,5.33,0,0,0,364,493.4a5.46,5.46,0,0,0,1.6,4,5.36,5.36,0,0,0,4,1.62q3.45,0,5-4.08l13.63-.52a19.73,19.73,0,0,1-3.78,10.66A18.43,18.43,0,0,1,375.52,511.52Z" />
    <path class="cls-2"
        d="M414.55,498.07v14.22a17.66,17.66,0,0,1-3.08.3,18.83,18.83,0,0,1-13.79-5.44,19.16,19.16,0,0,1,13.6-32.71q8.89,0,14,5.2t5.13,14.2v18H416.68v-17a7.09,7.09,0,0,0-1.41-4.63,4.63,4.63,0,0,0-3.8-1.73,5.41,5.41,0,0,0-3.9,9.08,4.88,4.88,0,0,0,3.64,1.47A6.2,6.2,0,0,0,414.55,498.07Zm1.33-34.84h5.66a10.15,10.15,0,0,1-1.73,6.1,5.24,5.24,0,0,1-4.41,2.39,5.5,5.5,0,0,1-2.94-.88l-1.66-1a1.81,1.81,0,0,0-.77-.26c-.76-.05-1.25.59-1.47,1.91h-5.47a10.34,10.34,0,0,1,1.6-6.17,5.23,5.23,0,0,1,4.5-2.21,5.33,5.33,0,0,1,2.83.85l1.47.88a2,2,0,0,0,.92.3C415.24,465.15,415.73,464.53,415.88,463.23Z" />
    <path class="cls-2"
        d="M455.83,474.4A18.14,18.14,0,0,1,469.18,480a19,19,0,0,1-.07,26.95,19.39,19.39,0,0,1-27.25,0,18.34,18.34,0,0,1-5.66-13.51,18.14,18.14,0,0,1,5.66-13.54A19.29,19.29,0,0,1,455.83,474.4ZM455.46,488a5,5,0,0,0-3.75,1.6,5.69,5.69,0,0,0,0,7.81,5.14,5.14,0,0,0,7.49,0,5.37,5.37,0,0,0,1.57-3.89,5.43,5.43,0,0,0-1.55-3.92A5.08,5.08,0,0,0,455.46,488Z" />
</svg>