<svg id="Camada_1" data-name="Camada 1" xmlns="http://www.w3.org/2000/svg" viewBox="0 0 595.28 595.28">
    <defs>
        <style>
        </style>
    </defs>
    <title>Hallo BD</title>
    <rect id="Retângulo_353" data-name="Retângulo 353" class="cls-1" width="595.28" height="595.28" />
    <path class="cls-2"
        d="M162.25,381.1,179.53,398V540.86H152.2l-8.24-8v8H116.63L99.35,524H98.14V379.9h28.54v1.2l7,6.84v-8h28.54Zm-4,2.82h-20.5V445H122.66V383.92h-20.5V520h20.5V465.3h15.07V520h20.5Z" />
    <path class="cls-2"
        d="M185,524h-1.2V401a21,21,0,0,1,1.6-8.24,19.88,19.88,0,0,1,4.52-6.63,23.18,23.18,0,0,1,6.74-4.52,19.89,19.89,0,0,1,8.23-1.71h20.3a20.29,20.29,0,0,1,10.55,2.81,21.75,21.75,0,0,1,7.54,7.44l14.06,13.66a22.31,22.31,0,0,1,4.52,6.53,19.28,19.28,0,0,1,1.71,8.14V540.86H236.19l-6.63-6.43v6.43H202.23Zm57.27-123a17.14,17.14,0,0,0-17.08-17.08h-20.3A17.16,17.16,0,0,0,187.76,401V520h20.5V472.33h13.67V520h20.29Zm-34,51v-41.6a5.77,5.77,0,0,1,1.83-4.22,6,6,0,0,1,4.29-1.81h1.43a5.94,5.94,0,0,1,4.28,1.81,5.78,5.78,0,0,1,1.84,4.22V452Z" />
    <path class="cls-2"
        d="M269,524h-1.21V379.9h28.34v1.2L313.36,398v97.66H318v1.21l17.28,16.88v27.13h-49Zm23.11-24.32V383.92h-20.3V520H314v-20.3Z" />
    <path class="cls-2"
        d="M339.88,524h-1.2V379.9H367v1.2L384.29,398v97.66h4.62v1.21l17.28,16.88v27.13h-49ZM363,499.66V383.92h-20.3V520h42.2v-20.3Z" />
    <path class="cls-2"
        d="M420.46,521.17a20.4,20.4,0,0,1-7.53-7.54A20.64,20.64,0,0,1,410,502.88V401a21,21,0,0,1,1.61-8.24,19.88,19.88,0,0,1,4.52-6.63,23.27,23.27,0,0,1,6.73-4.52,19.93,19.93,0,0,1,8.24-1.71h20.3A20.29,20.29,0,0,1,462,382.71a21.72,21.72,0,0,1,7.53,7.44l14.07,13.66a22.5,22.5,0,0,1,4.52,6.53,19.28,19.28,0,0,1,1.71,8.14V520.36a19.84,19.84,0,0,1-1.61,7.94,20.84,20.84,0,0,1-10.95,11,19.81,19.81,0,0,1-7.94,1.61H449A19.42,19.42,0,0,1,434.73,535Zm48-120.17a17.14,17.14,0,0,0-17.08-17.08h-20.3A17.14,17.14,0,0,0,414,401V502.88A17.14,17.14,0,0,0,431.11,520h20.3a17.14,17.14,0,0,0,17.08-17.08Zm-20.3,92.43a5.8,5.8,0,0,1-1.73,4.32,6,6,0,0,1-4.39,1.71h-1.42a6,6,0,0,1-4.39-1.71,5.8,5.8,0,0,1-1.73-4.32v-83a6.18,6.18,0,0,1,1.73-4.42,5.85,5.85,0,0,1,4.39-1.81h1.42a5.85,5.85,0,0,1,4.39,1.81,6.18,6.18,0,0,1,1.73,4.42Z" />
    <rect class="cls-2" x="202.26" y="46.69" width="183.61" height="287.77" />
    <path class="cls-1"
        d="M361.22,134.11c4,18.55-6.11,34.53-8.24,37.71-13.35,20-36,23.33-46,24.82-8.84,1.31-28.34,4.2-47-7.89-3.24-2.1-21.57-14-24.46-34-4-27.54,23.27-57.43,54.27-62.53C320.45,87.22,355.17,106.36,361.22,134.11Z" />
    <path class="cls-1" d="M241,129.08l-15-37,28.87,19.23" />
    <path class="cls-1" d="M328.71,100.08l23.62-26.52q-2.55,19.17-5.11,38.36" />
    <path class="cls-1"
        d="M289.88,258.46l-1.52,11.31H296v10.79h-9l-2.75,19.65H272.37l2.75-19.65h-8.25l-2.75,19.65H252.21L255,280.56h-7.64V269.77h9l1.53-11.31h-7.64V247.67h9l2.55-18.43h11.91l-2.44,18.43h8.14l2.55-18.43h11.91l-2.44,18.43h7.53v10.79Zm-20.26,0-1.43,11.31h8.25l1.43-11.31Z" />
    <path class="cls-1"
        d="M304.75,242.37c1.42-.68,2.82-1.35,4.17-2a39.54,39.54,0,0,0,4.13-2.4,38.41,38.41,0,0,0,4.43-3.46,48.17,48.17,0,0,0,5.09-5.45H340.7v57.64h9.47v13.54H309.43V286.67h10.19V248.89l-10.19,4.79Z" />
</svg>