<svg id="Camada_1" data-name="Camada 1" xmlns="http://www.w3.org/2000/svg" viewBox="0 0 595.28 595.28">
    <defs>
        <style>
        </style>
    </defs>
    <title>Hallo</title>
    <rect class="cls-1" width="595.28" height="595.28" />
    <path class="cls-2"
        d="M455.2,226.79c9.49,43.51-14.35,81-19.35,88.48-31.3,46.85-84.42,54.73-108,58.23-20.72,3.07-66.49,9.86-110.21-18.51-7.59-4.93-50.6-32.83-57.39-79.68-9.37-64.62,54.59-134.75,127.32-146.71C359.53,116.77,441,161.68,455.2,226.79Z" />
    <path class="cls-2" d="M173.13,215l-35.26-86.85,67.74,45.14" />
    <path class="cls-2" d="M378.91,146.94l55.42-62.22-12,90" />
    <path class="cls-2"
        d="M138.62,440.68l16.27-2.81q-4.39,16.83-7.11,30.66l7.29-1.54,4.48-26.31,16.27-2.81q-9.31,36-11.78,61.13l-15.13,3.87L153,478.94l-7.48,1.59q-1.66,10.82-2.37,18.47L128,502.87Z" />
    <path class="cls-2"
        d="M159.9,503.92a570,570,0,0,0,20.94-63.59l26.73-4.48q-4.57,26.64-4.13,63.06l-18.65,4.31,1.32-11-5.89,1.15-1.85,7.74Zm27.63-23.53,4-33.2h-.09l-8.27,34Z" />
    <path class="cls-2"
        d="M213.55,440.68l15.13-2.81q-6.33,24.36-9.76,44.94l15.48-2.37-1.32,16.36q-12,1.05-30.34,6.07Z" />
    <path class="cls-2"
        d="M242.93,440.68l15.13-2.81q-6.33,24.36-9.76,44.94l15.47-2.37-1.31,16.36q-12,1.05-30.35,6.07Z" />
    <path class="cls-2"
        d="M296.14,434q9.32,0,13.19,10.38a33.11,33.11,0,0,1,2,11.78,54.19,54.19,0,0,1-1.85,13.37,63.22,63.22,0,0,1-11.26,22.69q-9.76,12.67-20.67,12.67-9.4,0-13.37-10.38a32.24,32.24,0,0,1-1.93-11.43,53.54,53.54,0,0,1,1.93-13.55,64.24,64.24,0,0,1,11.17-22.78Q285.15,434,296.14,434ZM293,455.81q-4.83,0-9.85,7.92A42.8,42.8,0,0,0,277.5,476a23.75,23.75,0,0,0-.8,5.72,9.4,9.4,0,0,0,1.76,5.89,6.79,6.79,0,0,0,5.63,2.55c3.28,0,6.25-1.73,8.88-5.19a26.21,26.21,0,0,0,4.58-9.76,32.68,32.68,0,0,0,.7-13Q297.2,455.81,293,455.81Z" />
    <path class="cls-2"
        d="M357.09,434q9.33,0,13.19,10.38a33.11,33.11,0,0,1,2,11.78,54.19,54.19,0,0,1-1.85,13.37,63.22,63.22,0,0,1-11.26,22.69q-9.76,12.67-20.67,12.67-9.4,0-13.37-10.38a32.24,32.24,0,0,1-1.93-11.43,53.54,53.54,0,0,1,1.93-13.55,64.24,64.24,0,0,1,11.17-22.78Q346.1,434,357.09,434Zm-3.17,21.81q-4.83,0-9.85,7.92A42.8,42.8,0,0,0,338.45,476a23.75,23.75,0,0,0-.8,5.72,9.4,9.4,0,0,0,1.76,5.89,6.79,6.79,0,0,0,5.63,2.55c3.28,0,6.25-1.73,8.88-5.19a26.21,26.21,0,0,0,4.58-9.76,32.68,32.68,0,0,0,.7-13Q358.15,455.81,353.92,455.81Z" />
    <path class="cls-2"
        d="M377.5,441l15.21-3.08c-.12,1.82-.17,4.4-.17,7.74q0,12,.79,21a46.46,46.46,0,0,0,1.32,8.35l6-34.3,15.12-2.81q-9.13,35.26-12,61.13l-13.89,3.87c-.06-.12-.44-1.15-1.15-3.08l-4.57-13a40.34,40.34,0,0,1-1.32-4Q381,493.1,380,502.87l-14.07,4.22Z" />
    <path class="cls-2" d="M419.36,440.68l15.13-2.81q-9.15,35.26-12,61.13l-14,3.87Z" />
    <path class="cls-2"
        d="M442.58,504.89q-9.31,0-13.19-10a29.8,29.8,0,0,1-2-11.26,51.29,51.29,0,0,1,1.85-12.92,58.65,58.65,0,0,1,11-22.08q9.59-12.23,20.4-12.23,9.4,0,13.28,10.38l-9.76,10.47a5.26,5.26,0,0,0-4.66-2.38q-6,0-11.26,8.27a47.48,47.48,0,0,0-5.89,13.81,21.11,21.11,0,0,0-.8,5.36,8.74,8.74,0,0,0,1.85,5.81,6.9,6.9,0,0,0,5.63,2.46q4.14,0,7.65-3.78a22.85,22.85,0,0,0,4.58-7.56q-6.51,1.32-12.05,2.72L452,469l23.35-5a36.32,36.32,0,0,1-2.47,13.09A59.6,59.6,0,0,1,467,489.07Q456.66,504.9,442.58,504.89Z" />
</svg>