<svg id="hallo-ig" data-name="Camada 1" xmlns="http://www.w3.org/2000/svg" viewBox="0 0 595.28 595.28">
    <defs>
        <style>
            #hallo-ig .cls-1 {
                fill: var(--icon-background-color);
            }

            #hallo-ig .cls-2,
            #hallo-ig .cls-3 {
                fill: none;
                stroke: var(--icon-foreground-color);
                stroke-miterlimit: 10;
            }

            #hallo-ig .cls-2 {
                stroke-width: 25.88px;
            }

            #hallo-ig .cls-3 {
                stroke-width: 18.21px;
            }

            #hallo-ig .cls-4 {
                fill: var(--icon-foreground-color);;
            }
        </style>
    </defs>
    <title>Hallo Instagram</title>
    <rect class="cls-1" width="595.28" height="595.28" />
    <path class="cls-2"
        d="M378.16,351.05q-39.51,1.09-81,1.12t-80.82-1.12a42.82,42.82,0,0,1-42.5-42.9q-.58-40.12-.6-81.3,0-41.52.6-82a44.16,44.16,0,0,1,12.48-30.29,42.17,42.17,0,0,1,30-12.6q39.1-1.48,80.92-1.54T378.16,102a42.82,42.82,0,0,1,42.49,42.89q1.31,39.81,1.34,82,0,41.81-1.34,81.28a44.2,44.2,0,0,1-12.48,30.3A42.19,42.19,0,0,1,378.16,351.05Z" />
    <circle class="cls-2" cx="297.6" cy="231.88" r="65.39" />
    <circle class="cls-3" cx="370.43" cy="153.51" r="8.81" />
    <path class="cls-4"
        d="M98.19,475.84c0-30.86,16.2-45.17,38.74-45.26,20.82,0,30.17,16.2,30,33.34-.09,15.17-8.15,27.69-20.57,27.69-4.8,0-8.32-3-8.49-7.89-.86,3.52-3.17,7.37-8.14,7.72-8.57.77-12.86-6.86-12.86-15.35,0-12.85,8.32-27.85,20.32-27.85a10.62,10.62,0,0,1,5.57,2.14l.85-1.45h6.69l-4.89,31.45c-.43,3.26-.77,6.09,2,6.09,7.2,0,12.78-9.69,12.86-21.69.17-14.4-6.94-27.08-23.91-27-17.91,0-29.83,14.57-29.83,37.72,0,19.71,11.4,28.88,27.69,28.88a57.06,57.06,0,0,0,15.59-2.32l1.63,6.69a66,66,0,0,1-18,2.74C113.44,511.49,98.19,500.18,98.19,475.84Zm39.94-.43,3-20a7.79,7.79,0,0,0-2.4-.43c-6.86,0-13.29,9.51-13.29,21.17,0,5,2,9,6.09,8.23C134.19,484,137,481.32,138.13,475.41Z" />
    <path class="cls-4" d="M176,430.58h9.69v30h17.83v-30h9.68V500h-9.68V467.52H185.7V500H176Z" />
    <path class="cls-4"
        d="M222.3,489.21c0-12.34,8.91-15.94,19.54-20.14v-3.52c0-6-.68-8.91-5-8.91-3.77,0-5.23,2.74-5.23,7v2.48l-9.08-.34c.17-11,4.8-16,14.91-16,9.77,0,13.54,5.49,13.54,15.69v22.62a88.55,88.55,0,0,0,.86,11.92h-8.4c-.34-1.8-.94-5-1.2-7.29-1.2,3.86-4.37,8-10,8C226.41,500.69,222.3,495,222.3,489.21Zm19.54-.52V474.64c-5.66,3.25-10.37,6-10.37,11.74,0,4,1.54,6.43,4.37,6.43C238.5,492.81,241.07,490,241.84,488.69Z" />
    <path class="cls-4" d="M260.7,430.58h9.17V500H260.7Z" />
    <path class="cls-4" d="M280.33,430.58h9.17V500h-9.17Z" />
    <path class="cls-4"
        d="M298.24,482.44V468c0-11.14,3.43-18.26,14.48-18.26s14.4,7.12,14.4,18.26v14.4c0,11.14-3.42,18.25-14.4,18.25S298.24,493.58,298.24,482.44ZM318,483V467.52c0-5.57,0-11-5.23-11s-5.31,5.4-5.31,11V483c0,5.57,0,10.88,5.31,10.88S318,488.61,318,483Z" />
    <path class="cls-4" d="M330.9,504.55h29.48v6.94H330.9Z" />
    <path class="cls-4"
        d="M364.5,478.24V451.92c0-13.71,5-21.94,19-21.94s18.94,8.32,18.94,21.94v26.4c0,13.63-5,22.46-18.94,22.46C369.38,500.78,364.5,492,364.5,478.24Zm28.19,2.14V450c0-7.71-1.45-12.42-9.17-12.42s-9.25,4.71-9.25,12.42v30.43c0,7.71,1.45,12.77,9.25,12.77S392.69,488.09,392.69,480.38Z" />
    <path class="cls-4"
        d="M411.21,450.47h9.17v4.88c3.26-3.08,7.28-5.57,12.08-5.57,5.92,0,7.46,5.32,7.46,10.12V500h-9.17V462.55c0-3.51-.77-5.57-3.94-5.57-2.06,0-4.37,1.37-6.43,3.09V500h-9.17Z" />
    <path class="cls-4" d="M449.44,433.5h9.17v9.6h-9.17Zm0,17h9.17V500h-9.17Z" />
    <path class="cls-4"
        d="M465.55,506c0-4.72,3.43-7.8,7.11-9.52-3.25-.94-4.8-3.08-4.8-5.31,0-3.69,2.06-5.91,5.49-9-3.77-2.83-5.74-6.86-5.74-14.74,0-11.57,4.8-17.66,14-17.66,5.31,0,8.48,1.89,10.2,5.49a20,20,0,0,1,6.68-5.14l1.37-.6,2.32,5.91c-2.23.43-7.54,2.4-8.4,3.17a31.45,31.45,0,0,1,1.54,9.09c0,10.11-3.34,17.14-13.71,17.14a21.79,21.79,0,0,1-4.72-.6,7.85,7.85,0,0,0-1.62,3.77c0,1.28,1.2,2,4.11,2.23l7.71.68c7.8.69,11.49,4.63,11.49,12.09,0,8.14-5.66,12.34-17.23,12.34C472.32,515.35,465.55,512.69,465.55,506Zm26-2.75c0-3-1.37-4.54-6.77-5.05l-7.8-.69c-1.89,1.89-3.69,3.77-3.69,6.17,0,3,2.06,4.46,8.75,4.46C488.52,508.15,491.52,506.69,491.52,503.26Zm-4-35.82c0-6.94-.68-11.31-5.83-11.31s-6.08,4.11-6.08,11.31c0,6.17.86,11,6,11S487.49,474.38,487.49,467.44Z" />
</svg>