<svg id="Camada_1" data-name="Camada 1" xmlns="http://www.w3.org/2000/svg" viewBox="0 0 595.28 595.28">
    <defs>
        <style>
        </style>
    </defs>
    <title>Hallo Merch</title>
    <rect class="cls-1" width="595.28" height="595.28" />
    <path class="cls-2"
        d="M113.6,161.18a3.13,3.13,0,0,1-6.08,0L89.29,104V357.63q0,3.17-3.23,3.17t-3.23-3.17V83a2.86,2.86,0,0,1,2.66-3.17q2.66-.39,3.42,2.38l21.65,67.47,21.27-67.47q.75-2.77,3.41-2.38A2.86,2.86,0,0,1,137.9,83V357.63q0,3.17-3.23,3.17t-3.22-3.17V104Z" />
    <path class="cls-2"
        d="M227.91,360.8h-49q-3,0-3-3.17V83q0-3.16,3-3.17h49c2,0,3,1.13,3,3.37s-1,3.38-3,3.38H182.33v70.24H203.6c2,0,3,1.13,3,3.37s-1,3.38-3,3.38H182.33V354.45h45.58c2,0,3,1.06,3,3.18S229.93,360.8,227.91,360.8Z" />
    <path class="cls-2"
        d="M272.15,360.8q-3.22,0-3.23-3.17V83q0-3.16,3-3.17h24.69A25.57,25.57,0,0,1,316,88.36a28.91,28.91,0,0,1,8,20.44v25.8a29.08,29.08,0,0,1-4,15.08,30.53,30.53,0,0,1-10.44,10.71A27.42,27.42,0,0,1,320,170.71a29.06,29.06,0,0,1,4,15.08V357.63q0,3.17-3.23,3.17t-3.22-3.17V185.79a22.28,22.28,0,0,0-6.08-15.68,19.46,19.46,0,0,0-14.81-6.54H275.38V357.63Q275.38,360.8,272.15,360.8Zm3.23-274.22v70.24h21.27a19.7,19.7,0,0,0,14.81-6.35,22,22,0,0,0,6.08-15.87V108.8a22.28,22.28,0,0,0-6.08-15.68,19.46,19.46,0,0,0-14.81-6.54Z" />
    <path class="cls-2"
        d="M409.06,352.47a25.78,25.78,0,0,1-19.37,8.33,26.42,26.42,0,0,1-19.56-8.33A27.86,27.86,0,0,1,362,332.23V108.8a28.53,28.53,0,0,1,8.16-20.44,26.17,26.17,0,0,1,19.56-8.53,25.54,25.54,0,0,1,19.37,8.53,28.88,28.88,0,0,1,8,20.44c0,2.12-1.08,3.17-3.23,3.17s-3.23-1-3.23-3.17a22.31,22.31,0,0,0-6.07-15.68,19.48,19.48,0,0,0-14.82-6.54,20.06,20.06,0,0,0-15,6.54,21.89,21.89,0,0,0-6.26,15.68V332.23a21.87,21.87,0,0,0,6.26,15.68,20.06,20.06,0,0,0,15,6.54,19.48,19.48,0,0,0,14.82-6.54,22.3,22.3,0,0,0,6.07-15.68q0-3.57,3.23-3.57t3.23,3.57A28.19,28.19,0,0,1,409.06,352.47Z" />
    <path class="cls-2"
        d="M458.24,360.8q-3.23,0-3.23-3.17V83q0-3.16,3.23-3.17T461.47,83v73.82h42.16V83c0-2.11,1.07-3.17,3.23-3.17s3.22,1.06,3.22,3.17V357.63c0,2.11-1.08,3.17-3.22,3.17s-3.23-1.06-3.23-3.17V163.57H461.47V357.63Q461.47,360.8,458.24,360.8Z" />
    <path class="cls-1"
        d="M282,401c-2.47,11.32-4.53,19.62-6,25.36a118.24,118.24,0,0,0-3.05,14.73c-.56,4-.57,6.38-.95,10.23-.87,8.64-1.73,15.69-2.34,20.36a14.26,14.26,0,0,1,5.66,6.44c1.1,2.62,2.24,7.81-.35,9.65-1.25.89-3.57,1.15-4.82,0a3.21,3.21,0,0,1-.9-2.23,12.66,12.66,0,0,1-.3,7.87,9.19,9.19,0,0,1-3.32,4.59c-.63.44-3.53,2.32-6,1.29-3.41-1.43-3.46-7.46-3.51-11.92,0-3-.09-9.3,4-14.8.3-.41.57-.74.76-1,.48-10.87,1.14-19.68,1.65-25.66,1.28-15,1.79-14.43,2.23-23.67a181.73,181.73,0,0,1,1.57-22c.73-5,1.71-8,4-11.27,5.14-7.34,14.1-9.24,17.75-9.81" />
    <path class="cls-1"
        d="M275.76,399.24q-2.89,13.25-6.28,26.36a119.27,119.27,0,0,0-2.79,13.73c-.79,5.68-1.11,11.42-1.72,17.12q-.81,7.6-1.8,15.19c-.29,2.23,1.45,4.47,3.2,5.58l.83.55c1,.66-1.2-1-.23-.17.35.32.7.63,1,1l.47.51c.85.89-.64-1-.22-.33s.65,1,.93,1.47c.09.17.37.55.36.74,0,0-.55-1.45-.29-.69a21.08,21.08,0,0,1,.74,2.58c0,.14.17.5.12.63,0-.05-.15-1.7-.11-.76,0,.47,0,.94.05,1.42,0,1.33.26-1.66,0-.11-.15.86.22-.81.36-.78l-.28.46.67-.9c-.33.3-.25.24.23-.17,1.1-.88-.61.14.64-.41,1-.42.26-.16,0-.08-.71.2,1.61,0,.56-.13.18,0,1.54.37.74.06a4.94,4.94,0,0,1,1.75,1l.55.72c.36,1,.48,1.25.35.78-.18-.76.15,1.79.1.84L263,487.18c.13.5.2,1,.32,1.51-.43-1.76-.13-1.26-.11-.75s.05.74.05,1.1a6.4,6.4,0,0,0-.06,1.21c-.32-.36.3-1.36,0-.44-.13.45-.21.9-.36,1.34-.21.61-.94,1.78.12-.19-.23.43-.42.89-.69,1.31l-.18.27c-.38.53-.25.37.38-.49a3.72,3.72,0,0,0-.52.54c-.88.91.82-.47.27-.18a4.8,4.8,0,0,0-.48.3l-.45.25c-1.4.74,1.23-.31.11,0l-.84.23c-.8.22,1.74-.05.48-.12l1,.15c-.69-.2-.49-.09.6.32-.17-.14-1-.69,0,.08s.3.14.1,0c1.12.92.79,1.12.4.42-.12-.22-.52-1.12,0,0s0-.12-.06-.38c-.14-.52-.23-1.05-.33-1.59-.24-1.27.15,1.69.06.38,0-.35-.07-.69-.09-1-.08-1.24-.1-2.49-.11-3.74,0-.9,0-1.8,0-2.71,0-.49,0-1,.08-1.46,0-.32.08-.63.1-.95-.12,2.13-.11.78,0,.22a27.23,27.23,0,0,1,1-3.74c.44-1.33-.69,1.35,0,.07.16-.3.3-.61.47-.92s.34-.61.52-.91.94-1.09,1-1.45c-.08.78-.88,1-.4.53a6.88,6.88,0,0,0,1.82-3,16.6,16.6,0,0,0,.32-3.67c.09-1.86.19-3.72.29-5.58.17-3,.36-6,.57-9.05.61-8.66,1.57-17.27,2.45-25.91.36-3.53.5-7.08.61-10.63.07-2.55.16-5.1.33-7.65.09-1.36.2-2.73.33-4.09.09-.89.18-1.77.29-2.66,0-.3.07-.61.11-.92s.07-.62.12-.93c-.13.92-.14,1,0,.28.25-1.65.51-3.29.92-4.9.21-.8.47-1.57.74-2.35.15-.45.53-.9-.28.6.21-.39.37-.81.58-1.2.32-.61.67-1.2,1-1.77a5.24,5.24,0,0,0,.63-.9c-.6.75-.74.94-.44.56l.36-.43a19,19,0,0,1,1.65-1.71c.21-.2.44-.4.66-.59,1.33-1.12-.84.57.07-.06a27.14,27.14,0,0,1,3.44-2.05l.86-.41c1.08-.51-1.43.56-.4.17.64-.25,1.28-.49,1.93-.7a35.27,35.27,0,0,1,5.53-1.31,6.45,6.45,0,0,0,3.87-3,6.59,6.59,0,0,0,.65-5,6.52,6.52,0,0,0-3-3.87,7.53,7.53,0,0,0-5-.65c-6.88,1.08-13.84,4.08-18.71,9.17A27.25,27.25,0,0,0,261,393.92a84.31,84.31,0,0,0-2.09,14.85c-.5,6.25-.42,12.52-.95,18.77-.45,5.26-1.19,10.51-1.66,15.77q-1.27,14.08-1.88,28.22l1.9-4.57a26.54,26.54,0,0,0-6.22,13.49,51.59,51.59,0,0,0-.33,11.25c.37,4.9,1.65,10.76,6.57,13.1,6.05,2.88,12.73-.15,16.51-5.18,3.33-4.42,4-10.63,2.59-15.88a6.46,6.46,0,0,0-7.1-4.63c-3,.4-5.8,3.13-5.61,6.35a9.69,9.69,0,0,0,4.35,8,10.74,10.74,0,0,0,8,1.15c5.05-1.06,7.78-5.8,7.9-10.65.19-7.32-4-14.09-10.08-17.93l3.2,5.59q.84-6.5,1.56-13c.58-5.18.91-10.39,1.48-15.57,0-.29.07-.58.1-.87.1-1-.25,1.68,0,.08.1-.63.19-1.25.29-1.87.22-1.42.48-2.83.76-4.23q.62-3,1.4-6.06c.88-3.47,1.78-6.93,2.63-10.41q2.07-8.49,3.93-17c.72-3.3-1-7.15-4.52-8-3.27-.74-7.18,1-8,4.52Z" />
    <path class="cls-1" d="M282,411.21c.07-3.51.07-6.93,0-10.25" />
    <path class="cls-1"
        d="M288.45,411.21c.07-3.42.07-6.83,0-10.25a6.68,6.68,0,0,0-1.89-4.57A6.48,6.48,0,0,0,275.53,401c.05,3.42.05,6.83,0,10.25a6.47,6.47,0,0,0,6.47,6.47,6.55,6.55,0,0,0,4.57-1.9,6.83,6.83,0,0,0,1.9-4.57Z" />
    <path class="cls-1"
        d="M307.39,379.55q.39-5.73.76-11.45c4.11-.76,10.05-2,17.05-4,20.29-5.82,37.59-11,52.36-25.2,18-17.32,26.44-43.94,23-68.92-.19-1.4-.44-2.83-.44-2.83A79.9,79.9,0,0,0,390,240q8.16-51.79,16.33-103.6l-63.45,65.35A146,146,0,0,0,260.7,205l-75.54-69q14.64,54.42,29.26,108.83a76.29,76.29,0,0,0-9.23,27c-3.94,28.13,9.63,50.15,14,56.6,1.15,1.69,2.12,3,2.8,3.91,16.85,22.34,40.05,30.32,50.45,33a90.43,90.43,0,0,0,14.48,2.5q.6,5.67,1.18,11.34" />
    <path class="cls-1"
        d="M313.86,379.55q.39-5.73.76-11.45l-4.75,6.23A187.24,187.24,0,0,0,328.14,370c6.11-1.76,12.22-3.54,18.21-5.66,12.18-4.31,23.63-10.06,33.38-18.65,19.19-16.91,29.21-43.32,27.94-68.68a87.82,87.82,0,0,0-12.05-40.24l.65,5L409,160.83q1.8-11.34,3.58-22.69c.44-2.77-.26-5.87-3-7.31a6.63,6.63,0,0,0-7.84,1l-49.41,50.88-14.05,14.46,6.3-1.66a154.19,154.19,0,0,0-71-.86A150.61,150.61,0,0,0,259,198.75l6.3,1.67-59-53.85-16.58-15.15c-2.06-1.87-5.37-2.6-7.84-1a6.67,6.67,0,0,0-3,7.31q11.4,42.38,22.79,84.75,3.24,12,6.47,24.08l.66-5A83.2,83.2,0,0,0,198,281.4a89,89,0,0,0,8.63,37.86,93.43,93.43,0,0,0,16,23.93A95.4,95.4,0,0,0,252.62,365a102.09,102.09,0,0,0,29.53,8.78c1.59.21,3.18.41,4.78.55l-6.47-6.47q.6,5.67,1.18,11.34a7,7,0,0,0,1.9,4.58,6.58,6.58,0,0,0,4.57,1.89c3.21-.14,6.85-2.86,6.47-6.47q-.58-5.67-1.18-11.34a6.7,6.7,0,0,0-6.47-6.47c-.95-.09-1.91-.19-2.86-.3a5.36,5.36,0,0,1-.7-.09c.07,0,1.72.24.63.08-.65-.1-1.29-.19-1.93-.3-2.65-.43-5.29-1-7.9-1.66q-3.48-.9-6.88-2.06c-1.38-.47-2.76-1-4.12-1.51l-1.12-.45c-.5-.2-2-.85.14.07-.79-.34-1.58-.68-2.36-1a96,96,0,0,1-10.08-5.33q-2.61-1.59-5.1-3.34c-.84-.59-1.67-1.2-2.49-1.82s.36.28.43.34l-.59-.46c-.49-.39-1-.78-1.46-1.18a86.55,86.55,0,0,1-10.22-10c-.78-.9-1.55-1.82-2.29-2.75l-.53-.67c-.59-.74,1,1.28.09.11l-.91-1.22q-1.37-1.86-2.62-3.78c-1.3-2-2.51-4-3.63-6.08q-1.12-2.07-2.14-4.2c-.35-.73-.69-1.48-1-2.22-.18-.41-.39-.82-.54-1.24,0,0,.67,1.63.3.7-.12-.29-.24-.57-.35-.86A84.4,84.4,0,0,1,213,298.81q-.81-3.27-1.35-6.62c0-.31-.33-2.25-.16-1.07s0,.15,0-.12-.08-.65-.11-1c-.13-1.21-.24-2.42-.31-3.63a73.31,73.31,0,0,1-.06-7.56c0-1.16.12-2.32.23-3.48.06-.67.13-1.33.21-2,0-.43.27-1.5,0,.16,0-.2,0-.41.08-.61A74.3,74.3,0,0,1,214,262.08c.71-2.31,1.68-4.52,2.45-6.8-.57,1.69,0,0,.21-.47.28-.62.56-1.23.85-1.85.65-1.35,1.33-2.69,2.05-4a8.45,8.45,0,0,0,1.36-4.13,12.28,12.28,0,0,0-.62-3.17L219,237.09l-2.33-8.67-4.59-17.09-18.45-68.62-2.27-8.43-10.81,6.29,59,53.85,16.58,15.15a6.48,6.48,0,0,0,6.29,1.66c3.94-1.31,7.92-2.47,11.95-3.45,2.3-.57,4.62-1.07,6.94-1.52,1.24-.24,2.48-.47,3.72-.67a30.89,30.89,0,0,0,4.08-.62c-.12,0-1.61.2-.47.06l.85-.11,2.14-.25c1.47-.16,2.94-.29,4.42-.41q4.4-.34,8.81-.41a146.73,146.73,0,0,1,17.78.78c1.27.14,2.56.4,3.84.46-2.06-.09.29,0,.76.12l2,.32c2.39.39,4.78.85,7.16,1.36,1.1.24,2.2.49,3.29.75.5.12,1,.26,1.49.37a7,7,0,0,0,6.82-2.2q3.28-3.39,6.58-6.79l26.53-27.31L410.94,141l-10.82-6.3-10.26,65.12q-2.57,16.29-5.14,32.56l-.62,4c-.1.66-.21,1.31-.31,2a7.59,7.59,0,0,0,.95,5.49q1.31,2.24,2.47,4.56c.39.77.76,1.55,1.13,2.33.2.44.4.88.59,1.32l.3.67c.55,1.26-.59-1.45-.08-.16.81,2.05,1.58,4.1,2.24,6.2.72,2.29,1.34,4.62,1.85,7q.35,1.6.63,3.24c.06.34.11.68.17,1s.09.56.13.84.24,1.63.07.45.07.66.1.89c.05.46.09.91.14,1.37.11,1.17.19,2.34.25,3.51q.16,3.24.07,6.47t-.44,6.46c-.05.52-.11,1-.17,1.55s-.28,1.15.07-.55c-.05.25-.07.52-.11.78-.16,1.09-.35,2.19-.55,3.28a83.87,83.87,0,0,1-3.37,12.45c-.35,1-.71,2-1.1,2.92-.08.21-.78,1.91-.34.85.37-.89.1-.24,0,0-.16.35-.31.71-.47,1.07q-1.32,2.92-2.88,5.74t-3.33,5.47q-.86,1.29-1.77,2.55c-.3.42-.61.83-.92,1.24s-.72.56.3-.39a8.82,8.82,0,0,0-.61.76,71.52,71.52,0,0,1-9,9.33q-1.22,1.05-2.46,2c-1.24,1,1-.76-.24.19-.47.35-.94.7-1.42,1q-2.58,1.85-5.31,3.48a98.33,98.33,0,0,1-11.22,5.68c-.77.33,1.26-.53.49-.21l-.71.29-1.43.58c-1,.4-2.05.79-3.08,1.17-2,.75-4.08,1.45-6.13,2.12a266.07,266.07,0,0,1-26.83,7.48q-2.67.57-5.36,1.07c-2.9.53-4.57,3.56-4.75,6.24q-.37,5.72-.76,11.45c-.22,3.39,3.14,6.62,6.47,6.47a6.61,6.61,0,0,0,6.47-6.47Z" />
    <path class="cls-1"
        d="M282,406.76c-.13,21.05,0,29.43.12,32.85,0,.42.12,2.48.2,5.27s.14,5.89.15,7.94c0,3.14,0,5.19,0,7.95-.07,11.21,0,22.29.05,33.47-1.17,14-1.79,27.75-1.65,41.87.1,9.44,1.22,19,1.43,28.66-3.1,2.9-22.14,11.62-17.67,17.23,5,6.24,24.9-3.8,31.53-5.85.07-5.4-.72-13.45-1-18.21a313.11,313.11,0,0,1-.13-41.19c.39-5.53-.14-26.95,5.53-27s6.16,19.68,8.34,28.78c.77,3.25,3.62,27.78,3.69,36.89,0,1.4,1,16.5,1.35,19.51a32.57,32.57,0,0,0,11,4.26c6.12.88,18.2,6.86,21.62-.59,2.21-4.81-17.59-14-21.94-15.51.07-9-.14-18.49-.72-28.39a434.46,434.46,0,0,0-5.15-45.89q-1.33-43.46-2.66-86.92c2.63,7.66,5.13,16,7.32,24.89a287.53,287.53,0,0,1,7.35,45.07c-2.52,2-4.16,3.39-5.5,6.69-1,2.46-2.21,7.2.47,9.42,1.37,1.14,3.25.73,4.68,0a2.71,2.71,0,0,0,.8-.78c-.18,4.35-.43,7.91,3.84,11,.86.62,3.61,2.4,5.85.92,3.11-2.05,3.31-8.08,3.11-11.82-.27-5.25-.71-10.31-3.9-14.62-.71-.95-1.47-1.6-2.2-2.48.47.4,1,1.21,1.43,1.35-.19-6.11-1.43-20.18-1.91-24.65-1.19-11.24-2.14-14.38-3-25-.42-5.4-1-15.06-2.16-21.49-.65-3.65-1.77-8.26-4.26-11-3.18-3.57-7.44-5.27-11.4-6.86-1.3-.53-2.7-1-2.7-1l-6.54-1.88" />
    <path class="cls-1"
        d="M275.56,406.76c-.05,8.71-.11,17.42,0,26.14.06,5.53.35,11.06.45,16.6.21,11.79,0,23.6,0,35.39,0,3.11.15,6.25,0,9.35s-.51,6.34-.71,9.5q-.62,9.33-.84,18.68c-.17,7-.22,14,.14,20.92.37,7.14,1,14.27,1.19,21.43l1.89-4.58c-.08.08-.17.14-.24.22-.55.54,1.6-1.18.84-.65l-.86.59c-.76.51-1.54,1-2.33,1.47-1.89,1.16-3.79,2.31-5.65,3.52-4.5,2.95-9.56,6.4-11.46,11.69-2.23,6.2,2.76,12.24,8.84,13.14,5.71.84,11.41-.62,16.8-2.45,4.79-1.62,9.39-3.81,14.22-5.33a6.65,6.65,0,0,0,4.75-6.24c.05-5.5-.51-11-.89-16.49-.47-6.71-.73-13.45-.83-20.18-.14-10.18.47-20.32.86-30.49.08-1.91.17-3.82.33-5.73.08-1,.17-2,.29-3l.06-.54c.14-1.14-.26,1.79-.09.67.08-.51.16-1,.25-1.53.14-.78.3-1.56.5-2.33.1-.39.21-.77.34-1.15,0-.16.11-.32.16-.49.4-1.18-.59,1.24-.33.74.15-.28.29-.57.44-.86.05-.09.13-.18.17-.27.38-.77-1.26,1.38-.64.82s.89-.5-.71.45c1.11-.66-1.66.56-.76.29a4.22,4.22,0,0,1-2.54,0c1.26.31-1.56-.85-.73-.36s-1.56-1.4-.58-.43c.08.07.14.16.21.23.63.56-1.1-1.67-.51-.63.16.28.33.54.47.83l.17.36c.46.88-.65-1.72-.31-.76s.58,1.66.81,2.52a99.22,99.22,0,0,1,2.25,12.6c.49,3.53,1.12,7,1.77,10.52.21,1.13.36,2.26.52,3.4.19,1.39-.24-1.85-.06-.43l.15,1.17c.14,1,.26,2.07.39,3.11,1,8.3,1.93,16.65,2.27,25,.26,6.41.67,12.81,1.18,19.2l.15,1.82c0,.25,0,.5.08.75a7.24,7.24,0,0,0,3.86,6,42.18,42.18,0,0,0,9,3.88c2,.61,4.19.85,6.26,1.4s4,1.14,6.05,1.61c5.44,1.24,11.42,1.74,16.1-1.87a10.74,10.74,0,0,0,4.43-8.13,10.94,10.94,0,0,0-3-7c-2.52-3-6.13-5.19-9.49-7.13a96.13,96.13,0,0,0-9.88-5c-1.48-.65-3-1.31-4.49-1.84l4.75,6.24a446.17,446.17,0,0,0-4.1-62.73q-.48-3.48-1-6.94c-.17-1.14-.34-2.27-.52-3.4-.09-.56-.18-1.12-.28-1.68a7.94,7.94,0,0,1-.13-.83l.14.8,0-.75-.5-16.23-1-32.72-1.12-36.72-12.71,1.72q4.61,13.45,7.9,27.29,1.71,7.22,3.05,14.51.61,3.36,1.15,6.74c.17,1.1.34,2.2.5,3.3.07.51.15,1,.22,1.52l.12.87c.12.88,0-.1-.06-.43.6,4.8,1.16,9.61,1.56,14.44l1.9-4.58a21.86,21.86,0,0,0-5.85,6.56,23,23,0,0,0-2.67,9.19,11.57,11.57,0,0,0,4.79,10.53,10.73,10.73,0,0,0,13.33-1.85l-11-4.57c-.17,4.19-.05,8.65,2.54,12.17,3.25,4.43,8.8,7.92,14.48,6.36s7.9-7.58,8.56-12.92a43.5,43.5,0,0,0-.3-11,32.31,32.31,0,0,0-2.44-9.17c-1.21-2.74-3.18-4.83-5.09-7.07l-9.15,9.15a12.19,12.19,0,0,0,2.73,2.37c4.17,2.24,9.91-.51,9.74-5.59a368.46,368.46,0,0,0-3.74-38.95l-.15-1.08c0-.21-.06-.41-.08-.62s.21,1.64.12.93c-.11-.86-.22-1.73-.32-2.6-.22-1.84-.4-3.68-.56-5.52-.31-3.59-.54-7.18-.84-10.77-.36-4.3-.81-8.61-1.48-12.88a35.65,35.65,0,0,0-3.6-11.71c-2.5-4.6-7-7.82-11.72-9.93a105.11,105.11,0,0,0-14.32-5,6.47,6.47,0,0,0-3.44,12.48c2.19.63,4.39,1.21,6.56,1.89.69.21,1.36.46,2,.72l1.35.54.53.21c.94.39.17.09-.3-.13a40.69,40.69,0,0,1,5.05,2.58,11.16,11.16,0,0,0,1.15.79s-1-.86-.52-.39c.15.14.32.26.47.4a15.88,15.88,0,0,1,1.18,1.14c.14.15.26.31.4.45.5.47-.9-1.36-.25-.32.42.69.8,1.38,1.16,2.11s-.48-1.28-.2-.49c.06.18.14.36.2.54.18.49.34,1,.48,1.48a42.51,42.51,0,0,1,1.18,5.23c.06.4.13.8.19,1.2s.24,1.73.09.59,0,.32.08.63l.18,1.54c.21,1.91.39,3.83.56,5.74.63,7.35,1.12,14.68,2.11,22,.2,1.52.42,3,.63,4.56.06.39.11.78.16,1.16.16,1.12-.2-1.57,0-.14.12,1,.25,1.94.36,2.9.35,2.86.64,5.73.9,8.6.62,6.69,1.25,13.41,1.47,20.13l9.74-5.59c.35.19,1.26,1.14.48.3-.2-.22-.39-.43-.6-.64-2.44-2.35-6.76-2.6-9.15,0a6.63,6.63,0,0,0,0,9.15c.35.42.73.82,1.11,1.22l.55.6c.43.52.36.43-.22-.29.17,0,.8,1.26.89,1.43s.27.49.39.74q.43.94-.15-.42c-.08.26.45,1.25.54,1.54.16.52.3,1,.42,1.57s.21,1.07.32,1.61c.11.71.09.54-.05-.5l.09.83a56.76,56.76,0,0,1,.36,6c0,.87,0,1.75-.09,2.61-.05.64-.5,1.94,0-.05-.11.42-.15.87-.25,1.3s-.24.82-.36,1.23c-.31,1.05.82-1.56,0-.16s.9-.82.18-.16c-1.17,1.08,1.35-.76.14-.11a3.24,3.24,0,0,1,1.87-.51c-.7,0-.47,0,.68.15a4.88,4.88,0,0,1-.66-.16c-.64-.23-.43-.13.63.29-.3-.21-.67-.34-1-.54l-.36-.24c-.37-.26-.2-.13.51.41,0-.17-.93-.88-1.09-1-.43-.51-.31-.34.38.52a6.37,6.37,0,0,1-.35-.55c-.83-1.41.29,1.14,0,.15-.11-.4-.21-.78-.31-1.18-.26-1.07.16,1.87,0,.19,0-.42,0-.85,0-1.28,0-.9.05-1.81.08-2.71a6.46,6.46,0,0,0-4-5.92c-2.18-.91-5.47-.65-7.07,1.34-.78,1,1.28-.62.19-.06l.89-.38a6,6,0,0,1-.69.2s1.79-.05.67-.11l1,.15c-.65-.19-.46-.11.57.25l.77.58c-.32-.36-.29-.29.11.19.74.95.17.07,0-.11.75,1,.53,1.26.27.4-.31-1.05,0,1.59.09.48,0-.32,0-.65,0-1,0-1.21-.3,1.4-.1.59.14-.56.22-1.13.38-1.69s.28-.91.44-1.35c.36-1,.18.17-.14.32.17-.08.42-.85.51-1,.18-.31.38-.59.56-.89.51-.85-.34.46-.42.52.49-.38.88-1,1.34-1.41,2-1.85,4.1-3.23,4.06-6.41a89.54,89.54,0,0,0-.87-8.94A300.75,300.75,0,0,0,328.86,422q-2.83-11-6.54-21.8a6.52,6.52,0,0,0-7.1-4.63,6.43,6.43,0,0,0-5.61,6.35l2,65.44.5,16.24.11,3.74a43,43,0,0,0,.62,5.31q.56,3.4,1.05,6.82c.17,1.16.33,2.32.49,3.48.05.37.22,1.24-.05-.4,0,.29.07.59.11.88.09.67.18,1.33.26,2,.32,2.48.61,5,.88,7.45q.84,7.64,1.4,15.28,1.29,17.45,1.16,35a6.66,6.66,0,0,0,4.75,6.24c.47.16.94.35,1.4.53,1.43.58-1.6-.69-.37-.16l1.14.5q2.64,1.18,5.2,2.51c1.89,1,3.76,2,5.57,3.12.83.51,1.65,1,2.45,1.6l1,.73c.86.62-1.35-1.1-.56-.42.2.17.41.33.61.51a17.93,17.93,0,0,1,1.52,1.5c.47.5.23.83-.57-.76.07.14.2.27.28.41s.14.27.22.4c.45.67-.68-1.82-.44-1,.39,1.26-.08-1.92-.1-.86.06-2.63.31-1.89.18-1.37s-.42.2.41-.95a8,8,0,0,0-.41.7c-.56.94,1.1-1.3.38-.52-.09.09-.31.24-.36.34,1-.75,1.25-.94.74-.58-.13.09-.27.17-.41.25-.7.46-.73-.16.67-.25a4.11,4.11,0,0,0-.46.15l-.73.18c-1.08.26,1.82-.15.7-.09a23.12,23.12,0,0,1-3.33-.1c2.4.2.53.06,0,0s-1.2-.24-1.79-.38c-1.14-.27-2.26-.57-3.38-.88-2.27-.63-4.51-1.12-6.8-1.59-.75-.16-1.48-.36-2.21-.58-.36-.12-2.46-1.12-2.69-1,.26-.16,1.35.59.21.07-.43-.2-.87-.4-1.3-.62-.82-.41-1.62-.86-2.41-1.33l3.21,5.59c-1-9.32-1.08-18.68-1.8-28a319,319,0,0,0-4-32.63c-1.11-6.11-1.56-12.34-3-18.4a22.35,22.35,0,0,0-3.13-8c-2.35-3.26-6.25-5.61-10.4-4.23-6.94,2.31-8,10.65-8.69,16.88-.58,5.11-.57,10.25-.81,15.39-.44,9.23-.8,18.4-.56,27.64.24,9,1,17.9,1.49,26.87.1,1.91.16,3.82.15,5.73l4.75-6.24c-5.22,1.64-10.17,4-15.38,5.72-1.46.47-2.93.9-4.42,1.27-.73.17-1.46.33-2.19.47l-.93.15c-.75.14,1.69-.2.94-.12l-.63.07c-.64,0-1.28.09-1.93.08l-.78,0c-1.14,0,1.87.37.56.08-.43-.1-2-.66-.71-.13s.33.09.05-.05c-.92-.45,1.38,1.26.54.41s.68,1.08.51.71-.56-1.15,0,.16a3.24,3.24,0,0,1,.27,1.9c-.19,1.41,0,.53.05.18.21-.94-.81,1.59-.37.86.13-.2.23-.42.37-.62s.14-.21.21-.32c.46-.73-1.06,1.28-.59.76a24.29,24.29,0,0,1,2.51-2.46l.79-.64c-1.76,1.46-.71.54-.28.23s1.16-.84,1.74-1.24c2.28-1.55,4.65-3,7-4.41,3.27-2,7-4,7-8.41.06-5.11-.49-10.27-.82-15.37s-.59-10.32-.61-15.5c0-10.22.32-20.44,1-30.64.17-2.6.37-5.2.58-7.79s.06-5.26.05-7.87q0-7.74-.05-15.49c0-9.23.16-18.46-.13-27.7-.32-10-.38-20-.34-30,0-2.46,0-4.91,0-7.37a6.53,6.53,0,0,0-6.47-6.47,6.59,6.59,0,0,0-6.47,6.47Z" />
    <path class="cls-1" d="M281.77,406.21c.07-3.33.07-6.57,0-9.72" />
    <path class="cls-2"
        d="M284.13,406.21q.09-4.86,0-9.72a2.36,2.36,0,1,0-4.72,0q.07,4.86,0,9.72a2.38,2.38,0,0,0,2.36,2.36,2.41,2.41,0,0,0,2.36-2.36Z" />
    <path class="cls-2"
        d="M279.52,395.86q-2.68,12.58-5.83,25.06a119.78,119.78,0,0,0-2.57,13c-.68,5-.91,10-1.44,15.06s-1.07,9.73-1.68,14.58a2.31,2.31,0,0,0,1.17,2,11.69,11.69,0,0,1,5,7.48,9.43,9.43,0,0,1,.2,2.25,2.58,2.58,0,0,1-.4,1.55,2,2,0,0,1-1.1.33c-.52-.06-.51-.31-.52-.52l-4.64.62c1,3.74.05,8.5-3.83,10.06a3.29,3.29,0,0,1-1.38.29c-.13,0-.72-.23-.58-.13a3.62,3.62,0,0,1-1.11-2.07,26.61,26.61,0,0,1-.58-6.72c-.05-4.67.51-9.32,3.4-13.18a3.7,3.7,0,0,0,1-2.1c.08-.79.07-1.61.11-2.41.08-1.69.17-3.37.26-5.05q.23-4.28.53-8.54c.56-8.15,1.45-16.25,2.25-24.38.85-8.71.55-17.47,1.74-26.16a27,27,0,0,1,2-8,17.45,17.45,0,0,1,4.94-6.2,25.25,25.25,0,0,1,11.59-4.63,2.37,2.37,0,0,0,1.65-2.9,2.41,2.41,0,0,0-2.9-1.64c-5.91,1-11.88,3.46-15.94,8-5.57,6.19-6.2,14.64-6.81,22.58-.45,5.89-.37,11.8-.87,17.68-.42,5-1.1,10-1.54,15q-1.17,13.32-1.72,26.69l.69-1.66c-4.93,6-5.63,13.71-5,21.19.29,3.33,1.08,7.43,4.53,8.89s7.75-.69,9.92-3.52a14.48,14.48,0,0,0,2.14-12.3c-.65-2.53-4.79-2.08-4.63.63a5.34,5.34,0,0,0,6.7,5.07c3.15-.67,4.67-3.4,4.76-6.43a16.18,16.18,0,0,0-7.53-13.8l1.17,2q.78-6.17,1.44-12.36c.53-4.88.84-9.78,1.36-14.66.84-7.92,3.09-15.57,4.92-23.29q1.92-8,3.63-16.13c.63-3-3.92-4.22-4.55-1.25Z" />
    <path class="cls-2"
        d="M307.64,376.17c.23-3.62.46-7.25.7-10.87l-1.74,2.27A216.64,216.64,0,0,0,340.48,358c10.82-3.94,21-9.23,29.58-17.07,17.05-15.68,25.55-39.56,24.32-62.48a80.58,80.58,0,0,0-10.63-35.91l.24,1.82q8.33-38.31,16.67-76.62Q403,157,405.33,146.29a2.38,2.38,0,0,0-3.94-2.29l-49.8,49.45-14.13,14,2.29-.61a119,119,0,0,0-65-2.67,116.32,116.32,0,0,0-13.29,4.05l2.3.6-54.59-51.14-15.28-14.33a2.39,2.39,0,0,0-3.95,2.3q10.58,40.29,21.13,80.59L217,249l.24-1.81a76.34,76.34,0,0,0-9.52,36,81.79,81.79,0,0,0,7.49,33.92,85.77,85.77,0,0,0,41.2,42,88.72,88.72,0,0,0,29.93,8.36L284,365l1.1,10.76a2.42,2.42,0,0,0,2.35,2.36,2.37,2.37,0,0,0,2.36-2.36L288.71,365a2.45,2.45,0,0,0-2.36-2.36,83.26,83.26,0,0,1-36.41-12.58,80.53,80.53,0,0,1-28.42-30.82c-7.27-13.9-10.72-30.1-8.36-45.73a72.35,72.35,0,0,1,2.37-10.39,87.8,87.8,0,0,1,5.67-13.41c.75-1.51.13-2.93-.27-4.45l-1.08-4.11-2.09-8-4.23-16.17-16.95-64.66-2.09-8-3.94,2.3,54.59,51.15,15.28,14.32a2.34,2.34,0,0,0,2.3.6,114.53,114.53,0,0,1,60.53-5.31,117.7,117.7,0,0,1,15.25,3.94,2.34,2.34,0,0,0,2.29-.61l49.81-49.45,14.12-14L400.78,145q-6.63,30.51-13.27,61-3.31,15.24-6.64,30.5l-.79,3.66c-.27,1.22-1,3-.64,4.18a11.3,11.3,0,0,0,1.17,2.23c.41.74.8,1.49,1.18,2.24a74,74,0,0,1,4.34,10.55,78.18,78.18,0,0,1-.39,48.33A69.69,69.69,0,0,1,357.09,345a101.29,101.29,0,0,1-21.56,9.8A242.61,242.61,0,0,1,310.35,362c-1.66.36-3.33.7-5,1a2.39,2.39,0,0,0-1.73,2.28c-.23,3.62-.47,7.25-.7,10.87-.2,3,4.52,3,4.72,0Z" />
    <path class="cls-2"
        d="M279.46,402c0,8.25-.1,16.5,0,24.75.05,5.21.32,10.41.41,15.62.2,11.23,0,22.48,0,33.71,0,3,.16,6,0,8.94s-.47,6.05-.66,9.07q-.57,8.91-.78,17.84c-.15,6.68-.19,13.37.16,20s.93,13.3,1.08,20l.69-1.67c-.14.13-.79.63-.19.19l-.79.56c-.73.5-1.49,1-2.24,1.45-1.79,1.12-3.58,2.23-5.33,3.41-3.25,2.19-7.47,4.92-8.8,8.84-1.45,4.28,2.4,7.29,6.25,7.75,4.41.53,9.08-1,13.2-2.44,4.39-1.53,8.59-3.59,13-5a2.42,2.42,0,0,0,1.73-2.27c.05-5.15-.45-10.29-.8-15.42-.43-6.25-.68-12.53-.78-18.8-.15-9.68.43-19.33.77-29,.07-1.81.15-3.62.28-5.43s.31-3.71.57-5.29a27,27,0,0,1,1.09-4.43c.2-.59-.15.29,0-.05.06-.13.12-.27.19-.4s.27-.47.41-.7-.05.07-.09.12a4.12,4.12,0,0,1,.28-.31c.13-.13.17-.29-.17.12l.21-.13c.17-.08.15-.07-.06,0,0,.09-.27.12.06,0-.49.17-.48.05-.26.05.5,0-.58-.12-.1,0l.25.08c.05-.4-.61,0-.09,0,.09,0,.4.44-.15-.11l.27.26c.41.41-.17-.31.09.1a10.65,10.65,0,0,1,1.48,3.58,88.54,88.54,0,0,1,2.13,12c.47,3.4,1,6.76,1.65,10.13.2,1,.33,2.07.47,3.1-.07-.54.07.48.09.64,0,.34.09.69.13,1l.33,2.68c.93,7.92,1.79,15.89,2.15,23.86.27,6,.61,12.07,1.07,18.1.09,1.22-.05,3.15.57,4.22s2.56,1.86,3.72,2.43a37.34,37.34,0,0,0,4.29,1.79c2,.69,4.11.94,6.16,1.48,1.9.51,3.77,1.09,5.67,1.56,3.75.92,8.43,1.74,11.81-.69a6.87,6.87,0,0,0,3-4.86,6.15,6.15,0,0,0-1.62-4c-2-2.56-5-4.43-7.81-6.1a87,87,0,0,0-9.39-4.88c-1.1-.5-2.21-1-3.35-1.4l1.73,2.28A422.77,422.77,0,0,0,319.92,492q-.45-3.45-1-6.9a57.46,57.46,0,0,1-.87-6.51l-.46-15.4-.92-31.06-1-34.78L311,398a277.9,277.9,0,0,1,12.06,52.17q.87,6.78,1.42,13.58l.7-1.66a16.38,16.38,0,0,0-6.82,12.24c-.2,2.51.51,5.23,2.64,6.75a6.1,6.1,0,0,0,7.93-1.16l-4-1.67c-.13,3.27-.21,6.74,1.77,9.54s5.77,5.46,9.34,4.41,4.81-4.94,5.24-8.18a41.52,41.52,0,0,0-.2-10.74,25.13,25.13,0,0,0-1.63-6.56,24.18,24.18,0,0,0-4.3-6.3l-3.33,3.33a8.3,8.3,0,0,0,1.8,1.65,2.38,2.38,0,0,0,3.55-2,348.68,348.68,0,0,0-3.31-35.79c-.88-6.46-1.29-13-1.83-19.57-.3-3.75-.66-7.5-1.22-11.23a32,32,0,0,0-3-10.47c-2-3.82-5.84-6.36-9.68-8.12a89.66,89.66,0,0,0-12.24-4.29c-2.91-.86-4.16,3.69-1.25,4.55a86,86,0,0,1,10.24,3.42c3,1.33,6.43,3,8.3,5.86s2.43,6.24,2.95,9.44c.55,3.4.85,6.83,1.14,10.26.54,6.52.92,13.05,1.79,19.54.76,5.75,1.51,11.5,2,17.28.57,6.36,1.16,12.74,1.36,19.12l3.55-2c.24.13-.22-.24-.28-.31s-.37-.41-.57-.6c-2.19-2.18-5.25,1-3.33,3.33a18.05,18.05,0,0,1,3.39,5,21.62,21.62,0,0,1,1.29,5.78c.34,3.3.67,6.91-.1,10.18a7.94,7.94,0,0,1-.6,1.76c-.27.54-.59,1.11-1.07,1.23-1,.25-2.17-.63-2.86-1.2-2.61-2.13-2.35-5.17-2.22-8.24.08-1.89-2.75-3.3-4-1.66-.4.51-1.27,1-1.91.65s-.64-1.46-.64-2.09a12,12,0,0,1,1.74-5.9,10.36,10.36,0,0,1,1.89-2.24c1.09-1,2.54-1.77,2.52-3.45-.05-2.76-.5-5.58-.8-8.32a285.83,285.83,0,0,0-6.77-37.74Q319,407,315.58,396.74c-.81-2.42-4.71-2.15-4.63.63l1.85,61.86.46,15.4a59,59,0,0,0,.5,7.52q.53,3.28,1,6.58,2,14.11,3,28.35,1.19,16.6,1.08,33.26a2.42,2.42,0,0,0,1.73,2.27c.45.16.89.34,1.33.53s-.54-.24,0,0l.43.19,1,.46c1.58.73,3.15,1.5,4.69,2.31,1.72.91,3.42,1.86,5.07,2.89a34.46,34.46,0,0,1,4.07,2.9,20.22,20.22,0,0,1,1.54,1.53c.1.1.34.45,0,0a4.15,4.15,0,0,1,.24.34,4,4,0,0,0,.2.35c.25.37.16.09,0,0a1.09,1.09,0,0,1,.11.39c.09-.47,0-.46,0-.19s.14,0,0-.21c.06.14-.2.29,0,.14-.24.21-.73,1.07-1.12,1.31-1.24.78-2.88.79-4.73.55a41.06,41.06,0,0,1-5.83-1.36c-2.06-.58-4.1-1.09-6.2-1.5a27.16,27.16,0,0,1-8.88-3.69l1.17,2c-.9-8.78-1-17.61-1.65-26.4A302.52,302.52,0,0,0,308.47,505c-1-5.85-1.44-11.81-2.78-17.6-.84-3.65-3.12-10.84-8.34-8.68-2,.82-3,2.84-3.65,4.77a35.27,35.27,0,0,0-1.42,7.56c-.52,4.86-.5,9.74-.74,14.61-.43,8.82-.73,17.6-.5,26.43.22,8.4.94,16.75,1.36,25.14.1,1.83.16,3.66.14,5.5l1.73-2.28c-4.85,1.56-9.44,3.85-14.29,5.45-1.4.46-2.81.88-4.24,1.23a25.57,25.57,0,0,1-3.45.63,17.65,17.65,0,0,1-1.78.07l-.77-.05s-.39,0-.11,0-.23,0-.29-.06c-.23-.05-.45-.12-.67-.18-.55-.13.12.11-.22-.07s-.42-.23-.62-.37c.41.28,0-.07-.19-.21s.11.3-.09-.14,0,.32-.05-.08,0,0,0,0a1.5,1.5,0,0,1,0-.3c.06-.29-.17.58,0,.09,0-.08.21-.67.08-.34s.13-.24.19-.35.23-.37.35-.56l.17-.24c-.27.37,0,0,.08-.09a27.72,27.72,0,0,1,5.46-4.61c2.07-1.42,4.22-2.73,6.34-4.07.79-.5,1.59-1,2.34-1.56a11.68,11.68,0,0,0,1.1-.87c1-.91.85-2.06.82-3.28-.29-9.58-1.28-19.11-1.3-28.7s.32-19.44,1-29.15c.16-2.45.42-4.9.55-7.36s0-4.81,0-7.19q0-7.44,0-14.87c0-8.74.14-17.48-.14-26.21-.31-9.35-.34-18.69-.3-28.05,0-2.31,0-4.63,0-6.94,0-3-4.7-3-4.72,0Z" />
</svg>