<?xml version="1.0" encoding="UTF-8"?>
<svg id="Camada_1" data-name="Camada 1" xmlns="http://www.w3.org/2000/svg" viewBox="0 0 595.28 595.28">
  <defs>
    <style>
      .cls-1 {
        fill: #1d1d1b;
      }

      .cls-1, .cls-2 {
        stroke-width: 0px;
      }

      .cls-2 {
        fill: #fff;
      }
    </style>
  </defs>
  <rect class="cls-1" y="0" width="595.28" height="595.28"/>
  <g>
    <path class="cls-2" d="M339.81,393.47q-.22,2.02-1.41,3.81c-3.46-.12-7.04-.57-10.41-1.74-6.16-2.15-12.47-3.98-18.11-7.42-1.58-.97-3.34-1.56-5.18-1.82-2.14-.31-4.01.28-5.51,1.89-2.11,2.27-2.15,4.48.48,6.3,5.6,3.89,11.62,7.13,17.99,9.57,6.1,2.33,12.36,4.25,18.59,6.21,2.7.85,5.08,2.19,7.25,3.9,9.05,7.12,19.04,12.55,29.8,16.61,2.55.96,5.1,2.04,7.43,3.93-1.24,1.54-2.93,2.07-4.43,2.83-11.74,5.94-23.5,11.85-35.27,17.76-15.22,7.64-30.48,15.22-45.66,22.95-2.5,1.27-4.23.08-6.13-1-11.27-6.45-22.54-12.9-33.79-19.38-17.55-10.12-35.09-20.26-52.62-30.4-.54-.31-1.03-.73-1.87-1.34,2.5-2.8,5.3-4.93,8.4-6.67,3.79-2.13,7.8-3.79,11.91-5.13,10.08-3.28,19.22-8.39,27.97-14.25,2.64-1.77,5.51-2.85,8.58-3.66,11.57-3.06,23.07-6.35,33.66-12.17,4.21-2.31,5.57-4.5,4.18-7.42-1.39-2.92-4.61-3.77-8.69-1.86-8.66,4.05-17.65,6.9-27.12,8.19-1,.14-2,.37-3.04-.23-.92-1.11-.93-2.44-.67-3.77,3.48-2.69,6.65-5.77,10.37-7.88,8.52-4.82,14.51-12.75,22.82-17.81,3.2-1.95,3.57-4.59,1.87-7.31-1.8-2.88-5.15-3.89-8.18-2.45-.17.08-.35.14-.49.26-6.92,5.96-14.99,10.28-22.31,15.67-2.28,1.68-4.34,3.9-7.45,3.96-.56-1.42.04-2.18.79-2.71,2.66-1.9,4.46-4.65,6.84-6.78,8.15-7.3,14.96-16,23.93-22.43,3.52-2.52,3.93-4.25,2.33-6.84-1.75-2.85-6.03-4.24-8.99-2.88-.83.38-1.64.86-2.37,1.42-6.3,4.79-12.9,9.26-18.77,14.53-4.43,3.98-8.63,8.25-13.19,12.12-.75.63-1.28,1.63-2.69,1.51-1.2-1.44-.12-2.61.63-3.81,5.28-8.5,11.88-15.88,19.22-22.63.68-.62,1.34-1.27,1.99-1.91,3.06-3,3.65-4.94,2.17-7.14-1.66-2.47-5.65-3.61-8.7-2.39-1.01.41-2.09.9-2.85,1.65-6.24,6.12-14.09,10.36-19.77,17.15-3.36,4.03-6.82,7.95-9.97,12.17-4.25,5.71-9.42,10.49-16.88,11.47-4.94.65-9.98,1.02-13.74-3.51-.89-1.08-1.43-2.08-1.13-3.48.69-3.27.11-6.41-1.19-9.43-.82-1.89-1.01-3.88-1.16-5.92-.42-5.63-2.99-9.97-8.09-12.65-1.32-.69-2.7-1.2-4.23-1.1-2.62.17-3.97,1.71-3.34,4.22.71,2.83.72,5.6.37,8.48-.37,3.01-.26,6.05.17,9.09.74,5.25-.12,10.49-.52,15.7-.31,4.01-.07,7.89.7,11.79.61,3.07,1.27,6.13,1.79,9.22,1.04,6.22-.82,9.93-7.07,13.48-5.48-58.32-10.93-116.35-16.43-174.91,6.41,0,11.92,2.26,17.65,3.17,1.51-2.53.04-5.3,1.19-7.73,2.12-.42,4,.49,5.9,1.01,25.05,6.79,48.43,17.57,71.15,29.9,18.54,10.07,36.59,20.93,53.87,33.06.22.15.5.21,1,.4,2.68-2.89,5.54-5.68,8.56-8.34,10.29-9.08,21.85-16.29,33.73-22.97,32.44-18.26,66.76-32.35,101.63-45.17,1.09-.4,2.17-1.08,3.73-.59.38,4.3-1.25,8.57-.89,12.94,2.09.51,3.69-1.48,6.24-.66-6.73,64.64-13.77,129.33-18.71,194.13-3.15,2.1-6.23,3.48-9.17,4.82-5.02-2.84-6.83-7.4-5.05-12.43.52-1.47,1.08-2.95,1.8-4.33,4.41-8.45,4.68-17.9,6.73-26.93,1.58-6.96,1.85-14.2,4.5-20.94,1.06-2.7-.04-4.2-3-4.44-5.24-.43-11.81,3.93-14.38,9.94-1.51,3.53-2.43,7.29-4.74,10.49-.89,1.24-1.02,2.94-1.17,4.51-.46,4.67-4.25,8.04-8.96,8.23-5.05.21-10.08-.21-14.37-2.85-4.24-2.61-7.57-6.41-10.07-10.82-3.88-6.85-8.43-13.27-14.2-18.59-3.85-3.55-7.43-7.38-11.49-10.69-3.44-2.8-6.84-3.07-10.51-1-3.08,1.73-3.87,4.89-1.36,7.35,4.63,4.54,8.41,9.74,12.41,14.78,2.9,3.66,4.51,8.01,6.81,11.98.47.81.54,1.74-.22,2.68-.34-.08-.81-.05-.99-.26-3.66-4.36-8.94-7.13-11.94-12.17-1.13-1.9-2.64-3.53-4.5-4.81-5.01-3.46-9.43-7.64-13.99-11.65-3.79-3.33-8.13-3.46-11.8-.47-2.64,2.15-2.9,4.86-.3,6.99,5.09,4.17,9.02,9.37,13.45,14.12,4.82,5.17,8.99,10.91,14.09,15.81.79.76,1.6,1.57,1.14,3.24-2.65-.18-4.62-1.65-6.47-3.35-.88-.81-1.52-1.91-2.48-2.56-6.61-4.52-12.95-9.39-19.07-14.57-3.34-2.83-8.66-1.43-10.73,2.41-1.22,2.27-.6,4.29,1.38,5.87,10.51,8.35,19.26,18.72,30.39,26.36.14.1.22.29.44.58Z"/>
    <path class="cls-2" d="M228.55,160.06c1.22,1.46,3,2.09,4.56,3.05,17.88,10.97,32.33,25.18,41.71,44.17,2.78,5.63,4.83,11.55,6.33,17.65.21.87.64,1.76.14,2.68-.66.67-1.53.56-2.34.55-15.22-.23-30.08-2.28-44.17-8.47-14.85-6.53-24.88-17.66-31.22-32.38-5.02-11.65-7.45-24.08-11.01-36.17-2.41-8.16-5.26-16.13-10.71-22.85-1.48-1.83-3.17-3.48-4.57-5.59,25.29.27,47.97,8.08,67.75,23.79,23.26,18.47,36.49,42.55,39.16,72.31-8.56-29.09-27.92-47.86-55.64-58.71-.08-.02-.16-.05-.24-.07.09.02.17.03.26.05Z"/>
    <path class="cls-2" d="M379.41,162.28c-9.51,2.46-17.94,7.11-25.76,12.9-12.16,9-21.03,20.49-25.98,34.88-.2.57-.17,1.31-1.41,1.72,4.23-25.96,17.04-46.36,37.83-61.7,19.64-14.49,41.91-20.47,66.66-19.75-1.03,2.16-2.51,2.87-3.63,3.9-9.8,9-16.7,20.02-22.36,31.92-3.6,7.57-7.01,15.22-10.97,22.61-9.49,17.71-24.68,26.96-44.16,29.97-5.56.86-11.17,1.09-16.76,1.53-1.41.11-2.94.42-4.5-.64.37-2.68,1.44-5.21,2.47-7.73,8.27-20.32,22.93-34.82,41.64-45.61,2.31-1.33,4.62-2.65,6.93-3.97.55-.19,1.09-.38,1.64-.57.07-.05.14-.1.2-.14-.06.05-.13.11-.19.16-.55.18-1.11.36-1.66.54Z"/>
    <path class="cls-2" d="M295.97,193.22c-2.59-2.66-3.6-6.18-4.89-9.48-9.06-23.19-8.67-46.42.22-69.55,7.3-19,19.51-34.27,35.9-46.26.86-.63,1.66-1.48,2.8-1.53.45.27.48.64.33.98-4.07,9.58-2.85,19.3-.77,29.04,2.09,9.81,4.93,19.45,6.42,29.41,3.17,21.15-3,39.46-16.42,55.67-4.71,5.69-9.91,10.9-15.55,15.66-.55.46-.98,1.13-2.25,1.07-1.47-2.96-2.28-6.34-3.07-9.7-4.83-20.54-1.66-40.22,6.55-59.33,1.12-2.62,2.28-5.22,3.41-7.84.28-.23.71-.38.49-1.17-.22.56-.34.87-.46,1.19-5.39,6.66-9.08,14.25-11.91,22.27-5.49,15.57-6.25,31.28-1.3,47.15.24.78.32,1.62.47,2.42l.02-.02Z"/>
    <path class="cls-2" d="M295.95,193.24l.02-.02-.02.02Z"/>
  </g>
</svg>