<svg id="Camada_1" data-name="Camada 1" xmlns="http://www.w3.org/2000/svg" viewBox="0 0 595.28 595.28"><title>A</title><rect width="594.64" height="594.64" fill="#010101"/><path d="M210.19,35.94l3.35-.13,3.74,3.61-3.09,18.94-2.58,12.5L208,87.36l-1.29,7-3,13.92-5.16,25.26-1.16,3.09-.64,4.77-1.55,6.18L188.67,174v1l-2.19,7.61.77.64,1.81-1,3,.52,1.81-1,8.24-.52,4.51,1.16,1,1.8-.52,2.32-3,3.87-8,6.19L192,197.81v-.91l4.64-4.25,2.32-3.87-.77-1.8-4.64,1.16-1.81-.39-.64.39-.77-.26-5.55,1.42L183,191v1.29l-1.8,5-1.42,1.42-1.55-2.06,1-1.17-.77-1.28,1-1.55-1.16-1.55-10.44,4.64-1.29.26-1.54,1.42-4,.9-4.38,3.09-1.16.26-2.32,2.58-2.06,3.86,1.16,2.2,3.61,2.83-1.55.65-6.7-1.68-5.16-5.93L140.47,203l.26-3.35,2.83-.39,1.42-1.41,12.5-5.16,1-2.32-.25-1.42.64-1,.13-2.32,2.45-8.89L163,166.23l.52-2.71.9-1.29-.64-1.15.77-5,.9-.9,1-6.06,1.42-9.92-4.12.38-2.32.78-5.67,1.8-5.67,1.93-11.22,3.61-6,3.1-.9,1.28-2.07,1.29-1,2.45.65,1.55v1.29l.9.25,1.42,2.71h-2.19l-6.45-3.74-5.15-8.12-1.42-2.19L114.18,149l-3.87,5.16h-.77l-4.25,4.64L103.36,162,89.44,175.77l-.65,1.8-5,3.35-3.48,4.13-11.86,9.27-2.19,2.33-4,3-6.7,4.12-1,1.29-3.09,1.55-5.67,2.19-1.16,1.29-1.68-.13-4.12,2.19-4.51-1.29-4.38-4.38-.26-1.16.39-7.73,3.35-6.83,3.86-3.61,5.54-2.06,4.77.51,1.81,3.35-.65,4.26-.9,1.54-8,5.29-.39-1.16-2.32-1-1.8,3.47.39,2.07,1.8,1.8,2.06.26,7.35-2.19,1.42-1.68,7.21-4.25L58.12,196l12.37-9.67,2.58-2.57,5.67-5,1.8-2.83,2.84-1.81L84.93,172l5.8-4.9,3.35-4.77,5.28-4.63,1.93-3.23,3.35-2.06.78-2.83,2.7-2.2,3.61-3.86.65-.13,5.28-8.12,2.06-.64.39-2.19,3.22-3.36,7.35-9.27,3.35-6.71,1.29-.64.51-1.16.65-.52,1.29-2.57,1.41-.91.39-1.93,1.29-.51L145,98.18l3.87-6.44h.51l2.19-4.25.52-2.06,5-11,6.57-17.27.39-2.83-10.19,4.12-.38-.77-6.83,2.58-5.54,1.28-.65.78-5.28,2.19-2.06.13L126,66.74,117.15,70l-2.45.52-3.35,1.93-4,1.42-2.19,3.09.13,1.55,2.32,3.22-1.16.64L101,78.72l-3.74-6-.9-2.06.38-1.16-1.41-.78,2.19-3.09L99,65.06l7-.64,4.9-1.55,8.89-1.8,3.61-.52,1.29-1.29,2.45.26,3.86-1.42,1,.13,1.93-1,3.22-.38.52-.39,11.47-3.09,1.54.51.9-.9,9.67-2.58.9.13,7-1.16,1.29.13.39-.52,7-1.16L180,47l.25-5.93,4.77.39,1.81,1.42,4.76,1.93L199,43.28l7.22-.64,3.09-.77ZM179.13,51.53l-4.38.65-1.42-.26-2.19,1.67-2.44.52-3.36.39,4,3.09,3.74,5.28L169,73.18,163.41,82,163,83.49l-1.54,1.29-1.68,4.51-2.19,2.32.13.9-3.09,3.23-3.22,6.44L146,108.75l-3.48,3-3.35,6.18-5,6.7-.91,1.55-1.41.52-.39,1.93L127.58,132l-1.8,3.09-4.25,4.38.25,1.55-1.67.65.77,1.15,20-2.57.38-.65,11.22-1,2.83-1.29,1.16.65,1.68-.9,11-1.16.65-3.74-.26-2.06,1.54-7.09,1.16-9.8,1-2.7-.26-1.81,1.93-13.79.9-12,.78-.78,1.16-11.72.64-3.61,1-11.6Zm30-8.5-11.34,3.22-3,2.19L195.5,54l-.64,3.74-.13,4.38-1.29,12.5.13,3.22-1.68,2.32-1.16,9.54-2.19,8.12-1,13.66-3.22,9.15-1.42,8.76-1,1.55L181.2,135l-.78,1.68-.77,6.31-2.45,10.44-1.93,4.38L173,166.36l.38.77-4.25,9.41-2.19,7.09-2.19,3.61-.39,1.67,4.26-.26,1.67-1.41,5.67-1.29.9-.65,3.87-.25,1.68-.91,4.38-16.62,1.16-5.67.77-1.93,2.71-13,.77-1.16.26-4,2.19-13,2.83-13.28.26-2.7,1-4.51v-1.68l.9-.39-.25-3,.51-1.16,5.54-31.44.65-2.84.9-7.47Z" fill="#f6e033"/><path d="M279,29.49l.9,1-4.76,26.81.12,1-2.06,6.58-1.29,8.11-.64,3.23-1.16,2.32.39.51v3.35l-2.32,12.37L267,97.93l-.39,6.31-.9,1.16.51.65-2.19,9.53.26,1-1.16,4.9v1.93l-.77,3.74L259.94,139l-2.71,16.36-1,7.74-.26,1.8-.77.78.52.9L255,170l.26.77-.77.65.25.9-1.16,1,.65.9v.9l-1.16.26.13,5.41-.91,2.45-2.06,11.86-.77,1v2.45l4.12,1.8h3.61l6.57-2.45,1.42-.51,3.74-3-.13,1-1.16.78-.13,1.55-1.67.77-1,1.54-2.19.91.12.9-2.44.13-.91,1.29-2.57.13-1.16.9-7-.65-.26.26-1.93,11.47-.91.77-1.54-.12-1.29-1.55,1-1.42,1.29-11.34-4.13-3-3-4.26-2.32-4.25.13-1-3-7.86v-3.22l-.91-4V168l-.64-3.47.26-5.55,1.29-15.33.38-2.71.65-8.76,1.54-6.83.13-1.16.26-2.19.13-4.9,1-2.71.9-4.12,1.42-12.37,1-5V89.68L241.51,84l1-3.09.77-5,1.42-8.51,1.68-7.6-.26-1.16.51-.77,1.68-7.61.64-3.61-.51-.51,1.67-7.22.52-.77.39-5.28.77-.39,4,.64,4,2.19L263.68,39l-1.29.39-.52,1.67,1.16.52-.38,2.7-.78,8.51.13.9-1.29,1.81,1.42.13-1.93,5-.13,3.61-.9,1L259,68.16l-1.55,1.41.9,1.16-1,1.42-.26,4.77,1,.77-2.19,5.54-.38,2.71-1.68,1v.78l1.29.12L254,97.8l-1.42,6.44-1.16.65.65,3.09-1.68,3.09.65.78-1,.51-1,10-1.16,1.29-.12,3.09.64,1.81L246.92,133l.39.39-.13,1.41-.64,9-.65.9-.77,7.6L244,159.92l.26,1.67-1.16,1.81.13,5-.91,4.13.13.51-.77,1,.77.13L242,176.8l.39,6.31,1.29,1.68-.51.77v2.32l.9.39,1,3.74,2.06,2.31,3.61-20.1L253.24,161l.51-5.55.52-1.67,1.29-7.22-.26-1.8,2.32-7.86.64-6.19,3.22-18,2.2-11.21-.26-1.16L264.84,93l.9-1.42-.39-1.67.9-1.42.39-4.38,1.16-4.77.77-4,.26-3.48.9-.77V66.48L271,65.32l-.64-1,.38-4.51.78-4,3.35-20.36.38-4-.51-1.68Z" fill="#f6e033"/><path d="M371.8,43.28l2.45.26L375.67,45,364.58,88l-4,16-3.35,12.63-.52,3.87L355.18,125l-1,5.28-6.06,24.88-.39,1.41-2.19,6.19-1.29,6.7-.64.9-1.29,7,.39.52h1l.64-.9,9.92-3.22,3.1.77-4.9,2.32-6.06,2.7-4.76,1.29-.78,1.55-3,9.54.13,1.29-.91,1-2.06-.13.26-2.84,1.93-7.09-9.79,5.55-.65.25-1-.13-1.93,1.29-2.58.26-1.41-3.22-.39-1.93,2.58-11.09,2.32-10.56.38-.52-.13-1.16,1-2.45-.51-.77,1.16-3-.26-.64,1-2.58-.9.52-2.06,3.22-.78.13-.9,3.09-5.67,8.76-5.28,5.93-7,7-9.8,3-3.6-.65L287,182.6l-3.09-2.71-2.32-2.7-2.58-4.9-.9-4-.9-7.73,1.67-12.37,1.29-1.29.78-3.09.64-.65v-.9l3-4.77,5.16-7.09,3-3,6.58-3.87,2.31-1.29,7.87-1.16,4.76.52,6.45,2.84,2.7,3.86,1.55,5.54-2.32,4.64-2.19-.64.65-2.19-.52-1,.77-.91-.13-1.54-.9-2.45-3.61-2.06-1.16.38-2.57-.51-4,1-5.15,4.12-7,8.77-1.29,2.45v.9l-.9.26-4.39,10.43-.77,3.74-.51.65.25.51-1,7.35v4.38l1.16,4.77,1.81,3.09,3.22,1.42,3.86-.26,6.06-4.64,5.8-5.67,7.09-9.15,2.32-4.25.9-.91v-.9l1.93-1.8-.25-1.42,1.41-1.29.91-4.51,1.93-4.12.9-1.81-.26-1.16,1.42-.38-.26-1.42,1.16-1.16,2.45-8,2.58-11.73,1.42-2.58-.13-1.41,1-1.16-.13-3.48,1.93-2.45.26-3.48.52-.52.25-4.38.91-.13.25-5,1.16-.65-.25-1.8,1.54-2.58-.51-2.32,2.83-11.73-.51-.64,2.19-5.41v-3l.9-3.35.9-5.93.9-.64V52.05l-10.18,4-2.06.52-6.06,3.09-3,4.77,1.68,4.51h-1.42l-2.19-1.29-4.13-6.31-1.29-3,1.16-.26v-.77l.91-1,2.7-.13,6.19-2.32,18.69-5.54L354,47l5-1,4-1.29,3,.13-1,1-7.09,3,3.48,3.09,1,4.25-1,1,.26.65-.77.51v5l-.9.9.12,2.71-1.28,4.51L358,72l.39,1.55-1.29,2.71-.39,5.15-.77.39L354.79,88l-.39.52-1.54,6.7L352,96.9l-.39,3.35-1,4.51-1.68,4.64L346,122.15l-1.16.91.25,1.54-2.57,10.06-.26,2.83-2.71,8.12-.25,3.22-2.07,1.55,1.16,1.55-.51.51.26,2.32-.65.13.39.9-1.68,4.77-1,6.19-1,.64-.26,1.68.65.51-2.06,5.67-.65,5.16.9.9,6.32-2.58.38-.64,1.55-9.15,1.55-3.48-.26-.9.52-.91,4.51-17.52,5.54-23.07,1.93-9.8,2.06-9.15,1.55-4.64,1.8-6.7,2.58-11.85,2.71-8.12.13-1,4.25-17.4,2.32-9Z" fill="#f6e033"/><path d="M405.31,126.28l3.48.39,8,5.41.64,1.29,3.23,3.61-.65,5.28L416.78,147l-2.32,1.8-8.89,6.7-.78.26-1-.26-.77.91-9.8,3.73-4.63.65-.13.77-2.84-.51-3.22.77-1,9.41-.39.25,3.22,7.35,5.42,3.22,3.86.26,3.61-.39,6.06-1.67,7.22-4.26.9-.64,6.31-5.28-2.7,5.8-5.42,5.41-7.86,3.74-7.22,1.8-2.31-.77-2.32.51-1.29-1-1.16.13-6.06-3.35-5.41-5.54-1.68-3.22-1.55-4.77-.25-11.34-4.64-5.54,1.54-.52,3.61,2.58,1.29-2.32,4.64-9.28,5.8-6.45,5.41-4.38,8.51-4.51,3.74-.64Zm4.64,5.28-4.25,1.16-5.93,3.22-4.51,4.13-6.32,7L383.53,158l.26.65.64.51,6.32-1.54,9-4.51,9.41-7.87,3.73-5.67,1-3.22-.51-3.61Z" fill="#f6e033"/><path d="M442.42,129.89l1.55.64.26.9,1.16-.25.51,4.51.39.51,6.83-1.54.65-.65,4-.9.13-2.19,4.38,1.42,2.19-1.29,4.38,1-2.19,2.45-4.38,1.16-.77,3.86-.39,4-.9,7.22-2.71,23.32,6.45-1.54,3.73.9,2.32.64.65.9-10,2.84-4,1.16-.64,2.06-.91,5.16-1.41.25-.39-.25-1-2.58.39-1.42-.52-2.06L441.14,183l-.39,1.94-1.55.26L437.4,184l-10.18,4.38-1.16-1-.9-3.61,1.16-.52,1.16.39,7.47-2.32,1.29-.77,2.83-18,1-20.23-9.41,3.61L429,144.45l-.38-4,1.8,1.28,8-2.57,1.29-.39.64-.64.13-3.36-.64-2.57.77-.13.13-1.68Zm10.31-45.11,2.07-.26.64.39.65-.13,2.32,1.29.12,1,1,.65,2.83,6-.51.9-1.16-.12-1-1.42-3.6-.77-5,.38-3.87,2.71-3.86,4.25-1.68,6.57.9,3.74,2.07,2.19,1.28-.13,2.2,1.29,4.12-.9,3.61-2.45,1.67-4.12-1.29-2.84-2.19-.9-2.57,1.68-2.19,3.35-1.55-1.55-1.42-4,3.09-2.83,5.29-1.29,4.51.26,3,2.19,1.42,6.7-1.8,3.22L457.89,114l-5.54,2.44-3.48.13-5.8-1.29-4.64-3.86-3-6.83v-2.71l1-4.77L440,91.87l3.86-3.35Zm2.71,52.58-9.15,3-.77.51-3.35,33.51-.65,4.25.9.26,6.32-2.19h2.19l2.32-1.16,2.06-20.36,1-4.64,1.29-13.66Z" fill="#f6e033"/><path d="M504.67,120.61h3.87l6.06,1.54,5.79,4,4.77,4.25,3.22,5.67,1.81,7.74-.9,7.47-1.94,7.09-.77.77-.13,1.94-2.19,2.32-.77,3.35L522.33,168l-.9,2.32-.52.78,4,5.93,5.67,1.16,1.93-.39,1.55-1.29h.51v3.09l-.26,1.68L533,182.73l-3.73,2.19-2.06.38-3.1-1.16-3.74-5.92v-.52l-2.06-4-.64,1.67-.77.26-7.09,5.28-4,1.55-2.7,1.93-5.93,2.32-3.22.39-.39.64-7.35.65-2.57-.91-3.61-3.09-1.68-2.7.26-.78-1-3.48.26-3.73.51-.52-.51-1.29L479.8,166l3.61-4.25,1-1.93,1.54-.26,1.17-1.55,1.15.13,1-1.42,2.57-.64h1.29l.52-1,6.31-.65,4.26.91,2.57.12,1.16,1.16,1.68.65.64,1.29,1.29.13,2.58,3.35.9.51,1.81-3.09,2.31-5.28,1.16-.78,2.58-8.12-.64-1.41,1.29-2.07-1-2.19.64-2.06-.77-3-.91-1.29.26-.9-3.09-2.71-.39-.9-4.64-1.16-4.38.26-3.22.9-4.38,1.16-6.83,4-5.29,5.67-1.29,1.55-.9,2.19.26,1.68,1,2.57,2.06,1.29-.38,1h-.78l-3.86-2.06-.52-1.16-2.58-2.45-1.16-2.45-2.06-2.06-1.8-3,.26-1.94,2.83-3.09,3-2.7,2.44-.65.91-2.19,1.16.26,1.54-1.55L500,121.25Zm.39,39.43-3,.13-6.44,2.06-1.8.52-6.19,5.54-1.55,1.42-2.44,5-1,1.16-.38,4.38.51.9-.13.9.91,1.42,2.83.9,3.87-.38,3.86-1.29.52-.78,2.06-.51,10.44-8.64,3.74-4.38,1.93-2.83-3.48-4.39-1.55.26Z" fill="#f6e033"/><path d="M131.32,219.69l2.45.26,1.42,1.41L124.1,264.41l-4,16L116.76,293l-.52,3.87-1.54,4.51-1,5.28-6.06,24.87-.39,1.42L105,339.16l-1.29,6.7-.64.9-1.29,7,.39.51h1l.64-.9,9.92-3.22,3.1.77L112,353.2l-6.06,2.71-4.77,1.29-.77,1.54-3,9.54.13,1.29-.91,1-2.06-.13.26-2.83,1.93-7.09L87,366.09l-.65.26-1-.13-1.93,1.29-2.58.26-1.42-3.23L79,362.61l2.58-11.08L83.9,341l.38-.52-.13-1.16,1-2.44-.51-.78,1.16-3-.26-.65,1-2.57-.9.51-2.06,3.22-.78.13-.9,3.1-5.67,8.76L71,351.53l-7,7-9.8,3-3.6-.64L46.52,359l-3.09-2.7-2.32-2.71-2.58-4.9-.9-4-.9-7.73,1.67-12.38,1.29-1.29.77-3.09.65-.64v-.91l3-4.76,5.16-7.09,3-3L58.76,300l2.32-1.29L69,297.53l4.76.52,6.45,2.83,2.7,3.87,1.55,5.54-2.32,4.64-2.19-.65.64-2.19-.51-1,.77-.9-.13-1.55-.9-2.45-3.61-2.06-1.16.39L72.43,304l-4,1-5.15,4.13-7,8.76L55,320.34v.9l-.9.26-4.39,10.44L49,335.68l-.51.64.25.52-1,7.34v4.38l1.16,4.77,1.81,3.1,3.22,1.41,3.86-.25L63.79,353l5.8-5.68,7.09-9.14L79,333.87l.9-.9v-.9l1.93-1.81-.25-1.41L83,327.56l.91-4.51,1.93-4.13.9-1.8L86.47,316l1.42-.39-.26-1.42L88.79,313l2.45-8,2.58-11.72,1.42-2.58-.13-1.42,1-1.16L96,284.64l1.93-2.45.26-3.48.52-.51.25-4.38.91-.13.25-5,1.16-.64-.25-1.81,1.54-2.57-.51-2.32,2.83-11.73-.51-.65,2.19-5.41v-3l.9-3.35.9-5.93.9-.65v-2.19l-10.18,4L97,233,91,236.06l-3,4.76,1.67,4.52H88.28l-2.19-1.29L82,237.73l-1.29-3,1.16-.26v-.77l.91-1,2.7-.13,6.19-2.32,18.68-5.54,3.23-1.29,5-1,4-1.29,3,.13-1,1-7.09,3,3.48,3.09,1,4.26-1,1,.26.64-.77.52v5l-.91.91.13,2.7-1.28,4.51-.78.52.39,1.55-1.29,2.7-.39,5.16-.77.38-1.16,6.19-.39.51-1.54,6.71-.91,1.67-.38,3.35-1,4.51-1.68,4.64-2.83,12.76-1.16.9.25,1.55-2.57,10.05-.26,2.84L99.1,322l-.26,3.22-2.06,1.54,1.16,1.55-.51.52.26,2.32-.65.12.39.91L95.75,337l-1,6.18-1,.65-.26,1.67.65.52L92,351.66l-.64,5.15.9.9,6.32-2.57.38-.65,1.55-9.15,1.55-3.48-.26-.9.51-.9,4.51-17.53,5.55-23.07,1.93-9.79,2.06-9.15,1.55-4.64,1.8-6.7,2.58-11.86L125,249.2l.13-1,4.25-17.4,2.32-9Z" fill="#f6e033"/><path d="M156.58,297.79l2.58,1,1.16-.26,1.16,1.16.64-.26,3,2.58,4.51,3.61,3.09,3.48-.52,1.16-1.93-.13-4.38-1.42-5,.39-8.24,4.64L146,321.24,143.18,326l-3.61,9.15-1.42,7.48.39,6.7.64,1-.26,1.42,1.94,3.22,3.09,2.83,5.54,1.42,6.57-1.42,5.16-3.35L166,350l4.51-6.83,4.77-9.79-.65-1.42-.25-5.54-3.87-3.48-3.22-.9-1.29.13-4.25.9-4,2.32v.77l-3.61,5.28-.51.52-1.29,3.87.26,5.28,2.44,1.55,5.16-.65,2.06-.9v1.29l-2.19,1.93L157,345.6l-4.51-.52-3.87-3.86-1.42-3.35.26-5.67,1.8-4.13,2.58-4.12,5.93-4.51,1.42-.65,4.77-.77,2.83-.13,5.67,1.55,3.22,1.67,3.61,3.35,1,1.16,1.16,6.45L180,339l-3.48,7.09-5.67,6.44-9.28,7-5.67,2.32-2.32.26-7.48.51-6.31-2.45-5.8-4.64L130.55,349,129,339l.65-6.83,1.8-7.22,1.16-.26-.39-1.54,5.67-10.7,6.83-7.86h.91l.9-1.68,2.7-1.67Z" fill="#f6e033"/><path d="M250.53,295.6l-.77.64,1.67,1.42v.9l1.16,1-.26,2.58.52.39,1.29,4.38,1,.51-.52,2.45,1,.13-.26,1.29.26.13.64,1.42-1,1.8,1.16.64.26,1.81-.52.77,2.45,3.87.77,6.18v1.16l1.16,2.71.26,1.42,1.29,7.09,1.42,4.12-.13,1.8.9,2.71.9-.77-.38-.78,1.8-4,1.68-2.19-1-2.06.13-.39.65-.13.26-.39-2.84-12.5-1.29-4.12-1.42-5.54-2.83-11-2.06-8.5-1.55-4.51L255,290.83l2.45-1.55.52.13.51.39,1.81,3.86,2.06,6.58,2.83,13.66,2.71,9.28,1.93,8.11.13,1.94.52.38,1,4.13,7.21-8.89,3.74-3.48,1.68-2.58,2.7-3.74,1-.9,1-.64.25-1.42,1.16-1-.25-.13.25-.9h.13l5.54-8.64.39-.64,1.42-5.8.13-1-.26-.52-.26-.64-2.06-1.68-.52.65.52,1.67-.26,1.16-1.67,1.68-2.45,1-1.81-.13-1.29-.78-.77-1.54.26-.39v-.64l-1.16-.78,1.29-1.28v-1l1-.9-.13-.51.77-.91,1.16-1.16,5.8-.25,3.61,1.29,2.19,2.06.9,2.32V297l.39,5.93-2.32,5.93L298.09,314l-1,.51v.39l-5.92,7.34-3.87,3.35-.77.78-4.64,5.28-.78.13-2.7,3-2.32,2.2-1.16,1.93-.78.13-1.8,3.22,1.16,6.31.13.78,1.55,5.67-.39.64-1.55-.38-2.06-4.64-.13-2.32-1-2.19-1.42,1.28-1.29,2.45-1.93,3.61.52.9-.78,2.84-.38.13L265,359l-2.57,1.81v1.54l-1.55.78-.64-.65-2.58.9-1.68-3.09-.38-1.93-1.16-5.54-.91-3,.39-1.16-1-.38-.13-1.94-1.67-5.15.64-1.68L250.14,338l-2.06-6.83L246.15,324l-.39-.39-2.58-9.15-.77-1.42-.51-3-1.55-3.35-.9-4.25-1-1.16-1-2.71-2.71-4.64h-2.06l-.13-1,1.93-.77,5.67-1.16,5.67.25,2.45,1.55Z" fill="#f6e033"/><path d="M343.58,302.68l3.48.39,8,5.41.64,1.29,3.22,3.61-.64,5.28-3.22,4.77-2.32,1.81-8.89,6.7-.78.26-1-.26-.77.9-9.8,3.74-4.64.64-.12.78-2.84-.52-3.22.77-1,9.41-.39.26,3.22,7.35,5.42,3.22,3.86.25,3.61-.38,6.06-1.68,7.21-4.25.91-.64,6.31-5.29-2.71,5.8-5.41,5.41-7.86,3.74-7.22,1.81-2.32-.78L328,363l-1.28-1-1.16.13-6.06-3.36-5.41-5.54L312.39,350l-1.55-4.77-.25-11.34L306,328.33l1.54-.52,3.61,2.58,1.29-2.32,4.64-9.28,5.8-6.44,5.41-4.38,8.51-4.51,3.74-.65Zm4.64,5.29L344,309.13,338,312.35l-4.51,4.12-6.32,7-5.41,11,.26.64.64.52L329,334l9-4.51,9.4-7.86,3.74-5.67,1-3.22-.51-3.61Z" fill="#f6e033"/><path d="M373,306.29l7.09,1.16,2.83,1.29,5,4.13.26,4.38-.52,7.34.52,2.58,2.58-5,7.21-7.74,3.35-3.09,6.45-5,2.06-.38,5.54,1.28,2.84,1.94,2.83,4.12-.13,2.32.65,1.16.13,3.09-1,1,.12,1-2.83,5.92.13,1.81-1.55,1.67.13.78-.52,4-.64.91h-.77l.25,1.41-.77.65-.64,3.48.25.77-.64,4.38.39,2.06-.78,1.68.65,1.29,1.93.51,6.19-4.89,1.16-.13.25-1.29,3.74-2.71,3-3.48.64.39-.39,2.58-3.6,6.18-3,2.71-.13,1.29-4.77,3.09h-.9l-.77,1.55-3.22,1.16-2.19-1-.39-.78-3.35-.64L404,351.27l-1.55-7.73-.38-2.58.38-1.29,1-6.06,3.87-12.88,1.81-3,1-4.77-.91-1.93-1-.51-5.8,3.6-6.57,8.38L391,331l-3.35,8.37.13.78-7,16.36-1.29,2.19-2.44,7.48-1-1.29-.77.52-1.93-.91v-1.16l-.9-.25.13.64-1.68-.13-2.19-2.45.13-1.93,1.54-7.47,1.68-5.42-.39-2.7,1-1.42-.25-1.93,3.22-14.18.64-8.76-.38-6.58Z" fill="#f6e033"/><path d="M489.34,237.22l2.06.9-.13,1.67-1.68,9.8-1.41,5.15-4.26,18.82-1.54,6.06-.39.25,2.19,1.29,11.6.26.26.26-.78.64-14.69,3-.51,2.7.25,1.16-.9,1.16-1.93,9-.77,1.42.25,1.42-1,1.42v3.48l-1,1.29.39.9-.65.38L473,317.25l-.52.38-.25,3-.65.51-.51,1.94.25,1.16-1.16,3.73.13,1.16-.64.65-1.68,6.7-1.8,5.8-1.55,8.12-.26,1.54-1,2.07.26.77L461.89,360l.25.91-1.41,2.19.12,1.16-1.41,3.35.13,1.54,3.35,2.07,6.05-.65-3.48,3.48-1.41-.39-1.16.91-4.51-.26-1.94,4.12.52.65-.39,1.67-1.29,1,.52.65-.9,1v2.19l-.91,3.48-.38,2.06-1.42.39-1.29-.78-.13-1.8,2.19-5.8,1.55-7.6.64-.9.13-2.45-4.12-2.84-4.64-6.31-.39-1.29-1.8-8.77.51-.9-1.16-5,1.16-4.9-.25-.39.64-1.16-.64-.9,1.54-7.6.65-2.71,1-5.93.64-5.41,1.68-5.67,1.16-.26-.52-.9.9-2.71,1-4.38-.39-1.16,1.29-3.09-.9-.39,1.16-1.42,1.54-5.54.39-4.38-9,2.71-.78-1.29.52-.65-1.8-1.67-1.29-3.61.38-.77,1.81.38,1-.9,2.06.52,7-.13,1.8-1.16,1-2.19-.38-1.81.77-.25,2.71-11.09,1-.26-.13-1.54,1.42-5.42-.26-1.67,2.19-6.44-.26-2.45.9-1-.12-1.29.9-1.55.64-7,.39-.51,4.38,1.16,6.06,3.48,1.16,1.8-.9,6.44-.39,4.51-.77.78-1,7.47-1.28,1,.25,2.07-1,2.57.26.39-1.93,7.47-1.68,1.81.9,1-.51.77v2.06l1.8.39,5.29-.77,3-10.57,2.58-14.43,3.86-14.31Zm-12.89,48.84-6.7.9-.78,2.58.65,1-1.29,2.06-.65.26-.12,3.48-1.29,1.8-.39,2.07-1.42,7.21-2.7,7.86.38,1.29-1.29,3.74-.38.52.26.77-1.94,7-2.19,9.66L456,344.7l.25,1.16-.51.51-1.42,9.15.65,3.61-.26,2.19,1.54,3.74,1.16.52-.64-1,1-1V362.1l3-9.41.51-4.13,1.55-3.73-.13-.78,1.8-6.7v-1.8l.65-.52.25-2.32,1-2.06L466,329l2.32-8.38,1.29-.9.26-3.48,1-4.13,4.38-17,.38-.52.52-3.6.77-2.19.78-2.71Z" fill="#f6e033"/><path d="M518.46,297.79l2.58,1,1.16-.26,1.16,1.16.64-.26,3,2.58,4.51,3.61,3.09,3.48-.51,1.16-1.94-.13-4.38-1.42-5,.39-8.24,4.64-6.58,7.47L505.06,326l-3.61,9.15L500,342.64l.39,6.7.64,1-.25,1.42,1.93,3.22,3.09,2.83,5.54,1.42,6.58-1.42,5.15-3.35,4.77-4.51,4.51-6.83,4.77-9.79-.65-1.42-.25-5.54-3.87-3.48-3.22-.9-1.29.13-4.25.9-4,2.32v.77L516,331.42l-.51.52-1.29,3.87.26,5.28,2.45,1.55,5.15-.65,2.06-.9v1.29l-2.19,1.93-3.09,1.29-4.51-.52-3.87-3.86-1.42-3.35.26-5.67,1.81-4.13,2.57-4.12,5.93-4.51,1.42-.65,4.77-.77,2.83-.13,5.67,1.55,3.23,1.67,3.6,3.35,1,1.16,1.16,6.45-1.41,7-3.48,7.09-5.67,6.44-9.28,7-5.67,2.32-2.32.26-7.48.51-6.31-2.45-5.8-4.64L492.43,349,490.88,339l.65-6.83,1.8-7.22,1.16-.26-.39-1.54,5.67-10.7,6.83-7.86h.91l.9-1.68,2.71-1.67Z" fill="#f6e033"/><path d="M80.16,453.65A18.75,18.75,0,0,1,75,457a13.49,13.49,0,0,1-5.29,1.17,15.07,15.07,0,0,1-5.26-.87,61.34,61.34,0,0,1-4.39,4.92,36.71,36.71,0,0,1-5.17,4.37A26.88,26.88,0,0,1,49,469.68a17.88,17.88,0,0,1-6.44,1.18,12.68,12.68,0,0,1-5.17-.93,8.8,8.8,0,0,1-3.34-2.51,9.34,9.34,0,0,1-1.79-3.59,16.24,16.24,0,0,1-.53-4.23,24.24,24.24,0,0,1,1.08-7,32.83,32.83,0,0,1,3-7,40.89,40.89,0,0,1,4.61-6.44,38.57,38.57,0,0,1,5.75-5.42,34.58,34.58,0,0,1,6.53-3.9,21.23,21.23,0,0,1,6.9-1.85,9.74,9.74,0,0,1,3.63-2.35,10.78,10.78,0,0,1,3.12-.5A6,6,0,0,1,71.9,428a13,13,0,0,1,1.76,7.11,22.06,22.06,0,0,1-.77,5.67,39.58,39.58,0,0,1-2,5.75A52.71,52.71,0,0,1,68.09,452q-1.55,2.63-3.09,4.74a6.74,6.74,0,0,0,2.2.61,20.22,20.22,0,0,0,2.38.13,12.21,12.21,0,0,0,2.94-.37,17,17,0,0,0,2.81-1,19.2,19.2,0,0,0,2.51-1.37,15,15,0,0,0,2-1.48ZM53.73,441.83a18.06,18.06,0,0,1,1.4-7,19.71,19.71,0,0,1,3.8-6l-.12-.12A16.66,16.66,0,0,0,53,431.15a26.31,26.31,0,0,0-5,4.27A33,33,0,0,0,43.8,441a42.95,42.95,0,0,0-5,12.91,30.38,30.38,0,0,0-.68,6.16,21,21,0,0,0,.31,3.59,10.39,10.39,0,0,0,1,3.06,5.93,5.93,0,0,0,1.92,2.14,5.29,5.29,0,0,0,3,.8,11.89,11.89,0,0,0,5.39-1.33,25.76,25.76,0,0,0,5-3.31A28.83,28.83,0,0,0,59,460.68a35.06,35.06,0,0,0,3.07-4.49,15.72,15.72,0,0,1-6.1-6,17.22,17.22,0,0,1-1.67-4A16.37,16.37,0,0,1,53.73,441.83Zm10.65-6.5a5.09,5.09,0,0,0,.18-1.05,11.3,11.3,0,0,0,.07-1.24,6.14,6.14,0,0,0-.25-1.7,3.39,3.39,0,0,0-.81-1.42,3.63,3.63,0,0,0-1.45-.93,5.66,5.66,0,0,0-2.26-.28,9.47,9.47,0,0,0-1.61,2.38,19.45,19.45,0,0,0-1.14,3,20.71,20.71,0,0,0-.68,3.22,22.61,22.61,0,0,0-.22,3.07,30.32,30.32,0,0,0,.31,4.26,21.53,21.53,0,0,0,1,4.31,16.42,16.42,0,0,0,2,3.8,9.2,9.2,0,0,0,3.06,2.79,39.51,39.51,0,0,0,2.51-4.86,46.67,46.67,0,0,0,2-5.38,44,44,0,0,0,1.24-5.51,34,34,0,0,0,.43-5.3,17.21,17.21,0,0,0-.25-3,8.37,8.37,0,0,0-.8-2.49,4.25,4.25,0,0,0-1.49-1.67,4.11,4.11,0,0,0-2.29-.6A4.7,4.7,0,0,0,62,427a4.94,4.94,0,0,0-1.42,1,6,6,0,0,1,2.29.49,3.83,3.83,0,0,1,1.49,1.14,4.41,4.41,0,0,1,.8,1.64,6.87,6.87,0,0,1,.25,1.85,7.63,7.63,0,0,1-.09,1.27c-.07.35-.14.69-.22,1Z" fill="#f6e033"/><path d="M112.53,458.36q1.18-1.49,2.79-3.44a35.71,35.71,0,0,1,3.5-3.68,21.83,21.83,0,0,1,4-2.94,8.06,8.06,0,0,1,4.11-1.21,4.23,4.23,0,0,1,3.19,1.24,4,4,0,0,1,1.21,2.85,8.23,8.23,0,0,1-1.36,4.3,51.29,51.29,0,0,1-3,4.36q-1.67,2.18-3,4.21a6.85,6.85,0,0,0-1.36,3.72,2,2,0,0,0,.31,1.14,1.09,1.09,0,0,0,1,.46q2.53,0,8.29-5.75,2.35-2.36,4.61-5t3.93-4.79l.5.25c-.5.61-1.06,1.32-1.7,2.1s-1.33,1.62-2.08,2.51-1.53,1.8-2.38,2.75-1.7,1.86-2.57,2.73c-1.15,1.15-2.21,2.13-3.15,2.93a20.54,20.54,0,0,1-2.64,1.95,10,10,0,0,1-2.29,1.09,7.47,7.47,0,0,1-2.19.34,4.56,4.56,0,0,1-3.38-1.21,4.16,4.16,0,0,1-1.2-3.06,8.4,8.4,0,0,1,1.36-4.27,46.1,46.1,0,0,1,3-4.46c1.12-1.44,2.13-2.8,3-4.05a5.83,5.83,0,0,0,1.37-3.07,1.73,1.73,0,0,0-.5-1.33,1.65,1.65,0,0,0-1.17-.46,5.48,5.48,0,0,0-3,1.2,26.67,26.67,0,0,0-3.56,3.13,53.79,53.79,0,0,0-3.68,4.27q-1.83,2.35-3.46,4.7t-2.91,4.4c-.85,1.36-1.52,2.48-2,3.34l-6.56.25c1.41-2.23,2.78-4.34,4.12-6.35s2.54-3.83,3.59-5.5,1.9-3.15,2.54-4.43a7.41,7.41,0,0,0,1-3,2.3,2.3,0,0,0-.44-1.36,1.53,1.53,0,0,0-1.36-.62,5.45,5.45,0,0,0-3,1.2,26.06,26.06,0,0,0-3.56,3.13q-1.86,1.92-3.74,4.27T95,461.88q-1.68,2.36-3,4.4c-.87,1.36-1.55,2.48-2,3.34l-6.25.25q3.41-5.44,6.75-10.86T97.06,448l7.24-.37-8.23,11.26.12.13q1.31-1.49,2.94-3.53a43.5,43.5,0,0,1,3.56-3.9,22,22,0,0,1,4.12-3.16,9,9,0,0,1,4.67-1.3,4.65,4.65,0,0,1,2.94.93,3.28,3.28,0,0,1,1.21,2.78,6.46,6.46,0,0,1-.31,1.86,16.11,16.11,0,0,1-.77,1.95c-.31.64-.67,1.28-1.06,1.92s-.75,1.21-1.08,1.7Z" fill="#f6e033"/><path d="M149.18,448.08q-2.93,4.59-5,7.83c-1.4,2.17-2.55,4-3.43,5.54a40.63,40.63,0,0,0-2,3.75,6.06,6.06,0,0,0-.65,2.38,2.41,2.41,0,0,0,.27,1.21.92.92,0,0,0,.84.46,7.48,7.48,0,0,0,3.5-1.42,34.8,34.8,0,0,0,5.66-4.89c.91-.95,1.8-1.89,2.66-2.82s1.68-1.83,2.45-2.69l2-2.35c.6-.71,1.08-1.26,1.45-1.68l.56.38c-.49.66-1.1,1.41-1.82,2.25s-1.5,1.74-2.33,2.67-1.67,1.84-2.53,2.75-1.72,1.78-2.54,2.6a29.78,29.78,0,0,1-6.16,5,9.89,9.89,0,0,1-4.74,1.43,4.23,4.23,0,0,1-3.15-1.12,3.94,3.94,0,0,1-1.12-2.91,7.73,7.73,0,0,1,.47-2.56,20.91,20.91,0,0,1,1.58-3.31c.74-1.32,1.73-3,3-4.93s2.78-4.38,4.64-7.27Zm3.59-13.74a2.89,2.89,0,0,1,2.07.87,2.73,2.73,0,0,1,.9,2,3.17,3.17,0,0,1-1,2.26,3.07,3.07,0,0,1-2.23,1,3.94,3.94,0,0,1-2.35-.71,2.44,2.44,0,0,1-1-2.14,3.05,3.05,0,0,1,1.08-2.38A3.67,3.67,0,0,1,152.77,434.34Z" fill="#f6e033"/><path d="M160.25,469.68a18.41,18.41,0,0,0,5.85-2.32,30.46,30.46,0,0,0,5.05-3.84,46.62,46.62,0,0,0,4.42-4.76c1.39-1.71,2.74-3.44,4.06-5.17l.49.37q-2.48,3.23-5,6.28a35.16,35.16,0,0,1-5.42,5.42,25.82,25.82,0,0,1-6.43,3.78,21.33,21.33,0,0,1-8,1.42,15,15,0,0,1-3.19-.34,9.25,9.25,0,0,1-2.84-1.11,6.09,6.09,0,0,1-2.05-2.05,5.94,5.94,0,0,1-.77-3.12,7.12,7.12,0,0,1,.28-2,6.17,6.17,0,0,1,.83-1.8,4.93,4.93,0,0,1,1.4-1.33,3.55,3.55,0,0,1,1.95-.52,2.86,2.86,0,0,1,2.19.8,2.8,2.8,0,0,1,0,3.84,2.53,2.53,0,0,1-1.74.68,2.85,2.85,0,0,1-1.36-.31,7.26,7.26,0,0,0-.53,1.2,4.36,4.36,0,0,0-.21,1.34,3.53,3.53,0,0,0,1.33,2.84,4.69,4.69,0,0,0,3.12,1.12,7.47,7.47,0,0,0,2.26-.37,6.4,6.4,0,0,0,2.05-1.09,5.78,5.78,0,0,0,1.45-1.7,4.36,4.36,0,0,0,.56-2.17,5.72,5.72,0,0,0-.78-2.94,26.54,26.54,0,0,0-1.7-2.57c-.62-.82-1.18-1.66-1.7-2.5a5.07,5.07,0,0,1-.77-2.69,5.63,5.63,0,0,1,.8-3,7.33,7.33,0,0,1,2.11-2.19,9.27,9.27,0,0,1,2.9-1.34,13,13,0,0,1,3.28-.43,9.22,9.22,0,0,1,5,1.27,4,4,0,0,1,2,3.62,3.9,3.9,0,0,1-1.18,2.94,4,4,0,0,1-3,1.15,5.34,5.34,0,0,1-1-.1,4.37,4.37,0,0,1-.77-.21,9.86,9.86,0,0,0,1-2.45,10.88,10.88,0,0,0,.28-2.38,3.44,3.44,0,0,0-.72-2.17,2.5,2.5,0,0,0-2.13-.93,3.28,3.28,0,0,0-2.66,1.09,4,4,0,0,0-.93,2.69,6,6,0,0,0,.77,3.06,26,26,0,0,0,1.7,2.57,26.48,26.48,0,0,1,1.71,2.6,6.47,6.47,0,0,1,.77,3.22,6.61,6.61,0,0,1-.4,2.29,7,7,0,0,1-1.09,2,7.43,7.43,0,0,1-1.51,1.46,4.62,4.62,0,0,1-1.77.77Z" fill="#f6e033"/><path d="M176.1,449.2l.43-1.12h4.77l4.64-7.8,6.68-.25-5.13,8.05h7.86l-.56,1.12h-8q-2.79,4.57-4.71,7.7T179,462.1a36.63,36.63,0,0,0-1.67,3.31,5.73,5.73,0,0,0-.53,2.17,1.94,1.94,0,0,0,.43,1.3,1.57,1.57,0,0,0,1.24.49,8.5,8.5,0,0,0,4.09-1.57,34.64,34.64,0,0,0,5.44-4.37q2-2,4.34-4.64t4.39-5.39l.37.31c-.95,1.24-2.14,2.75-3.59,4.52a67.51,67.51,0,0,1-4.76,5.26q-1.42,1.42-2.94,2.7a29,29,0,0,1-3.07,2.23,17.8,17.8,0,0,1-3,1.51,8.29,8.29,0,0,1-2.91.56,6.54,6.54,0,0,1-3.46-.9,3.36,3.36,0,0,1-1.49-3.13,9,9,0,0,1,.68-3.31,28,28,0,0,1,1.89-3.74q1.2-2,2.81-4.52c1.08-1.65,2.23-3.55,3.47-5.69Z" fill="#f6e033"/><path d="M222.77,453.65q-1.92,2.61-4.12,5.14a64.49,64.49,0,0,1-5.23,5.32,26.31,26.31,0,0,1-8.2,5.3,21.59,21.59,0,0,1-7.4,1.45,7.43,7.43,0,0,1-5.57-2.1,7.51,7.51,0,0,1-2-5.45,11.08,11.08,0,0,1,1.8-5.88,21.56,21.56,0,0,1,4.51-5.2,24.2,24.2,0,0,1,6-3.71,15.35,15.35,0,0,1,6.16-1.43,7.24,7.24,0,0,1,4.14,1,3.3,3.3,0,0,1,1.49,2.88,4.17,4.17,0,0,1-1,2.72,10.43,10.43,0,0,1-2.63,2.23,21,21,0,0,1-3.62,1.74c-1.35.49-2.68.93-4,1.3s-2.56.68-3.71.92l-2.85.62a9.66,9.66,0,0,0-.31,2.23,6.28,6.28,0,0,0,1.49,4.33,5.24,5.24,0,0,0,4.15,1.68,13.06,13.06,0,0,0,5.72-1.55,26.34,26.34,0,0,0,6.28-4.52q2.42-2.29,4.65-4.8t3.89-4.67Zm-13.43-4.21a1.51,1.51,0,0,0-.47-1.24,1.91,1.91,0,0,0-1.2-.37,5.87,5.87,0,0,0-3.35,1.3,19,19,0,0,0-3.37,3.19,29.53,29.53,0,0,0-2.79,4,13.92,13.92,0,0,0-1.57,3.62,18.42,18.42,0,0,0,4.82-1.64,21.24,21.24,0,0,0,4.06-2.6,13.63,13.63,0,0,0,2.81-3.09A5.78,5.78,0,0,0,209.34,449.44Zm8.79-14.11a5.12,5.12,0,0,1-1.18,3,17.68,17.68,0,0,1-2.75,2.94,21.24,21.24,0,0,1-3.07,2.23,5.16,5.16,0,0,1-2.16.87c-.25,0-.38-.15-.38-.43s.24-.51.72-.9,1-.89,1.64-1.49a22.53,22.53,0,0,0,1.82-2,6.05,6.05,0,0,0,1.21-2.48c.08-.33.19-.71.31-1.14a9.52,9.52,0,0,1,.43-1.21,3.6,3.6,0,0,1,.62-1,1.09,1.09,0,0,1,.81-.4,1.91,1.91,0,0,1,1.45.56A2,2,0,0,1,218.13,435.33Z" fill="#f6e033"/><path d="M210.39,469.87q3.15-5.44,6.41-10.83t6.46-11l7.06-.25-8.17,11.52.12.12a51.37,51.37,0,0,1,4.18-4.67q1.83-1.77,3.19-2.88a24.75,24.75,0,0,1,2.29-1.7,8,8,0,0,0,1.36-1,8.85,8.85,0,0,1,1.27-1.09,4.92,4.92,0,0,1,1.39-.62,10.71,10.71,0,0,1,2-.28l2.88-.12a35.37,35.37,0,0,0-2.17,3.5,8.13,8.13,0,0,0-1,3.93,2.36,2.36,0,0,0,2.67,2.66,4.14,4.14,0,0,0,1.7-.37,8.72,8.72,0,0,0,1.58-.93,16,16,0,0,0,1.42-1.21c.45-.43.87-.83,1.24-1.2l.24.31a14.29,14.29,0,0,1-4.08,3.52,10.07,10.07,0,0,1-5.14,1.37,5.6,5.6,0,0,1-3.9-1.3,5,5,0,0,1-1.42-3.84,5.43,5.43,0,0,1,.93-3l-.13-.13a35.07,35.07,0,0,0-4.95,4,49.53,49.53,0,0,0-4.36,4.82,63.86,63.86,0,0,0-3.72,5.23q-1.69,2.7-3.06,5.23Z" fill="#f6e033"/><path d="M254.58,448.08q-2.91,4.59-5,7.83t-3.44,5.54q-1.32,2.3-2,3.75a6.23,6.23,0,0,0-.65,2.38,2.41,2.41,0,0,0,.28,1.21.92.92,0,0,0,.84.46,7.42,7.42,0,0,0,3.49-1.42,34.38,34.38,0,0,0,5.67-4.89c.91-.95,1.79-1.89,2.66-2.82s1.68-1.83,2.44-2.69,1.45-1.65,2.05-2.35,1.08-1.26,1.45-1.68l.56.38q-.75,1-1.83,2.25c-.72.85-1.49,1.74-2.32,2.67s-1.67,1.84-2.54,2.75-1.71,1.78-2.53,2.6a30,30,0,0,1-6.16,5,9.92,9.92,0,0,1-4.74,1.43,4.23,4.23,0,0,1-3.15-1.12,3.9,3.9,0,0,1-1.12-2.91,7.73,7.73,0,0,1,.47-2.56,21.64,21.64,0,0,1,1.57-3.31c.75-1.32,1.74-3,3-4.93s2.78-4.38,4.64-7.27Zm3.59-13.74a2.9,2.9,0,0,1,2.08.87,2.76,2.76,0,0,1,.89,2,3.17,3.17,0,0,1-1,2.26,3,3,0,0,1-2.22,1,4,4,0,0,1-2.36-.71,2.46,2.46,0,0,1-1-2.14,3,3,0,0,1,1.09-2.38A3.64,3.64,0,0,1,258.17,434.34Z" fill="#f6e033"/><path d="M292.52,453.84a15.6,15.6,0,0,1-2.94,2.91,6.05,6.05,0,0,1-3.74,1.3,4.83,4.83,0,0,1-2.48-.62,6.78,6.78,0,0,1-1.92-1.74,19.73,19.73,0,0,1-2.44,5.85,20.6,20.6,0,0,1-4.12,4.83,19.14,19.14,0,0,1-5.38,3.28,16.21,16.21,0,0,1-6.19,1.21,7.56,7.56,0,0,1-5.45-1.95,7,7,0,0,1-2-5.35,12.8,12.8,0,0,1,1.67-6.29,19,19,0,0,1,4.33-5.26,22.47,22.47,0,0,1,5.88-3.59,16.42,16.42,0,0,1,6.32-1.33,7.38,7.38,0,0,1,5.26,1.8,7.51,7.51,0,0,1,2.35,4.33,5.43,5.43,0,0,0,1.39,3,3.76,3.76,0,0,0,2.82,1.11,5.61,5.61,0,0,0,3.16-1,15.64,15.64,0,0,0,3.15-3Zm-28.78,16.28a5.44,5.44,0,0,0,3.1-1.06,15.21,15.21,0,0,0,3-2.72,25.12,25.12,0,0,0,2.63-3.77,42.3,42.3,0,0,0,2.1-4.21,28.57,28.57,0,0,0,1.4-4,13.27,13.27,0,0,0,.49-3.22,4,4,0,0,0-.65-2.41,2.41,2.41,0,0,0-2.07-.87,5.51,5.51,0,0,0-3.1,1.06,15.21,15.21,0,0,0-3,2.72,24.73,24.73,0,0,0-2.63,3.78,38.38,38.38,0,0,0-2.1,4.21,28,28,0,0,0-1.4,4,13.27,13.27,0,0,0-.49,3.22,4,4,0,0,0,.65,2.41A2.41,2.41,0,0,0,263.74,470.12Z" fill="#f6e033"/><path d="M339.56,427.16l6.94-.37c-1.37,2.23-2.92,4.69-4.68,7.4s-3.55,5.45-5.38,8.26S332.8,448,331,450.77s-3.35,5.29-4.73,7.62-2.5,4.36-3.35,6.09a10.3,10.3,0,0,0-1.26,3.78,1.69,1.69,0,0,0,.31,1.08,1.15,1.15,0,0,0,1,.41,7.89,7.89,0,0,0,3.55-1.31,23.54,23.54,0,0,0,5.05-4.2q2.3-2.36,4.39-4.86c1.41-1.67,2.93-3.6,4.58-5.79l.62.31c-.45.62-1,1.34-1.64,2.17s-1.33,1.69-2.07,2.6-1.52,1.82-2.32,2.75-1.6,1.81-2.38,2.63a36.81,36.81,0,0,1-5.7,4.95,10.13,10.13,0,0,1-5.82,1.86,5.17,5.17,0,0,1-2.32-.46,3.93,3.93,0,0,1-1.42-1.21,3.64,3.64,0,0,1-.65-1.61,4.65,4.65,0,0,1,.06-1.67l-.12-.13a20.27,20.27,0,0,1-4.21,3.35,10.18,10.18,0,0,1-5.26,1.36,5.45,5.45,0,0,1-2.51-.53,4.61,4.61,0,0,1-1.67-1.42,5.94,5.94,0,0,1-.93-2,9.9,9.9,0,0,1-.28-2.39,13.2,13.2,0,0,1,1.61-6.16,21,21,0,0,1,4.15-5.47,21.84,21.84,0,0,1,5.63-3.9,14.09,14.09,0,0,1,6.13-1.49,5.46,5.46,0,0,1,5.57,4Zm-28.65,41.22A6.31,6.31,0,0,0,315,466.5a22.36,22.36,0,0,0,3.9-4.58,29.19,29.19,0,0,0,2.88-5.61,14.46,14.46,0,0,0,1.11-5,3.07,3.07,0,0,0-3.28-3.47,6.26,6.26,0,0,0-4,1.77,21.67,21.67,0,0,0-3.81,4.3,26.37,26.37,0,0,0-2.84,5.45,14.61,14.61,0,0,0-1.12,5.2,5.26,5.26,0,0,0,.68,2.66A2.51,2.51,0,0,0,310.91,468.38Z" fill="#f6e033"/><path d="M371,453.84a16.21,16.21,0,0,1-2.94,2.91,6.1,6.1,0,0,1-3.75,1.3,4.79,4.79,0,0,1-2.47-.62,6.53,6.53,0,0,1-1.92-1.74,19.76,19.76,0,0,1-2.45,5.85,20.33,20.33,0,0,1-4.11,4.83,19.19,19.19,0,0,1-5.39,3.28,16.18,16.18,0,0,1-6.19,1.21,7.58,7.58,0,0,1-5.45-1.95,7,7,0,0,1-2-5.35,12.8,12.8,0,0,1,1.67-6.29,19,19,0,0,1,4.34-5.26,22.15,22.15,0,0,1,5.88-3.59,16.37,16.37,0,0,1,6.31-1.33,7.38,7.38,0,0,1,5.26,1.8,7.51,7.51,0,0,1,2.35,4.33,5.37,5.37,0,0,0,1.4,3,3.75,3.75,0,0,0,2.81,1.11,5.59,5.59,0,0,0,3.16-1,15.93,15.93,0,0,0,3.16-3Zm-28.78,16.28a5.41,5.41,0,0,0,3.09-1.06,15.21,15.21,0,0,0,3-2.72,24.42,24.42,0,0,0,2.63-3.77,40.36,40.36,0,0,0,2.11-4.21,29.78,29.78,0,0,0,1.39-4,13.27,13.27,0,0,0,.49-3.22,3.9,3.9,0,0,0-.65-2.41,2.41,2.41,0,0,0-2.07-.87,5.48,5.48,0,0,0-3.09,1.06,15,15,0,0,0-3,2.72,24.73,24.73,0,0,0-2.63,3.78,40.25,40.25,0,0,0-2.1,4.21,27.93,27.93,0,0,0-1.39,4,13.35,13.35,0,0,0-.5,3.22,4,4,0,0,0,.65,2.41A2.43,2.43,0,0,0,342.23,470.12Z" fill="#f6e033"/><path d="M373.92,469.68a18.45,18.45,0,0,0,5.84-2.32,30.46,30.46,0,0,0,5.05-3.84,45.52,45.52,0,0,0,4.42-4.76c1.39-1.71,2.74-3.44,4.06-5.17l.49.37q-2.47,3.23-4.95,6.28a35.1,35.1,0,0,1-5.41,5.42,25.88,25.88,0,0,1-6.44,3.78,21.29,21.29,0,0,1-8,1.42,14.81,14.81,0,0,1-3.18-.34,9.21,9.21,0,0,1-2.85-1.11,6,6,0,0,1-2-2.05,5.85,5.85,0,0,1-.78-3.12,7.51,7.51,0,0,1,.28-2,5.94,5.94,0,0,1,.84-1.8,4.77,4.77,0,0,1,1.39-1.33,3.6,3.6,0,0,1,1.95-.52,2.9,2.9,0,0,1,2.2.8,2.82,2.82,0,0,1,0,3.84,2.53,2.53,0,0,1-1.74.68,2.85,2.85,0,0,1-1.36-.31,7.24,7.24,0,0,0-.52,1.2,4.09,4.09,0,0,0-.22,1.34,3.53,3.53,0,0,0,1.33,2.84,4.7,4.7,0,0,0,3.13,1.12,7.57,7.57,0,0,0,2.26-.37,6.46,6.46,0,0,0,2-1.09,5.63,5.63,0,0,0,1.45-1.7,4.36,4.36,0,0,0,.56-2.17,5.81,5.81,0,0,0-.77-2.94,28.65,28.65,0,0,0-1.71-2.57c-.62-.82-1.18-1.66-1.7-2.5a5.16,5.16,0,0,1-.77-2.69,5.72,5.72,0,0,1,.8-3,7.33,7.33,0,0,1,2.11-2.19,9.23,9.23,0,0,1,2.91-1.34,12.89,12.89,0,0,1,3.28-.43,9.21,9.21,0,0,1,5,1.27,4,4,0,0,1,2,3.62,3.9,3.9,0,0,1-1.18,2.94,4,4,0,0,1-3,1.15,5.34,5.34,0,0,1-1-.1,4.37,4.37,0,0,1-.77-.21,9.86,9.86,0,0,0,1-2.45,10.88,10.88,0,0,0,.28-2.38,3.49,3.49,0,0,0-.71-2.17,2.54,2.54,0,0,0-2.14-.93,3.28,3.28,0,0,0-2.66,1.09,4,4,0,0,0-.93,2.69,6,6,0,0,0,.77,3.06,26.05,26.05,0,0,0,1.71,2.57,28.33,28.33,0,0,1,1.7,2.6,6.47,6.47,0,0,1,.77,3.22,6.61,6.61,0,0,1-.4,2.29,7.27,7.27,0,0,1-1.08,2,7.47,7.47,0,0,1-1.52,1.46,4.65,4.65,0,0,1-1.76.77Z" fill="#f6e033"/><path d="M425.47,435.7l-14.29,21.79.12.12c.87-1,1.78-2.16,2.75-3.4a30.4,30.4,0,0,1,3.16-3.44,18.33,18.33,0,0,1,3.65-2.63,8.82,8.82,0,0,1,4.24-1.05,4.69,4.69,0,0,1,3.59,1.46,5.32,5.32,0,0,1,1.36,3.8,13.19,13.19,0,0,1-1.3,5.76,18.06,18.06,0,0,1-3.15,4.7l.12.13a17.59,17.59,0,0,0,4.12-1.4,24.59,24.59,0,0,0,3.87-2.29,29.19,29.19,0,0,0,3.46-2.9,40.23,40.23,0,0,0,2.91-3.19l.43.43a37,37,0,0,1-2.78,3.1,32.57,32.57,0,0,1-3.56,3.06,24.07,24.07,0,0,1-4.27,2.54A18.74,18.74,0,0,1,425,463.8c-.83.75-1.76,1.53-2.79,2.36a30.82,30.82,0,0,1-3.28,2.28,21,21,0,0,1-3.53,1.74,9.94,9.94,0,0,1-3.52.68,4.63,4.63,0,0,1-2.26-.53,1.84,1.84,0,0,1-1-1.76,2.48,2.48,0,0,1,1.27-2.14,11.39,11.39,0,0,1,3.06-1.36,29.28,29.28,0,0,1,3.75-.83c1.3-.21,2.38-.38,3.24-.5a21,21,0,0,0,1.27-1.89,22.67,22.67,0,0,0,1.37-2.57,19.32,19.32,0,0,0,1.08-3.06,13.09,13.09,0,0,0,.43-3.37,9.58,9.58,0,0,0-.09-1.33,3.63,3.63,0,0,0-.37-1.18,2.15,2.15,0,0,0-.78-.83,2.38,2.38,0,0,0-1.3-.31c-1.23,0-2.68.8-4.33,2.41a50,50,0,0,0-5.26,6.22q-2.79,3.81-5.66,8.48t-5.54,9.16q-2.67,4.48-4.86,8.3c-1.47,2.53-2.67,4.5-3.62,5.91l-6.56.24Q394,476.55,402.29,463t16.5-27ZM411,468.38c0,.91.58,1.37,1.73,1.37a3.68,3.68,0,0,0,1.83-.56,14.15,14.15,0,0,0,1.89-1.33,18.21,18.21,0,0,0,1.73-1.67c.54-.6,1-1.15,1.36-1.64-.53.08-1.29.2-2.26.37a23.92,23.92,0,0,0-2.84.65,8.83,8.83,0,0,0-2.42,1.08A2,2,0,0,0,411,468.38Z" fill="#f6e033"/><path d="M470,453.84a16.21,16.21,0,0,1-2.94,2.91,6.08,6.08,0,0,1-3.75,1.3,4.79,4.79,0,0,1-2.47-.62,6.78,6.78,0,0,1-1.92-1.74,19.76,19.76,0,0,1-2.45,5.85,20.33,20.33,0,0,1-4.11,4.83,19.19,19.19,0,0,1-5.39,3.28,16.18,16.18,0,0,1-6.19,1.21,7.54,7.54,0,0,1-5.44-1.95,7,7,0,0,1-2.05-5.35,12.7,12.7,0,0,1,1.68-6.29,18.83,18.83,0,0,1,4.33-5.26,22.15,22.15,0,0,1,5.88-3.59,16.37,16.37,0,0,1,6.31-1.33,7.22,7.22,0,0,1,7.61,6.13,5.37,5.37,0,0,0,1.4,3,3.75,3.75,0,0,0,2.81,1.11,5.59,5.59,0,0,0,3.16-1,15.93,15.93,0,0,0,3.16-3Zm-28.78,16.28a5.41,5.41,0,0,0,3.09-1.06,15.21,15.21,0,0,0,3-2.72,24.42,24.42,0,0,0,2.63-3.77,40.36,40.36,0,0,0,2.11-4.21,28.46,28.46,0,0,0,1.39-4,13.35,13.35,0,0,0,.5-3.22,4,4,0,0,0-.65-2.41,2.44,2.44,0,0,0-2.08-.87,5.48,5.48,0,0,0-3.09,1.06,14.93,14.93,0,0,0-3,2.72,24,24,0,0,0-2.63,3.78,38.49,38.49,0,0,0-2.11,4.21,27.93,27.93,0,0,0-1.39,4,13.35,13.35,0,0,0-.5,3.22,4,4,0,0,0,.65,2.41A2.44,2.44,0,0,0,441.26,470.12Z" fill="#f6e033"/><path d="M473,469.68a18.6,18.6,0,0,0,5.85-2.32,30.8,30.8,0,0,0,5-3.84,46.71,46.71,0,0,0,4.43-4.76c1.38-1.71,2.73-3.44,4.05-5.17l.5.37q-2.49,3.23-5,6.28a35.1,35.1,0,0,1-5.41,5.42,25.88,25.88,0,0,1-6.44,3.78,21.27,21.27,0,0,1-8,1.42,14.84,14.84,0,0,1-3.19-.34,9.41,9.41,0,0,1-2.85-1.11,6.06,6.06,0,0,1-2-2.05,5.85,5.85,0,0,1-.78-3.12,7.51,7.51,0,0,1,.28-2,6.19,6.19,0,0,1,.84-1.8,4.77,4.77,0,0,1,1.39-1.33,3.6,3.6,0,0,1,2-.52,2.9,2.9,0,0,1,2.2.8,2.82,2.82,0,0,1,0,3.84,2.5,2.5,0,0,1-1.73.68,2.89,2.89,0,0,1-1.37-.31,7.24,7.24,0,0,0-.52,1.2,4.09,4.09,0,0,0-.22,1.34,3.56,3.56,0,0,0,1.33,2.84,4.7,4.7,0,0,0,3.13,1.12,7.57,7.57,0,0,0,2.26-.37,6.46,6.46,0,0,0,2-1.09,5.63,5.63,0,0,0,1.45-1.7,4.26,4.26,0,0,0,.56-2.17,5.81,5.81,0,0,0-.77-2.94c-.52-.88-1.09-1.74-1.7-2.57s-1.19-1.66-1.71-2.5a5.16,5.16,0,0,1-.77-2.69,5.72,5.72,0,0,1,.8-3,7.33,7.33,0,0,1,2.11-2.19,9.33,9.33,0,0,1,2.91-1.34,12.89,12.89,0,0,1,3.28-.43,9.21,9.21,0,0,1,5,1.27,4,4,0,0,1,2,3.62,3.92,3.92,0,0,1-1.17,2.94,4.08,4.08,0,0,1-3,1.15,5.37,5.37,0,0,1-1-.1,4.63,4.63,0,0,1-.77-.21,9.86,9.86,0,0,0,1-2.45,10.3,10.3,0,0,0,.28-2.38,3.49,3.49,0,0,0-.71-2.17,2.54,2.54,0,0,0-2.14-.93,3.3,3.3,0,0,0-2.66,1.09,4,4,0,0,0-.93,2.69,5.9,5.9,0,0,0,.78,3.06,24.3,24.3,0,0,0,1.7,2.57,26.39,26.39,0,0,1,1.7,2.6,6.47,6.47,0,0,1,.77,3.22,6.61,6.61,0,0,1-.4,2.29,7.27,7.27,0,0,1-1.08,2,7.47,7.47,0,0,1-1.52,1.46,4.58,4.58,0,0,1-1.76.77Z" fill="#f6e033"/><path d="M488.79,449.2l.44-1.12H494l4.64-7.8,6.69-.25-5.14,8.05H508l-.56,1.12h-8l-4.7,7.7c-1.28,2.09-2.31,3.82-3.07,5.2s-1.32,2.49-1.67,3.31a5.73,5.73,0,0,0-.53,2.17,1.89,1.89,0,0,0,.44,1.3,1.56,1.56,0,0,0,1.24.49,8.47,8.47,0,0,0,4.08-1.57,34.67,34.67,0,0,0,5.45-4.37q2-2,4.33-4.64t4.39-5.39l.38.31q-1.43,1.86-3.59,4.52a69.76,69.76,0,0,1-4.77,5.26q-1.43,1.42-2.94,2.7a28.93,28.93,0,0,1-3.06,2.23,18.25,18.25,0,0,1-3,1.51,8.29,8.29,0,0,1-2.91.56,6.54,6.54,0,0,1-3.46-.9,3.36,3.36,0,0,1-1.49-3.13,9,9,0,0,1,.68-3.31,29.22,29.22,0,0,1,1.89-3.74c.81-1.36,1.74-2.87,2.82-4.52s2.23-3.55,3.46-5.69Z" fill="#f6e033"/><path d="M535.46,453.65q-1.92,2.61-4.11,5.14a66.13,66.13,0,0,1-5.23,5.32,26.34,26.34,0,0,1-8.21,5.3,21.54,21.54,0,0,1-7.39,1.45,7.41,7.41,0,0,1-5.57-2.1,7.52,7.52,0,0,1-2.05-5.45,11.08,11.08,0,0,1,1.8-5.88,21.61,21.61,0,0,1,4.52-5.2,24,24,0,0,1,6-3.71,15.39,15.39,0,0,1,6.16-1.43,7.28,7.28,0,0,1,4.15,1A3.29,3.29,0,0,1,527,451a4.17,4.17,0,0,1-1,2.72,10.43,10.43,0,0,1-2.63,2.23,20.62,20.62,0,0,1-3.62,1.74c-1.34.49-2.67.93-4,1.3s-2.56.68-3.72.92l-2.84.62a9.15,9.15,0,0,0-.31,2.23,6.27,6.27,0,0,0,1.48,4.33,5.24,5.24,0,0,0,4.15,1.68,13.06,13.06,0,0,0,5.72-1.55,26.38,26.38,0,0,0,6.29-4.52c1.61-1.53,3.15-3.13,4.64-4.8s2.78-3.23,3.9-4.67ZM522,449.44a1.51,1.51,0,0,0-.46-1.24,1.94,1.94,0,0,0-1.21-.37,5.85,5.85,0,0,0-3.34,1.3,19,19,0,0,0-3.38,3.19,28.57,28.57,0,0,0-2.78,4,14,14,0,0,0-1.58,3.62,18.62,18.62,0,0,0,4.83-1.64,21.16,21.16,0,0,0,4-2.6,13.45,13.45,0,0,0,2.82-3.09A5.84,5.84,0,0,0,522,449.44Z" fill="#f6e033"/><path d="M538.25,469.68a18.6,18.6,0,0,0,5.85-2.32,30.8,30.8,0,0,0,5-3.84,46.71,46.71,0,0,0,4.43-4.76c1.38-1.71,2.73-3.44,4-5.17l.5.37q-2.49,3.23-5,6.28a35.1,35.1,0,0,1-5.41,5.42,25.88,25.88,0,0,1-6.44,3.78,21.29,21.29,0,0,1-8,1.42,14.81,14.81,0,0,1-3.18-.34,9.41,9.41,0,0,1-2.85-1.11,6.06,6.06,0,0,1-2-2.05,5.85,5.85,0,0,1-.78-3.12,7.51,7.51,0,0,1,.28-2,6.19,6.19,0,0,1,.84-1.8,4.77,4.77,0,0,1,1.39-1.33,3.6,3.6,0,0,1,1.95-.52,2.9,2.9,0,0,1,2.2.8,2.82,2.82,0,0,1,0,3.84,2.5,2.5,0,0,1-1.73.68,2.89,2.89,0,0,1-1.37-.31,7.24,7.24,0,0,0-.52,1.2,4.09,4.09,0,0,0-.22,1.34,3.53,3.53,0,0,0,1.33,2.84,4.7,4.7,0,0,0,3.13,1.12,7.57,7.57,0,0,0,2.26-.37,6.46,6.46,0,0,0,2-1.09,5.63,5.63,0,0,0,1.45-1.7,4.26,4.26,0,0,0,.56-2.17,5.81,5.81,0,0,0-.77-2.94c-.52-.88-1.09-1.74-1.7-2.57s-1.19-1.66-1.71-2.5a5.16,5.16,0,0,1-.77-2.69,5.72,5.72,0,0,1,.8-3,7.33,7.33,0,0,1,2.11-2.19,9.33,9.33,0,0,1,2.91-1.34,12.89,12.89,0,0,1,3.28-.43,9.21,9.21,0,0,1,5,1.27,4,4,0,0,1,2,3.62,3.92,3.92,0,0,1-1.17,2.94,4.08,4.08,0,0,1-3,1.15,5.37,5.37,0,0,1-1-.1,4.63,4.63,0,0,1-.77-.21,9.86,9.86,0,0,0,1-2.45,10.3,10.3,0,0,0,.28-2.38,3.49,3.49,0,0,0-.71-2.17,2.54,2.54,0,0,0-2.14-.93,3.3,3.3,0,0,0-2.66,1.09,4,4,0,0,0-.93,2.69,6,6,0,0,0,.77,3.06,26.05,26.05,0,0,0,1.71,2.57,26.39,26.39,0,0,1,1.7,2.6,6.47,6.47,0,0,1,.77,3.22,6.61,6.61,0,0,1-.4,2.29,7.27,7.27,0,0,1-1.08,2,7.47,7.47,0,0,1-1.52,1.46,4.58,4.58,0,0,1-1.76.77Z" fill="#f6e033"/><path d="M160.19,497.16l6.93-.38q-2,3.35-4.67,7.4t-5.38,8.26q-2.76,4.21-5.42,8.33t-4.74,7.61c-1.38,2.33-2.49,4.37-3.34,6.1a10.26,10.26,0,0,0-1.27,3.78,1.77,1.77,0,0,0,.31,1.08,1.17,1.17,0,0,0,1,.4,7.84,7.84,0,0,0,3.56-1.3,23.93,23.93,0,0,0,5.05-4.21c1.52-1.57,3-3.19,4.39-4.86s2.93-3.6,4.58-5.78l.62.31c-.45.61-1,1.34-1.64,2.16s-1.33,1.69-2.07,2.6-1.52,1.83-2.32,2.76-1.6,1.8-2.39,2.63a37.32,37.32,0,0,1-5.69,5,10.15,10.15,0,0,1-5.82,1.86,5,5,0,0,1-2.32-.47,3.84,3.84,0,0,1-1.42-1.21,3.48,3.48,0,0,1-.65-1.61,4.25,4.25,0,0,1,.06-1.67l-.13-.12a20.29,20.29,0,0,1-4.21,3.34,10.06,10.06,0,0,1-5.26,1.36,5.41,5.41,0,0,1-2.5-.52,4.64,4.64,0,0,1-1.67-1.43,5.44,5.44,0,0,1-.93-2,9.82,9.82,0,0,1-.28-2.38,13,13,0,0,1,1.61-6.16,21,21,0,0,1,4.14-5.48,21.89,21.89,0,0,1,5.64-3.9,14,14,0,0,1,6.13-1.48,5.46,5.46,0,0,1,5.57,4Zm-28.66,41.22a6.35,6.35,0,0,0,4.12-1.89,22.72,22.72,0,0,0,3.9-4.58,29.69,29.69,0,0,0,2.88-5.6,14.46,14.46,0,0,0,1.11-5,3.08,3.08,0,0,0-3.28-3.46,6.29,6.29,0,0,0-4,1.76,21.74,21.74,0,0,0-3.81,4.31,26.82,26.82,0,0,0-2.85,5.44,14.84,14.84,0,0,0-1.11,5.2,5.24,5.24,0,0,0,.68,2.66A2.49,2.49,0,0,0,131.53,538.38Z" fill="#f6e033"/><path d="M187.18,523.65q-1.92,2.6-4.12,5.13a64.5,64.5,0,0,1-5.23,5.33,26.26,26.26,0,0,1-8.2,5.29,21.39,21.39,0,0,1-7.4,1.46,7.42,7.42,0,0,1-5.57-2.11,7.5,7.5,0,0,1-2-5.45,11.08,11.08,0,0,1,1.8-5.88,21.56,21.56,0,0,1,4.51-5.2,24.81,24.81,0,0,1,6-3.71,15.33,15.33,0,0,1,6.16-1.42,7.24,7.24,0,0,1,4.14,1A3.3,3.3,0,0,1,178.7,521a4.19,4.19,0,0,1-1,2.72,10.64,10.64,0,0,1-2.63,2.23,20.24,20.24,0,0,1-3.62,1.73c-1.35.5-2.68.93-4,1.3s-2.56.68-3.71.93l-2.85.62a9.59,9.59,0,0,0-.31,2.23,6.29,6.29,0,0,0,1.49,4.33,5.27,5.27,0,0,0,4.15,1.67,13.06,13.06,0,0,0,5.72-1.55,26.28,26.28,0,0,0,6.28-4.51q2.42-2.3,4.65-4.8t3.89-4.68Zm-13.43-4.21a1.5,1.5,0,0,0-.47-1.24,1.85,1.85,0,0,0-1.2-.37,5.8,5.8,0,0,0-3.35,1.3,19,19,0,0,0-3.37,3.19,29.53,29.53,0,0,0-2.79,4A13.78,13.78,0,0,0,161,529.9a18.8,18.8,0,0,0,4.82-1.64,21.24,21.24,0,0,0,4.06-2.6,13.46,13.46,0,0,0,2.81-3.1A5.75,5.75,0,0,0,173.75,519.44Z" fill="#f6e033"/><path d="M190,539.68a18.89,18.89,0,0,0,5.85-2.32,30.46,30.46,0,0,0,5.05-3.84,45.71,45.71,0,0,0,4.42-4.77c1.38-1.71,2.74-3.43,4.06-5.16l.49.37c-1.65,2.14-3.3,4.24-5,6.28a35.61,35.61,0,0,1-5.42,5.42,26.09,26.09,0,0,1-6.43,3.77,21.13,21.13,0,0,1-8,1.43,15.65,15.65,0,0,1-3.19-.34A9,9,0,0,1,179,539.4a6.15,6.15,0,0,1-2-2,6,6,0,0,1-.77-3.13,7.12,7.12,0,0,1,.28-2,5.76,5.76,0,0,1,.83-1.79,5,5,0,0,1,1.4-1.34,3.55,3.55,0,0,1,2-.52,2.9,2.9,0,0,1,2.19.8,2.61,2.61,0,0,1,.78,1.86,2.56,2.56,0,0,1-.74,2,2.48,2.48,0,0,1-1.74.68,2.73,2.73,0,0,1-1.36-.31,7.37,7.37,0,0,0-.53,1.21,4.3,4.3,0,0,0-.21,1.33,3.53,3.53,0,0,0,1.33,2.85,4.73,4.73,0,0,0,3.12,1.11,7.18,7.18,0,0,0,2.26-.37,6.58,6.58,0,0,0,2.05-1.08,6,6,0,0,0,1.45-1.71,4.32,4.32,0,0,0,.56-2.16,5.72,5.72,0,0,0-.78-2.94,25.37,25.37,0,0,0-1.7-2.57,30,30,0,0,1-1.7-2.51,5,5,0,0,1-.77-2.69,5.6,5.6,0,0,1,.8-3,7.46,7.46,0,0,1,2.1-2.2,9.41,9.41,0,0,1,2.91-1.33,12.57,12.57,0,0,1,3.28-.43,9.13,9.13,0,0,1,5,1.27,4,4,0,0,1,2,3.62,3.93,3.93,0,0,1-1.18,2.94,4.08,4.08,0,0,1-3,1.14,5.38,5.38,0,0,1-1-.09,3.6,3.6,0,0,1-.77-.22,9.8,9.8,0,0,0,1-2.44,11,11,0,0,0,.27-2.39,3.42,3.42,0,0,0-.71-2.16,2.5,2.5,0,0,0-2.13-.93,3.3,3.3,0,0,0-2.66,1.08,4,4,0,0,0-.93,2.7,6,6,0,0,0,.77,3.06,27.19,27.19,0,0,0,1.7,2.57,24.29,24.29,0,0,1,1.71,2.6,6.47,6.47,0,0,1,.77,3.22,6.94,6.94,0,0,1-.4,2.29,7,7,0,0,1-1.09,2,7.12,7.12,0,0,1-1.51,1.45,4.62,4.62,0,0,1-1.77.77Z" fill="#f6e033"/><path d="M227.16,518.45l6.44-.37a26.17,26.17,0,0,1-1.61,2.69c-.7,1.05-1.46,2.19-2.29,3.4s-1.66,2.48-2.51,3.78-1.62,2.56-2.32,3.77a29.14,29.14,0,0,0-1.7,3.41,7.37,7.37,0,0,0-.65,2.69,1.37,1.37,0,0,0,1.55,1.55,8.06,8.06,0,0,0,4-1.73,36.53,36.53,0,0,0,5.32-4.58c.79-.79,1.58-1.63,2.39-2.54s1.58-1.81,2.32-2.69l2-2.48c.62-.76,1.11-1.39,1.49-1.89l.43.25q-1.61,2.16-3.71,4.8a71,71,0,0,1-5.08,5.6,37.41,37.41,0,0,1-5.85,4.86,10.47,10.47,0,0,1-5.72,1.89,4.25,4.25,0,0,1-3.07-1,3.3,3.3,0,0,1-1.08-2.5,6.81,6.81,0,0,1,.06-.93,2,2,0,0,1,.19-.68h-.13a19.31,19.31,0,0,1-4.33,3.65,9.75,9.75,0,0,1-5.2,1.49,5.38,5.38,0,0,1-2.54-.56,4.62,4.62,0,0,1-1.7-1.52,7,7,0,0,1-1-2.17,9.84,9.84,0,0,1-.31-2.5,12.53,12.53,0,0,1,1.67-6.07,23.21,23.21,0,0,1,4.21-5.48,22,22,0,0,1,5.67-4,13.66,13.66,0,0,1,6-1.51,5.54,5.54,0,0,1,3.4.93,6.58,6.58,0,0,1,2.05,2.9Zm-18.57,15.84a7.73,7.73,0,0,0,.59,3.13,2.44,2.44,0,0,0,2.51,1.33,5.13,5.13,0,0,0,2.72-1.08,16,16,0,0,0,2.76-2.57,30.3,30.3,0,0,0,2.53-3.44,32.61,32.61,0,0,0,2.11-3.8,28.3,28.3,0,0,0,1.42-3.62,10.18,10.18,0,0,0,.53-2.88,4.67,4.67,0,0,0-.62-2.6,2.7,2.7,0,0,0-2.41-.93,5.66,5.66,0,0,0-2.88.86,13,13,0,0,0-2.79,2.3,27.66,27.66,0,0,0-2.54,3.18,26.9,26.9,0,0,0-2.07,3.62,24.92,24.92,0,0,0-1.36,3.56A10.87,10.87,0,0,0,208.59,534.29Z" fill="#f6e033"/><path d="M257.06,505.7l-14.3,21.79.12.12q1.31-1.54,2.76-3.41a30.22,30.22,0,0,1,3.15-3.43,18,18,0,0,1,3.66-2.63,8.79,8.79,0,0,1,4.24-1,4.69,4.69,0,0,1,3.59,1.45,5.38,5.38,0,0,1,1.36,3.81,13.11,13.11,0,0,1-1.3,5.75,18.4,18.4,0,0,1-3.16,4.71l.13.12a18,18,0,0,0,4.11-1.39,25.38,25.38,0,0,0,3.87-2.29,30.37,30.37,0,0,0,3.47-2.91,37,37,0,0,0,2.91-3.19l.43.44a35.7,35.7,0,0,1-2.79,3.09,32.57,32.57,0,0,1-3.56,3.06,23.72,23.72,0,0,1-4.27,2.54,18.52,18.52,0,0,1-4.92,1.52c-.82.74-1.75,1.53-2.78,2.35a30.46,30.46,0,0,1-3.28,2.29,21.32,21.32,0,0,1-3.53,1.73,9.79,9.79,0,0,1-3.53.69,4.63,4.63,0,0,1-2.26-.53,1.85,1.85,0,0,1-1-1.77,2.5,2.5,0,0,1,1.27-2.13,11.29,11.29,0,0,1,3.07-1.36,30.5,30.5,0,0,1,3.74-.84c1.3-.21,2.38-.37,3.25-.49.37-.5.79-1.13,1.27-1.89a22.68,22.68,0,0,0,1.36-2.57,19.68,19.68,0,0,0,1.08-3.06,13.17,13.17,0,0,0,.44-3.38,8.33,8.33,0,0,0-.1-1.33,3.42,3.42,0,0,0-.37-1.17,2.15,2.15,0,0,0-.77-.84,2.41,2.41,0,0,0-1.3-.31q-1.86,0-4.33,2.42a49.29,49.29,0,0,0-5.27,6.22q-2.77,3.79-5.66,8.48t-5.54,9.16q-2.66,4.49-4.86,8.29t-3.62,5.91l-6.56.25q8.3-13.36,16.56-26.93t16.49-27Zm-14.49,32.68c0,.91.58,1.36,1.74,1.36a3.65,3.65,0,0,0,1.82-.56,13.29,13.29,0,0,0,1.89-1.33,15.17,15.17,0,0,0,1.73-1.67c.54-.6,1-1.14,1.37-1.64l-2.26.37a26.79,26.79,0,0,0-2.85.65,8.48,8.48,0,0,0-2.41,1.09A2,2,0,0,0,242.57,538.38Z" fill="#f6e033"/><path d="M289.06,518.45l6.44-.37a28.12,28.12,0,0,1-1.61,2.69l-2.29,3.4q-1.25,1.83-2.51,3.78t-2.32,3.77a29.14,29.14,0,0,0-1.7,3.41,7.18,7.18,0,0,0-.65,2.69,1.37,1.37,0,0,0,1.54,1.55,8.12,8.12,0,0,0,4-1.73,37.07,37.07,0,0,0,5.32-4.58c.78-.79,1.58-1.63,2.38-2.54s1.58-1.81,2.32-2.69,1.43-1.72,2.05-2.48,1.11-1.39,1.48-1.89l.44.25q-1.62,2.16-3.72,4.8a68.86,68.86,0,0,1-5.07,5.6,37.41,37.41,0,0,1-5.85,4.86,10.47,10.47,0,0,1-5.73,1.89,4.24,4.24,0,0,1-3.06-1,3.28,3.28,0,0,1-1.09-2.5,5.49,5.49,0,0,1,.07-.93,2.27,2.27,0,0,1,.18-.68h-.12a19.53,19.53,0,0,1-4.33,3.65,9.77,9.77,0,0,1-5.2,1.49,5.38,5.38,0,0,1-2.54-.56,4.62,4.62,0,0,1-1.7-1.52,6.56,6.56,0,0,1-1-2.17,9.84,9.84,0,0,1-.31-2.5,12.42,12.42,0,0,1,1.67-6.07,22.7,22.7,0,0,1,4.21-5.48,22.12,22.12,0,0,1,5.66-4,13.69,13.69,0,0,1,6-1.51,5.57,5.57,0,0,1,3.41.93,6.64,6.64,0,0,1,2,2.9Zm-18.57,15.84a7.57,7.57,0,0,0,.59,3.13,2.43,2.43,0,0,0,2.5,1.33,5.15,5.15,0,0,0,2.73-1.08,16,16,0,0,0,2.75-2.57,30.35,30.35,0,0,0,2.54-3.44,32.51,32.51,0,0,0,2.1-3.8,28.44,28.44,0,0,0,1.43-3.62,10.12,10.12,0,0,0,.52-2.88,4.59,4.59,0,0,0-.62-2.6,2.69,2.69,0,0,0-2.41-.93,5.66,5.66,0,0,0-2.88.86A12.72,12.72,0,0,0,277,521a26.62,26.62,0,0,0-2.54,3.18,26.28,26.28,0,0,0-3.44,7.18A10.81,10.81,0,0,0,270.49,534.29Z" fill="#f6e033"/><path d="M291.72,539.86q3.15-5.45,6.4-10.83t6.47-10.95l7.06-.25-8.17,11.51.12.13a53.08,53.08,0,0,1,4.18-4.68q1.83-1.75,3.19-2.88a26.74,26.74,0,0,1,2.29-1.7,8,8,0,0,0,1.36-1,9.4,9.4,0,0,1,1.27-1.08,4.42,4.42,0,0,1,1.39-.62,9.9,9.9,0,0,1,2-.28l2.88-.12a36.42,36.42,0,0,0-2.17,3.49,8.13,8.13,0,0,0-1,3.93,2.36,2.36,0,0,0,2.66,2.67,4.16,4.16,0,0,0,1.71-.38,8.13,8.13,0,0,0,1.58-.92c.49-.38,1-.78,1.42-1.21l1.24-1.21.24.31a14.33,14.33,0,0,1-4.08,3.53,10.06,10.06,0,0,1-5.14,1.36,5.55,5.55,0,0,1-3.9-1.3,4.92,4.92,0,0,1-1.42-3.84,5.45,5.45,0,0,1,.93-3l-.13-.12a34.31,34.31,0,0,0-4.95,4,50.83,50.83,0,0,0-4.36,4.83,60.6,60.6,0,0,0-3.72,5.23c-1.13,1.79-2.15,3.54-3.06,5.23Z" fill="#f6e033"/><path d="M353.37,523.65q-1.92,2.6-4.12,5.13a64.5,64.5,0,0,1-5.23,5.33,26.26,26.26,0,0,1-8.2,5.29,21.39,21.39,0,0,1-7.4,1.46,7.42,7.42,0,0,1-5.57-2.11,7.5,7.5,0,0,1-2-5.45,11.15,11.15,0,0,1,1.79-5.88,21.83,21.83,0,0,1,4.52-5.2,24.81,24.81,0,0,1,6-3.71,15.28,15.28,0,0,1,6.15-1.42,7.25,7.25,0,0,1,4.15,1,3.3,3.3,0,0,1,1.49,2.88,4.19,4.19,0,0,1-1,2.72,10.64,10.64,0,0,1-2.63,2.23,20,20,0,0,1-3.63,1.73c-1.34.5-2.67.93-4,1.3s-2.56.68-3.71.93l-2.85.62a9.09,9.09,0,0,0-.31,2.23,6.29,6.29,0,0,0,1.49,4.33,5.26,5.26,0,0,0,4.14,1.67,13.07,13.07,0,0,0,5.73-1.55,26.28,26.28,0,0,0,6.28-4.51q2.42-2.3,4.64-4.8t3.9-4.68Zm-13.43-4.21a1.5,1.5,0,0,0-.47-1.24,1.86,1.86,0,0,0-1.21-.37,5.8,5.8,0,0,0-3.34,1.3,18.64,18.64,0,0,0-3.37,3.19,29.53,29.53,0,0,0-2.79,4,13.78,13.78,0,0,0-1.57,3.62,18.8,18.8,0,0,0,4.82-1.64,21.24,21.24,0,0,0,4.06-2.6,13.46,13.46,0,0,0,2.81-3.1A5.83,5.83,0,0,0,339.94,519.44Z" fill="#f6e033"/><path d="M378.56,523.9q-2.3,2.77-4.95,5.78a47.72,47.72,0,0,1-5.73,5.48,31.39,31.39,0,0,1-6.56,4.09,17.54,17.54,0,0,1-7.4,1.61,7.64,7.64,0,0,1-5.69-2,8.09,8.09,0,0,1-2-5.91,11.12,11.12,0,0,1,1.73-5.82,20,20,0,0,1,4.46-5.07,23.65,23.65,0,0,1,6-3.59,16.54,16.54,0,0,1,6.38-1.36,7.92,7.92,0,0,1,4.52,1.14,3.36,3.36,0,0,1,1.67,2.82,4.82,4.82,0,0,1-.47,2.13,5,5,0,0,1-1.2,1.61,5.17,5.17,0,0,1-1.67,1,5.31,5.31,0,0,1-1.86.34,7.64,7.64,0,0,1-1.43-.12q.44-1.43.93-2.91a9.35,9.35,0,0,0,.5-3,2.6,2.6,0,0,0-.5-1.67,1.65,1.65,0,0,0-1.36-.62,7.09,7.09,0,0,0-3.65,1.27,16.31,16.31,0,0,0-3.84,3.4,20.76,20.76,0,0,0-3,4.89,13.78,13.78,0,0,0-1.24,5.73,5.91,5.91,0,0,0,1.42,4,5,5,0,0,0,4,1.64,12.33,12.33,0,0,0,6-1.67,32.81,32.81,0,0,0,5.7-4.06,52.18,52.18,0,0,0,4.92-4.95q2.22-2.57,3.77-4.42Z" fill="#f6e033"/><path d="M386.3,518.08q-2.91,4.57-5,7.83c-1.4,2.16-2.55,4-3.43,5.54a39.42,39.42,0,0,0-2,3.74,6.06,6.06,0,0,0-.65,2.38,2.38,2.38,0,0,0,.27,1.21.93.93,0,0,0,.84.47,7.49,7.49,0,0,0,3.5-1.43,34.8,34.8,0,0,0,5.66-4.89c.91-.95,1.8-1.89,2.66-2.82s1.68-1.82,2.45-2.69,1.44-1.65,2-2.35,1.08-1.26,1.45-1.67l.56.37c-.49.66-1.1,1.42-1.82,2.26s-1.5,1.73-2.33,2.66-1.67,1.85-2.53,2.76-1.72,1.77-2.54,2.6a30.11,30.11,0,0,1-6.16,5,9.86,9.86,0,0,1-4.73,1.42,4.27,4.27,0,0,1-3.16-1.11,3.94,3.94,0,0,1-1.12-2.91,7.78,7.78,0,0,1,.47-2.57,21.34,21.34,0,0,1,1.58-3.31q1.11-2,3-4.92c1.24-2,2.78-4.39,4.64-7.27Zm3.59-13.74a2.88,2.88,0,0,1,2.07.86,2.75,2.75,0,0,1,.9,2.05,3.17,3.17,0,0,1-1,2.25,3,3,0,0,1-2.23,1,3.87,3.87,0,0,1-2.35-.71,2.44,2.44,0,0,1-1-2.13,3.09,3.09,0,0,1,1.08-2.39A3.71,3.71,0,0,1,389.89,504.34Z" fill="#f6e033"/><path d="M424.92,497.16l6.93-.38q-2,3.35-4.67,7.4t-5.39,8.26q-2.75,4.21-5.41,8.33t-4.74,7.61c-1.38,2.33-2.5,4.37-3.34,6.1a10.07,10.07,0,0,0-1.27,3.78,1.71,1.71,0,0,0,.31,1.08,1.17,1.17,0,0,0,1,.4,7.88,7.88,0,0,0,3.56-1.3,23.91,23.91,0,0,0,5-4.21c1.53-1.57,3-3.19,4.4-4.86s2.93-3.6,4.58-5.78l.62.31c-.46.61-1,1.34-1.64,2.16s-1.33,1.69-2.08,2.6-1.51,1.83-2.32,2.76-1.6,1.8-2.38,2.63a37.32,37.32,0,0,1-5.69,5,10.15,10.15,0,0,1-5.82,1.86,5,5,0,0,1-2.32-.47,3.87,3.87,0,0,1-1.43-1.21,3.59,3.59,0,0,1-.65-1.61,4.67,4.67,0,0,1,.06-1.67l-.12-.12a20.29,20.29,0,0,1-4.21,3.34,10.08,10.08,0,0,1-5.26,1.36,5.45,5.45,0,0,1-2.51-.52,4.72,4.72,0,0,1-1.67-1.43,5.77,5.77,0,0,1-.93-2,10.34,10.34,0,0,1-.27-2.38,13.13,13.13,0,0,1,1.6-6.16,21.26,21.26,0,0,1,4.15-5.48,21.84,21.84,0,0,1,5.63-3.9,14.11,14.11,0,0,1,6.13-1.48,5.46,5.46,0,0,1,5.57,4Zm-28.66,41.22a6.37,6.37,0,0,0,4.12-1.89,22.72,22.72,0,0,0,3.9-4.58,29.64,29.64,0,0,0,2.87-5.6,14.28,14.28,0,0,0,1.12-5,3.08,3.08,0,0,0-3.28-3.46,6.29,6.29,0,0,0-4,1.76,21.12,21.12,0,0,0-3.81,4.31,25.85,25.85,0,0,0-2.85,5.44,14.84,14.84,0,0,0-1.11,5.2,5.14,5.14,0,0,0,.68,2.66A2.48,2.48,0,0,0,396.26,538.38Z" fill="#f6e033"/><path d="M456.36,523.83a15,15,0,0,1-2.94,2.91,6,6,0,0,1-3.74,1.3,4.73,4.73,0,0,1-2.48-.62,6.89,6.89,0,0,1-1.92-1.73,20,20,0,0,1-2.44,5.85,20.6,20.6,0,0,1-4.12,4.83,19.61,19.61,0,0,1-5.38,3.28,16.44,16.44,0,0,1-6.19,1.21,7.61,7.61,0,0,1-5.45-2,7.07,7.07,0,0,1-2-5.36,12.65,12.65,0,0,1,1.67-6.28,18.86,18.86,0,0,1,4.33-5.26,21.79,21.79,0,0,1,5.88-3.59,16.41,16.41,0,0,1,6.31-1.33,7.45,7.45,0,0,1,5.27,1.79,7.59,7.59,0,0,1,2.35,4.33,5.43,5.43,0,0,0,1.39,3,3.76,3.76,0,0,0,2.82,1.11,5.58,5.58,0,0,0,3.15-1,15.66,15.66,0,0,0,3.16-3Zm-28.78,16.28a5.47,5.47,0,0,0,3.09-1.05,15,15,0,0,0,3-2.72,26.54,26.54,0,0,0,2.63-3.78,40.25,40.25,0,0,0,2.1-4.21,27.93,27.93,0,0,0,1.39-4,13.35,13.35,0,0,0,.5-3.22,4,4,0,0,0-.65-2.42,2.45,2.45,0,0,0-2.08-.86,5.47,5.47,0,0,0-3.09,1,15,15,0,0,0-3,2.73,24.42,24.42,0,0,0-2.63,3.77,39.4,39.4,0,0,0-2.11,4.21,29.21,29.21,0,0,0-1.39,4,13.27,13.27,0,0,0-.49,3.22,3.93,3.93,0,0,0,.65,2.42A2.43,2.43,0,0,0,427.58,540.11Z" fill="#f6e033"/><path d="M459.27,539.68a19.09,19.09,0,0,0,5.85-2.32,30.8,30.8,0,0,0,5-3.84,44.74,44.74,0,0,0,4.43-4.77q2.07-2.57,4.05-5.16l.5.37c-1.65,2.14-3.3,4.24-4.95,6.28a35.61,35.61,0,0,1-5.42,5.42,26.15,26.15,0,0,1-6.44,3.77,21.08,21.08,0,0,1-8,1.43,15.5,15.5,0,0,1-3.19-.34,9.17,9.17,0,0,1-2.85-1.12,6.22,6.22,0,0,1-2-2,6,6,0,0,1-.77-3.13,7.12,7.12,0,0,1,.28-2,5.76,5.76,0,0,1,.83-1.79,4.93,4.93,0,0,1,1.39-1.34,3.6,3.6,0,0,1,1.95-.52,2.94,2.94,0,0,1,2.2.8,2.59,2.59,0,0,1,.77,1.86,2.52,2.52,0,0,1-.74,2,2.44,2.44,0,0,1-1.73.68,2.71,2.71,0,0,1-1.36-.31,7.37,7.37,0,0,0-.53,1.21,4.31,4.31,0,0,0-.22,1.33,3.54,3.54,0,0,0,1.34,2.85,4.69,4.69,0,0,0,3.12,1.11,7.22,7.22,0,0,0,2.26-.37,6.64,6.64,0,0,0,2-1.08,5.83,5.83,0,0,0,1.46-1.71,4.31,4.31,0,0,0,.55-2.16,5.71,5.71,0,0,0-.77-2.94,27.19,27.19,0,0,0-1.7-2.57,30,30,0,0,1-1.7-2.51,5,5,0,0,1-.78-2.69,5.6,5.6,0,0,1,.81-3,7.21,7.21,0,0,1,2.1-2.2,9.41,9.41,0,0,1,2.91-1.33,12.52,12.52,0,0,1,3.28-.43,9.12,9.12,0,0,1,5,1.27,4,4,0,0,1,2,3.62,4,4,0,0,1-1.18,2.94,4.1,4.1,0,0,1-3,1.14,5.38,5.38,0,0,1-1-.09,3.89,3.89,0,0,1-.78-.22,9.09,9.09,0,0,0,1-2.44,10.39,10.39,0,0,0,.28-2.39,3.48,3.48,0,0,0-.71-2.16,2.54,2.54,0,0,0-2.14-.93,3.32,3.32,0,0,0-2.66,1.08,4,4,0,0,0-.93,2.7,6,6,0,0,0,.78,3.06,25.37,25.37,0,0,0,1.7,2.57,22.79,22.79,0,0,1,1.7,2.6,6.37,6.37,0,0,1,.78,3.22,6.71,6.71,0,0,1-.41,2.29,7.27,7.27,0,0,1-1.08,2,6.93,6.93,0,0,1-1.52,1.45,4.52,4.52,0,0,1-1.76.77Z" fill="#f6e033"/></svg>