<svg id="Camada_1" data-name="Camada 1" xmlns="http://www.w3.org/2000/svg" viewBox="0 0 595.28 595.28"><title>A</title><rect id="Retângulo_371" data-name="Retângulo 371" x="-0.32" width="595.28" height="595.28" fill="#f6e033"/><path d="M81.56,280.89a52.31,52.31,0,0,1-5.46.35q-12-.18-18.57-5.26a30,30,0,0,1-9.63-13.06,12.74,12.74,0,0,1-.76-3q-.69-5.72,6.53-8.43a19.46,19.46,0,0,1,4.24-1.12q3.95-.27,4.35,3l.18,4.06a9.53,9.53,0,0,0,4.86,7.37,14.5,14.5,0,0,0,8.32,1.34q10.55-1.27,20.56-12.06,7.8-8.07,6.29-20.63-.73-6.12-6.14-12-5.76-6.35-34.07-11.7T29.05,186.7a50.47,50.47,0,0,1-1.17-6.28q-1.75-14.67,6.53-28.82a86.53,86.53,0,0,1,28.3-29.09q18.06-11.66,34.14-13.59,18.09-2.17,29.63,6.53a38.37,38.37,0,0,1,9,10.73c2.62,4.79,4.08,8.52,4.41,11.2a12.41,12.41,0,0,1-1.32,6.88,10.1,10.1,0,0,1-8.28,5.69q-9.56,1.14-11.41-9.23-2-11.68-9.87-15.94a13.37,13.37,0,0,0-8.26-1.76q-9.65,1.17-21.35,10.63a119.65,119.65,0,0,0-16,15.73q-7.9,9.27-10,15.53A33.33,33.33,0,0,0,52,179.55,12.27,12.27,0,0,0,56.48,188q3.78,3.06,13.9,4.19,32.52,4.25,43.93,17.75a35.1,35.1,0,0,1,5.82,11.53,67,67,0,0,1,2.67,11.6q1.5,12.46-6.48,24.94a49.23,49.23,0,0,1-15.85,15.67Q90.7,279.78,81.56,280.89Z" fill="#1d1d1b"/><path d="M145.92,253.26a11.3,11.3,0,0,1-9.28-2.55q-5.47-4.94-7.14-18.71a83.52,83.52,0,0,1,.93-22.74,144.5,144.5,0,0,1,7.5-27.46q4.83-12.35,9.06-14.49a48.21,48.21,0,0,1,5.91-.91q4.51-.56,8.42,3.87a18.34,18.34,0,0,0,4.35,4,27.47,27.47,0,0,1,10.19,10.2,33.05,33.05,0,0,1,4.07,12.65,45.9,45.9,0,0,1-.15,11.44A68.92,68.92,0,0,1,170.63,235q-7.27,12.3-18,16.44A26.83,26.83,0,0,1,145.92,253.26Zm3.33-12.12q5.43-.64,11.68-10.58a57.45,57.45,0,0,0,6.19-12.87,43.15,43.15,0,0,0,2.14-8.52,52.17,52.17,0,0,0-.32-12.8,26.17,26.17,0,0,0-.65-3.69q-1-3.45-5-7.56c-.78-.79-1.34-1.2-1.68-1.22q-1,.12-6.51,12.86A159.4,159.4,0,0,0,147.86,216q-2.24,9.34-2,14c.17,3.11.29,5,.37,5.66Q146.94,241.42,149.25,241.14Z" fill="#1d1d1b"/><path d="M273.93,237q-2.32.18-7-2.41-8.18-6.15-10.1-22.13a145,145,0,0,1-.09-28.73c.47-5.63.67-9.06.6-10.27,0-.33-.14-.53-.28-.58q-.71.09-4.14,6.21-7.85,13.68-13.9,42-3,13.72-3.93,16.47a5,5,0,0,1-4.46,3.6q-8.34,1-10.85-10.52a167.13,167.13,0,0,1-1.19-20q.75-11.51,1.7-20.59.66-4.67,1.34-11.78-10,13.74-17.14,47.32-3,13.73-3.93,16.48a5,5,0,0,1-4.46,3.59q-8.34,1-10.85-10.52a167.13,167.13,0,0,1-1.19-20q.77-11.5,1.7-20.59.67-4.67,1.34-11.78,1.32-13.52,4-19.54c.71-1.44,2.73-2.37,6.09-2.77a6.71,6.71,0,0,1,5,1.84,11.68,11.68,0,0,1,4.18,7.65q.55,4.63-1.34,13.42-2.43,11.19-2.34,11.9a83.46,83.46,0,0,0,3.76-7.69q10.28-23.87,14.08-26.62a15.18,15.18,0,0,1,6.71-3.1,11.34,11.34,0,0,1,5.05.51q5.63,1.77,6.48,5.09a41.35,41.35,0,0,1,1.08,5.22,120.28,120.28,0,0,1,.07,16.6,15.49,15.49,0,0,0,1.06-2.16q12.45-28.71,22.59-29.94,6.54-.78,9.2,1.9a10.24,10.24,0,0,1,3.08,6.1q.44,4.44-1.81,23.06-2.21,27.48-.9,39.14c.13,1.08.28,2,.46,2.91q.65,3.69.93,6.1Q274.94,236.92,273.93,237Z" fill="#1d1d1b"/><path d="M288.47,242.63c-1.34.17-2.84-.44-4.5-1.8q-2-2.31-3-10.34a153.65,153.65,0,0,1-.85-16.41q-.36-22.49,2.06-51.93a526.69,526.69,0,0,1,7.15-54.48q1.75-9.18,3.8-17.58t4.29-16q2.24-7.6,3.32-8.86a3.82,3.82,0,0,1,2.48-1.42q2.91-.34,6.58,3.9,3.29,3.57,4.06,10a49.35,49.35,0,0,1-1,16.84q-3.89,16.88-8.49,39.55a382.82,382.82,0,0,0-6.45,52.35q7.54-24.55,17-33,8.37-7.44,16.72-8.44,10.95-1.3,16.54,6.17a29,29,0,0,1,5.51,13.61q1.23,10.25-3.72,28t-9.86,24.33a42.08,42.08,0,0,1-10.84,9.87,29.2,29.2,0,0,1-12,4.7q-4,.48-10.57-1.94a24,24,0,0,1-10.37-7c-.54.07-1.25,3.31-2.14,9.74S291.41,242.28,288.47,242.63Zm14.72-25.93q9.74-1.17,12.28-2.09a16.5,16.5,0,0,0,5.13-3.16q5.5-5,9-17.9t3.72-17.37a43.6,43.6,0,0,0,0-6.12,9.78,9.78,0,0,0-3.26-6.74,4,4,0,0,0-3.07-1q-2.72.33-8.57,6.74-8.67,9.19-14.38,27t-5.5,19.52Q298.77,217.24,303.19,216.7Z" fill="#1d1d1b"/><path d="M360.93,230.65a5,5,0,0,1-3.65-.68,4.56,4.56,0,0,1-2.06-3.52A63.07,63.07,0,0,1,355.4,216q1.69-20.59,4.56-41.73,3.71-27.66,6.17-31.73a4.7,4.7,0,0,1,3.32-2,11.6,11.6,0,0,1,7.72,1.92q3.81,2.4,4.07,4.61l0,.61q-1.05,8.28-.8,10.29l.11.09Q381,158,387,149t8.34-10.28a11.92,11.92,0,0,1,3.66-1.41c5-.59,7.87-.52,8.74.23s1.53,3,2,6.74q.31,2.61,1.83,14.31t4.16,13.82c1.76,1.42,2.68,2.39,2.74,2.93q-.59,4.45-7.71,5.31a28.53,28.53,0,0,1-4.06.18q-11-.09-14-25.22-10.46,12.27-16.59,38.79t-8.8,31.08Q364.63,230,360.93,230.65Z" fill="#1d1d1b"/><path d="M490.49,215.47a28.43,28.43,0,0,1-3.64.23q-12.27-.25-16.1-9.27A39.37,39.37,0,0,1,468,195q-.36-3-.56-6.35-11.14,16.63-21.15,24.15-5.22,4-9.75,4.54a13.35,13.35,0,0,1-10.23-2.85q-5.67-3.9-6.78-13.15a50.92,50.92,0,0,1,.08-11.22A85.4,85.4,0,0,1,437,145.66q6.8-8.78,11.53-12.2a23.83,23.83,0,0,1,11.27-4.21,27.46,27.46,0,0,1,10.56.92q5.53,1.53,7.74,4.63,5.88-8,12.81-8.78a9.68,9.68,0,0,1,6,1.27c2,1.09,3,2.4,3.23,3.94s-.88,5.72-3.18,12.52q-13.65,37.41-11.24,57.41c.05.4.22,1.3.53,2.69s1.66,1.94,4.07,1.65a6.21,6.21,0,0,0,1.77-.52q5-1.81,13.22-28.24t23.49-36q9.08-6,17.11-6.95,18.58-2.24,21,18.06a54,54,0,0,1,.34,7.09q-10.8-3.39-19.34-2.36a28.93,28.93,0,0,0-8.59,2.36,38.93,38.93,0,0,0-17.49,17.29q-6.23,11.76-14.59,25.3Q499.34,214.41,490.49,215.47ZM442,200.41c.87-.11,2.24-1.15,4.11-3.15a132.9,132.9,0,0,0,18.73-28.55q8.34-16.69,8-19.21a8.24,8.24,0,0,0-2.23-4.12,5.12,5.12,0,0,0-4.62-2q-4.23.51-11.11,8.47t-11.5,20.55q-5.24,14.91-4.1,24.35Q439.79,200.68,442,200.41Z" fill="#1d1d1b"/><path d="M148.7,404q-12.22.6-17.24-14.31A37.21,37.21,0,0,1,129,378.23a34.61,34.61,0,0,1,1.11-10.5,53,53,0,0,1,8.74-20.56l3.42-4.7-1.89-2.55a20.86,20.86,0,0,1-1.7-24.38q7.81-13.55,26-15.69l2.38-.24q12.3-.62,19.76,10.47a29.45,29.45,0,0,1,4.89,11.05,68.56,68.56,0,0,1,1.2,9,36.21,36.21,0,0,1,0,3.9q-.44,9-6.22,25.6-9.93,28.29-24.14,38.61Q155,403.69,148.7,404Zm-.33-8.1a15,15,0,0,0,5.53-1.37,25.78,25.78,0,0,0,6.55-4.92,63.59,63.59,0,0,0,7.09-8.05q4.59-6.45,9.18-17.91a146.28,146.28,0,0,0,7.12-22.78,41.93,41.93,0,0,0,1-11.24q-.62-12.5-8-18.92a14.48,14.48,0,0,0-9.23-2.32,12.15,12.15,0,0,0-3.8.76,24.36,24.36,0,0,0-9.31,7.63,19.09,19.09,0,0,0-4,12.4,16.49,16.49,0,0,0,1.14,5.35q5.64-6.81,10.6-7.06a4,4,0,0,1,2.09.4,5.64,5.64,0,0,1,2.87,3.32,4.6,4.6,0,0,1,.61,2A7.61,7.61,0,0,1,167,337q-1.65,3.29-7.57,9.74a182.15,182.15,0,0,0-12.33,14.7,29.9,29.9,0,0,0-4.79,9.36,38.63,38.63,0,0,0-1.4,12.4q.53,10.61,4.51,12.42A9.71,9.71,0,0,0,148.37,395.89Z" fill="#1d1d1b"/><path d="M240.45,425l-.63,0q-5.15.25-8.51-5.5a11.1,11.1,0,0,1-1.48-3.26,2.38,2.38,0,0,1,.74-1.54q.93-1.5,1.68-1.53a9.3,9.3,0,0,1,3.47,1.4,6.88,6.88,0,0,0,3.08,1.17,4.19,4.19,0,0,0,1.84-.85q3.65-2.62,6.19-8.42,4-8.86,10-43.2a56.13,56.13,0,0,0,.84-6l-.07-.06q-.56.09-6,7.53t-8.6,11.08a22.19,22.19,0,0,1-5.55,4.9,13.15,13.15,0,0,1-5.21,1.58,7.31,7.31,0,0,1-3.49-.65,7.15,7.15,0,0,1-5-6.86l-.06-1.13q-.69-14.06,9.28-28.76,7.1-10.41,13.19-10.72a10.68,10.68,0,0,1,8.81,4,8.91,8.91,0,0,1,2.63,4.84c.09,1.09.33,1.7.72,1.82a3.41,3.41,0,0,0,1.26.16,19.42,19.42,0,0,0,3.25-.47l.38,0q5.58-.29,5.88,5.68.21,4.53-1.93,18.4a182.44,182.44,0,0,1-6,27.22q-3.74,12.13-5.93,16.08a41.73,41.73,0,0,1-3.53,5Q245.83,424.37,240.45,425Zm-6.61-51q3-1,21.39-25.58c-2.53-2-3.92-3.35-4.16-4a.9.9,0,0,0-.9-.46q-2.07.17-7.72,6.73a43,43,0,0,0-6.11,10.11q-3.59,7.86-3.38,11.94c0,.87.28,1.3.7,1.28Z" fill="#1d1d1b"/><path d="M310.28,384.21a8.11,8.11,0,0,1-4.79-1.47q-3.33-2.22-4.38-14.75c-.34,0-1.91,2.08-4.73,6.21q-7.53,10.5-13.74,10.8a8.57,8.57,0,0,1-6.16-2.34q-4.28-3.87-4.76-11.09l-.06-1.31a36.34,36.34,0,0,1,1.69-12.92,46,46,0,0,1,8.08-14.68q6.06-7.28,9.91-8.28a31.18,31.18,0,0,1,5.11-1.07,9.37,9.37,0,0,1,7.84,3.51c.36.48.65.72.86.71s1-1.09,2.17-3.22,2.5-3.24,4.05-3.31a6.46,6.46,0,0,1,4,1.44,5.85,5.85,0,0,1,2.75,4.77q.15,3.14-1.91,9.84a94.09,94.09,0,0,0-3.34,16.37,85.81,85.81,0,0,0-.84,12.33,9,9,0,0,0,1,4.48,3.75,3.75,0,0,1,.71,1.79c.05.88-.57,1.52-1.85,1.92A7.62,7.62,0,0,1,310.28,384.21Zm-25.76-8.3q1.62-.07,9.33-11.09,6.06-8.28,7.24-11.24a23.53,23.53,0,0,0,1.45-7.62,2.76,2.76,0,0,0-1.61-2.12,4.53,4.53,0,0,0-2.77-1.25c-.79,0-2.1.84-3.91,2.4a37.05,37.05,0,0,0-11.17,26c.12,2.55.34,4,.65,4.4S284.31,375.92,284.52,375.91Z" fill="#1d1d1b"/><path d="M323.85,400.46h-1.07q-3.66-.19-4.32-13.56-1.05-21.34,6-52.13l2.21-10q-13.94,2-16.5,2.07-3.33.17-3.6-5.29c-.1-2.05.27-3.45,1.11-4.21.65-.62,3.22-1,7.74-1.26s9.08-.47,13.68-.74l3.67-11q3.28-11.23,4.9-13.57a5.7,5.7,0,0,1,4.69-2.5,3.41,3.41,0,0,1,2.45,1.26q1.59,1.5,1.8,5.77a54.88,54.88,0,0,1-1.07,11.56L344,314.8q17.88.38,21.2,1.28a2.41,2.41,0,0,1,1.62,2.19,2.77,2.77,0,0,1-1.15,2.32c-.69.49-3.14.84-7.37,1.05l-7.53.25a69.21,69.21,0,0,0-9,.88l-4.08,15.55q-8.7,32.58-9.26,44.37-.7,15-1.17,15.9C326.72,399.75,325.6,400.37,323.85,400.46Z" fill="#1d1d1b"/><path d="M341.75,382h-.19a1.88,1.88,0,0,1-1-.27A3.61,3.61,0,0,1,338,378.5c-.17-1.63-.28-3.05-.34-4.26a71.79,71.79,0,0,1,.46-9.84,156.54,156.54,0,0,1,3.66-24.58q2.36-9.12,5.14-10.07a9.09,9.09,0,0,1,1.44-.2q3,0,4.95,3.54a10.08,10.08,0,0,1,1.3,4.77,31.71,31.71,0,0,1-1.1,8.3q-1.29,5.59-4.53,16.58-3.3,12.24-3.67,14.74a5.86,5.86,0,0,1-1.47,3.5A3.42,3.42,0,0,1,341.75,382ZM352.64,326a8.8,8.8,0,0,1-1.71-.23c-1.8-.63-2.8-2.21-3-4.76a14.82,14.82,0,0,1,.44-4q.83-3.5,5.72-3.86a4.12,4.12,0,0,1,4.12,2,5.16,5.16,0,0,1,.48,2,9.93,9.93,0,0,1-1.81,5.53Q354.95,325.77,352.64,326Z" fill="#1d1d1b"/><path d="M390.26,379.76c-1,.05-2.5-.52-4.49-1.73q-5.29-4.2-5.81-14.62a86.67,86.67,0,0,1,1.16-17.23,51,51,0,0,0,.76-6.39c0-.21,0-.31-.08-.31q-.51,0-3,3.67-5.7,8.21-10.82,25.57-2.54,8.43-3.28,10.1a3.33,3.33,0,0,1-3.16,2.11q-5.46.27-6.57-6.91l-.17-2.19a86.45,86.45,0,0,1,.18-10.27q1-7.15,2-12.74c.41-1.91.85-4.31,1.34-7.2a67.91,67.91,0,0,1,1.59-7.32,26.14,26.14,0,0,1,1.78-4.71q.87-1.36,4.52-1.54a4.16,4.16,0,0,1,2.83,1.37,6.38,6.38,0,0,1,2,2.89,10.37,10.37,0,0,1,.45,2.15,27.56,27.56,0,0,1-1.42,8.12c-1.37,4.55-2.05,7-2,7.27.08,0,1-1.54,2.79-4.6q9.39-17.52,16.23-17.85c2.76-.14,4.69.38,5.8,1.54a6,6,0,0,1,1.76,3.87q.13,2.78-2.06,14.26-2.57,16.92-2.21,24.2c0,.67.09,1.28.15,1.82.21,1.54.33,2.81.38,3.82C390.9,378.79,390.72,379.74,390.26,379.76Z" fill="#1d1d1b"/><path d="M402.73,380.16q-6.53.31-6.77-4.77a68.7,68.7,0,0,1,1.26-12.76q1.44-8.88,8.87-46.55T415.28,276c1.18-1.63,2.41-2.48,3.71-2.55q2.76-.14,4.72,3.23a13.92,13.92,0,0,1,2.1,6.31,9.64,9.64,0,0,1-.11,2.09,15,15,0,0,1-1.38,3.43q-1.2,2.41-13.65,63.8,8.28-14.44,13.05-20.52c3.17-4.06,5.75-6.35,7.71-6.86a23.11,23.11,0,0,1,4.08-.83,5.67,5.67,0,0,1,4.55,1.6,10.15,10.15,0,0,1,2.89,5.11,31.09,31.09,0,0,1,.57,3.84,34.62,34.62,0,0,1-1,9q-3.48,15.15-3,24.18a6.61,6.61,0,0,0,.65,2.93,8.88,8.88,0,0,1,1.25,3.64,3.06,3.06,0,0,1-.47,1.92,2.26,2.26,0,0,1-1.9,1.1q-2.58.12-5.23-2.67t-3.17-13.46a99.15,99.15,0,0,1,1.1-19.62Q433,334,433,333.25q0-.25-.21-.24-1.19.06-9.86,12.94a147.48,147.48,0,0,0-12.83,22.36q-4.17,9.49-4.91,10.78A3.33,3.33,0,0,1,402.73,380.16Z" fill="#1d1d1b"/><path d="M452.65,377.07q-8.53.42-9.24-13.89a51.77,51.77,0,0,1,1.58-14,89.77,89.77,0,0,1,5.84-16.68q3.54-7.44,6.25-8.57a27.91,27.91,0,0,1,3.7-.31c1.88-.1,3.56.83,5,2.77a3.28,3.28,0,0,1,.65,1.73,3.52,3.52,0,0,1-.59,2q5.78,1,8.05,5.14l1.23-3.15q5-12.82,12.93-17.05a20.27,20.27,0,0,1,8.73-2.82,12,12,0,0,1,4.88.73,6.63,6.63,0,0,1,3.56,3.13,13.66,13.66,0,0,1,1.42,5.84,28.43,28.43,0,0,1-.08,3.53,23.18,23.18,0,0,0-9.53-1.86,13.88,13.88,0,0,0-4.36.91,19.43,19.43,0,0,0-9.29,7.94q-3.21,5.13-7.27,10.86a30.09,30.09,0,0,1-.57,7.58,42.85,42.85,0,0,1-6.82,16q-5.06,7.29-11.87,9.39A17,17,0,0,1,452.65,377.07Zm2.6-7.36q3.39-.16,7.69-6a31.78,31.78,0,0,0,6.19-13.52,7.16,7.16,0,0,1-2.73.7c-3.77.19-6.52-.79-8.26-2.92q-4.39,9.21-4.5,14.75c0,1.93,0,3.1,0,3.52C453.75,368.58,454.28,369.75,455.25,369.71Zm11.4-23.84a3.83,3.83,0,0,0,2.81-1.84l-.06-1.19c-.13-2.59-.69-3.86-1.7-3.82a6.63,6.63,0,0,0-2.07.74c-1,.46-1.41,1.43-1.34,2.89l.11.82Q464.84,346,466.65,345.87Z" fill="#1d1d1b"/><path d="M145.88,525.46a7.07,7.07,0,0,1-3.43-.77,2.21,2.21,0,0,1-1.6-1.81,55.13,55.13,0,0,1-.68-7.39q-.28-5.78.66-21l-18.73,2.93-2.42,8.18a39.29,39.29,0,0,0-1.91,11.1l.12,2.45c0,2.55-.47,4.17-1.4,4.84a6.33,6.33,0,0,1-3.64,1.32,7.75,7.75,0,0,1-3.9-1.16,4.4,4.4,0,0,1-2.39-3.88,7.24,7.24,0,0,1,1.55-4.23,19.08,19.08,0,0,0,2.56-5.6,345.49,345.49,0,0,1,13.25-36.88,411.7,411.7,0,0,1,18-38.07,98.12,98.12,0,0,1,7.14-12.11q2.37-3.07,4.44-3.18a6.34,6.34,0,0,1,4.41,2,13.31,13.31,0,0,1,3.49,5.24,21.83,21.83,0,0,1,.68,4.81q.46,9.48-3.46,28-3,13.47-5,25.47T150,513.06q-1.32,11.64-2.37,11.94A3.8,3.8,0,0,1,145.88,525.46Zm-19.32-35.91a2.74,2.74,0,0,0,.75-.16c2.25-.36,4.6-.65,7.07-.85a38.14,38.14,0,0,0,6.36-1.13c.82-.21,1.54-2.74,2.14-7.59q1.1-8.29,4-25.3,3-16.68,2.94-18.2-1.12.06-12.42,24.83-11.82,25.75-11.71,28Q125.69,489.6,126.56,489.55Z" fill="#1d1d1b"/><path d="M167.61,512.06l-.94.05a3,3,0,0,1-2.36-.76q-2.77-2.64-3.57-18.76-.35-7-.18-15.22.31-16.62,1.78-20a3.77,3.77,0,0,1,3.32-1.68,7.29,7.29,0,0,1,5.11,1.67,6.23,6.23,0,0,1,2.51,3.74c.19,1.3.3,2.17.32,2.63a85.1,85.1,0,0,1-.82,12.69,102.26,102.26,0,0,0-1,11.11c0,.38.09.56.21.56.38,0,1.44-2.23,3.2-6.64q7.26-17.34,17.38-28.91,9.46-11.1,18.11-14.29a18.21,18.21,0,0,1,5.65-1.54,3.3,3.3,0,0,1,3.2,1.29,1.7,1.7,0,0,1,.43,1,2.45,2.45,0,0,1-.86,1.8,35.55,35.55,0,0,1-6.57,4.48,63.46,63.46,0,0,0-16.5,14.9,88.75,88.75,0,0,0-12.79,21.39L179,491.81q-7.14,17.34-9.12,19.14A4.58,4.58,0,0,1,167.61,512.06Z" fill="#1d1d1b"/><path d="M205.89,510.18q-5.7.29-7.83-.62-6.17-2.6-6.66-12.63a61.92,61.92,0,0,1,1.42-14.6,54.1,54.1,0,0,1,4.76-13.26,32.18,32.18,0,0,1,7-9.65c1.89-1.52,4.77-2.38,8.62-2.57,2.71-.13,5.13,1.16,7.23,3.86a13,13,0,0,1,2.57,7.42l0,2.2q-1.45,10-18.47,18.34a62.87,62.87,0,0,0-.7,10,13.63,13.63,0,0,0,.63,3.75,2,2,0,0,0,2,.91,7.35,7.35,0,0,0,4.12-1.94q2.24-1.83,8.81-9.61c4.37-5.19,6.88-7.8,7.5-7.83a.76.76,0,0,1,.45.11c1.39.14,2.12.83,2.18,2.09q.13,2.7-6.11,10.74t-9.58,10.54a11.88,11.88,0,0,1-5,2.35C207.44,510,206.44,510.15,205.89,510.18Zm-.48-26.52q9.75-6.33,10.56-10.34a9.72,9.72,0,0,0,.25-2.46c-.09-1.84-.87-2.73-2.33-2.65-1.76.08-3.53,1.89-5.33,5.42A37.21,37.21,0,0,0,205.41,483.66Z" fill="#1d1d1b"/><path d="M258.35,507.41q-1.52.07-4.49-1.73-5.31-4.2-5.82-14.62a86.71,86.71,0,0,1,1.17-17.23,48.5,48.5,0,0,0,.75-6.39c0-.21,0-.32-.08-.31-.33,0-1.34,1.24-3,3.67Q241.17,479,236,496.37q-2.55,8.42-3.28,10.1a3.33,3.33,0,0,1-3.17,2.1q-5.46.27-6.57-6.91l-.17-2.19a86.45,86.45,0,0,1,.19-10.26q1-7.17,2-12.74.62-2.87,1.35-7.21a63.18,63.18,0,0,1,1.59-7.31,24.85,24.85,0,0,1,1.78-4.71c.58-.91,2.09-1.43,4.51-1.55a4.23,4.23,0,0,1,2.84,1.37,6.4,6.4,0,0,1,2,2.89,11.31,11.31,0,0,1,.46,2.15,27.6,27.6,0,0,1-1.43,8.12c-1.37,4.56-2,7-2,7.27a53,53,0,0,0,2.79-4.6q9.39-17.5,16.23-17.85,4.15-.19,5.8,1.54a5.94,5.94,0,0,1,1.77,3.88q.14,2.76-2.07,14.25-2.56,16.92-2.2,24.2c0,.67.08,1.28.15,1.82.2,1.54.33,2.82.38,3.82C259,506.43,258.8,507.38,258.35,507.41Z" fill="#1d1d1b"/><path d="M269.87,524.26H268.8q-3.66-.19-4.32-13.56-1.05-21.33,6-52.13l2.21-10q-13.92,1.94-16.5,2.07-3.33.17-3.6-5.3c-.1-2.05.27-3.45,1.12-4.2q1-.93,7.74-1.27t13.67-.73l3.68-11q3.27-11.23,4.89-13.58a5.71,5.71,0,0,1,4.69-2.49,3.43,3.43,0,0,1,2.46,1.26c1.05,1,1.65,2.91,1.79,5.76a54.16,54.16,0,0,1-1.07,11.56L290,438.6q17.89.39,21.2,1.29a2.41,2.41,0,0,1,1.62,2.18,2.78,2.78,0,0,1-1.14,2.32q-1,.75-7.37,1.06l-7.54.24a68.45,68.45,0,0,0-9,.89l-4.08,15.55q-8.71,32.56-9.27,44.36-.7,15-1.16,15.91C272.75,523.56,271.63,524.18,269.87,524.26Z" fill="#1d1d1b"/><path d="M366.57,513.15l-2.26.05a9.44,9.44,0,0,1-8.17-5,14.38,14.38,0,0,1-1.91-6.89q-.33-6.41,3.11-15.88,4.26-11.85,4-16.87a6.83,6.83,0,0,0-.58-2.67q-1.11-2.22-10.9-6.76-7.12,27.78-14.07,37.36-5.94,8.29-13.54,8.66a17.68,17.68,0,0,1-2.52-.06,6.73,6.73,0,0,1-4.93-3q-2-3-2.25-8.82a56.39,56.39,0,0,1,.47-9.59Q301.83,500.17,298.89,503a10.73,10.73,0,0,1-4.38,2.51,20.63,20.63,0,0,1-2.59.41q-7.85.39-8.39-10.78-.46-9.3,2.87-26.13a82,82,0,0,1,2.48-10.78,10.18,10.18,0,0,1,2.19-4.1,5.69,5.69,0,0,1,3.47-1,4,4,0,0,1,4.33,2.24,8.13,8.13,0,0,1,1.48,4.64A39.92,39.92,0,0,1,299,470.31q-4.58,18.27-4.26,24.61,0,.94.36.93,1-.06,9.09-12.09a95.06,95.06,0,0,0,8.74-14.86l5.54-12q2.43-5.4,4.19-5.49c2.05-.1,3.45.17,4.19.8a9.2,9.2,0,0,1,2.46,4,7.42,7.42,0,0,1,.5,2.36q0,2.21-2.28,10a110.33,110.33,0,0,0-4.1,24c0,.85,0,1.6,0,2.27.11,2.26.62,3.37,1.55,3.32a2.23,2.23,0,0,0,1.23-.56q7.88-6,16.52-41.26-11.85-3.19-12.24-11,.17-9.45,6.06-12.38a11.8,11.8,0,0,1,4.59-1.23q9.92-.5,10.57,12.69c.05,1.12.05,3.16,0,6.1q21.57,4.79,22.13,16.4.24,4.69-4.8,21.24a37.82,37.82,0,0,0-1.78,12.36,17.87,17.87,0,0,0,4.67,11.72A20.25,20.25,0,0,1,366.57,513.15Zm-22.52-64a23.64,23.64,0,0,0,.53-5.69q-.22-4.51-3.12-5.88a4.61,4.61,0,0,0-2-.41q-2.57.13-2.66,4.6l0,.69Q337,447.55,344.05,449.15Z" fill="#1d1d1b"/><path d="M391.89,501q-5.72.28-7.83-.62-6.17-2.59-6.66-12.63a61.4,61.4,0,0,1,1.42-14.6,54.1,54.1,0,0,1,4.76-13.26,32,32,0,0,1,7-9.65q2.84-2.28,8.61-2.57,4.08-.19,7.24,3.86A13.06,13.06,0,0,1,409,459l0,2.2q-1.46,9.94-18.47,18.34a61.7,61.7,0,0,0-.7,10,13.66,13.66,0,0,0,.62,3.75,2,2,0,0,0,2,.91,7.38,7.38,0,0,0,4.12-1.94q2.24-1.83,8.8-9.61t7.51-7.83a.76.76,0,0,1,.45.11,2.09,2.09,0,0,1,2.18,2.09q.13,2.7-6.11,10.74t-9.58,10.54a11.88,11.88,0,0,1-5,2.35C393.43,500.87,392.43,501,391.89,501Zm-.49-26.52q9.75-6.33,10.56-10.34a9.79,9.79,0,0,0,.26-2.46c-.09-1.84-.87-2.73-2.33-2.65q-2.64.12-5.33,5.42A37.54,37.54,0,0,0,391.4,474.5Z" fill="#1d1d1b"/><path d="M469.55,508.08l-2.26.05a9.45,9.45,0,0,1-8.18-5,14.52,14.52,0,0,1-1.91-6.89q-.31-6.41,3.12-15.88,4.26-11.85,4-16.87a6.63,6.63,0,0,0-.57-2.67q-1.11-2.22-10.9-6.76-7,26.44-14.62,39.09-5.82,9.47-14.42,9.89a18.21,18.21,0,0,1-4.42-.35q-9.58-1.85-10.21-14.4a42.27,42.27,0,0,1,.2-6.24,154.35,154.35,0,0,1,3.66-24.59q2.35-9.1,5.14-10.06a8.08,8.08,0,0,1,1.43-.2c2,0,3.67,1.16,5,3.53a10.24,10.24,0,0,1,1.3,4.78,32.09,32.09,0,0,1-1.1,8.29q-1.29,5.61-4.13,18.39a30,30,0,0,0-.93,7.78q.25,5.4,4.53,5.19,5.78-.28,10.14-10,4.75-10.74,10.9-34-11.48-3.09-11.85-10.87.17-9.43,6.05-12.37a12,12,0,0,1,4.6-1.24q9.92-.48,10.56,12.69c.06,1.13.05,3.17,0,6.11q21.56,4.78,22.13,16.39.24,4.71-4.8,21.25a37.54,37.54,0,0,0-1.78,12.35,17.87,17.87,0,0,0,4.66,11.73A20.09,20.09,0,0,1,469.55,508.08Zm-45.64-64.5a8.2,8.2,0,0,1-1.71-.23q-2.68-.93-3-4.76a14.7,14.7,0,0,1,.43-4q.84-3.5,5.72-3.87a4.14,4.14,0,0,1,4.13,2,4.94,4.94,0,0,1,.47,2,10,10,0,0,1-1.8,5.53Q426.23,443.41,423.91,443.58Zm23.11.5a23.24,23.24,0,0,0,.54-5.69q-.22-4.51-3.12-5.88a4.64,4.64,0,0,0-2-.41q-2.58.13-2.67,4.6l0,.69Q440,442.48,447,444.08Z" fill="#1d1d1b"/><path d="M488.48,496.45q-8.53.42-9.24-13.89a51.41,51.41,0,0,1,1.57-14,89.19,89.19,0,0,1,5.85-16.67q3.52-7.44,6.24-8.58a28.11,28.11,0,0,1,3.7-.31q2.82-.13,5,2.77a3.2,3.2,0,0,1,.65,1.73,3.5,3.5,0,0,1-.59,2q5.78,1,8.05,5.14l1.23-3.14q5-12.84,12.94-17.06a20.19,20.19,0,0,1,8.73-2.82,12.1,12.1,0,0,1,4.88.74,6.59,6.59,0,0,1,3.55,3.12,13.53,13.53,0,0,1,1.42,5.85,28.31,28.31,0,0,1-.08,3.52,23.15,23.15,0,0,0-9.53-1.86,13.88,13.88,0,0,0-4.36.91,19.43,19.43,0,0,0-9.29,7.94Q516,456.91,512,462.65a30,30,0,0,1-.57,7.57,42.69,42.69,0,0,1-6.82,16q-5.06,7.3-11.87,9.39A16.13,16.13,0,0,1,488.48,496.45Zm2.59-7.36q3.39-.16,7.69-6A31.72,31.72,0,0,0,505,469.53a7,7,0,0,1-2.73.7c-3.77.19-6.52-.79-8.26-2.92q-4.4,9.21-4.49,14.75c0,1.93,0,3.11,0,3.52Q489.63,489.17,491.07,489.09Zm11.41-23.84a3.84,3.84,0,0,0,2.8-1.83l-.06-1.2c-.13-2.59-.69-3.86-1.7-3.81a6.28,6.28,0,0,0-2.07.73c-1,.47-1.41,1.43-1.33,2.9l.1.81C500.51,464.51,501.26,465.31,502.48,465.25Z" fill="#1d1d1b"/></svg>