<?xml version="1.0" encoding="UTF-8"?>
<svg id="Camada_1" data-name="Camada 1" xmlns="http://www.w3.org/2000/svg" viewBox="0 0 595.28 595.28">
  <defs>
    <style>

      .cls-1, .cls-2 {
        stroke-width: 0px;
      }

    </style>
  </defs>
  <rect class="cls-1" x="0" y="0" width="595.28" height="595.28"/>
  <g>
    <path class="cls-2" d="M294.19,142.48c0,.4.31.6.94.6,3.88.14,5.82.35,5.82.63l.6-.31c.21,0,.31.1.31.31.21,0,.31-.1.31-.31,1.62.4,3.56.6,5.82.6h.63l.6-.29v3.06c0,4.09-.2,6.76-.6,7.99.4.66.6,1.27.6,1.83v1.23h-.6c.19,2.05.39,3.08.6,3.08-.21.38-.31.69-.31.91.21.4.31.71.31.91h-.31c.16.54.37,1.77.63,3.68h-.31c0,.21.1.31.31.31-.14,1.43-.35,2.14-.63,2.14.42,1.03.63,2.87.63,5.54v2.45c0,.19-.1.29-.31.29l.31.63v2.45l-.63.91c.49,0,.8.71.94,2.14,0,.19-.1,1.01-.31,2.45l.31,2.17-.31.6.31.63c-.21.38-.31.69-.31.91h.31c0,.21-.1.31-.31.31l.31,3.68v.91l-.31,1.54h.31l-.31.6v1.54c0,.21.1.31.31.31,0,.19-.1.29-.31.29l.31,1.54c-.21,2.28-.31,4.33-.31,6.14v.31c0,.61-.41.91-1.23.91-1.45,0-4.2.1-8.28.31l-.63-.91.31-.63h-.31l.31-.6c-.21-1.74-.31-3.18-.31-4.31l.31-.6c-.21,0-.31-.1-.31-.31h.31l-.31-.63v-7.97c0-.21-.1-.31-.31-.31,0-.21.1-.31.31-.31l-.31-1.51v-.31l.31-1.54c-.21,0-.31-.1-.31-.31h.31c-.4-2.4-.71-4.13-.91-5.2-.75-.37-1.78-.68-3.08-.94-2.84.21-5.19.72-7.05,1.54-1.85,0-2.77,1.53-2.77,4.6h-.29c0,.21.1.31.29.31-1.01,4.65-1.72,7.1-2.14,7.36.21.4.31.71.31.91,0,3.27-.21,4.91-.63,4.91,0,.21.1.31.31.31-.4,2.91-.6,4.95-.6,6.14.19,0,.29.1.29.31,0,.92-2.55,1.64-7.65,2.14,0,.21-.21.31-.63.31-.4-.21-.71-.31-.91-.31,0-1.43-.1-2.25-.31-2.45.42-3.88.63-7.26.63-10.13h-.31l.31-.6c.19-3.78.29-6.54.29-8.28h.31c0-.21-.1-.31-.31-.31.42-2.37.63-5.23.63-8.59v-1.54c0-.21-.1-.31-.31-.31l.31-.6v-1.85c0-.19-.1-.29-.31-.29l.31-.63v-.31l-.31-3.68c.21,0,.31-.1.31-.29h-.31l.31-.63v-2.77l.31-2.14h-.31l.31-.6v-2.45c0-.21-.1-.31-.31-.31l.31-.63v-1.51c0-1.18-.1-2.82-.31-4.91,0-.21.1-.31.31-.31l-.31-1.54v-3.06c0-.21.1-.31.31-.31l-.31-.63.31-3.06c-.21-.4-.31-.71-.31-.91.47-.42,1.8-.83,4-1.23l.6.29c1.11-.4,4.19-.71,9.22-.91l.6.31,1.54-.63v.31l3.06-.6ZM276.4,191.57c-.21,2.04-.31,3.57-.31,4.6v2.45l.31.6c-.21,0-.31.1-.31.31l.63.31v-4.91c0-.21.1-.31.29-.31l-.29-.6.29-.63-.29-.6c.19-.37.29-.77.29-1.23h-.6ZM277,185.44c-.4,2.98-.6,4.71-.6,5.2v.31h.31c.4-1.64.6-2.66.6-3.06v-2.45h-.31ZM277,155.67c.21,1.11.31,1.93.31,2.45-.21.4-.31.71-.31.91h.63c0-.92.1-1.53.31-1.83-.28-1.03-.59-1.54-.94-1.54ZM277,179.59v5.54c.42,0,.63-.21.63-.63h-.31l.31-.6v-.63c0-.19-.1-.29-.31-.29l.31-.63v-.31l-.31-.6h.31c-.21-.31-.31-.93-.31-1.85h-.31ZM278.23,145.85c.21.99.31,2.32.31,4h.31c0-.16.1-.77.31-1.85h-.31l.91-1.83v-.63l-1.54.31ZM280.08,151.36c0,.92-.1,1.54-.31,1.85h.31l-.31.6v.31h.31c.4,0,.6-.2.6-.6v-1.23l-.29-.63c.19,0,.29-.1.29-.31h-.6ZM281.62,161.18v2.77l-.31.63h.31l-.31.6c0,.21.1.31.31.31-.26,1.83-.47,2.95-.63,3.37h.31l-.31.63v.91c0,.21.1.31.31.31l-.63,3.37h.31l-.31.6v1.54l-.29,3.68h.29l-.29.63v2.14h.29c0-.5.21-1.02.63-1.54h-.31l.31-.6v-3.39c0-.19.1-.29.31-.29l-.31-.63v-.31l.31-1.51h-.31c.35-.57.65-1.91.91-4,0-.21-.1-.31-.31-.31l.31-1.54v-3.68c0-.45.1-.86.31-1.23l-.31-.6c.21-.4.31-.71.31-.91-.21-.4-.31-.71-.31-.94h-.6ZM280.68,199.85v2.45h.31v-2.45h-.31ZM281.31,197.4l-.31,1.54v.6h.31l.31-1.83v-.31h-.31ZM283.45,185.44l-.31,2.14c.35,0,.66-.71.94-2.14h-.63ZM286.82,153.81l-1.83,14.73h.6c.37,0,.68-.91.94-2.74l-.31-.63c.21-.35.31-.76.31-1.23h-.31c.21-.28.51-2.43.91-6.45l-.31-.6c.42-1.74.63-2.77.63-3.08h-.63ZM287.76,160.89l-.31,2.74.31.63c-.42,1.15-.63,2.79-.63,4.91.42,0,.63-.21.63-.63,0-.7.1-2.84.29-6.42v-1.23h-.29ZM290.22,160.89h.29c-.61.94-.91,3.19-.91,6.74v.63h.31c.3-2.26.6-3.39.91-3.39,0-.19-.1-.29-.31-.29.63-2.65.94-4.39.94-5.22l-.31-1.54c.21-.35.31-.76.31-1.23-.35,0-.76,1.44-1.23,4.31ZM290.5,173.45l-.29,2.17c.19,0,.29.1.29.29h-.29c.19.37.29.77.29,1.23h.63l.31-2.14c-.42,0-.63-.51-.63-1.54h-.31ZM290.82,152.58c0,.23-.1.54-.31.94h.31l-.31.6v1.85c.63-.21.94-.83.94-1.85l-.31-.6c.21-.4.31-.71.31-.94h-.63ZM295.41,150.44l.31.63c0,.19-.1.29-.31.29l.31.63c-.12,1.85-.32,2.77-.6,2.77l.29.6-.29,1.23c.19.37.29.77.29,1.23h.31v-.6h.31v.91c0,.21-.1.31-.31.31l.31.6v.91l-.31.63h.31l-.63,2.77c0,.19.1.29.31.29l-.31,1.54v1.85h.31l1.54-7.36c-.21-.37-.31-.77-.31-1.23l.31-1.54c-.42-1.04-.63-1.86-.63-2.45h.31l-.6-1.23.29-.63c-.4-1.53-.6-2.35-.6-2.45l-.63.31ZM297.27,145.53l.6,3.08c.42,0,.63-.21.63-.63v-1.23c0-.21-.1-.31-.31-.31l.31-.6c0-.42-.21-.63-.63-.63l-.6.31ZM297.87,173.16c0,.45-.1.86-.29,1.23l.29,1.83v.31l-.29.6.6.31h.31c0-.21.1-.51.31-.91-.42-1.53-.63-2.45-.63-2.77.21,0,.31-.1.31-.31l-.63-.29ZM299.41,162.12v3.06l.63-.31-.31-.6v-1.54l.31-.6h-.63ZM301.55,150.76l-.29,2.14v.91c0,.47.1.88.29,1.23l-.6,1.23h.6l-.29.63h.6v-6.14h-.31ZM301.26,157.81c.19.4.29.71.29.91l-.29.63c.19.35.29.76.29,1.23h-.29c.19.4.29.71.29.91h.31c0-.4.1-.6.31-.6-.21-.4-.31-.71-.31-.94l.31-.6c-.21-.31-.31-.93-.31-1.85l-.6.31ZM301.55,188.18c0,1.24-.1,1.85-.29,1.85l.29.6v2.45h.63v-1.23c0-.19-.1-.29-.31-.29,0-.21.1-.31.31-.31-.21-.71-.31-1.74-.31-3.08h-.31ZM303.4,145.53v.31c.21,1.1.31,2.02.31,2.77v1.23l-.31.6c.21,0,.31.1.31.31h-.31l.31.6c0,.42-.21.63-.63.63.21.4.31.71.31.91-.21.4-.31.71-.31.91h.31l-.31.63v.6c0,.21.1.31.31.31l-.31.63v.29h.63c0-.85.1-1.98.29-3.37l-.29-.6c.61-3.08,1.02-4.62,1.23-4.62-.21-.38-.31-.69-.31-.91v-.91l-1.23-.31ZM304.32,159.95c0,.47-.1.88-.31,1.23h.31l-.31.63c.07.4.28.6.63.6v-2.45h-.31ZM304,190.35v3.37h.63c-.21-1.81-.31-2.93-.31-3.37h-.31ZM306.17,157.49l-.31,1.54v4c0,.45-.1.86-.31,1.23.21.35.31.76.31,1.23v4.28l-.31.63.63.31c0-1.71.1-2.63.29-2.77l-.29-.63c.19-.35.29-.76.29-1.23,0-.19-.1-.29-.29-.29l.29-.63v-7.68h-.29ZM306.77,180.82v.63c0,.61.1.91.31.91l-.31,1.54v3.68h-.6v.31h.6l-.31.6.31.63-.31.6c0,.21.1.31.31.31l-.31,1.54v.29c0,.21.1.31.31.31l-.31.63v2.14l-.29,1.54h.29c.63,0,.94-2.36.94-7.08v-6.14c0-.45.1-.86.29-1.23-.19-.3-.29-.91-.29-1.83-.42.07-.63.27-.63.6Z"/>
    <path class="cls-2" d="M178.71,224.32l.65.34h3.64c3.5,0,5.82,4.09,6.96,12.26h.34l-.34.65c.11,2.65.34,3.98.68,3.98-.28,1.71-.62,2.81-1.01,3.3v4.65c0,.88-1.54,1.54-4.62,1.97l-.68-.31h-2.31c-.23,0-.34.1-.34.31l-.65-.31-.68.31c0-.21-.1-.31-.31-.31,0,.21-.11.31-.34.31v-6.29c0-.23-.11-.34-.34-.34,0-.21.11-.31.34-.31-.36-4.04-1.01-6.14-1.97-6.29-3.51-.23-5.62-.34-6.31-.34,0,.23-.1.34-.31.34v-.34c-1.82,0-3.26,2.75-4.31,8.26,0,2.86,3.53,5.95,10.6,9.28,6.62,3.87,9.92,7.29,9.92,10.26l.68,2.34-.34,1.64c.23,1.58.34,2.46.34,2.65-.23.43-.34.77-.34,1.01.23,0,.34.1.34.31h-.34c.23,2.44.44,3.66.65,3.66l-.31.65v2.99c0,.23.1.34.31.34l-.31.65v5.64c0,2.42-.78,5.07-2.34,7.95-.43.51-1.86,1.28-4.29,2.31h-7.95l-2,.34c-.38-.23-.82-.34-1.33-.34s-2.18.11-4.96.34c-2.93,0-5.58-1.11-7.95-3.33-.66-1.45-.99-2.44-.99-2.99v-9.25l-.34-2c0-.23.11-.34.34-.34l-.34-1.33c0-5.07.33-7.61.99-7.61,3.91,0,6.56-.22,7.95-.65l1.01,1.97c-.23.39-.34.84-.34,1.33v.34c0,.23.11.34.34.34l-.34.65c0,.45.11.68.34.68l-.34,2.31v2.99c0,1.32.66,2.3,1.97,2.96v-.31c.23,0,.34.1.34.31l4.96-.99v.34c2.78,0,4.44-1.88,4.99-5.64v-.65c0-5-1.77-8.2-5.3-9.61-1.03-.75-3.03-1.75-5.98-2.99,0,.23-.11.34-.34.34-.06-.81-1.38-1.69-3.98-2.65-4.42-2.09-6.63-5.29-6.63-9.61-.21,0-.31-1.77-.31-5.3v-.65l-.34-.68h.34l-.34-.65v-.68c0-1.97.22-3.84.65-5.61h-.31c1.35-5.85,3.56-9.82,6.63-11.93,1.88-1.18,5.96-1.95,12.24-2.31,3.1,0,4.65-.23,4.65-.68ZM157.17,243.21c.3,3.68.53,5.67.68,5.95-.23.39-.34.84-.34,1.33v.68l.34.65h-.34c0,4.55,3.2,7.97,9.61,10.26.06.39,2.26,1.5,6.63,3.33,3.33,2.5,5.08,4.04,5.27,4.62.6,1.18,1.04,2.84,1.33,4.96,0,.23-.1.34-.31.34l.31,2c-.71,4.85-1.93,7.27-3.64,7.27-1.11.6-4.2,1.27-9.28,2-3.08-.85-4.62-2.51-4.62-4.99v-.99c0-.49.11-.93.34-1.33,0-.23-.11-.34-.34-.34l.34-1.33c-.09-3.31-.32-4.96-.68-4.96-.23,0-.34.11-.34.34l-1.64-.34h-2c0,.66-.11.99-.34.99.23,1.22.34,2.1.34,2.65,0,1.88.11,6.08.34,12.6-.23,0-.34.1-.34.31h.34c0,.23-.11.34-.34.34,0,3.12,1.21,4.89,3.64,5.3,0,.34,2.65.89,7.95,1.66,2.22-.23,3.33-.45,3.33-.68l5.3.68c4.62-.83,6.94-4.13,6.94-9.92h-.31l.31-.68v-.34c0-.21-.1-.31-.31-.31l.31-.68v-6.29l-.31-1.66h.31l-.31-.65c0-.23.1-.34.31-.34l-.31-1.66v-.34c0-.21.1-.31.31-.31l-.31-.68v-1.66c0-.49.1-.93.31-1.33,0-4.49-1.98-7.69-5.95-9.59-.06-.17-1.16-.94-3.3-2.31l-.68.31c0-.92-1.98-2.13-5.95-3.64-3.53-3.01-5.3-5.33-5.3-6.96v-2.31l.31-1.66h-.31c.85-5.07,3.38-7.61,7.61-7.61h3.3l.68.34v-.34c3.74,0,5.61,1.88,5.61,5.64.23.06.34,1.16.34,3.3v2.34l-.34,1.64c.73.45,1.4.68,2,.68h1.33c.23,0,.34-.11.34-.34l.65.34h.99l1.33-.99c-.6-12.59-1.59-18.89-2.96-18.89,0-1.64-1.55-2.63-4.65-2.99h-7.95c-7.29,0-11.93,2.88-13.9,8.63-.45.86-1.01,3.51-1.66,7.95Z"/>
    <path class="cls-2" d="M211.47,225.98v.34l.68-.34h1.64c.51,0,.95.11,1.33.34l.68-.34c6.54,0,10.18.88,10.91,2.65,1.26,1.86,2.26,5.39,2.99,10.6h-.34c.23.43.34.76.34.99,0,1.82.23,4.14.68,6.96,0,.21-.11.31-.34.31l.34,1.66v2.31c0,.23-.11.34-.34.34l.65,2-.65.31c.43.73.65,1.4.65,2v1.33c0,.49-.1.93-.31,1.33.21.38.31.82.31,1.33v2.31l-.31.68h.31c0,.21-.1.31-.31.31.21,2.65.42,3.98.65,3.98l-.34.68c0,.66.11.99.34.99-.3,2.95-.63,4.93-.99,5.95,0,.23.11.34.34.34,0,9.42-1,15.71-2.99,18.89-.39,0-1.72.66-3.98,1.97h-.68c-.41-.23-.74-.34-.99-.34v.34l-.65-.34h-.68l-1.97.34-.68-.34c-2.48.39-5.57.73-9.28,1.01-6.62-.68-9.92-1.67-9.92-2.99-1.17,0-2.27-2.21-3.33-6.63v-3.64l-.31-.68h.31l-.31-.65v-2.65c0-.51.1-.95.31-1.33-.21-.39-.31-.84-.31-1.33v-2.31c0-.23-.11-.34-.34-.34l.34-.68c0-.66-.11-.99-.34-.99.23-.85.44-3.17.65-6.96-.21-2.07-.31-4.05-.31-5.95h.31l-.31-.65c0-.92.22-2.8.65-5.64-.23-.43-.34-.76-.34-.99h.34l-.34-.68v-1.66l.34-.65h-.34l.34-.68v-4.29c0-1.03.44-3.68,1.33-7.95h-.34c0-4.72,2.76-7.92,8.29-9.61,1.54,0,3.75-.33,6.63-.99ZM196.55,251.47c.23,3.68.45,5.68.68,5.98-.23.38-.34.82-.34,1.33v.99c0,.23.11.34.34.34l-.34.65.34,3.33c-.23,0-.34.1-.34.31.23,0,.34.11.34.34h-.34c0,.23.11.34.34.34l-.34,1.66v4.96l-.34.65h.34l-.34.68v.65c0,.23.11.34.34.34l-.34.68.68,3.98h-.34l.34.65v1.33c0,.51-.11.95-.34,1.33.62,8.18,3.27,12.26,7.95,12.26v-.34c.23.23,1.55.44,3.98.65v-.31c1.28.43,4.04.65,8.29.65,4.29-.6,6.71-1.26,7.27-1.97v.31c1.77,0,2.88-3.52,3.33-10.57v-2.65l.31-2-.31-.65c.21-.39.31-.84.31-1.33v-.34c0-.23-.1-.34-.31-.34.43-1,.65-2.43.65-4.31v-5.61c0-1.54.11-3.98.34-7.3h-.34l.34-.65c-.23-.43-.34-.76-.34-.99h.34l-.34-.68v-.65c0-5.58-.44-11.55-1.33-17.9l.34-.65c-1.33-4.87-2.33-7.3-2.99-7.3-.58-.66-2.24-1.32-4.96-1.97-12.8.7-19.2,2.35-19.2,4.96-2.44,4.19-3.66,10.59-3.66,19.2ZM210.82,231.93l1.33.34,1.33-.34c5.28.83,7.92,2.49,7.92,4.99.32,0,.76,1.43,1.33,4.29,0,.23-.1.34-.31.34.21,1.99.42,2.99.65,2.99,0,.21-.11.31-.34.31l.34,1.66v2.99c0,.73.11,1.29.34,1.66l-.34,1.97v6.29c0,.51.11.95.34,1.33-.23.39-.34.84-.34,1.33v3.33c0,.21.11.31.34.31l-.34.68v1.33c0,.23.11.34.34.34l-.34.65c.23.43.34.76.34.99h-.34l.34.68-.34,1.33.34.65-.34,2c.23,1.58.34,2.46.34,2.65-.23.43-.34.76-.34.99h.34l-.34.68v3.3c-.53,4.19-1.63,6.29-3.3,6.29-3.68.75-5.56,1.19-5.64,1.33l-.65-.34h-1.66c-5.96-.62-8.94-1.72-8.94-3.3-.39-1.11-.84-3.43-1.33-6.96.21-.41.31-.74.31-.99l-.31-.65c0-.23.1-.34.31-.34l-.31-1.66v-.34c0-2.22-.11-4.97-.34-8.26l.34-1.33c-.23-.86-.34-1.75-.34-2.65h.34l-.34-.68v-4.29c0-.51.11-.95.34-1.33-.23-.39-.34-.84-.34-1.33v-2.65l.34-2-.34-.65.34-.68c0-.43-.11-.65-.34-.65.43-4.83,1.09-9.13,1.97-12.91,3.14-1.94,5.69-3.16,7.64-3.66ZM203.52,245.52c0,.23.11.34.34.34-.23,2.2-.34,3.85-.34,4.96v3.3c0,.23.11.34.34.34-.23.66-.45.99-.68.99l.34,1.66v.68l-.34.65h.34c0,.23-.11.34-.34.34l.34,3.3v2.31c0,.23.11.34.34.34l-.34.68v.31l.34.68c-.23,0-.34.11-.34.34h.34l-.34.65v1.66c0,.23.11.34.34.34l-.34.65v2.31c0,.23.11.34.34.34-.23.43-.34.76-.34.99.23.68.45,1.01.68,1.01l-.34.65c0,7.29,1,10.94,2.99,10.94,1.48.66,2.7.99,3.64.99h.99c5.53-.43,8.29-1.09,8.29-1.97l1.33-8.29-.34-.68v-11.25c0-.23.11-.34.34-.34l-.34-.65c0-.23.11-.34.34-.34l-.34-.65v-.34c0-.23.11-.34.34-.34l-.34-.65v-.34l.34-.68h-.34l.34-.65v-1.66l-.34-.65h.34l-.34-.68c0-.23.11-.34.34-.34l-.34-.65v-.34l.34-1.97c0-.23-.11-.34-.34-.34l.34-1.33c-.23-4.98-.56-8.63-1.01-10.94l.34-.65c-.34-3.98-2.21-5.98-5.61-5.98-1.56-.21-2.88-.31-3.98-.31-3.76.92-5.64,2.25-5.64,3.98-.66,2.16-1.1,4.59-1.33,7.27h-.34Z"/>
    <path class="cls-2" d="M292.24,225.3h4.96c0,.45.11.68.34.68l-.34.65v3.33c0,.23-.1.34-.31.34,0,.21.1.31.31.31l-.31,2.34v.65c0,.23.1.34.31.34l-.31.65v6.96c0,.23-.11.34-.34.34,0,.21.11.31.34.31-.68,5.24-1.01,8.67-1.01,10.29v2.31l-.31,1.66c.21,0,.31.1.31.31h-.31l.31.68v.99c0,.23-.1.34-.31.34l.31.65v16.58c0,.21-.1.31-.31.31l.31.68c0,.23-.1.34-.31.34l.31,2.31v6.63c0,.23.11.34.34.34-.23,1.75-.44,2.62-.65,2.62l.31,1.66v4.96c0,1.56-1.21,2.34-3.64,2.34l-1.66-.34h-3.98l-2.31.34v-.34c0-1.05.11-3.59.34-7.61l-.34-1.66c.23,0,.34-.11.34-.34h-.34l.34-.65c0-2.42.22-6.84.65-13.25-.21-2.54-.31-4.97-.31-7.3v-.31h-.34l-4.31,12.91c-1.6,6.94-3.03,11.57-4.29,13.9-1.2,0-2.2-1.77-2.99-5.3-.85-1.05-2.73-5.13-5.64-12.24-2.12-6.11-5.32-13.4-9.59-21.88h-.68c.23,2.78.34,4.44.34,4.99h-.34l.34.65v2.31c0,.75-.11,1.31-.34,1.66l.34,1.97v4.65c0,.23-.11.34-.34.34l.34.65v2c.06,3.74.27,5.61.65,5.61-.21.43-.31.77-.31,1.01,0,2.69.22,5.22.65,7.61,0,.23-.11.34-.34.34l.34,2.31c0,.92-.11,2.13-.34,3.64.23,1.11.45,1.66.68,1.66,0,.41-.33,1.07-.99,1.97-3.36-.23-5.8-.55-7.3-.99h-1.66c-.21,0-1.09.22-2.65.65h-1.97c-1.6,0-4.25.44-7.95,1.33-.39-.21-.84-.31-1.33-.31v-.34c0-3.27.11-7.69.34-13.25h-.34l.34-.65v-.68c0-.23-.11-.34-.34-.34.23-.41.34-.74.34-.99-.23-.43-.34-.76-.34-.99.23,0,.34-.11.34-.34h-.34l.34-.65v-2.99c0-.23.1-.34.31-.34l-.31-.65v-4.31l.31-2-.31-.65c.21-1.22.31-2.1.31-2.65l-.31-1.33.31-.68c-.21-.41-.31-.74-.31-.99h.31l-.31-.65v-5.98c0-.21-.11-.31-.34-.31l.34-.68c0-.66-.11-.99-.34-.99.23-2.2.34-3.85.34-4.96v-9.28c0-.23.1-.34.31-.34l-.31-.65v-7.95l.31-2c-.21-.43-.31-.76-.31-.99.21-.43.31-.76.31-.99h.68c2.42,0,5.4-.34,8.94-1.01v.34l.68-.34c4.6-.21,8.35-.31,11.25-.31h.99c.7.04,1.47,1.25,2.31,3.64.28,0,.51.44.68,1.33h-.34c2.93,7.91,5.37,13.65,7.3,17.23.53,1.77,1.07,2.65,1.64,2.65l-.31.65c1.5,2.82,2.39,4.81,2.65,5.98,1.39,3.83,2.38,5.93,2.96,6.29,0-2.22.11-3.33.34-3.33l-.34-.65c.23-.43.34-.76.34-.99h-.34c1.28-4.29,2.27-9.59,2.99-15.9-.23,0-.34-.11-.34-.34.68,0,1.01-.55,1.01-1.66h-.34c.23-.7.67-4,1.33-9.92v-2.31c0-.23-.11-.34-.34-.34.45-.73.68-1.4.68-2l.65.34c.43-.23.76-.34.99-.34,0,.23.11.34.34.34,0-.66,1.1-.99,3.3-.99.43.23.77.34,1.01.34v-.34l.65.34c2.35-.68,4.12-1.01,5.3-1.01ZM237.6,231.28c0,.19-.11,2.84-.34,7.95h.68c.21-3.31.31-5.74.31-7.3v-.65h-.65ZM240.59,231.28l-.34,1.66v.65c0,.6.22,1.27.65,2-.43.71-.65,1.37-.65,1.97.23,1.58.34,2.46.34,2.65h.31l.34-3.3v-5.64h-.65ZM240.59,270.02v5.64c0,1.11.1,2.76.31,4.96h.34v-1.66l-.34-.65.34-.68c0-.21-.11-.31-.34-.31l.34-1.66c0-.51-.11-.95-.34-1.33l.34-.68c-.23-.38-.34-.82-.34-1.33h.34c-.23-.28-.34-1.05-.34-2.31h-.31ZM242.56,238.24l.34.65v.99c0,.23-.11.34-.34.34.23.39.34.84.34,1.33h.34v-3.64l-.68.34ZM242.9,248.51v5.3c-.23,0-.34.1-.34.31l.68.34v-5.95h-.34ZM244.23,285.92v.34c0,.23.11.34.34.34-.45.9-.68,1.56-.68,1.97.23.43.34.76.34.99h.34c0-.92.1-2.13.31-3.64h-.65ZM245.89,264.72c-.23,2.22-.34,3.87-.34,4.96v1.33c.43,0,.65-.22.65-.65v-5.64h-.31ZM246.88,228.97c.43,1.64.65,2.73.65,3.3l-.31.68c.21.41.31.74.31.99h-.31l.31.65v5.3l.34,3.98h-.34c.23.47.45,1.47.68,2.99h.34v-2.31c0-.51-.11-.95-.34-1.33l.34-.68c-.23-3.7-.34-6.57-.34-8.6v-4.65l-.34-.65c-.43.23-.76.34-.99.34ZM247.21,283.6c0,1-.11,1.65-.34,1.97h.34l-.34.68v7.95h.34l.31-1.66c0-.23-.1-.34-.31-.34l.31-.65v-7.95h-.31ZM250.51,231.28l-.34,2.31c.45,0,.68-.22.68-.65v-1.66h-.34ZM252.51,241.54l-.34,1.66v1.33c0,.21.11.31.34.31l-.34.68v4.62c0,1.24.22,2.9.65,4.99h.34v-8.29l-.34-2c.23-.36.34-.9.34-1.64l-.34-1.66h-.31ZM252.18,262.4v2.65c.43,0,.65-.23.65-.68h-.31l.65-1.97h-.99ZM252.18,267.37v5.3c.43,0,.65-.22.65-.65h-.31l.31-.68v-.34c0-.49-.1-.93-.31-1.33.21-.38.31-.82.31-1.33h-.31l.31-.65v-.34h-.65ZM253.16,283.27v3.33h.34v-3.33h-.34ZM253.16,288.9l.34,2.31h.34v-2.31h-.68ZM255.16,258.09l-.34,1.66c.06.45.27.68.65.68v-2.34h-.31ZM256.8,234.27v.65c.34,2.42.78,3.64,1.33,3.64v-.31c0-1.11-.22-1.66-.65-1.66l.34-.68c-.3-1.09-.64-1.64-1.01-1.64ZM258.8,247.18v.65c.51,1.33.95,2,1.33,2-.68-1.24-1.01-2.12-1.01-2.65h-.31ZM269.4,271.68v.34c.66,1.6.99,2.58.99,2.96h.65v-.65l-1.64-2.65ZM282.96,252.14c0,.32-.22,1.32-.65,2.99v.31h.34l.65-2.96v-.34h-.34ZM283.64,237.91c0,.66-.11,1.43-.34,2.31.43,0,.76-.77.99-2.31h-.65ZM285.27,228.63c0,.58-.44,2.35-1.33,5.3h.34c-.23.47-.44,1.47-.65,2.99l.65.31c.23-2.1.45-3.32.68-3.64h-.34c.66-1.11,1.1-2.76,1.33-4.96h-.68ZM285.61,237.91v.34h.34c0-.39.22-1.06.65-2h-.31c.66-1.73.99-2.83.99-3.3v-.68c-.45,0-1.01,1.88-1.66,5.64ZM287.27,280.28v3.66l-.34.65h.34l-.34.68c0,.21.11.31.34.31l-.34.68v2.31h.68c0-1.11.1-1.66.31-1.66,0-.21-.1-.31-.31-.31l.31-1.66v-4.65h-.65ZM287.61,265.05c0,2.56-.11,4.32-.34,5.3l.34.65c-.23.39-.34.84-.34,1.33v.68l.34.65h-.34c0,.23.11.34.34.34l-.34,1.33c.23,1.52.34,2.73.34,3.64-.23,0-.34.11-.34.34l.65.34c0-1.8.11-3.24.34-4.31-.23-.36-.34-.91-.34-1.66l.34-.65c-.23-.39-.34-.84-.34-1.33h.34l-.34-.68v-.31c0-.75.11-1.31.34-1.66l-.34-2v-.31c0-.23.11-.34.34-.34-.23-.39-.34-.84-.34-1.33h-.31ZM290.57,287.92v5.95h.34c0-.41.23-1.3.68-2.65-.23-.39-.34-.84-.34-1.33l.34-1.66-.68-.31h-.34ZM291.25,276.3c0,.81-.11,1.8-.34,2.99l.68.34v-3.33h-.34ZM291.59,227.64l-.34,2.31v.34h.34c.43-1.41.65-2.29.65-2.65h-.65Z"/>
    <path class="cls-2" d="M318.37,224.63c.88.17,1.33.39,1.33.65,1.99-.21,2.99-.42,2.99-.65l.68.34h2.96l1.66-.34c0,.56.55.89,1.66.99v-.34c1.32.23,1.97.45,1.97.68l.68-.34c3.65,0,6.74,2.1,9.28,6.29.83,2.16,1.38,4.37,1.66,6.63,0,.23-.11.34-.34.34l.34,2.31v.34l-.34,2c.43.71.65,1.26.65,1.64l-.31.68c.21.43.31.76.31.99-.73,3.98-1.28,5.98-1.64,5.98l-2.99,1.97c-1.17,0-2.6.23-4.31.68,1.05,1.09,2.26,1.64,3.64,1.64,1.56.62,3.11,2.5,4.65,5.64,0,.66.22.99.65.99l-.31.68c1.32,3.55,1.97,6.53,1.97,8.94h-.34l.34.68c0,.21-.11.31-.34.31l.34,1.66v.99l-.34,3.33h.34l-.65,1.97h.31c-.21,1.99-.42,2.99-.65,2.99l.34.68v.31c0,8.18-3.2,12.26-9.61,12.26,0,.66-1.88,1.1-5.64,1.33h-1.33c-7.72,0-11.59-.33-11.59-.99-.47.23-1.68.44-3.64.65-7.2-.51-10.96-.95-11.28-1.33v-.31c.51-1.33.84-2,.99-2l-.31-.65v-5.98c0-.23-.11-.34-.34-.34l.34-.65c0-.23-.11-.34-.34-.34l.34-1.66v-3.3c0-.23.1-.34.31-.34,0-.23-.1-.34-.31-.34,0-.39.1-3.04.31-7.95,0-1.79-.1-5.76-.31-11.93.15-3.31.37-4.96.65-4.96l-.34-1.33c0-2.57.11-4.67.34-6.29-.23-3.78-.34-7.64-.34-11.59v-2c0-.23-.1-.34-.31-.34l.31-.65c0-.45-.1-.68-.31-.68.43-2.73.65-5.48.65-8.26l4.65-1.01c1.15.23,2.25.34,3.3.34.23,0,.34-.11.34-.34.23,0,.34.11.34.34.28,0,1.49-.22,3.64-.65l.65.31.68-.31.65.31c.88-.17,1.33-.39,1.33-.65ZM317.72,227.62l-1.66-.34h-3.3c-5.75.17-8.63.72-8.63,1.66.23,0,.34.1.34.31h-.34c.23.43.34.77.34,1.01l-.34,1.33c.23.41.34.74.34.99h-.34l.34.65v.34c0,.66-.11.99-.34.99l.34,1.66v.99c0,.75-.11,1.31-.34,1.66.23,1.99.45,2.99.68,2.99-.23.43-.34.76-.34.99,0,1.2.11,3.3.34,6.29l-.34.68c0,.23.11.34.34.34l-.34,2.31v2.65l-.34.65h.34c0,.23-.11.34-.34.34l.34,1.66c0,1.39-.11,3.04-.34,4.96l.34,1.66-.34,1.66c.23.38.34.82.34,1.33h-.34l.34.65v2.31c0,.75-.11,1.31-.34,1.66l.34,2-.34,1.97c.23.88.34,1.65.34,2.31h-.34l.34.68c0,.23-.11.34-.34.34l.34,1.64v2.99l-.34,1.66h.34c-.23,1.54-.45,2.31-.68,2.31.45,1.37.68,2.26.68,2.65l-.34,2.31c.45,2.65,1.01,3.98,1.66,3.98,1.75,0,3.51.44,5.3,1.33l3.98-.31h2.31c2.1,0,5.31.22,9.61.65,9.06-1.45,13.59-3.1,13.59-4.96.83,0,1.6-5.41,2.31-16.24l-.34-1.66c.23-.36.34-.9.34-1.64h-.34l.34-.68c0-4.23-1.44-8.65-4.31-13.25-.88-.81-2.42-1.47-4.62-1.97,0-.23-.11-.34-.34-.34v.34c-1.88-.68-4.2-1.34-6.96-2v-.34c3.4-1.32,7.71-2.53,12.91-3.64.88-.96,1.33-3.38,1.33-7.27v-5.64c0-.23-.1-.34-.31-.34l.31-.65c0-4.34-1.87-7.66-5.61-9.95v.34l-6.63-1.33v.34c-1.33-.23-2-.45-2-.68l-.65.34h-4.99c-.49,0-.93-.11-1.33-.34-1.32.23-1.97.45-1.97.68ZM308.79,232.58h8.6c2.18.43,3.39.65,3.64.65h2c.43.45,1.87.79,4.31,1.01,3.08,1.43,4.62,3.2,4.62,5.3,0,6.43-2.65,10.18-7.95,11.25-.56,0-1.78.33-3.64.99v-.31c-1.05.38-2.38.7-3.98.99v-.34l-.68.34h-.99c-.23,0-.34-.11-.34-.34l-.65.34-.68-.34c-1.24.66-2.12.99-2.65.99l-.65-1.33c.23-2.91.34-5.34.34-7.27l-.34-.68c.23-.38.34-.82.34-1.33h-.34l.34-.65-.34-1.66h.34l-.34-.65c0-.23.11-.34.34-.34-.53-2.65-.97-4.42-1.33-5.3h.31l-.31-.68v-.65ZM312.42,260.74l3.3.31c0-.21.11-.31.34-.31v.31l.68-.31c.21,0,.31.1.31.31.43-.21.77-.31,1.01-.31,4.34,0,8.65,1.77,12.91,5.3,2.65,2.61,3.98,6.47,3.98,11.59-1.8,9.94-4.34,14.91-7.61,14.91h-6.96l-2.31.31v-.31l-.68.31-3.3-.31c-.34,0-1.33.22-2.99.65-.66-1.35-.99-2.24-.99-2.65v-1.33l.31-1.66h-.31c.21-.21.42-1.86.65-4.96l-.34-.65.68-6.63h-.34l.34-.68-.34-.65c0-.23.11-.34.34-.34l-.34-1.66v-8.94c0-.23-.11-.34-.34-.34.19-.75.86-1.41,2-1.97ZM311.1,234.55c.66,4.59.99,9.78.99,15.59.23,0,.34.1.34.31l.65-.31h2.99c.23,0,.34-.11.34-.34l.65.34c1.17,0,3.37-.67,6.63-2l.68.34c3.31-1.11,4.96-2.88,4.96-5.3.45,0,.68-1.11.68-3.33,0-2.5-2.99-4.15-8.96-4.96l-1.33-.65v.31l-2.65-.65v.34c-1.54-.23-2.31-.45-2.31-.68-2.42.28-3.64.61-3.64.99ZM312.76,266.69c0,.23.1.34.31.34l-.31,2.31c.21,3.57.31,5.56.31,5.98h-.31c0,.21.1.31.31.31l-.31,1.66v4.65c0,1.2-.11,2.74-.34,4.62l.34.68c-.23,1.54-.45,2.31-.68,2.31.23.43.34.76.34.99h8.6c.51,0,.95-.11,1.33-.34l.68.34c4.64,0,6.96-1,6.96-2.99,1.97-4.92,2.96-8.56,2.96-10.91-.6-4.64-1.81-7.85-3.64-9.61-3.93-2.65-7.68-4.09-11.25-4.31-3.1.3-4.65.86-4.65,1.66-.15,1.54-.37,2.31-.65,2.31Z"/>
    <path class="cls-2" d="M364.72,223.98h7.3c11.03.77,16.55,2.32,16.55,4.65,1.15,1.18,2.91,2.18,5.3,2.99,1.54,1.52,2.31,3.18,2.31,4.96,0,.23.11.55.34.99h-.34l.34.68v1.64c0,1.71.11,3.26.34,4.65,0,7.5-2.65,11.25-7.95,11.25-1.82,0-4.14.33-6.96.99v.34c2.57,2.73,4.34,5.49,5.3,8.29,1.43.6,3.31,4.58,5.64,11.93.21,0,.31.1.31.31l-.31.68c.43,0,.76,3.64.99,10.91-.23,2.29-.34,3.62-.34,3.98l.68,3.98c-6.18.23-10.27.56-12.26,1.01-1.17-.23-2.27-.34-3.33-.34h-.31l.31-2.31v-.34c0-.23-.1-.34-.31-.34l.31-.65v-1.66c0-.45-.22-.68-.65-.68v.34c-2.42-.15-3.64-.7-3.64-1.66,0-17.44-.67-26.16-2-26.16,0-.36-.66-.69-1.97-.99l-2.31.68v-.68h-2c-.43.08-.65.3-.65.68v12.24c0,.23.1.34.31.34-.21,1.11-.42,1.66-.65,1.66l.34.65v.34c0,.51-.11.95-.34,1.33l.34.68-.34,1.64c0,.47.11,1.69.34,3.66-.23,1.92-.34,3.02-.34,3.3,0,.49.22,2.47.65,5.95-.21,0-.31.11-.31.34l.65.34-.34.65v1.66h-13.56c0-.66-.11-.99-.34-.99.23-.58.55-2.02.99-4.31l-1.66.34h-.31l-1.66-.34v-.99l.34-1.66h-.34c0-.23.11-.34.34-.34-.23-3.31-.34-5.73-.34-7.27v-3.98l.34-3.3h-.34l.34-.68v-1.66c0-.21-.11-.31-.34-.31l.34-.68v-.34l-.34-1.64h.34l-.34-.68.34-.65c-.23,0-.34-.11-.34-.34h.34l-.34-.68v-1.97c0-1.43.22-2.97.65-4.62h-.31c0-.23.1-.34.31-.34-.21-1.22-.31-2.1-.31-2.65l.31-.68c-.17-.88-.39-1.33-.65-1.33l.99-6.29-.65-2.65c.21-.38.31-.82.31-1.33v-.34c0-.49-.1-.93-.31-1.33l.31-.65-.31-2,.31-.65h-.31c0-.23.1-.34.31-.34,0-.23-.1-.55-.31-.99l.31-2.31c-.21-.43-.31-.76-.31-.99h.31l-.31-.68c.43-.81.65-1.69.65-2.65v-6.63l-.34-2.31c5.51-.45,10.48-.68,14.91-.68ZM354.79,240.22v5.64c.06.43.27.65.65.65v-2.31c0-.23-.11-.34-.34-.34l.34-.65-.34-1.66.34-1.97c-.43.06-.65.27-.65.65ZM360.74,261.08c.23,6.6.45,10.24.68,10.94l-.34,1.97c.15,4.19.37,6.29.65,6.29-.43.86-.65,2.09-.65,3.66,0,.43.11.65.34.65l-.34,2.31v6.29c0,.23-.44.67-1.33,1.33l-3.98-.65c0,.53-.33,1.41-.99,2.65,3.35.66,5.88.99,7.61.99.08-.43.29-.65.65-.65,0-.23-.1-.34-.31-.34l.31-2.31v-.68c0-.79-.1-1.79-.31-2.99.21-.38.31-.82.31-1.33h-.31c.21-.41.31-.74.31-.99l-.31-.65c.21-.43.31-.76.31-.99s-.1-.34-.31-.34l.31-1.66v-5.3l.34-1.97c-.23-.43-.34-.77-.34-1.01,0-.21.11-.31.34-.31-.23-1.99-.44-2.99-.65-2.99l.31-.68v-3.3c0-.23-.1-.34-.31-.34l.31-.65c0-.47-.1-1.69-.31-3.66,0-2.2,1.54-3.3,4.62-3.3v-.34c-1.99-.21-2.99-.42-2.99-.65l-3.64.99ZM355.44,269.37c0,2.05-.11,3.92-.34,5.61,0,.23.11.34.34.34l-.34,1.66v1.33l.34,2.31h.34v-5.64c0-.21.11-.31.34-.31l-.34-.68v-.65l.34-2.34h-.34l.34-.65c-.23-.43-.34-.76-.34-.99h-.34ZM360.4,232.94v3.64c0,.23-.1.34-.31.34l.99,5.27-.34.68c.23.43.34.76.34.99-.45.08-.68.3-.68.68v.65h2v-2.31l.34-2.31h-.34l.34-.68v-1.97l-.34-.68c1.54-1.09,2.31-1.86,2.31-2.31l7.3-.65c1.88.21,3.31.31,4.29.31v-.65c-1.24-.66-3.45-1.33-6.63-2v.34l-.65-.34-8.63,1.01ZM363.73,254.12c0,.45.77.79,2.31,1.01,0-.53-.77-.86-2.31-1.01ZM364.38,240.87h.34l-.34.68v.34c0,1.9.34,3.11,1.01,3.64,1.17-.6,3.92-1.16,8.26-1.66,2.65-.56,3.98-2.43,3.98-5.61-.55-1.33-1.64-2-3.3-2v.34c-.43-.23-.77-.34-1.01-.34-5.73,0-8.6.77-8.6,2.31,0,.68-.11,1.45-.34,2.31ZM365.06,227.64v.31h4.96c0-.43-.22-.65-.65-.65h-2l-2.31.34ZM376.3,270.02v.68c0,.21.11.31.34.31l-.34.68v.99l.34,2-.34.65c.23,1.05.34,2.6.34,4.65h.34c0-1.77.1-2.65.31-2.65l-.31-.68v-1.33c0-.9.1-1.79.31-2.65-.21-.85-.31-1.73-.31-2.65h-.68ZM390.88,232.61v.34l.99,6.63v4.29c0,1.01-.77,3.01-2.31,5.98-1.88,1.32-5.63,2.42-11.25,3.3v.68c0,.66,1.1.99,3.3.99,2.14-.23,4.13-.67,5.98-1.33l.65.34h.68c3.74,0,5.61-2.99,5.61-8.96v-.99c0-.23.11-.34.34-.34l-.34-.65v-1.33c0-5.36-.99-8.34-2.96-8.94h-.68ZM388.23,270.69v.65c.45,4.27.68,7.14.68,8.63h.31c0,.21-.1.31-.31.31.21,2.22.31,3.88.31,4.99v1.97c0,.49.11.93.34,1.33-.23.66-.44.99-.65.99l.31.68c-.43,1.09-.76,1.64-.99,1.64-4.64,0-6.96.34-6.96,1.01,0,.79-.1,1.78-.31,2.96.88.19,1.33.41,1.33.68,2.63-.45,4.61-.89,5.95-1.33.39.23.84.34,1.33.34,1.11-.17,1.66-.51,1.66-1.01v-3.3c0-.49.11-.93.34-1.33,0-.23-.11-.34-.34-.34l.34-1.33c-.17-3.74-.39-5.61-.68-5.61l.34-.68c0-2.2-.77-5.4-2.31-9.61l-.34-1.64h-.34ZM381.6,279.97v6.63h.34c.23-2.44.44-3.66.65-3.66l-.31-.65v-2.31h-.68ZM384.93,283.94l-.34,1.64c0,.23.11.34.34.34l-.34.68c0,.21.11.31.34.31-.23.43-.34.77-.34,1.01v.31h.34c.13-1.77.35-2.65.65-2.65-.23-.36-.34-.9-.34-1.64h-.31ZM389.22,239.88c0,.51-.1.95-.31,1.33.21.39.31.84.31,1.33l-.99,4.31h.68c.43-1.43.65-2.42.65-2.99v-3.98h-.34Z"/>
    <path class="cls-2" d="M407.71,224.43c2.97.23,5.15.57,6.54,1.04,1.56-.24,2.82-.37,3.78-.37h4.82c.53,0,.99-.11,1.38-.34l.68.34c2.22-.45,3.49-.68,3.81-.68,2.59.23,5,.34,7.22.34,1.62,1.65,2.42,4.29,2.42,7.92-.23.7-.46,1.04-.7,1.04,0,.24.12.59.37,1.04,0,.9-.12,1.35-.37,1.35.24,2.29.37,4.02.37,5.19v9.64c0,.23-.12.34-.37.34l.37.68c0,.58-.12,1.5-.37,2.76.24,1.95.37,3.56.37,4.82,0,.24-.12.59-.37,1.04.24,1.37.48,2.06.7,2.06l-.34,2.42v7.92c.45,7.41.68,11.42.68,12.04v1.72c0,.24-.11.37-.34.37.23.86.69,4.08,1.38,9.64h-.34l.34.68v1.04c-.02.3-.59.76-1.72,1.38h-7.25l-2.4.34c-.47-.81-1.04-6.32-1.72-16.55l.34-1.72c0-.23-.11-.34-.34-.34l.34-1.72v-6.2h-1.72c-.53,0-.99.11-1.38.34-2.54-.23-3.81-.45-3.81-.68l-.68.34c-1.2,0-3.16.11-5.86.34,0,.47-.11.7-.34.7,0,.23.11.34.34.34,0,.51-.11.97-.34,1.38.45,7.07,1.14,14.88,2.06,23.43l-.68.34h-3.78c-2.29,0-5.06.11-8.29.34-.92-.34-1.38-.69-1.38-1.04v-2.73c0-1.39-.11-2.09-.34-2.09l.34-3.44v-8.6c0-3.31-.11-7.79-.34-13.45l.34-.68c-.23-1.24-.34-2.27-.34-3.1v-5.53c0-.23.11-.34.34-.34l-.68-4.12.34-.7c0-.45-.11-.68-.34-.68l.34-2.42v-3.1c0-.23.11-.34.34-.34-.45-.92-.68-1.73-.68-2.42l.34-.68-.34-2.06c0-.23.11-.34.34-.34l-.34-1.75v-1.35c0-.24.11-.37.34-.37,0-.23-.11-.34-.34-.34,0-9.42,1.72-14.12,5.16-14.12v.34l2.09-.68ZM409.77,226.15c-.24,0-.59.11-1.04.34-.23,0-.34-.11-.34-.34-3.44,0-5.16.92-5.16,2.76s-.11,2.95-.34,3.1c0,.23.11.34.34.34-.23,3.1-.34,5.39-.34,6.88v4.14c0,.23-.12.34-.37.34l.7,4.14-.34,2.06v4.14c0,.77.11,1.34.34,1.72l-.34,2.06v5.53c0,.23-.12.34-.37.34.24.23.48,1.6.7,4.12,0,.77-.11,1.34-.34,1.72.23,1.58.34,2.85.34,3.81v5.86l.34,2.06c-.23.39-.34.86-.34,1.38,0,1.47.11,2.96.34,4.48-.23,2.2-.34,4.6-.34,7.22l.68,4.48h1.04c2.97,0,5.04.23,6.2.68l1.38-.68c0-.24-.12-.59-.37-1.04l.37-2.06c-.92-7.27-1.38-14.16-1.38-20.66v-1.72c.13-.7,1.04-1.04,2.73-1.04h13.45c1.15,0,1.72,3.79,1.72,11.36l-.34,1.72c.23,4.87.56,8.43,1.01,10.68h-.34c.47.94.7,1.63.7,2.06h1.38v-.68c1.48.45,2.52.68,3.1.68l.68-.34c.45.23.8.34,1.04.34.43-.23.77-.34,1.01-.34v-1.01l-1.01-11.39c0-.23.11-.34.34-.34,0-.17-.11-.86-.34-2.06-.24-7.01-.37-11.49-.37-13.45,0-.19.12-1.1.37-2.73-.24-.45-.37-.8-.37-1.04,0-.23.12-.34.37-.34l-.37-3.44v-14.12c0-.53.12-.99.37-1.38-.24-.39-.37-.86-.37-1.38v-.34c0-.7.12-1.04.37-1.04l-.7-5.16.34-2.06c0-.53-.11-.99-.34-1.38.23-1.58.34-2.85.34-3.81v-4.45c-2.07-.24-3.1-.48-3.1-.7-.23,0-.34.11-.34.34-1.84-.15-2.76-.38-2.76-.68l-.68.34h-1.38c-.77,0-1.34-.11-1.72-.34-.81.23-1.27.34-1.38.34-1.13,0-2.5-.11-4.12-.34-3.42.23-6.98.34-10.68.34ZM415.97,235.79c.24,0,.58.11,1.01.34l2.09-.34h2.73c.24,0,.37.11.37.34l.68-.34,3.1.34c.11,0,.57-.11,1.38-.34,1.22,0,2.02,1.61,2.4,4.82h-.34l.34.7c-.23,2.33-.34,4.16-.34,5.5v.7c0,.23-.11.34-.34.34.45,1.17.68,3.69.68,7.58,0,5.51-.34,8.26-1.01,8.26-3.23.23-5.99.34-8.26.34h-6.2c-2.29,0-3.67-.46-4.14-1.38l.34-1.72v-1.38c0-.83-.11-1.86-.34-3.1,0-.23.11-.34.34-.34-.3-3.18-.53-5.13-.68-5.86l.34-.68c-.23-.41-.34-.87-.34-1.38h.34c0-.23-.11-.34-.34-.34l.34-2.42v-1.01c0-.53-.11-.99-.34-1.38.45-1.03.68-2.53.68-4.48v-1.04c0-1.15,1.84-1.72,5.53-1.72ZM412.16,245.09v2.06c0,.24-.11.37-.34.37l.34.68v4.14c0,.51.12.96.37,1.35-.24.45-.37.8-.37,1.04.24,1.2.37,1.89.37,2.06,0,.24-.12.37-.37.37l.37,1.72v2.73c0,.47,1.72,1.05,5.16,1.75.23,0,.34-.12.34-.37l1.38.37c3.8-.24,6.09-.59,6.88-1.04.45.23.8.34,1.04.34.45-.92.8-1.38,1.04-1.38-.32-7.89-.67-13.29-1.04-16.18,0-.23.11-.34.34-.34-.28-2.48-.51-3.98-.68-4.48.23-.39.34-.86.34-1.38-.23-.45-.34-.8-.34-1.04-2.29,0-5.17-.34-8.63-1.01-3.89,0-5.84.92-5.84,2.76-.24,1.3-.37,3.13-.37,5.5Z"/>
    <path class="cls-2" d="M278.46,307.16v.24c.17,0,.26-.08.26-.24,4.43,0,8.02,1.36,10.78,4.08,1.92,3.25,2.88,7,2.88,11.27v2.42c0,.16.09.39.26.71,0,.16-.09.24-.26.24.33,1.29.49,2.65.49,4.08v2.88l-.24,1.7c.16,0,.24.07.24.22h-.24l.24.49v2.88l-.24.47h.24c0,.16-.08.24-.24.24l.24,2.42v1.18c0,.16-.08.24-.24.24,0,.17.08.26.24.26-.21,1.64-.37,2.6-.49,2.88h.26l-.26.47.26.49c-.81,5.11-1.7,7.67-2.64,7.67,0,1.83-4.4,3.19-13.21,4.1h-2.88c-.16,0-.24-.09-.24-.26l-.49.26c-.35,0-.68-.09-.97-.26-1.12.17-1.68.33-1.68.47l-.47-.22-1.44.22v-.22c-.32-5.74-.47-8.95-.47-9.62v-1.7c0-.14-.09-.22-.26-.22l.26-.49v-.47c0-.16-.09-.24-.26-.24l.26-.49v-2.15c0-.16-.09-.24-.26-.24l.26-.49v-.24c0-.58-.09-1.29-.26-2.15.17-.29.26-.61.26-.97-.17-.32-.26-.55-.26-.71h.26c-.17-.28-.34-1.24-.49-2.88.16,0,.24-.09.24-.26h-.24l.24-.49-.24-.47.24-1.2c0-.47-.08-.71-.24-.71l.24-2.88v-10.57c0-.16-.08-.24-.24-.24.26-.33.58-3.85.97-10.57.63,0,.95-.09.95-.26l1.22.26h.24l1.68-.26c0,.17.08.26.24.26,0-.17.08-.26.24-.26v.26c1.06-.32,2.83-.64,5.28-.97ZM269.33,325.15v2.66c0,.57.08,1.28.24,2.15-.16.26-.24.66-.24,1.2h.24c-.16,1.45-.31,2.17-.45,2.17.14.2.22.76.22,1.68h.24c0-1.12.09-1.76.26-1.93-.17,0-.26-.08-.26-.24h.49v-.97c0-.14-.08-.22-.24-.22l.24-.49-.24-2.39h.24l-.24-.49v-1.44c0-.16.08-.24.24-.24l-.24-.49.24-.47c-.33,0-.49-.16-.49-.49h-.24ZM270.79,340.05v.95h.24c0-.49.07-1.04.22-1.68-.3,0-.45.24-.45.73ZM271.25,313.4l-.22,1.68v.26c0,.14.07.22.22.22l-.22.49c0,.16.07.39.22.71l-.22,1.46v.95h.47v-.95c0-.37.08-.69.24-.97-.16-.29-.24-.61-.24-.97,0-.16.08-.24.24-.24-.16-.59-.24-1.47-.24-2.64h-.26ZM271.03,321.09v.97c.04.3.2.45.47.45l-.26.49v.47c.33,0,.49-.16.49-.47l-.24-.95c.16-.32.24-.57.24-.75v-.22h-.24v.47h-.26v-.47h-.22ZM271.03,324.94l.22,1.18c0,.17-.07.41-.22.73,0,.16.07.24.22.24l-.22,1.2.22,1.2h.26v-4.81l-.47.26ZM271.03,329.72c.14.04.22.84.22,2.4h.26v-2.4h-.47ZM272.21,349.16v.97c0,.37.09.68.26.95,0,.17-.09.26-.26.26.17.7.26,1.89.26,3.59h.24v-4.32h.24c-.16-.16-.24-.8-.24-1.91-.33.05-.49.21-.49.47ZM273.41,324.68v2.17l-.24.47h.24l-.24.49c0,.14.08.22.24.22l-.24,1.2v4.55c0,.37.08.69.24.97-.16.29-.24.61-.24.97v1.2l.24.49h-.24c0,.47.24.71.73.71v2.17h-.49l.26.47c0,.37-.09.69-.26.97l.26.47c-.17.3-.26.55-.26.73l.26.47c0,.16-.09.24-.26.24l.26,1.2v.71h.47l-.24-.45v-.26l.24-.49c-.16,0-.24-.07-.24-.22h.24c0-.17-.08-.26-.24-.26,0-.3.16-.86.47-1.68-.16-.87-.24-1.58-.24-2.15.16-1.14.24-1.79.24-1.93h-.47v-.24h.47v-.47h-.47v.47l-.49-.26.49-.95c-.16-.87-.24-1.58-.24-2.15l.24-1.46c0-.16-.08-.24-.24-.24,0-.17.08-.41.24-.71-.16-1.42-.24-2.3-.24-2.64l.24-1.46c-.16-.87-.24-1.74-.24-2.62.16-.32.24-.56.24-.73h-.49ZM275.09,311.97l-.22,2.4v.97l-.26.45h.26l-.26.49v.97c.32-.16.56-.24.73-.24v-1.93c0-.16.08-.24.24-.24l-.24-.47v-2.4h-.26ZM275.09,332.37l.26,1.2h.24v-.49h-.24l.24-.47v-.73c-.33.05-.49.22-.49.49ZM275.84,345.32c-.17,2.6-.26,4.05-.26,4.34h.26c-.17.8-.34,1.2-.49,1.2l.24.47v2.4c0,.35.09.68.26.97-.17.26-.26.58-.26.95v.73c.04.32.2.47.47.47,0-.32.08-.47.24-.47,0-.33-.08-.49-.24-.49l.24-2.88v-3.61c0-.84-.08-2.2-.24-4.08h-.22ZM276.29,320.84h.49v-1.91l.24-1.2c-.35,0-.6,1.04-.73,3.11ZM276.78,311.71c0,.49-.08,1.05-.24,1.7l.47.24v-1.93h-.24ZM277.26,328.03v3.63c.33,0,.49-.16.49-.49v-1.68l-.24-.49h.24c-.16-.28-.24-.6-.24-.97h-.26ZM278.46,312.44c0,.35-.08.68-.24.97.11,2.4.27,3.61.49,3.61l-.26.45v.75c.26,0,.51-.64.73-1.93-.17-.96-.33-1.44-.47-1.44l.22-.47-.22-.49h.22c-.14-.25-.22-.73-.22-1.44h-.26ZM278.46,323.48l.26,1.2v.26c0,.14-.09.22-.26.22l.26.49v.24c0,.16-.09.24-.26.24l.26.49v.24c0,.35-.09.68-.26.97.17.14.26.78.26,1.91h.22v-1.91h-.22l.22-.49v-3.84h-.47ZM279.19,349.4v.26h.24l-.24.47c0,.37.08.68.24.95-.16.29-.24.61-.24.97l.24.49c-.16.32-.24.55-.24.71l.47.26v-.26h-.24c.16-1.12.32-1.68.47-1.68-.2-1.45-.43-2.17-.71-2.17ZM280.87,324.44v4.79l-.24,1.22.47.24c0-.16.08-.24.24-.24l-.24-.49v-2.64l.24-.47h-.24c0-.16.08-.24.24-.24-.16-.88-.24-1.6-.24-2.17h-.24ZM280.87,319.89v1.91c.32,0,.47-.16.47-.49-.16,0-.24-.07-.24-.22h.24c-.16-.28-.24-.68-.24-1.2h-.24ZM281.34,346.05c0,.17-.08.41-.24.73l.24,1.2-.24,1.18h.24l-.24.49v2.17l.24,1.42c-.16.32-.24.55-.24.71l.49.26.22-.97c0-.16-.07-.24-.22-.24l.22-1.18v-5.3c0-.32-.16-.47-.47-.47ZM282.07,314.84l.24,1.2v2.17c0,.14-.08.22-.24.22l.24.49v5.52h.26l.22-1.2h-.22l.22-.47v-1.46c0-.14-.07-.22-.22-.22l.22-.49v-4.32l.24-1.7h-.45l-.49.26ZM282.78,335.01v.49c0,.34.08.66.24.95l-.24.47c.16.29.24.61.24.97h.26v-2.88h-.49ZM283.01,340.29c0,1.59-.08,2.39-.24,2.39.16.28.24.68.24,1.2h.26v-3.59h-.26ZM283.27,326.85c0,.47-.09.71-.26.71.17.26.26.67.26,1.22h.24v-1.93h-.24ZM283.01,329.49v3.35h.26c0-.47.08-.71.24-.71-.16-.32-.24-.56-.24-.73,0-.2.08-1,.24-2.4-.33.05-.49.22-.49.49ZM283.01,338.38v1.68h.26v-1.68h-.26ZM283.01,347.72v2.88h.26c0-1.75.08-2.62.24-2.62l-.49-.26ZM284.95,311.71l-.47,3.63.22.45-.22.49.22.47c-.14.32-.22.55-.22.71.14.32.22.57.22.75h.26v-2.42l.24-.45c-.16,0-.24-.09-.24-.26h.24l-.24-.49v-.95l.24-.47h-.24l.24-.49v-.97h-.24ZM285.91,341.73v3.59c0,.16.08.24.24.24-.16,1.12-.32,1.68-.49,1.68.17,1.62.41,2.42.73,2.42,0-1.45.08-2.17.24-2.17l-.24-.47v-4.34c0-.16-.08-.24-.24-.24l.24-.47v-.71c-.32.04-.47.2-.47.47ZM286.15,318.43c-.16,1.42-.24,2.31-.24,2.66v1.42h.24c0-.24.08-1.35.24-3.35v-.73h-.24ZM286.15,339.09c0,1.12-.08,1.75-.24,1.91h.24l.24-.49v-1.42h-.24ZM286.15,317.72v.24h.24c.32-1.35.47-2.23.47-2.62-.32,0-.55.8-.71,2.39ZM287.82,334.28v4.1l-.24,1.18h.24l-.24.49c0,.16.08.24.24.24l-.24,1.18v1.93h.24l.24-1.68v-.97h.47c0-.32-.16-.47-.47-.47l.26-2.4v-3.61h-.49ZM287.59,348.19v.26c0,.16.08.24.24.24l-.24.47v.73c.32,0,.47-.16.47-.49v-1.2h-.47ZM287.82,327.08v1.7h.24v-1.7h-.24ZM289.99,336.45l-.26,1.18h.26l-.26.49v.71h.49v-2.39h-.24Z"/>
    <path class="cls-2" d="M307.02,307.41v.24l.47-.24h1.14c.35,0,.66.08.93.24l.47-.24c4.57,0,7.12.62,7.63,1.85.88,1.3,1.58,3.77,2.09,7.41h-.24c.16.3.24.53.24.69,0,1.27.16,2.9.47,4.87,0,.14-.08.22-.24.22l.24,1.16v1.62c0,.16-.08.24-.24.24l.45,1.4-.45.22c.3.51.45.98.45,1.4v.93c0,.34-.07.65-.22.93.14.26.22.57.22.93v1.62l-.22.47h.22c0,.14-.07.22-.22.22.14,1.85.3,2.78.45,2.78l-.24.47c0,.46.08.69.24.69-.21,2.06-.44,3.45-.69,4.16,0,.16.08.24.24.24,0,6.58-.7,10.99-2.09,13.21-.28,0-1.2.46-2.78,1.38h-.47c-.29-.16-.52-.24-.69-.24v.24l-.45-.24h-.47l-1.38.24-.47-.24c-1.73.28-3.9.51-6.48.71-4.63-.47-6.94-1.17-6.94-2.09-.81,0-1.59-1.54-2.33-4.63v-2.54l-.22-.47h.22l-.22-.45v-1.85c0-.35.07-.66.22-.93-.14-.28-.22-.58-.22-.93v-1.62c0-.16-.08-.24-.24-.24l.24-.47c0-.46-.08-.69-.24-.69.16-.59.31-2.21.45-4.87-.14-1.45-.22-2.83-.22-4.16h.22l-.22-.45c0-.64.15-1.96.45-3.94-.16-.3-.24-.53-.24-.69h.24l-.24-.47v-1.16l.24-.45h-.24l.24-.47v-3c0-.72.31-2.58.93-5.56h-.24c0-3.3,1.93-5.54,5.8-6.72,1.08,0,2.62-.23,4.63-.69ZM296.59,325.23c.16,2.58.32,3.97.47,4.18-.16.26-.24.57-.24.93v.69c0,.16.08.24.24.24l-.24.45.24,2.33c-.16,0-.24.07-.24.22.16,0,.24.08.24.24h-.24c0,.16.08.24.24.24l-.24,1.16v3.47l-.24.45h.24l-.24.47v.45c0,.16.08.24.24.24l-.24.47.47,2.78h-.24l.24.45v.93c0,.35-.08.66-.24.93.43,5.72,2.29,8.57,5.56,8.57v-.24c.16.16,1.08.31,2.78.45v-.22c.89.3,2.83.45,5.8.45,3-.42,4.69-.88,5.09-1.38v.22c1.24,0,2.01-2.46,2.33-7.39v-1.85l.22-1.4-.22-.45c.14-.28.22-.58.22-.93v-.24c0-.16-.07-.24-.22-.24.3-.7.45-1.7.45-3.02v-3.92c0-1.08.08-2.78.24-5.11h-.24l.24-.45c-.16-.3-.24-.53-.24-.69h.24l-.24-.47v-.45c0-3.9-.31-8.07-.93-12.52l.24-.45c-.93-3.4-1.63-5.11-2.09-5.11-.41-.46-1.56-.92-3.47-1.38-8.95.49-13.42,1.64-13.42,3.47-1.71,2.93-2.56,7.4-2.56,13.42ZM306.57,311.57l.93.24.93-.24c3.69.58,5.54,1.74,5.54,3.49.22,0,.53,1,.93,3,0,.16-.07.24-.22.24.14,1.39.3,2.09.45,2.09,0,.14-.08.22-.24.22l.24,1.16v2.09c0,.51.08.9.24,1.16l-.24,1.38v4.4c0,.35.08.66.24.93-.16.28-.24.58-.24.93v2.33c0,.14.08.22.24.22l-.24.47v.93c0,.16.08.24.24.24l-.24.45c.16.3.24.53.24.69h-.24l.24.47-.24.93.24.45-.24,1.4c.16,1.1.24,1.72.24,1.85-.16.3-.24.53-.24.69h.24l-.24.47v2.31c-.37,2.93-1.14,4.4-2.31,4.4-2.58.53-3.89.83-3.94.93l-.45-.24h-1.16c-4.17-.43-6.25-1.2-6.25-2.31-.28-.78-.58-2.4-.93-4.87.14-.29.22-.52.22-.69l-.22-.45c0-.16.07-.24.22-.24l-.22-1.16v-.24c0-1.55-.08-3.48-.24-5.78l.24-.93c-.16-.6-.24-1.22-.24-1.85h.24l-.24-.47v-3c0-.35.08-.66.24-.93-.16-.28-.24-.58-.24-.93v-1.85l.24-1.4-.24-.45.24-.47c0-.3-.08-.45-.24-.45.3-3.38.76-6.39,1.38-9.03,2.19-1.35,3.98-2.21,5.34-2.56ZM301.46,321.07c0,.16.08.24.24.24-.16,1.54-.24,2.69-.24,3.47v2.31c0,.16.08.24.24.24-.16.46-.32.69-.47.69l.24,1.16v.47l-.24.45h.24c0,.16-.08.24-.24.24l.24,2.31v1.62c0,.16.08.24.24.24l-.24.47v.22l.24.47c-.16,0-.24.08-.24.24h.24l-.24.45v1.16c0,.16.08.24.24.24l-.24.45v1.62c0,.16.08.24.24.24-.16.3-.24.53-.24.69.16.47.32.71.47.71l-.24.45c0,5.1.7,7.65,2.09,7.65,1.04.46,1.89.69,2.54.69h.69c3.86-.3,5.8-.76,5.8-1.38l.93-5.8-.24-.47v-7.86c0-.16.08-.24.24-.24l-.24-.45c0-.16.08-.24.24-.24l-.24-.45v-.24c0-.16.08-.24.24-.24l-.24-.45v-.24l.24-.47h-.24l.24-.45v-1.16l-.24-.45h.24l-.24-.47c0-.16.08-.24.24-.24l-.24-.45v-.24l.24-1.38c0-.16-.08-.24-.24-.24l.24-.93c-.16-3.48-.39-6.03-.71-7.65l.24-.45c-.24-2.79-1.54-4.18-3.92-4.18-1.09-.14-2.02-.22-2.78-.22-2.63.64-3.94,1.57-3.94,2.78-.46,1.51-.77,3.21-.93,5.09h-.24Z"/>
    <path class="cls-2" d="M182.63,370.82c0,.23.1.34.31.34,0-.23.11-.34.34-.34v.34c.23,0,.34-.11.34-.34,5.99,0,10.11,2.34,12.34,7.01.66,1.63,1.21,4.95,1.65,9.98v2.01l-.31,1.67h.31l-.31.65c.21.4.31.84.31,1.33h-.31l.31.68c-.21.38-.31.82-.31,1.33h.31l-.31.65c0,4.22.1,8.77.31,13.67-.15,2.87-.48,4.31-.99,4.31.23.43.34.78.34,1.02,0,1.87-.23,3.65-.68,5.33h.34l-1.67,12.31v.68l.34.65c-.43.08-.65.3-.65.68,2.08,3.99,3.86,5.99,5.33,5.99l-.34.68v.31c.06.45.27.68.65.68,0,.61-1.44,2.6-4.31,5.99,0,1.34-.89,2.01-2.67,2.01-.87-1.68-3.09-4.35-6.67-8l-6.67,1.33-.68-.34c-2.33.45-3.76.68-4.31.68-10,0-15.01-1.89-15.01-5.67l-1.33-3.32c0-.25.11-.59.34-1.02-.53-7.9-.97-12.79-1.33-14.67.21-.42.31-.75.31-.99-.43-5.35-.65-8.79-.65-10.33v-7.66l.34-2.33c-.23,0-.34-.11-.34-.34h.34l-.34-.68v-2.33c0-.23.11-.34.34-.34l-.34-.65c0-4.05,1-8.71,3.01-13.98,1.3-3.25,4.75-5.82,10.33-7.69l.65.34c1.12,0,1.67-.22,1.67-.65l.68.31h.31c.23,0,.34-.1.34-.31l.68.31,7.66-1.33ZM164.96,398.48c-.4,2.29-.73,4.74-.99,7.35l.34.65c-.23.4-.34.84-.34,1.33,0,.23.11.34.34.34l-.34,1.67v10.33c0,.23.11.34.34.34l-.34.65v3.35h.65v-5.33c0-.23.11-.34.34-.34,0-.23-.11-.34-.34-.34.45-3.65.68-8.76.68-15.32h.34l-.34-.68v-4h-.34ZM167.28,395.16v3.32h.34c0-.89.11-1.33.34-1.33-.23-.32-.34-.98-.34-1.99h-.34ZM167.62,391.16v2.33h.34c0-.66.11-1.44.34-2.33h-.68ZM168.3,422.13c-.32,4.03-.55,6.36-.68,7.01.23.57.34,2.34.34,5.33h.34l.31-1.99-.31-2.35.31-1.99h-.31c0-.23.1-.34.31-.34l-.31-1.67c0-.21.1-.31.31-.31l-.31-.68c0-.17.1-.83.31-1.99v-1.02h-.31ZM167.96,386.82v3.66h.34v-3.66h-.34ZM167.96,434.81v3.66h.34v-3.66h-.34ZM170.29,420.15l-.34,2.33h.34l-.34.68c.23,1.15.34,2.26.34,3.32.45,0,.68-.22.68-.65v-2.35l-.34-3.32h-.34ZM170.29,427.47v8.99h.34l.34-2.33v-5.99c0-.45-.23-.68-.68-.68ZM170.97,406.48v3.35c0,.23-.11.34-.34.34l.34.65v2.67l-.34.65.65.34c0-1.12.11-1.67.34-1.67l-.34-.65v-2.67c0-.49.11-.94.34-1.33-.23-.36-.34-.92-.34-1.67h-.31ZM177.64,381.17l-.68,4.65c.23.89.34,1.66.34,2.33h.34l.31-4v-2.98h-.31ZM177.64,429.48c0,1-.11,1.66-.34,1.99.23.4.34.84.34,1.33-.23,0-.34.11-.34.34h.65v-3.66h-.31ZM180.95,373.83c-.66,2.5-.99,4.5-.99,6.01v.99h.34c0-1.78.22-2.67.65-2.67l-.34-.68c.66-1.55.99-2.66.99-3.32l-.65-.34ZM183.62,375.5c-1.12,5.39-1.67,11.94-1.67,19.66-.23.43-.34.77-.34.99.68,0,1.02.33,1.02.99h-.34c0,.23.11.34.34.34l-.34,2.33v1.67c0,.51.11.95.34,1.33-.23.4-.34.84-.34,1.33v.34c.43,0,.77-1.22.99-3.66,0-.23-.11-.34-.34-.34l.34-2.01-.34-1.99c.23-.87.34-1.76.34-2.67h-.34c.23-.4.45-1.4.68-3.01-.23-.38-.34-.82-.34-1.33h.34c0-.23-.11-.34-.34-.34l.34-1.65v-4.34c0-.96.22-1.85.65-2.67l-.31-.65.31-.68-.31-.65c.21-.43.31-.78.31-1.02h-.31l.31-.65v-1.33h-.65ZM183.96,431.47c0,1.12-.11,2.78-.34,4.99h.65v-3.32c0-.23.11-.34.34-.34l-.34-.65.34-.68h-.65ZM185.95,389.14c-.89,10-1.33,16.23-1.33,18.66v8.99c0,.51-.11.95-.34,1.33.23.43.34.78.34,1.02h-.34l.34.65-.34,2.01c0,.21.11.31.34.31l-.34.68v.34h.68v-4.68l.34-4h-.34c.43-1.36.65-2.25.65-2.67,0-.23-.1-.34-.31-.34l.65-5.3h-.34l.68-3.35h-.34l.34-.65v-3.69c0-1.44.11-3.66.34-6.67h-.34l.34-.65v-.68c0-.21-.11-.31-.34-.31l.34-.68v-.34h-.68ZM188.27,380.83v1.33c0,.49-.1.94-.31,1.33.21.38.31.82.31,1.33-.11,2.44-.33,3.66-.65,3.66.23,1.99.56,3.65.99,4.99l-.34,1.67h.34l-.34.65c.23.4.34.84.34,1.33h-.34c.23.43.34.78.34,1.02h.34v-2.67c0-.23-.11-.34-.34-.34l.68-3.01c-.23-.38-.34-.82-.34-1.33,0-.23.11-.34.34-.34-.23-1.32-.45-1.99-.68-1.99l.34-.68v-6.98h-.68ZM188.27,404.49l.34.65c-.23.43-.34.78-.34,1.02h.68v-1.02c0-.21-.11-.31-.34-.31l.34-.68v-.34c-.45.08-.68.3-.68.68ZM188.27,406.82v3.66h.34c0-1.1.11-1.65.34-1.65l-.34-.68c0-.23.11-.34.34-.34-.23-.42-.34-.75-.34-.99h-.34ZM188.27,410.82v2.33h.34v-2.33h-.34ZM190.63,402.82c0,.51-.11.95-.34,1.33h.34l-.34.68c0,.66.11.99.34.99l-.34,1.67v2.98l-.34,3.35h.34c-.23.42-.34.75-.34.99.23.43.34.77.34.99-.23,0-.34.11-.34.34h.68c.21-2.61.31-4.5.31-5.67v-2.33c0-.23.11-.34.34-.34,0-.21-.11-.31-.34-.31l.34-2.35-.34-2.33h-.31ZM190.94,393.48v1.33l-.31,2.01c0,.21.1.31.31.31l-.31,1.67c0,.51.1.95.31,1.33-.21.4-.31.84-.31,1.33v.34c.49,0,.82-1.22.99-3.66l-.34-.68c.23-.38.34-.82.34-1.33h-.34l.34-.65v-2.01h-.68ZM191.28,387.5c0,.89-.11,1.33-.34,1.33l.34.65v3.66h.34v-5.64h-.34ZM192.27,428.15c0,.23.11.34.34.34l-.34,1.33v1.33h.34c0-.28.11-1.4.34-3.35l-.68.34ZM193.29,383.16v.99c0,.23.1.34.31.34-.21.49-.43,1.94-.65,4.34.23,1.93.34,3.59.34,4.99v.65h-.34v-.65h-.34v.65c.23,0,.34.11.34.34h-.34l.34.68c0,.21-.11.31-.34.31l.34.68v3.32h.34v-4l.65-.31v1.65h.34v-2.33h-.34l.34-.65v-.68c0-.23-.11-.34-.34-.34l.34-.65c0-.23-.11-.34-.34-.34l.34-.65-.34-3.01c0-.23.11-.56.34-.99l-.34-2.01v-2.33h-.65ZM193.61,415.81c0,3.56-.22,5.33-.65,5.33l.34.68-.34.65h.34c-.17.4-.4,1.96-.68,4.68.68,0,1.13-3.34,1.33-10.01v-.34l.34-.65-.68-.34Z"/>
    <path class="cls-2" d="M236.89,373.17h1.67c.61,0,1.05,1.11,1.33,3.32v4.34c0,.74.11,1.3.34,1.67l-.34,1.99v.68c0,1.89.11,3.89.34,5.99l-.34,1.33c.23,1.89.34,3.34.34,4.34-.23,4.73-.34,7.5-.34,8.31.23,0,.34.11.34.34-.23,0-.34.11-.34.34h.34l-.34.65c.11,2.46.33,3.69.65,3.69l-.31.65v3.32c0,.23-.11.34-.34.34l.34.68c-.23.38-.34.82-.34,1.33h.34l-.34.65v3.01l.34,1.99-.68,3.35.34.65-.34.68c0,.23.11.34.34.34,0,5.62-1.22,10.84-3.66,15.66-.45.06-.68.27-.68.65l-.65-.34c-1.48.68-2.48,1.02-3.01,1.02h-3.01c-.23,0-.34-.11-.34-.34-.42.23-.75.34-.99.34-.43-.23-.77-.34-.99-.34v.34c-.4-.23-1.5-.45-3.32-.68-.23,0-.34.11-.34.34-4.9-.32-7.35-.65-7.35-.99-.21,0-.31.1-.31.31-6.9-.96-10.35-4.29-10.35-9.98,0-3.29-.1-6.4-.31-9.33.21-.43.31-.77.31-.99-.43-.96-.65-2.74-.65-5.33v-10.33c0-.51.11-.95.34-1.33,0-.23-.11-.34-.34-.34l.34-2.33v-.34c0-5.65.22-9.1.65-10.33-.23-.4-.34-.84-.34-1.33l.34-1.67-.34-.65c.23-.43.34-.78.34-1.02h-.34c.17-.38.4-1.7.68-3.97,0-.23-.11-.34-.34-.34.45-6.45,1.01-9.67,1.67-9.67.43,0,.65-.11.65-.34l1.67.34h4.34c1.19,0,1.85.67,1.99,2.01l-.31.65v9.33c0,.49-.11.94-.34,1.33,0,.23.11.34.34.34,0,.76-.67,6.19-2.01,16.31h.34c0,.23-.11.34-.34.34.45,2,.68,3.45.68,4.34h-.34c.23.43.34.77.34.99-.23,1.17-.34,1.83-.34,1.99.43.81.65,1.7.65,2.67,0,.57-.1,1.46-.31,2.67l.31,2.01c-.21,0-.31.11-.31.34h.31l-.31.65v.68c0,.49.1.94.31,1.33l-.31.65.65,2.67c-.23,0-.34.11-.34.34.28,0,.73.78,1.33,2.33.59,1.95,3.04,3.84,7.35,5.67,3.76-.76,5.64-2.65,5.64-5.67.17-.72.61-3.72,1.33-8.99h-.31l.31-.68v-.31c0-2.59.11-6.7.34-12.34h-.34l.34-.65v-.68l-.34-.65h.34l-.34-.68c.23-2.61.34-4.5.34-5.67-.23-1.57-.34-2.46-.34-2.67.23,0,.34-.1.34-.31h-.34l.34-.68c0-.23-.11-.34-.34-.34,0-.23.11-.56.34-.99,0-.74-.11-2.62-.34-5.64,0-.91.11-2.91.34-6.01-.23-2.14-.34-4.25-.34-6.33,3.29-.66,5.63-.99,7.01-.99ZM206.91,432.49c.43,1.29.77,2.72.99,4.31h.68v-.34c-.68-2.17-1.02-3.61-1.02-4.31l-.65.34ZM207.56,411.16c.23.87.34,1.65.34,2.33h.34v-2.67l-.68.34ZM208.24,397.82v2.33h.34v-2.33h-.34ZM212.24,375.84c0,.21-.11.31-.34.31l.34,2.01h.34l.31-1.67c0-.43-.22-.65-.65-.65ZM216.58,433.14v.34l2.33,1.67c.43,0,.65-.23.65-.68-1.83-.89-2.83-1.33-2.98-1.33ZM232.24,414.47c0,.13-.11,1.58-.34,4.34h.34c-.45.81-.68,1.7-.68,2.67v.34c.08.43.3.65.68.65.43-2.67.65-4.11.65-4.34h-.34c0-.21.11-.31.34-.31-.23-.78-.34-1.89-.34-3.35h-.31ZM234.91,380.49c0,.45-.11.68-.34.68l.34,3.32v2.33h.65v-1.99c0-.23-.11-.34-.34-.34,0-.23.11-.34.34-.34-.23-.79-.34-2.01-.34-3.66h-.31ZM236.55,375.16l.68,3.35h.34v-.68c-.23-1.23-.34-2.12-.34-2.67h-.68ZM237.23,390.17v1.99h.34l-.34.68v.31h.34c0-.43.1-.65.31-.65-.21-.89-.31-1.66-.31-2.33h-.34ZM237.23,393.82v4h.34v-4h-.34Z"/>
    <path class="cls-2" d="M278.53,370.14c.38.23.82.34,1.33.34v-.34c.21,0,.31.11.31.34l1.67-.34c1.06,0,1.83.89,2.33,2.67,2.46.26,3.69.71,3.69,1.33-.45,1.97-.68,3.3-.68,4,.23,2.8.34,4.46.34,4.99-.66,0-.99.23-.99.68-.43-.23-.78-.34-1.02-.34-3.21,0-6.54.22-9.98.65-.17,0-.84-.1-2.01-.31-1.32,0-4.54.22-9.64.65-.87-.23-1.76-.34-2.67-.34-.17.59-.4,1.92-.68,4,.23,0,.34.11.34.34h-.34l.34.68v8.65c.43.51.65,1.29.65,2.33h2.01c.93,0,2.15-.1,3.66-.31.72.43,1.28.65,1.67.65v3.35c.23,0,.56.1.99.31.23,0,.34-.1.34-.31l1.67.31h.31l.68-.31v.31c-.23,3.31-.34,5.53-.34,6.67h.34l-.34.68.34.65-.34,1.67.34,1.33c-.23.87-.34,1.76-.34,2.67-.89.11-1.33.44-1.33.99-.43-.21-.77-.31-.99-.31-.57.34-1.79.67-3.66.99l-.68-.34h-3.32l.31.68v.31l-.99-.65h-.34v7.66l.34,1.67h-.34l.34.65v1.67l-.34.68h.34l-.34.65c.23,1.78.57,2.67,1.02,2.67h4.65c.23,0,.34.11.34.34.23,0,.34-.11.34-.34l3.32.34h.34c1.63,0,4.62-.33,8.99-.99v.31l.68-.31h.99c.66.21.99.87.99,1.99-.23,0-.34.11-.34.34h.34l-.34.65v.34l.68.99,1.67-.31h2.33c0,4.65.33,6.98.99,6.98,0,.23-.11.34-.34.34l.34,1.67v.65c0,1.74-.56,2.86-1.67,3.35h-5.99c-.23,0-.34.11-.34.34l-.65-.34-5.33.65v-.31l-.68.31c-.66,0-.99-.1-.99-.31-1.68.21-2.8.43-3.35.65-1.19-.23-2.18-.34-2.98-.34-2.04,0-4.94.23-8.68.68v-.34l-.65.34h-8l-.68-.34.34-2.33v-1.67c0-.43-1.33-.77-4-.99,0-.45-.11-.68-.34-.68.23-.66.45-.99.68-.99l-.34-.65.34-.68h-.34c.32-.7.65-2.25.99-4.65l-.34-.68v-3.32c0-.23-.1-.34-.31-.34.43-1.02.65-2.02.65-3.01h-.34l.34-.65v-13.33l-.34-.68h.34l-.34-.65v-8c0-.23-.1-.34-.31-.34l.65-1.67c0-.23-.11-.56-.34-.99.23-1.21.34-2.21.34-3.01v-.34c0-.21-.11-.31-.34-.31l.34-.68v-1.67c0-.21-.11-.31-.34-.31.23-.28.45-1.84.68-4.68-.23-3.12-.34-5.79-.34-8,.23,0,.34-.11.34-.34h-.34l.34-.65v-2.01c0-.21-.11-.31-.34-.31l.34-.68c0-.23-.11-.34-.34-.34l.34-.65-.34-.68h.34c-.28-2.16-.61-3.82-.99-4.99l.31-.65-.31-.68.65-2.33h-.34c.23-.43.34-.77.34-.99h.68c5.54,0,8.31-.23,8.31-.68,1.13.45,3.14.68,6.01.68.23,0,.34-.11.34-.34l1.33.34c10.67-.49,16-1.05,16-1.67ZM283.18,440.8l.68,5.67c-.23,0-.34.1-.34.31h.34c-.23.43-.34.78-.34,1.02h-.34v-.68c-.43.23-.77.34-.99.34-.74-.45-1.41-.68-2.01-.68-.89.06-1.33.28-1.33.68-.21,0-.31-.11-.31-.34l-4,.34h-.34c-.51,0-.95-.11-1.33-.34l-.68.34c-.49,0-.94-.11-1.33-.34-1.89.23-3.44.34-4.65.34h-4l-2.01.34c-1.78-.23-2.67-.45-2.67-.68l-.65.34h-2.33c-2.23,0-3.35.33-3.35.99l-.34,2.33h3.69l.65-.31v.31l.68-.31h.31c.23,0,.34.1.34.31l.68-.31h2.33l1.67-.34c0,.23.1.34.31.34v-.34l.68.34h.65l.68-.34v.34l.65-.34,1.33.34c1.17-.23,2.29-.34,3.35-.34v.34l.65-.34h1.02c.21,0,.31.11.31.34.93-.23,4.48-.67,10.67-1.33.23,0,.34.1.34.31,2.89-.21,4.34-.54,4.34-.99v-.65l-.68-1.02h.34c0-.21-.11-.31-.34-.31,0-.17.11-.84.34-2.01-.17-2.67-.5-4-.99-4l-1.67.34ZM255.53,441.79h.34c.42-.23.75-.34.99-.34v.34c.38-.23.82-.34,1.33-.34v-.31h-2.01c-.43.06-.65.27-.65.65ZM283.87,374.79l-.34,1.67v2.67c-8.42.23-13.86.56-16.34.99-.4-.21-.84-.31-1.33-.31-.43.21-.77.31-.99.31v-.31l-2.01.65c-.42-.23-.75-.34-.99-.34,0,.23-.11.34-.34.34v-.34l-.65.34c-1.59-.23-2.48-.34-2.67-.34l-1.67.34v.99c0,.81.11,1.82.34,3.01-.23.4-.34.84-.34,1.33h.34l-.68,3.66c.28,6.68.62,10.01,1.02,10.01.38.23.82.34,1.33.34h.31c0-.45.11-.68.34-.68l-.34-.65v-4c0-.51-.1-.95-.31-1.33l.31-.68c-.21-2.27-.31-4.05-.31-5.33v-1.99c0-.76-.34-1.54-1.02-2.35,0-.55.44-.88,1.33-.99.89,0,2.34.23,4.34.68l.68-.34c.23,0,.56.11.99.34,11.25-.51,18.03-.95,20.34-1.33,0-.59.22-1.7.65-3.35h-.34l.34-.65v-2.01l-1.67-.34h-.31ZM268.52,406.79l.34,2.01c-.23,3.1-.45,4.65-.68,4.65l.34.68c0,.43-.22.65-.65.65-.81,0-1.82-.1-3.01-.31-.23,0-.34.1-.34.31l-1.67-.31h-2.67l-1.65.31v-.31c-.89.32-1.33.65-1.33.99,0,1.12.22,1.67.65,1.67l-.34.65v.99c0,1.44.11,2.88.34,4.34l-.34,2.01c0,.21.11.31.34.31l-.34,1.67v2.01c0,.21.11.31.34.31l-.34.68c0,.23.11.34.34.34l-.34,1.65c0,.51.11.95.34,1.33l-.34.68c.34.89.68,1.33,1.02,1.33h.65c.45,0,.68-.23.68-.68,0-1.02-.23-4.13-.68-9.33.23,0,.34-.1.34-.31-.23,0-.34-.11-.34-.34.23,0,.34-.11.34-.34-.23,0-.34-.11-.34-.34h.34l-.34-.65v-2.33c0-1.13-.22-2.47-.65-4,.43,0,.65-.23.65-.68,1.55.45,2.88.68,4,.68h4.68c.98-.89,1.76-1.33,2.33-1.33l-.34-1.67c.45,0,.68-.23.68-.68v-1.65c0-.23-.11-.34-.34-.34.23-1.78.44-2.67.65-2.67l-.31-.68c.21-.66.43-.99.65-.99-.23-.43-.34-.77-.34-.99h-1.65c-.45.08-.68.29-.68.65ZM260.52,437.79v.34h2.67v-.68c-1.23.23-2.12.34-2.67.34Z"/>
    <path class="cls-2" d="M308.15,370.82h7.35c11.1.78,16.65,2.34,16.65,4.68,1.15,1.19,2.93,2.19,5.33,3.01,1.55,1.53,2.33,3.2,2.33,4.99,0,.23.11.56.34.99h-.34l.34.68v1.65c0,1.72.11,3.28.34,4.68,0,7.55-2.67,11.32-8,11.32-1.83,0-4.17.33-7.01.99v.34c2.59,2.74,4.37,5.52,5.33,8.34,1.44.61,3.33,4.6,5.67,12,.21,0,.31.1.31.31l-.31.68c.43,0,.77,3.66.99,10.98-.23,2.31-.34,3.64-.34,4l.68,4c-6.22.23-10.33.57-12.34,1.02-1.17-.23-2.29-.34-3.35-.34h-.31l.31-2.33v-.34c0-.23-.1-.34-.31-.34l.31-.65v-1.67c0-.45-.22-.68-.65-.68v.34c-2.44-.15-3.66-.71-3.66-1.67,0-17.55-.67-26.32-2.01-26.32,0-.36-.66-.69-1.99-.99l-2.33.68v-.68h-2.01c-.43.08-.65.3-.65.68v12.31c0,.23.1.34.31.34-.21,1.12-.43,1.67-.65,1.67l.34.65v.34c0,.51-.11.95-.34,1.33l.34.68-.34,1.65c0,.47.11,1.7.34,3.69-.23,1.93-.34,3.04-.34,3.32,0,.49.22,2.49.65,5.99-.21,0-.31.11-.31.34l.65.34-.34.65v1.67h-13.64c0-.66-.11-.99-.34-.99.23-.59.56-2.03.99-4.34l-1.67.34h-.31l-1.67-.34v-.99l.34-1.67h-.34c0-.23.11-.34.34-.34-.23-3.33-.34-5.77-.34-7.32v-4l.34-3.32h-.34l.34-.68v-1.67c0-.21-.11-.31-.34-.31l.34-.68v-.34l-.34-1.65h.34l-.34-.68.34-.65c-.23,0-.34-.11-.34-.34h.34l-.34-.68v-1.99c0-1.44.22-2.99.65-4.65h-.31c0-.23.1-.34.31-.34-.21-1.23-.31-2.12-.31-2.67l.31-.68c-.17-.89-.39-1.33-.65-1.33l.99-6.33-.65-2.67c.21-.38.31-.82.31-1.33v-.34c0-.49-.1-.94-.31-1.33l.31-.65-.31-2.01.31-.65h-.31c0-.23.1-.34.31-.34,0-.23-.1-.56-.31-.99l.31-2.33c-.21-.43-.31-.77-.31-.99h.31l-.31-.68c.43-.81.65-1.7.65-2.67v-6.67l-.34-2.33c5.54-.45,10.54-.68,15.01-.68ZM298.16,387.16v5.67c.06.43.27.65.65.65v-2.33c0-.23-.11-.34-.34-.34l.34-.65-.34-1.67.34-1.99c-.43.06-.65.27-.65.65ZM304.15,408.15c.23,6.64.45,10.31.68,11.01l-.34,1.99c.15,4.22.37,6.33.65,6.33-.43.87-.65,2.1-.65,3.69,0,.43.11.65.34.65l-.34,2.33v6.33c0,.23-.44.67-1.33,1.33l-4-.65c0,.53-.33,1.42-.99,2.67,3.37.66,5.92.99,7.66.99.08-.43.29-.65.65-.65,0-.23-.1-.34-.31-.34l.31-2.33v-.68c0-.79-.1-1.8-.31-3.01.21-.38.31-.82.31-1.33h-.31c.21-.42.31-.75.31-.99l-.31-.65c.21-.43.31-.77.31-.99s-.1-.34-.31-.34l.31-1.67v-5.33l.34-1.99c-.23-.43-.34-.78-.34-1.02,0-.21.11-.31.34-.31-.23-2-.44-3.01-.65-3.01l.31-.68v-3.32c0-.23-.1-.34-.31-.34l.31-.65c0-.47-.1-1.7-.31-3.69,0-2.21,1.55-3.32,4.65-3.32v-.34c-2-.21-3.01-.43-3.01-.65l-3.66.99ZM298.81,416.49c0,2.06-.11,3.94-.34,5.64,0,.23.11.34.34.34l-.34,1.67v1.33l.34,2.33h.34v-5.67c0-.21.11-.31.34-.31l-.34-.68v-.65l.34-2.35h-.34l.34-.65c-.23-.43-.34-.77-.34-.99h-.34ZM303.81,379.84v3.66c0,.23-.1.34-.31.34l.99,5.3-.34.68c.23.43.34.77.34.99-.45.08-.68.3-.68.68v.65h2.01v-2.33l.34-2.33h-.34l.34-.68v-1.99l-.34-.68c1.55-1.1,2.33-1.87,2.33-2.33l7.35-.65c1.89.21,3.33.31,4.31.31v-.65c-1.25-.66-3.47-1.33-6.67-2.01v.34l-.65-.34-8.68,1.02ZM307.15,401.14c0,.45.78.79,2.33,1.02,0-.53-.78-.87-2.33-1.02ZM307.81,387.81h.34l-.34.68v.34c0,1.91.34,3.13,1.02,3.66,1.17-.61,3.94-1.16,8.31-1.67,2.67-.57,4-2.45,4-5.64-.55-1.34-1.65-2.01-3.32-2.01v.34c-.43-.23-.78-.34-1.02-.34-5.77,0-8.65.78-8.65,2.33,0,.68-.11,1.46-.34,2.33ZM308.49,374.51v.31h4.99c0-.43-.22-.65-.65-.65h-2.01l-2.33.34ZM319.81,417.14v.68c0,.21.11.31.34.31l-.34.68v.99l.34,2.01-.34.65c.23,1.06.34,2.62.34,4.68h.34c0-1.78.1-2.67.31-2.67l-.31-.68v-1.33c0-.91.1-1.8.31-2.67-.21-.85-.31-1.74-.31-2.67h-.68ZM334.47,379.5v.34l.99,6.67v4.31c0,1.02-.78,3.03-2.33,6.01-1.89,1.32-5.66,2.43-11.32,3.32v.68c0,.66,1.11.99,3.32.99,2.16-.23,4.16-.67,6.01-1.33l.65.34h.68c3.76,0,5.64-3.01,5.64-9.02v-.99c0-.23.11-.34.34-.34l-.34-.65v-1.33c0-5.39-.99-8.39-2.98-8.99h-.68ZM331.8,417.82v.65c.45,4.29.68,7.19.68,8.68h.31c0,.21-.1.31-.31.31.21,2.23.31,3.91.31,5.02v1.99c0,.49.11.94.34,1.33-.23.66-.44.99-.65.99l.31.68c-.43,1.1-.77,1.65-.99,1.65-4.67,0-7.01.34-7.01,1.02,0,.79-.1,1.79-.31,2.98.89.19,1.33.42,1.33.68,2.65-.45,4.64-.9,5.99-1.33.4.23.84.34,1.33.34,1.12-.17,1.67-.51,1.67-1.02v-3.32c0-.49.11-.94.34-1.33,0-.23-.11-.34-.34-.34l.34-1.33c-.17-3.76-.4-5.64-.68-5.64l.34-.68c0-2.21-.78-5.44-2.33-9.67l-.34-1.65h-.34ZM325.14,427.15v6.67h.34c.23-2.46.44-3.69.65-3.69l-.31-.65v-2.33h-.68ZM328.49,431.15l-.34,1.65c0,.23.11.34.34.34l-.34.68c0,.21.11.31.34.31-.23.43-.34.78-.34,1.02v.31h.34c.13-1.78.35-2.67.65-2.67-.23-.36-.34-.91-.34-1.65h-.31ZM332.8,386.82c0,.51-.1.95-.31,1.33.21.4.31.84.31,1.33l-.99,4.34h.68c.43-1.44.65-2.44.65-3.01v-4h-.34Z"/>
    <path class="cls-2" d="M378.47,370.14c.38.23.82.34,1.33.34v-.34c.21,0,.31.11.31.34l1.67-.34c1.06,0,1.83.89,2.33,2.67,2.46.26,3.69.71,3.69,1.33-.45,1.97-.68,3.3-.68,4,.23,2.8.34,4.46.34,4.99-.66,0-.99.23-.99.68-.43-.23-.78-.34-1.02-.34-3.21,0-6.54.22-9.98.65-.17,0-.84-.1-2.01-.31-1.32,0-4.54.22-9.64.65-.87-.23-1.76-.34-2.67-.34-.17.59-.4,1.92-.68,4,.23,0,.34.11.34.34h-.34l.34.68v8.65c.43.51.65,1.29.65,2.33h2.01c.93,0,2.15-.1,3.66-.31.72.43,1.28.65,1.67.65v3.35c.23,0,.56.1.99.31.23,0,.34-.1.34-.31l1.67.31h.31l.68-.31v.31c-.23,3.31-.34,5.53-.34,6.67h.34l-.34.68.34.65-.34,1.67.34,1.33c-.23.87-.34,1.76-.34,2.67-.89.11-1.33.44-1.33.99-.43-.21-.77-.31-.99-.31-.57.34-1.79.67-3.66.99l-.68-.34h-3.32l.31.68v.31l-.99-.65h-.34v7.66l.34,1.67h-.34l.34.65v1.67l-.34.68h.34l-.34.65c.23,1.78.57,2.67,1.02,2.67h4.65c.23,0,.34.11.34.34.23,0,.34-.11.34-.34l3.32.34h.34c1.63,0,4.62-.33,8.99-.99v.31l.68-.31h.99c.66.21.99.87.99,1.99-.23,0-.34.11-.34.34h.34l-.34.65v.34l.68.99,1.67-.31h2.33c0,4.65.33,6.98.99,6.98,0,.23-.11.34-.34.34l.34,1.67v.65c0,1.74-.56,2.86-1.67,3.35h-5.99c-.23,0-.34.11-.34.34l-.65-.34-5.33.65v-.31l-.68.31c-.66,0-.99-.1-.99-.31-1.68.21-2.8.43-3.35.65-1.19-.23-2.18-.34-2.98-.34-2.04,0-4.94.23-8.68.68v-.34l-.65.34h-8l-.68-.34.34-2.33v-1.67c0-.43-1.33-.77-4-.99,0-.45-.11-.68-.34-.68.23-.66.45-.99.68-.99l-.34-.65.34-.68h-.34c.32-.7.65-2.25.99-4.65l-.34-.68v-3.32c0-.23-.1-.34-.31-.34.43-1.02.65-2.02.65-3.01h-.34l.34-.65v-13.33l-.34-.68h.34l-.34-.65v-8c0-.23-.1-.34-.31-.34l.65-1.67c0-.23-.11-.56-.34-.99.23-1.21.34-2.21.34-3.01v-.34c0-.21-.11-.31-.34-.31l.34-.68v-1.67c0-.21-.11-.31-.34-.31.23-.28.45-1.84.68-4.68-.23-3.12-.34-5.79-.34-8,.23,0,.34-.11.34-.34h-.34l.34-.65v-2.01c0-.21-.11-.31-.34-.31l.34-.68c0-.23-.11-.34-.34-.34l.34-.65-.34-.68h.34c-.28-2.16-.61-3.82-.99-4.99l.31-.65-.31-.68.65-2.33h-.34c.23-.43.34-.77.34-.99h.68c5.54,0,8.31-.23,8.31-.68,1.13.45,3.14.68,6.01.68.23,0,.34-.11.34-.34l1.33.34c10.67-.49,16-1.05,16-1.67ZM383.12,440.8l.68,5.67c-.23,0-.34.1-.34.31h.34c-.23.43-.34.78-.34,1.02h-.34v-.68c-.43.23-.77.34-.99.34-.74-.45-1.41-.68-2.01-.68-.89.06-1.33.28-1.33.68-.21,0-.31-.11-.31-.34l-4,.34h-.34c-.51,0-.95-.11-1.33-.34l-.68.34c-.49,0-.94-.11-1.33-.34-1.89.23-3.44.34-4.65.34h-4l-2.01.34c-1.78-.23-2.67-.45-2.67-.68l-.65.34h-2.33c-2.23,0-3.35.33-3.35.99l-.34,2.33h3.69l.65-.31v.31l.68-.31h.31c.23,0,.34.1.34.31l.68-.31h2.33l1.67-.34c0,.23.1.34.31.34v-.34l.68.34h.65l.68-.34v.34l.65-.34,1.33.34c1.17-.23,2.29-.34,3.35-.34v.34l.65-.34h1.02c.21,0,.31.11.31.34.93-.23,4.48-.67,10.67-1.33.23,0,.34.1.34.31,2.89-.21,4.34-.54,4.34-.99v-.65l-.68-1.02h.34c0-.21-.11-.31-.34-.31,0-.17.11-.84.34-2.01-.17-2.67-.5-4-.99-4l-1.67.34ZM355.46,441.79h.34c.42-.23.75-.34.99-.34v.34c.38-.23.82-.34,1.33-.34v-.31h-2.01c-.43.06-.65.27-.65.65ZM383.8,374.79l-.34,1.67v2.67c-8.42.23-13.86.56-16.34.99-.4-.21-.84-.31-1.33-.31-.43.21-.77.31-.99.31v-.31l-2.01.65c-.42-.23-.75-.34-.99-.34,0,.23-.11.34-.34.34v-.34l-.65.34c-1.59-.23-2.48-.34-2.67-.34l-1.67.34v.99c0,.81.11,1.82.34,3.01-.23.4-.34.84-.34,1.33h.34l-.68,3.66c.28,6.68.62,10.01,1.02,10.01.38.23.82.34,1.33.34h.31c0-.45.11-.68.34-.68l-.34-.65v-4c0-.51-.1-.95-.31-1.33l.31-.68c-.21-2.27-.31-4.05-.31-5.33v-1.99c0-.76-.34-1.54-1.02-2.35,0-.55.44-.88,1.33-.99.89,0,2.34.23,4.34.68l.68-.34c.23,0,.56.11.99.34,11.25-.51,18.03-.95,20.34-1.33,0-.59.22-1.7.65-3.35h-.34l.34-.65v-2.01l-1.67-.34h-.31ZM368.45,406.79l.34,2.01c-.23,3.1-.45,4.65-.68,4.65l.34.68c0,.43-.22.65-.65.65-.81,0-1.82-.1-3.01-.31-.23,0-.34.1-.34.31l-1.67-.31h-2.67l-1.65.31v-.31c-.89.32-1.33.65-1.33.99,0,1.12.22,1.67.65,1.67l-.34.65v.99c0,1.44.11,2.88.34,4.34l-.34,2.01c0,.21.11.31.34.31l-.34,1.67v2.01c0,.21.11.31.34.31l-.34.68c0,.23.11.34.34.34l-.34,1.65c0,.51.11.95.34,1.33l-.34.68c.34.89.68,1.33,1.02,1.33h.65c.45,0,.68-.23.68-.68,0-1.02-.23-4.13-.68-9.33.23,0,.34-.1.34-.31-.23,0-.34-.11-.34-.34.23,0,.34-.11.34-.34-.23,0-.34-.11-.34-.34h.34l-.34-.65v-2.33c0-1.13-.22-2.47-.65-4,.43,0,.65-.23.65-.68,1.55.45,2.88.68,4,.68h4.68c.98-.89,1.76-1.33,2.33-1.33l-.34-1.67c.45,0,.68-.23.68-.68v-1.65c0-.23-.11-.34-.34-.34.23-1.78.44-2.67.65-2.67l-.31-.68c.21-.66.43-.99.65-.99-.23-.43-.34-.77-.34-.99h-1.65c-.45.08-.68.29-.68.65ZM360.45,437.79v.34h2.67v-.68c-1.23.23-2.12.34-2.67.34Z"/>
    <path class="cls-2" d="M408.08,370.82h7.35c11.1.78,16.65,2.34,16.65,4.68,1.15,1.19,2.93,2.19,5.33,3.01,1.55,1.53,2.33,3.2,2.33,4.99,0,.23.11.56.34.99h-.34l.34.68v1.65c0,1.72.11,3.28.34,4.68,0,7.55-2.67,11.32-8,11.32-1.83,0-4.17.33-7.01.99v.34c2.59,2.74,4.37,5.52,5.33,8.34,1.44.61,3.33,4.6,5.67,12,.21,0,.31.1.31.31l-.31.68c.43,0,.77,3.66.99,10.98-.23,2.31-.34,3.64-.34,4l.68,4c-6.22.23-10.33.57-12.34,1.02-1.17-.23-2.29-.34-3.35-.34h-.31l.31-2.33v-.34c0-.23-.1-.34-.31-.34l.31-.65v-1.67c0-.45-.22-.68-.65-.68v.34c-2.44-.15-3.66-.71-3.66-1.67,0-17.55-.67-26.32-2.01-26.32,0-.36-.66-.69-1.99-.99l-2.33.68v-.68h-2.01c-.43.08-.65.3-.65.68v12.31c0,.23.1.34.31.34-.21,1.12-.43,1.67-.65,1.67l.34.65v.34c0,.51-.11.95-.34,1.33l.34.68-.34,1.65c0,.47.11,1.7.34,3.69-.23,1.93-.34,3.04-.34,3.32,0,.49.22,2.49.65,5.99-.21,0-.31.11-.31.34l.65.34-.34.65v1.67h-13.64c0-.66-.11-.99-.34-.99.23-.59.56-2.03.99-4.34l-1.67.34h-.31l-1.67-.34v-.99l.34-1.67h-.34c0-.23.11-.34.34-.34-.23-3.33-.34-5.77-.34-7.32v-4l.34-3.32h-.34l.34-.68v-1.67c0-.21-.11-.31-.34-.31l.34-.68v-.34l-.34-1.65h.34l-.34-.68.34-.65c-.23,0-.34-.11-.34-.34h.34l-.34-.68v-1.99c0-1.44.22-2.99.65-4.65h-.31c0-.23.1-.34.31-.34-.21-1.23-.31-2.12-.31-2.67l.31-.68c-.17-.89-.39-1.33-.65-1.33l.99-6.33-.65-2.67c.21-.38.31-.82.31-1.33v-.34c0-.49-.1-.94-.31-1.33l.31-.65-.31-2.01.31-.65h-.31c0-.23.1-.34.31-.34,0-.23-.1-.56-.31-.99l.31-2.33c-.21-.43-.31-.77-.31-.99h.31l-.31-.68c.43-.81.65-1.7.65-2.67v-6.67l-.34-2.33c5.54-.45,10.54-.68,15.01-.68ZM398.1,387.16v5.67c.06.43.27.65.65.65v-2.33c0-.23-.11-.34-.34-.34l.34-.65-.34-1.67.34-1.99c-.43.06-.65.27-.65.65ZM404.08,408.15c.23,6.64.45,10.31.68,11.01l-.34,1.99c.15,4.22.37,6.33.65,6.33-.43.87-.65,2.1-.65,3.69,0,.43.11.65.34.65l-.34,2.33v6.33c0,.23-.44.67-1.33,1.33l-4-.65c0,.53-.33,1.42-.99,2.67,3.37.66,5.92.99,7.66.99.08-.43.29-.65.65-.65,0-.23-.1-.34-.31-.34l.31-2.33v-.68c0-.79-.1-1.8-.31-3.01.21-.38.31-.82.31-1.33h-.31c.21-.42.31-.75.31-.99l-.31-.65c.21-.43.31-.77.31-.99s-.1-.34-.31-.34l.31-1.67v-5.33l.34-1.99c-.23-.43-.34-.78-.34-1.02,0-.21.11-.31.34-.31-.23-2-.44-3.01-.65-3.01l.31-.68v-3.32c0-.23-.1-.34-.31-.34l.31-.65c0-.47-.1-1.7-.31-3.69,0-2.21,1.55-3.32,4.65-3.32v-.34c-2-.21-3.01-.43-3.01-.65l-3.66.99ZM398.75,416.49c0,2.06-.11,3.94-.34,5.64,0,.23.11.34.34.34l-.34,1.67v1.33l.34,2.33h.34v-5.67c0-.21.11-.31.34-.31l-.34-.68v-.65l.34-2.35h-.34l.34-.65c-.23-.43-.34-.77-.34-.99h-.34ZM403.74,379.84v3.66c0,.23-.1.34-.31.34l.99,5.3-.34.68c.23.43.34.77.34.99-.45.08-.68.3-.68.68v.65h2.01v-2.33l.34-2.33h-.34l.34-.68v-1.99l-.34-.68c1.55-1.1,2.33-1.87,2.33-2.33l7.35-.65c1.89.21,3.33.31,4.31.31v-.65c-1.25-.66-3.47-1.33-6.67-2.01v.34l-.65-.34-8.68,1.02ZM407.09,401.14c0,.45.78.79,2.33,1.02,0-.53-.78-.87-2.33-1.02ZM407.74,387.81h.34l-.34.68v.34c0,1.91.34,3.13,1.02,3.66,1.17-.61,3.94-1.16,8.31-1.67,2.67-.57,4-2.45,4-5.64-.55-1.34-1.65-2.01-3.32-2.01v.34c-.43-.23-.78-.34-1.02-.34-5.77,0-8.65.78-8.65,2.33,0,.68-.11,1.46-.34,2.33ZM408.42,374.51v.31h4.99c0-.43-.22-.65-.65-.65h-2.01l-2.33.34ZM419.74,417.14v.68c0,.21.11.31.34.31l-.34.68v.99l.34,2.01-.34.65c.23,1.06.34,2.62.34,4.68h.34c0-1.78.1-2.67.31-2.67l-.31-.68v-1.33c0-.91.1-1.8.31-2.67-.21-.85-.31-1.74-.31-2.67h-.68ZM434.4,379.5v.34l.99,6.67v4.31c0,1.02-.78,3.03-2.33,6.01-1.89,1.32-5.66,2.43-11.32,3.32v.68c0,.66,1.11.99,3.32.99,2.16-.23,4.16-.67,6.01-1.33l.65.34h.68c3.76,0,5.64-3.01,5.64-9.02v-.99c0-.23.11-.34.34-.34l-.34-.65v-1.33c0-5.39-.99-8.39-2.98-8.99h-.68ZM431.74,417.82v.65c.45,4.29.68,7.19.68,8.68h.31c0,.21-.1.31-.31.31.21,2.23.31,3.91.31,5.02v1.99c0,.49.11.94.34,1.33-.23.66-.44.99-.65.99l.31.68c-.43,1.1-.77,1.65-.99,1.65-4.67,0-7.01.34-7.01,1.02,0,.79-.1,1.79-.31,2.98.89.19,1.33.42,1.33.68,2.65-.45,4.64-.9,5.99-1.33.4.23.84.34,1.33.34,1.12-.17,1.67-.51,1.67-1.02v-3.32c0-.49.11-.94.34-1.33,0-.23-.11-.34-.34-.34l.34-1.33c-.17-3.76-.4-5.64-.68-5.64l.34-.68c0-2.21-.78-5.44-2.33-9.67l-.34-1.65h-.34ZM425.07,427.15v6.67h.34c.23-2.46.44-3.69.65-3.69l-.31-.65v-2.33h-.68ZM428.42,431.15l-.34,1.65c0,.23.11.34.34.34l-.34.68c0,.21.11.31.34.31-.23.43-.34.78-.34,1.02v.31h.34c.13-1.78.35-2.67.65-2.67-.23-.36-.34-.91-.34-1.65h-.31ZM432.73,386.82c0,.51-.1.95-.31,1.33.21.4.31.84.31,1.33l-.99,4.34h.68c.43-1.44.65-2.44.65-3.01v-4h-.34Z"/>
  </g>
</svg>