<svg id="Camada_1" data-name="Camada 1" xmlns="http://www.w3.org/2000/svg" viewBox="0 0 595.28 595.28"><defs><style>.cls-1{fill:#010101;}.cls-2{fill:#f5e035;}</style></defs><title>SVG_corretos_site</title><rect class="cls-1" width="595.28" height="595.28"/><path class="cls-2" d="M526.35,479.72c-28.14,16.67-57,31.52-90.08,35.75-20.77,2.66-40.47-1.4-57.51-13.26-15.65-10.89-30.26-23.37-44.71-35.86-13.36-11.56-25.38-24.69-39-35.9-9.26-7.63-20.26-13.15-31.52-20.27,2.57-2.39,5.68-6.11,9.52-8.73A129.45,129.45,0,0,1,326.54,380c19.36-3,37.28,3.71,52.3,15.43,23.39,18.26,46.24,37.3,68.31,57.14,21.58,19.38,45.93,28.52,74.78,25.67a40.78,40.78,0,0,1,4.42,0Z"/><path class="cls-2" d="M191.57,50.08c4.56,4,9.23,7.93,13.65,12.12,19.62,18.6,39.13,37.27,52.93,61,20.33,34.93,18.57,71.48,7.38,108.26-7.76,25.52-16.92,50.65-26.32,75.63-7.08,18.84-10.2,37.78-6.66,57.69.38,2.12.42,4.3.69,7.28-17.65-4.32-31.42-13.18-41.26-27.84-10.77-16-14.33-34.3-15.13-53.11-1.47-34.45,5.8-67.78,13.69-101,5.15-21.67,10.31-43.37,14.41-65.26,4.48-24,1-46.9-12.32-67.87a58,58,0,0,1-2.78-5.58Z"/><path class="cls-2" d="M330,193.85c.71,1.44,1.75,2.82,2.08,4.34,2.42,11.25,5.23,22.45,6.93,33.81,5.42,36.3-6.09,67.19-31,93.54-12.5,13.21-25.35,26.11-37.34,39.77-7.06,8-12.76,17.27-19.41,26.44a71.77,71.77,0,0,1-11.08-33.44c-1.52-21.67,5.79-40.82,18.93-57.41,11.26-14.21,24.15-27.13,36.12-40.8,6.31-7.2,12.5-14.53,18.18-22.22a73.79,73.79,0,0,0,14.66-44Z"/><path class="cls-2" d="M257.11,405.27c12.55-40.25,38.46-65.63,80.36-72.9a305.42,305.42,0,0,1,35.83-4c25.18-1.34,50.5-1.06,75.67-8.24-1.71,1.78-3.3,3.69-5.14,5.32-23.13,20.48-50.54,32.56-80,40.54-12.3,3.32-24.66,6.4-37,9.47C302,381.59,277.58,388.72,257.11,405.27Z"/><path class="cls-2" d="M213.54,393.59a355.45,355.45,0,0,0-75.64-49.37c17.16,2.53,64.23,11.8,106,51.47,46.14,43.77,56.2,96.42,58.68,112.86A360,360,0,0,0,213.54,393.59Z"/><path class="cls-2" d="M110.57,340.42A10.93,10.93,0,0,1,122,330.31a10.51,10.51,0,1,1-.82,21C115.26,351.21,110.31,346.13,110.57,340.42Z"/></svg>