<?xml version="1.0" encoding="UTF-8"?>
<svg id="Camada_1" data-name="Camada 1" xmlns="http://www.w3.org/2000/svg" viewBox="0 0 595.28 595.28">
  <defs>
    <style>

      .cls-1, .cls-2 {
        stroke-width: 0px;
      }

    </style>
  </defs>
  <rect class="cls-1" x="0" y="0" width="595.28" height="595.28"/>
  <g>
    <path class="cls-2" d="M112.96,428.87c-3.9-1.53-4.79-2.97-4.38-7.13.19-1.94,1.71-3.46,3.65-3.66,1.47-.15,2.06.44,1.78,1.88-.22,1.12-.56,2.22-.81,3.34-.35,1.62.42,2.79,1.96,2.82,1.62.03,3.57-.04,4.81-.89,3.77-2.58,7.35-5.45,10.83-8.42,2.48-2.11,4.66-4.56,7-6.84,1.51-1.47,2.08-2.93,1.13-5.14-2.24-5.19-2.37-10.77-1.55-16.22,3.53-23.53,13.49-44.03,29.74-61.41,3.36-3.6,7.38-6.4,12.01-8.23,6.02-2.38,11.66-1.18,15.54,3.98,2.4,3.19,4.13,6.9,6.02,10.46,1.06,2,1.25,2.15,2.59.39,17.36-22.68,34.69-45.39,52.07-68.05,3.12-4.07,6.38-8.03,9.73-11.91.81-.94,2.13-1.65,3.34-1.96,1.99-.51,3.48.67,3.29,2.71-.22,2.31-.65,4.68-1.49,6.84-4.56,11.81-9.32,23.55-13.93,35.34-9.07,23.19-18.09,46.4-27.12,69.61-.26.67-.34,1.41-.5,2.11.15.1.29.2.44.31.77-.52,1.61-.96,2.3-1.57,6.58-5.78,13.14-11.58,19.7-17.37.32-.28.59-.65.95-.83.38-.18.85-.18,1.28-.26-.11.45-.08,1.07-.37,1.33-2.91,2.72-5.85,5.41-8.82,8.07-4.31,3.87-8.72,7.64-12.94,11.61-3.69,3.47-6.4,7.6-8.17,12.44-3.87,10.59-7.96,21.1-11.99,31.63-.34.89-.69,1.88-1.33,2.53-.51.51-1.47.71-2.24.72-.21,0-.64-1.17-.63-1.79.22-7.9.51-15.81.77-23.71.02-.7,0-1.41,0-2.66-1.18.71-1.95,1.09-2.64,1.59-9.35,6.87-18.92,13.41-29.46,18.35-6.47,3.03-13.1,5.59-20.38,5.85-4.76.17-9.11-.84-12.67-4.24-1.27-1.22-2.16-.29-3.08.55-3.76,3.49-7.36,7.18-11.35,10.4-2.93,2.36-6.29,4.22-9.58,6.08-1.31.74-2.95.91-4.44,1.34h-1.09ZM265.17,259.48c-.24-.14-.49-.27-.73-.41-1.12,1.29-2.32,2.52-3.36,3.87-15.88,20.69-31.72,41.41-47.6,62.1-2.79,3.64-5.73,7.17-8.53,10.8-1.06,1.37-2.2,2.81-1.58,4.77,4.25,13.47,5.78,27.35,6.36,41.38.02.54.24,1.38.59,1.51.43.17,1.2-.12,1.62-.46,2.75-2.16,5.66-4.18,8.08-6.68,1.75-1.81,3.24-4.12,4.12-6.47,9.65-25.61,19.12-51.29,28.71-76.93,3.7-9.88,7.59-19.68,11.34-29.54.48-1.26.66-2.63.98-3.95ZM142.89,404.46c.88-.75,1.45-1.16,1.93-1.66,14.88-15.53,28.69-31.99,42.26-48.66,3.74-4.59,7.44-9.2,11.02-13.91.78-1.02,1.6-2.7,1.28-3.74-1.25-4.04-3.04-7.9-6.21-10.89-4.07-3.85-8.97-4.65-13.75-1.79-2.92,1.75-5.76,3.84-8.13,6.27-13,13.3-22.31,28.88-27.86,46.63-2.39,7.66-3.59,15.52-1.82,23.55.29,1.31.78,2.57,1.29,4.19ZM201.07,340.85c-.88.99-1.5,1.63-2.06,2.31-14.98,18.49-30.18,36.79-46.36,54.24-2.3,2.48-4.65,4.91-6.95,7.39-.9.97-1.66,2.01-.43,3.3,2.18,2.29,4.66,4.28,7.95,4.11,3.52-.18,7.14-.44,10.51-1.41,10.36-2.98,19.64-8.27,28.64-14.07,4.06-2.61,8.02-5.38,12-8.12,1.85-1.27,3.32-2.84,3.2-5.32-.58-12.26-1.82-24.43-4.8-36.37-.48-1.91-1.06-3.79-1.71-6.06ZM220.86,379.06c-.82.27-1.2.29-1.45.49-2.63,2.11-5.4,4.09-7.78,6.46-1.03,1.02-1.62,2.84-1.74,4.35-.28,3.54-.1,7.11-.21,10.67-.12,3.88-.37,7.76-.56,11.64.09.02.18.04.27.07,3.78-11.1,7.56-22.19,11.48-33.67Z"/>
    <path class="cls-2" d="M464.97,166.4c.02,10.75.04,21.5.06,32.25,0,.65,0,1.3,0,2.1.28-.2.47-.26.53-.39,3.98-7.75,12.31-11.09,21.74-9.89.66.08,1.31.2,1.96.34,6.85,1.54,10.53,6.23,10.56,13.59.03,9.79,0,19.57,0,29.36,0,5.47,1.35,7.01,6.8,7.84.48.07.92.48,1.38.73-.09.18-.17.35-.26.53h-22.53c.55-.61.78-1.07,1.13-1.19.55-.2,1.19-.15,1.79-.24,3.74-.57,5.48-2.59,5.48-6.37,0-9.67.03-19.33-.02-29,0-1.62-.16-3.28-.55-4.84-1.29-5.18-4.96-7.91-10.93-8.3-9.76-.64-16.96,6.21-17.06,16.41-.09,8.4-.03,16.79-.01,25.19.01,4.06,2.08,6.36,6.13,6.95.42.06.87.04,1.25.18.27.1.45.43.67.66-.23.21-.45.43-.69.61-.08.06-.24.02-.36.02-7,0-14,0-21.44,0,.38-.61.52-1.12.82-1.26.47-.22,1.06-.16,1.6-.24,3.72-.6,5.77-2.93,5.79-6.69.03-6.22,0-12.44,0-18.67,0-13.35,0-26.7,0-40.05,0-4.17-1.74-6.13-5.91-6.82-.73-.12-1.4-.57-2.09-.86.73-.27,1.44-.68,2.18-.77,2.82-.34,5.65-.56,8.47-.85.45-.05.9-.23,1.34-.35.73,0,1.45,0,2.18,0Z"/>
    <path class="cls-2" d="M105.71,166.4c.59,3.31,1.17,6.62,1.76,9.94l-.4.35c-.34-.36-.79-.67-1.01-1.09-.59-1.19-.97-2.48-1.62-3.62-1.45-2.54-3.56-3.9-6.65-3.85-6.82.11-13.65.03-20.48.03-.59,0-1.18,0-1.89,0v35.63c.64.05,1.27.13,1.9.13,5.13.01,10.27.01,15.4,0,4.75,0,6.49-1.5,7.31-6.2.06-.36.04-.75.19-1.06.15-.31.46-.53.7-.79.16.28.44.55.45.83.05,1.39.03,2.78.03,4.17,0,3.62.03,7.25-.03,10.87,0,.61-.37,1.21-.57,1.81-.25-.59-.55-1.17-.75-1.78-.31-.97-.46-2-.84-2.94-.83-2.03-2.42-3.21-4.61-3.23-6.34-.06-12.68-.02-19.17-.02v35.47c.62.03,1.26.09,1.89.09,7.85,0,15.71,0,23.56,0,5.8,0,7.89-1.53,9.81-7.08.19-.55.58-1.03.87-1.54.23.09.46.19.69.28-.62,3.33-1.24,6.67-1.88,10.15h-1.88c-15.16,0-30.33,0-45.49,0-.36,0-.75.08-1.08-.03-.32-.11-.58-.4-.86-.62.28-.23.54-.58.86-.67.81-.21,1.67-.24,2.48-.47,3.25-.89,4.6-2.67,4.6-6.02,0-19.94,0-39.87,0-59.81,0-5.17-1.49-6.91-6.62-7.6-.89-.12-1.55-.23-1.29-1.34,14.86,0,29.73,0,44.59,0Z"/>
    <path class="cls-2" d="M438.87,166.4c-.02,3.92-.06,7.85-.06,11.77,0,18.71,0,37.43,0,56.14,0,4.91,1.46,6.55,6.34,7.22.6.08,1.17.41,1.75.62-.06.21-.12.43-.19.64h-22.12c-.09-.11-.17-.22-.26-.33.35-.28.65-.7,1.05-.81.92-.26,1.91-.28,2.83-.56,3.01-.91,4.2-2.55,4.2-5.7,0-19.8,0-39.6,0-59.4,0-4.15-1.73-6.1-5.91-6.75-.74-.11-1.45-.4-2.17-.61.05-.25.09-.5.14-.75,3.39-.36,6.79-.72,10.18-1.1.57-.06,1.13-.24,1.69-.37.85,0,1.69,0,2.54,0Z"/>
    <path class="cls-2" d="M534.21,242.9h-22.72c.66-.65.92-1.11,1.3-1.24.62-.21,1.31-.16,1.96-.3,3.63-.78,5.14-2.64,5.14-6.31,0-11.59,0-23.18,0-34.77,0-4.73-1.39-6.36-6.02-7.23-.66-.12-1.27-.53-1.91-.81.66-.26,1.31-.69,1.99-.77,3.84-.43,7.68-.78,11.52-1.15.17-.02.35.03.76.07,0,.7,0,1.4,0,2.1,0,14.06,0,28.13,0,42.19,0,4.83,3.03,7.39,7.98,6.75v1.45Z"/>
    <path class="cls-2" d="M437.03,336.87c-.38.42-.71.92-1.16,1.26-10.78,8.06-21.53,16.17-32.41,24.09-3.51,2.55-7.38,4.62-11.72,5.5-3.82.77-6.18-1.58-4.7-5.16,1.28-3.11,3.44-5.88,5.32-8.73,1.09-1.66,2.49-3.12,3.57-4.78,1.14-1.74.73-2.91-1.17-3.75-1.1-.48-2.3-.74-3.41-1.19-1.81-.74-3.6-1.55-5.5-2.38-5.75,4.44-11.69,9.19-17.82,13.68-3.59,2.63-7.47,4.86-11.26,7.21-.91.56-1.96.94-2.99,1.27-6.06,1.92-10.23-1.47-9.62-7.86.19-1.95.55-3.89.84-5.83-.2-.17-.4-.34-.6-.51-.56.76-1.05,1.6-1.7,2.28-3.31,3.47-6.84,6.68-11.26,8.69-1.34.61-2.86,1.01-4.32,1.09-1.89.11-2.95-1.23-2.22-2.95,1.07-2.53,2.51-4.91,3.88-7.3.65-1.13,1.5-2.15,2.08-3.46-.64.48-1.27.98-1.94,1.42-7.21,4.84-14.38,9.74-21.67,14.45-1.79,1.16-3.92,1.89-6,2.46-3.85,1.05-6.31-.64-6.63-4.63-.21-2.68.06-5.4.17-8.1.04-.94.26-1.87.44-3.12-2.53,2.9-4.79,5.64-7.22,8.22-1.39,1.48-2.92,2.94-4.64,3.99-3.1,1.88-5.24.56-5.12-3.03.19-5.57,2.03-10.76,3.83-15.95,1-2.89,2.16-5.73,3.07-8.74-1.68,1.91-3.29,3.89-5.04,5.72-7.38,7.73-14.74,15.47-22.24,23.07-1.62,1.64-3.71,2.86-5.71,4.07-.58.35-1.57.03-2.37.01.05-.75-.13-1.63.2-2.24,3.21-5.94,6.44-11.87,9.8-17.73,1.05-1.83,3.23-2.19,4.92-1.19,1.63.97,1.73,1.82.53,3.33-3.11,3.93-6.19,7.88-9.26,11.83-.35.45-.59.98-.58,1.75,1.32-1.17,2.68-2.29,3.95-3.52,9.94-9.56,19.07-19.85,27.82-30.49.98-1.19,2.05-1.99,3.66-1.96,2.2.05,2.94,1.25,1.92,3.2-1.87,3.58-3.86,7.1-5.61,10.74-2.61,5.44-5.03,10.97-6.1,16.97-.21,1.2-.9,2.87.56,3.36.84.29,2.47-.56,3.22-1.38,2.56-2.81,4.9-5.81,7.29-8.76,1.67-2.06,3.26-4.2,4.94-6.25.75-.91,1.55-2.05,3-1.41,1.55.68,1.24,2.12.99,3.32-.8,3.77-1.78,7.51-2.59,11.28-.25,1.17-.28,2.4-.26,3.6.03,1.78.65,2.37,2.4,1.98,2.04-.47,4.12-1.04,6-1.93,10.4-4.91,19.53-11.76,28.33-19.04,3.05-2.52,5.45-5.8,8.32-8.55,1.23-1.18,2.8-2.15,4.39-2.76,2.97-1.14,4.97.41,5.04,3.59.03,1.22-.22,2.42.77,3.56.34.4-.23,1.68-.51,2.51-1.48,4.33-3.05,8.63-4.46,12.98-.4,1.24-.47,2.62-.48,3.94-.01,2.27,1.14,3.54,3.36,3.21,2.22-.33,4.5-.96,6.51-1.96,7.29-3.59,13.69-8.58,20.13-13.48,1.35-1.02,2.64-2.11,4-3.12,2.12-1.58,4.01-3.03,4.15-6.21.12-2.68,2.23-4.76,4.29-6.5,1.42-1.2,2.9-2.4,4.52-3.31,2.29-1.28,3.96-.15,3.88,2.45-.06,2-.79,3.61-2.62,4.65-1.41.8-2.85,1.61-4.1,2.64-1.47,1.21-1.33,2.12.33,3.02,1.32.71,2.76,1.22,4.09,1.92,4.73,2.47,5.7,6.1,2.56,10.39-1.96,2.67-4.26,5.08-6.4,7.62-.7.83-1.42,1.66-2,2.57-1.04,1.65-.46,2.65,1.52,2.6.89-.03,1.85-.17,2.64-.54,2.71-1.3,5.57-2.44,8.01-4.16,10.71-7.54,21.29-15.25,31.93-22.9.59-.42,1.23-.76,1.85-1.14l.41.53ZM346.61,339.63c-4.04.35-18.35,15.48-18.41,19.87,1.39-.5,2.71-.8,3.87-1.42,4.52-2.4,8.59-5.53,11.53-9.67,1.66-2.34,2.16-5.51,3.16-8.31.05-.13-.1-.32-.15-.48Z"/>
    <path class="cls-2" d="M145.93,192.65c.67-.52.99-1,1.36-1.04,4.37-.48,8.74-.9,13.34-1.36v2.33c0,13.41,0,26.82,0,40.23,0,4.85,1.66,6.68,6.53,7.34.54.07,1.03.5,1.54.76-.53.27-1.04.73-1.59.79-3.66.42-7.32.77-10.99,1.12-.52.05-1.06,0-1.74,0v-8.98c-.41.5-.56.64-.66.82-5.84,10.62-18.57,11.36-26.25,8.11-5.82-2.47-7.42-7.55-7.44-13.34-.04-9.66-.01-19.33-.01-28.99,0-4.93-1.5-6.65-6.41-7.48-.53-.09-1.01-.5-1.52-.76.5-.23.98-.62,1.49-.67,4.08-.39,8.18-.72,12.27-1.06.11,0,.22.06.52.14v1.9c0,12.2-.03,24.4.04,36.6.01,1.78.31,3.62.82,5.33,1.01,3.35,3.38,5.5,6.72,6.53,10.09,3.13,19.99-3.66,20.3-14.22.28-9.41.11-18.84.08-28.26,0-2.63-1.75-4.44-4.73-5.18-1.04-.26-2.11-.39-3.66-.67Z"/>
    <path class="cls-2" d="M422.79,217.45c-.73,3.77-1.07,7.68-2.26,11.3-2.68,8.13-8.32,13.35-16.83,14.99-8.53,1.64-16.62.71-23.47-5.3-3.27-2.87-5.33-6.56-6.51-10.69-2.06-7.2-2.05-14.43.26-21.57,3.03-9.34,10.62-15.17,20.42-15.82,4.37-.29,8.71-.06,12.85,1.53,8.65,3.31,12.94,10.06,14.53,18.82.4,2.19.47,4.43.69,6.65.1.03.21.06.31.09ZM415.86,217.49c0-5.35-.55-10.62-2.84-15.54-3.11-6.71-8.43-10.05-15.82-9.98-7.37.07-12.83,3.38-15.63,10.23-3.91,9.55-3.87,19.36-.52,29.02,2.63,7.57,8.47,11.36,16.33,11.37,7.85.01,13.38-3.85,16.31-11.42,1.7-4.4,2.17-9.01,2.18-13.68Z"/>
    <path class="cls-2" d="M271.69,210.45c-.89,0-1.59,0-2.28,0-12.63,0-25.26,0-37.88,0-3.46,0-2.99-.15-2.97,2.72.03,4.08.03,8.24.81,12.22,2.04,10.42,9.22,16.38,19.82,16.65,3.16.08,6.38-.35,9.49-.96,3.51-.69,6.45-2.61,8.85-5.32.41-.46,1.07-.7,1.74-.86-.98,2.45-2.74,4.12-4.78,5.53-8.09,5.6-25.96,5.77-34.66-2.5-3.92-3.72-6.24-8.25-7.25-13.47-1.09-5.65-.97-11.3.58-16.86,2.81-10.07,10.46-16.41,20.89-17.22,6.72-.53,13.17.35,18.76,4.51,5.12,3.81,7.66,9.12,8.88,15.56ZM265.15,208.68c-1.56-9.91-8.29-17.3-18.92-16.7-9.12.51-17.31,8.64-16.83,16.7h35.75Z"/>
    <path class="cls-2" d="M311.2,196.19c.27-1.99-.35-4.06.12-5.95.33.04.65.08.98.13.68,4.95,1.37,9.91,2.05,14.86l-.43.39c-.38-.41-.95-.76-1.12-1.24-1.3-3.61-3.3-6.7-6.4-9.02-4.4-3.3-9.26-3.98-14.41-2.25-7.27,2.44-8.99,11.36-3.2,16.46,3.49,3.07,7.88,4.31,12.14,5.85,3.1,1.13,6.23,2.34,9.09,3.96,9.01,5.11,7.13,16.91.51,21.42-5.08,3.47-10.77,4.04-16.66,3.37-5.14-.59-9.82-2.43-13.99-5.98v6.53c-.6-.54-1.17-.79-1.22-1.12-.71-4.76-1.35-9.54-2.01-14.31.14-.11.27-.21.41-.32.35.3.87.53,1.02.9,3.12,7.86,9.14,11.7,17.32,12.52,6.59.66,12.71-3.27,14.08-8.9,1.02-4.22-.02-7.9-3.73-10.11-3.33-1.98-7.08-3.25-10.66-4.81-3.36-1.47-6.95-2.55-10.04-4.45-5.3-3.24-7.2-9.12-5.31-14.81,1.52-4.55,5-7.08,9.42-8.19,7.76-1.96,14.98-.94,21.15,4.63.18.16.38.3.58.43.04.03.11,0,.31,0Z"/>
    <path class="cls-2" d="M362.82,197.37c-.12-2.69-.22-4.78-.31-6.87.17-.1.33-.2.5-.3.28.42.76.82.83,1.28.71,4.59,1.36,9.19,2.04,13.82-1.27.71-1.42-.23-1.7-1.02-1.98-5.62-5.51-9.79-11.42-11.4-7.95-2.16-18.4.7-22.3,11.3-3.01,8.2-3.12,16.59-.49,24.88,2.61,8.22,8.99,12.76,17.64,13.06,6.77.23,12.6-1.76,17.04-7.15.14.07.29.14.43.21-.2.63-.24,1.37-.61,1.87-3.02,3.96-7.24,5.91-11.98,6.84-4.56.89-9.14.75-13.64-.44-9.24-2.44-15.29-9.63-16.66-19.76-.81-5.99-.6-11.91,1.38-17.7,3.15-9.25,10.83-15.06,20.57-15.66,7.08-.44,13.45.98,18.68,7.05Z"/>
    <path class="cls-2" d="M498.04,272.6c.62.41,1.69.96,2.53,1.75.27.25.16,1.28-.13,1.71-7.21,10.85-14.81,21.46-21.64,32.54-9.75,15.81-18.93,31.97-28.37,47.98-.52.88-1.07,1.78-1.79,2.47-.38.37-1.17.32-1.78.46-.05-.61-.34-1.32-.12-1.81.88-1.92,1.91-3.76,2.9-5.63,12.04-22.84,24.18-45.63,38.16-67.37,2.06-3.2,4.1-6.4,6.18-9.58.84-1.28,1.77-2.48,4.06-2.51Z"/>
    <path class="cls-2" d="M174.8,252.12c3.88-1.05,5.73-3.73,6.48-7.62-.85,0-1.5.05-2.14,0-2.72-.24-4.16-1.79-4.2-4.47-.04-2.55,1.58-4.42,4.05-4.71,2.94-.35,5.16.85,5.59,3.34.83,4.7-1.12,11.11-6.55,13.45-.91.39-1.95.49-2.93.72-.1-.23-.21-.47-.31-.7Z"/>
    <path class="cls-2" d="M521.56,175.66c3.02.13,4.78,1.95,4.67,4.81-.11,2.71-2.25,4.52-5.17,4.36-2.84-.16-4.7-2.08-4.59-4.76.11-2.8,2.11-4.53,5.09-4.41Z"/>
    <path class="cls-2" d="M441.14,370.68c-2.19.06-3.22-1.43-2.25-3.42.95-1.95,2.48-3.28,4.69-3.56,1.71-.21,2.63.79,2.43,2.49-.33,2.93-1.93,4.4-4.88,4.48Z"/>
  </g>
</svg>