<?xml version="1.0" encoding="UTF-8"?>
<svg id="Camada_1" data-name="Camada 1" xmlns="http://www.w3.org/2000/svg" viewBox="0 0 595.28 595.28">
  <defs>
  </defs>
  <rect id="Retângulo_28" data-name="Retângulo 28" class="cls-1" x="0" width="595.28" height="595.28"/>
  <g>
    <path class="cls-2" d="m87.47,222.07l-1.24,17.27.26.52c-.7,3.01-1.05,5.71-1.05,8.11s-.48,4.87-1.44,7.42c-.96,2.55-2.39,4.84-4.29,6.87-1.9,2.03-3.94,3.04-6.12,3.04s-4.21-.83-6.08-2.49c-1.88-1.66-3.43-3.78-4.68-6.38-1.24-2.59-2.33-5.67-3.27-9.22-.94-3.55-1.67-7.04-2.19-10.47-.52-3.42-.96-6.97-1.31-10.63-.52-6.11-.79-11.39-.79-15.86s.2-9.56.59-15.27.61-9.4.65-11.05c.04-1.66.09-3.12.13-4.38.04-1.26.15-2.78.33-4.55.17-1.77.4-3.31.69-4.64.28-1.33.71-2.69,1.28-4.09.57-1.39,1.26-2.55,2.09-3.47,1.83-2.05,4.39-3.07,7.69-3.07s6.01.89,8.14,2.68c.3.48,1.1,1.55,2.39,3.21,1.29,1.66,2.25,3.24,2.88,4.74.63,1.5,1.34,5.2,2.13,11.09,2.14,15.26,3.21,28.8,3.21,40.62Zm-18.51-58.87c-6.59,0-9.88,13.24-9.88,39.71v5.23c0,6.19.47,12.85,1.41,19.98.94,7.13,1.92,12.92,2.94,17.37,1.02,4.45,2.46,8.24,4.32,11.38,1.85,3.14,3.91,4.71,6.18,4.71,3.05,0,5.28-3.11,6.67-9.32,1.39-6.21,2.22-11.74,2.49-16.58.3-6.63.46-10.95.46-12.95v-3.21c0-1.66-.01-3.06-.03-4.22-.02-1.16-.05-3.05-.1-5.69-.04-2.64-.13-4.98-.26-7.03s-.31-4.54-.52-7.46c-.22-2.92-.52-5.53-.92-7.82-.39-2.29-.84-4.73-1.34-7.33-.5-2.59-1.11-4.83-1.83-6.7s-1.54-3.62-2.45-5.23c-1.88-3.23-4.25-4.84-7.13-4.84Z"/>
    <path class="cls-2" d="m137.18,261.97l-4.25-.65c-1,0-2.03.52-3.07,1.57-2.01,0-3.27-.35-3.79-1.05h-.33c-4.1,0-6.48-.76-7.13-2.29,0-1,1.02-1.5,3.07-1.5l2.94.13c1.79,0,2.7-1.29,2.75-3.86.04-2.57-.08-5.71-.36-9.42-.28-3.71-.46-7.39-.52-11.05s-.32-10.79-.75-21.39c-.44-10.6-.72-18.21-.85-22.83l.13-15.7c0-4.32-.13-6.91-.39-7.78l-4.58.98c-.96,0-1.44-.62-1.44-1.86s1.96-2.27,5.89-3.07c3.92-.81,6.58-1.21,7.98-1.21,2.35,0,3.53.73,3.53,2.19s-.55,2.19-1.63,2.19l-3.21-.13c-1.53,0-2.44.72-2.75,2.16-.31,1.18-.46,4.64-.46,10.4s.56,17.16,1.67,34.21c1.11,17.05,1.67,29.87,1.67,38.46l-.13,6.93,4.84-.39c2.31,0,3.47,1.11,3.47,3.34l-2.29,1.63Z"/>
    <path class="cls-2" d="m185.46,255.23l.39,4.84c0,2.62-1.13,3.92-3.4,3.92-1.57,0-2.64-1.68-3.21-5.04-.31-1.57-.48-2.44-.52-2.62-8.72-27.52-14.22-47.62-16.48-60.31-.09-.39-.15-1-.2-1.83-.09-1.79-.5-3.05-1.24-3.79l.26-.65c-.57-3.31-.99-5.61-1.28-6.9-.28-1.29-.6-2.74-.95-4.35-.61-2.83-1.4-5.38-2.35-7.65-.26,1.83-.39,3.23-.39,4.19s.09,1.7.26,2.22c-.61,2.09-.92,5.19-.92,9.29v36.7c0,4.27.3,10.64.92,19.1.61,8.46.92,14.83.92,19.1l-.92,1.05h-3.07l-.39-1.05c.17-.7.26-2.49.26-5.36l-1.5-46.64v-17.53l.98-25.32-.13-2.81c0-1.13.29-1.89.88-2.26.59-.37,1.35-.56,2.29-.56s1.75.27,2.45.82c.7.55,1.05,1.41,1.05,2.58s.2,2.46.59,3.86c.39,1.4.96,2.96,1.7,4.68.74,1.72,1.32,3.29,1.73,4.71.41,1.42.79,3.69,1.14,6.8.35,3.12.76,5.88,1.24,8.27.48,2.4,1.26,5.63,2.35,9.68,1.09,4.06,2.34,8.55,3.76,13.47,1.42,4.93,2.32,8.17,2.71,9.71.39,1.55.92,3.52,1.57,5.92,1.39,4.97,2.14,8.48,2.22,10.53.61.92,1.08,2.68,1.41,5.3s1.06,4.41,2.19,5.36c.57-1.26.85-3.4.85-6.41l.52-46.64-.39-20.74.39-5.1c0-.96-.13-1.53-.39-1.7l.39-1.11c0-5.49-.17-9.16-.52-10.99.35-1.22,1.46-1.83,3.34-1.83,1.44,0,2.16,1.46,2.16,4.38-.57,1.13-.85,2.62-.85,4.45l.13,4.51c0,1.92-.17,3.27-.52,4.06l-.39,42.32c0,.83.09,2.03.26,3.6l-.26.59v16.88l.26,5.04c0,5.32-.44,8.98-1.31,10.99v.26Z"/>
    <path class="cls-2" d="m217.7,226.84l.65,31.2c0,3.49-.76,5.23-2.29,5.23-.92,0-1.61-.62-2.09-1.86-.48-1.24-.72-2.41-.72-3.5l1.11-21.98c0-4.71-.32-11.83-.95-21.36-.63-9.53-.95-16.69-.95-21.49l.13-12.56c0-9.2-.76-13.8-2.29-13.8l-7.59.79c-.65,0-1.29-.21-1.9-.62-.61-.41-.92-.97-.92-1.67,0-.92,2.96-1.79,8.9-2.62,5.93-.83,10.64-1.24,14.13-1.24.65,0,1.29.23,1.9.69.61.46.92.99.92,1.6,0,1.31-.85,1.96-2.55,1.96l-4.97-.39c-1.53,0-2.46.46-2.81,1.37.65,5.63.98,11.43.98,17.4l-.2,16.22c0,10.55.63,18.14,1.9,22.76-.26,1.31-.39,2.6-.39,3.86Z"/>
    <path class="cls-2" d="m243.8,258.5l8.04-.46c4.19,0,6.28.72,6.28,2.16-.74,1.31-2.07,2.15-3.99,2.52-1.92.37-3.77.56-5.56.56h-3.14c-4.01,0-6.32-.32-6.93-.95-.61-.63-.92-1.3-.92-2l1.24-4.97v-.26c-.35-1.79-.52-3.75-.52-5.89l.65-13.67-.79-28.65.65-26.62c0-1.61-.28-4-.85-7.16-.57-3.16-.87-5.48-.92-6.97l2.42-3.73,9.35-1.18.46.39c2.09,0,3.3.27,3.63.82.33.55.49,1.12.49,1.73,0,1.7-1.61,2.55-4.84,2.55l-3.6-.26c-1.96,0-2.94.52-2.94,1.57l1.05,22.76-.65,16.75-.26.26.79.46,7.39-1.37c.48,0,1,.25,1.57.75.57.5.85,1.01.85,1.54,0,1.79-.68,2.68-2.03,2.68l-3.07-.13c-3.4,0-5.1.85-5.1,2.55l.98,11.25-.46.79v27.21c.48.57.72,1.81.72,3.73v1.24Z"/>
    <path class="cls-2" d="m282.46,262.49l-4.19-.13c-.48,0-1.09.27-1.83.82-.74.54-1.42.82-2.03.82s-1.23-.28-1.86-.85c-.63-.57-.95-1.22-.95-1.96l.79-6.08-1.31-38-1.37-55.99c0-.92.59-1.37,1.77-1.37,1.7,0,2.55.81,2.55,2.42,0,20.63.22,33.7.65,39.22.44,5.52.65,8.93.65,10.24s-.09,3.05-.26,5.23l.39.52c-.17,2.35-.26,4.74-.26,7.16s.23,7.05.69,13.9c.46,6.85.73,11.71.82,14.59-.35.52-.52,1.42-.52,2.68s.21,2.12.62,2.55c.41.44,1.3.65,2.65.65s2.27-.28,2.75-.85h4.97c1.22.61,1.83,1.31,1.83,2.09,0,1.74-.61,2.62-1.83,2.62-.31,0-.98-.17-2.03-.52-.44.17-1.33.26-2.68.26Z"/>
    <path class="cls-2" d="m317.92,261.97l-4.25-.65c-1,0-2.03.52-3.07,1.57-2.01,0-3.27-.35-3.79-1.05h-.33c-4.1,0-6.48-.76-7.13-2.29,0-1,1.02-1.5,3.07-1.5l2.94.13c1.79,0,2.7-1.29,2.75-3.86.04-2.57-.08-5.71-.36-9.42-.28-3.71-.46-7.39-.52-11.05s-.32-10.79-.75-21.39c-.44-10.6-.72-18.21-.85-22.83l.13-15.7c0-4.32-.13-6.91-.39-7.78l-4.58.98c-.96,0-1.44-.62-1.44-1.86s1.96-2.27,5.89-3.07c3.92-.81,6.58-1.21,7.98-1.21,2.35,0,3.53.73,3.53,2.19s-.55,2.19-1.63,2.19l-3.21-.13c-1.53,0-2.44.72-2.75,2.16-.31,1.18-.46,4.64-.46,10.4s.56,17.16,1.67,34.21c1.11,17.05,1.67,29.87,1.67,38.46l-.13,6.93,4.84-.39c2.31,0,3.47,1.11,3.47,3.34l-2.29,1.63Z"/>
    <path class="cls-2" d="m362.92,232.21c2.79,0,4.19,1.88,4.19,5.63,0,2.66.45,6.64,1.34,11.94.89,5.3,1.34,9.28,1.34,11.94,0,1.4-.59,2.09-1.77,2.09-2.14,0-3.21-.98-3.21-2.94,0-.04.02-.15.07-.33.04-.17.07-.28.07-.33-.87.26-2.01.89-3.4,1.9s-2.44,1.61-3.14,1.83c-.7.22-1.76.37-3.17.46-1.42.09-2.45.35-3.11.79h.26c-5.89-1.31-10.29-3.36-13.21-6.15-2.35-2.22-4.01-6-4.97-11.32-1.66-8.85-2.49-23.05-2.49-42.58,0-7.67.22-13.12.65-16.35.44-3.23.9-6.07,1.41-8.54.5-2.46,1.11-4.6,1.83-6.41s1.62-3.65,2.71-5.53c1.09-1.88,2.31-3.4,3.66-4.58,3.05-2.66,6.74-3.99,11.05-3.99,2.66,0,3.99.76,3.99,2.29,0,1.09-.65,1.63-1.96,1.63l-3.79-.72c-6.85,0-11.27,6.26-13.28,18.77-1.13,6.8-1.7,15.7-1.7,26.69-.26,7.06-.39,11.96-.39,14.69s.02,4.84.07,6.34c.04,1.5.14,3.39.29,5.66.15,2.27.41,4.31.78,6.12.37,1.81.82,3.76,1.34,5.85.52,2.09,1.23,3.92,2.13,5.46.89,1.55,1.93,2.98,3.11,4.29,2.44,2.7,5.87,4.05,10.27,4.05s8.04-2.22,10.92-6.67c0-6.67-.4-11.22-1.21-13.64-.81-2.42-1.56-3.63-2.26-3.63l-5.36.52c-2.05,0-3.07-.76-3.07-2.29,0-.83,1.32-1.53,3.96-2.09,2.64-.57,4.65-.85,6.05-.85Z"/>
    <path class="cls-2" d="m389.22,258.5l8.04-.46c4.19,0,6.28.72,6.28,2.16-.74,1.31-2.07,2.15-3.99,2.52-1.92.37-3.77.56-5.56.56h-3.14c-4.01,0-6.32-.32-6.93-.95-.61-.63-.92-1.3-.92-2l1.24-4.97v-.26c-.35-1.79-.52-3.75-.52-5.89l.65-13.67-.79-28.65.65-26.62c0-1.61-.28-4-.85-7.16-.57-3.16-.87-5.48-.92-6.97l2.42-3.73,9.35-1.18.46.39c2.09,0,3.3.27,3.63.82.33.55.49,1.12.49,1.73,0,1.7-1.61,2.55-4.84,2.55l-3.6-.26c-1.96,0-2.94.52-2.94,1.57l1.05,22.76-.65,16.75-.26.26.79.46,7.39-1.37c.48,0,1,.25,1.57.75.57.5.85,1.01.85,1.54,0,1.79-.68,2.68-2.03,2.68l-3.07-.13c-3.4,0-5.1.85-5.1,2.55l.98,11.25-.46.79v27.21c.48.57.72,1.81.72,3.73v1.24Z"/>
    <path class="cls-2" d="m449.33,255.23l.39,4.84c0,2.62-1.13,3.92-3.4,3.92-1.57,0-2.64-1.68-3.21-5.04-.31-1.57-.48-2.44-.52-2.62-8.72-27.52-14.22-47.62-16.48-60.31-.09-.39-.15-1-.2-1.83-.09-1.79-.5-3.05-1.24-3.79l.26-.65c-.57-3.31-.99-5.61-1.28-6.9-.28-1.29-.6-2.74-.95-4.35-.61-2.83-1.4-5.38-2.35-7.65-.26,1.83-.39,3.23-.39,4.19s.09,1.7.26,2.22c-.61,2.09-.92,5.19-.92,9.29v36.7c0,4.27.3,10.64.92,19.1.61,8.46.92,14.83.92,19.1l-.92,1.05h-3.07l-.39-1.05c.17-.7.26-2.49.26-5.36l-1.5-46.64v-17.53l.98-25.32-.13-2.81c0-1.13.29-1.89.88-2.26.59-.37,1.35-.56,2.29-.56s1.75.27,2.45.82c.7.55,1.05,1.41,1.05,2.58s.2,2.46.59,3.86c.39,1.4.96,2.96,1.7,4.68.74,1.72,1.32,3.29,1.73,4.71.41,1.42.79,3.69,1.14,6.8.35,3.12.76,5.88,1.24,8.27.48,2.4,1.26,5.63,2.35,9.68,1.09,4.06,2.34,8.55,3.76,13.47,1.42,4.93,2.32,8.17,2.71,9.71.39,1.55.92,3.52,1.57,5.92,1.39,4.97,2.14,8.48,2.22,10.53.61.92,1.08,2.68,1.41,5.3s1.06,4.41,2.19,5.36c.57-1.26.85-3.4.85-6.41l.52-46.64-.39-20.74.39-5.1c0-.96-.13-1.53-.39-1.7l.39-1.11c0-5.49-.17-9.16-.52-10.99.35-1.22,1.46-1.83,3.34-1.83,1.44,0,2.16,1.46,2.16,4.38-.57,1.13-.85,2.62-.85,4.45l.13,4.51c0,1.92-.17,3.27-.52,4.06l-.39,42.32c0,.83.09,2.03.26,3.6l-.26.59v16.88l.26,5.04c0,5.32-.44,8.98-1.31,10.99v.26Z"/>
    <path class="cls-2" d="m481.58,226.84l.65,31.2c0,3.49-.76,5.23-2.29,5.23-.92,0-1.61-.62-2.09-1.86-.48-1.24-.72-2.41-.72-3.5l1.11-21.98c0-4.71-.32-11.83-.95-21.36-.63-9.53-.95-16.69-.95-21.49l.13-12.56c0-9.2-.76-13.8-2.29-13.8l-7.59.79c-.65,0-1.29-.21-1.9-.62-.61-.41-.92-.97-.92-1.67,0-.92,2.96-1.79,8.9-2.62,5.93-.83,10.64-1.24,14.13-1.24.65,0,1.29.23,1.9.69.61.46.92.99.92,1.6,0,1.31-.85,1.96-2.55,1.96l-4.97-.39c-1.53,0-2.46.46-2.81,1.37.65,5.63.98,11.43.98,17.4l-.2,16.22c0,10.55.63,18.14,1.9,22.76-.26,1.31-.39,2.6-.39,3.86Z"/>
    <path class="cls-2" d="m507.68,258.5l8.04-.46c4.19,0,6.28.72,6.28,2.16-.74,1.31-2.07,2.15-3.99,2.52-1.92.37-3.77.56-5.56.56h-3.14c-4.01,0-6.32-.32-6.93-.95-.61-.63-.92-1.3-.92-2l1.24-4.97v-.26c-.35-1.79-.52-3.75-.52-5.89l.65-13.67-.79-28.65.65-26.62c0-1.61-.28-4-.85-7.16-.57-3.16-.87-5.48-.92-6.97l2.42-3.73,9.35-1.18.46.39c2.09,0,3.3.27,3.63.82.33.55.49,1.12.49,1.73,0,1.7-1.61,2.55-4.84,2.55l-3.6-.26c-1.96,0-2.94.52-2.94,1.57l1.05,22.76-.65,16.75-.26.26.79.46,7.39-1.37c.48,0,1,.25,1.57.75.57.5.85,1.01.85,1.54,0,1.79-.68,2.68-2.03,2.68l-3.07-.13c-3.4,0-5.1.85-5.1,2.55l.98,11.25-.46.79v27.21c.48.57.72,1.81.72,3.73v1.24Z"/>
    <path class="cls-2" d="m125.73,384l1.5,34.93v1.44c0,1.05-.13,1.7-.39,1.96-.7.61-1.46.92-2.29.92s-1.5-.22-2.03-.65c-.52-.44-.79-.98-.79-1.63.26-.52.39-1.05.39-1.57l-.39-2.68v-13.28c0-1.18-2.35-2.19-7.06-3.04-4.71-.85-8.2-1.28-10.47-1.28-.87,0-1.66,1.62-2.35,4.87-.7,3.25-1.37,6.81-2.03,10.69-.65,3.88-1.31,6.3-1.96,7.26-2.09,0-3.47-.54-4.12-1.63,1.39-2.01,2.74-6.89,4.02-14.65,1.29-7.76,2.32-13.4,3.11-16.91.79-3.51,2.19-11.13,4.22-22.86,2.03-11.73,3.4-19.24,4.12-22.53s1.28-5.72,1.67-7.29.89-3.42,1.5-5.56c1.44-5.14,2.72-7.72,3.86-7.72,1.39,0,2.32.32,2.78.95.46.63.85,2.12,1.18,4.45s.65,5.3.98,8.9.62,6.9.88,9.91c.83,9.42,1.34,15.61,1.54,18.58.2,2.97.6,5.1,1.21,6.41-.17,2.7-.26,5.03-.26,6.97s.39,3.63,1.18,5.07Zm-21.98,11.38c3.75,1.27,8.26,1.9,13.54,1.9,1.09,0,1.9-.09,2.42-.26l.65.26c.83,0,1.24-.41,1.24-1.24,0-18.66-1.74-38.79-5.23-60.38-.04-.26-.14-.74-.29-1.44-.15-.7-.23-1.24-.23-1.64-1.09,3.1-1.68,5.06-1.77,5.89l.39.79c-.31.31-.81,1.84-1.5,4.61-.7,2.77-1.67,8.48-2.91,17.14-1.24,8.66-2.14,14.22-2.68,16.68-.55,2.46-1.12,4.7-1.73,6.7-1.27,4.45-1.9,7.85-1.9,10.21v.78Z"/>
    <path class="cls-2" d="m158.7,424.43c-.31,0-.98-.17-2.03-.52-1.61-6.5-3.92-19.71-6.93-39.64-3.01-19.93-5.29-34.56-6.84-43.89s-2.85-14.98-3.89-16.94c.3-.96,1.2-1.44,2.68-1.44s2.38,1.61,2.81,4.84c.09.44.44,2.31,1.05,5.63.61,3.31,2.23,14.16,4.87,32.54,2.64,18.38,5.11,32.52,7.42,42.42.48-2.62.84-5.17,1.08-7.65.24-2.49,1.28-11.6,3.11-27.34,3.31-28.48,4.97-44.59,4.97-48.34v-.52c1.31-1.31,2.42-1.96,3.34-1.96l.79.52h-.26l1.37,1.05c0,1.88-.32,4.64-.95,8.31-.63,3.66-.95,6.43-.95,8.31-.92,1.66-2.64,14.4-5.17,38.23-2.53,23.83-3.84,38.32-3.92,43.47-.74,1.96-1.59,2.94-2.55,2.94Zm-.85-16.62l-.26.33h.46l-.2-.33Z"/>
    <path class="cls-2" d="m216.26,382.83l-1.24,17.27.26.52c-.7,3.01-1.05,5.71-1.05,8.11s-.48,4.87-1.44,7.42c-.96,2.55-2.39,4.84-4.29,6.87-1.9,2.03-3.94,3.04-6.12,3.04s-4.21-.83-6.08-2.49c-1.88-1.66-3.43-3.78-4.68-6.38-1.24-2.59-2.33-5.67-3.27-9.22-.94-3.55-1.67-7.04-2.19-10.47-.52-3.42-.96-6.97-1.31-10.63-.52-6.11-.79-11.39-.79-15.86s.2-9.56.59-15.27.61-9.4.65-11.05c.04-1.66.09-3.12.13-4.38.04-1.26.15-2.78.33-4.55.17-1.77.4-3.31.69-4.64.28-1.33.71-2.69,1.28-4.09.57-1.39,1.26-2.55,2.09-3.47,1.83-2.05,4.39-3.07,7.69-3.07s6.01.89,8.14,2.68c.3.48,1.1,1.55,2.39,3.21,1.29,1.66,2.25,3.24,2.88,4.74.63,1.5,1.34,5.2,2.13,11.09,2.14,15.26,3.21,28.8,3.21,40.62Zm-18.51-58.87c-6.59,0-9.88,13.24-9.88,39.71v5.23c0,6.19.47,12.85,1.41,19.98.94,7.13,1.92,12.92,2.94,17.37,1.02,4.45,2.46,8.24,4.32,11.38,1.85,3.14,3.91,4.71,6.18,4.71,3.05,0,5.28-3.11,6.67-9.32,1.39-6.21,2.22-11.74,2.49-16.58.3-6.63.46-10.95.46-12.95v-3.21c0-1.66-.01-3.06-.03-4.22-.02-1.16-.05-3.05-.1-5.69-.04-2.64-.13-4.98-.26-7.03s-.31-4.54-.52-7.46c-.22-2.92-.52-5.53-.92-7.82-.39-2.29-.84-4.73-1.34-7.33-.5-2.59-1.11-4.83-1.83-6.7s-1.54-3.62-2.45-5.23c-1.88-3.23-4.25-4.84-7.13-4.84Zm6.74-10.14l-1.77-1.11c-.44-5.41-1.72-12.1-3.86-20.08-1.13,2.88-2.33,6.28-3.6,10.2s-1.94,6.32-2.03,7.2l-2.29,3.07-2.42-1.7c.09-1.96,1.65-6.22,4.68-12.79,3.03-6.56,5.2-9.84,6.51-9.84s1.96.91,1.96,2.71.21,3.55.62,5.23c.41,1.68,1,3.56,1.77,5.66.76,2.09,1.3,3.71,1.6,4.84l-.13.85.98,1.96-.13.72c.35.7.52,1.18.52,1.44,0,.83-.81,1.37-2.42,1.64Z"/>
    <path class="cls-2" d="m283.83,321.6c.26-1.44,1.33-2.16,3.21-2.16.3,0,.65.22,1.05.65.39.44.59.83.59,1.18-.31,5.97-.46,11.71-.46,17.2s.36,14.98,1.08,28.46c.72,13.47,1.08,22.52,1.08,27.15s-.04,7.49-.13,8.6c-.09,1.11.02,3.09.33,5.92.3,2.83.46,6.41.46,10.73s-.65,6.78-1.96,7.39v-.39l-.52.52-2.55-1.05v-.39c0-.57.13-1.11.39-1.63l-.52-1.18c.17-5.32.26-9.4.26-12.23l-.98-44.02.26-15.04c0-1.53-.08-3.66-.23-6.41-.15-2.75-.25-4.58-.29-5.5-.17.17-.26.48-.26.92-.26,5.8-1.53,14.61-3.79,26.43-1.44,9.12-3.29,17.42-5.56,24.92-.13.48-.37,1.13-.72,1.96-.79,1.88-1.18,3.31-1.18,4.32l.39.65c-.09.3-.28,1.46-.59,3.47-.7,4.4-1.92,6.61-3.66,6.61-1.96,0-3.01-3.47-3.14-10.4,0-1.13-.12-2.61-.36-4.42-.24-1.81-2.22-11.53-5.95-29.17-3.73-17.64-5.85-26.83-6.38-27.57-.35,8.07-.52,17.09-.52,27.08l.39,42.58.65,12.76c0,1.61-.35,2.77-1.05,3.47-2.53,0-3.79-2.33-3.79-7l.72-22.37-.52-27.15.39-31.79c0-5.1-.04-8.94-.13-11.51l2.55-1.44c2.09.26,6.02,14.54,11.77,42.84,1.18,5.93,2.09,10.31,2.75,13.15.65,2.83,1.11,4.85,1.37,6.05.26,1.2.54,2.63.85,4.28.7,3.36,1.05,5.8,1.05,7.33.52-1.35,1.37-5.04,2.55-11.05l1.9-9.42c.52-2.53,1.73-8.95,3.63-19.26,1.9-10.31,3.15-16.89,3.76-19.72,1.26-5.8,1.96-10.36,2.09-13.67l-.26-.65Z"/>
    <path class="cls-2" d="m335.51,384l1.5,34.93v1.44c0,1.05-.13,1.7-.39,1.96-.7.61-1.46.92-2.29.92s-1.5-.22-2.03-.65c-.52-.44-.79-.98-.79-1.63.26-.52.39-1.05.39-1.57l-.39-2.68v-13.28c0-1.18-2.35-2.19-7.06-3.04-4.71-.85-8.2-1.28-10.47-1.28-.87,0-1.66,1.62-2.35,4.87-.7,3.25-1.37,6.81-2.03,10.69-.65,3.88-1.31,6.3-1.96,7.26-2.09,0-3.47-.54-4.12-1.63,1.39-2.01,2.74-6.89,4.02-14.65,1.29-7.76,2.32-13.4,3.11-16.91.79-3.51,2.19-11.13,4.22-22.86,2.03-11.73,3.4-19.24,4.12-22.53s1.28-5.72,1.67-7.29.89-3.42,1.5-5.56c1.44-5.14,2.72-7.72,3.86-7.72,1.39,0,2.32.32,2.78.95.46.63.85,2.12,1.18,4.45s.65,5.3.98,8.9.62,6.9.88,9.91c.83,9.42,1.34,15.61,1.54,18.58.2,2.97.6,5.1,1.21,6.41-.17,2.7-.26,5.03-.26,6.97s.39,3.63,1.18,5.07Zm-21.98,11.38c3.75,1.27,8.26,1.9,13.54,1.9,1.09,0,1.9-.09,2.42-.26l.65.26c.83,0,1.24-.41,1.24-1.24,0-18.66-1.74-38.79-5.23-60.38-.04-.26-.14-.74-.29-1.44-.15-.7-.23-1.24-.23-1.64-1.09,3.1-1.68,5.06-1.77,5.89l.39.79c-.31.31-.81,1.84-1.5,4.61-.7,2.77-1.67,8.48-2.91,17.14-1.24,8.66-2.14,14.22-2.68,16.68-.55,2.46-1.12,4.7-1.73,6.7-1.27,4.45-1.9,7.85-1.9,10.21v.78Z"/>
    <path class="cls-2" d="m384.57,415.99l.39,4.84c0,2.62-1.13,3.92-3.4,3.92-1.57,0-2.64-1.68-3.21-5.04-.31-1.57-.48-2.44-.52-2.62-8.72-27.52-14.22-47.62-16.48-60.31-.09-.39-.15-1-.2-1.83-.09-1.79-.5-3.05-1.24-3.79l.26-.65c-.57-3.31-.99-5.61-1.28-6.9-.28-1.29-.6-2.74-.95-4.35-.61-2.83-1.4-5.38-2.35-7.65-.26,1.83-.39,3.23-.39,4.19s.09,1.7.26,2.22c-.61,2.09-.92,5.19-.92,9.29v36.7c0,4.27.3,10.64.92,19.1.61,8.46.92,14.83.92,19.1l-.92,1.05h-3.07l-.39-1.05c.17-.7.26-2.49.26-5.36l-1.5-46.64v-17.53l.98-25.32-.13-2.81c0-1.13.29-1.89.88-2.26.59-.37,1.35-.56,2.29-.56s1.75.27,2.45.82c.7.55,1.05,1.41,1.05,2.58s.2,2.46.59,3.86c.39,1.4.96,2.96,1.7,4.68.74,1.72,1.32,3.29,1.73,4.71.41,1.42.79,3.69,1.14,6.8.35,3.12.76,5.88,1.24,8.27.48,2.4,1.26,5.63,2.35,9.68,1.09,4.06,2.34,8.55,3.76,13.47,1.42,4.93,2.32,8.17,2.71,9.71.39,1.55.92,3.52,1.57,5.92,1.39,4.97,2.14,8.48,2.22,10.53.61.92,1.08,2.68,1.41,5.3s1.06,4.41,2.19,5.36c.57-1.26.85-3.4.85-6.41l.52-46.64-.39-20.74.39-5.1c0-.96-.13-1.53-.39-1.7l.39-1.11c0-5.49-.17-9.16-.52-10.99.35-1.22,1.46-1.83,3.34-1.83,1.44,0,2.16,1.46,2.16,4.38-.57,1.13-.85,2.62-.85,4.45l.13,4.51c0,1.92-.17,3.27-.52,4.06l-.39,42.32c0,.83.09,2.03.26,3.6l-.26.59v16.88l.26,5.04c0,5.32-.44,8.98-1.31,10.99v.26Z"/>
    <path class="cls-2" d="m435.46,395.38l.13,8.44c0,7.54-.98,13.11-2.94,16.68-.83,1.48-2.03,2.74-3.6,3.76-1.57,1.02-3.6,1.54-6.08,1.54s-4.77-.67-6.87-2c-2.09-1.33-3.71-3-4.84-5-1.13-2-2.13-4.34-2.98-7-.85-2.66-1.45-5.17-1.8-7.52-1-6.19-1.99-10.18-2.94-11.97,0-7.11-.45-17.74-1.34-31.89-.89-14.15-1.34-24.78-1.34-31.89l-.92-2.81c0-.61.23-1.21.69-1.8s.99-.88,1.6-.88c2.22,0,3.34,3.27,3.34,9.81l1.18,45.27c.35.44.57,1.5.65,3.21.43,6.19.85,10.16,1.24,11.91-.17,1.05-.26,2.18-.26,3.4s.43,3.27,1.28,6.15c.85,2.88,1.96,5.71,3.34,8.5,1.37,2.79,3.08,5.19,5.13,7.2,2.05,2.01,3.88,3.01,5.49,3.01s2.81-.17,3.6-.52c.79-.35,1.4-.73,1.83-1.15.44-.41.79-1.1,1.08-2.06.28-.96.47-1.69.56-2.19.09-.5.17-1.4.26-2.68.09-1.29.12-2.07.1-2.35-.02-.28-.03-.69-.03-1.21l.39-4.45v-15.24l-.92-8.05-.78-24.01v-1.7l-.59-.79c.39-2.53.59-5.08.59-7.65l-1.24-22.76c0-.7.32-1.23.95-1.6.63-.37,1.3-.56,2-.56l2.29,2.16-.39,1.05.39,1.05-.92,8.05,1.31,24.14.65,23.29.46.13c-.09.61-.13,1.55-.13,2.81l.39,9.42.39.39-.39.39Z"/>
    <path class="cls-2" d="m456.07,419.26l8.04-.46c4.19,0,6.28.72,6.28,2.16-.74,1.31-2.07,2.15-3.99,2.52-1.92.37-3.77.56-5.56.56h-3.14c-4.01,0-6.32-.32-6.93-.95-.61-.63-.92-1.3-.92-2l1.24-4.97v-.26c-.35-1.79-.52-3.75-.52-5.89l.65-13.67-.79-28.65.65-26.62c0-1.61-.28-4-.85-7.16-.57-3.16-.87-5.48-.92-6.97l2.42-3.73,9.35-1.18.46.39c2.09,0,3.3.27,3.63.82.33.55.49,1.12.49,1.73,0,1.7-1.61,2.55-4.84,2.55l-3.6-.26c-1.96,0-2.94.52-2.94,1.57l1.05,22.76-.65,16.75-.26.26.79.46,7.39-1.37c.48,0,1,.25,1.57.75.57.5.85,1.01.85,1.54,0,1.79-.68,2.68-2.03,2.68l-3.07-.13c-3.4,0-5.1.85-5.1,2.55l.98,11.25-.46.79v27.21c.48.57.72,1.81.72,3.73v1.24Z"/>
    <path class="cls-2" d="m494.73,423.25l-4.19-.13c-.48,0-1.09.27-1.83.82-.74.54-1.42.82-2.03.82s-1.23-.28-1.86-.85c-.63-.57-.95-1.22-.95-1.96l.79-6.08-1.31-38-1.37-55.99c0-.92.59-1.37,1.77-1.37,1.7,0,2.55.81,2.55,2.42,0,20.63.22,33.7.65,39.22.44,5.52.65,8.93.65,10.24s-.09,3.05-.26,5.23l.39.52c-.17,2.35-.26,4.74-.26,7.16s.23,7.05.69,13.9c.46,6.85.73,11.71.82,14.59-.35.52-.52,1.42-.52,2.68s.21,2.12.62,2.55c.41.44,1.3.65,2.65.65s2.27-.28,2.75-.85h4.97c1.22.61,1.83,1.31,1.83,2.09,0,1.74-.61,2.62-1.83,2.62-.31,0-.98-.17-2.03-.52-.44.17-1.33.26-2.68.26Z"/>
  </g>
</svg>